<svg xmlns="http://www.w3.org/2000/svg" xmlns:xlink="http://www.w3.org/1999/xlink" width="400" height="360.636" viewBox="0 0 400 360.636">
  <defs>
    <clipPath id="clip-path">
      <path id="Trazado_104742" data-name="Trazado 104742" d="M2527.87-38.706s-6.736.823-39.488-10.047c-27.5-9.125-7.435-60.44-7.435-60.44s-26.217,4.782-44.706-6.7c0,0-79.044,124.156,13.526,136.573L2565.3,51.887v-90.1Z" transform="translate(-2404.799 115.897)" fill="none"/>
    </clipPath>
    <clipPath id="clip-path-2">
      <path id="Trazado_104743" data-name="Trazado 104743" d="M2605.585-38.706s6.742.823,39.489-10.047c27.5-9.125,6.313-60.44,6.313-60.44s26.217,4.782,44.706-6.7c0,0,80.164,124.156-12.405,136.573L2568.16,51.886v-90.1Z" transform="translate(-2568.16 115.897)" fill="none"/>
    </clipPath>
    <clipPath id="clip-path-3">
      <path id="Trazado_104744" data-name="Trazado 104744" d="M2527.87-38.706s-6.736.823-39.488-10.047c-27.5-9.125-7.435-60.44-7.435-60.44s-26.217,4.782-44.706-6.7c0,0-79.044,124.156,13.526,136.573L2565.96,44.483l-.665-82.7Z" transform="translate(-2404.799 115.897)" fill="none"/>
    </clipPath>
    <clipPath id="clip-path-4">
      <path id="Trazado_104745" data-name="Trazado 104745" d="M2605.933-38.706s6.736.823,39.49-10.047c27.5-9.125,5.982-60.44,5.982-60.44s26.217,4.782,44.705-6.7c0,0,80.5,124.156-12.074,136.573l-115.53,31.21v-90.1Z" transform="translate(-2568.506 115.897)" fill="none"/>
    </clipPath>
    <clipPath id="clip-path-5">
      <path id="Trazado_104746" data-name="Trazado 104746" d="M2532.929-64.565l5.383,29.02,35.8,30.177,33.327-30.69,2.984-32.584Z" transform="translate(-2532.929 68.643)" fill="none"/>
    </clipPath>
    <clipPath id="clip-path-6">
      <path id="Trazado_104747" data-name="Trazado 104747" d="M2509.856-200.829a10.632,10.632,0,0,0,1.292,7.484,9.317,9.317,0,0,0,5.647,3.829l51.686-30.438-9.141-11.49Z" transform="translate(-2509.656 231.444)" fill="none"/>
    </clipPath>
  </defs>
  <g id="Grupo_58496" data-name="Grupo 58496" transform="translate(-2362.396 261.622)">
    <ellipse id="Elipse_5292" data-name="Elipse 5292" cx="200" cy="121.604" rx="200" ry="121.604" transform="translate(2362.396 -144.195)" fill="#fd705c"/>
    <g id="Grupo_58424" data-name="Grupo 58424" transform="translate(2402.661 -123.244)">
      <g id="Grupo_58422" data-name="Grupo 58422">
        <g id="Grupo_58420" data-name="Grupo 58420">
          <path id="Trazado_104626" data-name="Trazado 104626" d="M2527.87-38.706s-6.736.823-39.488-10.047c-27.5-9.125-7.435-60.44-7.435-60.44s-26.217,4.782-44.706-6.7c0,0-79.044,124.156,13.526,136.573l115.844,28.7-.314-87.6Z" transform="translate(-2404.799 115.897)" fill="#3687a3"/>
          <path id="Trazado_104627" data-name="Trazado 104627" d="M2605.827-38.706s6.736.823,39.488-10.047c27.5-9.125,6.086-60.44,6.086-60.44s26.217,4.782,44.705-6.7c0,0,80.393,124.156-12.176,136.573L2568.4,48.563V-38.216Z" transform="translate(-2413.048 115.897)" fill="#3687a3"/>
          <g id="Grupo_58413" data-name="Grupo 58413">
            <g id="Grupo_58460" data-name="Grupo 58460">
              <g id="Grupo_58485" data-name="Grupo 58485">
                <g id="Grupo_58484" data-name="Grupo 58484" clip-path="url(#clip-path)">
                  <g id="Grupo_58459" data-name="Grupo 58459" transform="translate(-19.663 7.905)">
                    <g id="Grupo_58412" data-name="Grupo 58412">
                      <path id="Trazado_104628" data-name="Trazado 104628" d="M2407.755-107.572s.622,124.35,153.257,131.981V59.386H2393.765S2364.511-35.412,2407.755-107.572Z" transform="translate(-2384.092 107.572)" fill="#00537e"/>
                    </g>
                  </g>
                </g>
              </g>
            </g>
          </g>
          <g id="Grupo_58415" data-name="Grupo 58415" transform="translate(155.125)">
            <g id="Grupo_58462" data-name="Grupo 58462">
              <g id="Grupo_58487" data-name="Grupo 58487">
                <g id="Grupo_58486" data-name="Grupo 58486" clip-path="url(#clip-path-2)">
                  <g id="Grupo_58461" data-name="Grupo 58461" transform="translate(1.374 7.905)">
                    <g id="Grupo_58414" data-name="Grupo 58414">
                      <path id="Trazado_104630" data-name="Trazado 104630" d="M2729.259-107.572s-7.019,124.31-159.652,131.941l.238,35.017h168.877S2772.5-35.412,2729.259-107.572Z" transform="translate(-2569.607 107.572)" fill="#00537e"/>
                    </g>
                  </g>
                </g>
              </g>
            </g>
          </g>
          <path id="Trazado_104632" data-name="Trazado 104632" d="M2500.164-17.508c-1.511-6.147-4.9-12.094-7.812-17.662a144.85,144.85,0,0,0-9.524-16.265,69.122,69.122,0,0,0-5.02-8.8c-.26-.38-.943-.158-.784.33,2.879,8.831,7.23,17.261,10.477,25.981,3.134,8.419,5.318,17.295,9.116,25.449a.456.456,0,0,0,.628.148.458.458,0,0,0,.216-.376c-.976-9.106-4.558-17.959-7.849-26.444-.754-1.945-1.52-3.927-2.3-5.921,1.106,2.059,2.2,4.124,3.245,6.213,2.912,5.825,5.252,12.227,8.772,17.706a.462.462,0,0,0,.635.154.462.462,0,0,0,.206-.515Z" transform="translate(-2408.439 113.1)" fill="#00537e"/>
          <path id="Trazado_104633" data-name="Trazado 104633" d="M2675.016-56.3a.038.038,0,0,0-.037.037h0a.039.039,0,0,0,.037.038.037.037,0,0,0,.037-.039.036.036,0,0,0-.035-.037Z" transform="translate(-2418.421 112.892)" fill="#051b29"/>
          <path id="Trazado_104634" data-name="Trazado 104634" d="M2663.251-59.826a71.119,71.119,0,0,0-5.016,8.94,82.669,82.669,0,0,0-7.977,14.031c-2.564,5.449-4.987,11.11-5.94,17.084-.067.414.52.76.74.311,2.609-5.331,4.475-10.989,6.885-16.411.261-.589.532-1.174.805-1.756-.048.128-.1.258-.146.387-2.827,7.6-5.913,15.9-6.513,24.045-.043.58.77.6.949.128,2.914-7.7,4.531-15.914,7.335-23.685s6.527-15.119,9.57-22.782C2664.115-59.956,2663.476-60.164,2663.251-59.826Z" transform="translate(-2416.875 113.078)" fill="#00537e"/>
          <g id="Grupo_58417" data-name="Grupo 58417">
            <g id="Grupo_58464" data-name="Grupo 58464">
              <g id="Grupo_58489" data-name="Grupo 58489">
                <g id="Grupo_58488" data-name="Grupo 58488" clip-path="url(#clip-path-3)">
                  <g id="Grupo_58463" data-name="Grupo 58463" transform="translate(-3.157 16.343)">
                    <g id="Grupo_58416" data-name="Grupo 58416">
                      <path id="Trazado_104635" data-name="Trazado 104635" d="M2487.833-92.971c-13.452,9.852-27.337,19.276-44.744,19.007a42.331,42.331,0,0,1-23.024-6.94c-6.961-4.7-12.546-11.406-18.031-17.681-.242-.278-.709.084-.512.394,4.653,7.279,9.48,14.414,16.543,19.605a43.443,43.443,0,0,0,23.92,8.025c17.488.739,35.665-7.787,46.685-21.323C2489.119-92.439,2488.519-93.474,2487.833-92.971Z" transform="translate(-2401.474 98.686)" fill="#00537e"/>
                    </g>
                  </g>
                </g>
              </g>
            </g>
          </g>
          <g id="Grupo_58419" data-name="Grupo 58419" transform="translate(155.453)">
            <g id="Grupo_58466" data-name="Grupo 58466">
              <g id="Grupo_58491" data-name="Grupo 58491">
                <g id="Grupo_58490" data-name="Grupo 58490" clip-path="url(#clip-path-4)">
                  <g id="Grupo_58465" data-name="Grupo 58465" transform="translate(79.7 17.073)">
                    <g id="Grupo_58418" data-name="Grupo 58418">
                      <path id="Trazado_104637" data-name="Trazado 104637" d="M2738.8-92.2c-13.452,9.852-27.338,19.276-44.745,19.007a42.326,42.326,0,0,1-23.025-6.941c-6.959-4.7-12.546-11.405-18.031-17.68-.242-.278-.709.084-.511.394,4.653,7.279,9.479,14.414,16.542,19.606a43.469,43.469,0,0,0,23.92,8.024c17.486.74,35.664-7.787,46.685-21.324C2740.083-91.672,2739.482-92.706,2738.8-92.2Z" transform="translate(-2652.438 97.918)" fill="#00537e"/>
                    </g>
                  </g>
                </g>
              </g>
            </g>
          </g>
        </g>
        <g id="Grupo_58421" data-name="Grupo 58421" transform="translate(112.371 73.31)">
          <path id="Trazado_104639" data-name="Trazado 104639" d="M2574.426,2l-35.052,11.11-14.159-47.421h49.214l46.416-1.936-12.751,50.453Z" transform="translate(-2523.241 38.572)" fill="#04405b"/>
          <path id="Trazado_104640" data-name="Trazado 104640" d="M2574.622-.45l-36.667,11.11-14.819-47.419h51.486l48.554-1.936L2609.84,11.757Z" transform="translate(-2523.136 38.695)" fill="#00537e"/>
        </g>
      </g>
      <g id="Grupo_58423" data-name="Grupo 58423" transform="translate(26.144 17.388)">
        <path id="Trazado_104641" data-name="Trazado 104641" d="M2440.238-95.354c-1.7-2.9-6.908-3.229-7.8.518a3.941,3.941,0,0,0,.208,2.436,3.384,3.384,0,0,0,1.32,2.543,3.9,3.9,0,0,0,1.88.782,3.531,3.531,0,0,0,1.139.139,4.177,4.177,0,0,0,3.9-4.437,4.178,4.178,0,0,0-.647-1.979Z" transform="translate(-2432.331 97.586)" fill="#00537e"/>
        <path id="Trazado_104642" data-name="Trazado 104642" d="M2706.376-94.556c-1.643-2.794-6.67-3.119-7.534.5a3.808,3.808,0,0,0,.2,2.352,3.268,3.268,0,0,0,1.274,2.455,3.748,3.748,0,0,0,1.817.755,3.383,3.383,0,0,0,1.1.134,4.037,4.037,0,0,0,3.76-4.3,4.034,4.034,0,0,0-.62-1.9Z" transform="translate(-2445.763 97.542)" fill="#00537e"/>
      </g>
    </g>
    <g id="Grupo_58429" data-name="Grupo 58429" transform="translate(2496.591 -180.532)">
      <g id="Grupo_58425" data-name="Grupo 58425" transform="translate(4.96)">
        <path id="Trazado_104643" data-name="Trazado 104643" d="M2539.466-151.132s-11.87-3.158-18.67,1.479-21.062,29.051-3.229,51.309Z" transform="translate(-2508.94 175.014)" fill="#261107"/>
        <path id="Trazado_104644" data-name="Trazado 104644" d="M2528.743-153.127c.16-7.871,14.416-20.057,32.245-22.469,22.742-3.079,56.344,4.083,65.062,45.105C2636.151-82.971,2527.661-99.676,2528.743-153.127Z" transform="translate(-2509.938 176.226)" fill="#261107"/>
      </g>
      <g id="Grupo_58426" data-name="Grupo 58426" transform="translate(114.626 53.432)">
        <path id="Trazado_104645" data-name="Trazado 104645" d="M2625.408-104.262s4.074-20.113,9-14.8c7.088,7.65,6.785,35.384-9.975,39.622" transform="translate(-2624.429 119.957)" fill="#e0a7a2"/>
        <path id="Trazado_104646" data-name="Trazado 104646" d="M2635.255-107.639a4.619,4.619,0,0,0-3.2,1.768c.7-2.525,1.682-4.96,2.415-7.478.07-.24-.272-.469-.444-.257-4.344,5.323-5.215,13.465-3.808,20.01a.326.326,0,0,0,.407.213.325.325,0,0,0,.227-.3,51.328,51.328,0,0,1,.442-8.558c.73-2.046,2.436-3.465,4.127-5a.235.235,0,0,0-.009-.332A.229.229,0,0,0,2635.255-107.639Z" transform="translate(-2624.689 119.641)" fill="#c17874"/>
      </g>
      <g id="Grupo_58428" data-name="Grupo 58428" transform="translate(0 53.205)">
        <path id="Trazado_104647" data-name="Trazado 104647" d="M2517.486-104.5s-4.294-20.113-9.483-14.8c-7.471,7.65-6.473,35.946,13.476,39.622" transform="translate(-2503.716 120.196)" fill="#e0a7a2"/>
        <g id="Grupo_58427" data-name="Grupo 58427" transform="translate(4.053 7.941)">
          <path id="Trazado_104648" data-name="Trazado 104648" d="M2508.521-111.754a.324.324,0,0,0-.457.033.323.323,0,0,0,0,.424,34.173,34.173,0,0,1,6.007,10.483,8.777,8.777,0,0,0-.918-.781c-1.008-.739-2.554-1.638-3.842-1.26a.3.3,0,0,0-.206.373.308.308,0,0,0,.074.126c.9.723,2.112.933,3.091,1.555a14.633,14.633,0,0,1,2.406,2.064,62.555,62.555,0,0,1,1.027,10.221.38.38,0,0,0,.365.394.38.38,0,0,0,.384-.292C2518.785-96.418,2514.552-106.426,2508.521-111.754Z" transform="translate(-2507.985 111.833)" fill="#c17874"/>
        </g>
      </g>
    </g>
    <g id="Grupo_58432" data-name="Grupo 58432" transform="translate(2524.331 -78.373)">
      <path id="Trazado_104649" data-name="Trazado 104649" d="M2532.929-64.565l5.383,29.02,35.8,30.177,33.325-30.686,2.983-32.584Z" transform="translate(-2532.929 68.643)" fill="#e0a7a2"/>
      <g id="Grupo_58431" data-name="Grupo 58431">
        <g id="Grupo_58468" data-name="Grupo 58468">
          <path id="Trazado_104727" data-name="Trazado 104727" d="M2532.929-64.565l5.383,29.02,35.8,30.177,33.327-30.69,2.983-32.584Z" transform="translate(-2532.929 68.643)" fill="#e0a7a2"/>
          <g id="Grupo_58493" data-name="Grupo 58493" transform="translate(0 0)">
            <g id="Grupo_58492" data-name="Grupo 58492" clip-path="url(#clip-path-5)">
              <g id="Grupo_58467" data-name="Grupo 58467" transform="translate(-3.385 9.934)">
                <g id="Grupo_58430" data-name="Grupo 58430">
                  <path id="Trazado_104650" data-name="Trazado 104650" d="M2529.364-58.181s8.224,30.755,41.547,30.755c40.991,0,45.105-30.755,45.105-30.755Z" transform="translate(-2529.364 58.181)" fill="#cc8c89"/>
                </g>
              </g>
            </g>
          </g>
        </g>
      </g>
    </g>
    <path id="Trazado_104652" data-name="Trazado 104652" d="M2623.8-111.284c0,33.319-14.255,69.9-54.018,69.9-32.355,0-54.019-36.578-54.019-69.9s24.185-54.019,54.019-54.019S2623.8-144.6,2623.8-111.284Z" transform="translate(-7.733 -4.856)" fill="#e0a7a2"/>
    <g id="Grupo_58435" data-name="Grupo 58435" transform="translate(2516.851 -138.159)">
      <path id="Trazado_104653" data-name="Trazado 104653" d="M2554.958-129.217c-3.472-3.141-8.532-2.849-12.587-1.038-3.112,1.388-7.984,4.835-6.189,8.767a.453.453,0,0,0,.622.155.447.447,0,0,0,.155-.155c3.681-6.658,10.883-7.669,17.7-7a.429.429,0,0,0,.421-.438h0A.427.427,0,0,0,2554.958-129.217Z" transform="translate(-2525.594 131.603)" fill="#140601"/>
      <path id="Trazado_104654" data-name="Trazado 104654" d="M2591.288-129.217c3.472-3.141,8.532-2.849,12.588-1.038,3.112,1.388,7.984,4.835,6.188,8.767a.454.454,0,0,1-.623.154.459.459,0,0,1-.154-.154c-3.68-6.658-10.882-7.669-17.7-7a.43.43,0,0,1-.419-.441h0A.426.426,0,0,1,2591.288-129.217Z" transform="translate(-2528.386 131.603)" fill="#140601"/>
      <g id="Grupo_58433" data-name="Grupo 58433" transform="translate(48.092 10.077)">
        <path id="Trazado_104655" data-name="Trazado 104655" d="M2579.24-93.612a1.182,1.182,0,0,1-1.183-1.182,1.182,1.182,0,0,1,.678-1.071c.07-.033,4.025-1.948,5.094-5.054a4.984,4.984,0,0,0-.379-4.023c-1.847-3.681-3.288-6.326-4.954-9.39-.819-1.5-1.682-3.091-2.659-4.919a1.184,1.184,0,0,1,.488-1.6,1.185,1.185,0,0,1,1.6.488h0c.972,1.822,1.832,3.4,2.647,4.9,1.676,3.082,3.125,5.744,4.991,9.46a7.333,7.333,0,0,1,.5,5.867c-1.407,4.066-6.121,6.32-6.32,6.413A1.2,1.2,0,0,1,2579.24-93.612Z" transform="translate(-2575.697 120.991)" fill="#1d151a"/>
      </g>
      <g id="Grupo_58434" data-name="Grupo 58434" transform="translate(32.586 45.746)">
        <path id="Trazado_104656" data-name="Trazado 104656" d="M2579.043-73.479a18.828,18.828,0,0,1-8.908-.149,18.379,18.379,0,0,1-10.625-8.054,1.183,1.183,0,0,1,.479-1.6,1.183,1.183,0,0,1,1.588.45h0a16.247,16.247,0,0,0,9.211,6.932c4.821,1.3,10.312.152,16.317-3.4a1.183,1.183,0,0,1,1.62.416,1.183,1.183,0,0,1-.416,1.62A30.973,30.973,0,0,1,2579.043-73.479Z" transform="translate(-2559.368 83.428)" fill="#1d151a"/>
      </g>
      <path id="Trazado_104657" data-name="Trazado 104657" d="M2538.675-110.966c3.235,3.265,7,5.726,11.775,5.392,3.906-.273,8.717-2.759,10.476-6.377a.269.269,0,0,0-.107-.365.272.272,0,0,0-.193-.025c-3.779.632-6.695,3.778-10.739,3.771-3.715-.007-7.431-1.8-10.945-2.849a.275.275,0,0,0-.33.206.274.274,0,0,0,.063.247Z" transform="translate(-2525.736 130.633)" fill="#261107"/>
      <path id="Trazado_104658" data-name="Trazado 104658" d="M2610.342-110.966c-3.235,3.265-7,5.726-11.775,5.392-3.906-.273-8.717-2.759-10.476-6.377a.269.269,0,0,1,.108-.364.268.268,0,0,1,.191-.026c3.779.632,6.7,3.778,10.739,3.771,3.715-.007,7.43-1.8,10.944-2.849a.275.275,0,0,1,.333.2.274.274,0,0,1-.064.251Z" transform="translate(-2528.229 130.632)" fill="#261107"/>
      <ellipse id="Elipse_5290" data-name="Elipse 5290" cx="13.799" cy="10.942" rx="13.799" ry="10.942" transform="translate(0 28.768)" fill="#c17874" opacity="0.22" style="isolation: isolate"/>
      <ellipse id="Elipse_5291" data-name="Elipse 5291" cx="13.799" cy="10.942" rx="13.799" ry="10.942" transform="translate(65.793 29.964)" fill="#c17874" opacity="0.22" style="isolation: isolate"/>
      <path id="Trazado_104659" data-name="Trazado 104659" d="M2581.09-67.562c-2.532.086-5.01.653-7.552.352-2.019-.24-4.023-1.614-6-1.519a.083.083,0,0,0-.071.092v0h0c.519,2.354,4.052,3.418,6.138,3.767,2.785.459,5.861.028,7.772-2.206C2581.564-67.3,2581.331-67.574,2581.09-67.562Z" transform="translate(-2527.191 128.433)" fill="#c17874"/>
      <path id="Trazado_104660" data-name="Trazado 104660" d="M2584.054-54.376c-2.977-6.161-12.914-6.989-16.382-.967-.221.38.345.864.638.492a8.3,8.3,0,0,1,8.369-3.012c2.772.608,4.6,2.532,6.932,3.931C2583.906-53.755,2584.188-54.1,2584.054-54.376Z" transform="translate(-2527.198 127.966)" fill="#c17874"/>
    </g>
    <g id="Grupo_58438" data-name="Grupo 58438" transform="translate(2504.373 -184.666)">
      <path id="Trazado_104661" data-name="Trazado 104661" d="M2531.246-152.724s23.5-11.078,46.605,8.166c23.722,19.757,46.055,22.722,46.055,22.722s6.45-35.316-10.35-46.79S2535.288-194.318,2531.246-152.724Z" transform="translate(-2512.886 180.58)" fill="#261107"/>
      <path id="Trazado_104662" data-name="Trazado 104662" d="M2530.271-151.245s8.736,10.208-14.64,43.459c0,0-2.279-2.659-3.3-9.781S2510.585-143.443,2530.271-151.245Z" transform="translate(-2511.912 179.101)" fill="#261107"/>
      <g id="Grupo_58437" data-name="Grupo 58437" transform="translate(5.19 19.54)">
        <path id="Trazado_104663" data-name="Trazado 104663" d="M2629.161-122.584a.183.183,0,0,0-.133-.19,30.642,30.642,0,0,1-17-13.125.166.166,0,0,0-.232-.036.165.165,0,0,0-.053.2,24.066,24.066,0,0,0,11.579,11.479c-6.868-2.247-12.953-5.7-17.874-11.5-.157-.184-.487.065-.339.26,5.619,7.392,14.339,13.156,23.855,13.324a.262.262,0,0,0,.247-.276A.271.271,0,0,0,2629.161-122.584Z" transform="translate(-2521.799 158.791)" fill="#140601"/>
        <g id="Grupo_58436" data-name="Grupo 58436">
          <path id="Trazado_104664" data-name="Trazado 104664" d="M2628.321-125.523c-4.938-2.583-7.977-6.12-10.91-10.751a.158.158,0,0,0-.221-.036.16.16,0,0,0-.064.157c1.519,5.014,6.256,9.173,11.07,10.934C2628.369-125.156,2628.49-125.435,2628.321-125.523Z" transform="translate(-2522.406 158.81)" fill="#140601"/>
          <path id="Trazado_104665" data-name="Trazado 104665" d="M2527.56-143.763a.257.257,0,0,0-.273-.241.256.256,0,0,0-.241.241,32.956,32.956,0,0,1-2.83,13.209c-1.709,3.667-4.4,6.3-6.78,9.464-.212.285.19.627.464.465C2525.136-124.913,2528.482-135.881,2527.56-143.763Z" transform="translate(-2517.377 159.196)" fill="#140601"/>
          <path id="Trazado_104666" data-name="Trazado 104666" d="M2524.529-142.042a116.845,116.845,0,0,1-4.77,12.956c-.095.211.175.483.351.272a21.577,21.577,0,0,0,4.826-13.173.208.208,0,0,0-.212-.2.21.21,0,0,0-.2.149Z" transform="translate(-2517.496 159.105)" fill="#140601"/>
          <path id="Trazado_104667" data-name="Trazado 104667" d="M2592.377-139.392c-3.839-7.6-13.243-13.337-20.79-16.562-7.865-3.362-16.91-4.932-25.4-3.544-.2.032-.146.345.046.342,8.913-.128,17.467,1.119,25.639,4.81a51.937,51.937,0,0,1,10.773,6.517c3.383,2.668,5.982,6.024,9.17,8.868a.358.358,0,0,0,.506,0,.36.36,0,0,0,.058-.433Z" transform="translate(-2518.824 160.003)" fill="#140601"/>
          <path id="Trazado_104668" data-name="Trazado 104668" d="M2607.687-130.392c-3.6-1.749-6.919-3.527-9.748-6.428-.217-.224-.542.109-.34.34,2.612,2.982,5.994,5.587,9.928,6.466C2607.745-129.966,2607.908-130.288,2607.687-130.392Z" transform="translate(-2521.419 158.837)" fill="#140601"/>
          <path id="Trazado_104669" data-name="Trazado 104669" d="M2601-139.433a77.069,77.069,0,0,0-10.334-10.806c-3.011-2.624-6.482-4.691-10.505-5.128-.255-.028-.3.38-.059.44,4.748,1.3,8.356,4.083,11.744,7.56,2.754,2.822,5.248,6.44,8.792,8.3C2600.853-138.959,2601.178-139.205,2601-139.433Z" transform="translate(-2520.532 159.769)" fill="#140601"/>
          <path id="Trazado_104670" data-name="Trazado 104670" d="M2609.317-139.306c-2.342-2.192-5.021-3.993-7.375-6.185a.416.416,0,0,0-.586.034.416.416,0,0,0,0,.552c2.205,2.291,4.72,4.684,7.66,5.989C2609.255-138.809,2609.54-139.1,2609.317-139.306Z" transform="translate(-2521.606 159.276)" fill="#140601"/>
        </g>
      </g>
    </g>
    <g id="Grupo_58439" data-name="Grupo 58439" transform="translate(2560.936 -177.313)">
      <path id="Trazado_104671" data-name="Trazado 104671" d="M2609.661-159.215c-2.374-5.534-9.221-8.937-14.594-10.8-7.46-2.588-15.635-3.02-23.465-2.754a.124.124,0,0,0-.123.124.126.126,0,0,0,.123.124c7.217.862,14.543,1.111,21.537,3.289a34.994,34.994,0,0,1,8.814,4.083c2.754,1.8,4.789,4.192,7.28,6.267a.275.275,0,0,0,.388,0A.274.274,0,0,0,2609.661-159.215Z" transform="translate(-2571.478 172.837)" fill="#4c1c0d"/>
      <path id="Trazado_104672" data-name="Trazado 104672" d="M2604.256-159.758c-1.432-3.46-5.086-5.388-8.4-6.742a39.484,39.484,0,0,0-15.39-2.933.216.216,0,0,0-.216.216.215.215,0,0,0,.216.216h0a54.619,54.619,0,0,1,12.752,2.931,34.57,34.57,0,0,1,10.535,6.6C2603.957-159.3,2604.382-159.459,2604.256-159.758Z" transform="translate(-2571.921 172.665)" fill="#4c1c0d"/>
      <path id="Trazado_104673" data-name="Trazado 104673" d="M2597.874-161.19c-2.6-3.538-7.9-4.7-12.043-4.592a.241.241,0,0,0-.241.241.241.241,0,0,0,.241.241h0a21.671,21.671,0,0,1,6.4,1.658c1.847.8,3.39,2.036,5.181,2.916C2597.682-160.589,2598.092-160.889,2597.874-161.19Z" transform="translate(-2572.189 172.481)" fill="#4c1c0d"/>
    </g>
    <g id="Grupo_58454" data-name="Grupo 58454" transform="translate(2429.158 -235.646)">
      <g id="Grupo_58447" data-name="Grupo 58447" transform="translate(0 6.841)">
        <g id="Grupo_58442" data-name="Grupo 58442">
          <path id="Trazado_104674" data-name="Trazado 104674" d="M2479.414-111.5s32.547-27.387,37.31-34.134,3.176-20.64,6.351-26.2,2.745-9.525,9.116-15.877,6.6-13.368-.068-14.624-25.318,6.287-27.7,20.973-9.923.794-11.908-5.16a26.946,26.946,0,0,1-.794-12.118l9.128-9.116s9.721,3.184,14.785,3.276,12.688-3.579,11.653-6.106-8.182-8.482-12.55-11.657-12.7-3.572-20.242-4.763-21.83,15.877-21.83,15.877l-39.693,36.516s-3.175,57.95,12.3,63.108S2479.414-111.5,2479.414-111.5Z" transform="translate(-2432.703 227.062)" fill="#e0a7a2"/>
          <path id="Trazado_104675" data-name="Trazado 104675" d="M2484.313-153.378s-6.077,3.893-7.282,20.9c0,0-19.213-10.072-21.9-18.367l11.775-14.164Z" transform="translate(-2433.834 223.933)" fill="#c17874"/>
          <path id="Trazado_104676" data-name="Trazado 104676" d="M2466.523-160.763s7.073,15.258-10.719,8.632c-2.588-.964-5.413-4.491-6.837-10.57a25.931,25.931,0,0,1-14.633-4.91s-4.368-13.1,1.191-17.662,7.5-.772,11.11-3.771,5.359-1.985,10.717-4.565,2.382-5.755,13.5-4.368c0,0,1.96-.971,10.3-.179s13.465-.69,15.053,4.667,2.384,28.642-2.974,31.818-6.7,1.994-6.7,1.994S2476.786-147.647,2466.523-160.763Z" transform="translate(-2432.703 225.62)" fill="#e0a7a2"/>
          <g id="Grupo_58441" data-name="Grupo 58441" transform="translate(9.101 15.467)">
            <path id="Trazado_104677" data-name="Trazado 104677" d="M2498.319-180.431a.4.4,0,0,0-.5-.272.41.41,0,0,0-.229.177c-1.646,3.8-1.091,8.211-1.766,12.242-.38,2.27-1.165,4.638-3.332,5.81-1.91,1.035-3.967.7-6.021.711a80.766,80.766,0,0,0-1.833-12.676c-.773-3.868-1.528-7.869-4.463-10.161a50.719,50.719,0,0,0-8.356-4.782c-3-1.519-6.32-3.332-9.671-3.841a.231.231,0,0,0-.275.176.23.23,0,0,0,.1.243c4.643,3.254,10.453,5.033,15.357,7.94,3.108,1.846,4.341,3.8,5.254,7.239.11.414.218.831.328,1.247.833,5.715,2.88,15.35,2.018,18.621-.737,2.794-5.938,3.44-7.926,3.536-4.537.217-6.437-2.862-8.71-6.048-2.15-9.135-2.944-16.378-7.122-18.187-1.068-.462-3.167-2.5-4.243-2.944-.046-.019-.076.016-.082.055-.425-.19-.854-.374-1.288-.546-2.576-1.4-5.259-2.611-7.579-3.855-.7-.38-1.33.693-.627,1.072,5.192,2.792,12.969,5.519,15.929,11,1.614,2.986,1.93,6.629,2.553,9.919a95.562,95.562,0,0,0,2.057,9.942c-4.248,3.03-8.691,3.287-12.744-.679a20.786,20.786,0,0,1-4.083-6.062c-.7-1.5-1.095-3-2.52-3.907a15.863,15.863,0,0,0-5.439-7.827c-.146-.1-.34.095-.243.245.977,1.483,2.184,2.8,3.153,4.292a32.106,32.106,0,0,1,1.813,3.315c-.74-.719-1.511-1.406-2.279-2.1a16.2,16.2,0,0,0-3.043-2.509c-.118-.062-.279.07-.19.195a17.034,17.034,0,0,0,3,2.9c1,.884,1.994,1.769,3.048,2.577l.166.338h0a32.566,32.566,0,0,0,3.807,7.882c1.568,2.194,4.116,4.591,6.81,4.991,12.975,1.928,9.283-6.771,9.021-8.213a.312.312,0,0,0,.066-.067c1.923,3.692,5.167,6.133,9.722,5.641.438-.047,1.028-.077,1.692-.139a22.942,22.942,0,0,0-1.879,5.377,44.1,44.1,0,0,0-2.117,13.667.284.284,0,0,0,.282.288.284.284,0,0,0,.278-.212c.764-3.377,1.385-6.782,2.2-10.149.443-1.83,1.2-7.108,2.883-9.2,2.867-.555,6.028-2.193,5.206-7.867,3.349,1.91,7.87.321,9.725-2.95a16.168,16.168,0,0,0,1.614-6.226C2498.216-173.513,2499.037-177.153,2498.319-180.431Z" transform="translate(-2442.287 209.889)" fill="#c17874"/>
            <path id="Trazado_104678" data-name="Trazado 104678" d="M2485.663-198.164c-4.548.213-9.129-.181-13.665.15a.266.266,0,0,0-.253.277.265.265,0,0,0,.183.241,44.221,44.221,0,0,0,11.951,1.1c1.942-.009,3.868-.141,5.806-.234,1.787-.085,7.093,1.513,6.573.236C2495.539-198.171,2488.308-198.287,2485.663-198.164Z" transform="translate(-2443.772 210.14)" fill="#c17874"/>
            <path id="Trazado_104679" data-name="Trazado 104679" d="M2481.57-152.669c-2.458-.526-4.653-.058-7.027-1.329-2.46-1.317-3.847-3.381-5.194-5.726-.056-.095-.241-.064-.226.061.323,2.731,2.359,4.969,4.641,6.353,1.66,1.007,4.35,2.06,6.486,1.646-1.881,1.688-3.5,4.355-3.354,6.9a.217.217,0,0,0,.223.208.216.216,0,0,0,.2-.15c.518-1.227.816-2.514,1.447-3.7a17.929,17.929,0,0,1,2.3-3.248.263.263,0,0,0,.054-.285,3.346,3.346,0,0,0,.512-.273.253.253,0,0,0,.1-.344l0,0A.26.26,0,0,0,2481.57-152.669Z" transform="translate(-2443.64 208.202)" fill="#c17874"/>
            <path id="Trazado_104680" data-name="Trazado 104680" d="M2505.5-206.771a.241.241,0,0,0,.026-.341.243.243,0,0,0-.126-.078c-3.464-.92-6.631-2.6-10.042-3.578-.162-.047-.315.181-.174.3a17.983,17.983,0,0,0,7,3.134,28.62,28.62,0,0,0-6.2-.2c-.19.019-.255.3-.047.35a35.686,35.686,0,0,0,9.39.746.22.22,0,0,0,.2-.237A.209.209,0,0,0,2505.5-206.771Z" transform="translate(-2444.951 210.773)" fill="#c17874"/>
            <path id="Trazado_104681" data-name="Trazado 104681" d="M2506.52-167.336a41.058,41.058,0,0,1,.307-5.908c.025-.3-.418-.33-.505-.068-.052.156-.1.318-.145.48a.158.158,0,0,0-.034.016c-1.994,1.956-2.262,5.7-1.257,8.166.06.147.329.152.309-.041a17.794,17.794,0,0,1-.062-4.1,11.019,11.019,0,0,1,.659-2.374c-.57,3.242-.278,7.092,1.267,9.747.095.167.407.107.385-.1C2507.239-163.481,2506.641-165.351,2506.52-167.336Z" transform="translate(-2445.414 208.894)" fill="#c17874"/>
          </g>
        </g>
        <g id="Grupo_58444" data-name="Grupo 58444" transform="translate(157.712)">
          <path id="Trazado_104682" data-name="Trazado 104682" d="M2656.42-111.5s-32.546-27.387-37.31-34.134-3.175-20.64-6.351-26.2-2.745-9.525-9.116-15.877-6.6-13.368.067-14.624,25.319,6.287,27.7,20.973,9.923.794,11.907-5.16a26.942,26.942,0,0,0,.794-12.118l-9.129-9.116s-9.721,3.184-14.785,3.276-12.688-3.579-11.652-6.106,8.18-8.482,12.546-11.657,12.7-3.572,20.243-4.763,21.83,15.877,21.83,15.877l39.693,36.516s3.175,57.95-12.3,63.108S2656.42-111.5,2656.42-111.5Z" transform="translate(-2598.789 227.062)" fill="#e0a7a2"/>
          <path id="Trazado_104683" data-name="Trazado 104683" d="M2656.284-153.378s6.077,3.893,7.282,20.9c0,0,19.213-10.072,21.9-18.367l-11.775-14.164Z" transform="translate(-2601.688 223.933)" fill="#c17874"/>
          <path id="Trazado_104684" data-name="Trazado 104684" d="M2670.653-159.623s-4.524,14.565,12.515,7.662c0,0,3.9-1.718,5.887-11.044a24.069,24.069,0,0,0,14.552-4.6s4.368-13.1-1.192-17.662-7.5-.772-11.11-3.77-5.359-1.985-10.717-4.566-2.381-5.755-13.5-4.368c0,0-1.96-.971-10.3-.179s-13.465-.69-15.053,4.667-2.384,28.642,2.975,31.818,6.7,1.994,6.7,1.994S2658.488-147.424,2670.653-159.623Z" transform="translate(-2600.895 225.62)" fill="#e0a7a2"/>
          <g id="Grupo_58443" data-name="Grupo 58443" transform="translate(33.207 15.467)">
            <path id="Trazado_104685" data-name="Trazado 104685" d="M2640.066-180.431a.4.4,0,0,1,.5-.272.4.4,0,0,1,.23.177c1.647,3.8,1.091,8.211,1.766,12.242.38,2.27,1.165,4.638,3.332,5.81,1.909,1.035,3.968.7,6.02.711a80.737,80.737,0,0,1,1.833-12.676c.773-3.868,1.529-7.869,4.463-10.161a50.747,50.747,0,0,1,8.356-4.782c3-1.519,6.321-3.332,9.671-3.841a.231.231,0,0,1,.275.176.229.229,0,0,1-.1.243c-4.641,3.254-10.453,5.033-15.356,7.94-3.108,1.846-4.342,3.8-5.254,7.239-.11.414-.219.831-.328,1.247-.832,5.715-2.88,15.35-2.017,18.621.736,2.794,5.937,3.44,7.925,3.536,4.537.217,6.436-2.862,8.709-6.048,2.15-9.135,2.944-16.378,7.122-18.187,1.068-.462,3.167-2.5,4.243-2.944.046-.019.075.016.082.055.426-.19.854-.374,1.288-.546,2.575-1.4,5.258-2.611,7.579-3.855.7-.38,1.329.693.627,1.072-5.192,2.792-12.969,5.519-15.929,11-1.614,2.986-1.93,6.629-2.553,9.919a95.119,95.119,0,0,1-2.057,9.942c4.248,3.03,8.69,3.287,12.745-.679a20.787,20.787,0,0,0,4.083-6.062c.706-1.5,1.095-3,2.52-3.907a15.87,15.87,0,0,1,5.439-7.827c.146-.1.34.095.244.245-.977,1.483-2.184,2.8-3.154,4.292a32.108,32.108,0,0,0-1.813,3.315c.74-.719,1.512-1.406,2.279-2.1a16.189,16.189,0,0,1,3.039-2.509c.118-.062.279.07.19.195a16.981,16.981,0,0,1-3,2.9c-1,.884-1.989,1.769-3.047,2.577l-.167.338h0c-1,2.684-1.312,5.378-3.1,7.882a15,15,0,0,1-6.119,5.2c-3.43,1.47-9.053,1.069-10.785-2.7a.286.286,0,0,1-.292-.278h0v-.028c.006-.136.02-.273.028-.407-.028-.095-.065-.178-.089-.273a.445.445,0,0,1,.134-.406c.114-1.445.327-2.891.584-4.332a.336.336,0,0,1-.066-.067c-1.923,3.692-5.167,6.133-9.722,5.641-.438-.047-1.027-.077-1.692-.139a22.942,22.942,0,0,1,1.879,5.377,44.1,44.1,0,0,1,2.118,13.667.284.284,0,0,1-.282.288.283.283,0,0,1-.278-.212c-.766-3.377-1.386-6.782-2.2-10.149-.443-1.83-1.2-7.108-2.883-9.2-2.866-.555-6.028-2.193-5.206-7.867-3.349,1.91-7.869.321-9.725-2.95a16.176,16.176,0,0,1-1.614-6.226C2640.165-173.513,2639.343-177.153,2640.066-180.431Z" transform="translate(-2634.062 209.889)" fill="#c17874"/>
            <path id="Trazado_104686" data-name="Trazado 104686" d="M2654.4-198.164c4.548.213,9.13-.181,13.664.15a.264.264,0,0,1,.254.274v0a.265.265,0,0,1-.183.241,44.22,44.22,0,0,1-11.951,1.1c-1.941-.009-3.868-.141-5.806-.234-1.787-.085-7.093,1.513-6.573.236C2644.532-198.171,2651.76-198.287,2654.4-198.164Z" transform="translate(-2634.263 210.14)" fill="#c17874"/>
            <path id="Trazado_104687" data-name="Trazado 104687" d="M2659.13-152.669c2.457-.526,4.653-.058,7.027-1.329,2.46-1.317,3.846-3.381,5.193-5.726.056-.095.241-.064.226.061-.323,2.731-2.358,4.969-4.64,6.353-1.661,1.007-4.351,2.06-6.487,1.646,1.881,1.688,3.5,4.355,3.354,6.9a.216.216,0,0,1-.226.205.217.217,0,0,1-.194-.147c-.517-1.227-.815-2.514-1.448-3.7a17.949,17.949,0,0,0-2.3-3.248.265.265,0,0,1-.054-.285,3.4,3.4,0,0,1-.513-.273.254.254,0,0,1-.09-.347A.265.265,0,0,1,2659.13-152.669Z" transform="translate(-2635.029 208.202)" fill="#c17874"/>
            <path id="Trazado_104688" data-name="Trazado 104688" d="M2635.314-206.771a.242.242,0,0,1-.026-.341.245.245,0,0,1,.126-.078c3.464-.92,6.632-2.6,10.042-3.578.162-.047.315.181.174.3a17.975,17.975,0,0,1-7,3.134,28.626,28.626,0,0,1,6.2-.2c.19.019.256.3.048.35a35.692,35.692,0,0,1-9.392.746.218.218,0,0,1-.2-.235.22.22,0,0,1,.033-.1Z" transform="translate(-2633.833 210.773)" fill="#c17874"/>
            <path id="Trazado_104689" data-name="Trazado 104689" d="M2634.684-167.336a40.814,40.814,0,0,0-.307-5.908c-.024-.3.419-.33.505-.068.052.156.1.318.145.48a.144.144,0,0,1,.034.016c1.994,1.956,2.262,5.7,1.257,8.166-.06.147-.329.152-.309-.041a17.781,17.781,0,0,0,.062-4.1,10.96,10.96,0,0,0-.658-2.374c.57,3.242.277,7.092-1.268,9.747-.1.167-.407.107-.385-.1C2633.962-163.481,2634.563-165.351,2634.684-167.336Z" transform="translate(-2633.759 208.894)" fill="#c17874"/>
          </g>
        </g>
        <g id="Grupo_58446" data-name="Grupo 58446" transform="translate(55.149 0.245)">
          <g id="Grupo_58445" data-name="Grupo 58445">
            <path id="Trazado_104696" data-name="Trazado 104696" d="M2648.93-225.656c-1.614-.778-4.343-1.434-5.916-.292a.353.353,0,0,0-.111.486h0a.357.357,0,0,0,.111.112,21.532,21.532,0,0,0,3.193,1.253,12.939,12.939,0,0,1,3.243,2.043c.71.635,2.718,2.405,3.188.494C2653.078-223.339,2650.214-225.039,2648.93-225.656Z" transform="translate(-2498.448 226.792)" fill="#e8a289"/>
            <path id="Trazado_104697" data-name="Trazado 104697" d="M2499.315-225.475c-.538-1.5-2.95-1.467-4.219-1.157a5.638,5.638,0,0,0-4.252,3.428c-.334.866.735,1.388,1.407,1.082a35.917,35.917,0,0,1,4.671-2.033C2497.306-224.271,2499.6-224.678,2499.315-225.475Z" transform="translate(-2490.781 226.804)" fill="#e8a289"/>
          </g>
        </g>
      </g>
      <g id="Grupo_58453" data-name="Grupo 58453" transform="translate(73.073)">
        <path id="Trazado_104698" data-name="Trazado 104698" d="M2576.231-233.173a.723.723,0,0,0-.364-.19,2.98,2.98,0,0,0-1.026-.552.776.776,0,0,0-.373-.018c-.12-.07-.224-.153-.35-.217a1.019,1.019,0,0,0-1.377.433,1.01,1.01,0,0,0-.116.5,1.126,1.126,0,0,0-.072.118c-.693.095-1.314,1.058-.622,1.6l.024.019a1.03,1.03,0,0,0,.039.652,4.316,4.316,0,0,0,.469.825,1.383,1.383,0,0,0-.372.95.892.892,0,0,0,.106.368,1.029,1.029,0,0,0-.122,1.165,1.81,1.81,0,0,0-.292.527c-.217-.152-.424-.291-.463-.466-.1-.448.385-1.076.211-1.667a2.68,2.68,0,0,0-2.356-1.741,2.944,2.944,0,0,0-3.165-2.495c-1.457.052-3.213-.334-4.083,1.163a.494.494,0,0,0,.153.647,1.043,1.043,0,0,0,.019.372c.44,1.8,2,2.7,3.158,4.041.121.141.224.292.339.437q.231.328.492.631c.875,1.186,1.643,2.442,2.44,3.683.061.151.12.3.182.454.009.027.016.056.022.073h.007c.051.119.095.236.143.356.009.018.02.03.028.047a.778.778,0,0,0,.635.9h0a.794.794,0,0,0,.19.009c1.369-.135,2.7-.095,2.944-1.761a7.317,7.317,0,0,0-.327-2.04,2.932,2.932,0,0,1,.019-.687.935.935,0,0,0,.147.058,1.943,1.943,0,0,0,2.216-.962,3.158,3.158,0,0,0,.39-1.357,2.351,2.351,0,0,1,.528-1.7,1.687,1.687,0,0,0,.5-.97c.011-.205-.19-.5-.162-.681.03-.212.14-.26.264-.475C2576.665-231.849,2576.908-232.527,2576.231-233.173Z" transform="translate(-2512.289 234.266)" fill="#aa571f"/>
        <path id="Trazado_104699" data-name="Trazado 104699" d="M2577.383-232.06l-6.2,11.731,52.512,28.986a8.133,8.133,0,0,0,5.6-3.661,10.228,10.228,0,0,0,1.454-6.966Z" transform="translate(-2512.758 234.155)" fill="#f4f4f4"/>
        <g id="Grupo_58452" data-name="Grupo 58452" transform="translate(0 2.68)">
          <path id="Trazado_104700" data-name="Trazado 104700" d="M2509.867-200.829l6.939,11.312,51.686-30.437-9.141-11.49Z" transform="translate(-2509.667 231.444)" fill="#f4f4f4"/>
          <g id="Grupo_58451" data-name="Grupo 58451">
            <g id="Grupo_58470" data-name="Grupo 58470">
              <g id="Grupo_58495" data-name="Grupo 58495">
                <g id="Grupo_58494" data-name="Grupo 58494" clip-path="url(#clip-path-6)">
                  <g id="Grupo_58469" data-name="Grupo 58469" transform="translate(-9.512 4.742)">
                    <g id="Grupo_58450" data-name="Grupo 58450">
                      <path id="Trazado_104701" data-name="Trazado 104701" d="M2536.25-226.45l17.662,25.843-38.767,22.4-15.506-26.275Z" transform="translate(-2499.639 226.45)" fill="#e68d39"/>
                      <g id="Grupo_58449" data-name="Grupo 58449" transform="translate(10.556 5.635)">
                        <g id="Grupo_58448" data-name="Grupo 58448">
                          <path id="Trazado_104702" data-name="Trazado 104702" d="M2512.084-200.789a1.33,1.33,0,0,0-1.33,1.329,1.33,1.33,0,0,0,1.33,1.329,1.33,1.33,0,0,0,1.329-1.329h0A1.338,1.338,0,0,0,2512.084-200.789Z" transform="translate(-2510.755 219.521)" fill="#ba6b2b"/>
                          <path id="Trazado_104703" data-name="Trazado 104703" d="M2519.106-196.006a1.425,1.425,0,0,0-1.424,1.424,1.424,1.424,0,0,0,1.424,1.424,1.424,1.424,0,0,0,1.424-1.424A1.425,1.425,0,0,0,2519.106-196.006Z" transform="translate(-2511.104 219.28)" fill="#ba6b2b"/>
                          <path id="Trazado_104704" data-name="Trazado 104704" d="M2519.661-206.215a.991.991,0,0,0-1.03.95.99.99,0,0,0,.95,1.029.99.99,0,0,0,1.029-.95q0-.04,0-.08A.99.99,0,0,0,2519.661-206.215Z" transform="translate(-2511.152 219.795)" fill="#ba6b2b"/>
                          <path id="Trazado_104705" data-name="Trazado 104705" d="M2526.733-202.024l-.059-.067a.862.862,0,0,0-1.213,0l-.059.067a.942.942,0,0,0,0,1.331.94.94,0,0,0,1.33,0,.94.94,0,0,0,0-1.33l0,0h0Z" transform="translate(-2511.479 219.599)" fill="#ba6b2b"/>
                          <path id="Trazado_104706" data-name="Trazado 104706" d="M2519.582-201.39a2.186,2.186,0,0,0-.352.046.694.694,0,0,0-.478.855.692.692,0,0,0,.855.478.692.692,0,0,0,.478-.478,2.467,2.467,0,0,0,.046-.352.548.548,0,0,0-.548-.548Z" transform="translate(-2511.157 219.551)" fill="#ba6b2b"/>
                          <path id="Trazado_104707" data-name="Trazado 104707" d="M2530.178-208.631a1.543,1.543,0,0,0-.7.407.847.847,0,0,0,0,1.189,1.522,1.522,0,0,0,.7.407,1.044,1.044,0,0,0,1.348-.6,1.044,1.044,0,0,0-.6-1.348,1.05,1.05,0,0,0-.192-.053,1.052,1.052,0,0,0-.553,0Z" transform="translate(-2511.687 219.918)" fill="#ba6b2b"/>
                          <path id="Trazado_104708" data-name="Trazado 104708" d="M2525.527-211.911a1.081,1.081,0,0,0-1.081,1.081,1.081,1.081,0,0,0,1.081,1.081,1.08,1.08,0,0,0,1.081-1.081h0A1.081,1.081,0,0,0,2525.527-211.911Z" transform="translate(-2511.445 220.082)" fill="#ba6b2b"/>
                          <path id="Trazado_104709" data-name="Trazado 104709" d="M2524.309-206.759a1,1,0,0,0-.328.248.7.7,0,0,0,.021.991.7.7,0,0,0,.97,0,1,1,0,0,0,.248-.329.671.671,0,0,0-.271-.91A.672.672,0,0,0,2524.309-206.759Z" transform="translate(-2511.412 219.826)" fill="#ba6b2b"/>
                          <path id="Trazado_104710" data-name="Trazado 104710" d="M2534.227-203.686l-.1.057a.943.943,0,0,0-.312,1.3.946.946,0,0,0,.313.312l.1.056a1,1,0,0,0,1.365-.357,1,1,0,0,0-.358-1.365A1,1,0,0,0,2534.227-203.686Z" transform="translate(-2511.911 219.674)" fill="#ba6b2b"/>
                          <path id="Trazado_104711" data-name="Trazado 104711" d="M2536.994-212.229a1.13,1.13,0,0,0-1.13,1.13,1.13,1.13,0,0,0,1.13,1.13,1.13,1.13,0,0,0,1.13-1.13h0A1.13,1.13,0,0,0,2536.994-212.229Z" transform="translate(-2512.021 220.098)" fill="#ba6b2b"/>
                          <path id="Trazado_104712" data-name="Trazado 104712" d="M2542.133-209.026l-.068.059a1.129,1.129,0,0,0,0,1.586l.068.058a1.227,1.227,0,0,0,1.316.249,1.194,1.194,0,0,0,.74-1.1,1.219,1.219,0,0,0-1.252-1.186,1.22,1.22,0,0,0-.8.331Z" transform="translate(-2512.317 219.953)" fill="#ba6b2b"/>
                          <path id="Trazado_104713" data-name="Trazado 104713" d="M2532-213.656a.725.725,0,0,0-.7-.7.892.892,0,0,0-.515.128,1.553,1.553,0,0,0-.548.355c-.854.8.482,2.136,1.283,1.283a1.459,1.459,0,0,0,.365-.57A.869.869,0,0,0,2532-213.656Z" transform="translate(-2511.723 220.205)" fill="#ba6b2b"/>
                          <path id="Trazado_104714" data-name="Trazado 104714" d="M2538.072-220.515a.892.892,0,0,0-.927.855.892.892,0,0,0,.854.928.891.891,0,0,0,.927-.856.592.592,0,0,0,0-.078A.892.892,0,0,0,2538.072-220.515Z" transform="translate(-2512.085 220.516)" fill="#ba6b2b"/>
                          <path id="Trazado_104715" data-name="Trazado 104715" d="M2538.613-206.529a.784.784,0,0,0-.806.76.782.782,0,0,0,.76.806.783.783,0,0,0,.806-.76.37.37,0,0,0,0-.047A.783.783,0,0,0,2538.613-206.529Z" transform="translate(-2512.119 219.811)" fill="#ba6b2b"/>
                          <path id="Trazado_104716" data-name="Trazado 104716" d="M2527.447-197.569l-.116-.04a.693.693,0,0,0-.851.484.693.693,0,0,0,.484.851h0a.705.705,0,0,0,.366,0l.116-.04a.658.658,0,0,0,.43-.825A.658.658,0,0,0,2527.447-197.569Z" transform="translate(-2511.546 219.362)" fill="#ba6b2b"/>
                          <path id="Trazado_104717" data-name="Trazado 104717" d="M2523.894-197.612l-.06-.095a.485.485,0,0,0-.665-.16.481.481,0,0,0-.159.16l-.06.095a.548.548,0,0,0,.2.748.548.548,0,0,0,.748-.2.547.547,0,0,0,0-.547Z" transform="translate(-2511.366 219.377)" fill="#ba6b2b"/>
                        </g>
                      </g>
                    </g>
                  </g>
                </g>
              </g>
            </g>
          </g>
        </g>
      </g>
    </g>
    <g id="Grupo_58456" data-name="Grupo 58456" transform="translate(2550.598 -213.787)">
      <g id="Grupo_58455" data-name="Grupo 58455">
        <path id="Trazado_104719" data-name="Trazado 104719" d="M2569.574-210.9c-2.221,2.671-3.241,6.552-4.5,9.752-1.6,4.089-3.7,8.293-4.479,12.629a.34.34,0,0,0,.253.407.34.34,0,0,0,.362-.147c2.228-3.334,3.506-7.407,4.928-11.134,1.364-3.569,3.471-7.6,3.534-11.463a.062.062,0,0,0-.062-.062A.065.065,0,0,0,2569.574-210.9Z" transform="translate(-2560.591 211.231)" fill="#636363"/>
        <path id="Trazado_104720" data-name="Trazado 104720" d="M2572.045-210.969c-.828,4.958-1.82,10.445-1.408,15.468a.409.409,0,0,0,.423.393.407.407,0,0,0,.375-.286c1.3-4.88,1.31-10.445,1.374-15.472C2572.814-211.291,2572.118-211.41,2572.045-210.969Z" transform="translate(-2561.092 211.248)" fill="#636363"/>
        <path id="Trazado_104721" data-name="Trazado 104721" d="M2582.854-193.97c-1-2.841-2.877-5.334-4.282-7.99-1.572-2.969-2.841-6.069-4.321-9.079-.15-.307-.579-.08-.521.219,1.1,5.641,3.932,13.422,8.273,17.346C2582.353-193.156,2583.033-193.458,2582.854-193.97Z" transform="translate(-2561.253 211.244)" fill="#636363"/>
      </g>
    </g>
    <g id="Grupo_58456-2" data-name="Grupo 58456-2" transform="translate(2555.02 -261.622)">
      <g id="Grupo_58455-2" data-name="Grupo 58455-2">
        <path id="Trazado_104719-2" data-name="Trazado 104719-2" d="M2573.459-241.474c2.837-2,4.828-5.49,6.868-8.256,2.608-3.535,5.72-7.053,7.6-11.041a.339.339,0,0,0-.139-.459.339.339,0,0,0-.387.048c-3.016,2.644-5.305,6.247-7.645,9.479-2.241,3.094-5.322,6.444-6.383,10.159a.063.063,0,0,0,.044.076A.064.064,0,0,0,2573.459-241.474Z" transform="translate(-2565.657 261.605)" fill="#636363"/>
        <path id="Trazado_104720-2" data-name="Trazado 104720-2" d="M2571.407-241.707c2.084-4.574,4.464-9.618,5.367-14.577a.409.409,0,0,0-.307-.489.408.408,0,0,0-.436.179c-2.525,4.377-3.97,9.751-5.335,14.591C2570.581-241.6,2571.223-241.3,2571.407-241.707Z" transform="translate(-2565.521 261.378)" fill="#636363"/>
        <path id="Trazado_104721-2" data-name="Trazado 104721-2" d="M2565.249-261.127c.227,3,1.4,5.9,2.068,8.827.749,3.276,1.172,6.6,1.822,9.89.066.335.539.227.56-.077.4-5.735-.322-13.984-3.5-18.9C2565.944-261.783,2565.209-261.668,2565.249-261.127Z" transform="translate(-2565.247 261.622)" fill="#636363"/>
      </g>
    </g>
    <path id="Trazado_104748" data-name="Trazado 104748" d="M2567.778,112.932c32.275,0,62.762-4.651,89.752-12.908l18.5-85.59L2570.434,39.054l-101.315-22.3s13.259,65.031,18.005,85.866A312.377,312.377,0,0,0,2567.778,112.932Z" transform="translate(-5.381 -13.919)" fill="#00537e"/>
  </g>
</svg>
