<svg xmlns="http://www.w3.org/2000/svg" width="400" height="316.493" viewBox="0 0 400 316.493">
  <g id="Grupo_60653" data-name="Grupo 60653" transform="translate(-915 -1459.738)">
    <g id="Grupo_60652" data-name="Grupo 60652" transform="translate(915 1460)">
      <ellipse id="Elipse_5290" data-name="Elipse 5290" cx="200" cy="121.604" rx="200" ry="121.604" transform="translate(0 61.569)" fill="#fd705c"/>
      <g id="Grupo_60651" data-name="Grupo 60651" transform="translate(69.475 0)">
        <rect id="Rect치ngulo_5521" data-name="Rect치ngulo 5521" width="222.228" height="174.227" rx="87" transform="translate(18.708 127.893)" fill="#e94d5e" stroke="#0e0e0e" stroke-linecap="round" stroke-linejoin="round" stroke-width="0.525"/>
        <g id="Grupo_57819" data-name="Grupo 57819" transform="translate(75.638)">
          <path id="Rect치ngulo_5522" data-name="Rect치ngulo 5522" d="M0,0H59.113a0,0,0,0,1,0,0V52.211a3.831,3.831,0,0,1-3.831,3.831H5.171A5.171,5.171,0,0,1,0,50.872V0A0,0,0,0,1,0,0Z" transform="translate(26.272 91.728)" fill="#ecb7b2" stroke="#0e0e0e" stroke-linecap="round" stroke-linejoin="round" stroke-width="0.47"/>
          <g id="Grupo_57814" data-name="Grupo 57814" transform="translate(0 59.817)">
            <path id="Trazado_103147" data-name="Trazado 103147" d="M398.567,114.219H398a14.785,14.785,0,1,0,0,29.57h1a39.423,39.423,0,0,1-.433-5.812Z" transform="translate(-382.725 -113.726)" fill="#e6b7b1"/>
            <path id="Trazado_103148" data-name="Trazado 103148" d="M399.326,144.612H398.32a15.279,15.279,0,0,1,0-30.558h.57a.493.493,0,0,1,.493.493V138.3a38.893,38.893,0,0,0,.43,5.74.493.493,0,0,1-.415.561l-.072.006Zm-1.006-29.57a14.291,14.291,0,0,0,0,28.582h.436a40.131,40.131,0,0,1-.361-5.319V115.042Z" transform="translate(-383.049 -114.054)" fill="#271c21"/>
          </g>
          <g id="Grupo_57815" data-name="Grupo 57815" transform="translate(96.231 59.817)">
            <path id="Trazado_103149" data-name="Trazado 103149" d="M416.457,114.219h-.567v23.758a39.441,39.441,0,0,1-.439,5.812h1.006a14.785,14.785,0,1,0,0-29.57Z" transform="translate(-414.961 -113.726)" fill="#e6b7b1"/>
            <path id="Trazado_103150" data-name="Trazado 103150" d="M416.782,144.612h-1a.494.494,0,0,1-.5-.493l.006-.075a38.5,38.5,0,0,0,.43-5.74V114.547a.494.494,0,0,1,.5-.493h.567a15.279,15.279,0,0,1,0,30.558Zm-.436-.988h.436a14.291,14.291,0,0,0,0-28.582h-.075V138.3a40.138,40.138,0,0,1-.361,5.319Z" transform="translate(-415.287 -114.054)" fill="#271c21"/>
          </g>
          <path id="Trazado_103153" data-name="Trazado 103153" d="M406.7,143.84a41.773,41.773,0,0,1-7.11-.621c8,4.916,24.91,14.537,36.689,15.773V131.327A40.943,40.943,0,0,1,406.7,143.84Z" transform="translate(-350.207 -19.95)" fill="#271c21"/>
          <path id="Trazado_109503" data-name="Trazado 109503" d="M430.818,217.905h-.173a40.515,40.515,0,0,1-40.393-40.4l-3.137-43.1c0-22.217,21.316-40.4,43.531-40.4h.173c22.218,0,43.531,18.179,43.531,40.4l-3.137,43.1A40.513,40.513,0,0,1,430.818,217.905Z" transform="translate(-374.98 -94.015)" fill="#ecb7b2" stroke="#0e0e0e" stroke-linecap="round" stroke-linejoin="round" stroke-width="0.525"/>
        </g>
        <path id="Trazado_103157" data-name="Trazado 103157" d="M400.442,126.651a.5.5,0,0,1,.692-.045c.191.17,4.827,4.018,11.8-3.066a.5.5,0,0,1,.7-.006.485.485,0,0,1,.024.684l-.018.015c-7.648,7.776-13.1,3.164-13.152,3.116a.494.494,0,0,1-.048-.693h0Z" transform="translate(-273.134 -35.698)" fill="#271c21"/>
        <path id="Trazado_103158" data-name="Trazado 103158" d="M401.505,117.837a3.134,3.134,0,1,1-3.134-3.134,3.134,3.134,0,0,1,3.134,3.134Z" transform="translate(-283.217 -52.949)" fill="#271c21"/>
        <path id="Trazado_103159" data-name="Trazado 103159" d="M414.057,117.837a3.134,3.134,0,1,1-3.134-3.134,3.134,3.134,0,0,1,3.134,3.134Z" transform="translate(-258.303 -52.949)" fill="#271c21"/>
        <g id="Grupo_57821" data-name="Grupo 57821" transform="translate(143.86 52.046)">
          <path id="Trazado_103163" data-name="Trazado 103163" d="M419.919,111.72a13.222,13.222,0,0,0-3.412-.176c-1.164.039-2.343.057-3.382.054s-2.251-.039-3.463-.093a11.52,11.52,0,0,0-3.242.134c-.767.242-.791.931.692,1.794a17.329,17.329,0,0,0,7.9,1.782c3.448.027,5.543-.875,6.083-1.7C421.683,112.664,420.943,111.968,419.919,111.72Z" transform="translate(-405.904 -111.451)" fill="#271c21"/>
        </g>
        <g id="Grupo_57821-2" data-name="Grupo 57821" transform="translate(104.319 52.046)">
          <path id="Trazado_103163-2" data-name="Trazado 103163" d="M394.044,111.72a13.2,13.2,0,0,1,3.409-.176c1.167.039,2.346.057,3.385.054s2.251-.039,3.46-.093a11.536,11.536,0,0,1,3.245.134c.767.242.788.931-.693,1.794a17.349,17.349,0,0,1-7.9,1.782c-3.448.027-5.543-.875-6.087-1.7C392.28,112.664,393.02,111.968,394.044,111.72Z" transform="translate(-392.657 -111.451)" fill="#271c21"/>
        </g>
        <path id="Trazado_103164" data-name="Trazado 103164" d="M401.688,135.255a.492.492,0,0,1-.487-.5.5.5,0,0,1,.466-.487l2.7-.11a6.961,6.961,0,0,0,6.666-7.23,1.812,1.812,0,0,0-1.88-1.734,5.1,5.1,0,0,1-5.3-4.889l-.272-6.663a.493.493,0,0,1,.472-.513h0a.484.484,0,0,1,.513.451v.024l.272,6.663a4.116,4.116,0,0,0,4.277,3.94,2.8,2.8,0,0,1,2.907,2.681,7.951,7.951,0,0,1-7.615,8.26l-2.7.11Z" transform="translate(-271.379 -56.08)" fill="#271c21"/>
        <path id="Trazado_103161" data-name="Trazado 103161" d="M419.976,124.569a.489.489,0,0,1-.316-.113l-2.86-2.373a1,1,0,0,1-.131-1.406,1.018,1.018,0,0,1,.185-.173l3.245-2.325a.5.5,0,0,1,.579.8l-3.245,2.325,2.86,2.391a.494.494,0,0,1-.313.875Z" transform="translate(-241.131 -46.233)" fill="#271c21"/>
        <path id="Trazado_103161-2" data-name="Trazado 103161" d="M386.5,118.086a.493.493,0,0,1,.316.116l2.86,2.373a1,1,0,0,1,.131,1.406,1.019,1.019,0,0,1-.185.173l-3.245,2.322a.494.494,0,0,1-.579-.8l3.245-2.325-2.86-2.391a.49.49,0,0,1-.063-.7.484.484,0,0,1,.376-.179Z" transform="translate(-302.356 -46.234)" fill="#271c21"/>
        <path id="Trazado_109504" data-name="Trazado 109504" d="M445.659,136.923c-45.405,2.83-81.682,40.838-81.682,86.924h0a87.372,87.372,0,0,0,87.115,87.115h3.358c.367-23.829.812-90.891-5.492-107.38C441.277,183.5,445.632,137.2,445.659,136.923Z" transform="translate(-345.269 -8.842)" fill="#f3f8ff" stroke="#0e0e0e" stroke-linecap="round" stroke-linejoin="round" stroke-width="0.525"/>
        <path id="Trazado_109505" data-name="Trazado 109505" d="M507.017,223.847c0-46.086-36.274-84.094-81.679-86.924.024.278,4.382,46.572-3.3,66.659-4.442,11.627-5.531,48.372-5.66,77.4h0v.11c-.018,4.107-.018,8.06-.006,11.761l-11.161,2.024s26.194,24.564,66.494,5.994S507.017,223.847,507.017,223.847Z" transform="translate(-263.421 -8.842)" fill="#f3f8ff" stroke="#0e0e0e" stroke-linecap="round" stroke-linejoin="round" stroke-width="0.525"/>
        <path id="Trazado_109506" data-name="Trazado 109506" d="M364.26,223.847c0-46.086,36.274-84.094,81.679-86.924-.024.278-4.382,46.572,3.3,66.659,4.445,11.627,5.534,48.372,5.662,77.4h0v.11c.018,4.107.018,8.06.006,11.761l.009,7.6s-16.8,24.146-57.1,5.576S364.26,223.847,364.26,223.847Z" transform="translate(-345.549 -8.842)" fill="#f3f8ff" stroke="#0e0e0e" stroke-linecap="round" stroke-linejoin="round" stroke-width="0.525"/>
        <path id="Trazado_109507" data-name="Trazado 109507" d="M426.369,246.482l98.171,3.367s14.752,49.519,5.239,54.259S390.247,321.66,373.916,316.391s-19.492-54.348-13.17-105.974c0,0,4.161-21.415,23.388-41.96,0,0,18.812-19.367,37.581-27.991" transform="translate(-357.71 -1.809)" fill="#f3f8ff" stroke="#0e0e0e" stroke-linecap="round" stroke-linejoin="round" stroke-width="0.525"/>
        <path id="Trazado_109508" data-name="Trazado 109508" d="M395.54,139.783c-.263.791-17.91,42.238-17.91,42.238l28.17,22.823v16.331l4.1,3.892" transform="translate(-318.168 -3.165)" fill="#f3f8ff" stroke="#0e0e0e" stroke-linecap="round" stroke-linejoin="round" stroke-width="0.525"/>
        <path id="Trazado_109509" data-name="Trazado 109509" d="M420.224,174.525s-34.567-6.71-40.671-6.982c0,0,.979,31.31-.125,35.931-.964,4.054,32.8,12.185,32.8,12.185Z" transform="translate(-314.64 51.94)" fill="#ecb7b2" stroke="#0e0e0e" stroke-linecap="round" stroke-linejoin="round" stroke-width="0.514"/>
        <path id="Trazado_109510" data-name="Trazado 109510" d="M504.587,235.987l-107.264-7.606s-14.847,60.384-5.334,65.127,132.505,17,148.836,11.734,19.492-43.2,13.17-94.825c0,0-4.161-21.415-23.388-41.96s-36.355-27.991-36.355-27.991" transform="translate(-295.981 -1.809)" fill="#f3f8ff" stroke="#0e0e0e" stroke-linecap="round" stroke-linejoin="round" stroke-width="0.525"/>
        <path id="Trazado_109511" data-name="Trazado 109511" d="M429.732,139.783c.263.791,17.91,42.238,17.91,42.238l-28.17,22.823v16.331l-4.1,3.892" transform="translate(-243.239 -3.165)" fill="#f3f8ff" stroke="#0e0e0e" stroke-linecap="round" stroke-linejoin="round" stroke-width="0.525"/>
        <path id="Trazado_109512" data-name="Trazado 109512" d="M379.414,169.366" transform="translate(-314.627 55.558)" fill="#f3f8ff" stroke="#0e0e0e" stroke-linecap="round" stroke-linejoin="round" stroke-width="0.525"/>
        <path id="Trazado_109513" data-name="Trazado 109513" d="M379.414,179.58" transform="translate(-314.627 75.833)" fill="#f3f8ff" stroke="#0e0e0e" stroke-linecap="round" stroke-linejoin="round" stroke-width="0.525"/>
        <path id="Trazado_109514" data-name="Trazado 109514" d="M380.1,165.109s5.3,36.217-1.412,47.28" transform="translate(-316.066 47.108)" fill="#f3f8ff" stroke="#0e0e0e" stroke-linecap="round" stroke-linejoin="round" stroke-width="0.525"/>
        <path id="Trazado_109515" data-name="Trazado 109515" d="M409.491,139.65v-5.976c-7.209,2.77-32.328,15.253-25.3,52.727a2.786,2.786,0,1,0,5.478-1.024C383.883,154.5,401.76,143.077,409.491,139.65Z" transform="translate(-307.582 -15.291)" fill="#0e0e0e"/>
        <ellipse id="Elipse_5291" data-name="Elipse 5291" cx="9.162" cy="10.674" rx="9.162" ry="10.674" transform="translate(73.406 166.648)" fill="#665f5e"/>
        <path id="Trazado_109516" data-name="Trazado 109516" d="M411.894,139.65v-5.976c7.209,2.77,32.328,15.253,25.3,52.727a2.786,2.786,0,1,1-5.477-1.024C437.505,154.5,419.628,143.077,411.894,139.65Z" transform="translate(-250.153 -15.291)" fill="#0e0e0e"/>
        <path id="Trazado_109517" data-name="Trazado 109517" d="M417.892,155.932s-5.925,36.053-6.418,37.435,4.048,2.666,4.048,2.666" transform="translate(-251.061 28.892)" fill="none" stroke="#777372" stroke-linecap="round" stroke-linejoin="round" stroke-width="1.401"/>
        <path id="Trazado_109518" data-name="Trazado 109518" d="M429.919,156.763s-6.284,35.993-6.275,37.462-4.7,1.182-4.7,1.182" transform="translate(-236.161 30.541)" fill="none" stroke="#777372" stroke-linecap="round" stroke-linejoin="round" stroke-width="1.401"/>
        <path id="Trazado_109519" data-name="Trazado 109519" d="M413.765,165.311s3.424-16.6,16.462-13.7,9.615,15.54,9.615,15.54" transform="translate(-246.439 19.644)" fill="none" stroke="#1e1e1e" stroke-linecap="round" stroke-linejoin="round" stroke-width="1.868"/>
      </g>
      <path id="Trazado_109520" data-name="Trazado 109520" d="M380.908,180.132l-1.987,1.118,28.657,20.074,2.136-10.894" transform="translate(-246.132 76.929)" fill="#271c21"/>
    </g>
  </g>
</svg>
