<?xml version="1.0" encoding="utf-8"?>
<!-- Generator: Adobe Illustrator 25.4.1, SVG Export Plug-In . SVG Version: 6.00 Build 0)  -->
<svg version="1.1" id="Capa_1" xmlns="http://www.w3.org/2000/svg" xmlns:xlink="http://www.w3.org/1999/xlink" x="0px" y="0px"
	 viewBox="0 0 254.6 270.1" style="enable-background:new 0 0 254.6 270.1;" xml:space="preserve">
<style type="text/css">
	.st0{opacity:0.2;fill:#92B4D1;}
	.st1{fill:#2672AB;}
	.st2{fill:#D1EBFF;}
	.st3{opacity:0.5;fill:#A8CFF0;}
	.st4{fill:#FFFFFF;}
	.st5{fill:#A8CFF0;}
	.st6{fill:#084C94;}
	.st7{fill:#03336E;}
	.st8{fill:#3F92D1;}
	.st9{fill:#001A46;}
	.st10{fill:#F0F8FF;}
	.st11{fill:#F76195;}
	.st12{fill:#D62D69;}
	.st13{opacity:0.7;fill:#FFFFFF;}
	.st14{fill:#0BA19F;}
	.st15{fill:#0FBAB8;}
	.st16{fill:#EB4680;}
	.st17{opacity:0.3;fill:#03336E;}
	.st18{fill:#FFCC00;}
	.st19{fill:#FFDE17;}
	.st20{fill:#3ECFCD;}
	.st21{opacity:0.5;fill:#FFFFFF;}
	.st22{fill:#72B5E8;}
	.st23{fill:#EEEEEE;}
	.st24{fill:#F99C08;}
	.st25{fill:#E58A07;}
	.st26{opacity:0.2;fill:#92B4D1;enable-background:new    ;}
	.st27{fill:#190B05;}
	.st28{fill:#7F391B;}
	.st29{fill:#FFD0A3;}
	.st30{fill:#F1B987;}
	.st31{fill:#0A2982;}
	.st32{fill:#205CE1;}
	.st33{opacity:0.55;fill:#FFFFFF;enable-background:new    ;}
	.st34{fill:#3A3A3A;}
	.st35{fill:#2D2D2D;}
	.st36{fill:#FBC006;}
	.st37{fill:#CBCBCB;}
	.st38{fill:#713E23;}
	.st39{fill:none;stroke:#381E1E;stroke-width:0.759;stroke-miterlimit:10;}
	.st40{fill:#474747;}
	.st41{fill:#442312;}
</style>
<g>
	<g>
		<path class="st0" d="M128.6,268.7l-59.9-34.8c-3.6-2.1-3.2-5.7,1-8.1l52.6-20.2c4.2-2.4,10.5-2.7,14.1-0.6l40.3,23.6
			c3.6,2.1,3.2,5.7-1,8.1l-32.9,31.4C138.5,270.6,132.2,270.8,128.6,268.7z"/>
		<path class="st1" d="M128.6,265.5l-59.9-34.8c-1.6-0.9-2.4-2.2-2.4-3.5c0,0,0-4.5,0-4.5c0-1.6,1.2,1.2,3.4-0.1l52.6-20.2
			c4.2-2.4,10.5-2.7,14.1-0.6l40.3,23.6c1.2,0.7,2.1-2.3,2.4-1.3c0.1,0.3,0,4.5,0,4.8c0,1.6-1.1,3.3-3.4,4.7l-32.9,31.4
			C138.5,267.3,132.2,267.6,128.6,265.5z"/>
		<path class="st2" d="M128.6,261l-59.9-34.8c-3.6-2.1-3.2-5.7,1-8.1l52.6-20.2c4.2-2.4,10.5-2.7,14.1-0.6l40.3,23.6
			c3.6,2.1,3.2,5.7-1,8.1l-32.9,31.4C138.5,262.9,132.2,263.1,128.6,261z"/>
		<path class="st3" d="M176.6,220.9l-40.3-23.6c-3.6-2.1-9.9-1.8-14.1,0.6l-26.5,10.2c0.2,0.2,0.5,0.4,0.8,0.6l59.9,34.8
			c0.8,0.5,1.8,0.8,2.9,1.1l16.2-15.5C179.8,226.6,180.3,223,176.6,220.9z"/>
		<path class="st4" d="M175.6,228.3l-32.9,31.4c-4.2,2.4-10.5,2.7-14.1,0.6l-59.9-34.8c-1.5-0.9-2.3-2-2.4-3.2
			c-0.2,1.5,0.6,2.9,2.4,4l59.9,34.8c3.6,2.1,9.9,1.8,14.1-0.6l32.9-31.4c2.4-1.4,3.6-3.2,3.4-4.9
			C178.9,225.6,177.7,227.1,175.6,228.3z"/>
	</g>
	<g>
		<path class="st5" d="M221.6,263L58.7,168.9c-8.3-4.8-15.1-17.7-15.1-28.8V15.5c0-11.1,6.8-16.2,15.1-11.4l162.9,94.1
			c8.3,4.8,15.1,17.7,15.1,28.8v124.6C236.6,262.7,229.9,267.8,221.6,263z"/>
		<path class="st6" d="M223.5,254.3L62.9,161.5c-6.7-4.3-10.8-12.8-10.8-21.5V14.7c0-2.1,2.2-3.3,4-2.3c0.2,0.1,0.4,0.2,0.5,0.3
			l160.8,92.9c8,4.6,10.8,12.8,10.8,21.5v125c0,2.2-2.4,3.6-4.3,2.5C223.7,254.4,223.6,254.3,223.5,254.3z"/>
		<path class="st7" d="M217.3,105.5L56.6,12.6c-0.1-0.1-0.3-0.2-0.5-0.3c-1.8-1-4,0.2-4,2.3V140c0,8.7,4.1,17.2,10.8,21.5
			l160.6,92.8c0.1,0,0.2,0.1,0.4,0.2c1.9,1.1,4.3-0.3,4.3-2.5V127C228.2,118.3,225.3,110.1,217.3,105.5z M226.5,252
			c0,0.7-0.6,1.2-1.2,1.2c-0.2,0-0.4-0.1-0.6-0.2l-160.9-93c-6.1-3.8-10-11.7-10-20V14.7c0-0.6,0.5-1,1-1c0.2,0,0.3,0,0.5,0.1
			L216.5,107c8.3,4.8,10,13.5,10,20V252z"/>
		<path class="st8" d="M225.8,95.9L63,1.8c-3.3-1.9-6.3-2.3-8.8-1.3c-0.3,0.1-4.5,2.4-4.8,2.5c0,0,0,0,0,0c2.6-1.3,5.8-1,9.4,1
			l162.9,94.1c8.3,4.8,15.1,17.7,15.1,28.8v124.6c0,6.9-2.6,11.5-6.6,12.8c0.3,0,0.7-0.1,1.3-0.4c0.2-0.1,4.8-2.7,4.9-2.8
			c2.9-2,4.6-6.1,4.6-11.8V124.7C240.9,113.6,234.2,100.7,225.8,95.9z"/>
		<path class="st4" d="M222.3,97.8L59.4,3.7c-3.4-2-6.6-2.3-9.1-1.2c2.2-0.3,4.6,0.2,7.3,1.7l162.9,94.1
			c8.3,4.8,15.1,17.7,15.1,28.8v124.6c0,6.5-2.4,11-6,12.6c4.7-0.7,7.8-5.5,7.8-13.1V126.6C237.4,115.5,230.6,102.6,222.3,97.8z"/>
	</g>
	<g>
		<path class="st7" d="M216,113.6l-23.3-13.5c-4.1-2.4-7.4,0.1-7.4,5.6v27c0,5.4,3.3,11.8,7.4,14.1l23.3,13.5
			c4.1,2.4,7.4-0.1,7.4-5.6v-27C223.4,122.3,220.1,116,216,113.6z"/>
		<path class="st9" d="M218.9,158.1l-23.3-13.5c-4.1-2.4-7.4-8.7-7.4-14.1v-27c0-1.7,0.3-3.1,0.9-4.2c-2.3,0.4-3.8,2.7-3.8,6.4v27
			c0,5.4,3.3,11.8,7.4,14.1l23.3,13.5c2.8,1.6,5.2,0.9,6.5-1.4C221.4,159.2,220.2,158.9,218.9,158.1z"/>
		<g>
			<path class="st10" d="M197.9,121.2l-23.3-13.5c-4.1-2.4-7.4,0.1-7.4,5.6v27c0,5.4,3.3,11.8,7.4,14.1l23.3,13.5
				c4.1,2.4,7.4-0.1,7.4-5.6v-27C205.3,129.9,202,123.6,197.9,121.2z"/>
			<path class="st5" d="M201.7,119l-23.3-13.5c-1.7-1-3.3-1.1-4.6-0.5l0,0l-4,2.4l0,0c1.3-0.8,3-0.7,4.9,0.4l23.3,13.5
				c4.1,2.4,7.4,8.7,7.4,14.1v27c0,2.6-0.8,4.6-2.1,5.6l2.3-1.5c1.9-1.1,3.6-2.8,3.6-6.4v-27C209.1,127.6,205.8,121.3,201.7,119z"/>
			<path class="st11" d="M205.3,135.3c0-5.4-3.3-11.8-7.4-14.1l-23.3-13.5c-4.1-2.4-7.4,0.1-7.4,5.6L205.3,135.3z"/>
			<path class="st12" d="M209.1,133.1c0-5.4-3.3-11.8-7.4-14.1l-23.3-13.5c-1.7-1-3.3-1.1-4.6-0.5l0,0l-4,2.4l0,0
				c1.3-0.8,3-0.7,4.9,0.4l23.3,13.5c4.1,2.4,7.4,8.7,7.4,14.1L209.1,133.1z"/>
			<path class="st13" d="M198.3,120.9L175,107.4c-2-1.2-3.9-1.1-5.2-0.1c1.2-0.5,2.7-0.3,4.3,0.6l23.3,13.5
				c4.1,2.4,7.4,8.7,7.4,14.1v27c0,2.7-0.8,4.7-2.2,5.7c1.9-0.7,3.1-2.9,3.1-6.2v-27C205.7,129.5,202.4,123.2,198.3,120.9z"/>
		</g>
		<g>
			<path class="st8" d="M173.8,144.1c0-1.8,0.3-3.3,0.8-4.3c0.5-1,1.4-1.9,2.8-2.8c1.3-0.8,2.2-1.7,2.7-2.5c0.5-0.8,0.8-1.9,0.8-3.1
				c0-1.1-0.2-2-0.5-2.6c-0.3-0.6-0.8-1.1-1.4-1.4c-1.2-0.7-1.8-0.2-1.8,1.5v2.8l-3.3-1.9v-2.5c0-2.1,0.5-3.4,1.4-4
				c0.9-0.6,2.2-0.4,3.9,0.6c1.7,1,3,2.3,3.9,3.9c0.9,1.6,1.4,3.5,1.4,5.6c0,1.6-0.3,2.9-1,4c-0.7,1.1-1.8,2.2-3.4,3.2
				c-1.1,0.7-1.8,1.3-2.1,1.9c-0.4,0.6-0.5,1.3-0.5,2.2v0.6l6.7,3.9v3.7l-10.2-5.9V144.1z"/>
			<path class="st8" d="M187.9,153.8c-0.9-1.6-1.4-3.5-1.4-5.6v-2l3.3,1.9v2.3c0,1.7,0.6,2.9,1.8,3.6c1.2,0.7,1.8,0.2,1.8-1.5v-5.8
				c0-1.7-0.6-2.9-1.8-3.6c-1.2-0.7-1.8-0.2-1.8,1.5v0.2l-3.3-1.9l0.6-14.1l9.3,5.4v3.7l-6.2-3.6l-0.3,6l0.1,0
				c0.7-0.9,1.7-0.9,3.1-0.1c1.3,0.7,2.3,1.8,2.9,3.2c0.7,1.4,1,3,1,5v5.8c0,2.1-0.5,3.4-1.4,4c-0.9,0.6-2.2,0.4-3.9-0.6
				C190.1,156.8,188.8,155.5,187.9,153.8z"/>
		</g>
		<g>
			<path class="st1" d="M193.5,153.6c0.4-0.1,0.7-0.7,0.7-1.7v-5.8c0-1.7-0.6-2.9-1.8-3.6c-0.9-0.5-1.5-0.4-1.7,0.4
				c0.3-0.1,0.7,0,1.2,0.3c1.2,0.7,1.8,1.9,1.8,3.6v5.8C193.6,153,193.6,153.3,193.5,153.6z"/>
			<polygon class="st1" points="190.9,133.7 190.9,134.7 196.6,138 196.6,137 			"/>
			<path class="st1" d="M189.9,144.7c0-0.3,0-0.5,0.1-0.7l-2.9-1.6l0.6-13.1l-0.5-0.3l-0.6,14.1l3.3,1.9V144.7z"/>
			<path class="st1" d="M196.3,157.7c-0.9,0.6-2.2,0.4-3.9-0.6c-1.7-1-3-2.3-3.9-3.9c-0.9-1.6-1.4-3.5-1.4-5.6v-1l-0.5-0.3v2
				c0,2.1,0.5,4,1.4,5.6c0.9,1.6,2.2,3,3.9,3.9c1.7,1,3,1.2,3.9,0.6c0.3-0.2,0.5-0.5,0.7-0.8C196.5,157.6,196.4,157.6,196.3,157.7z"
				/>
		</g>
		<g>
			<path class="st1" d="M177.1,130.8l-2.2-1.3V127c0-2.1,0.5-3.4,1.4-4c0,0,0.1,0,0.1-0.1c-0.5,0-0.9,0.1-1.2,0.3
				c-0.9,0.6-1.4,1.9-1.4,4v2.5l3.3,1.9V130.8z"/>
			<path class="st1" d="M174.9,146.7v-2.8c0-1.8,0.3-3.3,0.8-4.3c0.5-1,1.4-1.9,2.8-2.8c1.3-0.8,2.2-1.7,2.7-2.5
				c0.5-0.8,0.8-1.9,0.8-3.1c0-1.1-0.2-2-0.5-2.6c-0.3-0.6-0.8-1.1-1.4-1.4c-0.7-0.4-1.3-0.4-1.6,0.1c0.1,0.1,0.3,0.1,0.5,0.2
				c0.6,0.3,1.1,0.8,1.4,1.4c0.3,0.6,0.5,1.5,0.5,2.6c0,1.2-0.3,2.3-0.8,3.1c-0.5,0.8-1.4,1.7-2.7,2.5c-1.3,0.8-2.3,1.8-2.8,2.8
				c-0.5,1-0.8,2.5-0.8,4.3v2.8l10.2,5.9v-0.9L174.9,146.7z"/>
		</g>
		<path class="st8" d="M179.8,112.7c-1.4-0.8-2.5-0.2-2.5,1.4s1.1,3.5,2.5,4.3c1.4,0.8,2.5,0.2,2.5-1.4
			C182.3,115.4,181.2,113.5,179.8,112.7z"/>
		<path class="st1" d="M194.6,121.4c-1.4-0.8-2.5-0.2-2.5,1.4s1.1,3.5,2.5,4.3c1.4,0.8,2.5,0.2,2.5-1.4
			C197.1,124.2,195.9,122.2,194.6,121.4z"/>
		<path class="st12" d="M181.9,117.3c-1.4-0.8-2.5-2.7-2.5-4.3c0-0.2,0-0.4,0-0.5c-1.2-0.5-2.1,0.2-2.1,1.6c0,1.6,1.1,3.5,2.5,4.3
			c1.2,0.7,2.2,0.3,2.5-0.9C182.2,117.5,182,117.4,181.9,117.3z"/>
		<path class="st12" d="M196.6,126.1c-1.4-0.8-2.5-2.7-2.5-4.3c0-0.2,0-0.4,0-0.5c-1.2-0.5-2.1,0.2-2.1,1.6c0,1.6,1.1,3.5,2.5,4.3
			c1.2,0.7,2.2,0.3,2.5-0.9C196.9,126.2,196.8,126.2,196.6,126.1z"/>
	</g>
	<g>
		<path class="st10" d="M17.2,111.4V11.6c0-4.2,2.6-6.2,5.7-4.3l116.9,67.6c3.2,1.8,5.7,6.7,5.7,11v99.8L17.2,111.4z"/>
		<path class="st5" d="M147.2,184.8V85c0-4.2-2.6-9.1-5.7-11L24.6,6.4c-1.3-0.7-2.4-0.9-3.4-0.5c-0.1,0-1.7,0.9-1.8,1c0,0,0,0,0,0
			c1-0.5,2.2-0.4,3.6,0.4l116.9,67.6c3.2,1.8,5.7,6.7,5.7,11v99.8L147.2,184.8z"/>
		<path class="st14" d="M147.2,91.9V85c0-4.2-2.6-9.1-5.7-11L24.6,6.4c-1.3-0.7-2.4-0.9-3.4-0.5c-0.1,0-1.7,0.9-1.8,1c0,0,0,0,0,0
			c1-0.5,2.2-0.4,3.6,0.4l116.9,67.6c3.2,1.8,5.7,6.7,5.7,11v6.9L147.2,91.9z"/>
		<path class="st15" d="M139.9,74.9L23,7.2c-3.2-1.8-5.7,0.1-5.7,4.3v6.8l128.4,74.3v-6.8C145.6,81.6,143,76.7,139.9,74.9z"/>
		<path class="st10" d="M44,26.8c0,1.6-1.1,2.2-2.5,1.4c-1.4-0.8-2.5-2.7-2.5-4.3s1.1-2.2,2.5-1.4C42.9,23.3,44,25.2,44,26.8z"/>
		<path class="st10" d="M36.2,22.4c0,1.6-1.1,2.2-2.5,1.4c-1.4-0.8-2.5-2.7-2.5-4.3c0-1.6,1.1-2.2,2.5-1.4
			C35.1,19,36.2,20.9,36.2,22.4z"/>
		<path class="st10" d="M28.3,18c0,1.6-1.1,2.2-2.5,1.4c-1.4-0.8-2.5-2.7-2.5-4.3s1.1-2.2,2.5-1.4C27.2,14.5,28.3,16.4,28.3,18z"/>
		<path class="st8" d="M92.7,79.3l-12.2-7v2.5l12.2,7V79.3z M94.5,82.8l9,5.2v-2.5l-9-5.2V82.8z M78.8,71.3l-6.1-3.5v2.5l6.1,3.5
			V71.3z M71,66.8l-14-8.1v2.5l14,8.1V66.8z M69.9,57.9L30.1,34.6v3.7l39.7,23.3V57.9z M55.2,57.7l-14.6-8.4v2.5l14.6,8.4V57.7z
			 M38.9,48.3l-8.7-5.2v2.5l8.7,5.2V48.3z"/>
		<path class="st8" d="M105.8,131.5l2.9,1.7v-2.5l-2.9-1.7V131.5z M97,126.5l7,4V128l-7-4V126.5z M74.2,113.3l7.5,4.3v-2.5l-7.5-4.3
			V113.3z M65,108l7.4,4.2v-2.5l-7.4-4.2V108z M83.4,118.6l11.8,6.8V123l-11.8-6.8V118.6z M42.5,95l20.8,12v-2.5l-20.8-12V95z
			 M40.7,91.5l-10.6-6.2v2.5L40.7,94V91.5z M69.9,100L30.1,76.7v3.7l39.7,23.3V100z"/>
		<g>
			<path class="st5" d="M46,114.5c-0.1,0-0.2,0-0.3-0.1l-8.6-5c-0.2-0.1-0.3-0.3-0.3-0.4v-9.9c0-0.2,0.1-0.4,0.3-0.4
				c0.2-0.1,0.4-0.1,0.5,0l8.6,5c0.2,0.1,0.3,0.3,0.3,0.4v9.9c0,0.2-0.1,0.4-0.3,0.4C46.2,114.5,46.1,114.5,46,114.5z M37.9,108.7
				l7.6,4.4v-8.7l-7.6-4.4V108.7z"/>
		</g>
		<g>
			<path class="st6" d="M28.4,102.3c0-0.1-0.1-0.1-0.1-0.2l0-0.1l2-5.1c0.1-0.1,0.2-0.2,0.3-0.1l0.9,0.5c0.1,0.1,0.3,0.2,0.3,0.4
				l2,7.5l0,0.1c0,0.1,0,0.1-0.1,0.1c0,0-0.1,0-0.1,0l-0.8-0.4c-0.1-0.1-0.2-0.2-0.2-0.3l-0.4-1.4l-2.5-1.5l-0.4,1
				c0,0.1-0.1,0.1-0.2,0l-0.8-0.4C28.5,102.4,28.5,102.4,28.4,102.3z M30.3,100.9l1.9,1.1l-1-3.6L30.3,100.9z"/>
		</g>
		<g>
			<path class="st5" d="M72.4,129.7c-0.1,0-0.2,0-0.3-0.1l-8.6-5c-0.2-0.1-0.3-0.3-0.3-0.4v-9.9c0-0.2,0.1-0.4,0.3-0.4
				c0.2-0.1,0.4-0.1,0.5,0l8.6,5c0.2,0.1,0.3,0.3,0.3,0.4v9.9c0,0.2-0.1,0.4-0.3,0.4C72.6,129.7,72.5,129.7,72.4,129.7z M64.3,123.9
				l7.6,4.4v-8.7l-7.6-4.4V123.9z"/>
		</g>
		<g>
			<path class="st6" d="M55.4,117.9c0-0.1-0.1-0.1-0.1-0.2v-6.4c0-0.1,0-0.1,0.1-0.1c0,0,0.1,0,0.1,0l2.5,1.4
				c0.7,0.4,1.2,0.8,1.5,1.4c0.3,0.5,0.5,1.1,0.5,1.7c0,0.3-0.1,0.6-0.2,0.7c-0.1,0.2-0.3,0.2-0.5,0.2c0.2,0.3,0.4,0.6,0.6,1
				c0.2,0.4,0.2,0.7,0.2,1.1c0,0.6-0.2,1-0.5,1.2c-0.4,0.2-0.9,0.1-1.5-0.3l-2.5-1.5C55.5,118,55.4,117.9,55.4,117.9z M57.9,115.3
				c0.3,0.2,0.5,0.2,0.7,0.1c0.2-0.1,0.2-0.2,0.2-0.5c0-0.3-0.1-0.5-0.2-0.8c-0.2-0.2-0.4-0.4-0.7-0.6l-1.3-0.8v1.8L57.9,115.3z
				 M57.9,118.3c0.3,0.2,0.5,0.2,0.7,0.1c0.2-0.1,0.2-0.3,0.2-0.6c0-0.3-0.1-0.6-0.3-0.9c-0.2-0.3-0.4-0.5-0.7-0.7l-1.4-0.8v2
				L57.9,118.3z"/>
		</g>
		<g>
			<path class="st5" d="M98.1,144.6c-0.1,0-0.2,0-0.3-0.1l-8.6-5c-0.2-0.1-0.3-0.3-0.3-0.4v-9.9c0-0.2,0.1-0.4,0.3-0.4
				c0.2-0.1,0.4-0.1,0.5,0l8.6,5c0.2,0.1,0.3,0.3,0.3,0.4v9.9c0,0.2-0.1,0.4-0.3,0.4C98.3,144.5,98.2,144.6,98.1,144.6z M90,138.8
				l7.6,4.4v-8.7L90,130V138.8z"/>
		</g>
		<g>
			<path class="st6" d="M81.5,132.4c-0.4-0.7-0.7-1.5-0.7-2.4c0-0.2,0-0.5,0-0.9c0-0.4,0-0.7,0-0.9c0-0.8,0.3-1.3,0.7-1.6
				c0.4-0.2,1-0.1,1.8,0.3c0.5,0.3,0.9,0.6,1.3,1.1c0.4,0.4,0.7,0.9,0.9,1.3c0.2,0.5,0.3,0.9,0.3,1.4v0c0,0.1,0,0.1-0.1,0.1
				c0,0-0.1,0-0.1,0l-0.8-0.5c-0.1,0-0.1-0.1-0.2-0.1c0-0.1-0.1-0.1-0.1-0.2c-0.1-0.5-0.2-0.8-0.4-1.1c-0.2-0.3-0.5-0.5-0.8-0.7
				c-0.8-0.5-1.2-0.2-1.3,0.8c0,0.2,0,0.4,0,0.8c0,0.4,0,0.6,0,0.8c0,1.1,0.5,1.8,1.3,2.3c0.3,0.2,0.6,0.3,0.8,0.2
				c0.2,0,0.4-0.2,0.4-0.6c0-0.1,0.1-0.1,0.1-0.1c0,0,0.1,0,0.2,0l0.8,0.5c0.1,0,0.1,0.1,0.1,0.1c0,0.1,0.1,0.1,0,0.2
				c0,0.4-0.1,0.7-0.3,1c-0.2,0.2-0.5,0.3-0.9,0.3c-0.4,0-0.8-0.2-1.3-0.5C82.6,133.7,81.9,133.1,81.5,132.4z"/>
		</g>
		<g>
			<path class="st5" d="M46,72.7c-0.1,0-0.2,0-0.3-0.1l-8.6-5c-0.2-0.1-0.3-0.3-0.3-0.4v-9.9c0-0.2,0.1-0.4,0.3-0.4
				c0.2-0.1,0.4-0.1,0.5,0l8.6,5c0.2,0.1,0.3,0.3,0.3,0.4v9.9c0,0.2-0.1,0.4-0.3,0.4C46.2,72.6,46.1,72.7,46,72.7z M37.9,66.9
				l7.6,4.4v-8.7l-7.6-4.4V66.9z"/>
		</g>
		<g>
			<path class="st6" d="M28.4,60.5c0-0.1-0.1-0.1-0.1-0.2l0-0.1l2-5.1c0.1-0.1,0.2-0.2,0.3-0.1l0.9,0.5c0.1,0.1,0.3,0.2,0.3,0.4
				l2,7.5l0,0.1c0,0.1,0,0.1-0.1,0.1c0,0-0.1,0-0.1,0l-0.8-0.4c-0.1-0.1-0.2-0.2-0.2-0.3l-0.4-1.4L30,60.1l-0.4,1
				c0,0.1-0.1,0.1-0.2,0l-0.8-0.4C28.5,60.6,28.5,60.5,28.4,60.5z M30.3,59.1l1.9,1.1l-1-3.6L30.3,59.1z"/>
		</g>
		<g>
			<path class="st5" d="M72.4,87.9c-0.1,0-0.2,0-0.3-0.1l-8.6-5c-0.2-0.1-0.3-0.3-0.3-0.4v-9.9c0-0.2,0.1-0.4,0.3-0.4
				c0.2-0.1,0.4-0.1,0.5,0l8.6,5c0.2,0.1,0.3,0.3,0.3,0.4v9.9c0,0.2-0.1,0.4-0.3,0.4C72.6,87.9,72.5,87.9,72.4,87.9z M64.3,82.1
				l7.6,4.4v-8.7l-7.6-4.4V82.1z"/>
		</g>
		<g>
			<path class="st6" d="M55.4,76c0-0.1-0.1-0.1-0.1-0.2v-6.4c0-0.1,0-0.1,0.1-0.1c0,0,0.1,0,0.1,0l2.5,1.4c0.7,0.4,1.2,0.8,1.5,1.4
				c0.3,0.5,0.5,1.1,0.5,1.7c0,0.3-0.1,0.6-0.2,0.7c-0.1,0.2-0.3,0.2-0.5,0.2c0.2,0.3,0.4,0.6,0.6,1c0.2,0.4,0.2,0.7,0.2,1.1
				c0,0.6-0.2,1-0.5,1.2c-0.4,0.2-0.9,0.1-1.5-0.3l-2.5-1.5C55.5,76.2,55.4,76.1,55.4,76z M57.9,73.5c0.3,0.2,0.5,0.2,0.7,0.1
				c0.2-0.1,0.2-0.2,0.2-0.5s-0.1-0.5-0.2-0.8c-0.2-0.2-0.4-0.4-0.7-0.6L56.5,71v1.8L57.9,73.5z M57.9,76.5c0.3,0.2,0.5,0.2,0.7,0.1
				c0.2-0.1,0.2-0.3,0.2-0.6c0-0.3-0.1-0.6-0.3-0.9c-0.2-0.3-0.4-0.5-0.7-0.7l-1.4-0.8v2L57.9,76.5z"/>
		</g>
		<g>
			<path class="st5" d="M98.1,102.7c-0.1,0-0.2,0-0.3-0.1l-8.6-5c-0.2-0.1-0.3-0.3-0.3-0.4v-9.9c0-0.2,0.1-0.4,0.3-0.4
				c0.2-0.1,0.4-0.1,0.5,0l8.6,5c0.2,0.1,0.3,0.3,0.3,0.4v9.9c0,0.2-0.1,0.4-0.3,0.4C98.3,102.7,98.2,102.7,98.1,102.7z M90,96.9
				l7.6,4.4v-8.7L90,88.2V96.9z"/>
		</g>
		<g>
			<path class="st6" d="M81.5,90.6c-0.4-0.7-0.7-1.5-0.7-2.4c0-0.2,0-0.5,0-0.9c0-0.4,0-0.7,0-0.9c0-0.8,0.3-1.3,0.7-1.6
				c0.4-0.2,1-0.1,1.8,0.3c0.5,0.3,0.9,0.6,1.3,1.1c0.4,0.4,0.7,0.9,0.9,1.3c0.2,0.5,0.3,0.9,0.3,1.4v0c0,0.1,0,0.1-0.1,0.1
				c0,0-0.1,0-0.1,0l-0.8-0.5c-0.1,0-0.1-0.1-0.2-0.1c0-0.1-0.1-0.1-0.1-0.2c-0.1-0.5-0.2-0.8-0.4-1.1c-0.2-0.3-0.5-0.5-0.8-0.7
				c-0.8-0.5-1.2-0.2-1.3,0.8c0,0.2,0,0.4,0,0.8c0,0.4,0,0.6,0,0.8c0,1.1,0.5,1.8,1.3,2.3c0.3,0.2,0.6,0.3,0.8,0.2
				c0.2,0,0.4-0.2,0.4-0.6c0-0.1,0.1-0.1,0.1-0.1c0,0,0.1,0,0.2,0l0.8,0.5c0.1,0,0.1,0.1,0.1,0.1c0,0.1,0.1,0.1,0,0.2
				c0,0.4-0.1,0.7-0.3,1c-0.2,0.2-0.5,0.3-0.9,0.3c-0.4,0-0.8-0.2-1.3-0.5C82.6,91.9,81.9,91.3,81.5,90.6z"/>
		</g>
		<g>
			<path class="st5" d="M125.2,160.2c-0.1,0-0.2,0-0.3-0.1l-8.6-5c-0.2-0.1-0.3-0.3-0.3-0.4v-9.9c0-0.2,0.1-0.4,0.3-0.4
				c0.2-0.1,0.4-0.1,0.5,0l8.6,5c0.2,0.1,0.3,0.3,0.3,0.4v9.9c0,0.2-0.1,0.4-0.3,0.4C125.4,160.2,125.3,160.2,125.2,160.2z
				 M117.1,154.4l7.6,4.4v-8.7l-7.6-4.4V154.4z"/>
		</g>
		<g>
			<path class="st6" d="M108.2,148.4c0-0.1-0.1-0.1-0.1-0.2v-6.4c0-0.1,0-0.1,0.1-0.1c0,0,0.1,0,0.1,0l2.1,1.2
				c1.7,1,2.5,2.3,2.6,4.1c0,0.4,0,0.6,0,0.8c0,0.1,0,0.4,0,0.7c0,0.9-0.2,1.4-0.6,1.6c-0.4,0.2-1,0.1-1.9-0.4l-2.1-1.2
				C108.3,148.5,108.3,148.4,108.2,148.4z M110.5,148.6c0.5,0.3,0.8,0.3,1,0.2c0.2-0.1,0.3-0.5,0.3-1c0-0.4,0-0.6,0-0.7
				c0-0.1,0-0.3,0-0.7c0-0.5-0.1-1-0.3-1.4c-0.2-0.4-0.6-0.7-1-1l-1-0.6v4.6L110.5,148.6z"/>
		</g>
		<polygon class="st16" points="64.5,119.8 67.6,125.1 75.4,120.7 73.5,118.1 68,123.6 67,119.5 		"/>
		<polygon class="st16" points="38.7,63.3 41.8,68.6 49.6,64.1 47.7,61.6 42.2,67 41.2,62.9 		"/>
	</g>
	<g>
		<path class="st17" d="M107,132.5c0,22,15.6,48.9,34.8,60c5.3,3,10.4,4.6,15,4.6c10.8,0,17.6-8.9,17.6-23.2c0-22-15.6-48.9-34.8-60
			c-5.3-3-10.4-4.6-15-4.6C113.7,109.3,107,118.2,107,132.5z"/>
		<path class="st4" d="M91.6,138c0,22,15.6,48.9,34.8,60c5.3,3,10.4,4.6,15,4.6c10.8,0,17.6-8.9,17.6-23.2c0-22-15.6-48.9-34.8-60
			c-5.3-3-10.4-4.6-15-4.6C98.3,114.8,91.6,123.7,91.6,138z"/>
		<path class="st18" d="M119.9,178.9c0.2,0,0.3,0,0.5-0.1l25.6-5.9c2-0.5,2-3.8,0-6.5l-25.6-35.5c-1.1-1.6-2.5-2.4-3.6-2.4
			c-1.1,0-1.9,0.8-1.9,2.5v41.5C114.8,175.4,117.6,178.9,119.9,178.9L119.9,178.9z"/>
		<path class="st18" d="M126.7,200.2c-20.4-11.8-37-40.4-37-63.8c0-16.8,8.6-27.6,22-27.6c5.4,0,11.2,1.8,17.2,5.2
			c20.4,11.8,37,40.4,37,63.8c0,16.8-8.6,27.6-22,27.6C138.5,205.4,132.7,203.6,126.7,200.2z M94.1,136.4c0,22,15.6,48.9,34.8,60
			c5.3,3,10.4,4.6,15,4.6c10.8,0,17.6-8.9,17.6-23.2c0-22-15.6-48.9-34.8-60c-5.3-3-10.4-4.6-15-4.6
			C100.9,113.2,94.1,122,94.1,136.4z"/>
		<path class="st4" d="M117.8,180.2c0.2,0,0.3,0,0.5-0.1l25.6-5.9c2-0.5,2-3.8,0-6.5l-25.6-35.5c-1.1-1.6-2.5-2.4-3.6-2.4
			c-1.1,0-1.9,0.8-1.9,2.5v41.5C112.7,176.7,115.5,180.2,117.8,180.2L117.8,180.2z"/>
		<path class="st19" d="M117.4,180.5c0.2,0,0.3,0,0.5-0.1l25.6-5.9c2-0.5,2-3.8,0-6.5l-25.6-35.5c-1.1-1.6-2.5-2.4-3.6-2.4
			c-1.1,0-1.9,0.8-1.9,2.5V174C112.3,177,115.1,180.5,117.4,180.5L117.4,180.5z"/>
		<path class="st4" d="M124.7,201.5c-20.4-11.8-37-40.4-37-63.8c0-16.8,8.6-27.6,22-27.6c5.4,0,11.2,1.8,17.2,5.2
			c20.4,11.8,37,40.4,37,63.8c0,16.8-8.6,27.6-22,27.6C136.5,206.8,130.7,205,124.7,201.5z M92.1,137.7c0,22,15.6,48.9,34.8,60
			c5.3,3,10.4,4.6,15,4.6c10.8,0,17.6-8.9,17.6-23.2c0-22-15.6-48.9-34.8-60c-5.3-3-10.4-4.6-15-4.6
			C98.9,114.5,92.1,123.4,92.1,137.7z"/>
		<path class="st19" d="M124.2,201.8c-20.4-11.8-37-40.4-37-63.8c0-16.8,8.6-27.6,22-27.6c5.4,0,11.2,1.8,17.2,5.2
			c20.4,11.8,37,40.4,37,63.8c0,16.8-8.6,27.6-22,27.6C136,207,130.2,205.3,124.2,201.8z M91.6,138c0,22,15.6,48.9,34.8,60
			c5.3,3,10.4,4.6,15,4.6c10.8,0,17.6-8.9,17.6-23.2c0-22-15.6-48.9-34.8-60c-5.3-3-10.4-4.6-15-4.6C98.3,114.8,91.6,123.7,91.6,138
			z"/>
	</g>
	<g>
		<g>
			<polygon class="st14" points="199,226.1 199,254.9 203.3,252.5 203.3,223.5 			"/>
			<polygon class="st15" points="199,226.1 199,254.9 139,219.8 139,190.8 			"/>
			<polygon class="st20" points="139,190.8 199,226.1 203.3,223.5 143.3,188.2 			"/>
			<polygon class="st21" points="139,190.8 199,226.1 203.3,223.5 198.8,224.7 			"/>
		</g>
		<g>
			<polygon class="st1" points="250.2,223.9 250.2,267 254.6,264.5 254.6,221 			"/>
			<polygon class="st22" points="180.1,182.6 250.2,223.9 254.6,221 184.3,179.9 			"/>
			<polygon class="st13" points="180.1,182.6 250.2,223.9 254.6,221 250.4,222.9 			"/>
		</g>
		<polygon class="st8" points="180.1,182.6 180.1,211.5 202,224.4 202,238.8 250.2,267 250.2,223.9 		"/>
	</g>
	<g>
		<path class="st4" d="M202.7,201.1l-16.2-9.4c-1-0.6-1.8-0.1-1.8,1v11c0,1.1,0.8,2.5,1.8,3.1l10.2,5.9l5.1,8.8v-5.8l1,0.6
			c1,0.6,1.8,0.1,1.8-1v-11C204.5,203.1,203.7,201.7,202.7,201.1z M191.2,203.1c-0.5,0.3-1.4-0.2-1.9-1.1c-0.5-0.9-0.5-1.9,0-2.2
			c0.5-0.3,1.4,0.2,1.9,1.1C191.8,201.9,191.8,202.8,191.2,203.1z M195.6,205.7c-0.5,0.3-1.4-0.2-1.9-1.1c-0.5-0.9-0.5-1.9,0-2.2
			c0.5-0.3,1.4,0.2,1.9,1.1C196.2,204.4,196.2,205.4,195.6,205.7z M200,208.2c-0.5,0.3-1.4-0.2-1.9-1.1c-0.5-0.9-0.5-1.9,0-2.2
			c0.5-0.3,1.4,0.2,1.9,1.1C200.6,206.9,200.6,207.9,200,208.2z"/>
		<polygon class="st4" points="210.5,221 210.5,223.7 245,243.6 245,240.8 		"/>
		<polygon class="st4" points="231.6,244.5 210.5,232.4 210.5,235.1 231.6,247.2 		"/>
		<polygon class="st4" points="210.5,229.4 245,249.3 245,246.5 210.5,226.7 		"/>
		<polygon class="st4" points="169.9,216.3 169.9,219.1 194,233 194,230.3 		"/>
		<polygon class="st4" points="180.6,233.9 169.9,227.7 169.9,230.5 180.6,236.7 		"/>
		<polygon class="st4" points="169.9,224.8 194,238.7 194,236 169.9,222 		"/>
		<polygon class="st4" points="210.5,209.7 210.5,212.4 245,232.3 245,229.5 		"/>
		<polygon class="st4" points="210.5,218.1 245,238 245,235.2 210.5,215.4 		"/>
		<path class="st4" d="M163.5,210l-16.4-9.5c-1-0.6-1.8-0.1-1.8,1v11.1c0,1.2,0.8,2.6,1.8,3.1l1,0.6v5.9l5.1-2.9l10.2,5.9
			c1,0.6,1.8,0.1,1.8-1v-11.1C165.3,212,164.5,210.6,163.5,210z M151.7,212c-0.5,0.3-1.4-0.2-1.9-1.1c-0.5-0.9-0.5-1.9,0-2.2
			c0.5-0.3,1.4,0.2,1.9,1.1C152.3,210.7,152.3,211.7,151.7,212z M156.2,214.6c-0.5,0.3-1.4-0.2-1.9-1.1c-0.5-0.9-0.5-1.9,0-2.2
			c0.5-0.3,1.4,0.2,1.9,1.1C156.7,213.3,156.7,214.2,156.2,214.6z M160.6,217.1c-0.5,0.3-1.4-0.2-1.9-1.1c-0.5-0.9-0.5-1.9,0-2.2
			c0.5-0.3,1.4,0.2,1.9,1.1C161.2,215.8,161.2,216.8,160.6,217.1z"/>
	</g>
</g>
<g id="Grupo_53155" transform="translate(0 134.794)">
	<g id="Grupo_53152" transform="translate(9.193 25.756)">
		<path id="Trazado_98869" class="st23" d="M25.9,0.9l0.5-0.9c0.4-0.1,0.8-0.1,1.2,0c0.7,0.4,1.3,0.9,1.7,1.6l-1.4,3"/>
		<path id="Trazado_98870" class="st24" d="M4.2,13c0,0,6.5,0.2,7.9-0.8S26,0.5,26,0.5c0.5-0.3,1.2-0.2,1.6,0.1
			c0.6,0.6,1.2,1.2,1.5,2c0,0-9.7,14.1-11,15s-13.7,2-13.7,2"/>
		<path id="Trazado_98871" class="st25" d="M16.7,15.7c-1.1,0.7-8,1.1-12.5,1.6l0.3,2.3c0,0,12.4-1.1,13.7-2s11-15,11-15
			S29,2.3,28.7,1.8C27.6,3.1,18,14.9,16.7,15.7z"/>
	</g>
	<path id="Trazado_98872" class="st26" d="M43.3,121.3c0.4-1.9,0.6-3.9,0.6-5.9c0.1-3.4-0.8-7-4.5-7.6c-5.9-0.9-12.1-0.2-18,0.7
		c-4.8,0.8-11.1,0.8-15.1,4c-6,5,1.8,11.5,6,14.4c8.1,5.5,19.8,12.6,27.4,2.4C41.6,127,42.8,124.3,43.3,121.3z"/>
	<path id="Trazado_98873" class="st27" d="M14.3,121.3L14.3,121.3c0,0.1,0,0.1,0,0.1c0,0,0,0.1,0,0.1c0.3,0.8,1.1,1.4,2,1.5
		c0.1,0,0.2,0,0.3,0c0,0,0.1,0,0.1,0c0.4,0,0.7,0,1.1,0c0.1,0,0.2,0,0.4,0c1.3-0.4,2.5-1,3.5-1.9c0.1-0.1,0.1-0.1,0.1-0.1v-0.3
		c0,0,1.1-0.7,1.5-1c1.2-0.7,2.9-1.3,4.6-2.1c0.4-0.2,0.8-0.5,1.2-0.8c0.1-0.1,0.1-0.1,0.2-0.2c0,0,0.1-0.1,0.1-0.1
		c0,0,0.1-0.1,0.1-0.1c0.1-0.1,0.1-0.2,0.2-0.3c0-0.1,0.1-0.1,0.1-0.1l0.1-0.1c0,0,0-0.1,0-0.1v0c0.1-0.2,0.1-0.4,0.1-0.6v-1.1
		l-10,4.1l-5.5,2L14.3,121.3z"/>
	<path id="Trazado_98874" class="st28" d="M20.2,113.8c1.5-0.1,2.9-0.3,4.4-0.5c2.7-0.5,4.6-0.6,5,0.2c0.3,0.8,0.4,1.7-2,3.4
		s-4.3,1.8-6.3,3.4c-1.2,1-2.7,1.5-4.2,1.5c-1,0.2-2.1-0.2-2.8-1c-0.7-1.4,0-4,0-4"/>
	<path id="Trazado_98875" class="st27" d="M24.1,122.9l0,1.4c0,0.5,0.3,0.9,0.7,1.2c0.2,0.1,0.4,0.1,0.6,0.2c1.4,0.1,2.9,0,4.3-0.2
		v-0.5c0,0,0.9-0.1,3.7-0.4c2-0.2,3.9-0.8,5.6-1.7c0.4-0.2,0.7-0.6,0.7-1.1l0-1l-10.7,1.9L24.1,122.9z"/>
	<path id="Trazado_98876" class="st28" d="M31.6,118.1c0.7,0.7,1.6,1,2.6,1.1c1.4,0,4.1,0,4.8,0.5c0.3,0.2,0.5,0.5,0.5,0.9
		c0,0.4-0.1,0.8-0.4,1.1c-0.5,0.8-4.1,1.9-6.7,2.1c-1.4,0.1-2.7,0.2-4.1,0.4c-1.1,0.3-2.3,0.3-3.4-0.1c-1.4-0.7-1.5-2.8-0.6-4.1
		S31.6,118.1,31.6,118.1z"/>
	<path id="Trazado_98877" class="st29" d="M17,18.8l-0.2,0.5l0.3,1.7l5.3,2.7l0.3,0l0.9-0.1l1.3-0.2v-1.8c0-1,0.5-1.8,1.4-2.2
		c0,0,0,0,0.1,0c0.3-0.1,0.7-0.3,0.9-0.6l0.1-0.1c1-1.1,1.9-3.5,1.7-8.9c0-1.2-0.3-2.3-0.7-3.4c-0.8-1.5-2.4-2.5-5.8-1.5
		c-5.7,1.6-8.1,4.1-8.4,6.4S17,18.8,17,18.8z"/>
	<path id="Trazado_98878" class="st30" d="M25,23.3v-1.8c0-1,0.5-1.8,1.4-2.2c-0.3,0.1-1.1,0.5-2.3,1.1c-0.5,0.2-0.4,1.7-0.4,3.1
		L25,23.3z"/>
	<g id="Grupo_53154" transform="translate(29.61 15.748)">
		<g id="Grupo_53153">
			<path id="Trazado_98879" class="st31" d="M4.7,17.5l9.5,4.9c0.5,0.2,1.1,0.1,1.3-0.4c0-0.1,0-0.1,0.1-0.2l4.8-15.4
				c0.2-0.6-0.1-1.2-0.6-1.5l-9.5-4.9c-0.4-0.2-1,0-1.2,0.4c0,0.1,0,0.1-0.1,0.2L4.2,16.3C4.1,16.8,4.3,17.3,4.7,17.5z"/>
			<path id="Trazado_98880" class="st32" d="M5.4,17.1l8.4,4.4c0.4,0.2,1,0.1,1.2-0.4c0,0,0-0.1,0.1-0.1l4.5-14.3
				c0.2-0.7,0.2-1-0.6-1.4l-8.8-4.6c-0.2-0.1-0.4,0-0.5,0.2c0,0,0,0,0,0.1L5,16C4.8,16.5,5,16.9,5.4,17.1z"/>
			<path id="Trazado_98881" class="st33" d="M13.7,8.2l3.1,1.6c0.1,0,0.2,0,0.2-0.1c0,0,0,0,0,0l0.9-2.9c0-0.1,0-0.2-0.1-0.2L14.7,5
				c-0.1,0-0.2,0-0.2,0.1c0,0,0,0,0,0L13.7,8C13.6,8,13.7,8.1,13.7,8.2z M11.4,15.4l2.4,1.2c0.1,0,0.1,0,0.2-0.1c0,0,0,0,0,0
				l1.9-6.1c0-0.1,0-0.1-0.1-0.1l-2.4-1.2c-0.1,0-0.1,0-0.2,0.1c0,0,0,0,0,0l-1.9,6.1C11.4,15.3,11.4,15.4,11.4,15.4L11.4,15.4z
				 M10,9.9l1.9,1c0,0,0.1,0,0.1,0c0,0,0,0,0,0l0-0.1c0,0,0-0.1,0-0.1l-1.9-1c0,0-0.1,0-0.1,0c0,0,0,0,0,0l0,0.1
				C10,9.9,10,9.9,10,9.9L10,9.9z M11.6,11.5c0.1,0,0.2,0,0.2-0.1c0,0,0,0,0,0l0.1-0.2c0-0.1,0-0.2-0.1-0.2L8.5,9.3
				c-0.1,0-0.2,0-0.2,0.1c0,0,0,0,0,0L8.2,9.6c0,0.1,0,0.2,0.1,0.2 M8.1,10.4l3.3,1.7c0.1,0,0.2,0,0.2-0.1c0,0,0,0,0,0l0.1-0.2
				c0-0.1,0-0.2-0.1-0.2L8.3,9.9c-0.1,0-0.2,0-0.2,0.1c0,0,0,0,0,0L8,10.2C8,10.3,8,10.4,8.1,10.4L8.1,10.4z M7.9,11l3.3,1.7
				c0.1,0,0.2,0,0.2-0.1c0,0,0,0,0,0l0.1-0.2c0-0.1,0-0.2-0.1-0.2l-3.3-1.7c-0.1,0-0.2,0-0.2,0.1c0,0,0,0,0,0l-0.1,0.2
				C7.8,10.9,7.8,11,7.9,11L7.9,11z M7.7,11.6l3.3,1.7c0.1,0,0.2,0,0.2-0.1c0,0,0,0,0,0l0.1-0.2c0-0.1,0-0.2-0.1-0.2l-3.3-1.7
				c-0.1,0-0.2,0-0.2,0.1c0,0,0,0,0,0l-0.1,0.2C7.6,11.5,7.7,11.6,7.7,11.6L7.7,11.6z M7.5,12.3l3.3,1.7c0.1,0,0.2,0,0.2-0.1
				c0,0,0,0,0,0l0.1-0.2c0-0.1,0-0.2-0.1-0.2l-3.3-1.7c-0.1,0-0.2,0-0.2,0.1c0,0,0,0,0,0l-0.1,0.2C7.4,12.1,7.5,12.2,7.5,12.3
				L7.5,12.3z M9.4,6.3L12.8,8C12.9,8.1,13,8,13,8c0,0,0,0,0,0L14,4.8c0-0.1,0-0.2-0.1-0.2l-3.4-1.8c-0.1,0-0.2,0-0.2,0.1
				c0,0,0,0,0,0L9.3,6C9.3,6.1,9.3,6.2,9.4,6.3L9.4,6.3z"/>
		</g>
		<path id="Trazado_98882" class="st29" d="M12.9,19.6l1.8,1.5l0.3,0.3c0.2-0.9,0.6-1.7,1.2-2.4c0.4-0.3,0.9-0.5,1.4-0.6
			c0.2-0.1,0.5-0.2,0.6-0.4c0.6-1,0.9-2.2,0.6-3.4c0-0.3-0.1-0.5-0.2-0.8c0,0,0,0,0,0c-0.2-0.4-0.5-0.4-0.5-0.4s-1.2,0.9-1.6,1.1
			c-0.3,0.2-0.7,0.6-1,0.3c-0.2-0.2,0.7-1.3,1-1.8s-0.2-1.1-0.4-0.9c-0.8,0.9-1.5,2-2,3.1C13.6,16.6,12.9,19.6,12.9,19.6z"/>
		<path id="Trazado_98883" class="st30" d="M14.3,19.8l0.4,1.3l0.3,0.3c0.2-0.9,0.6-1.7,1.2-2.4c0.4-0.3,0.9-0.5,1.4-0.6
			c0.2-0.1,0.5-0.2,0.6-0.4c0.6-1,0.9-2.2,0.6-3.4c0-0.3-0.1-0.5-0.2-0.8c0,0,0,0,0,0c0,0,0,0.3-0.5,0.8c-0.5,0.4-1,0.8-1.6,1.1
			c-0.6,0.5-1,1.2-1.2,1.9C14.9,18.3,14.3,19.8,14.3,19.8z"/>
		<path id="Trazado_98884" class="st23" d="M15.4,21.4l0.3-1c0.1-0.2,0-0.4,0-0.6c-0.2-0.5-0.5-0.9-0.8-1.3c-0.4-0.4-1-0.5-1.5-0.2
			c-0.2,0.2-0.3,0.5-0.4,0.8c-0.1,0.3-0.1,0.6-0.1,0.9c0,0.1,0.7,1,0.8,1.1C14.2,21.2,14.8,21.3,15.4,21.4z"/>
	</g>
	<path id="Trazado_98885" class="st34" d="M11.6,69.5c1.3,6.9,2.2,15.5,2.2,15.5s-2.1,17.2,0.3,32.1c0.1,0.7,0.3,2.2,1.3,2.8
		c0.9,0.4,2,0.4,2.9,0c0,0,0.1,0,0.1-0.1c3.5-1.9,3.2-4.4,3.7-6.1c0-6.6-0.7-23,0.7-26.6L24,72.6l-0.5-10.4H10.8v0l-0.1,0
		C10.8,62.2,9.7,65,11.6,69.5z"/>
	<path id="Trazado_98886" class="st35" d="M15.4,69.8c1.2,3.9,2.7,14.2,3.1,16.7c0,0-1.2,19.7-0.2,33.3c3.5-1.9,3.2-4.4,3.7-6.1
		c0-6.6-0.7-23,0.7-26.6L24,72.6l-0.5-10.4h-8.7C14.5,64.8,14.7,67.3,15.4,69.8z"/>
	<path id="Trazado_98887" class="st34" d="M16.3,65.6c0.5,2.4,1.4,4.6,2.7,6.6c0.2,0.4,0.5,0.7,0.7,1.1c0,0.2,0.7,2.5,1.4,5.6
		s1.7,7,2.4,10.3c-0.4,4.2-1.4,18.8,0.6,31.4c0.1,0.9,0.8,1.6,1.7,1.9c0.5,0.1,0.9,0.2,1.4,0.1c0.4,0,0.8-0.1,1.2-0.3
		c2.1-0.9,3.6-4.2,3.6-4.2s0.1-21,1.1-26.5c0.2-1.1,0.3-2.1,0.4-3.2c0.2-3.4,0.6-9.5,0.7-12.1c0.2-3.7,0.2-7.4,0.1-11.1l-10.4,0.1
		L16.3,65.6z"/>
	<path id="Trazado_98888" class="st35" d="M23.7,65.6c0.1,0.6,0.1,1,0.1,1c0.2,2.2,0.7,4.4,1.4,6.5c1.3,3.9,2.6,13.2,2.8,16.7
		c0.1,3.2-1.6,18.5-0.9,32.9c0.4,0,0.8-0.1,1.2-0.3c2.1-0.9,3.6-4.2,3.6-4.2s0.1-21,1.1-26.5c0.2-1.1,0.3-2.1,0.4-3.2
		c0.2-3.4,0.6-9.5,0.7-12.1c0.2-3.7,0.2-7.4,0.1-11.1L23.7,65.6z"/>
	<path id="Trazado_98889" class="st36" d="M9.5,36.4c1.7,5.1,2.6,13.4,1.6,16.9c-0.7,2.8-1.3,5.6-1.6,8.4c1,2.6,9.8,8.3,14.8,8.7
		c0.6,0.1,1.2,0,1.8-0.1c4.4-0.6,8.4-4.5,8.4-4.5S33.6,51.5,33,42.4c-0.2-4-0.8-7.9-1.9-11.7c-0.1-0.5-0.3-0.9-0.5-1.4
		c-1.2-1.2-2.6-2.3-4.1-3.2c0,0,0,0,0,0c-1.3-0.9-2.9-1.8-4.4-2.7h0c-2-1.2-4.1-2.3-5.7-3.1c-0.2-0.1-0.4-0.2-0.6-0.3
		c-0.8-0.4-1.6-0.8-2.5-1c-2.3-0.4-5.5,0.8-6.4,5S7.9,31.3,9.5,36.4z"/>
	<path id="Trazado_98890" class="st24" d="M26.6,53.2c0.3,3.9-0.3,13.7-0.5,17.1c4.4-0.6,8.4-4.5,8.4-4.5S33.6,51.5,33,42.4
		c-0.2-4-0.8-7.9-1.9-11.7c-0.5-0.5-0.8-0.9-0.8-0.9h-5.7c0,0-3,0.6-1.9,7.4C23.8,44,26.3,48.4,26.6,53.2z"/>
	<path id="Trazado_98891" class="st37" d="M52.9,9.1"/>
	<path id="Trazado_98892" class="st36" d="M15.9,22.1c2.2,2.5,5.4,3.8,8.7,3.4c0.7,0,1.4,0.3,2,0.6c0,0,0,0,0,0c0,0,0,0,0,0
		l-0.9-1.3l-1-0.6c0,0-1.5-0.5-1.8-0.7c-0.3-0.1-0.5-0.1-0.8-0.1h0c-0.9-0.1-2.1-0.2-2.3-0.2c-0.9-0.5-1.8-1-2.6-1.6
		c-0.1,0-0.5-0.8-0.8-1.3c-0.2-0.1-0.4-0.2-0.6-0.3C15.4,20.6,15.4,21.5,15.9,22.1z"/>
	<path id="Trazado_98893" class="st38" d="M12.7,11.3c0.5,2.9,3,7.5,4.2,7.9c0.7,0.2,1.4,0.4,2.1,0.4c1,0,1.8-0.6,2-1.6
		c0.1-0.9,0.4-1.8,0.8-2.6c0.9-1.6,2-2.5,2.6-2.2s0.5,1.3,0.5,1.3l0.4,0c0,0,0-0.3,0.1-0.8s0.1-1,0.1-1.4c0-1.1,0.3-2.1,1-3
		c0.6-0.8,1-1.7,1.4-2.6c0.3-0.7,0.4-1.5,0.3-2.3v0c0-1.5-0.8-2.9-2-3.8c-2.8-2.1-8.7,1.8-10.9,3.6c-1.1,0.9-2,2.1-2.4,3.5v0
		C12.5,8.8,12.5,10.1,12.7,11.3z"/>
	<path id="Trazado_98894" class="st4" d="M16.3,19.8l0.5-0.5c2.1,2.3,5,3.8,8.2,4c0.8,0.8,1.3,1.7,1.6,2.8l-0.7-0.5
		c-0.4-0.3-0.8-0.4-1.3-0.5c-0.3,0-0.9-0.1-0.9-0.1c-2.9,0-5.8-2.1-7.3-3.3c-0.5-0.4-0.6-1.3-0.2-1.8C16.2,19.9,16.2,19.8,16.3,19.8
		z"/>
	<path id="Trazado_98895" class="st39" d="M44.8,35.9"/>
	<path id="Trazado_98896" class="st39" d="M50.3,22.7"/>
	<path id="Trazado_98897" class="st40" d="M29.5,116.5c-0.1,0.1-0.1,0.2-0.2,0.3C29.4,116.6,29.4,116.5,29.5,116.5z"/>
	<path id="Trazado_98898" class="st40" d="M29.2,116.9c0,0,0.1-0.1,0.1-0.1C29.2,116.8,29.2,116.9,29.2,116.9
		C29.1,116.9,29.2,116.9,29.2,116.9z"/>
	<path id="Trazado_98899" class="st36" d="M24,34.5c0.6,3.2,6.7,12.6,6.9,12.9c0.9,1.5,2,3,3.1,4.4h0c0.5,0.7,1.1,1.3,1.9,1.8
		c0.1,0,0.2,0,0.2,0.1c1.7,0.4,3.3-0.5,3.9-2.2c1.2-2.3,2.3-4.6,3.2-7c0.7-2.3,1.3-4.7,1.8-7.1c0.1-0.5,0.1-1.1-0.2-1.6
		c0,0,0-0.1-0.1-0.1c-0.3-0.6-0.8-1.2-1.2-1.3c-0.8-0.1-0.9,0.1-0.9,0.1s-1.4,2.3-2.5,4c-0.9,1.5-1.6,3.1-2.2,4.7
		c-0.1,0.3-0.2,0.5-0.2,0.5c-2-4.7-4.7-10.5-5.7-12.9c-1-2.2-3.5-3.2-5.7-2.2c-0.6,0.3-1.1,0.7-1.6,1.2c0,0-0.1,0.1-0.1,0.1
		c-0.1,0.2-0.2,0.4-0.3,0.6l0,0l0,0C24.1,30.6,23.5,31.5,24,34.5z"/>
	<path id="Trazado_98900" class="st41" d="M12.7,11.3c0.5,2.9,3,7.5,4.2,7.9c0.7,0.2,1.4,0.4,2.1,0.4c1,0,1.8-0.6,2-1.6
		c0.1-0.9,0.4-1.8,0.8-2.6c0.9-1.6,2-2.5,2.6-2.2s0.5,1.3,0.5,1.3l0.4,0c0,0,0-0.3,0.1-0.8s0.1-1,0.1-1.4c0-1.1,0.3-2.1,1-3
		c0.6-0.8,1-1.7,1.4-2.6c0.3-0.7,0.4-1.5,0.3-2.3c-1.6,3.9-5.1,6.7-9.2,7.6c-6.9,1.4-6.2-4-6.2-4.3C12.5,8.8,12.5,10.1,12.7,11.3z"
		/>
	<path id="Trazado_98901" class="st24" d="M37.9,43.3c-0.1,0.3-0.2,0.5-0.2,0.5c0.4,0.9,0.6,1.9,0.6,2.8
		C38.7,45.5,38.5,44.2,37.9,43.3z"/>
	<path id="Trazado_98902" class="st24" d="M24.2,30.5L24.2,30.5c0,0-0.2,2.7,2.4,7.1s7.9,15.2,10.6,14.9c1.4-0.2,4.5-6.8,5.7-9.8
		c0.8-2.2,1.4-4.5,1.9-6.9c0,0,0,0.1,0.1,0.1c0.3,0.5,0.3,1,0.2,1.6c-0.5,2.4-1.1,4.8-1.8,7.1c-0.9,2.4-2,4.7-3.2,7
		c-0.5,1.6-2.2,2.5-3.9,2.1v0c-0.1,0-0.2,0-0.2-0.1c-0.8-0.4-1.4-1.1-1.9-1.8h0c-1.1-1.4-2.1-2.9-3.1-4.4c-0.3-0.4-6.4-9.7-6.9-12.9
		C23.5,31.5,24.1,30.6,24.2,30.5z"/>
</g>
</svg>
