<svg xmlns="http://www.w3.org/2000/svg" width="400" height="377.745" viewBox="0 0 400 377.745">
  <g id="Grupo_71882" data-name="Grupo 71882" transform="translate(-208.992 -295.622)">
    <path id="Trazado_107090" data-name="Trazado 107090" d="M1696.569,1160.284a23.2,23.2,0,0,0-22.828,19.1l-8.615-2.247,8.278,7.558a23.2,23.2,0,1,0,23.165-24.41Z" transform="translate(-1129.145 -670.494)" fill="#fe851b"/>
    <ellipse id="Elipse_5376" data-name="Elipse 5376" cx="200" cy="5.506" rx="200" ry="5.506" transform="translate(208.992 662.355)" fill="#c6a7cf" opacity="0.5" style="mix-blend-mode: multiply;isolation: isolate"/>
    <path id="Trazado_107091" data-name="Trazado 107091" d="M814.382,463l-15.873-26.8c-3.262-3.616-3.96-7.187-3.538-10.271.1-.5.2-1,.292-1.5a15.183,15.183,0,0,1,1.168-3.046,28.083,28.083,0,0,0,2.935-14.953,125.121,125.121,0,0,0-4.379-24.456A108.308,108.308,0,0,0,614.907,324.86a97.663,97.663,0,0,0-21.48,27.006,107.591,107.591,0,0,0-8.955,22.011,109.592,109.592,0,0,0-.182,59.628q.836,2.972,1.875,5.881a95.65,95.65,0,0,0,4.638,11.053s.526.858,1.438,2.345a108.29,108.29,0,0,0,9.208,15.005l8.7,14.172c6.063,9.865,12,19.526,15.2,24.72a9.041,9.041,0,0,1,.643,8.2l-3.749,12.532-1.7,5.72-.921,3.063-1.071,3.6-6.994,23.4H588.6l-.011.043-1.607,4.8-.675,2.185-.139.418-.471,1.532-1.542,4.916-.493,1.574-.621,1.982-4.659,14.92-.611,1.971-4.241,13.581-.621,1.982-4.242,13.581-.611,1.971-4.241,13.581-.621,1.971-4.241,13.581-.621,1.982-2.581,8.279H767.275c-4.681-8.162-7.787-12.542-7.787-12.542-21.829-33.75-27.12-56.907-27.12-56.907h-6.619c-4.638-22.482,13.228-42.994,13.228-42.994,7.937-9.918,41.012-8.6,41.012-8.6,19.837,0,16.527-17.866,16.527-17.866a28.545,28.545,0,0,1-1.317-13.881c7.937-3.31,3.974-12.564,3.974-12.564,9.254-2.656,5.281-9.919,5.281-9.919l-2.978-10.925C821.333,476.895,814.382,463,814.382,463Z" transform="translate(-268.887)" fill="#fff"/>
    <path id="Trazado_107092" data-name="Trazado 107092" d="M780.881,941.955l42.528,40.131L800.6,943.579Z" transform="translate(-443.465 -501.193)" fill="#c6a7cf"/>
    <path id="Trazado_107093" data-name="Trazado 107093" d="M785.834,491.194c9.471-2.606,19.689-6.251,27.342-12.6,7.9-6.556,13.031-14.605,22.9-18.676,7.78-3.209,16.222-5.413,24.286-7.8,14.509-4.294,31.908-6.433,42.818-18.131,5.626-6.033,6.357-15.06,4.679-22.905-12.108-56.614-87.306-78.972-134.638-53.145-27.81,15.176-45.015,39.92-47.729,70.968-2.152,24.614.706,53.326,28.6,62.064A55.561,55.561,0,0,0,785.834,491.194Z" transform="translate(-400.076 -40.048)" fill="#f98473"/>
    <path id="Trazado_107094" data-name="Trazado 107094" d="M888.829,829.141a.372.372,0,0,0-.307-.073l.15-.165a.444.444,0,0,0-.494-.713l.173-.19a.432.432,0,0,0-.639-.581l-.246.27,0-.006.072-.078a.432.432,0,0,0-.638-.582l-2.488,2.213c.075-1.384-.62-1.491-.62-1.491-.366.032-.222.383-.222.383a3.765,3.765,0,0,1-.458,2.021,2.348,2.348,0,0,0-.435,1.612,1.307,1.307,0,0,0,.076.493l-.183.154.015.017-7.256,5.467c-.054-.039-.1-.079-.161-.118a.492.492,0,0,0-.586.018l-1.339,1.062a.4.4,0,0,0-.106.5c.024.046.048.084.072.129l-1.48,1.1-2.166-2.262,0-.028c-.033-.183-.037-.293-.092-.528l-.125-.479c-.087-.313-.151-.618-.25-.9a15.522,15.522,0,0,0-.572-1.545,10.206,10.206,0,0,0-.55-1.14l-.461-.772.068-.071-.9-1.4-.523-.237.606-2.865a.328.328,0,0,1,.274.208,1.288,1.288,0,0,0,2.435-.836l-.318-.924-.2-.577-.2-.586-.005-.114.4-.385a.244.244,0,0,0,.01-.34l-1.048-1.143-.052-.154.633.691a2.007,2.007,0,0,0-.111-1.05c-.22-.642-.619-1.088-.889-.995a.245.245,0,0,0-.106.079c.006.012.009.027.015.039a3,3,0,0,0-.974-1.123l-.251-.062.194-.067a2.51,2.51,0,0,0-1.242-2.365,1.631,1.631,0,0,0-2.08.2,3.692,3.692,0,0,1-1.857.723.806.806,0,0,0-.441.967l-1.422.488a.784.784,0,0,0-.284,1.3,2.709,2.709,0,0,0-.616,1.457c-.233,1.2,1.251,2.019,1.251,2.019l2.344,2.455-.233,1.073-.494-.223-.66,1.021a20.088,20.088,0,0,0-2.052,1.822c-.032.034-.07.059-.1.095-.005.006-.008.013-.013.019l-.071.07c-.493.5-.9.969-1.135,1.264-.041.052-.071.11-.111.163l-8.391,9.505a2.776,2.776,0,0,0-.075,3.585l2.111,2.6c-.074.083-.147.161-.223.25a.243.243,0,0,0-.007.309l1.271,1.6a.346.346,0,0,0,.422.1c.092-.044.175-.087.262-.13l2.038,2.513a1.073,1.073,0,0,0,.028.831.206.206,0,0,0,.034.057,1.1,1.1,0,0,0,.608.539,1.167,1.167,0,0,0,.146.037,2.908,2.908,0,0,0,.42.151c-.311,2.092-.173,5.742,4.1,7.194l12.285,8.316c-.393.96-.782,1.911-1.15,2.819l.7.338-.483,1.151h0a7.063,7.063,0,0,0-3.489,1.785l7.1,7.487q.009,1,.02,2.034c.018,2.672.056,5.447.093,8.082l.962.017,0,1.22h0a6.989,6.989,0,0,0-1.1,3.747h10.6a.454.454,0,0,0,.408-.307.434.434,0,0,0-.13-.481,2.142,2.142,0,0,0-1.884-.315.9.9,0,0,1-.584-.08l-2.021-1.021v0l-2.375-1.473-.2-.123a.754.754,0,0,1-.352-.561l.032-.563.9.016,1.689-23.429a2.963,2.963,0,0,0-.872-2.3l-1.32-1.3,7.88-15.569a2.5,2.5,0,0,0-3.034-3.489l-14.081,4.8c-.029-.094-.06-.18-.088-.28-.055-.248-.139-.521-.182-.781l-.08-.406-.067-.492c-.048-.577-.1-1.238-.107-1.916.029-.69.03-1.4.12-2.155.062-.74.157-1.519.248-2.3.007-.067.015-.134.021-.2l.264.21a2.623,2.623,0,0,0,3.516-.23l2.5-2.581c.1.072.207.143.319.217a.238.238,0,0,0,.3-.033l1.4-1.446a.34.34,0,0,0,.039-.424c-.062-.093-.12-.178-.18-.266l6.893-7.192a7.95,7.95,0,0,0,1.077-.475,5.746,5.746,0,0,0,1.8-1.619l.214-.3,1.2-1.165A.379.379,0,0,0,888.829,829.141Zm-13.605,34.987-3.542-3.488,6.342-3.111C877.571,858.544,876.5,861.076,875.224,864.129Zm-8.176-30.718.152-.158.3.69a9.363,9.363,0,0,1,.378,1.139,14.83,14.83,0,0,1,.349,1.513c.027.127.045.26.063.395l-.344-.359a6.382,6.382,0,0,0-.9-3.224l0,0,0,0ZM855.073,844.2c.052.595.1,1.188.156,1.791.062.631.118,1.259.169,1.879l-.469-.787a.408.408,0,0,0-.492-.174c-.037.014-.069.028-.105.042l-.77-1.35Zm19.873,38.679a.9.9,0,0,1-.344-.479l-.647-2.17v0l-.561-2.737-.047-.228a.752.752,0,0,1,.166-.641l.691-1.351.73.35.131-.259c-.04,1.94-.043,4.608-.023,7.6C875.006,882.936,874.984,882.909,874.946,882.882Zm-7.377-38.059c-.189.76-.381,1.516-.549,2.3-.191.761-.3,1.558-.428,2.323-.093.776-.134,1.529-.16,2.286a18.883,18.883,0,0,1,.134-2.293c.015-.843.035-1.683.017-1.97l.086-1.1c.093-1.242-.028-2.438.077-3.616l1.106.878C867.76,844.026,867.663,844.423,867.569,844.823Z" transform="translate(-495.714 -405.361)" fill="#c6a7cf" opacity="0.5" style="mix-blend-mode: multiply;isolation: isolate"/>
    <g id="Grupo_71872" data-name="Grupo 71872" transform="translate(381.576 479.646)">
      <path id="Trazado_107095" data-name="Trazado 107095" d="M982.483,1115.111l-.028,10.834,4.412,2.766,1.377,0-.5-1.226-2.374-1.473-.2-.123a.752.752,0,0,1-.352-.561l.578-10.219Z" transform="translate(-981.351 -1115.111)" fill="#f6c2d7"/>
      <path id="Trazado_107096" data-name="Trazado 107096" d="M981.132,1164.634l.422-1.207,2.374,1.473v0l2.022,1.022a.9.9,0,0,0,.585.079,2.144,2.144,0,0,1,1.884.315.435.435,0,0,1,.13.482.453.453,0,0,1-.408.307l-10.6.015a7.062,7.062,0,0,1,1.1-3.762Z" transform="translate(-977.537 -1152.524)" fill="#fff"/>
    </g>
    <g id="Grupo_71873" data-name="Grupo 71873" transform="translate(374.509 460.248)">
      <path id="Trazado_107097" data-name="Trazado 107097" d="M965.638,1028.727l-4.032,9.608,1.022,5.107.945,1,.545-1.208-.561-2.737-.047-.228a.754.754,0,0,1,.166-.641l4.9-9.587Z" transform="translate(-958.117 -1028.727)" fill="#f6c2d7"/>
      <path id="Trazado_107098" data-name="Trazado 107098" d="M950.341,1074.2l1.167-.523.561,2.737h0l.647,2.171a.9.9,0,0,0,.344.479,2.143,2.143,0,0,1,1.066,1.585.434.434,0,0,1-.261.425.453.453,0,0,1-.5-.086l-7.293-7.691a7.063,7.063,0,0,1,3.489-1.785Z" transform="translate(-946.067 -1061.904)" fill="#fff"/>
    </g>
    <path id="Trazado_107099" data-name="Trazado 107099" d="M954.564,955.974,942.706,979.4l-3.711-1.781c1-2.468,2.134-5.224,3.192-7.766,1.615-3.9,3.062-7.321,3.61-8.546l-7.4,3.628-1.262.621-4.407-6.671,18.8-6.4a2.5,2.5,0,0,1,3.034,3.489Z" transform="translate(-561.216 -509.255)" fill="#312656"/>
    <path id="Trazado_107100" data-name="Trazado 107100" d="M976.954,404.8a47.309,47.309,0,0,0-32.6,81.6l-7.3,15.361,12.761-10.885A47.318,47.318,0,1,0,976.954,404.8Z" transform="translate(-558.813 -84.659)" fill="#f4e84d"/>
    <g id="Grupo_71879" data-name="Grupo 71879" transform="translate(248.776 583.87)">
      <g id="Grupo_71876" data-name="Grupo 71876" transform="translate(2.015 22.16)">
        <path id="Trazado_107107" data-name="Trazado 107107" d="M453.454,1703.879a.069.069,0,0,0,.04-.007l.066-.033a1.755,1.755,0,0,0,.88-1.313,1.323,1.323,0,0,0-.191-.891,3.132,3.132,0,0,1-.436-.786c-.051-.219-.018-.449-.063-.669l0-.01a3.092,3.092,0,0,0-1.216,1.927,1.9,1.9,0,0,0,.2,1.172A1.034,1.034,0,0,0,453.454,1703.879Z" transform="translate(-439.625 -1695.174)" fill="#312656"/>
        <path id="Trazado_107108" data-name="Trazado 107108" d="M462.756,1684.979a.137.137,0,0,1-.07-.037c-.029-.029-.074-.073-.1-.1a3.432,3.432,0,0,1-.827-2.976,2.589,2.589,0,0,1,.9-1.537,6.125,6.125,0,0,0,1.292-1.19c.229-.374.31-.822.527-1.2l.01-.017a6.044,6.044,0,0,1,1.073,4.323,3.726,3.726,0,0,1-1.1,2.05A2.024,2.024,0,0,1,462.756,1684.979Z" transform="translate(-446.752 -1677.918)" fill="#312656"/>
        <path id="Trazado_107109" data-name="Trazado 107109" d="M462.812,1775.781h.506a7.719,7.719,0,0,1,.1-1.564,1.955,1.955,0,0,1,1.062-1.464,14.989,14.989,0,0,1,1.545-.688c1-.353.883-1.856,1.884-2.591s1.081-1.254.953-1.553a.463.463,0,0,0-.558-.26,6.931,6.931,0,0,0-4.625,4.338A8.8,8.8,0,0,0,462.812,1775.781Z" transform="translate(-447.609 -1747.492)" fill="#312656"/>
        <path id="Trazado_107110" data-name="Trazado 107110" d="M406.427,1737.712s-3.475-2.827-6.891-2c-1.31.316-2.89,1.5-2.9,2.959s1.4,1.187,2.351.78c1.195-.513,2.163-1.42,3.432-1.767a6.755,6.755,0,0,1,1.863-.219C404.769,1737.468,406.041,1737.4,406.427,1737.712Z" transform="translate(-396.298 -1722.615)" fill="#312656"/>
        <path id="Trazado_107111" data-name="Trazado 107111" d="M395.127,1697.572c0,3.351,2.64,3.874,4.433,3.983a4.606,4.606,0,0,1,2.449.879l.334.241c.761.552,1.538,1.1,2.293,1.68a3.473,3.473,0,0,1,.271.222,2.747,2.747,0,0,1,.257.233l.238.252c.078.086.144.182.217.273l.106.138c.035.046.063.1.1.144l.19.292.168.3c.057.1.111.2.158.309a12.988,12.988,0,0,1,.894,2.569,26.3,26.3,0,0,1,.615,4.081c.019.249.037.491.051.728.084,1.422.077,2.612.06,3.443-.01.418-.024.745-.035.967h.355c.01-.224.022-.55.029-.96.013-.837.013-2.035-.081-3.47a29.777,29.777,0,0,0-.531-4.1q-.078-.378-.173-.761a13.21,13.21,0,0,0-.93-2.623,3.4,3.4,0,0,0-.165-.319l-.178-.314-.2-.3c-.035-.051-.067-.1-.1-.151l-.112-.144c-.078-.094-.147-.193-.23-.284l-.252-.266c-.082-.092-.184-.163-.274-.245s-.189-.16-.284-.228c-.764-.577-1.547-1.125-2.309-1.67s-1.51-1.087-2.208-1.642a20.754,20.754,0,0,1-1.916-1.7,12.522,12.522,0,0,1-1.46-1.763,15.54,15.54,0,0,1-1.75-4.381Z" transform="translate(-395.127 -1689.601)" fill="#312656"/>
        <path id="Trazado_107112" data-name="Trazado 107112" d="M430.288,1755.531s1.281-3.445-1.325-5.168a7.579,7.579,0,0,0-2.871-1.281S424.413,1754.338,430.288,1755.531Z" transform="translate(-418.966 -1733.101)" fill="#312656"/>
        <path id="Trazado_107113" data-name="Trazado 107113" d="M444.087,1773.991s.033.116.083.318c.024.1.057.222.087.365s.067.3.106.475.073.365.114.564.086.412.119.632.076.449.116.678.07.468.1.7.065.471.1.7.047.463.073.683c0,.024,0,.047.006.072.021.2.038.386.057.569.01.081.016.16.022.238.008.115.014.228.021.334.019.3.035.564.046.762h.52c-.022-.2-.052-.48-.087-.807-.019-.181-.037-.374-.071-.579s-.062-.42-.1-.643-.063-.453-.106-.685-.087-.469-.132-.705-.084-.473-.138-.7-.1-.458-.149-.678-.1-.43-.15-.629-.1-.39-.143-.564-.092-.331-.13-.472-.078-.263-.106-.365c-.06-.2-.1-.315-.1-.315Z" transform="translate(-433.093 -1752.38)" fill="#312656"/>
        <path id="Trazado_107114" data-name="Trazado 107114" d="M440.265,1791.466s-.507-2.33-2.394-2.866a.241.241,0,0,0-.3.292C437.723,1789.466,438.27,1790.6,440.265,1791.466Z" transform="translate(-428.035 -1763.738)" fill="#312656"/>
        <path id="Trazado_107115" data-name="Trazado 107115" d="M416.5,1695.475a.881.881,0,0,1,.856.585,29.29,29.29,0,0,1,1.263,7.6c.07,1.014.122,2.141.152,3.392.035,1.458.038,3.083,0,4.894v.242h.935c0-.182.008-.374.013-.572a58.843,58.843,0,0,0-.358-9.093c-.612-3.555.4-9.415.864-10.909a.221.221,0,0,0-.017-.176.229.229,0,0,0-.139-.108l-.006,0a.215.215,0,0,0-.262.155c-.266,1.084-1.447,6.068-1.212,8.042a21.885,21.885,0,0,0-.845-3.75,2.5,2.5,0,0,1-.052-1.438c2.121-8.163-8.46-9.249-8.46-9.249C408.9,1694.74,414.35,1695.535,416.5,1695.475Zm2.091,4.076c0,.008,0,.016,0,.024S418.6,1699.568,418.6,1699.552Z" transform="translate(-406.056 -1683.477)" fill="#312656"/>
        <path id="Trazado_107116" data-name="Trazado 107116" d="M455.273,1726.264a6.985,6.985,0,0,0-2.1,5.279,3.4,3.4,0,0,1,.745-1.493c1.613-2.2,3.811-1.764,6.151-1.251Z" transform="translate(-440.138 -1715.407)" fill="#312656"/>
        <path id="Trazado_107117" data-name="Trazado 107117" d="M457.348,1770.377a.213.213,0,0,0-.236-.24c-.743.088-2.83.6-3.5,3.634C453.609,1773.771,456.78,1774.621,457.348,1770.377Z" transform="translate(-440.476 -1749.427)" fill="#312656"/>
        <path id="Trazado_107118" data-name="Trazado 107118" d="M456.528,1754.269a3.752,3.752,0,0,0-2.3,3.18S456,1757.98,456.528,1754.269Z" transform="translate(-440.959 -1737.124)" fill="#312656"/>
        <path id="Trazado_107119" data-name="Trazado 107119" d="M475.448,1742.578s-6.035-1.271-6.89,3.946a5.3,5.3,0,0,0,4.24,0C474.866,1745.505,475.448,1742.578,475.448,1742.578Z" transform="translate(-452.068 -1727.952)" fill="#312656"/>
        <path id="Trazado_107120" data-name="Trazado 107120" d="M462.029,1755.829l-.057.029c-.039.019-.09.049-.157.087a6.079,6.079,0,0,0-.524.355c-.1.082-.216.167-.327.267s-.231.2-.347.319-.231.239-.35.363-.225.263-.338.4-.213.277-.313.417-.193.282-.282.42l-.243.406c-.075.13-.137.258-.2.373s-.119.222-.16.32l-.114.251-.1.219.442.173.084-.215.1-.247c.035-.1.084-.2.136-.315s.106-.24.172-.369l.211-.4.248-.418c.088-.14.185-.277.279-.418s.2-.271.3-.4.208-.256.318-.369.213-.227.317-.327.208-.191.3-.276a5.846,5.846,0,0,1,.485-.37c.061-.04.11-.072.142-.09l.052-.03Z" transform="translate(-444.282 -1738.333)" fill="#312656"/>
        <path id="Trazado_107121" data-name="Trazado 107121" d="M475.07,1719.584s-4.594-7.539-12.544-1.473C462.526,1718.111,468.062,1723.412,475.07,1719.584Z" transform="translate(-447.391 -1707.255)" fill="#312656"/>
        <path id="Trazado_107122" data-name="Trazado 107122" d="M455.006,1728.824h1.385a71.282,71.282,0,0,1,1.767-22.068l-.3-.212a95.956,95.956,0,0,0-2.2,18.99,10.988,10.988,0,0,1-.165,1.609,9.67,9.67,0,0,1-.26,1.109A3.655,3.655,0,0,1,455.006,1728.824Z" transform="translate(-441.56 -1700.116)" fill="#312656"/>
      </g>
      <path id="Trazado_107123" data-name="Trazado 107123" d="M432.018,1598.141a1.565,1.565,0,0,0,1.92-.334,2.761,2.761,0,0,1,3.686.586,1.409,1.409,0,0,1,.111.139l1.129,1.613c2.171,1.753,2.171-1.837,2.171-1.837,0-1.085-.835-2.755-3.005-4.091s-1.837-2.588-1.837-2.588c.2-2.556,2.194-2.23,3.044-1.973a1.721,1.721,0,0,0,1.12-.04c1.978-.761.974-3.367.619-4.15a3.9,3.9,0,0,1-.241-.707,4.51,4.51,0,0,1,2.206-5.153,2.482,2.482,0,0,1,2.619,0,4.509,4.509,0,0,1,2.2,5.151,3.893,3.893,0,0,1-.241.707c-.355.783-1.359,3.389.619,4.15a1.722,1.722,0,0,0,1.12.04c.85-.258,2.847-.584,3.044,1.973,0,0,.334,1.252-1.837,2.588s-3.005,3.005-3.005,4.091c0,0,0,3.59,2.17,1.837l1.129-1.613a1.444,1.444,0,0,1,.111-.139,2.76,2.76,0,0,1,3.686-.586,1.565,1.565,0,0,0,1.92.334c1.336-.5,4.091-.25,3.423,2.171a4.178,4.178,0,0,0-.751,2.421c.167,1.085-.417,3.59-2.588,2.839a2.187,2.187,0,0,0-2.922,1,4.755,4.755,0,0,1-3.172,1.5h-1.252s-1.169,0-1.169,1.669a1.57,1.57,0,0,0,1.67,1.67h1.67a1.984,1.984,0,0,1,2.171,2.421s-.167,1.336-2.755,2.338c-2.026.784-4.661,3.549-1.5,4.842.829.339,1.851,1.216,1.814,2.182-.051,1.318-1.43,1.65-2.481,1.825-1.5.25-2.17.918-2.254,1.753v1.586a2.146,2.146,0,1,1-4.257,0v-1.586c-.084-.835-.751-1.5-2.254-1.753-1.051-.175-2.431-.507-2.481-1.825-.037-.966.985-1.843,1.814-2.182,3.158-1.292.523-4.057-1.5-4.842-2.588-1-2.755-2.338-2.755-2.338a1.984,1.984,0,0,1,2.171-2.421h1.67a1.57,1.57,0,0,0,1.67-1.67c0-1.669-1.169-1.669-1.169-1.669h-1.252a4.755,4.755,0,0,1-3.172-1.5,2.187,2.187,0,0,0-2.922-1c-2.17.751-2.755-1.753-2.588-2.839a4.177,4.177,0,0,0-.751-2.421C427.927,1597.891,430.682,1597.64,432.018,1598.141Z" transform="translate(-418.985 -1579.235)" fill="#312656"/>
      <path id="Trazado_107124" data-name="Trazado 107124" d="M446.048,1801.319H422.574v3.147H424.3v27.595a3.337,3.337,0,0,0,3.337,3.338h13.35a3.337,3.337,0,0,0,3.337-3.338v-27.595h1.725Z" transform="translate(-414.396 -1751.448)" fill="#fff"/>
      <rect id="Rectángulo_9012" data-name="Rectángulo 9012" width="3.48" height="31.145" transform="translate(13.558 52.956)" fill="#e6e9eb"/>
      <g id="Grupo_71877" data-name="Grupo 71877" transform="translate(29.361 78.854)">
        <path id="Trazado_107125" data-name="Trazado 107125" d="M516.9,1935.713a1.793,1.793,0,0,1,2.823-1.2,2.245,2.245,0,0,1,2.036-1.3c.054,0,.108,0,.161.008a12.813,12.813,0,0,1,10.25,2.5Z" transform="translate(-516.903 -1930.385)" fill="#312656"/>
        <path id="Trazado_107126" data-name="Trazado 107126" d="M577.5,1942.566a1.125,1.125,0,0,1,1.771-.755,1.409,1.409,0,0,1,1.277-.816c.034,0,.068,0,.1.005a8.041,8.041,0,0,1,6.432,1.566Z" transform="translate(-563.894 -1937.238)" fill="#312656"/>
      </g>
      <path id="Trazado_107127" data-name="Trazado 107127" d="M526.572,1822.34c1.243.231,2.463.555,3.709.721-1.127-.615-2.333-1.228-3.526-1.78q.1-.543.231-1.1a39.016,39.016,0,0,0,5.191,1.768c-1.6-1.165-3.137-2.387-4.733-3.535.307-1.07.673-2.16,1.1-3.256a10.512,10.512,0,0,0,1.478.185c-.425-.261-.833-.523-1.241-.784q.179-.441.37-.882a17.885,17.885,0,0,0,2.964,1.143,13.314,13.314,0,0,1-2.3-2.606,39.113,39.113,0,0,1,3.159-5.427v-.143l.049.071.049-.071v.143c.57.816,1.107,1.656,1.609,2.514-.386.776-.78,1.556-1.2,2.314.526-.525,1.051-1.085,1.6-1.6.529.949,1.018,1.914,1.462,2.885a16.632,16.632,0,0,1-1.56,2.447c.7-.482,1.3-1.051,1.968-1.529q.19.443.369.887c-1.052,1.172-2.273,2.207-3.252,3.453a40.8,40.8,0,0,1,3.694-2.3,35.936,35.936,0,0,1,1.409,4.854c-1.041,1.074-2.192,2.037-3.207,3.137,1.184-.507,2.319-1.112,3.49-1.6.067.425.123.844.166,1.253a63.129,63.129,0,0,0-5.552,3.49l5.667-1.641a11.961,11.961,0,0,1-.443,3.665c-1.526.754-2.937,1.751-4.5,2.358,1.33-.216,2.6-.649,3.889-.973a4.365,4.365,0,0,1-.318.449,6.618,6.618,0,0,1-4.717,2.617v2.416h-1.356v-2.425a6.649,6.649,0,0,1-4.606-2.608,6.416,6.416,0,0,1-1.209-3.016,19.073,19.073,0,0,0,4.394,1.12c-1.563-.92-3.029-1.968-4.557-2.9A21.01,21.01,0,0,1,526.572,1822.34Z" transform="translate(-494.834 -1755.578)" fill="#312656"/>
      <g id="Grupo_71878" data-name="Grupo 71878" transform="translate(0 76.695)">
        <path id="Trazado_107128" data-name="Trazado 107128" d="M386.156,1928.259a2.52,2.52,0,0,1,3.966-1.69,3.154,3.154,0,0,1,2.86-1.827c.077,0,.152.006.227.011a5.136,5.136,0,0,1,10.139,1.032,5.136,5.136,0,0,1,4.263,2.474Z" transform="translate(-386.156 -1920.772)" fill="#312656"/>
        <path id="Trazado_107129" data-name="Trazado 107129" d="M471.306,1937.888a1.581,1.581,0,0,1,2.489-1.061,1.979,1.979,0,0,1,1.795-1.147c.048,0,.1,0,.142.007a11.3,11.3,0,0,1,9.038,2.2Z" transform="translate(-452.185 -1930.401)" fill="#312656"/>
      </g>
    </g>
    <path id="Trazado_107130" data-name="Trazado 107130" d="M955.377,978.647l-2.032,2.663-4.751,8.935c1.615-3.9,3.062-7.321,3.61-8.546l-7.4,3.628-3.814-4.946,4.871,2.32,6.783-2.375Z" transform="translate(-567.625 -529.645)" fill="#261d42"/>
    <path id="Trazado_107131" data-name="Trazado 107131" d="M917.543,993.8l-1.689,23.429H911.6c-.037-2.635-.074-5.484-.093-8.156-.065-6.161-.074-11.747.093-13.723l-15.078-10.207c-6.143-2.088-3.739-8.731-3.739-8.731l3.341.38,6.319.7L916.67,991.5A2.963,2.963,0,0,1,917.543,993.8Z" transform="translate(-529.883 -527.915)" fill="#312656"/>
    <path id="Trazado_107132" data-name="Trazado 107132" d="M915.548,993.378l-2.672,2.1-1.364,13.6c-.065-6.161-.074-11.747.093-13.723l-15.078-10.207c-6.143-2.088-3.739-8.731-3.739-8.731l3.341.38a5.221,5.221,0,0,0,2.023,6.727l14.5,10.782Z" transform="translate(-529.883 -527.915)" fill="#261d42"/>
    <g id="Grupo_71880" data-name="Grupo 71880" transform="translate(364.423 425.448)">
      <path id="Trazado_107133" data-name="Trazado 107133" d="M915.016,883.419l-8.348-8.718a3.229,3.229,0,1,0-4.238,4.856l10.662,8.461a2.623,2.623,0,0,0,3.515-.23l3.057-3.157-2.53-2.788Z" transform="translate(-901.152 -873.756)" fill="#fff"/>
    </g>
    <path id="Trazado_107134" data-name="Trazado 107134" d="M981.362,879.2l-.313.263.015.017-8.739,6.584,2.53,2.788,8.528-8.9Z" transform="translate(-591.919 -452.529)" fill="#f6c2d7"/>
    <path id="Trazado_107135" data-name="Trazado 107135" d="M919.039,847.474l-.813,3.746,4.244,1.568,1.163-5.5-.947-.732-1.617-1.48-1.927,1.524Z" transform="translate(-549.969 -426.07)" fill="#f6c2d7"/>
    <path id="Trazado_107136" data-name="Trazado 107136" d="M940.373,876.122l.9,1.4-.533.556Z" transform="translate(-567.143 -450.143)" fill="#d45c78"/>
    <path id="Trazado_107137" data-name="Trazado 107137" d="M927.286,828.334a3.619,3.619,0,0,1,1.4,2.311l.068.2,1.048,1.143a.244.244,0,0,1-.01.34l-.4.385.1,2.1-1.754.069L924.8,832.2l-1.138-2.357.22-1.231,1.89-.649Z" transform="translate(-554.182 -412.796)" fill="#f6c2d7"/>
    <path id="Trazado_107138" data-name="Trazado 107138" d="M913.914,825.319a.734.734,0,0,1-.653.479,2.065,2.065,0,0,1-1.408-.45l-.508-.407c-1.357-.823-.4-2.528-.4-2.528.3-.876-.935-1.1-.935-1.1l2.332-.807a2.506,2.506,0,0,0-1.23-2.364,1.631,1.631,0,0,0-2.08.2,3.69,3.69,0,0,1-1.857.723.807.807,0,0,0-.441.968l-1.422.488a.784.784,0,0,0-.284,1.3,2.708,2.708,0,0,0-.617,1.457c-.233,1.2,1.252,2.019,1.252,2.019l2.348,2.459,1.453-2.569.706-.149.306,1.141-.023.048a.929.929,0,0,0,.28,1.153,1.769,1.769,0,0,0,1.518.467l.225-.018a.338.338,0,0,1,.346.227,1.288,1.288,0,0,0,2.435-.836l-.317-.925-.2-.576-.3-.836C914.178,825,913.995,825.1,913.914,825.319Z" transform="translate(-539.241 -404.971)" fill="#261d42"/>
    <path id="Trazado_107139" data-name="Trazado 107139" d="M914.981,865.67l-.666,1.03,6.224,3.271-.373-1.954Z" transform="translate(-546.936 -442.038)" fill="#fff"/>
    <path id="Trazado_107140" data-name="Trazado 107140" d="M899.391,879.9c-.651,1.735-.3,3.478-.442,5.325l-.086,1.1c.017.287,0,1.127-.017,1.97a11.551,11.551,0,0,0-.086,2.684c0,.031.034.241.063.5a5.2,5.2,0,0,0,.407,1.454,1.049,1.049,0,0,1-.43,1.459,1.192,1.192,0,0,1-.622.175,7.431,7.431,0,0,1-2.348-.324c-1.448-.364-3.98-1.044-4.754-.416a3.39,3.39,0,0,1-.737.436,2.944,2.944,0,0,1-1.537.209,3.018,3.018,0,0,1-.952-.249,1.211,1.211,0,0,1-.146-.037,1.1,1.1,0,0,1-.608-.539.2.2,0,0,1-.034-.057,1.062,1.062,0,0,1,.086-1.052,4.208,4.208,0,0,0,.728-2.607c.006-.1.008-.2.008-.3.006-.218,0-.436,0-.665-.006-.324-.046.249-.06-.1-.063-1.265-.178-2.632-.312-4-.078-.886-.152-1.763-.229-2.629-.043-.6-.08-1.2-.1-1.766,0-.1-.006-.192-.008-.287v-.011a12.43,12.43,0,0,1,.668-4.456c.078-.212.163-.433.255-.648a11.648,11.648,0,0,1,1.643-2.8c.232-.3.642-.76,1.135-1.264a20.891,20.891,0,0,1,2.254-2.019c1.076-.8,1.927-.037,3.088.467a4.987,4.987,0,0,1,2.263,1.855,2.974,2.974,0,0,0,.459.579c.126.118.244.235.347.344l.043.046C900.859,874.74,900.145,877.883,899.391,879.9Z" transform="translate(-525.724 -444.325)" fill="#fff"/>
    <path id="Trazado_107141" data-name="Trazado 107141" d="M940.276,882.008l.551.924a10.21,10.21,0,0,1,.55,1.141,15.482,15.482,0,0,1,.572,1.544c.1.286.162.59.249.9l.126.479c.055.235.059.346.092.528a12.682,12.682,0,0,1,.236,2.147c.006.387.042.8.019,1.189s-.042.783-.063,1.18c-.048.792-.15,1.579-.231,2.364s-.186,1.555-.248,2.3c-.09.752-.092,1.465-.12,2.155.005.678.06,1.339.107,1.916q.034.249.067.492l.08.405c.043.26.126.533.182.781a11.193,11.193,0,0,0,.453,1.3,7.916,7.916,0,0,0,.468.908,4.985,4.985,0,0,0,.351.531l.127.182-.446,2.476-2.539-.509-.159-.3a8.253,8.253,0,0,1-.415-.856,11.425,11.425,0,0,1-.488-1.361,14.466,14.466,0,0,1-.371-1.781c-.033-.33-.086-.653-.1-1.023q-.015-.271-.032-.551,0-.245,0-.5c.025-.762.067-1.521.161-2.3.127-.765.237-1.563.428-2.323.167-.779.359-1.536.549-2.3s.372-1.5.51-2.235l.2-1.089c.068-.361.075-.693.117-1.036a11.524,11.524,0,0,0,.037-2.062c-.007-.15,0-.374-.019-.457q-.031-.236-.061-.465c-.045-.3-.068-.6-.126-.884a14.88,14.88,0,0,0-.35-1.513,9.354,9.354,0,0,0-.378-1.139l-.43-.986Z" transform="translate(-566.299 -454.707)" fill="#d45c78"/>
    <path id="Trazado_107142" data-name="Trazado 107142" d="M896.183,890.588l-2.549,2.233c-1.752,1.537-3.474,2.934-4.122,5.174a22.5,22.5,0,0,1-.8,4.858l-.08.287c.006-.218,0-.436,0-.665-.006-.324-.046.249-.06-.1-.063-1.265-.178-2.632-.312-4-.077-.886-.152-1.763-.229-2.629-.043-.6-.08-1.2-.1-1.766l9.193-7.914S898.358,889.01,896.183,890.588Z" transform="translate(-526.476 -457.849)" fill="#f8e9f8"/>
    <path id="Trazado_107143" data-name="Trazado 107143" d="M873.3,875.529a3.193,3.193,0,0,0-4.7.216l-9.543,10.811a2.776,2.776,0,0,0-.075,3.585l2.907,3.585,3.188-2.154-1.413-2.479,9.557-8.854A3.2,3.2,0,0,0,873.3,875.529Z" transform="translate(-503.549 -448.965)" fill="#fff"/>
    <path id="Trazado_107144" data-name="Trazado 107144" d="M887.248,962.759l-.375-.585c-.125-.7-.559-.723-.559-.723a7.8,7.8,0,0,1-.771-.425,1.373,1.373,0,0,0-.857-.375l-1.457-.247-5.975-10.23-3.188,2.154,7.682,9.476.565,1.115a4.58,4.58,0,0,0,.9,1.39c.4.319.847.616,1.188.182a.512.512,0,0,0,.7-.314c.633.168.858-.568.858-.568a.516.516,0,0,0,.655-.474.891.891,0,0,0,.541.129C887.5,962.959,887.248,962.759,887.248,962.759Z" transform="translate(-515.726 -507.567)" fill="#f6c2d7"/>
    <path id="Trazado_107145" data-name="Trazado 107145" d="M874.318,947.138a.5.5,0,0,0,.061-.594l-.891-1.494a.409.409,0,0,0-.493-.174,7.8,7.8,0,0,0-3.668,2.593.242.242,0,0,0-.007.309l1.271,1.6a.346.346,0,0,0,.423.1A9.628,9.628,0,0,0,874.318,947.138Z" transform="translate(-512.004 -503.437)" fill="#fff"/>
    <path id="Trazado_107146" data-name="Trazado 107146" d="M971.032,903.963a.492.492,0,0,0-.587.018l-1.339,1.061a.4.4,0,0,0-.106.5,7.662,7.662,0,0,0,3,3.235.238.238,0,0,0,.3-.033l1.4-1.445a.339.339,0,0,0,.039-.424A9.461,9.461,0,0,0,971.032,903.963Z" transform="translate(-589.305 -471.663)" fill="#fff"/>
    <g id="Grupo_71881" data-name="Grupo 71881" transform="translate(387.878 421.407)">
      <path id="Trazado_107147" data-name="Trazado 107147" d="M1006.63,864.14l1.774-1.841c.242-.12,1.017-.361,1.541-.661a5.741,5.741,0,0,0,1.8-1.62l.214-.3,1.2-1.165a.379.379,0,0,0-.058-.533.373.373,0,0,0-.306-.073l.15-.165a.444.444,0,0,0-.494-.713l.173-.19a.432.432,0,0,0-.639-.581l-.246.27,0-.006.072-.079a.432.432,0,0,0-.638-.582l-2.669,2.374a5,5,0,0,0-1.351,2.986l-1.561,1.422Z" transform="translate(-1005.598 -855.764)" fill="#f6c2d7"/>
      <path id="Trazado_107148" data-name="Trazado 107148" d="M1011.6,863.624a2.348,2.348,0,0,1,.434-1.612,3.761,3.761,0,0,0,.458-2.021s-.145-.351.222-.383c0,0,1.045.159.436,2.632,0,0,.849,1.641-.311,2.654A1.227,1.227,0,0,1,1011.6,863.624Z" transform="translate(-1010.243 -858.745)" fill="#f6c2d7"/>
    </g>
    <path id="Trazado_107149" data-name="Trazado 107149" d="M909.607,1057.134h-6.667l15.118,14.266Z" transform="translate(-538.115 -590.507)" fill="#c6a7cf"/>
    <path id="Trazado_107150" data-name="Trazado 107150" d="M930.4,836.4l.758.827a1.612,1.612,0,0,0-.187-1.2c-.3-.612-.748-1.006-1.008-.88l0,0a5.572,5.572,0,0,1,.295.791l-.267.122c-.267-.395-.582-.62-.784-.524s-.228.481-.092.938l-3.336,1.577.194.409,3.307-1.563c.29.6.724.982.978.862s.232-.7-.045-1.3l.183-.083Z" transform="translate(-555.822 -418.357)" fill="#fff" opacity="0.7"/>
    <path id="Trazado_107151" data-name="Trazado 107151" d="M922.611,844.395a.878.878,0,0,0-1.108.438,1.017,1.017,0,0,0,.438,1.347s1,.775,1.726.524c0,0,.526-.095.186-.708l-.573-1.036a1.19,1.19,0,0,0-.394-.423A1.507,1.507,0,0,0,922.611,844.395Z" transform="translate(-552.427 -425.495)" fill="#f6c2d7"/>
    <path id="Trazado_107152" data-name="Trazado 107152" d="M39.223,15.035a1.614,1.614,0,0,0-.629-1.369,8.253,8.253,0,0,0-2.265-1.007,16.058,16.058,0,0,1-2.59-1.043,4.232,4.232,0,0,1-2.6-3.786,3.687,3.687,0,0,1,.7-2.207,4.549,4.549,0,0,1,2-1.515,7.539,7.539,0,0,1,2.931-.545,6.862,6.862,0,0,1,2.915.593,4.642,4.642,0,0,1,1.987,1.673,4.377,4.377,0,0,1,.708,2.454H39.234a2.059,2.059,0,0,0-.661-1.631,2.716,2.716,0,0,0-1.856-.582,2.9,2.9,0,0,0-1.793.488,1.538,1.538,0,0,0-.64,1.285,1.473,1.473,0,0,0,.75,1.248,8.471,8.471,0,0,0,2.207.944,9.538,9.538,0,0,1,3.912,2,3.989,3.989,0,0,1,1.227,2.978,3.675,3.675,0,0,1-1.5,3.109,6.565,6.565,0,0,1-4.037,1.127,7.8,7.8,0,0,1-3.209-.645,5.078,5.078,0,0,1-2.207-1.767,4.525,4.525,0,0,1-.76-2.6h3.157q0,2.527,3.02,2.527a2.938,2.938,0,0,0,1.751-.456A1.484,1.484,0,0,0,39.223,15.035Zm8.285,4.006H44.467V7.694h3.041ZM44.289,4.758a1.492,1.492,0,0,1,.456-1.122,1.966,1.966,0,0,1,2.48,0,1.484,1.484,0,0,1,.461,1.122A1.488,1.488,0,0,1,47.22,5.89a1.944,1.944,0,0,1-2.464,0A1.488,1.488,0,0,1,44.289,4.758ZM17.867,33.607a6.805,6.805,0,0,1-1.19,4.2,3.816,3.816,0,0,1-3.214,1.578,3.535,3.535,0,0,1-2.779-1.2v5.348H7.653V27.829h2.81l.1,1.112a3.562,3.562,0,0,1,2.873-1.321A3.842,3.842,0,0,1,16.7,29.171a6.989,6.989,0,0,1,1.164,4.279Zm-3.031-.231a4.49,4.49,0,0,0-.561-2.451,1.826,1.826,0,0,0-1.631-.863,1.984,1.984,0,0,0-1.961,1.094v4.66a2.017,2.017,0,0,0,1.982,1.126Q14.836,36.942,14.836,33.376Zm11.7,4.646a3.8,3.8,0,0,1-3.1,1.363,3.584,3.584,0,0,1-2.784-1.049,4.477,4.477,0,0,1-.981-3.073V27.829H22.7v7.339q0,1.774,1.615,1.774a2.188,2.188,0,0,0,2.118-1.071V27.829h3.041V39.176H26.624Zm10.445,1.363a5.57,5.57,0,0,1-4.064-1.531,5.442,5.442,0,0,1-1.568-4.079v-.294a6.854,6.854,0,0,1,.661-3.057,4.849,4.849,0,0,1,1.872-2.076,5.254,5.254,0,0,1,2.763-.729,4.709,4.709,0,0,1,3.665,1.468,5.966,5.966,0,0,1,1.337,4.163v1.237H34.426a2.815,2.815,0,0,0,.886,1.783,2.679,2.679,0,0,0,1.872.671,3.271,3.271,0,0,0,2.737-1.269L41.41,37.34a4.55,4.55,0,0,1-1.846,1.5A6.055,6.055,0,0,1,36.985,39.385Zm-.346-9.323a1.894,1.894,0,0,0-1.463.611,3.164,3.164,0,0,0-.718,1.749h4.216V32.18a2.256,2.256,0,0,0-.545-1.564A1.954,1.954,0,0,0,36.638,30.063ZM42.9,33.418a6.838,6.838,0,0,1,1.19-4.226,3.862,3.862,0,0,1,3.256-1.573,3.475,3.475,0,0,1,2.737,1.237V23.068h3.041V39.176H50.387L50.24,37.97a3.566,3.566,0,0,1-2.915,1.416,3.852,3.852,0,0,1-3.214-1.578A7.058,7.058,0,0,1,42.9,33.418Zm3.031.216a4.5,4.5,0,0,0,.556,2.455,1.809,1.809,0,0,0,1.615.853,2.027,2.027,0,0,0,1.982-1.19v-4.5a2,2,0,0,0-1.961-1.19Q45.93,30.063,45.93,33.634ZM55,33.4a6.729,6.729,0,0,1,.65-3.01,4.76,4.76,0,0,1,1.872-2.045,5.461,5.461,0,0,1,2.837-.724,5.167,5.167,0,0,1,3.749,1.405,5.64,5.64,0,0,1,1.62,3.817l.021.776a5.931,5.931,0,0,1-1.458,4.189,5.65,5.65,0,0,1-7.828.005A6.035,6.035,0,0,1,55,33.534Zm3.031.215a4.241,4.241,0,0,0,.608,2.473,2.185,2.185,0,0,0,3.461.01,4.641,4.641,0,0,0,.619-2.7,4.2,4.2,0,0,0-.619-2.458,2.011,2.011,0,0,0-1.741-.872,1.978,1.978,0,0,0-1.72.866A4.719,4.719,0,0,0,58.032,33.613Zm12.668.875H68.183l-.357-10.581h3.23Zm-1.258,1.657a1.7,1.7,0,0,1,1.232.451,1.646,1.646,0,0,1,0,2.3,1.895,1.895,0,0,1-2.454,0,1.522,1.522,0,0,1-.467-1.143A1.539,1.539,0,0,1,68.22,36.6,1.673,1.673,0,0,1,69.441,36.145Z" transform="translate(377.316 337.701)" fill="#00357b"/>
    <path id="Trazado_107153" data-name="Trazado 107153" d="M24.986,9.7a.886.886,0,0,0-.345-.751A4.531,4.531,0,0,0,23.4,8.392a8.816,8.816,0,0,1-1.422-.573A2.324,2.324,0,0,1,20.547,5.74a2.024,2.024,0,0,1,.383-1.212,2.5,2.5,0,0,1,1.1-.832,4.139,4.139,0,0,1,1.609-.3,3.767,3.767,0,0,1,1.6.325,2.549,2.549,0,0,1,1.091.918,2.4,2.4,0,0,1,.389,1.347H24.992a1.13,1.13,0,0,0-.363-.9,1.491,1.491,0,0,0-1.019-.32,1.593,1.593,0,0,0-.985.268.844.844,0,0,0-.351.705.809.809,0,0,0,.412.685,4.651,4.651,0,0,0,1.212.518,5.237,5.237,0,0,1,2.148,1.1,2.19,2.19,0,0,1,.674,1.635,2.017,2.017,0,0,1-.823,1.707,3.6,3.6,0,0,1-2.217.619,4.28,4.28,0,0,1-1.762-.354,2.788,2.788,0,0,1-1.212-.97,2.484,2.484,0,0,1-.417-1.428h1.733q0,1.388,1.658,1.388a1.613,1.613,0,0,0,.962-.25A.815.815,0,0,0,24.986,9.7Zm4.548,2.2h-1.67V5.665h1.67ZM27.767,4.053a.819.819,0,0,1,.25-.616,1.079,1.079,0,0,1,1.362,0,.815.815,0,0,1,.253.616.817.817,0,0,1-.256.622,1.067,1.067,0,0,1-1.353,0A.817.817,0,0,1,27.767,4.053ZM13.261,19.892a3.736,3.736,0,0,1-.653,2.306,2.1,2.1,0,0,1-1.765.867,1.941,1.941,0,0,1-1.526-.656v2.936H7.653V16.72H9.2l.058.61a1.956,1.956,0,0,1,1.578-.725,2.109,2.109,0,0,1,1.791.852,3.837,3.837,0,0,1,.639,2.349ZM11.6,19.765a2.465,2.465,0,0,0-.308-1.346,1,1,0,0,0-.9-.474,1.089,1.089,0,0,0-1.077.6v2.558a1.108,1.108,0,0,0,1.088.618Q11.6,21.723,11.6,19.765Zm6.425,2.551a2.087,2.087,0,0,1-1.7.748,1.968,1.968,0,0,1-1.529-.576,2.458,2.458,0,0,1-.538-1.687V16.72h1.664v4.029q0,.974.887.974a1.2,1.2,0,0,0,1.163-.588V16.72h1.67v6.23H18.068Zm5.735.748a3.058,3.058,0,0,1-2.231-.841,2.988,2.988,0,0,1-.861-2.24v-.161a3.763,3.763,0,0,1,.363-1.678A2.662,2.662,0,0,1,22.055,17a2.885,2.885,0,0,1,1.517-.4,2.585,2.585,0,0,1,2.012.806,3.275,3.275,0,0,1,.734,2.286v.679H22.352a1.546,1.546,0,0,0,.487.979,1.471,1.471,0,0,0,1.028.368,1.8,1.8,0,0,0,1.5-.7l.818.915a2.5,2.5,0,0,1-1.013.826A3.325,3.325,0,0,1,23.757,23.065Zm-.19-5.118a1.04,1.04,0,0,0-.8.335,1.737,1.737,0,0,0-.394.96h2.315v-.133a1.239,1.239,0,0,0-.3-.859A1.073,1.073,0,0,0,23.567,17.946ZM27,19.789a3.754,3.754,0,0,1,.653-2.32,2.12,2.12,0,0,1,1.788-.864,1.908,1.908,0,0,1,1.5.679V14.106h1.67V22.95h-1.5l-.081-.662a1.958,1.958,0,0,1-1.6.777,2.115,2.115,0,0,1-1.765-.867A3.875,3.875,0,0,1,27,19.789Zm1.664.118a2.473,2.473,0,0,0,.305,1.348.993.993,0,0,0,.887.469,1.113,1.113,0,0,0,1.088-.654V18.6a1.1,1.1,0,0,0-1.077-.654Q28.668,17.946,28.668,19.907Zm4.98-.13a3.7,3.7,0,0,1,.357-1.652A2.613,2.613,0,0,1,35.033,17a3,3,0,0,1,1.557-.4,2.837,2.837,0,0,1,2.058.772,3.1,3.1,0,0,1,.89,2.1l.012.426a3.256,3.256,0,0,1-.8,2.3,3.1,3.1,0,0,1-4.3,0,3.313,3.313,0,0,1-.8-2.349Zm1.664.118a2.329,2.329,0,0,0,.334,1.358,1.2,1.2,0,0,0,1.9.006,2.548,2.548,0,0,0,.34-1.485,2.305,2.305,0,0,0-.34-1.349,1.1,1.1,0,0,0-.956-.479,1.086,1.086,0,0,0-.944.476A2.591,2.591,0,0,0,35.312,19.9Zm6.955.481H40.886l-.2-5.809h1.773Zm-.691.91a.932.932,0,0,1,.677.248.9.9,0,0,1,0,1.261,1.04,1.04,0,0,1-1.347,0,.835.835,0,0,1-.256-.628.845.845,0,0,1,.256-.63A.919.919,0,0,1,41.576,21.286Z" transform="translate(543.369 495.372)" fill="#fff"/>
  </g>
</svg>
