<svg xmlns="http://www.w3.org/2000/svg" width="357.771" height="387.358" viewBox="0 0 357.771 387.358">
  <g id="Grupo_72724" data-name="Grupo 72724" transform="translate(-81.857 4.835)">
    <g id="Grupo_72674" data-name="Grupo 72674">
      <g id="Grupo_72673" data-name="Grupo 72673">
        <g id="Grupo_72660" data-name="Grupo 72660" transform="translate(-38.24 -43.186)">
          <g id="Grupo_72654" data-name="Grupo 72654" transform="translate(182.034 38.351)">
            <path id="Trazado_108124" data-name="Trazado 108124" d="M432.446,372.454,182.034,227.883l0-189.532L432.448,182.922Z" transform="translate(-182.034 -38.351)" fill="#e3e3e3"/>
            <g id="Grupo_72653" data-name="Grupo 72653" transform="translate(4.343 28.331)">
              <g id="Grupo_72644" data-name="Grupo 72644" transform="translate(0 2.387)">
                <g id="Grupo_72634" data-name="Grupo 72634" transform="translate(0 118.267)">
                  <rect id="Rectángulo_9060" data-name="Rectángulo 9060" width="0.812" height="278.65" transform="translate(0 0.704) rotate(-60.001)" fill="#959ab2"/>
                </g>
                <g id="Grupo_72635" data-name="Grupo 72635" transform="translate(0.001 83.637)">
                  <rect id="Rectángulo_9061" data-name="Rectángulo 9061" width="0.812" height="278.649" transform="matrix(0.5, -0.866, 0.866, 0.5, 0, 0.703)" fill="#959ab2"/>
                </g>
                <g id="Grupo_72636" data-name="Grupo 72636" transform="translate(0.001 49.006)">
                  <rect id="Rectángulo_9062" data-name="Rectángulo 9062" width="0.812" height="278.651" transform="translate(0 0.703) rotate(-60.001)" fill="#959ab2"/>
                </g>
                <g id="Grupo_72637" data-name="Grupo 72637" transform="translate(0.002 14.375)">
                  <rect id="Rectángulo_9063" data-name="Rectángulo 9063" width="0.812" height="278.65" transform="translate(0 0.703) rotate(-60.001)" fill="#959ab2"/>
                </g>
                <g id="Grupo_72638" data-name="Grupo 72638" transform="translate(206.643 99.516)">
                  <rect id="Rectángulo_9064" data-name="Rectángulo 9064" width="0.813" height="173.153" fill="#959ab2"/>
                </g>
                <g id="Grupo_72639" data-name="Grupo 72639" transform="translate(172.168 79.613)">
                  <rect id="Rectángulo_9065" data-name="Rectángulo 9065" width="0.813" height="173.153" fill="#959ab2"/>
                </g>
                <g id="Grupo_72640" data-name="Grupo 72640" transform="translate(137.694 59.709)">
                  <rect id="Rectángulo_9066" data-name="Rectángulo 9066" width="0.813" height="173.153" fill="#959ab2"/>
                </g>
                <g id="Grupo_72641" data-name="Grupo 72641" transform="translate(103.22 39.806)">
                  <rect id="Rectángulo_9067" data-name="Rectángulo 9067" width="0.813" height="173.153" fill="#959ab2"/>
                </g>
                <g id="Grupo_72642" data-name="Grupo 72642" transform="translate(68.746 19.903)">
                  <rect id="Rectángulo_9068" data-name="Rectángulo 9068" width="0.812" height="173.153" fill="#959ab2"/>
                </g>
                <g id="Grupo_72643" data-name="Grupo 72643" transform="translate(34.271)">
                  <rect id="Rectángulo_9069" data-name="Rectángulo 9069" width="0.813" height="173.152" fill="#959ab2"/>
                </g>
              </g>
              <g id="Grupo_72652" data-name="Grupo 72652" transform="translate(6.991)">
                <g id="Grupo_72645" data-name="Grupo 72645">
                  <path id="Trazado_108125" data-name="Trazado 108125" d="M191.285,62.731a4.044,4.044,0,0,1-.833-2.246c0-1.164.747-1.532,2.355-.6,1.463.846,1.792,1.635,1.792,1.968a.742.742,0,0,1-.243.541,4.706,4.706,0,0,0-1.421-1.269c-.689-.4-1.133-.356-1.133.16a2.467,2.467,0,0,0,.573,1.365l1.335,2.019a4.716,4.716,0,0,1,.86,2.576c0,1.482-.918,1.784-2.382.94-1.018-.589-1.751-1.295-1.751-1.844a1.042,1.042,0,0,1,.214-.658,4.805,4.805,0,0,0,1.421,1.219c.746.432,1.176.33,1.176-.334a2.964,2.964,0,0,0-.573-1.647Z" transform="translate(-190.438 -59.358)" fill="#1391ee"/>
                  <path id="Trazado_108126" data-name="Trazado 108126" d="M197.419,70.749a4.275,4.275,0,0,1-2.151-.642,3.928,3.928,0,0,1-2.139-4V60.65c0-.267-.015-.275,1.191.421v5.844c0,1.08.171,1.579.976,2.043a1.462,1.462,0,0,0,.962.239V62.456c0-.267.013-.258,1.161.4Z" transform="translate(-189.5 -58.965)" fill="#1391ee"/>
                  <path id="Trazado_108127" data-name="Trazado 108127" d="M197.139,63.021a6.083,6.083,0,0,1,2.282.751,3.4,3.4,0,0,1,2.008,3.391v5.991c0,.267-.028.25-1.191-.419v-5.86c0-1.065-.143-1.548-.86-1.962a2.2,2.2,0,0,0-1.076-.321v6.757c0,.267-.03.251-1.163-.4Z" transform="translate(-188.102 -58.08)" fill="#1391ee"/>
                </g>
                <g id="Grupo_72646" data-name="Grupo 72646" transform="translate(32.867 18.68)">
                  <path id="Trazado_108128" data-name="Trazado 108128" d="M214.808,73.208a4.959,4.959,0,0,1,2.167.7,3.329,3.329,0,0,1,1.306,1.27,3.406,3.406,0,0,1,1.752.494c1.435.828,1.621,1.786,1.621,3.283v5.876c0,.267-.043.241-1.163-.4V78.27c0-.815-.115-1.214-.7-1.554a1.535,1.535,0,0,0-.976-.247v6.724c0,.267,0,.267-1.148-.4V76.605c0-.817-.043-1.157-.717-1.547a1.707,1.707,0,0,0-.976-.263v6.758c0,.266-.043.241-1.163-.4Z" transform="translate(-214.808 -73.208)" fill="#322a36"/>
                  <path id="Trazado_108129" data-name="Trazado 108129" d="M223.045,77.285c1.492.862,2.224,2.183,2.224,5.578,0,3.08-.832,3.881-2.368,3-1.463-.846-2.252-1.884-2.252-5.628C220.648,77.184,221.538,76.415,223.045,77.285Zm-.115,7.457c.631.365,1.075-.011,1.075-2.607,0-2.664-.329-3.354-1-3.744-.646-.372-1.091,0-1.091,2.6C221.91,83.738,222.269,84.361,222.93,84.741Z" transform="translate(-212.772 -71.904)" fill="#322a36"/>
                  <path id="Trazado_108130" data-name="Trazado 108130" d="M224.477,78.8a6.124,6.124,0,0,1,2.282.751,3.4,3.4,0,0,1,2.009,3.392v5.991c0,.267-.03.251-1.192-.421v-5.86c0-1.064-.143-1.546-.859-1.96a2.183,2.183,0,0,0-1.078-.322V87.13c0,.267-.028.25-1.163-.4Z" transform="translate(-211.437 -71.258)" fill="#322a36"/>
                </g>
                <g id="Grupo_72647" data-name="Grupo 72647" transform="translate(72.318 38.819)">
                  <path id="Trazado_108131" data-name="Trazado 108131" d="M244.06,91.545c0-1.033.013-1.142.243-1.009l.732.422v-2.53c0-.465.216-.341,1.148.2v3l1.493.86c0,1.048-.015,1.14-.244,1.009l-1.249-.722V97.63c0,.715.015,1.339.531,1.637a1.6,1.6,0,0,0,.832.231,3.346,3.346,0,0,1,.086.716c0,.6-.674.343-1.234.02-1.219-.705-1.363-1.769-1.363-3.266V92.106Z" transform="translate(-244.06 -88.141)" fill="#322a36"/>
                  <path id="Trazado_108132" data-name="Trazado 108132" d="M252.137,102.339a4.31,4.31,0,0,1-2.152-.643,3.927,3.927,0,0,1-2.139-4V92.239c0-.267-.015-.275,1.191.421V98.5c0,1.082.173,1.581.975,2.045a1.485,1.485,0,0,0,.962.24V94.045c0-.266.015-.258,1.164.4Z" transform="translate(-242.74 -86.771)" fill="#322a36"/>
                  <path id="Trazado_108133" data-name="Trazado 108133" d="M255.872,103.056a4.8,4.8,0,0,1,.1.974c0,.517-.9.394-1.981-.227-1.334-.771-2.3-1.96-2.3-5.222,0-4.161,1.277-4.023,2.54-3.292A3.93,3.93,0,0,1,256.059,99a10.989,10.989,0,0,1-.156,2.073,21.418,21.418,0,0,1-3.014-1.474c.057,1.831.473,2.538,1.349,3.044A2.754,2.754,0,0,0,255.872,103.056Zm-2.985-4.536a9.5,9.5,0,0,0,1.98.96,4.981,4.981,0,0,0,.073-.956c-.015-1.225-.2-1.764-.832-2.128C253.506,96.048,252.989,96.315,252.888,98.52Z" transform="translate(-241.397 -85.788)" fill="#322a36"/>
                </g>
                <g id="Grupo_72648" data-name="Grupo 72648" transform="translate(104.87 59.977)">
                  <path id="Trazado_108134" data-name="Trazado 108134" d="M274.376,107.586c.043-.275.085-.249,1.148.363,0,0-1.492,7.511-1.55,7.477a5.894,5.894,0,0,1-.747-.38,1.811,1.811,0,0,1-.6-1.212l-.186-1.241c-.259-1.531-.444-3.386-.53-4.451-.1.958-.287,2.615-.531,3.854l-.33,1.74s-.588-.289-.96-.5a1.577,1.577,0,0,1-.488-1.1c-.417-2.287-1.393-8.127-1.393-8.127-.043-.307.058-.249,1.249.438l.445,2.97c.287,2.03.5,4.351.5,4.351l.086.05c.071-.541.244-1.889.4-2.847l.46-2.913c.028-.217.072-.243.372-.069l.188.108.574.332.56,3.818c.243,1.407.444,3.3.444,3.3l.071.042c.073-.94.259-2.579.46-3.8Z" transform="translate(-268.197 -103.829)" fill="#322a36"/>
                  <path id="Trazado_108135" data-name="Trazado 108135" d="M277.665,115.639a4.772,4.772,0,0,1,.1.972c0,.517-.9.394-1.98-.228-1.335-.77-2.3-1.958-2.3-5.219,0-4.162,1.277-4.023,2.541-3.295a3.936,3.936,0,0,1,1.822,3.716,10.877,10.877,0,0,1-.159,2.073,21.182,21.182,0,0,1-3.013-1.474c.057,1.831.473,2.538,1.35,3.043A2.762,2.762,0,0,0,277.665,115.639Zm-2.985-4.538a9.552,9.552,0,0,0,1.981.962,5.119,5.119,0,0,0,.071-.958c-.015-1.223-.2-1.763-.833-2.128C275.3,108.629,274.781,108.9,274.681,111.1Z" transform="translate(-266.352 -102.559)" fill="#322a36"/>
                  <path id="Trazado_108136" data-name="Trazado 108136" d="M279.346,107.364c0-.615.214-.491,1.163.057v11.9a4.5,4.5,0,0,1-2.067-.693c-1.247-.722-2.324-1.757-2.324-5.369,0-3.3.976-4.065,2.2-3.361a3.076,3.076,0,0,1,1.033.931Zm0,4.51a1.831,1.831,0,0,0-.659-.6c-.646-.372-1.292-.163-1.292,2.568,0,2.513.415,3.219,1.09,3.608a1.329,1.329,0,0,0,.862.248Z" transform="translate(-265.436 -102.74)" fill="#322a36"/>
                </g>
                <g id="Grupo_72649" data-name="Grupo 72649" transform="translate(140.703 78.3)">
                  <path id="Trazado_108137" data-name="Trazado 108137" d="M294.766,120.818c0-1.032.016-1.14.245-1.007l.731.422V117.7c0-.465.214-.341,1.149.2v3l1.492.862c0,1.048-.015,1.14-.245,1.007l-1.246-.722V126.9c0,.715.013,1.339.53,1.637a1.6,1.6,0,0,0,.832.232,3.337,3.337,0,0,1,.085.715c0,.6-.673.343-1.233.02-1.221-.7-1.364-1.768-1.364-3.266v-4.859Z" transform="translate(-294.766 -117.415)" fill="#322a36"/>
                  <path id="Trazado_108138" data-name="Trazado 108138" d="M298.552,118.936c0-.616.2-.5,1.149.047v4.394a1.947,1.947,0,0,1,1.622.287c1.248.72,1.492,1.66,1.492,3.057v6.027c0,.264-.057.233-1.176-.413v-5.927a1.834,1.834,0,0,0-.847-1.8,1.349,1.349,0,0,0-1.091-.181v6.525c0,.267,0,.267-1.149-.4Z" transform="translate(-293.446 -117.029)" fill="#322a36"/>
                  <path id="Trazado_108139" data-name="Trazado 108139" d="M306.726,133.855a4.314,4.314,0,0,1-2.152-.645,3.929,3.929,0,0,1-2.139-4v-5.458c0-.267-.013-.275,1.192.421v5.842c0,1.082.173,1.581.975,2.045a1.48,1.48,0,0,0,.962.239v-6.741c0-.267.015-.259,1.163.4Z" transform="translate(-292.092 -115.263)" fill="#322a36"/>
                </g>
                <g id="Grupo_72650" data-name="Grupo 72650" transform="translate(177.888 99.546)">
                  <path id="Trazado_108140" data-name="Trazado 108140" d="M322.338,136.778c0-1.049,0-1.132.287-.967l.7.407V135.2c0-2.562,1.3-2.208,2.4-1.579.874.506,1.334,1.037,1.334,1.452a1.661,1.661,0,0,1-.129.658,4.279,4.279,0,0,0-1.02-.788c-.744-.432-1.434-.628-1.434.82v1.114l1.291.747c0,1.064-.013,1.123-.243.99l-1.048-.6v6.924c0,.034-.015.258-.244.125l-.9-.522v-7.19Z" transform="translate(-322.338 -133.169)" fill="#322a36"/>
                  <path id="Trazado_108141" data-name="Trazado 108141" d="M325.667,137.373a2.678,2.678,0,0,1,1.952.378c.732.422,1.006.831,1.006,1.28a1.982,1.982,0,0,1-.129.708,2.565,2.565,0,0,0-.689-.6,1.186,1.186,0,0,0-.962-.171v6.559c0,.264-.015.256-1.177-.415Z" transform="translate(-321.177 -131.722)" fill="#322a36"/>
                  <path id="Trazado_108142" data-name="Trazado 108142" d="M329.656,136.787c.445.256.589.606.589,1.27,0,.7-.216.975-.661.717a1.369,1.369,0,0,1-.588-1.338C329,136.821,329.213,136.531,329.656,136.787Zm.546,11.566c0,.266,0,.266-1.164-.406v-7.706c0-.615.231-.483,1.164.057Z" transform="translate(-320.016 -131.939)" fill="#322a36"/>
                </g>
                <g id="Grupo_72651" data-name="Grupo 72651" transform="translate(214.215 123.674)">
                  <path id="Trazado_108143" data-name="Trazado 108143" d="M350.12,154.433a4.05,4.05,0,0,1-.832-2.246c0-1.164.747-1.533,2.355-.6,1.462.844,1.792,1.633,1.792,1.968a.74.74,0,0,1-.244.541,4.684,4.684,0,0,0-1.42-1.269c-.688-.4-1.134-.356-1.134.16a2.47,2.47,0,0,0,.575,1.363l1.334,2.018a4.731,4.731,0,0,1,.862,2.579c0,1.481-.918,1.783-2.382.939-1.018-.589-1.751-1.293-1.751-1.844a1.039,1.039,0,0,1,.214-.657,4.845,4.845,0,0,0,1.421,1.219c.746.43,1.176.33,1.176-.337a2.969,2.969,0,0,0-.573-1.645Z" transform="translate(-349.274 -151.059)" fill="#322a36"/>
                  <path id="Trazado_108144" data-name="Trazado 108144" d="M355.937,157.053c0,1.914-.013,3.9-.086,5.126a3.546,3.546,0,0,1-2.066-.626,3.676,3.676,0,0,1-1.98-3.675c0-2.313.947-2.182,1.923-1.618a4.381,4.381,0,0,1,1.047.821v-1.316a1.538,1.538,0,0,0-.89-1.512,5.539,5.539,0,0,0-1.907-.719,2.607,2.607,0,0,1-.159-.874c0-.166.043-.341.159-.356a4.935,4.935,0,0,1,2.194.817,3.118,3.118,0,0,1,1.765,3.049Zm-1.837.422c-.588-.341-1.09-.4-1.09,1.067,0,1.233.386,1.655.96,1.987a1.035,1.035,0,0,0,.761.174c.043-.542.043-1.775.043-2.673A2.694,2.694,0,0,0,354.1,157.475Z" transform="translate(-348.392 -150.627)" fill="#322a36"/>
                  <path id="Trazado_108145" data-name="Trazado 108145" d="M354.358,155.224c0-1.033.013-1.141.243-1.007l.732.422v-2.53c0-.465.216-.341,1.148.2v3l1.493.862c0,1.049-.015,1.141-.244,1.009l-1.249-.722v4.861c0,.715.015,1.341.531,1.637a1.587,1.587,0,0,0,.832.231,3.346,3.346,0,0,1,.086.716c0,.6-.674.343-1.234.02-1.219-.7-1.363-1.769-1.363-3.268v-4.861Z" transform="translate(-347.501 -150.793)" fill="#322a36"/>
                </g>
              </g>
            </g>
          </g>
          <g id="Grupo_72655" data-name="Grupo 72655" transform="translate(221.483 108.875)">
            <path id="Trazado_108146" data-name="Trazado 108146" d="M249.124,159.36a412.215,412.215,0,0,0-37.839-24.891q0-21.913,0-43.826c12.876,7.248,26.06,13.948,39.091,20.912C250.706,127.526,250.289,143.428,249.124,159.36Z" transform="translate(-211.285 -90.643)" fill="#edbc0d"/>
          </g>
          <g id="Grupo_72656" data-name="Grupo 72656" transform="translate(360.448 258.02)">
            <path id="Trazado_108147" data-name="Trazado 108147" d="M352.163,269.948a412.864,412.864,0,0,0-37.839-24.891q0-21.911,0-43.826c12.874,7.248,26.059,13.948,39.089,20.912C353.744,238.115,353.327,254.016,352.163,269.948Z" transform="translate(-314.324 -201.231)" fill="#edbc0d"/>
          </g>
          <g id="Grupo_72657" data-name="Grupo 72657" transform="translate(265.423 134.226)">
            <path id="Trazado_108148" data-name="Trazado 108148" d="M281.7,178.157a412.655,412.655,0,0,0-37.838-24.891q0-21.913,0-43.826c12.874,7.248,26.059,13.948,39.089,20.912C283.286,146.324,282.868,162.225,281.7,178.157Z" transform="translate(-243.865 -109.44)" fill="#1391ee"/>
          </g>
          <g id="Grupo_72658" data-name="Grupo 72658" transform="translate(257.12 203.414)">
            <path id="Trazado_108149" data-name="Trazado 108149" d="M275.547,229.459a412.563,412.563,0,0,0-37.838-24.891q0-21.911,0-43.826c12.874,7.248,26.059,13.948,39.088,20.912C277.129,197.626,276.712,213.526,275.547,229.459Z" transform="translate(-237.709 -160.742)" fill="#1391ee"/>
          </g>
          <g id="Grupo_72659" data-name="Grupo 72659" transform="translate(328.367 173.053)">
            <path id="Trazado_108150" data-name="Trazado 108150" d="M326.163,202.929a388.515,388.515,0,0,0-35.626-23.436V138.23c12.123,6.823,24.536,13.132,36.8,19.689C327.652,172.958,327.26,187.928,326.163,202.929Z" transform="translate(-290.537 -138.23)" fill="#39313e"/>
          </g>
          <path id="Trazado_108151" data-name="Trazado 108151" d="M419.029,209.636l-68.235-39.654v23.257l64.1,37.007-8.038-15.021Z" transform="translate(58.839 45.894)" fill="#1391ee"/>
          <path id="Trazado_108152" data-name="Trazado 108152" d="M405.847,227.822l-45.359-26.36v22.884l41.273,23.831-7.32-15.055Z" transform="translate(62.219 56.87)" fill="#edbc0d"/>
        </g>
      </g>
    </g>
    <g id="Grupo_72723" data-name="Grupo 72723" transform="translate(-15 19)">
      <g id="Grupo_72722" data-name="Grupo 72722">
        <path id="Trazado_108168" data-name="Trazado 108168" d="M224.2,295.753c0,3.5-28.469,6.346-63.587,6.346s-63.586-2.841-63.586-6.346,28.468-6.346,63.586-6.346S224.2,292.248,224.2,295.753Z" transform="translate(0 -4)" fill="#00357b" stroke="#94bdff" stroke-miterlimit="10" stroke-width="0.341" opacity="0.37"/>
        <g id="Grupo_72721" data-name="Grupo 72721">
          <g id="Grupo_72701" data-name="Grupo 72701">
            <g id="Grupo_72685" data-name="Grupo 72685">
              <g id="Grupo_72677" data-name="Grupo 72677">
                <path id="Trazado_108169" data-name="Trazado 108169" d="M187.181,110.814s3.26,3.788,4.6,5.02C191.783,115.834,191.485,108.639,187.181,110.814Z" fill="#d4427f"/>
                <path id="Trazado_108170" data-name="Trazado 108170" d="M188.631,110.72s-2.261-2.548-14.676-1.883c-9.885.529-3.768,25.716,12.415,21.726C193.922,127.068,188.631,110.72,188.631,110.72Z" fill="#d4427f"/>
                <path id="Trazado_108171" data-name="Trazado 108171" d="M188.3,118.062a13.264,13.264,0,0,0,2.287,1.435c.22.094.159.455-.049.575l-1.5.861Z" fill="#ffc2bd"/>
                <g id="Grupo_72676" data-name="Grupo 72676">
                  <path id="Trazado_108172" data-name="Trazado 108172" d="M177.626,121.017c.045.172-.132.326-.3.325a2.436,2.436,0,0,0-2.675,2.149c-.237,1.975,2.416,2.328,3.508,2.389a1.191,1.191,0,0,1,.822.406c.657.74,1.59,1.914,2.564,3.01.138.156-1.055,9.352-1.055,9.352s6.491,2.607,9.819.2c0,0-2.341-9.759-1.893-10.961.814-.165,5.232-2.587,3.644-10.14-1.5-7.118-7.1-6.546-8.363-6.316C182.632,111.629,175.309,112.248,177.626,121.017Z" fill="#ffc2bd"/>
                  <path id="Trazado_108173" data-name="Trazado 108173" d="M188.394,128.023a5.554,5.554,0,0,1-3.508-.119c-1.522-.731,2.828,4.109,3.924,3.805A35.621,35.621,0,0,1,188.394,128.023Z" fill="#021e2b"/>
                  <path id="Trazado_108174" data-name="Trazado 108174" d="M175.89,123.425s1.085-2.373,2.463.807" fill="#cf484b"/>
                  <g id="Grupo_72675" data-name="Grupo 72675">
                    <path id="Trazado_108175" data-name="Trazado 108175" d="M191.74,122.536l-3.445.542s1.121,1.519,2.091,1.188S191.74,122.536,191.74,122.536Z" fill="#fff"/>
                    <path id="Trazado_108176" data-name="Trazado 108176" d="M189.849,119.915l.088,1.767.891-.226a.223.223,0,0,0,.109-.368Z" fill="#cf484b"/>
                    <path id="Trazado_108177" data-name="Trazado 108177" d="M186.99,118.436c-.274.273.038-.789.445-.976a.763.763,0,0,1,1.03.3A2.384,2.384,0,0,0,186.99,118.436Z" fill="#021e2b"/>
                    <path id="Trazado_108178" data-name="Trazado 108178" d="M191.433,117.326a2.374,2.374,0,0,0-1.388.1.764.764,0,0,1,.8-.715,1.014,1.014,0,0,1,.554.248S191.589,117.349,191.433,117.326Z" fill="#021e2b"/>
                    <path id="Trazado_108179" data-name="Trazado 108179" d="M188.582,120.3c.066.305.24.525.388.493s.213-.306.147-.61-.241-.526-.389-.493S188.515,119.992,188.582,120.3Z" fill="#021e2b"/>
                    <path id="Trazado_108180" data-name="Trazado 108180" d="M190.683,119.841c.064.291.23.5.371.471s.2-.292.14-.583-.23-.5-.371-.471S190.619,119.55,190.683,119.841Z" fill="#021e2b"/>
                    <path id="Trazado_108181" data-name="Trazado 108181" d="M184.3,123.878a1.695,1.695,0,1,0,.982-2.186A1.693,1.693,0,0,0,184.3,123.878Z" fill="#ff859f"/>
                  </g>
                </g>
                <path id="Trazado_108182" data-name="Trazado 108182" d="M189.94,111.493s-5.649,10.524-12.962,9.276C176.978,120.769,174.208,107.381,189.94,111.493Z" fill="#d4427f" stroke="#d4427f" stroke-linecap="round" stroke-linejoin="round" stroke-width="0.799"/>
                <path id="Trazado_108183" data-name="Trazado 108183" d="M177.169,125.033a.948.948,0,1,0,.949-.948A.949.949,0,0,0,177.169,125.033Z" fill="#fff"/>
              </g>
              <g id="Grupo_72678" data-name="Grupo 72678">
                <path id="Trazado_108184" data-name="Trazado 108184" d="M195.637,176.548c4.258,6.293,9.291,13.677,13.733,17.756,3.767,3.46,9.2,9.113,10.61,9.7.4.167.436-5.52-1.426-7.91a39.805,39.805,0,0,0-4.624-4.594s-7.559-13.611-8.668-18.309c-2.545-10.779-1.441-17.157-3.609-20.375-3.959-5.875-7.457,7.1-7.457,7.1S190.339,168.719,195.637,176.548Z" fill="#ffc2bd"/>
                <path id="Trazado_108185" data-name="Trazado 108185" d="M195.588,156.562l8.919-2.5s-4.643-16.974-14.2-16.363Z" fill="#94bdff" stroke="#94bdff" stroke-miterlimit="10" stroke-width="0.387"/>
              </g>
              <g id="Grupo_72682" data-name="Grupo 72682">
                <g id="Grupo_72679" data-name="Grupo 72679">
                  <path id="Trazado_108186" data-name="Trazado 108186" d="M188.233,276.924l.83,10.293s1.692,6.175,3.263,3.785a17.289,17.289,0,0,1,3.126-3.654l.811-10.546Z" fill="#ffc2bd"/>
                  <path id="Trazado_108187" data-name="Trazado 108187" d="M196.2,287.3l9.546,5.446c.428.244.2.753-.341.75-4.408-.023-16.283-.146-19.406-.186-.379,0-.639-.28-.52-.548.661-1.479,2.908-7.082,3.163-7.122,0,0,2.23,3.608,3.53,3.245a11.392,11.392,0,0,0,3.129-1.562A.731.731,0,0,1,196.2,287.3Z" fill="#021e2b" stroke="#021e2b" stroke-miterlimit="10" stroke-width="0.427"/>
                  <line id="Línea_175" data-name="Línea 175" x1="1.621" y2="1.483" transform="translate(196.505 287.926)" fill="#b300ae" stroke="#fff" stroke-linecap="round" stroke-miterlimit="10" stroke-width="0.467"/>
                  <line id="Línea_176" data-name="Línea 176" x1="1.621" y2="1.483" transform="translate(197.577 288.783)" fill="#b300ae" stroke="#fff" stroke-linecap="round" stroke-miterlimit="10" stroke-width="0.467"/>
                </g>
                <g id="Grupo_72680" data-name="Grupo 72680">
                  <path id="Trazado_108188" data-name="Trazado 108188" d="M151.181,270.622,147.3,280.19s-1.264,6.277,1.213,4.847a17.32,17.32,0,0,1,4.435-1.859l5.464-9.056Z" fill="#ffc2bd"/>
                  <path id="Trazado_108189" data-name="Trazado 108189" d="M153.63,283.472l6.08,9.156c.272.41-.163.761-.642.516-3.927-2-14.481-7.448-17.252-8.887-.336-.175-.446-.538-.218-.723,1.255-1.025,5.78-5.021,6.026-4.941,0,0,.37,4.224,1.7,4.484a11.4,11.4,0,0,0,3.5.012A.73.73,0,0,1,153.63,283.472Z" fill="#021e2b" stroke="#021e2b" stroke-miterlimit="10" stroke-width="0.427"/>
                  <line id="Línea_177" data-name="Línea 177" x1="2.115" y2="0.596" transform="translate(152.96 284.896)" fill="#b300ae" stroke="#fff" stroke-linecap="round" stroke-miterlimit="10" stroke-width="0.467"/>
                  <line id="Línea_178" data-name="Línea 178" x1="2.115" y2="0.596" transform="translate(153.531 286.143)" fill="#b300ae" stroke="#fff" stroke-linecap="round" stroke-miterlimit="10" stroke-width="0.467"/>
                </g>
                <g id="Grupo_72681" data-name="Grupo 72681">
                  <path id="Trazado_108190" data-name="Trazado 108190" d="M176.336,170.062c-2.889,6.135-4.283,7.795-6.088,15.231-2.094,8.624-1.65,20.239-2.871,28.909a166.146,166.146,0,0,1-3.214,18c-2.622,12.28-6.5,28.241-13.042,40.025.487.731,6.076,3.847,9.24,5.795,9.941-12.256,17.549-26.133,21.423-41.629,2.939-11.755,3.745-24.016,4.423-35.324a1.1,1.1,0,0,1,2.19-.032c.992,11.323-3.1,57.52-1.987,76.776,1.691,0,8.167.452,10.6.452,1.613-18.889,7.928-27.083,8.873-47.593.938-20.356,3.233-40.111-9.616-60.618C188.5,170.238,182.735,170.186,176.336,170.062Z" fill="#001c39"/>
                  <path id="Trazado_108191" data-name="Trazado 108191" d="M182.924,170.24s1.487,14.366-12.824,14.711" fill="none" stroke="#fff" stroke-miterlimit="10" stroke-width="0.345" opacity="0.5"/>
                  <path id="Trazado_108192" data-name="Trazado 108192" d="M193.762,170.241c.478.916,0,12.472,8.773,12.729" fill="none" stroke="#fff" stroke-miterlimit="10" stroke-width="0.345" opacity="0.5"/>
                  <line id="Línea_179" data-name="Línea 179" x1="14.965" y1="9.117" transform="translate(148.866 264.849)" fill="none" stroke="#fff" stroke-miterlimit="10" stroke-width="0.345" opacity="0.5"/>
                  <line id="Línea_180" data-name="Línea 180" x1="17.374" y1="0.516" transform="translate(186.365 272.934)" fill="none" stroke="#fff" stroke-miterlimit="10" stroke-width="0.345" opacity="0.5"/>
                </g>
              </g>
              <g id="Grupo_72683" data-name="Grupo 72683">
                <path id="Trazado_108193" data-name="Trazado 108193" d="M189.757,137.188a31.394,31.394,0,0,1,2.829,2.209c1.307,2.615,5.122,7.022,6.926,12.587.644,1.986.952,2.141.238,5.47,15.34,8.919,16.054,49.945,14.984,54.107l-49.113-1.546s2.854-30.68,8.919-42.334c.058-7.789-6.168-22.457-4.2-28.181,0,0,8.831-3.222,10.448-3.345C180.79,136.155,190.487,141.448,189.757,137.188Z" fill="#94bdff" stroke="#94bdff" stroke-miterlimit="10" stroke-width="0.387"/>
              </g>
              <path id="Trazado_108194" data-name="Trazado 108194" d="M183.28,164.054s-5.886,19.086,11.951,27.291c0,0-17.124-3.032-16.232-23.01Z" fill="#7090c2" stroke="#7090c2" stroke-miterlimit="10" stroke-width="0.387"/>
              <path id="Trazado_108195" data-name="Trazado 108195" d="M154.93,137.775c-.021.53,1.751,27.354,1.751,27.354,1.163,6.425,2.314,17.632,3.426,20.866s2.849,13.046,1.334,11.037-1.742-5.207-2.35-3.282.373,12.949-1.375,12.348-1.54-10.337-1.54-10.337-.42,10.614-1.828,10.381-.839-10.133-.839-10.133-.2,9.383-1.964,9.313-.492-9.941-.492-9.941-.811,7.054-1.518,7.026-6.011-27.169-7.111-35.185-3.153-29.289-3.153-29.289Z" fill="#c96f65"/>
              <g id="Grupo_72684" data-name="Grupo 72684">
                <path id="Trazado_108196" data-name="Trazado 108196" d="M147.851,197.89c1.53-3.965,18.111-48.976,18.111-48.976l8.011,6.4c-.517,5.866-17.545,44.992-18.184,45.841,0,0-.518,1.035-.69.862s.172-3.448,0-3.276-2.931,5.518-3.621,5.173.862-3.621.517-3.793-1.379,3.448-2.069,3.276.517-3.794.173-3.794-1.035,3.449-1.552,3.276.517-3.793.345-3.965-.862,3.276-1.552,3.276C146.823,202.194,147.461,198.9,147.851,197.89Z" fill="#ffc2bd"/>
                <path id="Trazado_108197" data-name="Trazado 108197" d="M177.357,141.362s-4.746-3.777-7.712-1.367c-4.034,3.277-6.7,11.038-6.7,11.038s10.117,12.191,10.318,11.838c2.566-4.506,2.759-5.356,3.348-7.214C177.969,151.378,179.576,147.4,177.357,141.362Z" fill="#94bdff" stroke="#94bdff" stroke-miterlimit="10" stroke-width="0.387"/>
              </g>
            </g>
            <g id="Grupo_72700" data-name="Grupo 72700">
              <g id="Grupo_72687" data-name="Grupo 72687">
                <g id="Grupo_72686" data-name="Grupo 72686">
                  <path id="Trazado_108198" data-name="Trazado 108198" d="M133.723,153.515a67,67,0,0,1-4.043-13.4c-3.1-13.533-1.553-17.38,8.314-20.1,7.146-1.97,9.817,1.918,11.651,5.185,4.286,7.637,6.1,12.56,9.555,19.765Z" fill="#ffe396"/>
                </g>
              </g>
              <g id="Grupo_72699" data-name="Grupo 72699">
                <g id="Grupo_72694" data-name="Grupo 72694">
                  <g id="Grupo_72688" data-name="Grupo 72688">
                    <path id="Trazado_108199" data-name="Trazado 108199" d="M154.724,181.776s5.319,35.82,5.61,45.725-1.765,54.063-1.765,54.063l-10.592.221s-11.315-74.081-23.842-97.97Z" fill="#5067a1"/>
                    <path id="Trazado_108200" data-name="Trazado 108200" d="M136.9,182.915s11.39,44.611,11.77,47.838,3.8,51.066,3.8,51.066" fill="none" stroke="#fff" stroke-miterlimit="10" stroke-width="0.381"/>
                    <line id="Línea_181" data-name="Línea 181" x1="12.719" transform="translate(146.009 276.883)" fill="none" stroke="#fff" stroke-miterlimit="10" stroke-width="0.381" stroke-dasharray="2.283"/>
                  </g>
                  <g id="Grupo_72689" data-name="Grupo 72689">
                    <path id="Trazado_108201" data-name="Trazado 108201" d="M154.3,183.233a1.974,1.974,0,0,0-.7,1.117c-1.349,6.456-9.086,32.912-18.812,53.069-7.419,15.376-16.955,44.3-16.955,44.3l-12.578-.348,11.659-46.639a41.288,41.288,0,0,0,1.262-7.787c.645-9.928,2.895-29.989,2.013-42.843Z" fill="#697be4"/>
                    <path id="Trazado_108202" data-name="Trazado 108202" d="M134.366,184.307s-4.05,39.992-6.075,44.042S111.08,281.5,111.08,281.5" fill="none" stroke="#fff" stroke-miterlimit="10" stroke-width="0.381"/>
                    <line id="Línea_182" data-name="Línea 182" x1="12.719" transform="translate(106.903 276.883)" fill="none" stroke="#fff" stroke-miterlimit="10" stroke-width="0.381" stroke-dasharray="2.283"/>
                  </g>
                  <g id="Grupo_72691" data-name="Grupo 72691">
                    <path id="Trazado_108203" data-name="Trazado 108203" d="M113.773,283.786l.728-2.6-8.526.019-.97,2.579,2.931,6.384,6.852-5.107Z" fill="#c96f65"/>
                    <g id="Grupo_72690" data-name="Grupo 72690">
                      <path id="Trazado_108204" data-name="Trazado 108204" d="M114.262,283.7a9.271,9.271,0,0,0-5.149,1.986c-1.648,1.209-3.345-1.284-4.108-1.928-.155-.132-2.144,6.48-2.144,6.48h24.108C127.249,290.235,114.262,283.7,114.262,283.7Z" fill="#fc79a9"/>
                      <path id="Rectángulo_9070" data-name="Rectángulo 9070" d="M1.849,0H22.3a1.849,1.849,0,0,1,1.849,1.849V3.406a0,0,0,0,1,0,0H0a0,0,0,0,1,0,0V1.849A1.849,1.849,0,0,1,1.849,0Z" transform="translate(126.963 293.779) rotate(180)" fill="#fc79a9"/>
                    </g>
                  </g>
                  <g id="Grupo_72693" data-name="Grupo 72693">
                    <path id="Trazado_108205" data-name="Trazado 108205" d="M158.448,283.786l-1.36-2.6-8.737.283.454,2.315,3.806,6.384,6.852-5.107Z" fill="#c96f65"/>
                    <g id="Grupo_72692" data-name="Grupo 72692">
                      <path id="Trazado_108206" data-name="Trazado 108206" d="M158.422,283.7a9.269,9.269,0,0,0-5.149,1.986c-1.649,1.209-3.345-1.284-4.108-1.928-.156-.132-2.144,6.48-2.144,6.48h24.108C171.409,290.235,158.422,283.7,158.422,283.7Z" fill="#fc79a9"/>
                      <path id="Rectángulo_9071" data-name="Rectángulo 9071" d="M1.849,0H22.3a1.849,1.849,0,0,1,1.849,1.849V3.406a0,0,0,0,1,0,0H0a0,0,0,0,1,0,0V1.849A1.849,1.849,0,0,1,1.849,0Z" transform="translate(171.122 293.779) rotate(180)" fill="#fc79a9"/>
                    </g>
                  </g>
                </g>
                <path id="Trazado_108207" data-name="Trazado 108207" d="M146.959,183.674s-.76,15.377-14.238,14.617" fill="none" stroke="#fff" stroke-miterlimit="10" stroke-width="0.381"/>
                <g id="Grupo_72696" data-name="Grupo 72696">
                  <path id="Trazado_108208" data-name="Trazado 108208" d="M146.834,122.57c1.364,1.66,8.724,14.517,8.221,63.991,0,0-35.043,1.5-37.768-.074-1.766-1.023-8.143-72.585,17.228-68.97C134.515,117.517,143.156,118.1,146.834,122.57Z" fill="#ffe396"/>
                  <g id="Grupo_72695" data-name="Grupo 72695">
                    <path id="Trazado_108209" data-name="Trazado 108209" d="M138.513,146.428c-2.674,7.644-5.119,18.611-4.34,25.789a39.686,39.686,0,0,0,6.954,17.815c2.6,3.387,6.948,8.469,6.561,9s-4.158-3.358-3.573-1.5,6.763,9.858,4.548,10.787-5.015-6.495-6.161-7.682c1.055,1.285,5.066,8.436,3.246,9.4s-4.713-7.02-5.6-8.087c1.058,1.333,4.869,7.716,2.816,8.813s-4.923-7.231-5.273-8.159c-2.156-1.461,6.688,9.163,1.059,5.53s-17.331-21.634-18.688-32.723.94-22.283,3.384-33.29C128.439,143.334,133.5,144.774,138.513,146.428Z" fill="#c96f65"/>
                  </g>
                </g>
                <g id="Grupo_72698" data-name="Grupo 72698">
                  <path id="Trazado_108210" data-name="Trazado 108210" d="M134.45,105.581a20.327,20.327,0,0,1-2.607,12.5c-.6,1.076,13.174,3.352,13.174,3.352L143.31,114.6S134.144,102.16,134.45,105.581Z" fill="#c96f65"/>
                  <path id="Trazado_108211" data-name="Trazado 108211" d="M143.277,110.38l.325,5.536s-5.056-2.552-5.188-6.418S143.277,110.38,143.277,110.38Z" fill="#02042b"/>
                  <path id="Trazado_108212" data-name="Trazado 108212" d="M142.978,92c3.4,5.151,4.147,10.866,3.58,17a3.869,3.869,0,0,1-1.437,2.075,2.948,2.948,0,0,1-2.2.428c-2.023-.388-4.514-.993-6.452-1.547a2.719,2.719,0,0,1-1.929-1.48c-.438-.719-.7-1.6-1.1-2.373-.135-.264-.213-.22-.54-.48-.622-.494-2.731-1.071-2.114-3.207.485-1.681,2.814-.934,3.86.394.063.081.29.038.309-.078-.059-2.771-.3-6.9-.628-9.652C137.423,92.862,140.431,93.951,142.978,92Z" fill="#c96f65"/>
                  <path id="Trazado_108213" data-name="Trazado 108213" d="M128.663,95.749c-.946,2.348,2.247,6.323,2.247,6.323a1.076,1.076,0,0,1,1.843-.154c.492.469,1.692,1.688,2.8.474,1.045-1.144-.712-3.574-.121-5.139,1.045-2.768,6.928-2.723,8.82-3.306,2.384-.734-1.445-7.113-5.6-6.282C127.784,89.838,128.663,95.749,128.663,95.749Z" fill="#20314f" stroke="#20314f" stroke-miterlimit="10" stroke-width="0.387"/>
                  <g id="Grupo_72697" data-name="Grupo 72697">
                    <path id="Trazado_108214" data-name="Trazado 108214" d="M145.975,99.9l2.282,2.546a.347.347,0,0,1-.212.51l-1.59.437Z" fill="#8a4c45"/>
                    <path id="Trazado_108215" data-name="Trazado 108215" d="M131.734,102.846s1.1-1.188,1.934,1.094" fill="#8a4c45"/>
                    <path id="Trazado_108216" data-name="Trazado 108216" d="M146.652,103.981s-1.354.241-3.19.662c0,0,2.1,1.814,3.328,1.119Z" fill="#fff"/>
                    <path id="Trazado_108217" data-name="Trazado 108217" d="M143.2,99.3c-.368.373.041-1.067.59-1.325a1.03,1.03,0,0,1,1.4.39A3.226,3.226,0,0,0,143.2,99.3Z" fill="#02042b"/>
                    <path id="Trazado_108218" data-name="Trazado 108218" d="M144.831,100.757c.018.344.168.615.335.606s.287-.294.268-.638-.168-.615-.335-.606S144.812,100.414,144.831,100.757Z" fill="#02042b"/>
                  </g>
                </g>
              </g>
            </g>
          </g>
          <g id="Grupo_72719" data-name="Grupo 72719">
            <path id="Trazado_108270" data-name="Trazado 108270" d="M153.414,93.694l5.423-5.423h20.422a7.526,7.526,0,0,0,7.527-7.526V79.112a7.527,7.527,0,0,0-7.527-7.527H160.941a7.527,7.527,0,0,0-7.527,7.527Z" fill="#ffe396"/>
            <g id="Grupo_72718" data-name="Grupo 72718">
              <circle id="Elipse_5565" data-name="Elipse 5565" cx="1.877" cy="1.877" r="1.877" transform="translate(175.94 77.843)" fill="#fff"/>
              <circle id="Elipse_5566" data-name="Elipse 5566" cx="1.877" cy="1.877" r="1.877" transform="translate(169.057 77.843)" fill="#fff"/>
              <path id="Trazado_108271" data-name="Trazado 108271" d="M162.174,79.72a1.877,1.877,0,1,0,1.877-1.877A1.877,1.877,0,0,0,162.174,79.72Z" fill="#fff"/>
            </g>
          </g>
          <path id="Trazado_108272" data-name="Trazado 108272" d="M224.2,295.753c0,3.5-28.469,6.346-63.587,6.346s-63.586-2.841-63.586-6.346,28.468-6.346,63.586-6.346S224.2,292.248,224.2,295.753Z" transform="translate(135 61.254)" fill="#00357b" stroke="#94bdff" stroke-miterlimit="10" stroke-width="0.341" opacity="0.37"/>
          <g id="Grupo_72717" data-name="Grupo 72717">
            <g id="Grupo_72703" data-name="Grupo 72703">
              <g id="Grupo_72702" data-name="Grupo 72702">
                <path id="Trazado_108219" data-name="Trazado 108219" d="M262.957,219.382c-5.224,1.583-16.109-29.337-16.109-29.337-2.815-5.588,1.2-8.95,2.527-8.2,1.193.671,4.162,5.19,4.162,5.19s8.966,17.286,9.156,16.978Z" fill="#f1b7a5"/>
                <line id="Línea_183" data-name="Línea 183" y1="11.139" x2="2.501" transform="translate(250.171 175.705)" fill="none" stroke="#464b6b" stroke-linecap="round" stroke-miterlimit="10" stroke-width="1.933"/>
                <path id="Trazado_108220" data-name="Trazado 108220" d="M253.323,186.9s-.085-4.438-.708-4.515-3.562.181-3.833,1.193,2.221.931,2.221.931-1.145,2.085-.132,2.745S253.323,186.9,253.323,186.9Z" fill="#f1b7a5"/>
              </g>
              <path id="Trazado_108221" data-name="Trazado 108221" d="M287.917,183.152s-8.811,5.475-11.817,8.542-13.714,11.416-13.714,11.416l-7.548-14.263-6.868,6.37S257.119,220.3,262.1,220.4,298.921,197.774,287.917,183.152Z" fill="#fff"/>
            </g>
            <g id="Grupo_72705" data-name="Grupo 72705">
              <path id="Trazado_108222" data-name="Trazado 108222" d="M292.742,183.785c9.973-19.259-.573-26.023-6.386-25.167a16.82,16.82,0,0,0-10.515,5.308c-.95,1.112-2.251,5.256-1.594,6.558l-7.872,15.365" fill="#1e2f4d"/>
              <path id="Trazado_108223" data-name="Trazado 108223" d="M285.911,177.866" fill="#1e2f4d"/>
              <path id="Trazado_108224" data-name="Trazado 108224" d="M288.942,170.337a.339.339,0,0,0,.438.216c.758-.274,2.452-1.062,3.409.836a3.2,3.2,0,0,1-1.671,4.2c-.326.136-1.068.478-1.206.8-.423,1-.16,2.762.039,5a6.186,6.186,0,0,0,4.739,5.748s-10.941,9.561-12.92,3.674c.736-1.27-.42-11.5-1.25-10.23-.761,1.164-5.567-.1-6.044-8.573-.442-7.853,4.951-9.209,6.359-9.447C282.024,162.372,285.993,161.229,288.942,170.337Z" fill="#f1b7a5"/>
              <path id="Trazado_108225" data-name="Trazado 108225" d="M276.919,163.184s10.722,7.028,12.276,7.373C289.2,170.557,289.963,157.032,276.919,163.184Z" fill="#1e2f4d"/>
              <g id="Grupo_72704" data-name="Grupo 72704">
                <path id="Trazado_108226" data-name="Trazado 108226" d="M292.132,172.272s-2.092-2.09-2.4,1.823" fill="#ec8565"/>
                <path id="Trazado_108227" data-name="Trazado 108227" d="M282.349,172.7a1.893,1.893,0,1,0,2.393,1.2A1.893,1.893,0,0,0,282.349,172.7Z" fill="#f7a288"/>
                <path id="Trazado_108228" data-name="Trazado 108228" d="M275.158,176.02a1.894,1.894,0,0,0-.577-3.5A9.225,9.225,0,0,0,275.158,176.02Z" fill="#f7a288"/>
                <path id="Trazado_108229" data-name="Trazado 108229" d="M277.706,171.849l.263,2.094-1.093-.08a.267.267,0,0,1-.205-.41Z" fill="#ec8565"/>
                <path id="Trazado_108230" data-name="Trazado 108230" d="M275.775,175.073l4.012.229s-1.031,2.408-2.178,1.949A4.4,4.4,0,0,1,275.775,175.073Z" fill="#fff"/>
                <path id="Trazado_108231" data-name="Trazado 108231" d="M280.934,169.876c.353.245-.194-.856-.676-.982a.848.848,0,0,0-1.07.525A2.654,2.654,0,0,1,280.934,169.876Z"/>
                <path id="Trazado_108232" data-name="Trazado 108232" d="M275.115,169.767c-.351.249.185-.858.666-.989a.848.848,0,0,1,1.075.515A2.648,2.648,0,0,0,275.115,169.767Z"/>
                <path id="Trazado_108233" data-name="Trazado 108233" d="M279.876,171.863c-.015.372-.173.667-.354.66s-.314-.315-.3-.687.174-.667.354-.659S279.891,171.491,279.876,171.863Z"/>
                <path id="Trazado_108234" data-name="Trazado 108234" d="M276.93,171.563c-.014.355-.165.637-.337.63s-.3-.3-.286-.655.166-.637.338-.63S276.945,171.208,276.93,171.563Z"/>
                <path id="Trazado_108235" data-name="Trazado 108235" d="M280.7,180.576s2.864-.934,4.535-1.655S282.615,191.462,280.7,180.576Z" fill="#f7a288"/>
              </g>
            </g>
            <g id="Grupo_72706" data-name="Grupo 72706">
              <path id="Trazado_108236" data-name="Trazado 108236" d="M284.384,343.846l-1.309,9.292s-2.1,6.162-4.047,3.776a19.224,19.224,0,0,0-3.878-3.646l-.64-9.66Z" fill="#f1b5a5"/>
              <path id="Trazado_108237" data-name="Trazado 108237" d="M279.284,344.193l-.337,12.639s6.167.926,3.875-3.2l1.348-8.763Z" fill="#f7a288"/>
              <path id="Trazado_108238" data-name="Trazado 108238" d="M315.441,343.132l2.891,9.269s2.2,1.93,2.995,1.88c1.445-.091,2.2-2.584,2.2-2.584l.238-8.565Z" fill="#f1b5a5"/>
              <path id="Trazado_108239" data-name="Trazado 108239" d="M319.607,340.655l2.022,15.334s4.145,1.1,1.853-3.033l.506-11.8Z" fill="#f7a288"/>
              <path id="Trazado_108240" data-name="Trazado 108240" d="M274.508,353.22l-7.782,6.308c-.4.295-.114.793.455.8l11.488.093a.67.67,0,0,0,.617-.313l.866-1.776c.25-.513.749-.555.7-.011l.424,1.715c-.023.27,2.724.2,2.748-.05a48.505,48.505,0,0,0-.44-7.9.571.571,0,0,0-.515-.4h0a.786.786,0,0,0-.643.177c-.775.75-3.254,3.008-4.575,2.551a9.707,9.707,0,0,1-2.391-1.171A.816.816,0,0,0,274.508,353.22Z" fill="#ff7aae"/>
              <path id="Trazado_108241" data-name="Trazado 108241" d="M323.637,351.376l4.419,7.4a1.443,1.443,0,0,1-.643,2.087c-1.382.822-2.511,2.463-3.381,2.487-1.571.043-4.013-1.611-5.436-2.232-.955-.416-1.7-1.026-1.585-1.825l1.1-7.424c.013-.092.175-.126.255-.053l1.692,1.533a1.986,1.986,0,0,0,2.432-.166c.267-.43.892-1.814.892-1.814A.173.173,0,0,1,323.637,351.376Z" fill="#ff7aae"/>
            </g>
            <g id="Grupo_72707" data-name="Grupo 72707">
              <path id="Trazado_108242" data-name="Trazado 108242" d="M300.2,221.03a68.093,68.093,0,0,1,7.5,18.946c2.377,9.3,28.168,87.962,29.289,104.878-2.93.706-19.517.6-21.369.5-5.891-16.882-24.343-74.349-26.868-84.985a1.378,1.378,0,0,0-2.718.393c1.434,12.145,11.52,51.313,11.52,84.622-1.537.783-21.748.609-23.522.386-1.931-20.831-12.176-99.69,3.29-125.252C284.4,219.542,293.028,220.817,300.2,221.03Z" fill="#697be4"/>
              <path id="Trazado_108243" data-name="Trazado 108243" d="M278.249,223.287s-6.3,15.589-6.3,37.591,5.968,85.065,5.968,85.065" fill="none" stroke="#fff" stroke-miterlimit="10" stroke-width="0.26"/>
              <line id="Línea_184" data-name="Línea 184" x1="26.588" y1="122.697" transform="translate(296.712 222.569)" fill="none" stroke="#fff" stroke-miterlimit="10" stroke-width="0.26"/>
              <path id="Trazado_108244" data-name="Trazado 108244" d="M292.3,223.184s.214,20.154,9.26,18.565" fill="none" stroke="#fff" stroke-miterlimit="10" stroke-width="0.26"/>
              <path id="Trazado_108245" data-name="Trazado 108245" d="M277.428,223.7l29.118,21.926s1.215-11.832-3.958-21.544Z" opacity="0.21" style="mix-blend-mode: multiply;isolation: isolate"/>
              <path id="Trazado_108246" data-name="Trazado 108246" d="M273.53,242.673c9.046,1.589,7.591-18.463,7.591-18.463" fill="none" stroke="#fff" stroke-miterlimit="10" stroke-width="0.26"/>
            </g>
            <path id="Trazado_108247" data-name="Trazado 108247" d="M290.963,186.618s1.845-.534,1.54-.141a7.686,7.686,0,0,1-1.616,1.265Z" fill="#c20600"/>
            <g id="Grupo_72708" data-name="Grupo 72708">
              <path id="Trazado_108248" data-name="Trazado 108248" d="M281.2,185.367c.206.5-7.9,17.727-7.652,22.624.247,4.933,3.616,13.234,3.354,13.976,0,0,3.828,3.019,24.944-.306,6.491-5.679.788-24.983-1.392-31.1,0,0-8.144-5.295-9.933-5.427C290.523,185.139,281.657,195.71,281.2,185.367Z" fill="#f2579f"/>
              <path id="Trazado_108249" data-name="Trazado 108249" d="M293.417,186.443s-7.756,15.019-10.956,18.466.123,45.673.123,45.673l27.453-3.693-6.274-49.3a12.988,12.988,0,0,0-9.283-10.84Z" fill="#fff"/>
              <path id="Trazado_108250" data-name="Trazado 108250" d="M292.229,186.208s-5.643,12.947-9.91,21.811c0,0-1.824,13.548-1.208,17.487,0,0,9.187-19.1,11.157-22.674l-.96-4.679,3.937-.681,1.231-7.878Z" fill="#224382"/>
              <path id="Trazado_108251" data-name="Trazado 108251" d="M291.509,184.289s-5.642,12.946-9.91,21.81c0,0-1.231,12.968-.616,16.907,0,0,8.987-18.835,10.957-22.406l-.985-4.062,3.57-.985,1.231-7.879Z" fill="#fff"/>
              <path id="Trazado_108252" data-name="Trazado 108252" d="M280.293,226.628,305.3,209.123l1.137,12.049-7.9,14.871a8.2,8.2,0,0,1-12.763-1.147Z" fill="#464b6b" opacity="0.25"/>
            </g>
            <path id="Trazado_108253" data-name="Trazado 108253" d="M280.306,186.382s-2.274,14-1.539,20.62c.123,1.108.37,42.718.616,43.088s-12.8.369-12.8.369l9.012-61.783Z" fill="#fff"/>
            <path id="Trazado_108254" data-name="Trazado 108254" d="M281.476,184.658c-.185.123-3.324,2.524-3.324,2.524l-.8,3.016,1.538,1.908-2.154,1.477s-2.524,5.663.123,18.774,2.093,9.849,2.093,9.849Z" fill="#fff"/>
            <path id="Trazado_108255" data-name="Trazado 108255" d="M281.415,187.119c-.244-.178-3.383,2.222-3.383,2.222l-.8,3.016,1.538,1.908-2.154,1.478s-2.524,5.663.123,18.774,2.152,10.15,2.152,10.15Z" fill="#224382"/>
            <path id="Trazado_108256" data-name="Trazado 108256" d="M280.975,184.457c-.185.123-2.823,2.725-2.823,2.725l-.8,3.016,1.538,1.908-2.154,1.477s-2.524,5.663.123,18.774,2.152,10.81,2.152,10.81Z" fill="#fff"/>
            <g id="Grupo_72712" data-name="Grupo 72712">
              <g id="Grupo_72709" data-name="Grupo 72709">
                <path id="Trazado_108257" data-name="Trazado 108257" d="M280.293,184c-3.352,3.241-4.895,7.174-5.868,11.734s-1.114,9.249-1.478,13.9" fill="none" stroke="#35445c" stroke-miterlimit="10" stroke-width="0.415"/>
                <path id="Trazado_108258" data-name="Trazado 108258" d="M274.651,211.947a4.609,4.609,0,0,0-.4-1.472,1.557,1.557,0,0,0-1.182-.872,1.847,1.847,0,0,0-1.589,1.071,4.194,4.194,0,0,0-.38.865c-.025.08-.039.186.031.232a.211.211,0,0,0,.145.015c1.037-.134,2.079.378,3.114.233" fill="#35445c"/>
                <path id="Trazado_108259" data-name="Trazado 108259" d="M270.953,212.542h3.73a.438.438,0,0,0,.439-.438h0a.438.438,0,0,0-.439-.439h-3.73a.439.439,0,0,0-.44.439h0A.439.439,0,0,0,270.953,212.542Z" fill="#adbede"/>
              </g>
              <g id="Grupo_72711" data-name="Grupo 72711">
                <g id="Grupo_72710" data-name="Grupo 72710">
                  <path id="Trazado_108260" data-name="Trazado 108260" d="M286.206,215.984a2.593,2.593,0,0,0,2.159.546,2.265,2.265,0,0,0,.985-.9,15.391,15.391,0,0,0,2.143-5.5,18.827,18.827,0,0,0,.517-5.776,9.257,9.257,0,0,0-2.136-5.311,3.984,3.984,0,0,0-1.29-1.016c-1.4-.634-3.062.02-4.243,1a15.2,15.2,0,0,0-3.45,4.666,37.487,37.487,0,0,0-2.275,4.933,5.473,5.473,0,0,0-.441,2.611,2.17,2.17,0,0,0,1.633,1.891" fill="none" stroke="#35445c" stroke-miterlimit="10" stroke-width="0.415"/>
                  <path id="Trazado_108261" data-name="Trazado 108261" d="M288.98,197.8c1.624-3.58,3.28-7.309,3.223-11.239a2.858,2.858,0,0,0-.986-2.227" fill="none" stroke="#35445c" stroke-miterlimit="10" stroke-width="0.415"/>
                </g>
                <path id="Trazado_108262" data-name="Trazado 108262" d="M285.088,216.871l.282.081a1.1,1.1,0,0,0,1.357-.748v0a1.1,1.1,0,0,0-.749-1.357l-.282-.082Z" fill="#adbede"/>
                <path id="Trazado_108263" data-name="Trazado 108263" d="M279.854,214.674l-.255-.148a1.094,1.094,0,0,1-.4-1.5l0,0a1.094,1.094,0,0,1,1.5-.4l.255.147Z" fill="#adbede"/>
              </g>
            </g>
            <g id="Grupo_72716" data-name="Grupo 72716">
              <g id="Grupo_72713" data-name="Grupo 72713">
                <path id="Trazado_108264" data-name="Trazado 108264" d="M273.613,223.1l-8.74-27.424a5.451,5.451,0,0,0-3.01-3.365l-17.9-7.729a.677.677,0,0,0-.888.859l8.83,26.868a5.455,5.455,0,0,0,2.854,3.252l17.941,8.384A.676.676,0,0,0,273.613,223.1Z" fill="#2d4773"/>
                <path id="Trazado_108265" data-name="Trazado 108265" d="M272.111,224.706l-8.74-27.424a5.45,5.45,0,0,0-3.011-3.365l-17.895-7.729a.677.677,0,0,0-.888.859l8.831,26.868a5.452,5.452,0,0,0,2.854,3.252l17.941,8.384A.677.677,0,0,0,272.111,224.706Z" fill="#fff"/>
                <line id="Línea_185" data-name="Línea 185" x1="15.49" y1="6.626" transform="translate(244.399 192.15)" fill="none" stroke="#1d254a" stroke-miterlimit="10" stroke-width="0.331"/>
                <line id="Línea_186" data-name="Línea 186" x1="12.792" y1="5.285" transform="translate(247.097 196.41)" fill="none" stroke="#1d254a" stroke-miterlimit="10" stroke-width="0.331"/>
                <path id="Trazado_108266" data-name="Trazado 108266" d="M266.825,218.179l-16.569-7.256,1.079,3.47,16.877,7.572Z" fill="#f2579f"/>
              </g>
              <g id="Grupo_72715" data-name="Grupo 72715">
                <g id="Grupo_72714" data-name="Grupo 72714">
                  <path id="Trazado_108267" data-name="Trazado 108267" d="M293.517,233.063c-4.09,3.615-26.864-19.962-26.864-19.962-1.064-.6-6.593-6.933-6.366-7.615.194-.581,3.61,1.525,3.638,1.364.075-.442-3.3-2.387-2.5-3.183.538-.538,3,1.783,3.524,1.478s-3.907-3.423-2.387-3.3c1.364.114,8.918,5.729,8.918,5.729s15.351,11.981,15.4,11.622Z" fill="#f1b7a5"/>
                  <path id="Trazado_108268" data-name="Trazado 108268" d="M271.228,207.543s-1.926-4-2.525-3.81-3.162,1.648-2.987,2.681,2.406-.078,2.406-.078-.172,2.372,1.024,2.55S271.228,207.543,271.228,207.543Z" fill="#f1b7a5"/>
                </g>
                <path id="Trazado_108269" data-name="Trazado 108269" d="M301.118,189.729s-5.73,8.647-7.185,12.688-7.712,16.09-7.712,16.09l-12.8-9.822-3.59,8.651s18.764,18.993,23.335,17S317.212,198.439,301.118,189.729Z" fill="#fff"/>
              </g>
            </g>
          </g>
        </g>
      </g>
    </g>
  </g>
</svg>
