<svg xmlns="http://www.w3.org/2000/svg" width="394.8" height="229.706" viewBox="0 0 394.8 229.706">
  <g id="Grupo_72584" data-name="Grupo 72584" transform="translate(-196.736 -241.722)">
    <path id="Trazado_107881" data-name="Trazado 107881" d="M576.209,456.8s-10.437,2.908-39.344,3.051c-20.8.1-21.007-1.171-48.987-1.1-5.893.032-164.251.812-177.946.88-4.332.021-46.309-.376-50.077.248a88.249,88.249,0,0,1-39.351-2.89c-.16-.053-.241-.083-.241-.083C208.135,424.928,164.6,314.23,239.954,292.071c21.657-6.368,52.3-1.294,74.8-5.012,41.664-6.888,51.621-26.919,77.867-36.627,34.836-12.891,66.589-13.449,94.325,11.928,18.164,16.618,7.213,31.4,37.254,49.721,22.661,13.826,33.3-14.12,60.924,49.1C596.092,386.282,592.846,442.31,576.209,456.8Z" transform="translate(0)" fill="#fe851b" opacity="0.16"/>
    <path id="Trazado_107882" data-name="Trazado 107882" d="M686.808,1616.932c0-6.4-84.572-11.582-188.9-11.582s-188.9,5.185-188.9,11.582,84.572,11.581,188.9,11.581S686.808,1623.328,686.808,1616.932Z" transform="translate(-95.271 -1157.085)" fill="#00357b" opacity="0.4"/>
    <g id="Grupo_72564" data-name="Grupo 72564" transform="translate(222.267 350.587)">
      <path id="Trazado_107883" data-name="Trazado 107883" d="M721.073,1513.618l-6.466,22.3h-5.351l2.007-22.3Z" transform="translate(-657.157 -1429.835)" fill="#91b5f8"/>
      <path id="Trazado_107884" data-name="Trazado 107884" d="M1814.28,1513.618l6.466,22.3h5.352l-2.007-22.3Z" transform="translate(-1594.808 -1429.835)" fill="#91b5f8"/>
      <path id="Trazado_107885" data-name="Trazado 107885" d="M528.665,1504.883l-6.466,22.3h-5.351l2.007-22.3Z" transform="translate(-493.891 -1422.423)" fill="#91b5f8"/>
      <path id="Trazado_107886" data-name="Trazado 107886" d="M590.927,978.137l-3.694-9.666a12.444,12.444,0,0,0-11.625-8H377.591a12.3,12.3,0,0,0-12.121,14.378l9.272,54.023a20.348,20.348,0,0,0,20.054,16.906H592.871l20.98-62.551H598.318A7.912,7.912,0,0,1,590.927,978.137Z" transform="translate(-365.29 -960.468)" fill="#fa7267"/>
      <path id="Trazado_107887" data-name="Trazado 107887" d="M397.576,983.4a7.911,7.911,0,0,1-7.39-5.088l-3.694-9.666a12.439,12.439,0,0,0-10.3-7.924,12.3,12.3,0,0,0-10.717,14.3l9.272,54.023a20.347,20.347,0,0,0,20.054,16.906h40.041L413.109,983.4Z" transform="translate(-365.29 -960.688)" fill="#ea5f57"/>
      <path id="Trazado_107888" data-name="Trazado 107888" d="M795.378,1170.745H636.49a21.388,21.388,0,0,1-20.475-15.864l-9.826-35.286a9.328,9.328,0,0,1,6.205-11.488,9.009,9.009,0,0,1,11.179,6.376l8.412,30.208a10.075,10.075,0,0,0,9.645,7.473H790.409a10.063,10.063,0,0,0,9.55-7.152l9.649-30.819a8.995,8.995,0,0,1,11.376-6,9.346,9.346,0,0,1,5.837,11.69l-11.171,35.679A21.363,21.363,0,0,1,795.378,1170.745Z" transform="translate(-569.404 -1085.438)" fill="#f7928d"/>
      <path id="Rectángulo_9045" data-name="Rectángulo 9045" d="M4.879,0h171.97a4.878,4.878,0,0,1,4.878,4.878v7.443a4.879,4.879,0,0,1-4.879,4.879H4.879A4.879,4.879,0,0,1,0,12.321V4.879A4.879,4.879,0,0,1,4.879,0Z" transform="translate(56.336 56.073)" fill="#ea5f57"/>
    </g>
    <g id="Grupo_72567" data-name="Grupo 72567" transform="translate(447.161 288.387)">
      <circle id="Elipse_5561" data-name="Elipse 5561" cx="15.388" cy="15.388" r="15.388" transform="translate(0 7.899) rotate(-14.872)" fill="#91b5f8"/>
      <circle id="Elipse_5562" data-name="Elipse 5562" cx="12.241" cy="12.241" r="12.241" transform="translate(2.921 11.21) rotate(-19.33)" fill="#fff"/>
      <path id="Trazado_107889" data-name="Trazado 107889" d="M1965.964,664.845a1.37,1.37,0,1,0-1.37,1.37A1.371,1.371,0,0,0,1965.964,664.845Z" transform="translate(-1946.085 -646.259)" fill="#7c9af2"/>
      <g id="Grupo_72565" data-name="Grupo 72565" transform="translate(17.414 8.722)">
        <path id="Trazado_107890" data-name="Trazado 107890" d="M1966.142,617.53h-.274a.272.272,0,1,1,0-.544h0l.013-8.446-.34.493a.272.272,0,1,1-.447-.309l.837-1.214a.272.272,0,0,1,.5.155l-.015,9.593A.272.272,0,0,1,1966.142,617.53Z" transform="translate(-1965.048 -607.393)" fill="#7c9af2"/>
        <path id="Trazado_107891" data-name="Trazado 107891" d="M1971.769,609.073a.271.271,0,0,1-.211-.1l-.925-1.135a.272.272,0,0,1,.422-.344l.925,1.135a.272.272,0,0,1-.211.444Z" transform="translate(-1969.736 -607.393)" fill="#7c9af2"/>
      </g>
      <g id="Grupo_72566" data-name="Grupo 72566" transform="translate(12.5 17.434)">
        <path id="Trazado_107892" data-name="Trazado 107892" d="M1933.685,672.4a.27.27,0,0,1-.2-.083l-.808-.837a.272.272,0,0,1,.2-.461h0l6.382.015a.272.272,0,0,1,.271.272v.274a.272.272,0,1,1-.544,0v0l-5.468-.012.361.374a.272.272,0,0,1-.2.461Z" transform="translate(-1932.605 -670.094)" fill="#7c9af2"/>
        <path id="Trazado_107893" data-name="Trazado 107893" d="M1932.877,666.381a.272.272,0,0,1-.211-.444l.755-.925a.272.272,0,0,1,.422.344l-.755.925A.272.272,0,0,1,1932.877,666.381Z" transform="translate(-1932.605 -664.912)" fill="#7c9af2"/>
      </g>
    </g>
    <g id="Grupo_72568" data-name="Grupo 72568" transform="translate(377.759 246.451)">
      <path id="Rectángulo_9046" data-name="Rectángulo 9046" d="M7.295,0H44.911a7.295,7.295,0,0,1,7.295,7.295v5.358a0,0,0,0,1,0,0H0a0,0,0,0,1,0,0V7.295A7.295,7.295,0,0,1,7.295,0Z" transform="translate(0 35.673)" fill="#fff"/>
      <path id="Trazado_107894" data-name="Trazado 107894" d="M1561.779,272.943v38.1h-.951V273.223Q1561.3,273.08,1561.779,272.943Z" transform="translate(-1535.237 -272.943)" fill="#fff"/>
    </g>
    <g id="Grupo_72572" data-name="Grupo 72572" transform="translate(242.226 301.641)">
      <g id="Grupo_72570" data-name="Grupo 72570" transform="translate(33.56)">
        <g id="Grupo_72569" data-name="Grupo 72569">
          <rect id="Rectángulo_9047" data-name="Rectángulo 9047" width="24.892" height="33.044" transform="translate(0.731 0.731)" fill="#fff"/>
          <path id="Trazado_107895" data-name="Trazado 107895" d="M718.638,637.314v34.505h26.353V637.314Zm1.461,1.461h23.432v31.584H720.1Z" transform="translate(-718.638 -637.314)" fill="#91b5f8"/>
        </g>
        <rect id="Rectángulo_9048" data-name="Rectángulo 9048" width="20.159" height="29.1" transform="translate(3.01 2.747)" fill="#bdd1f9"/>
      </g>
      <path id="Trazado_107896" data-name="Trazado 107896" d="M497.067,865.859H573.7v-1.7H497.067v1.7Z" transform="translate(-497.067 -829.798)" fill="#bdd1f9"/>
      <g id="Grupo_72571" data-name="Grupo 72571" transform="translate(8.268 0.731)">
        <path id="Trazado_107897" data-name="Trazado 107897" d="M624.829,682.675l-.015,0a.072.072,0,0,1-.052-.087c2.587-9.981,5.018-17.05,6.844-19.906a1.41,1.41,0,0,0,.081-.132.072.072,0,0,1,.1-.034.071.071,0,0,1,.034.1,1.54,1.54,0,0,1-.09.148c-1.819,2.844-4.243,9.9-6.825,19.865a.072.072,0,0,1-.073.053Z" transform="translate(-613.688 -659.422)" fill="#91b5f8"/>
        <path id="Trazado_107898" data-name="Trazado 107898" d="M670.523,653.821a.927.927,0,1,1-1.162-.786.7.7,0,1,1,1.162.786Z" transform="translate(-651.273 -651.123)" fill="#91b5f8"/>
        <path id="Trazado_107899" data-name="Trazado 107899" d="M656.451,664.07a.948.948,0,1,1-1.358.466.718.718,0,0,1,1.358-.466Z" transform="translate(-639.393 -660.337)" fill="#91b5f8"/>
        <path id="Trazado_107900" data-name="Trazado 107900" d="M664.782,673.368a.948.948,0,1,1-.147-1.428.718.718,0,1,1,.147,1.428Z" transform="translate(-646.261 -667.423)" fill="#91b5f8"/>
        <path id="Trazado_107901" data-name="Trazado 107901" d="M630.712,706.935a6.183,6.183,0,0,1,.025,2.895,6.183,6.183,0,0,1-2.207-1.872,1.205,1.205,0,1,1,2.182-1.023Z" transform="translate(-616.789 -696.532)" fill="#91b5f8"/>
        <path id="Trazado_107902" data-name="Trazado 107902" d="M646.488,720.091a6.181,6.181,0,0,1-2.826-.627,6.186,6.186,0,0,1,2.322-1.73,1.2,1.2,0,0,1,.5,2.357Z" transform="translate(-629.725 -706.262)" fill="#91b5f8"/>
        <path id="Trazado_107903" data-name="Trazado 107903" d="M618,724.356a7.563,7.563,0,0,1,.811,3.448,7.568,7.568,0,0,1-3.141-1.64,1.475,1.475,0,1,1,2.33-1.809Z" transform="translate(-605.713 -711.419)" fill="#91b5f8"/>
        <path id="Trazado_107904" data-name="Trazado 107904" d="M640.661,740.6a7.578,7.578,0,0,1-3.361-1.119,7.568,7.568,0,0,1,3.044-1.813,1.475,1.475,0,1,1,.318,2.932Z" transform="translate(-624.327 -723.193)" fill="#91b5f8"/>
        <path id="Trazado_107905" data-name="Trazado 107905" d="M611.758,745.869a7.564,7.564,0,0,1,.811,3.448,7.568,7.568,0,0,1-3.141-1.64,1.475,1.475,0,0,1,2.33-1.809Z" transform="translate(-600.415 -729.674)" fill="#91b5f8"/>
        <path id="Trazado_107906" data-name="Trazado 107906" d="M634.422,762.114A7.563,7.563,0,0,1,631.061,761a7.561,7.561,0,0,1,3.042-1.813,1.475,1.475,0,0,1,.319,2.932Z" transform="translate(-619.033 -741.447)" fill="#91b5f8"/>
        <path id="Trazado_107907" data-name="Trazado 107907" d="M599.72,775.26a7.576,7.576,0,0,1,2.063,2.88,7.56,7.56,0,0,1-3.527-.32,1.474,1.474,0,1,1,1.464-2.56Z" transform="translate(-590.567 -754.931)" fill="#91b5f8"/>
        <path id="Trazado_107908" data-name="Trazado 107908" d="M628.339,783.539a7.569,7.569,0,0,1-3.474-.69,7.56,7.56,0,0,1,2.792-2.18,1.475,1.475,0,0,1,.682,2.869Z" transform="translate(-613.775 -759.654)" fill="#91b5f8"/>
        <path id="Trazado_107909" data-name="Trazado 107909" d="M649.947,677.734a.964.964,0,1,1-1.38.473.729.729,0,0,1,1.38-.473Z" transform="translate(-633.854 -671.925)" fill="#91b5f8"/>
        <path id="Trazado_107910" data-name="Trazado 107910" d="M658.075,687.357a.963.963,0,1,1-.15-1.451.729.729,0,0,1,.15,1.451Z" transform="translate(-640.547 -679.274)" fill="#91b5f8"/>
        <path id="Trazado_107911" data-name="Trazado 107911" d="M639.381,689.8a5.312,5.312,0,0,1-.043,2.489,5.315,5.315,0,0,1-1.856-1.658,1.036,1.036,0,1,1,1.9-.831Z" transform="translate(-624.408 -682.057)" fill="#91b5f8"/>
        <path id="Trazado_107912" data-name="Trazado 107912" d="M652.457,702.979a5.324,5.324,0,0,1-2.359-.8,5.325,5.325,0,0,1,2.144-1.264,1.036,1.036,0,0,1,.215,2.062Z" transform="translate(-635.187 -692.01)" fill="#91b5f8"/>
        <path id="Trazado_107913" data-name="Trazado 107913" d="M564.825,674.064h.015a.072.072,0,0,0,.063-.082c-1.276-10.484-2.788-17.991-4.256-21.139-.032-.07-.056-.12-.065-.145a.073.073,0,0,0-.093-.047.074.074,0,0,0-.047.092c.012.034.034.082.072.162,1.462,3.134,2.969,10.625,4.245,21.095a.073.073,0,0,0,.066.064Z" transform="translate(-559.108 -651.057)" fill="#bdd1f9"/>
        <path id="Trazado_107914" data-name="Trazado 107914" d="M552.972,643.181a.949.949,0,1,0,1.286-.641.718.718,0,1,0-1.286.641Z" transform="translate(-552.707 -642.141)" fill="#bdd1f9"/>
        <path id="Trazado_107915" data-name="Trazado 107915" d="M566.386,655.617a.971.971,0,1,0,1.315.656.735.735,0,1,0-1.315-.656Z" transform="translate(-564.038 -653.23)" fill="#bdd1f9"/>
        <path id="Trazado_107916" data-name="Trazado 107916" d="M552.216,663.293a.972.972,0,1,0,.344-1.43.735.735,0,1,0-.344,1.43Z" transform="translate(-551.652 -658.859)" fill="#bdd1f9"/>
        <path id="Trazado_107917" data-name="Trazado 107917" d="M579.568,702.232a6.336,6.336,0,0,0-.419,2.936,6.322,6.322,0,0,0,2.5-1.6,1.234,1.234,0,1,0-2.077-1.334Z" transform="translate(-574.937 -692.648)" fill="#bdd1f9"/>
        <path id="Trazado_107918" data-name="Trazado 107918" d="M555.533,712.418a6.329,6.329,0,0,0,2.954-.254,6.321,6.321,0,0,0-2.122-2.07,1.234,1.234,0,1,0-.832,2.324Z" transform="translate(-554.25 -699.74)" fill="#bdd1f9"/>
        <path id="Trazado_107919" data-name="Trazado 107919" d="M583.57,721.422a7.746,7.746,0,0,0-1.289,3.392,7.741,7.741,0,0,0,3.41-1.24,1.51,1.51,0,1,0-2.121-2.151Z" transform="translate(-577.624 -709.045)" fill="#bdd1f9"/>
        <path id="Trazado_107920" data-name="Trazado 107920" d="M553.354,733.542a7.751,7.751,0,0,0,3.564-.681,7.744,7.744,0,0,0-2.844-2.253,1.511,1.511,0,0,0-.72,2.934Z" transform="translate(-552.12 -717.172)" fill="#bdd1f9"/>
        <path id="Trazado_107921" data-name="Trazado 107921" d="M587.005,744.112a7.748,7.748,0,0,0-1.289,3.392,7.753,7.753,0,0,0,3.41-1.24,1.51,1.51,0,0,0-2.121-2.152Z" transform="translate(-580.539 -728.298)" fill="#bdd1f9"/>
        <path id="Trazado_107922" data-name="Trazado 107922" d="M556.783,756.232a7.752,7.752,0,0,0,3.564-.681A7.751,7.751,0,0,0,557.5,753.3a1.51,1.51,0,1,0-.719,2.934Z" transform="translate(-555.029 -736.424)" fill="#bdd1f9"/>
        <path id="Trazado_107923" data-name="Trazado 107923" d="M591.4,775.582a7.751,7.751,0,0,0-2.485,2.645,7.75,7.75,0,0,0,3.626.152,1.51,1.51,0,1,0-1.141-2.8Z" transform="translate(-583.266 -755.275)" fill="#bdd1f9"/>
        <path id="Trazado_107924" data-name="Trazado 107924" d="M560.449,778.861a7.746,7.746,0,0,0,3.621-.23,7.754,7.754,0,0,0-2.541-2.591,1.51,1.51,0,0,0-1.08,2.821Z" transform="translate(-558.293 -755.674)" fill="#bdd1f9"/>
        <path id="Trazado_107925" data-name="Trazado 107925" d="M571,670.362a.987.987,0,1,0,1.337.667.747.747,0,0,0-1.337-.667Z" transform="translate(-567.951 -665.737)" fill="#bdd1f9"/>
        <path id="Trazado_107926" data-name="Trazado 107926" d="M556.92,678.386a.987.987,0,1,0,.348-1.453.747.747,0,1,0-.348,1.453Z" transform="translate(-555.636 -671.646)" fill="#bdd1f9"/>
        <path id="Trazado_107927" data-name="Trazado 107927" d="M575.589,683.8a5.448,5.448,0,0,0-.294,2.533A5.454,5.454,0,0,0,577.4,684.9a1.061,1.061,0,1,0-1.815-1.1Z" transform="translate(-571.666 -677.056)" fill="#bdd1f9"/>
        <path id="Trazado_107928" data-name="Trazado 107928" d="M554.725,694.488a5.45,5.45,0,0,0,2.5-.491,5.436,5.436,0,0,0-2.006-1.573,1.061,1.061,0,1,0-.5,2.064Z" transform="translate(-553.569 -684.782)" fill="#bdd1f9"/>
        <path id="Trazado_107929" data-name="Trazado 107929" d="M608.846,678.215l-.015,0a.071.071,0,0,1-.072-.071c-.078-10.31.445-17.767,1.473-21,.022-.072.04-.123.044-.149a.071.071,0,1,1,.14.026,1.562,1.562,0,0,1-.049.166c-1.023,3.217-1.543,10.659-1.465,20.954a.07.07,0,0,1-.056.07Z" transform="translate(-600.103 -654.699)" fill="#6a86ce"/>
        <path id="Trazado_107930" data-name="Trazado 107930" d="M618.378,647.254a.927.927,0,1,1-1.326-.459.7.7,0,1,1,1.326.459Z" transform="translate(-607.11 -645.689)" fill="#6a86ce"/>
        <path id="Trazado_107931" data-name="Trazado 107931" d="M606.484,661.028a.948.948,0,1,1-1.192.8.718.718,0,1,1,1.192-.8Z" transform="translate(-597.064 -657.898)" fill="#6a86ce"/>
        <path id="Trazado_107932" data-name="Trazado 107932" d="M617.289,666.642a.948.948,0,1,1-.511-1.342.718.718,0,1,1,.511,1.342Z" transform="translate(-605.886 -661.753)" fill="#6a86ce"/>
        <path id="Trazado_107933" data-name="Trazado 107933" d="M593.3,708.291a6.187,6.187,0,0,1,.772,2.79,6.194,6.194,0,0,1-2.616-1.238,1.205,1.205,0,0,1,1.845-1.552Z" transform="translate(-585.183 -697.907)" fill="#6a86ce"/>
        <path id="Trazado_107934" data-name="Trazado 107934" d="M612.942,714.945a6.187,6.187,0,0,1-2.892.125,6.185,6.185,0,0,1,1.8-2.271,1.2,1.2,0,0,1,1.1,2.146Z" transform="translate(-601.201 -701.985)" fill="#6a86ce"/>
        <path id="Trazado_107935" data-name="Trazado 107935" d="M585.851,727.96a7.584,7.584,0,0,1,1.674,3.122,7.563,7.563,0,0,1-3.457-.773,1.474,1.474,0,1,1,1.783-2.349Z" transform="translate(-578.663 -714.706)" fill="#6a86ce"/>
        <path id="Trazado_107936" data-name="Trazado 107936" d="M612.71,735.3a7.566,7.566,0,0,1-3.536-.213,7.564,7.564,0,0,1,2.472-2.537,1.474,1.474,0,0,1,1.064,2.75Z" transform="translate(-600.459 -718.774)" fill="#6a86ce"/>
        <path id="Trazado_107937" data-name="Trazado 107937" d="M585.375,750.356a7.562,7.562,0,0,1,1.673,3.122,7.567,7.567,0,0,1-3.457-.773,1.475,1.475,0,0,1,1.784-2.349Z" transform="translate(-578.259 -733.71)" fill="#6a86ce"/>
        <path id="Trazado_107938" data-name="Trazado 107938" d="M612.233,757.7a7.56,7.56,0,0,1-3.535-.213,7.544,7.544,0,0,1,2.471-2.538,1.475,1.475,0,1,1,1.064,2.75Z" transform="translate(-600.056 -737.777)" fill="#6a86ce"/>
        <path id="Trazado_107939" data-name="Trazado 107939" d="M581.333,781.857a7.556,7.556,0,0,1,2.737,2.249,7.562,7.562,0,0,1-3.49.6,1.475,1.475,0,0,1,.754-2.851Z" transform="translate(-575.266 -760.653)" fill="#6a86ce"/>
        <path id="Trazado_107940" data-name="Trazado 107940" d="M612.451,780.067a7.562,7.562,0,0,1-3.535.231,7.565,7.565,0,0,1,2.135-2.826,1.474,1.474,0,1,1,1.4,2.6Z" transform="translate(-600.238 -756.823)" fill="#6a86ce"/>
        <path id="Trazado_107941" data-name="Trazado 107941" d="M603.739,675.891a.963.963,0,1,1-1.211.813.729.729,0,1,1,1.211-.813Z" transform="translate(-594.717 -670.505)" fill="#6a86ce"/>
        <path id="Trazado_107942" data-name="Trazado 107942" d="M614.443,681.851a.963.963,0,1,1-.519-1.363.729.729,0,0,1,.519,1.363Z" transform="translate(-603.448 -674.639)" fill="#6a86ce"/>
        <path id="Trazado_107943" data-name="Trazado 107943" d="M597.034,689.777a5.315,5.315,0,0,1,.6,2.415,5.318,5.318,0,0,1-2.222-1.123,1.036,1.036,0,1,1,1.62-1.293Z" transform="translate(-588.594 -682.231)" fill="#6a86ce"/>
        <path id="Trazado_107944" data-name="Trazado 107944" d="M613.594,697.37a5.317,5.317,0,0,1-2.484-.162,5.313,5.313,0,0,1,1.746-1.775,1.036,1.036,0,1,1,.738,1.936Z" transform="translate(-602.103 -687.304)" fill="#6a86ce"/>
        <path id="Trazado_107945" data-name="Trazado 107945" d="M571.228,805.188H574.7a4.927,4.927,0,0,0,4.926-4.927v-5.6H566.3v5.6a4.927,4.927,0,0,0,4.926,4.927Z" transform="translate(-564.083 -771.561)" fill="#91b5f8"/>
      </g>
    </g>
    <g id="Grupo_72575" data-name="Grupo 72575" transform="translate(280.421 321.571)">
      <path id="Trazado_107946" data-name="Trazado 107946" d="M984.174,1066.672s3.2,15.266,4.52,17.91,8.946,12.264,8.946,12.264l-4.793-.629s-8.006-5.677-8.48-11.015c-.2-2.3-4.619-16.373-4.619-16.373Z" transform="translate(-944.833 -1021.57)" fill="#fc9fa4"/>
      <path id="Trazado_107947" data-name="Trazado 107947" d="M1120.485,1588.954s-.819,5.736,1.228,8.6,6.277,6.965,5.186,8.058-13.237-5.053-12.964-6.419,2.184-6.965,1.774-10.243Z" transform="translate(-1058.691 -1464.744)" fill="#d8686e"/>
      <path id="Trazado_107948" data-name="Trazado 107948" d="M1114.671,1638.259c-.334,1.264-.639,2.289-.736,2.775-.273,1.366,11.873,7.512,12.964,6.419.81-.81-1.308-3.273-3.291-5.662C1122.492,1642.494,1119.662,1643.24,1114.671,1638.259Z" transform="translate(-1058.691 -1506.581)" fill="#080435"/>
      <path id="Trazado_107949" data-name="Trazado 107949" d="M1026.585,1598.248s-.819,5.736,1.228,8.6,6.277,6.965,5.186,8.058-13.237-5.053-12.964-6.419,2.183-6.965,1.774-10.243Z" transform="translate(-979.014 -1472.63)" fill="#d8686e"/>
      <path id="Trazado_107950" data-name="Trazado 107950" d="M841.1,1219.619s-3.39,16.486,2.009,18.808,23.551,6.411,24.637,9.736,1.381,30.485,1.381,30.485l4.757.141s5.2-30.555,4.945-33.527c-.58-6.835-.9-5.259-.9-5.259s2.443-.757,3.529,5.152c.481,2.622,1.819,32.934,1.819,32.934l4.652-.073s6.751-41.348,1.963-44.679c-6.9-4.8-27.319-11.34-27.319-11.34Z" transform="translate(-826.291 -1151.35)" fill="#d8686e"/>
      <path id="Trazado_107951" data-name="Trazado 107951" d="M773.925,956.272a18.71,18.71,0,0,1,9.613,2.905c2.456,1.735,7.236,13.18,7.236,13.18l-4.816,2.465s.583,4.81-2.184,6.646c0,0-.49,7.8,2.607,13.775,0,0-14.993,6.612-25.7,3.721l-4.953-20.216-6.492-1.394s.558-14.375,7.6-17.843S769.561,955.623,773.925,956.272Z" transform="translate(-749.234 -927.675)" fill="#fff"/>
      <path id="Trazado_107952" data-name="Trazado 107952" d="M974.378,1052.037h0a.112.112,0,0,1-.128-.092c-.376-2.271-2.924-4.843-2.95-4.869a.112.112,0,1,1,.158-.158c.107.107,2.625,2.649,3.013,4.99A.112.112,0,0,1,974.378,1052.037Z" transform="translate(-937.634 -1004.781)" fill="#060423"/>
      <path id="Trazado_107953" data-name="Trazado 107953" d="M852.52,1105.878a9.2,9.2,0,0,1-6.409-1.313.112.112,0,0,1,.111-.194c6.192,3.552,10.089-.679,10.127-.722a.112.112,0,0,1,.167.149A7.716,7.716,0,0,1,852.52,1105.878Z" transform="translate(-831.39 -1052.915)" fill="#060423"/>
      <path id="Trazado_107954" data-name="Trazado 107954" d="M807.424,1062.878a.112.112,0,0,1-.038,0l-1.175-.187a.112.112,0,0,1,.035-.221l1.059.169.934-8.346a.111.111,0,0,1,.124-.1.112.112,0,0,1,.1.124l-.947,8.462a.112.112,0,0,1-.09.1Z" transform="translate(-797.501 -1010.981)" fill="#060423"/>
      <path id="Trazado_107955" data-name="Trazado 107955" d="M1020.771,1647.553c-.334,1.264-.639,2.289-.736,2.775-.273,1.366,11.873,7.512,12.964,6.419.81-.81-1.308-3.273-3.291-5.662C1028.592,1651.787,1025.762,1652.534,1020.771,1647.553Z" transform="translate(-979.014 -1514.467)" fill="#080435"/>
      <g id="Grupo_72573" data-name="Grupo 72573" transform="translate(5.525 0)">
        <path id="Trazado_107956" data-name="Trazado 107956" d="M805.873,768.9c2.354-.083,4.93,1.161,5.6,3.421a8.5,8.5,0,0,0,.662,2.267c.863,1.346,3.026,1.388,3.818,2.777.81,1.42-.339,3.247.091,4.824.283,1.039,1.2,1.775,1.7,2.728a4.739,4.739,0,0,1-.419,4.686,9.026,9.026,0,0,1-3.8,3.044c-.7.331-1.491.69-1.746,1.418a6.622,6.622,0,0,0-.157.784c-.322,1.47-2.018,2.258-3.521,2.2a20.265,20.265,0,0,1-4.363-1.094c-5.1-1.357-10.829.556-15.66-1.58-.535-.237-1.106-.594-1.215-1.169-.157-.831.717-1.475.981-2.278.477-1.453-1.074-2.692-1.757-4.061a3.887,3.887,0,0,1,.642-4.3c.717-.756,1.75-1.224,2.26-2.133a8.148,8.148,0,0,0,.513-2.977,6.868,6.868,0,0,1,3.215-4.73c1.912-1.211,4.06-1.313,6.2-1.807C801.293,770.381,803.375,768.992,805.873,768.9Z" transform="translate(-785.71 -768.9)" fill="#060423"/>
        <path id="Trazado_107957" data-name="Trazado 107957" d="M850.136,783.939a8.545,8.545,0,0,0-8.419,11.2,36.91,36.91,0,0,0,2.613,7.426,8.51,8.51,0,0,1,.855,6.168l-.209.836a1.73,1.73,0,0,0,.921,1.972,6.185,6.185,0,0,0,4.843.594,1.678,1.678,0,0,0,1.109-1.413l.422-4.091h0c5.411-.086,5.717-10.03,6.018-12.948h-.009c.016-.109.031-.218.042-.328A8.544,8.544,0,0,0,850.136,783.939Z" transform="translate(-832.873 -781.656)" fill="#ff8b8d"/>
        <path id="Trazado_107958" data-name="Trazado 107958" d="M931.254,868.053a.745.745,0,1,0-.878.583A.746.746,0,0,0,931.254,868.053Z" transform="translate(-907.957 -852.277)" fill="#060423"/>
        <path id="Trazado_107959" data-name="Trazado 107959" d="M884.526,868.464a.745.745,0,1,0-.878.583A.746.746,0,0,0,884.526,868.464Z" transform="translate(-868.307 -852.625)" fill="#060423"/>
        <path id="Trazado_107960" data-name="Trazado 107960" d="M902.48,905.024s-.609-.494-.994-.408a1.111,1.111,0,0,0-.616.537.861.861,0,0,0-.667-.5,10.717,10.717,0,0,0-1.776.264s1.1,2.028,2.5,1.75a1.87,1.87,0,0,0,1.528-1.579Z" transform="translate(-881.353 -884.052)" fill="#ee3f47"/>
        <path id="Trazado_107961" data-name="Trazado 107961" d="M898.771,905.632a4.408,4.408,0,0,1-3.107-1,.1.1,0,1,1,.136-.16c.1.083,2.415,2.021,4.3.259a.105.105,0,0,1,.143.154A2.785,2.785,0,0,1,898.771,905.632Z" transform="translate(-878.979 -883.916)" fill="#060423"/>
        <path id="Trazado_107962" data-name="Trazado 107962" d="M875.953,859.148a.31.31,0,0,1-.111-.573,3.716,3.716,0,0,1,2.459-.362.31.31,0,0,1,.242.365.317.317,0,0,1-.365.243,3.1,3.1,0,0,0-2.019.287A.309.309,0,0,1,875.953,859.148Z" transform="translate(-862.062 -844.624)" fill="#060423"/>
        <path id="Trazado_107963" data-name="Trazado 107963" d="M926.926,857.208a.31.31,0,0,1-.007-.583,3.677,3.677,0,0,1,2.484.085.31.31,0,0,1-.229.576,3.084,3.084,0,0,0-2.038-.08A.309.309,0,0,1,926.926,857.208Z" transform="translate(-905.36 -843.189)" fill="#060423"/>
        <path id="Trazado_107964" data-name="Trazado 107964" d="M910.228,872.677a1.836,1.836,0,0,1-.75.022.11.11,0,0,1,.033-.217c1.047.161,1.3-.5,1.346-.68a4.186,4.186,0,0,1-.489-2.679.11.11,0,1,1,.216.037,4.012,4.012,0,0,0,.482,2.56.108.108,0,0,1,.016.079A1.183,1.183,0,0,1,910.228,872.677Z" transform="translate(-890.652 -853.866)" fill="#fa5d63"/>
        <path id="Trazado_107965" data-name="Trazado 107965" d="M839.281,794.087a41.533,41.533,0,0,0,2.243-4.428,2.079,2.079,0,0,1,.374-.593,2.134,2.134,0,0,1,.948-.457,2.45,2.45,0,0,1,2.3.119c.666.594.485,1.684.876,2.486.638,1.307,2.607,1.542,3.18,2.878.456,1.064-.158,2.471.581,3.361.3.364.775.551,1.083.911,1,1.169-.293,3.258.711,4.424a48.309,48.309,0,0,0,2.3-4.738,3.393,3.393,0,0,0,.342-1.283,4.879,4.879,0,0,0-1.025-2.3,19.182,19.182,0,0,1-1.49-4.418,19.488,19.488,0,0,0-2.279-5.021,2.385,2.385,0,0,0-.6-.7,2.516,2.516,0,0,0-1.06-.342,27.162,27.162,0,0,0-5.53-.477,10.573,10.573,0,0,0-5.281,1.523,6.6,6.6,0,0,0-1.612,1.433,11.182,11.182,0,0,0-1.211,2.089,8.971,8.971,0,0,0-.988,2.769,8.488,8.488,0,0,0,.156,2.422,6.859,6.859,0,0,0,.6,2.117C835.537,798.93,838.131,795.9,839.281,794.087Z" transform="translate(-825.929 -781.28)" fill="#060423"/>
        <path id="Trazado_107966" data-name="Trazado 107966" d="M841.035,869.56a1.269,1.269,0,0,0-.6-.668,2.138,2.138,0,0,0-2.354-.025c-1.151.936.662,3.921,2.878,2.76C840.96,871.627,841.614,871.1,841.035,869.56Z" transform="translate(-829.846 -853.427)" fill="#ff8b8d"/>
      </g>
      <path id="Trazado_107967" data-name="Trazado 107967" d="M863.3,1238.273s22.785,8.152,24.829,11.25,1.548,15.51,1.548,15.51-3.5,4.193-12.9,4.565-16.077,2.726-17.13,2.726.076-10.03-2.531-11.648-18.87-4.151-20.18-8.885c-1.409-5.091-.9-12.3-.9-12.3Z" transform="translate(-822.816 -1167.179)" fill="#4851ec"/>
      <path id="Trazado_107968" data-name="Trazado 107968" d="M833.852,1107.466a16.2,16.2,0,0,1,10.517,9.831c1.014,2.745,1.464,9.709-.5,11.4-3.962,3.42-17.724,6.306-21.38,6.2-5.463-.165-9.843-.581-10.444-3.222s-3.52-14.252-3.52-14.252Z" transform="translate(-799.549 -1056.185)" fill="#fff"/>
      <path id="Trazado_107969" data-name="Trazado 107969" d="M764.111,1100.085s-.991,11.4-.248,12.578,13.655,6.787,13.655,6.787l-.029,3.732s-16.907-3.352-18.64-4.831-2.438-11.962-2.361-19.9Z" transform="translate(-755.384 -1048.535)" fill="#fc9fa4"/>
      <g id="Grupo_72574" data-name="Grupo 72574" transform="translate(22.105 69.308)">
        <path id="Trazado_107970" data-name="Trazado 107970" d="M895.2,1232.453a4.566,4.566,0,0,1,2.086-.508c1.151.018,4.528.529,5.082.482s3.345-.941,3.865-.783-2.727,1.865-2.727,1.865,2.975-1.067,3.32-.6-2.745,1.893-2.745,1.893,3-.724,3.169-.213-2.729,1.242-2.729,1.242,2.72-.24,2.846.169-3.855,1.626-5.5,1.428-6.7-1.248-6.7-1.248Z" transform="translate(-895.172 -1230.846)" fill="#fc9fa4"/>
        <path id="Trazado_107971" data-name="Trazado 107971" d="M902.866,1227.679a8.647,8.647,0,0,1,2.64-.786c1.145-.062,2.329-.712,2.295-.248s-2.109,1.272-2.109,1.272Z" transform="translate(-901.701 -1226.48)" fill="#fc9fa4"/>
      </g>
      <path id="Trazado_107972" data-name="Trazado 107972" d="M1065.377,1251.665s-.8,3.453-.326,3.626,1.7-2.359,1.692-2.313-.845,2.894-.3,3.341,1.822-2.53,1.822-2.53-.984,2.614-.6,2.9,1.6-2.114,1.771-2.035-1.033,2.062-.567,2.438,2.266-2.356,1.983-2.971a.863.863,0,0,0-.957-.466s-.585-.979-1.207-.921c0,0-1.224-.965-1.749-.514C1066.94,1252.219,1066.306,1251.01,1065.377,1251.665Z" transform="translate(-1017.09 -1178.378)" fill="#fc9fa4"/>
    </g>
    <g id="Grupo_72576" data-name="Grupo 72576" transform="translate(363.261 318.893)">
      <path id="Trazado_107973" data-name="Trazado 107973" d="M1455.416,1576.941s2.352,5.545,1.058,8.974-4.457,8.673-3.067,9.48,11.965-8.609,11.327-9.908-4.052-6.417-4.514-9.82Z" transform="translate(-1429.295 -1450.791)" fill="#fb9391"/>
      <path id="Trazado_107974" data-name="Trazado 107974" d="M1462.775,1624.7a13.1,13.1,0,0,1,1.459,2.553c.6,1.316-10.172,10.639-11.54,9.8-1.014-.625.5-3.812,1.93-6.705C1455.923,1630.786,1458.918,1630.938,1462.775,1624.7Z" transform="translate(-1428.703 -1492.396)" fill="#fa7267"/>
      <path id="Trazado_107975" data-name="Trazado 107975" d="M1397.859,1552.52s3.733,4.728,3.39,8.376-2.009,9.542-.456,9.954,9.268-11.462,8.309-12.547-5.6-5.119-6.946-8.28Z" transform="translate(-1382.454 -1429.031)" fill="#fb9391"/>
      <path id="Trazado_107976" data-name="Trazado 107976" d="M1419.7,1592.2a17.351,17.351,0,0,1,2.175,2.021c.93,1.11-6.943,12.921-8.662,12.427-1.145-.329-.5-3.9.115-7.064C1414.7,1599.67,1417.631,1599.238,1419.7,1592.2Z" transform="translate(-1394.948 -1464.822)" fill="#fa7267"/>
      <path id="Trazado_107977" data-name="Trazado 107977" d="M1326.968,1210.893l29.533,3.045s2.651,16.685-3.423,20.634c-3.126,2.033-19.077,1.094-26.114,1.246a3.347,3.347,0,0,0-3.216,3.97l5.968,27.257s-17.758,1.914-22.424-.9c0,0-14.153-29.636-10.549-37.779,3.391-7.662,28.742-7.944,28.742-7.944Z" transform="translate(-1296.156 -1141.268)" fill="#050521"/>
      <path id="Trazado_107978" data-name="Trazado 107978" d="M1559.153,752.007s-8.272-3.636-12.392,4.7-6.161,18.061-3.753,22.187,10.452,2.917,10.452,2.917,9.652,1.965,13.452-2.192S1568.924,754.3,1559.153,752.007Z" transform="translate(-1504.744 -751.218)" fill="#050521"/>
      <path id="Trazado_107979" data-name="Trazado 107979" d="M1577.251,935.694l1.651,1.979-2.012,6.5-7.84,7.2-2.331,1.051s-2.507-4.934-2.507-5.355-.421-6.222-.421-6.222l.561-2.526,1.51-1.692,2.794-1.609,2.6-.348Z" transform="translate(-1523.253 -906.891)" fill="#fb9391"/>
      <path id="Trazado_107980" data-name="Trazado 107980" d="M1525.794,968.851l-10.667,10.258-.837-11.381-11.6,22.492,1.415,16.994,15.816,2,7.136-32.944Z" transform="translate(-1471.408 -934.934)" fill="#fff"/>
      <path id="Trazado_107981" data-name="Trazado 107981" d="M1453.559,936.979s-9.825,26.833-10.667,36.1-5.363,20.227-5.363,20.227l-9.2-2.1,6.233-25.7-2.819,1.84-3.59-9.9S1437,941.5,1442.19,939.391A40.283,40.283,0,0,1,1453.559,936.979Z" transform="translate(-1408.156 -908.843)" fill="#4851ec"/>
      <path id="Trazado_107982" data-name="Trazado 107982" d="M1569.262,842.071s-.66-1.1-1.24-.693c-1.479,1.044,0,2.589.935,2.95Z" transform="translate(-1526.311 -827.645)" fill="#ea6868"/>
      <path id="Trazado_107983" data-name="Trazado 107983" d="M1587.4,756.054a8.732,8.732,0,0,1,6.815,12.6,37.729,37.729,0,0,1-3.77,7.108,8.689,8.689,0,0,0-1.8,6.1l.212,2.212c-5.193,2.3-7.3-.337-7.3-.337l.235-5.076h0c-5.459-.908-4.259-11.005-4.121-14l.008,0c0-.112,0-.225.007-.338A8.734,8.734,0,0,1,1587.4,756.054Z" transform="translate(-1534.86 -755.274)" fill="#fb9391"/>
      <path id="Trazado_107984" data-name="Trazado 107984" d="M1589.224,835.862a.762.762,0,1,1,.8.723A.762.762,0,0,1,1589.224,835.862Z" transform="translate(-1544.833 -822.362)" fill="#060633"/>
      <path id="Trazado_107985" data-name="Trazado 107985" d="M1317.445,948.882s-3.991-6.421-4.711-6.931-4.175-1.046-4.175-1.046l-2.172,4.522,7.162,5.37,4.162-.9Z" transform="translate(-1304.836 -912.174)" fill="#fc9fa4"/>
      <path id="Trazado_107986" data-name="Trazado 107986" d="M1330.89,927.157a35.56,35.56,0,0,0-2.908-4.831c-.962-1.039-2.135-2.66-2.41-2.341-.731.852,1.9,3.677,2.435,5.721s2.883,1.451,2.883,1.451Z" transform="translate(-1321.008 -894.388)" fill="#fc9fa4"/>
      <path id="Trazado_107987" data-name="Trazado 107987" d="M1302.1,938.028s3.227,1.942,3.662,1.37-3.356-3.063-3.356-3.063,4.113,2.605,4.477,2.133-3.415-3.4-3.415-3.4,3.675,2.812,4.007,2.425-3.333-3.884-3.333-3.884,2.758,3.038,3.534,2.67-2.8-3.995-3.592-4.3-.891,1-.891,1-.684.375-.642.92c0,0-1.116.968-.842,1.605s-1.083,1.174.392,2.525Z" transform="translate(-1300.604 -904.56)" fill="#fb9391"/>
      <path id="Trazado_107988" data-name="Trazado 107988" d="M1636.422,843.377a.762.762,0,1,1,.8.723A.762.762,0,0,1,1636.422,843.377Z" transform="translate(-1584.883 -828.739)" fill="#060633"/>
      <path id="Trazado_107989" data-name="Trazado 107989" d="M1639.1,834.1a.317.317,0,0,0,.2-.562,3.8,3.8,0,0,0-2.432-.74.317.317,0,0,0-.3.332.325.325,0,0,0,.332.3,3.169,3.169,0,0,1,2,.6A.317.317,0,0,0,1639.1,834.1Z" transform="translate(-1585.003 -820.438)" fill="#060633"/>
      <path id="Trazado_107990" data-name="Trazado 107990" d="M1587.567,824.875a.317.317,0,0,0,.1-.588,3.762,3.762,0,0,0-2.525-.292.317.317,0,1,0,.144.617,3.157,3.157,0,0,1,2.073.229A.316.316,0,0,0,1587.567,824.875Z" transform="translate(-1541.158 -812.888)" fill="#060633"/>
      <path id="Trazado_107991" data-name="Trazado 107991" d="M1606.359,842.855a1.357,1.357,0,0,1-1.171-1.259.266.266,0,0,1,.069-.185,3.943,3.943,0,0,0,.836-2.408.267.267,0,0,1,.533-.011,4.479,4.479,0,0,1-.893,2.683c.043.212.237.693,1.095.69a.267.267,0,0,1,0,.534A2.388,2.388,0,0,1,1606.359,842.855Z" transform="translate(-1558.38 -825.475)" fill="#ea6868"/>
      <path id="Trazado_107992" data-name="Trazado 107992" d="M1575.638,760.942s-3.423,2.564-6.387,4.907-2.18,11.663-2.18,11.663l-3.181-7.989s1.016-15.629,11.99-13.9,8.111,12.775,6.316,15.078-1.88.543-1.88.543S1575.946,763.067,1575.638,760.942Z" transform="translate(-1523.337 -754.84)" fill="#050521"/>
      <path id="Trazado_107993" data-name="Trazado 107993" d="M1667.275,850.471a1.3,1.3,0,0,1,.708-.584,2.189,2.189,0,0,1,2.385.333c1.022,1.121-1.265,3.862-3.33,2.352C1667.037,852.571,1666.456,851.934,1667.275,850.471Z" transform="translate(-1610.692 -834.77)" fill="#fb9391"/>
      <path id="Trazado_107994" data-name="Trazado 107994" d="M1358.467,1007.181s-7.54,7.086-14.176,5.97-6.937-25.238-6.937-25.238l6.485-.944s2.865,11.042,4.072,11.042,11.767-12.018,11.767-12.018Z" transform="translate(-1331.114 -950.433)" fill="#4851ec"/>
      <path id="Trazado_107995" data-name="Trazado 107995" d="M1595.96,872.17s1.026-.6,1.408-.485a1.123,1.123,0,0,1,.578.591.872.872,0,0,1,.714-.449,8.382,8.382,0,0,1,2,.942s-1.537,1.947-2.948,1.643c-1.436-.31-1.755-2.241-1.755-2.241Z" transform="translate(-1550.55 -853.426)" fill="#ea6868"/>
      <path id="Trazado_107996" data-name="Trazado 107996" d="M1517.425,1115.1a38.381,38.381,0,0,0-3.015-4.194c-.989-.994-1.208-2.691-1.944-2.345s.255,2.854.255,2.854-2.711-.885-3.5-1.283-2.389-.751-2.726-.194,3.6,2.2,3.6,2.2-3.452-1.062-3.872-.615,3.774,2.444,3.774,2.444-3.627-1.313-4-1.168-.2.63.968,1.407a13.367,13.367,0,0,0,2.567,1.268,30.306,30.306,0,0,0-2.962-.71c-.345.022-.8.3,1.053,1.27s6.211,2.4,8.678,2.236Z" transform="translate(-1474.061 -1054.393)" fill="#fb9391"/>
      <path id="Trazado_107997" data-name="Trazado 107997" d="M1578.2,948.578s11.366,4.546,13.425,7.587,3.6,23.478,2.107,28.53a7.422,7.422,0,0,1-6.176,5.43l-1.735,18.491H1566.2l1.521-22.237-3.93-1.31,3.368-9.182,4.765.395Z" transform="translate(-1523.253 -918.685)" fill="#4851ec"/>
      <path id="Trazado_107998" data-name="Trazado 107998" d="M1616.6,1064.822a.157.157,0,0,1,0-.314c4.508-.012,11.464-.193,12.156-.638.586-.377.4-5.928-.071-10.96a.157.157,0,0,1,.313-.03c.166,1.766.94,10.6-.072,11.253-.992.639-11.168.686-12.325.689Z" transform="translate(-1567.935 -1007.067)" fill="#060633"/>
      <path id="Trazado_107999" data-name="Trazado 107999" d="M1607.856,1201.2c-5.907,0-18.908-3.742-19.046-3.782a.157.157,0,0,1-.108-.195.155.155,0,0,1,.195-.107c.143.042,14.446,4.152,19.781,3.74a.147.147,0,0,1,.169.145.157.157,0,0,1-.144.169C1608.441,1201.188,1608.157,1201.2,1607.856,1201.2Z" transform="translate(-1544.387 -1129.57)" fill="#060633"/>
      <path id="Trazado_108000" data-name="Trazado 108000" d="M1600.663,875.574a44.719,44.719,0,0,1-4.7-.6s.8,1.486,1.9,1.528A7.1,7.1,0,0,0,1600.663,875.574Z" transform="translate(-1550.55 -856.23)" fill="#fff"/>
    </g>
    <g id="Grupo_72578" data-name="Grupo 72578" transform="translate(496.512 396.602)">
      <g id="Grupo_72577" data-name="Grupo 72577" transform="translate(0 0)">
        <rect id="Rectángulo_9049" data-name="Rectángulo 9049" width="47.739" height="54.499" transform="translate(5.407 4.046) rotate(0.238)" fill="#89b4fd"/>
        <rect id="Rectángulo_9050" data-name="Rectángulo 9050" width="57.969" height="5.834" transform="translate(0.024) rotate(0.238)" fill="#b8d0fc"/>
        <rect id="Rectángulo_9051" data-name="Rectángulo 9051" width="40.777" height="18.186" transform="translate(8.362 10.841) rotate(0.238)" fill="#b8d0fc"/>
        <rect id="Rectángulo_9052" data-name="Rectángulo 9052" width="40.777" height="18.186" transform="translate(8.273 32.243) rotate(0.238)" fill="#b8d0fc"/>
        <rect id="Rectángulo_9053" data-name="Rectángulo 9053" width="8.951" height="1.847" transform="matrix(1, 0.004, -0.004, 1, 24.126, 12.612)" fill="#89b4fd"/>
        <rect id="Rectángulo_9054" data-name="Rectángulo 9054" width="8.951" height="1.847" transform="translate(24.037 34.066) rotate(0.238)" fill="#89b4fd"/>
      </g>
    </g>
    <g id="Grupo_72579" data-name="Grupo 72579" transform="translate(495.768 341.095)">
      <rect id="Rectángulo_9055" data-name="Rectángulo 9055" width="1.554" height="48.406" transform="translate(16.674 6.544)" fill="#89b4fd"/>
      <rect id="Rectángulo_9056" data-name="Rectángulo 9056" width="34.901" height="11.861" transform="translate(0 0)" fill="#b8d0fc"/>
      <path id="Trazado_108001" data-name="Trazado 108001" d="M2309.4,977.5a.5.5,0,1,0-.5.5A.5.5,0,0,0,2309.4,977.5Z" transform="translate(-2287.583 -965.007)" fill="#89b4fd"/>
      <path id="Trazado_108002" data-name="Trazado 108002" d="M2309.4,984.769a.5.5,0,1,0-.5.5A.5.5,0,0,0,2309.4,984.769Z" transform="translate(-2287.583 -971.171)" fill="#89b4fd"/>
      <path id="Trazado_108003" data-name="Trazado 108003" d="M2309.4,992.034a.5.5,0,1,0-.5.5A.5.5,0,0,0,2309.4,992.034Z" transform="translate(-2287.583 -977.336)" fill="#89b4fd"/>
      <path id="Trazado_108004" data-name="Trazado 108004" d="M2309.4,999.3a.5.5,0,1,0-.5.5A.5.5,0,0,0,2309.4,999.3Z" transform="translate(-2287.583 -983.502)" fill="#89b4fd"/>
      <path id="Trazado_108005" data-name="Trazado 108005" d="M2309.4,1006.565a.5.5,0,1,0-.5.5A.5.5,0,0,0,2309.4,1006.565Z" transform="translate(-2287.583 -989.666)" fill="#89b4fd"/>
      <path id="Trazado_108006" data-name="Trazado 108006" d="M2309.4,1013.83a.5.5,0,1,0-.5.5A.5.5,0,0,0,2309.4,1013.83Z" transform="translate(-2287.583 -995.831)" fill="#89b4fd"/>
      <path id="Trazado_108007" data-name="Trazado 108007" d="M2309.4,1021.1a.5.5,0,1,0-.5.5A.5.5,0,0,0,2309.4,1021.1Z" transform="translate(-2287.583 -1001.996)" fill="#89b4fd"/>
      <path id="Trazado_108008" data-name="Trazado 108008" d="M2309.4,1028.361a.5.5,0,1,0-.5.5A.5.5,0,0,0,2309.4,1028.361Z" transform="translate(-2287.583 -1008.161)" fill="#89b4fd"/>
      <rect id="Rectángulo_9057" data-name="Rectángulo 9057" width="19.392" height="2.019" transform="translate(7.67 53.627)" fill="#89b4fd"/>
    </g>
    <g id="Grupo_72583" data-name="Grupo 72583" transform="translate(520.271 384.391)">
      <g id="Grupo_72582" data-name="Grupo 72582" transform="translate(0 0)">
        <g id="Grupo_72580" data-name="Grupo 72580">
          <path id="Trazado_108009" data-name="Trazado 108009" d="M2356.6,1183.643h-23.846v.687h12.234a2.232,2.232,0,0,1,2.232,2.232h0a2.232,2.232,0,0,1-2.232,2.232h-12.234v.644H2356.6a2.9,2.9,0,0,0,2.9-2.9h0A2.9,2.9,0,0,0,2356.6,1183.643Z" transform="translate(-2332.757 -1183.643)" fill="#4c4bf4"/>
          <path id="Trazado_108010" data-name="Trazado 108010" d="M2348.311,1186.541h0a2.9,2.9,0,0,0-2.9-2.9h-12.656v.687h12.234a2.232,2.232,0,0,1,2.232,2.232h0a2.232,2.232,0,0,1-2.232,2.232h-12.234v.644h12.656A2.9,2.9,0,0,0,2348.311,1186.541Z" transform="translate(-2332.757 -1183.643)" fill="#3c43da"/>
          <path id="Trazado_108011" data-name="Trazado 108011" d="M2344.991,1188.193h-12.234v.015a2.233,2.233,0,0,1,1.975,2.217h0a2.232,2.232,0,0,1-1.975,2.217v.015h12.234a2.232,2.232,0,0,0,2.232-2.232h0A2.232,2.232,0,0,0,2344.991,1188.193Z" transform="translate(-2332.757 -1187.504)" fill="#fff"/>
          <path id="Trazado_108012" data-name="Trazado 108012" d="M2347.224,1190.268a2.232,2.232,0,0,0-2.232-2.232h-12.234v.015a2.229,2.229,0,0,1,1.439.768c2.447-.194,9.745-.42,10.514,3.681h.281A2.232,2.232,0,0,0,2347.224,1190.268Z" transform="translate(-2332.757 -1187.371)" fill="#a6c6fd"/>
        </g>
        <g id="Grupo_72581" data-name="Grupo 72581" transform="translate(0.827 5.795)">
          <path id="Trazado_108013" data-name="Trazado 108013" d="M2341.253,1221.9h24.988v.788h-12.82a2.458,2.458,0,0,0-2.339,2.562h0a2.458,2.458,0,0,0,2.339,2.562h12.82v.739h-24.988a3.191,3.191,0,0,1-3.036-3.326h0A3.191,3.191,0,0,1,2341.253,1221.9Z" transform="translate(-2338.217 -1221.904)" fill="#ff7071"/>
          <path id="Trazado_108014" data-name="Trazado 108014" d="M2415.628,1225.23h0a3.191,3.191,0,0,1,3.036-3.326h13.262v.788h-12.82a2.459,2.459,0,0,0-2.339,2.562h0a2.459,2.459,0,0,0,2.339,2.562h12.82v.739h-13.262A3.191,3.191,0,0,1,2415.628,1225.23Z" transform="translate(-2403.903 -1221.904)" fill="#f9524f"/>
          <path id="Trazado_108015" data-name="Trazado 108015" d="M2425.49,1227.128h12.82v.017a2.491,2.491,0,0,0-2.069,2.545h0a2.491,2.491,0,0,0,2.069,2.545v.017h-12.82a2.458,2.458,0,0,1-2.339-2.562h0A2.458,2.458,0,0,1,2425.49,1227.128Z" transform="translate(-2410.286 -1226.337)" fill="#fff"/>
          <path id="Trazado_108016" data-name="Trazado 108016" d="M2423.151,1229.509a2.458,2.458,0,0,1,2.339-2.562h12.82v.017a2.283,2.283,0,0,0-1.508.882c-2.564-.223-10.212-.482-11.017,4.226h-.294A2.458,2.458,0,0,1,2423.151,1229.509Z" transform="translate(-2410.286 -1226.183)" fill="#a6c6fd"/>
        </g>
      </g>
    </g>
  </g>
</svg>
