<svg xmlns="http://www.w3.org/2000/svg" xmlns:xlink="http://www.w3.org/1999/xlink" width="189.819" height="184.819" viewBox="0 0 189.819 184.819">
  <defs>
    <linearGradient id="linear-gradient" x1="0.037" y1="0.968" x2="1.103" y2="0.023" gradientUnits="objectBoundingBox">
      <stop offset="0" stop-color="#d4d4d4"/>
      <stop offset="1" stop-color="#fff"/>
    </linearGradient>
    <linearGradient id="linear-gradient-2" x1="0.029" y1="0.973" x2="1.361" y2="-0.324" gradientUnits="objectBoundingBox">
      <stop offset="0" stop-color="#fff"/>
      <stop offset="1" stop-color="#fff"/>
    </linearGradient>
  </defs>
  <g id="Grupo_72564" data-name="Grupo 72564" transform="translate(-495.521 -1571)">
    <path id="Trazado_107884" data-name="Trazado 107884" d="M12,0H177.819a12,12,0,0,1,12,12V172.819a12,12,0,0,1-12,12H12a12,12,0,0,1-12-12V12A12,12,0,0,1,12,0Z" transform="translate(495.521 1571)" fill="url(#linear-gradient)"/>
    <path id="Trazado_107883" data-name="Trazado 107883" d="M11.045,0H164.061a11.045,11.045,0,0,1,11.045,11.045V159.061a11.045,11.045,0,0,1-11.045,11.045H11.045A11.045,11.045,0,0,1,0,159.061V11.045A11.045,11.045,0,0,1,11.045,0Z" transform="translate(502.878 1578.356)" fill="url(#linear-gradient-2)"/>
    <path id="Trazado_107881" data-name="Trazado 107881" d="M-30.129-2.979h-4.957L-36.123,0h-2.312L-33.6-12.8h2L-26.763,0h-2.32Zm-4.333-1.793h3.709l-1.854-5.309Zm11.856,2.065,2.013-6.8h2.206L-21.683,0h-1.854l-3.322-9.51h2.215ZM-12.981.176A4.419,4.419,0,0,1-16.273-1.1a4.639,4.639,0,0,1-1.261-3.406v-.264a5.706,5.706,0,0,1,.549-2.544,4.181,4.181,0,0,1,1.542-1.745,4.078,4.078,0,0,1,2.215-.624,3.733,3.733,0,0,1,3,1.239A5.24,5.24,0,0,1-9.167-4.939v.861h-6.214a2.856,2.856,0,0,0,.787,1.863,2.362,2.362,0,0,0,1.736.686,2.892,2.892,0,0,0,2.391-1.187l1.151,1.1A3.845,3.845,0,0,1-10.841-.294,4.774,4.774,0,0,1-12.981.176Zm-.255-8.147a1.8,1.8,0,0,0-1.419.615,3.189,3.189,0,0,0-.69,1.714h4.069V-5.8a2.6,2.6,0,0,0-.571-1.622A1.785,1.785,0,0,0-13.236-7.972Zm10.705.413a5.285,5.285,0,0,0-.87-.07A1.959,1.959,0,0,0-5.379-6.5V0H-7.515V-9.51h2.039l.053,1.063A2.406,2.406,0,0,1-3.278-9.686a2,2,0,0,1,.756.123ZM1.09,0H-1.046V-9.51H1.09ZM-1.178-11.988a1.147,1.147,0,0,1,.312-.824,1.173,1.173,0,0,1,.892-.328,1.188,1.188,0,0,1,.9.328,1.138,1.138,0,0,1,.316.824,1.112,1.112,0,0,1-.316.811,1.2,1.2,0,0,1-.9.323,1.182,1.182,0,0,1-.892-.323A1.12,1.12,0,0,1-1.178-11.988ZM3.041-4.825A5.562,5.562,0,0,1,4.083-8.363,3.343,3.343,0,0,1,6.847-9.686,3.132,3.132,0,0,1,9.4-8.552l.1-.958h1.925V-.29a3.832,3.832,0,0,1-1.165,2.953A4.436,4.436,0,0,1,7.119,3.744a5.064,5.064,0,0,1-2.043-.435A3.631,3.631,0,0,1,3.56,2.171L4.57.888A3.053,3.053,0,0,0,7,2.057a2.359,2.359,0,0,0,1.679-.576A2.206,2.206,0,0,0,9.29-.211V-.853A3.144,3.144,0,0,1,6.829.176,3.335,3.335,0,0,1,4.1-1.151,5.742,5.742,0,0,1,3.041-4.825Zm2.127.185a3.829,3.829,0,0,0,.584,2.254,1.879,1.879,0,0,0,1.622.822A2.055,2.055,0,0,0,9.29-2.672V-6.855a2.026,2.026,0,0,0-1.9-1.081A1.887,1.887,0,0,0,5.752-7.1,4.287,4.287,0,0,0,5.168-4.641ZM19.38-.932A3.312,3.312,0,0,1,16.708.176a2.952,2.952,0,0,1-2.342-.905,3.851,3.851,0,0,1-.8-2.619V-9.51h2.136v6.135q0,1.811,1.5,1.811a2.111,2.111,0,0,0,2.1-1.116V-9.51h2.136V0H19.433ZM29.3,0a3.3,3.3,0,0,1-.246-.888,3.325,3.325,0,0,1-2.5,1.063,3.355,3.355,0,0,1-2.338-.817,2.615,2.615,0,0,1-.905-2.021A2.7,2.7,0,0,1,24.447-5a5.473,5.473,0,0,1,3.23-.813h1.31v-.624a1.666,1.666,0,0,0-.413-1.182,1.638,1.638,0,0,0-1.257-.444,1.881,1.881,0,0,0-1.2.365,1.129,1.129,0,0,0-.466.927H23.52a2.37,2.37,0,0,1,.519-1.463A3.455,3.455,0,0,1,25.449-9.3a4.955,4.955,0,0,1,1.991-.387,3.99,3.99,0,0,1,2.663.839,2.993,2.993,0,0,1,1.02,2.36V-2.2a4.861,4.861,0,0,0,.36,2.048V0ZM26.956-1.538a2.429,2.429,0,0,0,1.191-.308,2.055,2.055,0,0,0,.839-.826V-4.465H27.835a3.148,3.148,0,0,0-1.784.413,1.338,1.338,0,0,0-.6,1.169,1.248,1.248,0,0,0,.409.98A1.583,1.583,0,0,0,26.956-1.538ZM38.338-7.559a5.285,5.285,0,0,0-.87-.07A1.959,1.959,0,0,0,35.49-6.5V0H33.354V-9.51h2.039l.053,1.063a2.406,2.406,0,0,1,2.145-1.239,2,2,0,0,1,.756.123Z" transform="translate(590.432 1719.15)" fill="#686868"/>
    <path id="Trazado_107882" data-name="Trazado 107882" d="M0,0H48.945V1.512H0Z" transform="translate(565.959 1693.395)" fill="#365e92"/>
    <g id="Grupo_58471" data-name="Grupo 58471" transform="translate(-683.866 1735.006)">
      <g id="Grupo_58471-2" data-name="Grupo 58471" transform="translate(1263.855 -119.014)">
        <path id="Trazado_104730" data-name="Trazado 104730" d="M1302.566-81.918l3.869,20.4h-13.007l-2.265-11.9h-10.827l-2.3,11.9h-12.968l3.869-20.316,8.316-36.683h17.042Zm-9.344-35.739h-14.9l-8.151,35.939-3.7,19.343h10.5l2.3-11.9h12.968l2.264,11.9h10.538l-3.7-19.429Zm-12.638,36.225,5.145-27.04,5.146,27.04Zm8.891-.859-3.746-19.657-3.746,19.657Z" transform="translate(-1264.581 118.998)" fill="#00357b"/>
        <path id="Trazado_104731" data-name="Trazado 104731" d="M1306.419-61.049h-13.007a.484.484,0,0,1-.476-.394l-2.19-11.51h-10.027L1278.49-61.44a.484.484,0,0,1-.475.392h-12.968a.482.482,0,0,1-.371-.175.482.482,0,0,1-.1-.4l3.869-20.316,8.32-36.7a.483.483,0,0,1,.471-.376h17.042a.481.481,0,0,1,.471.376l8.274,36.6,0,.016,3.869,20.4a.486.486,0,0,1-.1.4A.487.487,0,0,1,1306.419-61.049Zm-1.094-.967h.51l-3.758-19.819-8.187-36.212h-.378a.482.482,0,0,1,.165.268l8.109,35.853,3.71,19.444a.481.481,0,0,1-.1.4A.481.481,0,0,1,1305.325-62.016Zm-11.513,0h.365a.478.478,0,0,1-.17-.285l-2.189-11.509h-.366a.475.475,0,0,1,.17.284Zm-16.562,0h.368l2.228-11.512a.481.481,0,0,1,.17-.282h-.368L1277.418-62.3A.479.479,0,0,1,1277.249-62.016Zm-11.617,0h.51a.5.5,0,0,1-.068-.068.478.478,0,0,1-.1-.4l3.7-19.344,8.155-35.954a.485.485,0,0,1,.165-.267h-.378l-8.23,36.305Zm29.249-.859h9.554l-3.6-18.854-8.02-35.46h-14.129l-8.067,35.563-3.591,18.752h9.513l2.229-11.512a.484.484,0,0,1,.475-.391h12.968a.483.483,0,0,1,.475.393Zm-4.023-18.089h-10.291a.479.479,0,0,1-.371-.175.483.483,0,0,1-.1-.4l5.144-27.041a.484.484,0,0,1,.476-.393.483.483,0,0,1,.475.393l5.146,27.041a.487.487,0,0,1-.1.4A.482.482,0,0,1,1290.858-80.964Zm-1.094-.967h.509l-4.561-23.97-4.56,23.97h.509a.433.433,0,0,1-.067-.067.481.481,0,0,1-.1-.4l3.745-19.657a.483.483,0,0,1,.476-.393.483.483,0,0,1,.475.393l3.747,19.657a.481.481,0,0,1-.1.4A.433.433,0,0,1,1289.764-81.931Zm-7.214-.859h6.324l-3.162-16.591Z" transform="translate(-1264.564 119.014)" fill="#00357b"/>
      </g>
      <g id="Grupo_58472" data-name="Grupo 58472" transform="translate(1243.031 -119.014)">
        <path id="Trazado_104732" data-name="Trazado 104732" d="M1265.437-62.375h-20.67V-69.5h10.909v-41.032h-10.909v-7.125h21.323V-69.5h.826l.409-1.968v-47.047h-23.793v8.841h10.908v39.315h-10.908v8.842h21.726Z" transform="translate(-1243.047 118.998)" fill="#00357b"/>
        <path id="Trazado_104733" data-name="Trazado 104733" d="M1265.242-61.049h-21.728a.484.484,0,0,1-.484-.484v-8.842a.484.484,0,0,1,.484-.484h10.426v-38.348h-10.426a.484.484,0,0,1-.484-.484v-8.841a.483.483,0,0,1,.484-.484h23.794a.483.483,0,0,1,.484.484v47.047a.476.476,0,0,1-.011.1l-.409,1.969a.484.484,0,0,1-.473.385h-.827a.484.484,0,0,1-.484-.484v-47.673h-20.355v6.157h10.425a.484.484,0,0,1,.484.484v41.032a.484.484,0,0,1-.484.484h-10.425v6.157h20.186a.483.483,0,0,1,.374.178.482.482,0,0,1,.1.4l-.178.859A.483.483,0,0,1,1265.242-61.049ZM1244-62.016h.447a.485.485,0,0,1-.178-.375v-7.125a.485.485,0,0,1,.178-.375H1244ZM1254.729-70h.447v-40.065h-.447a.486.486,0,0,1,.179.375v39.315A.486.486,0,0,1,1254.729-70Zm11.651-48.048a.482.482,0,0,1,.177.374v47.43l.269-1.29v-46.514ZM1244-110.173h.447a.485.485,0,0,1-.178-.375v-7.125a.483.483,0,0,1,.177-.374H1244Z" transform="translate(-1243.031 119.014)" fill="#00357b"/>
      </g>
    </g>
  </g>
</svg>
