<svg xmlns="http://www.w3.org/2000/svg" xmlns:xlink="http://www.w3.org/1999/xlink" width="189.819" height="184.819" viewBox="0 0 189.819 184.819">
  <defs>
    <linearGradient id="linear-gradient" x1="0.037" y1="0.968" x2="1.103" y2="0.023" gradientUnits="objectBoundingBox">
      <stop offset="0" stop-color="#d4d4d4"/>
      <stop offset="1" stop-color="#fff"/>
    </linearGradient>
    <linearGradient id="linear-gradient-2" x1="0.029" y1="0.973" x2="1.361" y2="-0.324" gradientUnits="objectBoundingBox">
      <stop offset="0" stop-color="#fff"/>
      <stop offset="1" stop-color="#fff"/>
    </linearGradient>
  </defs>
  <g id="Grupo_72565" data-name="Grupo 72565" transform="translate(-705 -1571)">
    <g id="Grupo_57021" data-name="Grupo 57021" transform="translate(859.324 2834.525)">
      <rect id="Rectángulo_6318" data-name="Rectángulo 6318" width="189.819" height="184.819" rx="12" transform="translate(-154.324 -1263.525)" fill="url(#linear-gradient)"/>
      <rect id="Rectángulo_6319" data-name="Rectángulo 6319" width="175.106" height="170.106" rx="11.045" transform="translate(-146.968 -1256.169)" fill="url(#linear-gradient-2)"/>
    </g>
    <path id="Trazado_107885" data-name="Trazado 107885" d="M-32.128-2.979h-4.957L-38.123,0h-2.312L-35.6-12.8h2L-28.762,0h-2.32Zm-4.333-1.793h3.709l-1.854-5.309Zm12.85,3.243A1.931,1.931,0,0,0-22.285-2a1.591,1.591,0,0,0,.563-1.151h2.013a3.137,3.137,0,0,1-.554,1.657A3.632,3.632,0,0,1-21.669-.272a4.191,4.191,0,0,1-1.916.448A4.055,4.055,0,0,1-26.75-1.116a5.124,5.124,0,0,1-1.169-3.568V-4.9a5.039,5.039,0,0,1,1.16-3.476,4.018,4.018,0,0,1,3.164-1.305A3.907,3.907,0,0,1-20.83-8.7a3.542,3.542,0,0,1,1.121,2.6h-2.013a1.956,1.956,0,0,0-.558-1.345,1.8,1.8,0,0,0-1.332-.527,1.879,1.879,0,0,0-1.6.751,3.834,3.834,0,0,0-.571,2.281V-4.6a3.9,3.9,0,0,0,.558,2.307A1.878,1.878,0,0,0-23.612-1.529ZM-18.5-4.843a5.607,5.607,0,0,1,.554-2.518,4.044,4.044,0,0,1,1.556-1.723,4.383,4.383,0,0,1,2.3-.6A4.154,4.154,0,0,1-10.96-8.446a4.874,4.874,0,0,1,1.3,3.287l.009.5A5.658,5.658,0,0,1-10.2-2.145,4,4,0,0,1-11.742-.431a4.415,4.415,0,0,1-2.325.606,4.125,4.125,0,0,1-3.221-1.34A5.133,5.133,0,0,1-18.5-4.737Zm2.136.185a3.832,3.832,0,0,0,.606,2.3,1.971,1.971,0,0,0,1.688.831,1.95,1.95,0,0,0,1.683-.844,4.232,4.232,0,0,0,.6-2.47,3.782,3.782,0,0,0-.62-2.285,1.979,1.979,0,0,0-1.683-.844,1.96,1.96,0,0,0-1.661.831A4.152,4.152,0,0,0-16.361-4.658ZM-5.867-9.51l.062,1.1A3.419,3.419,0,0,1-3.037-9.686q2.971,0,3.023,3.4V0H-2.149V-6.161A1.958,1.958,0,0,0-2.54-7.5a1.645,1.645,0,0,0-1.279-.435A2.058,2.058,0,0,0-5.744-6.768V0H-7.879V-9.51ZM7.493-2.584a.968.968,0,0,0-.47-.87,5,5,0,0,0-1.56-.527,8.02,8.02,0,0,1-1.819-.58A2.428,2.428,0,0,1,2.043-6.8,2.531,2.531,0,0,1,3.081-8.859a4.1,4.1,0,0,1,2.637-.826,4.266,4.266,0,0,1,2.755.844,2.677,2.677,0,0,1,1.05,2.188H7.387A1.316,1.316,0,0,0,6.93-7.677a1.752,1.752,0,0,0-1.213-.409,1.893,1.893,0,0,0-1.147.325,1.025,1.025,0,0,0-.444.87.866.866,0,0,0,.413.765,5.68,5.68,0,0,0,1.67.549,7.9,7.9,0,0,1,1.973.659A2.794,2.794,0,0,1,9.246-4a2.342,2.342,0,0,1,.347,1.3A2.478,2.478,0,0,1,8.53-.62a4.535,4.535,0,0,1-2.786.8A4.917,4.917,0,0,1,3.661-.246a3.428,3.428,0,0,1-1.424-1.16A2.746,2.746,0,0,1,1.727-3H3.8a1.5,1.5,0,0,0,.571,1.165,2.22,2.22,0,0,0,1.4.409,2.16,2.16,0,0,0,1.283-.321A.993.993,0,0,0,7.493-2.584ZM15.64.176A4.419,4.419,0,0,1,12.349-1.1a4.639,4.639,0,0,1-1.261-3.406v-.264a5.706,5.706,0,0,1,.549-2.544,4.181,4.181,0,0,1,1.542-1.745,4.078,4.078,0,0,1,2.215-.624,3.733,3.733,0,0,1,3,1.239,5.24,5.24,0,0,1,1.059,3.507v.861H13.241a2.856,2.856,0,0,0,.787,1.863,2.362,2.362,0,0,0,1.736.686,2.892,2.892,0,0,0,2.391-1.187l1.151,1.1A3.845,3.845,0,0,1,17.78-.294,4.774,4.774,0,0,1,15.64.176Zm-.255-8.147a1.8,1.8,0,0,0-1.419.615,3.189,3.189,0,0,0-.69,1.714h4.069V-5.8a2.6,2.6,0,0,0-.571-1.622A1.785,1.785,0,0,0,15.385-7.972ZM23.339-9.51V.844a3.129,3.129,0,0,1-.725,2.228,2.779,2.779,0,0,1-2.123.769,4.268,4.268,0,0,1-1.134-.149V2a3.291,3.291,0,0,0,.756.079q1.063,0,1.09-1.16V-9.51Zm-2.32-2.479a1.147,1.147,0,0,1,.312-.824,1.173,1.173,0,0,1,.892-.328,1.188,1.188,0,0,1,.9.328,1.138,1.138,0,0,1,.316.824,1.112,1.112,0,0,1-.316.811,1.2,1.2,0,0,1-.9.323,1.182,1.182,0,0,1-.892-.323A1.12,1.12,0,0,1,21.019-11.988ZM31.3,0a3.3,3.3,0,0,1-.246-.888A3.325,3.325,0,0,1,28.56.176a3.355,3.355,0,0,1-2.338-.817,2.615,2.615,0,0,1-.905-2.021A2.7,2.7,0,0,1,26.446-5a5.473,5.473,0,0,1,3.23-.813h1.31v-.624a1.666,1.666,0,0,0-.413-1.182,1.638,1.638,0,0,0-1.257-.444,1.881,1.881,0,0,0-1.2.365,1.129,1.129,0,0,0-.466.927H25.519a2.37,2.37,0,0,1,.519-1.463A3.455,3.455,0,0,1,27.448-9.3a4.955,4.955,0,0,1,1.991-.387,3.99,3.99,0,0,1,2.663.839,2.993,2.993,0,0,1,1.02,2.36V-2.2a4.861,4.861,0,0,0,.36,2.048V0ZM28.956-1.538a2.429,2.429,0,0,0,1.191-.308,2.055,2.055,0,0,0,.839-.826V-4.465H29.834a3.148,3.148,0,0,0-1.784.413,1.338,1.338,0,0,0-.6,1.169,1.248,1.248,0,0,0,.409.98A1.583,1.583,0,0,0,28.956-1.538ZM40.337-7.559a5.285,5.285,0,0,0-.87-.07A1.959,1.959,0,0,0,37.49-6.5V0H35.354V-9.51h2.039l.053,1.063A2.406,2.406,0,0,1,39.59-9.686a2,2,0,0,1,.756.123Z" transform="translate(799.091 1718.331)" fill="#686868"/>
    <rect id="Rectángulo_6324" data-name="Rectángulo 6324" width="48.945" height="1.512" transform="translate(774.618 1693.392)" fill="#00357b"/>
    <g id="Grupo_57135" data-name="Grupo 57135" transform="translate(-1787.792 1558.857)">
      <rect id="Rectángulo_6484" data-name="Rectángulo 6484" width="64.236" height="58.943" transform="translate(2554.792 57.199)" fill="none"/>
    </g>
    <g id="Grupo_58475" data-name="Grupo 58475" transform="translate(-473.428 1735.037)">
      <g id="Grupo_58473" data-name="Grupo 58473" transform="translate(1241.427 -118.967)">
        <path id="Trazado_104734" data-name="Trazado 104734" d="M1264.769-82.18c-7.646,3.743-11.362,7.053-11.362,10.119v4.237h13.965l.41-1.841h-12.153v-2.4c0-1.59,1.791-4.364,10.316-8.548a34.09,34.09,0,0,0,4.766-2.812l.156-.11.7-3.155-1.121.931A29.042,29.042,0,0,1,1264.769-82.18Z" transform="translate(-1241.831 117.876)" fill="#00357b"/>
        <path id="Trazado_104735" data-name="Trazado 104735" d="M1276.216-110.823c-1.875-5.4-7.618-8.142-17.071-8.142-11.756,0-17.717,4.216-17.717,12.53v8.315h13.8v-8.315c0-1.21.407-2.818,4-2.818,3.476,0,3.879,1.608,3.879,2.818v10.818c-.017,1.45-1.827,4.057-10.356,8.244-7.514,3.692-11.322,8.25-11.322,13.547V-61.07h23.8l.408-1.841h-21.981V-73.826c0-4.588,3.457-8.618,10.272-11.978,7.645-3.739,11.376-6.946,11.4-9.808v-10.824c0-2.125-1.058-4.658-6.183-4.658-5.076,0-6.141,2.534-6.141,4.658v6.474h-9.352v-6.474c0-7.192,5.069-10.689,15.493-10.689,9.8,0,14.857,3.061,15.47,9.358l.3,3.114,1.343-6.037Z" transform="translate(-1241.427 118.965)" fill="#00357b"/>
      </g>
      <g id="Grupo_58474" data-name="Grupo 58474" transform="translate(1263.712 -119.014)">
        <path id="Trazado_104736" data-name="Trazado 104736" d="M1286.236-108.629a.484.484,0,0,0-.475.392l-5.14,27.018a.483.483,0,0,0,.1.4.478.478,0,0,0,.371.175h10.282a.482.482,0,0,0,.372-.175.486.486,0,0,0,.1-.4l-5.142-27.018A.482.482,0,0,0,1286.236-108.629Zm0,9.581,3.16,16.577h-6.318Z" transform="translate(-1265.034 118.664)" fill="#00357b"/>
        <path id="Trazado_104737" data-name="Trazado 104737" d="M1302.989-82.056l0-.016-8.267-36.565a.48.48,0,0,0-.47-.376h-17.028a.482.482,0,0,0-.47.376l-.55,2.426h0l-3.108,13.7-2.823,12.451L1264.49-61.1H1278a.484.484,0,0,0,.474-.391l2.227-11.5h10.018l2.188,11.5a.484.484,0,0,0,.475.393h13a.486.486,0,0,0,.372-.175.486.486,0,0,0,.1-.4Zm-8.136,19.134-2.188-11.5a.483.483,0,0,0-.474-.392h-12.957a.483.483,0,0,0-.474.39l-2.227,11.5h-9.505l3.588-18.736,8.06-35.532h14.117l8.013,35.43,3.594,18.838Z" transform="translate(-1264.49 119.014)" fill="#00357b"/>
      </g>
    </g>
  </g>
</svg>
