<svg xmlns="http://www.w3.org/2000/svg" xmlns:xlink="http://www.w3.org/1999/xlink" width="189.819" height="184.819" viewBox="0 0 189.819 184.819">
  <defs>
    <linearGradient id="linear-gradient" x1="0.037" y1="0.968" x2="1.103" y2="0.023" gradientUnits="objectBoundingBox">
      <stop offset="0" stop-color="#d4d4d4"/>
      <stop offset="1" stop-color="#fff"/>
    </linearGradient>
    <linearGradient id="linear-gradient-2" x1="0.029" y1="0.973" x2="1.361" y2="-0.324" gradientUnits="objectBoundingBox">
      <stop offset="0" stop-color="#fff"/>
      <stop offset="1" stop-color="#fff"/>
    </linearGradient>
  </defs>
  <g id="Grupo_72566" data-name="Grupo 72566" transform="translate(-915 -1572)">
    <g id="Grupo_57022" data-name="Grupo 57022" transform="translate(1069.324 2835.525)">
      <rect id="Rectángulo_6318" data-name="Rectángulo 6318" width="189.819" height="184.819" rx="12" transform="translate(-154.324 -1263.525)" fill="url(#linear-gradient)"/>
      <rect id="Rectángulo_6319" data-name="Rectángulo 6319" width="175.106" height="170.106" rx="11.045" transform="translate(-146.968 -1256.169)" fill="url(#linear-gradient-2)"/>
    </g>
    <g id="Grupo_57034" data-name="Grupo 57034" transform="translate(617.166 2834.525)">
      <text id="Apreciar_o_evaluar" data-name="Apreciar o evaluar" transform="translate(392.653 -1116.374)" fill="#686868" font-size="18" font-family="Roboto-Medium, Roboto" font-weight="500"><tspan x="-72.765" y="0">Apreciar o evaluar</tspan></text>
      <rect id="Rectángulo_6327" data-name="Rectángulo 6327" width="48.945" height="1.512" transform="translate(368.181 -1141.378)" fill="#00357b"/>
    </g>
    <g id="Grupo_58478" data-name="Grupo 58478" transform="translate(-360.22 1735.188)">
      <g id="Grupo_58476" data-name="Grupo 58476" transform="translate(1360.633 -119.014)">
        <path id="Trazado_104738" data-name="Trazado 104738" d="M1383.215-108.629a.482.482,0,0,0-.474.391L1377.617-81.3a.482.482,0,0,0,.1.4.477.477,0,0,0,.37.174h10.251a.481.481,0,0,0,.371-.174.484.484,0,0,0,.1-.4l-5.126-26.936A.481.481,0,0,0,1383.215-108.629Zm0,9.552,3.15,16.527h-6.3Z" transform="translate(-1362.077 118.633)" fill="#00357b"/>
        <path id="Trazado_104739" data-name="Trazado 104739" d="M1399.868-82.168l0-.016-8.242-36.455a.479.479,0,0,0-.469-.375h-16.976a.48.48,0,0,0-.469.375l-.548,2.419h0l-3.1,13.663-2.814,12.414-5.762,28.87h13.47a.483.483,0,0,0,.473-.39l2.221-11.468h9.988l2.181,11.466a.482.482,0,0,0,.474.392h12.957a.485.485,0,0,0,.371-.174.484.484,0,0,0,.1-.4Zm-8.111,19.076-2.181-11.466a.481.481,0,0,0-.473-.391h-12.917a.482.482,0,0,0-.473.389l-2.22,11.468h-9.476l3.577-18.679,8.035-35.425H1389.7l7.989,35.323,3.583,18.781Z" transform="translate(-1361.486 119.014)" fill="#00357b"/>
      </g>
      <g id="Grupo_58477" data-name="Grupo 58477" transform="translate(1338.22 -118.902)">
        <path id="Trazado_104740" data-name="Trazado 104740" d="M1368.429-89.759c.185-.09.347-.195.521-.292l.844-3.758a10.678,10.678,0,0,1-5.355,3.592.489.489,0,0,0-.321.458.489.489,0,0,0,.321.458,13.836,13.836,0,0,1,3.884,2.041l.51-2.273C1368.7-89.607,1368.573-89.69,1368.429-89.759Z" transform="translate(-1339.169 117.978)" fill="#00357b"/>
        <path id="Trazado_104741" data-name="Trazado 104741" d="M1361.846-63.56a36.854,36.854,0,0,1-6.142.547h-.936a25.259,25.259,0,0,1-9.019-1.278c-3.625-1.466-5.386-4.454-5.386-9.134v-6.306h8.773V-73.4c0,2.12,1.038,4.648,5.981,4.648,4.977,0,6.022-2.528,6.022-4.648v-9.8c0-2.364-.824-3.82-2.456-4.328a12.4,12.4,0,0,0-3.252-.32h-2.671V-93.7h3.529a7.628,7.628,0,0,0,2.831-.418c1.34-.536,2.02-1.912,2.02-4.093v-8c0-2.364-.824-3.819-2.456-4.328a15.5,15.5,0,0,0-4.553-.293c-4.128.125-4.994,2.583-4.994,4.621v6.251h-8.773v-6.306c0-4.838,1.9-7.877,5.8-9.292a26.361,26.361,0,0,1,17.313-.183c4.331,1.311,6.435,4.41,6.435,9.475v6.784l2.009-8.946a10.148,10.148,0,0,0-7.69-9.009,28.953,28.953,0,0,0-18.942.252c-4.689,1.7-7.066,5.369-7.066,10.918v7.613a.486.486,0,0,0,.487.486h12.086a.485.485,0,0,0,.485-.486v-7.558c0-1.88.938-2.779,2.966-2.828.357-.017.714-.027,1.067-.027a10.533,10.533,0,0,1,2.625.224c.705.221,1.063,1.106,1.063,2.631v8c0,.973-.149,2.193-.88,2.484a4.835,4.835,0,0,1-1.831.233H1351.1a.486.486,0,0,0-.486.486v8.463a.485.485,0,0,0,.486.486h4.328a9.83,9.83,0,0,1,2.507.224c.705.221,1.063,1.106,1.063,2.631v9.8c0,1.225-.4,2.854-3.882,2.854-3.441,0-3.839-1.629-3.839-2.854V-81.04a.486.486,0,0,0-.485-.486h-12.086a.486.486,0,0,0-.487.486v7.614c0,5.378,2.228,8.995,6.62,10.746a27.249,27.249,0,0,0,9.927,1.46h.944a41.934,41.934,0,0,0,5.709-.442Z" transform="translate(-1338.22 118.898)" fill="#00357b"/>
      </g>
    </g>
  </g>
</svg>
