<svg xmlns="http://www.w3.org/2000/svg" xmlns:xlink="http://www.w3.org/1999/xlink" width="85" height="85" viewBox="0 0 85 85">
  <defs>
    <clipPath id="clip-path">
      <rect id="Rectángulo_8745" data-name="Rectángulo 8745" width="85" height="85" transform="translate(278 8995)" fill="#fff" stroke="#707070" stroke-width="1"/>
    </clipPath>
  </defs>
  <g id="Enmascarar_grupo_60" data-name="Enmascarar grupo 60" transform="translate(-278 -8995)" clip-path="url(#clip-path)">
    <g id="calendar_1_" data-name="calendar (1)" transform="translate(275.213 8992.213)">
      <path id="Trazado_104816" data-name="Trazado 104816" d="M78.033,55.884V16.721a6.975,6.975,0,0,0-6.967-6.967H68.279V6.967a4.18,4.18,0,1,0-8.361,0V9.754H52.951V6.967a4.18,4.18,0,0,0-8.361,0V9.754H36.23V6.967a4.18,4.18,0,1,0-8.361,0V9.754H20.9V6.967a4.18,4.18,0,0,0-8.361,0V9.754H9.754a6.975,6.975,0,0,0-6.967,6.967V72.459a6.975,6.975,0,0,0,6.967,6.967H56.607A16.708,16.708,0,1,0,78.033,55.884ZM62.7,6.967a1.393,1.393,0,0,1,2.787,0v8.361a1.393,1.393,0,0,1-2.787,0Zm-15.328,0a1.393,1.393,0,1,1,2.787,0v8.361a1.393,1.393,0,1,1-2.787,0Zm-16.721,0a1.393,1.393,0,1,1,2.787,0v8.361a1.393,1.393,0,1,1-2.787,0Zm-15.328,0a1.393,1.393,0,1,1,2.787,0v8.361a1.393,1.393,0,1,1-2.787,0ZM9.754,12.541h2.787v2.787a4.18,4.18,0,1,0,8.361,0V12.541h6.967v2.787a4.18,4.18,0,1,0,8.361,0V12.541H44.59v2.787a4.18,4.18,0,1,0,8.361,0V12.541h6.967v2.787a4.18,4.18,0,1,0,8.361,0V12.541h2.787a4.185,4.185,0,0,1,4.18,4.18v6.967H5.574V16.721A4.185,4.185,0,0,1,9.754,12.541Zm0,64.1a4.185,4.185,0,0,1-4.18-4.18V26.475H75.246V54.894a15.912,15.912,0,0,0-6.967-.3V47.377a1.393,1.393,0,0,0-1.393-1.393H58.525a1.393,1.393,0,0,0-1.393,1.393v8.361a1.393,1.393,0,0,0,1.393,1.393h3.318A16.627,16.627,0,0,0,55.32,76.639Zm55.738-22.3H59.918V48.77h5.574ZM71.066,85A13.934,13.934,0,1,1,85,71.066,13.951,13.951,0,0,1,71.066,85Z" fill="#00357b"/>
      <path id="Trazado_104817" data-name="Trazado 104817" d="M72.459,68.665V59.918H69.672v8.747a2.661,2.661,0,0,0-1.352,2.812l-5.093,4.073,1.742,2.177,5.088-4.071a2.777,2.777,0,0,0,2.4-4.992Z" fill="#00357b"/>
      <path id="Trazado_104818" data-name="Trazado 104818" d="M20.9,30.656H12.541a1.393,1.393,0,0,0-1.393,1.393V40.41A1.393,1.393,0,0,0,12.541,41.8H20.9A1.393,1.393,0,0,0,22.3,40.41V32.049A1.393,1.393,0,0,0,20.9,30.656Zm-1.393,8.361H13.934V33.443h5.574Z" fill="#00357b"/>
      <path id="Trazado_104819" data-name="Trazado 104819" d="M36.23,30.656H27.869a1.393,1.393,0,0,0-1.393,1.393V40.41A1.393,1.393,0,0,0,27.869,41.8H36.23a1.393,1.393,0,0,0,1.393-1.393V32.049A1.393,1.393,0,0,0,36.23,30.656Zm-1.393,8.361H29.262V33.443h5.574Z" fill="#00357b"/>
      <path id="Trazado_104820" data-name="Trazado 104820" d="M51.557,30.656H43.2A1.393,1.393,0,0,0,41.8,32.049V40.41A1.393,1.393,0,0,0,43.2,41.8h8.361a1.393,1.393,0,0,0,1.393-1.393V32.049A1.393,1.393,0,0,0,51.557,30.656Zm-1.393,8.361H44.59V33.443h5.574Z" fill="#00357b"/>
      <path id="Trazado_104821" data-name="Trazado 104821" d="M58.525,41.8h8.361a1.393,1.393,0,0,0,1.393-1.393V32.049a1.393,1.393,0,0,0-1.393-1.393H58.525a1.393,1.393,0,0,0-1.393,1.393V40.41A1.393,1.393,0,0,0,58.525,41.8Zm1.393-8.361h5.574v5.574H59.918Z" fill="#00357b"/>
      <path id="Trazado_104822" data-name="Trazado 104822" d="M20.9,45.984H12.541a1.393,1.393,0,0,0-1.393,1.393v8.361a1.393,1.393,0,0,0,1.393,1.393H20.9A1.393,1.393,0,0,0,22.3,55.738V47.377A1.393,1.393,0,0,0,20.9,45.984Zm-1.393,8.361H13.934V48.77h5.574Z" fill="#00357b"/>
      <path id="Trazado_104823" data-name="Trazado 104823" d="M36.23,45.984H27.869a1.393,1.393,0,0,0-1.393,1.393v8.361a1.393,1.393,0,0,0,1.393,1.393H36.23a1.393,1.393,0,0,0,1.393-1.393V47.377A1.393,1.393,0,0,0,36.23,45.984Zm-1.393,8.361H29.262V48.77h5.574Z" fill="#00357b"/>
      <path id="Trazado_104824" data-name="Trazado 104824" d="M51.557,45.984H43.2A1.393,1.393,0,0,0,41.8,47.377v8.361A1.393,1.393,0,0,0,43.2,57.131h8.361a1.393,1.393,0,0,0,1.393-1.393V47.377A1.393,1.393,0,0,0,51.557,45.984Zm-1.393,8.361H44.59V48.77h5.574Z" fill="#00357b"/>
      <path id="Trazado_104825" data-name="Trazado 104825" d="M20.9,61.311H12.541A1.393,1.393,0,0,0,11.148,62.7v8.361a1.393,1.393,0,0,0,1.393,1.393H20.9A1.393,1.393,0,0,0,22.3,71.066V62.7A1.393,1.393,0,0,0,20.9,61.311Zm-1.393,8.361H13.934V64.1h5.574Z" fill="#00357b"/>
      <path id="Trazado_104826" data-name="Trazado 104826" d="M36.23,61.311H27.869A1.393,1.393,0,0,0,26.475,62.7v8.361a1.393,1.393,0,0,0,1.393,1.393H36.23a1.393,1.393,0,0,0,1.393-1.393V62.7A1.393,1.393,0,0,0,36.23,61.311Zm-1.393,8.361H29.262V64.1h5.574Z" fill="#00357b"/>
      <path id="Trazado_104827" data-name="Trazado 104827" d="M51.557,61.311H43.2A1.393,1.393,0,0,0,41.8,62.7v8.361A1.393,1.393,0,0,0,43.2,72.459h8.361a1.393,1.393,0,0,0,1.393-1.393V62.7A1.393,1.393,0,0,0,51.557,61.311Zm-1.393,8.361H44.59V64.1h5.574Z" fill="#00357b"/>
    </g>
  </g>
</svg>
