<svg xmlns="http://www.w3.org/2000/svg" xmlns:xlink="http://www.w3.org/1999/xlink" width="85" height="85" viewBox="0 0 85 85">
  <defs>
    <clipPath id="clip-path">
      <rect id="Rectángulo_8743" data-name="Rectángulo 8743" width="85" height="85" transform="translate(907 8995)" fill="#00357b" stroke="#707070" stroke-width="1"/>
    </clipPath>
  </defs>
  <g id="Enmascarar_grupo_61" data-name="Enmascarar grupo 61" transform="translate(-907 -8995)" clip-path="url(#clip-path)">
    <g id="mindset" transform="translate(905.637 8993.884)">
      <circle id="Elipse_5321" data-name="Elipse 5321" cx="1.363" cy="1.363" r="1.363" transform="translate(38.164 49.068)" fill="#00357b"/>
      <circle id="Elipse_5322" data-name="Elipse 5322" cx="1.363" cy="1.363" r="1.363" transform="translate(46.342 49.068)" fill="#00357b"/>
      <path id="Trazado_104828" data-name="Trazado 104828" d="M46.342,54.2a3.048,3.048,0,0,1-5.452,0l-.143-.288-2.438,1.22.143.286a5.774,5.774,0,0,0,10.329,0l.143-.288-2.438-1.22Z" fill="#00357b"/>
      <path id="Trazado_104829" data-name="Trazado 104829" d="M74.966,46.342a4.089,4.089,0,1,0,4.089,4.089A4.094,4.094,0,0,0,74.966,46.342Zm0,5.452a1.363,1.363,0,1,1,1.363-1.363A1.364,1.364,0,0,1,74.966,51.794Z" fill="#00357b"/>
      <path id="Trazado_104830" data-name="Trazado 104830" d="M86.363,48.516,82.3,41.433l-3.27,1.923V39.527H70.9l.025,3.83L67.63,41.433l-4.06,7.084,3.318,1.9-.025.014h-6.89a5.4,5.4,0,0,0-1.109-3.262l.5-1.5a11.916,11.916,0,0,0-8.929-15.447V27.26A1.364,1.364,0,0,1,51.794,25.9h4.089V23.171H51.794a4.094,4.094,0,0,0-4.089,4.089v2.726H42.253V10.9a1.364,1.364,0,0,1,1.363-1.363H66.9a9.4,9.4,0,0,0,4.182,9.322l.968,4.844a2.735,2.735,0,0,0,2.673,2.19h3.218a2.735,2.735,0,0,0,2.673-2.192l.968-4.843A9.534,9.534,0,1,0,67.721,6.815h-24.1A4.094,4.094,0,0,0,39.527,10.9V28.535a9.469,9.469,0,0,0-4.75-1.274h-.7v-10.9a4.094,4.094,0,0,0-4.089-4.089H28.352a9.192,9.192,0,0,0,.271-2.182V9.872A8.686,8.686,0,0,0,26.062,3.69a7.944,7.944,0,0,0-11.069-.161A7.944,7.944,0,0,0,3.924,3.69,8.682,8.682,0,0,0,1.363,9.872v.213A9.263,9.263,0,0,0,4.471,17l10.522,9.353L25.516,17A9.2,9.2,0,0,0,27.2,14.993h2.785a1.364,1.364,0,0,1,1.363,1.363V27.662a9.535,9.535,0,0,0-1.043,17.9,5.441,5.441,0,0,0-2.288,2.143H20.445V36.8H1.363V61.335H20.445v-10.9H27.26a5.458,5.458,0,0,0,5.452,5.452h.358A10.923,10.923,0,0,0,37.856,62.4l-.793,3.169-5.737.821A14.26,14.26,0,0,0,19.082,80.5V85.87H68.15V80.408a14.261,14.261,0,0,0-12.244-14.02l-5.737-.821L49.376,62.4a10.929,10.929,0,0,0,4.786-6.515h.358a5.434,5.434,0,0,0,4.694-2.726h4.818l3.6,6.273,3.2-1.961.075.049v3.818h8.133l-.007-3.819L82.3,59.43l4.06-7.084-3.3-1.915ZM77.938,23.171H74.72l-.6-2.995a9.208,9.208,0,0,0,4.415,0ZM74.966,10.9a1.363,1.363,0,1,1,1.363,1.363A1.364,1.364,0,0,1,74.966,10.9Zm1.363-6.815a6.815,6.815,0,0,1,1.363,13.492V14.742a4.089,4.089,0,1,0-2.726,0v2.839A6.815,6.815,0,0,1,76.329,4.089Zm-50.431,6a6.538,6.538,0,0,1-2.192,4.882L14.993,22.71,6.281,14.966a6.533,6.533,0,0,1-2.192-4.881V9.872A5.979,5.979,0,0,1,5.851,5.617a5.219,5.219,0,0,1,7.379,0l1.762,1.762,1.762-1.762a5.219,5.219,0,0,1,7.379,0A5.976,5.976,0,0,1,25.9,9.872ZM17.719,58.609H4.089V39.527h13.63ZM27.26,36.8a6.823,6.823,0,0,1,6.815-6.815h.7a6.771,6.771,0,0,1,4.818,2l.729.731h7.731A9.2,9.2,0,0,1,57.246,41.9a9.109,9.109,0,0,1-.473,2.906l-.194.579a5.421,5.421,0,0,0-2.06-.41H53.457a4.066,4.066,0,0,0-3.026-1.363H38.164A2.726,2.726,0,1,1,40.89,40.89h2.726a5.452,5.452,0,0,0-10.9,0,5.388,5.388,0,0,0,.724,2.662A6.8,6.8,0,0,1,27.26,36.8Zm2.726,13.63a2.729,2.729,0,0,1,2.726-2.726v5.452A2.729,2.729,0,0,1,29.986,50.431Zm30.3,20.476a11.519,11.519,0,0,1,5.137,9.51v2.726H57.246V77.692H54.52v5.452H32.712V77.692H29.986v5.452H21.808V80.5a11.539,11.539,0,0,1,9.9-11.421l5.592-.8a7.014,7.014,0,0,0,12.621,0l5.592.8a11.6,11.6,0,0,1,4.768,1.822Zm-12.643-4.2a4.295,4.295,0,0,1-8.055,0l.784-3.14a10.921,10.921,0,0,0,6.487,0Zm4.15-13.554a8.178,8.178,0,1,1-16.356,0V46.342H50.431a1.364,1.364,0,0,1,1.363,1.363Zm2.726,0V47.705a2.726,2.726,0,1,1,0,5.452Zm27.155-.382.975.567L81.3,55.691l-.921-.538a2.7,2.7,0,0,0-2.567-.071l-.168.085a2.721,2.721,0,0,0-1.343,2.342v1.1H73.626v-1.1a2.722,2.722,0,0,0-1.343-2.342l-.117-.065a2.7,2.7,0,0,0-2.616.052l-.923.538-1.345-2.348.975-.567a2.722,2.722,0,0,0,0-4.689l-.975-.567,1.345-2.348.921.538a2.721,2.721,0,0,0,4.077-2.354v-1.1h2.681v1.1A2.727,2.727,0,0,0,77.662,45.7a2.7,2.7,0,0,0,2.721.007l.923-.538,1.345,2.348-.975.567a2.721,2.721,0,0,0,0,4.687Z" fill="#00357b"/>
      <path id="Trazado_104831" data-name="Trazado 104831" d="M64.061,23.171h2.726V25.9H64.061Z" fill="#00357b"/>
      <path id="Trazado_104832" data-name="Trazado 104832" d="M58.609,23.171h2.726V25.9H58.609Z" fill="#00357b"/>
      <path id="Trazado_104833" data-name="Trazado 104833" d="M6.815,42.253h8.178v2.726H6.815Z" fill="#00357b"/>
      <path id="Trazado_104834" data-name="Trazado 104834" d="M6.815,47.705h8.178v2.726H6.815Z" fill="#00357b"/>
      <path id="Trazado_104835" data-name="Trazado 104835" d="M6.815,53.157h8.178v2.726H6.815Z" fill="#00357b"/>
    </g>
  </g>
</svg>
