<svg xmlns="http://www.w3.org/2000/svg" xmlns:xlink="http://www.w3.org/1999/xlink" width="295" height="263.814" viewBox="0 0 295 263.814">
  <defs>
    <clipPath id="clip-path">
      <circle id="Elipse_5341" data-name="Elipse 5341" cx="131.907" cy="131.907" r="131.907" fill="none"/>
    </clipPath>
  </defs>
  <g id="Grupo_70883" data-name="Grupo 70883" transform="translate(-195.657 -263.872)">
    <g id="Grupo_70862" data-name="Grupo 70862" transform="translate(195.657 263.872)">
      <g id="Grupo_70861" data-name="Grupo 70861" transform="translate(0 0)" clip-path="url(#clip-path)">
        <circle id="Elipse_5338" data-name="Elipse 5338" cx="131.907" cy="131.907" r="131.907" fill="#d9e5ff"/>
        <g id="Grupo_70825" data-name="Grupo 70825" transform="translate(16.642 26.339)">
          <g id="Grupo_70824" data-name="Grupo 70824">
            <g id="Grupo_70811" data-name="Grupo 70811" transform="translate(45.671 10.274)">
              <path id="Trazado_105071" data-name="Trazado 105071" d="M583.486,499.167l-2.278-.111a.37.37,0,0,1-.351-.387l.171-3.506a.178.178,0,0,0-.169-.186l-3.506-.171a.37.37,0,0,1-.351-.387l.111-2.278a.37.37,0,0,1,.387-.351l3.506.171a.178.178,0,0,0,.187-.169l.171-3.507a.37.37,0,0,1,.387-.351l2.278.111a.37.37,0,0,1,.351.387l-.171,3.507a.178.178,0,0,0,.169.186l3.506.171a.37.37,0,0,1,.351.387l-.111,2.278a.37.37,0,0,1-.387.351l-3.506-.171a.178.178,0,0,0-.186.169l-.171,3.506A.37.37,0,0,1,583.486,499.167Zm-6-7.187a.178.178,0,0,0-.187.169l-.111,2.278a.178.178,0,0,0,.169.186l3.506.171a.37.37,0,0,1,.351.387l-.171,3.506a.178.178,0,0,0,.169.186l2.278.111a.178.178,0,0,0,.186-.169l.171-3.506a.37.37,0,0,1,.387-.351l3.506.171a.178.178,0,0,0,.186-.169l.111-2.278a.178.178,0,0,0-.169-.186l-3.506-.171a.37.37,0,0,1-.351-.387l.171-3.506a.178.178,0,0,0-.169-.186l-2.278-.111a.178.178,0,0,0-.186.169l-.171,3.507a.37.37,0,0,1-.387.351Z" transform="translate(-577 -487.932)"/>
            </g>
            <g id="Grupo_70812" data-name="Grupo 70812" transform="translate(206.935 94.867)">
              <path id="Trazado_105072" data-name="Trazado 105072" d="M1570.387,1016.863l-2.278-.111a.37.37,0,0,1-.351-.387l.171-3.506a.178.178,0,0,0-.169-.186l-3.506-.171a.37.37,0,0,1-.351-.387l.111-2.278a.37.37,0,0,1,.387-.351l3.507.171a.178.178,0,0,0,.186-.169l.171-3.506a.37.37,0,0,1,.387-.351l2.278.111a.37.37,0,0,1,.351.387l-.171,3.506a.178.178,0,0,0,.169.187l3.506.171a.37.37,0,0,1,.351.387l-.111,2.278a.37.37,0,0,1-.387.351l-3.506-.171a.178.178,0,0,0-.187.169l-.171,3.506A.371.371,0,0,1,1570.387,1016.863Zm-6-7.187a.178.178,0,0,0-.187.169l-.111,2.278a.178.178,0,0,0,.169.186l3.506.171a.37.37,0,0,1,.351.387l-.171,3.506a.178.178,0,0,0,.169.187l2.278.111a.178.178,0,0,0,.187-.169l.171-3.506a.37.37,0,0,1,.387-.351l3.506.171a.178.178,0,0,0,.187-.169l.111-2.278a.178.178,0,0,0-.169-.186l-3.506-.171a.37.37,0,0,1-.351-.387l.171-3.506a.178.178,0,0,0-.169-.186l-2.278-.111a.178.178,0,0,0-.186.169l-.171,3.506a.37.37,0,0,1-.387.351Z" transform="translate(-1563.901 -1005.628)"/>
            </g>
            <path id="Trazado_105073" data-name="Trazado 105073" d="M308.283,1097.656l-3.506-.171a.272.272,0,0,1-.26-.283l.169-3.464a.272.272,0,0,0-.26-.283l-2.278-.111a.272.272,0,0,0-.287.257l-.169,3.464a.272.272,0,0,1-.287.257l-3.506-.171a.272.272,0,0,0-.287.257l-.11,2.25a.272.272,0,0,0,.26.284l3.507.171a.272.272,0,0,1,.26.283l-.169,3.463a.272.272,0,0,0,.26.284l2.278.111a.272.272,0,0,0,.287-.257l.169-3.463a.272.272,0,0,1,.287-.257l3.506.171a.272.272,0,0,0,.287-.257l.11-2.25A.272.272,0,0,0,308.283,1097.656Z" transform="translate(-297.501 -984.143)" fill="#fff"/>
            <g id="Grupo_70813" data-name="Grupo 70813" transform="translate(34.101 51.112)">
              <path id="Trazado_105074" data-name="Trazado 105074" d="M528.615,747.57a4.491,4.491,0,0,0-1.728-5.9l-4.055,7.99A4.491,4.491,0,0,0,528.615,747.57Z" transform="translate(-520.113 -741.045)" fill="#fff"/>
              <path id="Trazado_105075" data-name="Trazado 105075" d="M506.677,740.308a4.491,4.491,0,0,0,1.728,5.9l4.055-7.99A4.491,4.491,0,0,0,506.677,740.308Z" transform="translate(-506.191 -737.851)" fill="#fff"/>
            </g>
            <g id="Grupo_70819" data-name="Grupo 70819" transform="translate(169.489)">
              <g id="Grupo_70815" data-name="Grupo 70815">
                <g id="Grupo_70814" data-name="Grupo 70814">
                  <path id="Trazado_105076" data-name="Trazado 105076" d="M1337.207,436.458a1.639,1.639,0,0,1-.735-.215l-.906-.518a1.634,1.634,0,0,1-.768-.991,1.615,1.615,0,0,1,.154-1.24l4.353-7.614a1.639,1.639,0,0,1,2.235-.6l.906.518a1.634,1.634,0,0,1,.768.991,1.616,1.616,0,0,1-.154,1.241l-4.353,7.614A1.633,1.633,0,0,1,1337.207,436.458Zm3.589-11.224a1.461,1.461,0,0,0-1.341.731l-4.353,7.614a1.444,1.444,0,0,0-.137,1.108,1.461,1.461,0,0,0,.687.887l.906.518a1.465,1.465,0,0,0,2-.538l4.353-7.615a1.444,1.444,0,0,0,.137-1.109,1.462,1.462,0,0,0-.687-.887l-.906-.518A1.463,1.463,0,0,0,1340.8,425.234Z" transform="translate(-1334.738 -425.059)" fill="#fff"/>
                </g>
              </g>
              <g id="Grupo_70817" data-name="Grupo 70817" transform="translate(3.247 3.063)">
                <g id="Grupo_70816" data-name="Grupo 70816">
                  <path id="Trazado_105077" data-name="Trazado 105077" d="M1358.386,445.8l-.138.242a11.54,11.54,0,0,1-2.1-.936,10.677,10.677,0,0,1-1.536-1.063l.137-.24A10.88,10.88,0,0,0,1358.386,445.8Z" transform="translate(-1354.607 -443.806)" fill="#fff"/>
                </g>
              </g>
              <g id="Grupo_70818" data-name="Grupo 70818" transform="translate(7.037 4.483)">
                <path id="Trazado_105078" data-name="Trazado 105078" d="M1378.093,482.352l-.29,5.953a1.555,1.555,0,0,0,1.477,1.619l1.042.051a1.555,1.555,0,0,0,1.628-1.468l.294-6.025a11.515,11.515,0,0,1-2.3.12A10.682,10.682,0,0,1,1378.093,482.352Z" transform="translate(-1377.801 -477.473)" fill="#fff"/>
                <path id="Trazado_105079" data-name="Trazado 105079" d="M1382.464,452.547l-1.042-.051a1.555,1.555,0,0,0-1.628,1.469l-.123,2.532a10.882,10.882,0,0,0,4.151.128l.12-2.458A1.555,1.555,0,0,0,1382.464,452.547Z" transform="translate(-1379.365 -452.495)" fill="#fff"/>
                <path id="Trazado_105080" data-name="Trazado 105080" d="M1379.6,476.986l-.014.276a10.682,10.682,0,0,0,1.852.25,11.53,11.53,0,0,0,2.3-.12l.014-.278A10.882,10.882,0,0,1,1379.6,476.986Z" transform="translate(-1379.296 -472.984)" fill="#fff"/>
              </g>
            </g>
            <g id="Grupo_70823" data-name="Grupo 70823" transform="translate(27.728 65.111)">
              <g id="Grupo_70822" data-name="Grupo 70822">
                <g id="Grupo_70820" data-name="Grupo 70820" transform="translate(4.406)">
                  <path id="Trazado_105081" data-name="Trazado 105081" d="M494.712,831.844l-.555-8.317h.1a4.17,4.17,0,0,1,.555,8.3Zm-.35-8.125.528,7.907a3.978,3.978,0,0,0-.528-7.907Z" transform="translate(-494.157 -823.526)" fill="#fff"/>
                </g>
                <g id="Grupo_70821" data-name="Grupo 70821" transform="translate(0 0.005)">
                  <path id="Trazado_105082" data-name="Trazado 105082" d="M471.159,831.869a4.17,4.17,0,0,1-.332-8.3l.1-.013.555,8.317h-.1Q471.27,831.874,471.159,831.869Zm-.408-8.1a3.978,3.978,0,0,0,.528,7.908Z" transform="translate(-467.192 -823.556)" fill="#fff"/>
                </g>
              </g>
            </g>
          </g>
        </g>
        <path id="Trazado_105083" data-name="Trazado 105083" d="M663.61,937.763a31.068,31.068,0,0,0,.514,4.559,138.9,138.9,0,0,1,2.628,18.3,170.954,170.954,0,0,1-.656,29.838H768.751c-.282-5.968-.37-12.055-.268-18.318.118-7.28.034-15.882.2-23.24.3-13.186,3.925-25.64,4.965-38.588.012-.135.022-.3.031-.43,1.135-15.9-6.693-29.841-8.082-45.382-.2-2.2,4.856-24.67,6.9-24.657-.959-.119-6.412-1.958-9.9-2.535-1.119-.182-2.311-.391-3.542-.616-.436-.081-.874-.163-1.318-.25-1.245-.241-2.519-.5-3.78-.786-3.918-.88-6.694-3.119-9.38-4.368-4.139-1.931-4.662-25.244-4.756-27.327l-36.354,1.2-3.738-.468c-.1.768-2.677,20.666-8.938,27.59-2.127,2.352-4.68,2.766-7.851,3.506a7.129,7.129,0,0,0-1.691.389c-1.364.273-2.725.487-4.074.681-.558.084-1.112.139-1.665.209-.569.072-1.138.134-1.7.189-.039.005-.073.008-.11.011-.09.008-1.946.244-3.425.432-.924.115-1.7.212-1.791.217,0,0,.2,1.023.478,2.409q.348,1.733.626,3.483a83.325,83.325,0,0,1,.333,23.878,40.426,40.426,0,0,1-2.365,10.245c-1.318,3.185-1.235,6.139-1.341,9.6q-.572,18.688-1.9,37.343A114.524,114.524,0,0,0,663.61,937.763Z" transform="translate(-587.116 -715.706)" fill="#ffb98f"/>
        <path id="Trazado_105084" data-name="Trazado 105084" d="M607.884,1040.4c-2.089-11.758-3.186-41.051-15.244-48.511-5.624-3.481-22.472-9.256-37.984-11.876-5.372-.907-9,1.279-12.56.957-1.2,6-.673,17.1-.911,17.925a32.207,32.207,0,0,1-3.424,7.568c-.422.69-.882,1.388-1.376,2.086-4.282,6-11.425,11.831-22.3,11.758a31.68,31.68,0,0,1-19.261-6.471,29.8,29.8,0,0,1-6.092-6.265.174.174,0,0,1-.034-.046,23.763,23.763,0,0,1-3.761-7.852c-.211-.832-2.4-7.514-3.769-14.013-2.829.219.5-7.146-3.655-6.436-3.565.609-26.672,4.324-44.972,18.656-6.9,5.4-7.717,20.946-8.6,32.632-1.933,25.619-1.282,27.161-2.95,55.584-.845,14.408.8,36.648,4.664,37.935,2.48.826,67.151,1.56,67.151,1.56h4.558l41.152.008h6.617s27.3.128,28.86.223c7.451.453,34.32-.626,34.377-2.087.275-7.031-.6-22.819-.7-29.187C607.289,1068.142,610.713,1056.319,607.884,1040.4Z" transform="translate(-383.992 -862.294)" fill="#fff"/>
        <path id="Trazado_105085" data-name="Trazado 105085" d="M848.492,1143.347l-52.824,1.887c-4.095-16.428-18.492-86.763-9.134-130.487.019-.1.042-.211.069-.318.878-4.064,5.093-32.141,6.339-36.075.633,1.426,16.588,29.089,26.32,40.341,9.992-11.819,20.284-32.3,23.653-40.609C854.129,999.727,850.34,1124.067,848.492,1143.347Z" transform="translate(-687.386 -861.38)" fill="#44a4bb"/>
        <g id="Grupo_70826" data-name="Grupo 70826" transform="translate(127.249 104.121)" opacity="0.25" style="mix-blend-mode: multiply;isolation: isolate">
          <path id="Trazado_105086" data-name="Trazado 105086" d="M979.777,901.134a12.369,12.369,0,0,0-2.931.054,7.22,7.22,0,0,0-1.483.384,3.566,3.566,0,0,0-.968.5c.222-.061.437-.172.656-.245a6.98,6.98,0,0,1,.7-.192,7.961,7.961,0,0,1,1.76-.179,15.267,15.267,0,0,1,3.377.437q.444.1.885.225c.119.033.237.072.356.1s.286.1.4.051c-.036-.175-.316-.322-.458-.407a4.808,4.808,0,0,0-.61-.312,5.681,5.681,0,0,0-1.682-.417Z" transform="translate(-974.395 -901.073)" fill="#e1a583"/>
        </g>
        <g id="Grupo_70833" data-name="Grupo 70833" transform="translate(129.826 118.172)">
          <g id="Grupo_70828" data-name="Grupo 70828" transform="translate(0 55.119)">
            <g id="Grupo_70827" data-name="Grupo 70827">
              <path id="Trazado_105087" data-name="Trazado 105087" d="M997.5,1370.513a9.309,9.309,0,0,1-4.061-.845,5.5,5.5,0,0,1-3.023-4.43c-1.669-17.543,5.369-40.627,5.44-40.858l1.1.339c-.07.229-7.041,23.1-5.394,40.41a4.344,4.344,0,0,0,2.379,3.5c3.417,1.655,8.01-.033,8.056-.05l.4,1.077A15.394,15.394,0,0,1,997.5,1370.513Z" transform="translate(-990.165 -1324.38)" fill="#fff"/>
            </g>
            <path id="Trazado_105088" data-name="Trazado 105088" d="M1054.079,1588.481l.375,1.7a.565.565,0,0,0,.666.434c1.255-.26,4.187-1.07,3.628-2.876-.319-1.031-3.128-.28-4.285.077A.565.565,0,0,0,1054.079,1588.481Z" transform="translate(-1043.624 -1544.27)" fill="#2c253a"/>
          </g>
          <g id="Grupo_70830" data-name="Grupo 70830" transform="translate(2.005 58.372)">
            <g id="Grupo_70829" data-name="Grupo 70829" transform="translate(2.418)">
              <path id="Trazado_105089" data-name="Trazado 105089" d="M1024.794,1387.982c-3.9,0-7.4-2.849-7.56-2.979l.732-.887c.038.031,3.839,3.121,7.6,2.671a4.344,4.344,0,0,0,3.39-2.538c7.2-15.837,8.049-39.725,8.057-39.964l1.149.037c-.008.242-.87,24.359-8.159,40.4a5.5,5.5,0,0,1-4.3,3.2A7.68,7.68,0,0,1,1024.794,1387.982Z" transform="translate(-1017.234 -1344.284)" fill="#fff"/>
            </g>
            <path id="Trazado_105090" data-name="Trazado 105090" d="M1006.887,1578.206l-.908,1.487a.565.565,0,0,1-.771.194c-1.1-.655-3.611-2.375-2.494-3.9.637-.87,3.049.754,4.026,1.468A.565.565,0,0,1,1006.887,1578.206Z" transform="translate(-1002.434 -1537.916)" fill="#2c253a"/>
          </g>
          <g id="Grupo_70831" data-name="Grupo 70831" transform="translate(2.346 46.713)">
            <path id="Trazado_105091" data-name="Trazado 105091" d="M1025.892,1297.585a.959.959,0,0,1-.937-1.165c.029-.13,2.816-13.08-1.268-18.875a6.009,6.009,0,0,0-4.371-2.62,7.5,7.5,0,0,0-5.886,1.639c-5.721,4.553-6.982,16.521-6.994,16.641a.958.958,0,0,1-1.907-.19c.052-.524,1.351-12.889,7.7-17.949a9.445,9.445,0,0,1,7.324-2.043,7.934,7.934,0,0,1,5.7,3.419c4.569,6.487,1.7,19.826,1.572,20.391A.959.959,0,0,1,1025.892,1297.585Z" transform="translate(-1004.524 -1272.936)" fill="#0e0824"/>
          </g>
          <g id="Grupo_70832" data-name="Grupo 70832" transform="translate(17.374 0)">
            <path id="Trazado_105092" data-name="Trazado 105092" d="M1097.451,1035.664a.959.959,0,0,1-.915-1.244c3.724-11.942,8.893-29.84,7.454-45.86-.047-.527,1.139-1.449,1.667-1.5s.565.867.612,1.395c1.467,16.333-4.128,34.425-7.9,46.533A.959.959,0,0,1,1097.451,1035.664Z" transform="translate(-1096.492 -987.061)" fill="#0e0824"/>
          </g>
        </g>
        <g id="Grupo_70838" data-name="Grupo 70838" transform="translate(101.633 126.274)">
          <g id="Grupo_70834" data-name="Grupo 70834" transform="translate(0.721 0)">
            <path id="Trazado_105093" data-name="Trazado 105093" d="M833.315,1117.792a.959.959,0,0,1-.942-.785c-3.242-17.628-6.1-35.334-8.095-53.15q-.734-6.564-1.3-13.145c-.346-4.044-1.269-8.649-.814-12.67.075-.666.411-1.7,1.3-1.314.831.364.594,2.374.635,3.062q.232,3.862.539,7.719.6,7.646,1.451,15.27c1.062,9.629,2.378,19.228,3.874,28.8,1.31,8.381,2.762,16.74,4.3,25.083a.959.959,0,0,1-.77,1.116A.943.943,0,0,1,833.315,1117.792Z" transform="translate(-822.039 -1036.643)" fill="#0e0824"/>
          </g>
          <g id="Grupo_70837" data-name="Grupo 70837" transform="translate(0 64.41)">
            <g id="Grupo_70836" data-name="Grupo 70836" transform="translate(0 0)">
              <circle id="Elipse_5339" data-name="Elipse 5339" cx="8.847" cy="8.847" r="8.847" transform="translate(0.063 15.119) rotate(-57.192)" fill="#d9e5ff"/>
              <circle id="Elipse_5340" data-name="Elipse 5340" cx="8.847" cy="8.847" r="8.847" transform="translate(0 7.474) rotate(-24.986)" fill="#fff"/>
              <path id="Trazado_105094" data-name="Trazado 105094" d="M862.182,1467.472a5.949,5.949,0,1,1-5.931-5.967A5.949,5.949,0,0,1,862.182,1467.472Z" transform="translate(-844.948 -1456.491)" fill="#d9e5ff"/>
              <g id="Grupo_70835" data-name="Grupo 70835" transform="translate(11.1 4.841)">
                <path id="Trazado_105095" data-name="Trazado 105095" d="M885.762,1460.793a5.776,5.776,0,0,1-.037,11.553.173.173,0,0,0,0,.345,6.121,6.121,0,0,0,.037-12.243c-.222-.007-.222.338,0,.345Z" transform="translate(-885.559 -1460.448)" fill="#07071f"/>
              </g>
            </g>
          </g>
        </g>
        <g id="Grupo_70842" data-name="Grupo 70842" transform="translate(187.404 171.761)">
          <path id="Trazado_105096" data-name="Trazado 105096" d="M1346.2,1402.956c-6.407-11.715-3.5-24.463,1.715-33.84,4.434-7.973,12.869-16.927,17.992-24.46,3.147-4.628,17.233-29.676,17.371-29.641,6.869,1.752,11.874,5.106,15.434,6.886,3.148,1.574,8.8,5.114,10.207,6.9,2.121,3.61-.783,9.056-2.134,13.684-6.145,21.047-11.335,28.97-14.131,35.838-3.565,8.757-9.263,15.513-14.644,23.09-3.926,5.528-14.264,11.819-21.893,9.609A16.366,16.366,0,0,1,1346.2,1402.956Z" transform="translate(-1342.531 -1315.015)" fill="#fff"/>
          <g id="Grupo_70840" data-name="Grupo 70840" transform="translate(39.596 9.436)">
            <g id="Grupo_70839" data-name="Grupo 70839">
              <path id="Trazado_105097" data-name="Trazado 105097" d="M1605.224,1384.128a83.863,83.863,0,0,0-20.243-10.974c-.234-.088-.133-.468.1-.379a84.218,84.218,0,0,1,20.337,11.014c.2.148.006.489-.2.339Z" transform="translate(-1584.848 -1372.762)"/>
            </g>
          </g>
          <g id="Grupo_70841" data-name="Grupo 70841" transform="translate(4.985 32.442)">
            <path id="Trazado_105098" data-name="Trazado 105098" d="M1389.7,1513.874a55.533,55.533,0,0,0-11.587,12.835c-1.729,2.584-3.775,5.5-4.689,8.52-.073.241-.452.138-.379-.1.925-3.053,2.979-6,4.728-8.614a55.844,55.844,0,0,1,11.649-12.915c.2-.155.476.121.278.278Z" transform="translate(-1373.035 -1513.551)"/>
          </g>
        </g>
        <path id="Trazado_105099" data-name="Trazado 105099" d="M1162.231,917.571c-1.3,7.339-3.689,28.167-3.689,28.167l-11.769,1.481,11.087,7.755-8.052,119.854-8.085,1.078c3.569-27.029-3.922-171.669-3.922-171.669S1156.187,912.965,1162.231,917.571Z" transform="translate(-983.85 -799.599)" fill="#fff"/>
        <path id="Trazado_105100" data-name="Trazado 105100" d="M731.248,1066.791c-4.4-58.136-6.776-98.145-4.541-124.549,1.208-14.239,3.449-21.912,5.466-34.135-16.053,5.568-25.643,12.563-25.643,12.563l3.683,27.021,10.156,2.147.284.061-.353.257-9.4,6.771,11.353,110.728Z" transform="translate(-623.051 -802.837)" fill="#fff"/>
        <g id="Grupo_70843" data-name="Grupo 70843" transform="translate(83.692 119.125)">
          <path id="Trazado_105101" data-name="Trazado 105101" d="M707.838,993.109l2.02,15.916,1.072,8.447c.043.337,0,1.019.213,1.313.107.145.445.241.592.316l1.775.912,8.335,4.284.055-.42-9.971,3.76a.235.235,0,0,0-.169.222l3.626,28.513,5.736,45.106c.438,3.443,3.436,25.958,3.874,29.4.037.29.5.293.46,0-.438-3.443-3.436-25.958-3.874-29.4q-1.529-12.021-3.057-24.042l-3.42-26.893q-1.226-9.638-2.451-19.275c-.142-1.121-.329-2.247-.429-3.373-.011-.128-.172.192-.156.181a2.422,2.422,0,0,1,.5-.19l2.341-.883,5.92-2.233,1.188-.448a.233.233,0,0,0,.055-.42l-7.155-3.677c-1.08-.555-2.166-1.247-3.3-1.694-.364-.144-.053.149-.1-.016a4.5,4.5,0,0,1-.093-.732l-2.346-18.488q-.392-3.091-.785-6.183c-.037-.29-.5-.294-.46,0Z" transform="translate(-707.836 -992.891)" fill="#07071f"/>
        </g>
        <g id="Grupo_70844" data-name="Grupo 70844" transform="translate(163.898 119.252)">
          <path id="Trazado_105102" data-name="Trazado 105102" d="M1213.819,993.885l-1.8,15.942-.958,8.46c-.038.338.018,1.019-.2,1.316-.1.146-.442.247-.587.324l-1.762.936-8.277,4.4-.061-.42,10.021,3.625a.235.235,0,0,1,.172.219q-1.62,14.28-3.24,28.56L1202,1102.423c-.391,3.449-2.469,25.662-2.86,29.111-.033.29-.493.3-.46.006.391-3.449,2.469-25.662,2.86-29.111l2.732-24.081,3.056-26.937,2.19-19.307c.127-1.123.3-2.251.383-3.379.01-.128.174.19.158.179a2.427,2.427,0,0,0-.506-.183l-2.353-.851-5.95-2.153-1.194-.432a.233.233,0,0,1-.061-.42l7.1-3.773c1.072-.569,2.149-1.276,3.273-1.738.362-.149.055.148.1-.018a4.475,4.475,0,0,0,.083-.734q1.048-9.259,2.1-18.518.351-3.1.7-6.193c.033-.29.493-.3.46-.006Z" transform="translate(-1198.679 -993.669)" fill="#07071f"/>
        </g>
        <g id="Grupo_70857" data-name="Grupo 70857" transform="translate(95.66 12.336)">
          <path id="Trazado_105103" data-name="Trazado 105103" d="M913.969,829.95c-2.024,3.858-9,12.855-21.237,12.753-7.462-.062-18.413-8.672-22.072-14.143.135-.46,1.244-5.371,1.257-5.687,1.143.2,39.494-5.236,39.778-4.906C913.536,819.574,913.836,829.212,913.969,829.95Z" transform="translate(-856.021 -739.75)" fill="#f2a980" opacity="0.15" style="mix-blend-mode: multiply;isolation: isolate"/>
          <g id="Grupo_70856" data-name="Grupo 70856">
            <path id="Trazado_105104" data-name="Trazado 105104" d="M806.21,416.88s-5.685,37.043,9.816,56.807C831.9,493.93,843.772,487.1,855.7,473.7c8.473-9.522,13.087-35.061,11.49-55.414S817.911,383.034,806.21,416.88Z" transform="translate(-801.251 -387.428)" fill="#ffb98f"/>
            <path id="Trazado_105105" data-name="Trazado 105105" d="M1172.172,635.205c-.937.5-3.456-.507-3.327-.819.028-.07.146-.947.307-2.257.323-2.593.825-6.879,1.192-10.034.265-2.3.46-4,.46-4,.1.006.721-.088,1.524-.177.42-.046.889-.09,1.361-.117,1.429-.082,2.892-.005,3.086.657C1177.417,620.663,1174.782,633.828,1172.172,635.205Z" transform="translate(-1105.478 -572.283)" fill="#ffb98f"/>
            <path id="Trazado_105106" data-name="Trazado 105106" d="M787.2,618.456c-.322-.007-5.488-1.418-5.98-.153-.831,2.139,2.137,15.519,4.3,17.2.839.651,2.32-.325,2.22-.649S787.2,618.456,787.2,618.456Z" transform="translate(-781.076 -572.284)" fill="#ffb98f"/>
            <path id="Trazado_105107" data-name="Trazado 105107" d="M856.964,351.277c-3.2-6.474-11.246-7-14.262-7.952a3.759,3.759,0,0,1-1.374-.65,8.069,8.069,0,0,1-.955-1.257c-1.134-1.462-3.181-1.79-5.027-1.918a57.116,57.116,0,0,0-21.077,2.516c-1.873.591-3.431,1.832-5.3,2.324a15.581,15.581,0,0,1-3.473.262c-5.651.181-12.79,3.635-14.876,8.791-1.676,4.142-1.723,14.218-1.821,14.789-.057.331,2.524,14.149,2.528,14.318a1.288,1.288,0,0,0,1.714-.112c.968-.967,2.043-2.014,2.913-2.846,1.546-1.48,3.393-2.592,5.5-2.245s4.137.563,5.209.744a54.333,54.333,0,0,0,18.85.1,41.234,41.234,0,0,0,5.934-1.552,34.618,34.618,0,0,0,6.617-3.105,6.2,6.2,0,0,1,8.877,2.74c.916,2.039,1.8,4.137,2.331,5.691.573,1.689,1.27,3.982,1.948,5.4a7.521,7.521,0,0,0,3.289-.22,55.662,55.662,0,0,0,4.539-17.253C859.613,363.9,859,356.188,856.964,351.277Z" transform="translate(-787.534 -339.368)" fill="#0c132e"/>
            <g id="Grupo_70848" data-name="Grupo 70848" transform="translate(13.121 43.826)">
              <g id="Grupo_70845" data-name="Grupo 70845" transform="translate(18.38 5.652)">
                <path id="Trazado_105108" data-name="Trazado 105108" d="M978.229,657.734c2.643-4.444,3.04-11.482.563-15.431a.283.283,0,0,0-.526.123,14.539,14.539,0,0,0,.437,3.064,17.858,17.858,0,0,1-3.508,12.978c-1.031,1.221-2.05,2.449-.679,2.875.509.159.906-.3,1.653-.687,1.119-.411,1.566,1.092,2.881,1.329C979.051,661.985,977.207,659.677,978.229,657.734Z" transform="translate(-973.853 -642.165)" fill="#f2a980" opacity="0.15" style="mix-blend-mode: multiply;isolation: isolate"/>
                <path id="Trazado_105109" data-name="Trazado 105109" d="M986.034,758.057c.235,0,.484-.036.424-.33-.046-.225-.508-.328-.7-.3-.243.037-.691.272-.709.382C985.018,757.987,985.9,758.06,986.034,758.057Z" transform="translate(-983.218 -738.59)" fill="#f2a980" opacity="0.15" style="mix-blend-mode: multiply;isolation: isolate"/>
                <path id="Trazado_105110" data-name="Trazado 105110" d="M1013.014,759.223c-.2-.04-.521-.209-.357-.459.126-.193.664-.171.843-.093.319.138.336.345.75.486-.022.1-.627.149-.733.14A4.39,4.39,0,0,1,1013.014,759.223Z" transform="translate(-1006.279 -739.585)" fill="#f2a980" opacity="0.15" style="mix-blend-mode: multiply;isolation: isolate"/>
              </g>
              <g id="Grupo_70846" data-name="Grupo 70846" transform="translate(29.355 0)">
                <path id="Trazado_105111" data-name="Trazado 105111" d="M1052.2,608.132a17.15,17.15,0,0,1,2.876.676c1.245.391,2.682,2.61,2.552,3.575-.4-.156-1.2-.387-1.6-.538a16.673,16.673,0,0,0-3.3-.581,38.329,38.329,0,0,0-6.357.112c-1.562.109-3.373.572-4.972.546-.355-.006-.385-.147-.371-.544a4.722,4.722,0,0,1,.047-.522,7.551,7.551,0,0,1,.979-2.8.617.617,0,0,1,.421-.291,27.623,27.623,0,0,1,5.4-.092A43.46,43.46,0,0,1,1052.2,608.132Z" transform="translate(-1041.022 -607.577)" fill="#0c132e"/>
              </g>
              <g id="Grupo_70847" data-name="Grupo 70847">
                <path id="Trazado_105112" data-name="Trazado 105112" d="M867.191,607.653a17.129,17.129,0,0,0-2.928.392c-1.277.268-2.924,2.335-2.89,3.308.409-.116,1.228-.268,1.649-.379a16.652,16.652,0,0,1,3.341-.256,38.322,38.322,0,0,1,6.316.733c1.544.262,3.3.9,4.895,1.03.354.029.4-.108.422-.505a4.744,4.744,0,0,0,0-.524,7.552,7.552,0,0,0-.7-2.886.617.617,0,0,0-.391-.33,27.635,27.635,0,0,0-5.366-.621A43.455,43.455,0,0,0,867.191,607.653Z" transform="translate(-861.373 -607.577)" fill="#0c132e"/>
              </g>
            </g>
            <g id="Grupo_70850" data-name="Grupo 70850" transform="translate(43.883 49.709)">
              <path id="Trazado_105113" data-name="Trazado 105113" d="M1051.33,650.749a5.62,5.62,0,0,0,5.273,2.669c3.613-.323,4.346-2.671,4.346-2.671a9.762,9.762,0,0,0-5-1.634A9.443,9.443,0,0,0,1051.33,650.749Z" transform="translate(-1051.052 -648.205)" fill="#fff"/>
              <path id="Trazado_105114" data-name="Trazado 105114" d="M1059.7,645.9a.316.316,0,0,1-.342.518c-3.058-1.261-6.017-.934-9.265-.245a.379.379,0,0,1-.4-.577,4.54,4.54,0,0,1,2.776-1.8,7.254,7.254,0,0,1,5.408.756A9.37,9.37,0,0,1,1059.7,645.9Z" transform="translate(-1049.632 -643.576)" fill="#0c132e"/>
              <g id="Grupo_70849" data-name="Grupo 70849" transform="translate(3.348 1.259)">
                <path id="Trazado_105115" data-name="Trazado 105115" d="M1071.706,654.834a1.783,1.783,0,1,1,1.969-1.575A1.783,1.783,0,0,1,1071.706,654.834Z" transform="translate(-1070.12 -651.279)" fill="#0c132e"/>
                <path id="Trazado_105116" data-name="Trazado 105116" d="M1084.176,656.537a.227.227,0,1,1,.251-.2A.227.227,0,0,1,1084.176,656.537Z" transform="translate(-1081.711 -655.299)" fill="#fff"/>
              </g>
            </g>
            <g id="Grupo_70852" data-name="Grupo 70852" transform="translate(17.751 49.709)">
              <path id="Trazado_105117" data-name="Trazado 105117" d="M891.015,650.981a5.308,5.308,0,0,0,4.88,3.132,4.675,4.675,0,0,0,4.76-2.8s-.707-1.418-4.671-1.511A10.129,10.129,0,0,0,891.015,650.981Z" transform="translate(-890.802 -648.784)" fill="#fff"/>
              <path id="Trazado_105118" data-name="Trazado 105118" d="M913.991,655.868a1.783,1.783,0,1,1,.049-2.521A1.782,1.782,0,0,1,913.991,655.868Z" transform="translate(-907.498 -651.294)" fill="#0c132e"/>
              <g id="Grupo_70851" data-name="Grupo 70851" transform="translate(5.631 2.409)">
                <path id="Trazado_105119" data-name="Trazado 105119" d="M924.393,658.772a.227.227,0,1,1,.231-.223A.227.227,0,0,1,924.393,658.772Z" transform="translate(-924.171 -658.318)" fill="#fff"/>
              </g>
              <path id="Trazado_105120" data-name="Trazado 105120" d="M889.827,645.411a.316.316,0,0,0,.292.548c3.162-.969,6.078-.365,9.247.626a.379.379,0,0,0,.452-.537,4.541,4.541,0,0,0-2.594-2.054,7.254,7.254,0,0,0-5.455.245A9.361,9.361,0,0,0,889.827,645.411Z" transform="translate(-889.709 -643.576)" fill="#0c132e"/>
            </g>
            <path id="Trazado_105121" data-name="Trazado 105121" d="M868.262,592.064c-.01-.128-3.5-.845-3.444-.3.272,2.536-1.351,12.955-1.635,14.8a48.847,48.847,0,0,1-1.794,7.883c-1.326,4-3.528,9.213-10.472,9.683a7.474,7.474,0,0,1-5.93-2.294,5.04,5.04,0,0,0-3.117-1.049c-1.049.066-2.885.039-4.8,0v-.032l-.713.016-.713-.016v.032c-1.917.041-3.753.068-4.8,0a5.04,5.04,0,0,0-3.117,1.049,7.474,7.474,0,0,1-5.93,2.294c-6.944-.47-9.146-5.685-10.472-9.683a48.847,48.847,0,0,1-1.794-7.883c-.284-1.848-1.907-12.267-1.635-14.8.058-.544-3.434.172-3.444.3-.469,6.239,1.419,17.75,1.423,19.541.012,4.784,3.141,17.27,5.2,20.845,3.011,5.224,5.5,8.551,13.046,13.872,3.848,2.713,10.192,3.551,13.624,3.551a23.145,23.145,0,0,0,12.385-3.881c7.546-5.321,8.384-7.987,11.395-13.211,2.061-3.575,5.3-16.391,5.314-21.176C866.843,609.814,868.731,598.3,868.262,592.064Z" transform="translate(-800.567 -550.352)" fill="#0c132e"/>
            <g id="Grupo_70855" data-name="Grupo 70855" transform="translate(28.147 78.024)">
              <g id="Grupo_70854" data-name="Grupo 70854">
                <g id="Grupo_70853" data-name="Grupo 70853">
                  <path id="Trazado_105122" data-name="Trazado 105122" d="M957.051,821.174a12.68,12.68,0,0,0,3.931.555,10.706,10.706,0,0,0,3.669-.446c2.086-.672,5.03-2.96,4-4.143a.5.5,0,0,0-.087-.091,1.62,1.62,0,0,0-1.106-.164,58.665,58.665,0,0,1-5.908.495A44.653,44.653,0,0,1,955.2,817a3.12,3.12,0,0,0-1.506.1.972.972,0,0,0-.292.382C952.841,818.81,955.869,820.741,957.051,821.174Z" transform="translate(-953.331 -816.861)" fill="#ec194d"/>
                </g>
              </g>
              <path id="Trazado_105123" data-name="Trazado 105123" d="M953.748,817.483c.972.65,3.043,1.472,7.254,1.5,5.043.026,7.19-1.173,7.995-1.843a.5.5,0,0,0-.087-.091,1.619,1.619,0,0,0-1.106-.164,58.666,58.666,0,0,1-5.908.495,44.652,44.652,0,0,1-6.351-.379,3.12,3.12,0,0,0-1.506.1A.971.971,0,0,0,953.748,817.483Z" transform="translate(-953.68 -816.861)" fill="#fff"/>
            </g>
          </g>
        </g>
        <g id="Grupo_70858" data-name="Grupo 70858" transform="translate(185.585 184.86)">
          <path id="Trazado_105124" data-name="Trazado 105124" d="M1331.966,1435.458l-.568-.013c.311-13.35.411-26.9.3-40.262l.568,0C1332.376,1408.549,1332.276,1422.1,1331.966,1435.458Z" transform="translate(-1331.398 -1395.177)" fill="#d9e5ff"/>
        </g>
        <g id="Grupo_70859" data-name="Grupo 70859" transform="translate(79.382 183.167)">
          <path id="Trazado_105125" data-name="Trazado 105125" d="M682.7,1429.933c-.071-3.063-.257-9.222-.473-16.353-.354-11.723-.755-25.011-.772-28.762l.568,0c.017,3.744.418,17.028.772,28.748.215,7.132.4,13.292.472,16.357Z" transform="translate(-681.457 -1384.815)" fill="#d9e5ff"/>
        </g>
        <g id="Grupo_70860" data-name="Grupo 70860" transform="translate(263.417 146.856)">
          <path id="Trazado_105126" data-name="Trazado 105126" d="M1817.523,1177.263a26.614,26.614,0,0,0-9.806-14.2l.336-.457a27.183,27.183,0,0,1,10.016,14.51Z" transform="translate(-1807.717 -1162.601)" fill="#ffb98f"/>
        </g>
      </g>
    </g>
    <g id="Grupo_70870" data-name="Grupo 70870" transform="translate(428.397 395.145)">
      <path id="Trazado_105127" data-name="Trazado 105127" d="M1678.206,1095.629a3.12,3.12,0,0,1,.934,3.868,20.063,20.063,0,0,1-3.3,3.568c-2.492,2.412-4.561,4.249-7.056,6.661a32.719,32.719,0,0,1-8.106,6.045c-.766.383-2.523,1.144-3.329,1.425-1.958.752-3.42.982-5.307,1.669-3.451,1.266-7.3,2.356-9.426,5.359-1.144,1.615-1.836,3.749-3.709,8.56-.386-.292-.806-.593-1.246-.9l-.355-.244c-.026-.017-.051-.037-.079-.054q-.23-.157-.468-.315c-.63-.417-1.283-.834-1.936-1.234-.176-.108-.352-.216-.528-.321-.38-.23-.758-.451-1.124-.661-.244-.142-.486-.278-.721-.409-.588-.329-1.141-.622-1.635-.869l-.338-.17a96.877,96.877,0,0,0-10.5-5.236c2.449-7.442,4.379-13.944,8.875-19.575a18.74,18.74,0,0,1,8.205-6.014,58.036,58.036,0,0,1,10.3-2.813c8.2-3.463,13.708-7.138,21.377-10.155a9.9,9.9,0,0,1,3.358-.837c1.7-.062,2.892,1.862,2.535,2.855a9.506,9.506,0,0,1,3.55-1.311,2.373,2.373,0,0,1,2.359,1.689,2.235,2.235,0,0,1-.959,2.39,1.931,1.931,0,0,1,2.5,1.223C1683.19,1092.237,1678.024,1095.476,1678.206,1095.629Z" transform="translate(-1619.978 -1080.404)" fill="#ffb98f"/>
      <g id="Grupo_70869" data-name="Grupo 70869" transform="translate(15.548 5.705)">
        <g id="Grupo_70863" data-name="Grupo 70863" transform="translate(19.714)">
          <path id="Trazado_105128" data-name="Trazado 105128" d="M1835.869,1113.5q9.51-5.419,18.749-11.31c.214-.136.411.2.2.339q-9.226,5.889-18.749,11.31a.2.2,0,0,1-.2-.339Z" transform="translate(-1835.773 -1102.154)"/>
        </g>
        <g id="Grupo_70864" data-name="Grupo 70864" transform="translate(22.859 2.464)">
          <path id="Trazado_105129" data-name="Trazado 105129" d="M1855.113,1130.681c3.615-2.146,7.1-4.547,10.611-6.85,3.306-2.167,6.686-4.263,9.9-6.561.206-.147.4.193.2.339-3.218,2.3-6.6,4.394-9.9,6.561-3.515,2.3-7,4.7-10.611,6.85a.2.2,0,0,1-.2-.339Z" transform="translate(-1855.019 -1117.234)"/>
        </g>
        <g id="Grupo_70865" data-name="Grupo 70865" transform="translate(24.692 9.608)">
          <path id="Trazado_105130" data-name="Trazado 105130" d="M1866.331,1172.241c5.512-3.69,11.407-6.98,16.511-11.24.193-.161.472.115.278.278-5.132,4.282-11.05,7.592-16.591,11.3-.211.141-.407-.2-.2-.339Z" transform="translate(-1866.242 -1160.952)"/>
        </g>
        <g id="Grupo_70866" data-name="Grupo 70866" transform="translate(4.375 23.168)">
          <path id="Trazado_105131" data-name="Trazado 105131" d="M1742.09,1244.2a36.164,36.164,0,0,1,15.159,1.4c.24.075.138.454-.1.379a35.906,35.906,0,0,0-15.054-1.386c-.25.03-.248-.363,0-.393Z" transform="translate(-1741.903 -1243.937)"/>
        </g>
        <g id="Grupo_70867" data-name="Grupo 70867" transform="translate(4.747 16.264)">
          <path id="Trazado_105132" data-name="Trazado 105132" d="M1744.237,1206.671a25.222,25.222,0,0,0,3.808-4.892.2.2,0,0,1,.339.2,25.613,25.613,0,0,1-3.869,4.971.2.2,0,0,1-.277-.277Z" transform="translate(-1744.18 -1201.685)"/>
        </g>
        <g id="Grupo_70868" data-name="Grupo 70868" transform="translate(0 11.238)">
          <path id="Trazado_105133" data-name="Trazado 105133" d="M1719.883,1171.174a18.619,18.619,0,0,1-4.426,9.564c-.166.191-.443-.088-.278-.278a18.267,18.267,0,0,0,4.324-9.391c.037-.249.416-.143.379.1Z" transform="translate(-1715.129 -1170.927)"/>
        </g>
      </g>
      <path id="Trazado_105134" data-name="Trazado 105134" d="M1657.186,1069.887c.2-.409.406-.817.618-1.218a3.58,3.58,0,0,1,.746-1.057,1.316,1.316,0,0,1,1.2-.334,2.437,2.437,0,0,1,1.251,1.152c1.344,2.808.163,4.676-.874,7.24-.966,2.39-1.6,5.028-2.365,7.481-1.82,5.874-6.428,10.412-10.741,14.571-1.069,1.03-2.158,2.04-3.278,3.014a8.545,8.545,0,0,1-2.949,2.1c.1-.029.392-3.129.45-3.447.213-1.165.48-2.32.791-3.463.6-2.219.858-4.425,1.585-6.606a24.632,24.632,0,0,1,2.366-5.163,30.421,30.421,0,0,1,5.171-6c.838-.838,1.772-1.579,2.567-2.458A24.461,24.461,0,0,0,1657.186,1069.887Z" transform="translate(-1637.393 -1067.238)" fill="#ffb98f"/>
    </g>
    <g id="Grupo_70874" data-name="Grupo 70874" transform="translate(293.101 284.914)">
      <g id="Grupo_70871" data-name="Grupo 70871" transform="translate(0 18.591)">
        <path id="Trazado_105135" data-name="Trazado 105135" d="M860.706,516.2a17.7,17.7,0,0,1-1.3,4.7,46.752,46.752,0,0,0-8.141-4.16,74.811,74.811,0,0,0-11.272-3.451q-1.822-.414-3.8-.785a79.064,79.064,0,0,0-43.3,3.591c-.142-.3-1.158-3.087-.833-4.629a83.64,83.64,0,0,1,44.983-3.486C847.772,509.993,855.273,512.891,860.706,516.2Z" transform="translate(-791.997 -506.421)" fill="#44a4bb"/>
      </g>
      <g id="Grupo_70873" data-name="Grupo 70873" transform="translate(29.883 0)">
        <g id="Grupo_70872" data-name="Grupo 70872">
          <path id="Trazado_105136" data-name="Trazado 105136" d="M991.97,392.648a17.092,17.092,0,1,0,17.092,17.092A17.092,17.092,0,0,0,991.97,392.648Zm1.118,31.95a15.306,15.306,0,1,1,15.306-15.306A15.3,15.3,0,0,1,993.088,424.6Z" transform="translate(-974.878 -392.648)" fill="#f7faff"/>
          <path id="Trazado_105137" data-name="Trazado 105137" d="M1007.958,400.843a15.306,15.306,0,1,0,15.306,15.306A15.3,15.3,0,0,0,1007.958,400.843Zm-.124,16.747a1.406,1.406,0,1,1,0-1.989A1.406,1.406,0,0,1,1007.834,417.59Z" transform="translate(-989.748 -399.504)" fill="#fcfdff"/>
        </g>
        <path id="Trazado_105138" data-name="Trazado 105138" d="M1080.252,418.667a10.659,10.659,0,0,0,.245,3.326,6.622,6.622,0,0,0,2.923,3.459c2.362,1.522,10.973,2.305,11.82-1.022.509-2-.874-5.929-2.9-8.138-1.981-2.161-4.678-4.521-7.721-4.831C1081.675,411.163,1080.439,415.316,1080.252,418.667Z" transform="translate(-1063.012 -408.375)" fill="#fff"/>
      </g>
    </g>
    <g id="Grupo_70882" data-name="Grupo 70882" transform="translate(382.062 313.234)">
      <g id="Grupo_70878" data-name="Grupo 70878" transform="translate(6.266)">
        <g id="Grupo_70875" data-name="Grupo 70875" transform="translate(4.717 4.947)">
          <path id="Trazado_105139" data-name="Trazado 105139" d="M1469.142,637.017l-61.534-2.787a4.049,4.049,0,0,1-3.975-3.935V604.137a4.042,4.042,0,0,1,3.884-3.93l60.186-3.967a4.093,4.093,0,0,1,4.463,3.778l1.349,32.912A4.065,4.065,0,0,1,1469.142,637.017Z" transform="translate(-1403.633 -596.229)" fill="#fafbff"/>
        </g>
        <g id="Grupo_70877" data-name="Grupo 70877">
          <g id="Grupo_70876" data-name="Grupo 70876">
            <path id="Trazado_105140" data-name="Trazado 105140" d="M1449.208,616.641c-.081,0-.161,0-.242-.006l-69.553-3.44a4.96,4.96,0,0,1-4.649-5.022V575.881a4.985,4.985,0,0,1,4.542-5.015l68.028-4.9a4.755,4.755,0,0,1,3.546,1.223,5.04,5.04,0,0,1,1.674,3.6l1.525,40.63a5.111,5.111,0,0,1-1.5,3.822A4.759,4.759,0,0,1,1449.208,616.641Zm-.226-.333a4.429,4.429,0,0,0,3.369-1.3,4.782,4.782,0,0,0,1.4-3.577l-1.525-40.63a4.715,4.715,0,0,0-1.565-3.367,4.447,4.447,0,0,0-3.3-1.14l-68.028,4.9a4.657,4.657,0,0,0-4.238,4.689v32.292a4.633,4.633,0,0,0,4.337,4.695Z" transform="translate(-1374.765 -565.956)" fill="#07071f"/>
          </g>
        </g>
      </g>
      <path id="Trazado_105141" data-name="Trazado 105141" d="M1348.032,705.072,1336.418,720.5l16.619-.438S1360.351,713.047,1348.032,705.072Z" transform="translate(-1336.418 -682.34)" fill="#fafbff"/>
      <g id="Grupo_70879" data-name="Grupo 70879" transform="translate(25.176 16.9)">
        <rect id="Rectángulo_8778" data-name="Rectángulo 8778" width="44.757" height="0.655" fill="#07071f"/>
      </g>
      <g id="Grupo_70880" data-name="Grupo 70880" transform="translate(25.176 25.362)">
        <rect id="Rectángulo_8779" data-name="Rectángulo 8779" width="44.757" height="0.655" fill="#07071f"/>
      </g>
      <g id="Grupo_70881" data-name="Grupo 70881" transform="translate(25.176 34.491)">
        <rect id="Rectángulo_8780" data-name="Rectángulo 8780" width="44.757" height="0.655" fill="#07071f"/>
      </g>
    </g>
  </g>
</svg>
