<svg xmlns="http://www.w3.org/2000/svg" width="368.263" height="310.994" viewBox="0 0 368.263 310.994">
  <g id="Grupo_70807" data-name="Grupo 70807" transform="translate(-46.479 -268.356)">
    <path id="Trazado_104934" data-name="Trazado 104934" d="M577.084,1427.517q-4.95,5.133-10.382,10.3H317.543v-10.3Z" transform="translate(-218.29 -933.477)" fill="#fff"/>
    <g id="Grupo_70729" data-name="Grupo 70729" transform="translate(46.478 268.356)">
      <path id="Trazado_104935" data-name="Trazado 104935" d="M358.653,494.179q-4.95,5.131-10.381,10.3a420.944,420.944,0,0,1-52.714,42.152c-29.761,20.319-48.226,28.617-63.113,31.442a75.891,75.891,0,0,1-20.77.936c-1.39-.107-2.792-.267-4.217-.479-7.556-1.112-15.763-3.621-26.263-7.194-.055-.018-.109-.035-.164-.055q-1.3-.441-2.642-.905a148.868,148.868,0,0,1-19.516-8.012c-.027-.016-.055-.029-.082-.043-2-1.016-3.958-2.093-5.938-3.257a165.048,165.048,0,0,1-14.18-9.5q-.461-.342-.933-.691-1.98-1.469-4.1-3.09c-6.809-5.206-14.814-11.658-25-19.9-1.717-1.388-5.2-4.449-9.624-8.436-5.35-4.825-12.069-11.008-18.685-17.24l-.549-.518c-11.662-11-22.877-22.04-25.552-25.924-21.21-30.793,2.428-58.181,54.412-91.642,12.988-8.36,24-19.939,30.778-33.891,7.334-15.1,4.505-34.189,13.9-48.012,19.006-27.974,52.979-36.221,85.4-29.806,33.445,6.614,56.121,18.434,86.044,32.649,48.324,22.955,85.548,47.886,89.149,70.7C418.662,403.826,403.3,447.87,358.653,494.179Z" transform="translate(-46.478 -268.356)" fill="#f98473" opacity="0.24"/>
      <path id="Trazado_104936" data-name="Trazado 104936" d="M1669.641,409.386h-3.4a.265.265,0,0,1-.265-.265v-3.4a.265.265,0,0,0-.265-.265H1663.5a.265.265,0,0,0-.265.265v3.4a.265.265,0,0,1-.265.265h-3.4a.265.265,0,0,0-.265.265v2.208a.265.265,0,0,0,.265.265h3.4a.265.265,0,0,1,.265.265v3.4a.265.265,0,0,0,.265.265h2.208a.265.265,0,0,0,.265-.265v-3.4a.265.265,0,0,1,.265-.265h3.4a.265.265,0,0,0,.265-.265v-2.208A.265.265,0,0,0,1669.641,409.386Z" transform="translate(-1345.298 -378.764)" fill="#ebf4ff"/>
      <path id="Trazado_104937" data-name="Trazado 104937" d="M192.5,758.691h-5.347a.417.417,0,0,1-.417-.417v-5.347a.417.417,0,0,0-.417-.417h-3.474a.417.417,0,0,0-.417.417v5.347a.417.417,0,0,1-.417.417h-5.347a.417.417,0,0,0-.417.417v3.474a.417.417,0,0,0,.417.417h5.347a.417.417,0,0,1,.417.417v5.347a.417.417,0,0,0,.417.417h3.474a.417.417,0,0,0,.417-.417v-5.347a.417.417,0,0,1,.417-.417H192.5a.417.417,0,0,0,.417-.417v-3.474A.417.417,0,0,0,192.5,758.691Z" transform="translate(-150.981 -658.247)" fill="#ebf4ff"/>
      <g id="Grupo_70728" data-name="Grupo 70728" transform="translate(22.518 22.615)">
        <path id="Trazado_104938" data-name="Trazado 104938" d="M782.1,390h-4.746a.37.37,0,0,1-.37-.37v-4.746a.37.37,0,0,0-.37-.37h-3.084a.37.37,0,0,0-.37.37v4.746a.37.37,0,0,1-.37.37h-4.746a.37.37,0,0,0-.37.37v3.083a.37.37,0,0,0,.37.37h4.746a.37.37,0,0,1,.37.37v4.746a.37.37,0,0,0,.37.37h3.084a.37.37,0,0,0,.37-.37v-4.746a.37.37,0,0,1,.37-.37H782.1a.37.37,0,0,0,.37-.37v-3.083A.37.37,0,0,0,782.1,390Z" transform="translate(-649.781 -384.512)" fill="#fff"/>
        <g id="Grupo_70704" data-name="Grupo 70704" transform="translate(240.793 31.945)">
          <path id="Trazado_104939" data-name="Trazado 104939" d="M1400.151,559.447l-1.257-10.843.155-.008a5.468,5.468,0,0,1,5.715,4.822h0a5.47,5.47,0,0,1-4.46,6Zm-.931-10.566L1400.4,559.1a5.178,5.178,0,0,0,4.069-5.651h0a5.178,5.178,0,0,0-5.133-4.571Z" transform="translate(-1398.894 -548.588)" fill="#fff"/>
        </g>
        <g id="Grupo_70705" data-name="Grupo 70705" transform="translate(235.768 32.004)">
          <path id="Trazado_104940" data-name="Trazado 104940" d="M1378.544,559.751a5.47,5.47,0,0,1-5.423-4.83h0a5.47,5.47,0,0,1,4.46-6l.153-.027,1.257,10.843-.155.008Q1378.69,559.751,1378.544,559.751Zm-5.133-4.864a5.178,5.178,0,0,0,5.133,4.572h.121l-1.185-10.221a5.178,5.178,0,0,0-4.069,5.651Z" transform="translate(-1373.085 -548.892)" fill="#fff"/>
        </g>
        <g id="Grupo_70706" data-name="Grupo 70706" transform="translate(226.906 21.378)">
          <path id="Trazado_104941" data-name="Trazado 104941" d="M1352.053,504.334a5.316,5.316,0,0,0-2.383-6.876l-4.333,9.679A5.316,5.316,0,0,0,1352.053,504.334Z" transform="translate(-1341.878 -496.846)" fill="#fff"/>
          <path id="Trazado_104942" data-name="Trazado 104942" d="M1328.035,497.455a5.315,5.315,0,0,0,2.383,6.876l4.333-9.679A5.315,5.315,0,0,0,1328.035,497.455Z" transform="translate(-1327.57 -494.313)" fill="#fff"/>
          <path id="Trazado_104943" data-name="Trazado 104943" d="M1346.844,496.174c-.1-.046-.208-.082-.313-.121l-4.333,9.679c.1.052.2.106.3.152s.208.082.312.121l4.333-9.679C1347.044,496.275,1346.947,496.22,1346.844,496.174Z" transform="translate(-1339.35 -495.714)" fill="#ebf4ff"/>
        </g>
        <g id="Grupo_70707" data-name="Grupo 70707" transform="translate(0 147.912)">
          <path id="Trazado_104944" data-name="Trazado 104944" d="M163.974,1160.306a4.111,4.111,0,0,0,5.548-.951l-6.84-4.528A4.111,4.111,0,0,0,163.974,1160.306Z" transform="translate(-162.134 -1152.761)" fill="#fff"/>
          <path id="Trazado_104945" data-name="Trazado 104945" d="M171.968,1144.9a4.111,4.111,0,0,0-5.548.951l6.84,4.528A4.111,4.111,0,0,0,171.968,1144.9Z" transform="translate(-165.586 -1144.216)" fill="#fff"/>
          <path id="Trazado_104946" data-name="Trazado 104946" d="M171.945,1157.359c.048-.073.089-.148.132-.223l-6.84-4.528c-.052.069-.106.136-.154.209s-.089.149-.132.223l6.84,4.528C171.843,1157.5,171.9,1157.432,171.945,1157.359Z" transform="translate(-164.403 -1150.974)" fill="#ebf4ff"/>
        </g>
        <g id="Grupo_70708" data-name="Grupo 70708" transform="translate(7.722 140.576)">
          <path id="Trazado_104947" data-name="Trazado 104947" d="M202.055,1113.544a4.111,4.111,0,0,0,5.039,2.509l-2.846-7.693A4.111,4.111,0,0,0,202.055,1113.544Z" transform="translate(-201.798 -1108.006)" fill="#fff"/>
          <path id="Trazado_104948" data-name="Trazado 104948" d="M221.913,1109.224a4.111,4.111,0,0,0-5.039-2.509l2.846,7.693A4.111,4.111,0,0,0,221.913,1109.224Z" transform="translate(-213.939 -1106.541)" fill="#fff"/>
          <path id="Trazado_104949" data-name="Trazado 104949" d="M217.472,1115.232c.082-.03.159-.067.239-.1l-2.846-7.693c-.083.025-.165.047-.247.077s-.16.067-.238.1l2.846,7.693C217.307,1115.285,217.39,1115.263,217.472,1115.232Z" transform="translate(-211.93 -1107.263)" fill="#ebf4ff"/>
        </g>
        <g id="Grupo_70710" data-name="Grupo 70710" transform="translate(305.558 64.01)">
          <path id="Trazado_104950" data-name="Trazado 104950" d="M1739.676,716.107l-4.124,8.107a1.612,1.612,0,0,1-2.163.7l-.964-.491a1.612,1.612,0,0,1-.71-2.159l4.124-8.107a1.613,1.613,0,0,1,2.164-.7l.965.491A1.613,1.613,0,0,1,1739.676,716.107Z" transform="translate(-1731.541 -713.281)" fill="#fff"/>
          <g id="Grupo_70709" data-name="Grupo 70709" transform="translate(2.975 3.216)">
            <path id="Trazado_104951" data-name="Trazado 104951" d="M1750.823,731.682l-.131.257a11.945,11.945,0,0,1-2.226-.863,11.089,11.089,0,0,1-1.645-1.023l.13-.255A11.282,11.282,0,0,0,1750.823,731.682Z" transform="translate(-1746.82 -729.798)" fill="#ebf4ff"/>
          </g>
        </g>
        <g id="Grupo_70711" data-name="Grupo 70711" transform="translate(313.036 68.41)">
          <path id="Trazado_104952" data-name="Trazado 104952" d="M1769.952,758.775v6.181a1.612,1.612,0,0,0,1.612,1.6h1.082a1.612,1.612,0,0,0,1.612-1.6V758.7a11.948,11.948,0,0,1-2.376.24A11.07,11.07,0,0,1,1769.952,758.775Z" transform="translate(-1769.952 -754.258)" fill="#fff"/>
          <path id="Trazado_104953" data-name="Trazado 104953" d="M1772.646,735.88h-1.082a1.613,1.613,0,0,0-1.612,1.6v2.628a11.283,11.283,0,0,0,4.306-.077v-2.552A1.613,1.613,0,0,0,1772.646,735.88Z" transform="translate(-1769.952 -735.88)" fill="#fff"/>
          <path id="Trazado_104954" data-name="Trazado 104954" d="M1769.952,757.3v.286a11.077,11.077,0,0,0,1.93.166,11.948,11.948,0,0,0,2.376-.24v-.288A11.282,11.282,0,0,1,1769.952,757.3Z" transform="translate(-1769.952 -753.065)" fill="#ebf4ff"/>
        </g>
        <g id="Grupo_70714" data-name="Grupo 70714" transform="translate(304.537 154.549)">
          <g id="Grupo_70712" data-name="Grupo 70712" transform="translate(0.011 3.633)">
            <path id="Trazado_104955" data-name="Trazado 104955" d="M1728.583,1203.369h-.837a1.391,1.391,0,0,1-1.393-1.386v-4.955l.172.031a8.883,8.883,0,0,0,3.276-.057l.175-.035v5.016A1.391,1.391,0,0,1,1728.583,1203.369Zm-1.937-5.994v4.608a1.1,1.1,0,0,0,1.1,1.094h.837a1.1,1.1,0,0,0,1.1-1.094v-4.661A9.2,9.2,0,0,1,1726.646,1197.376Z" transform="translate(-1726.354 -1196.967)" fill="#fff"/>
          </g>
          <g id="Grupo_70713" data-name="Grupo 70713">
            <path id="Trazado_104956" data-name="Trazado 104956" d="M1727.937,1182a8.469,8.469,0,0,1-1.517-.134l-.12-.022v-2.154a1.391,1.391,0,0,1,1.393-1.386h.837a1.391,1.391,0,0,1,1.393,1.386v2.092l-.116.024A9.168,9.168,0,0,1,1727.937,1182Zm-1.345-.4a8.6,8.6,0,0,0,3.038-.056v-1.854a1.1,1.1,0,0,0-1.1-1.094h-.837a1.1,1.1,0,0,0-1.1,1.094Z" transform="translate(-1726.3 -1178.306)" fill="#fff"/>
          </g>
        </g>
        <g id="Grupo_70717" data-name="Grupo 70717" transform="translate(308.379 159.753)">
          <g id="Grupo_70715" data-name="Grupo 70715" transform="translate(0 2.905)">
            <path id="Trazado_104957" data-name="Trazado 104957" d="M1748.186,1226.772a1.385,1.385,0,0,1-.584-.129l-.76-.351a1.387,1.387,0,0,1-.723-.781,1.373,1.373,0,0,1,.039-1.06l2.076-4.5.143.1a8.425,8.425,0,0,0,1.279.729,9.129,9.129,0,0,0,1.719.592l.174.041-2.1,4.554A1.387,1.387,0,0,1,1748.186,1226.772Zm.168-6.382-1.931,4.184a1.082,1.082,0,0,0-.03.836,1.1,1.1,0,0,0,.571.618l.76.351a1.1,1.1,0,0,0,1.458-.532l1.953-4.232a9.368,9.368,0,0,1-1.6-.568A8.818,8.818,0,0,1,1748.354,1220.39Z" transform="translate(-1746.031 -1219.953)" fill="#fff"/>
          </g>
          <g id="Grupo_70716" data-name="Grupo 70716" transform="translate(2.259)">
            <path id="Trazado_104958" data-name="Trazado 104958" d="M1760.947,1209.256l-.116-.027a8.874,8.874,0,0,1-3.1-1.365l-.1-.07.9-1.956a1.37,1.37,0,0,1,.782-.717,1.386,1.386,0,0,1,1.063.043l.76.351a1.386,1.386,0,0,1,.722.782,1.371,1.371,0,0,1-.039,1.06Zm-2.947-1.561a8.608,8.608,0,0,0,2.782,1.223l.777-1.683a1.084,1.084,0,0,0,.03-.836,1.1,1.1,0,0,0-.571-.618l-.76-.351a1.093,1.093,0,0,0-.841-.033,1.081,1.081,0,0,0-.617.565Z" transform="translate(-1757.632 -1205.035)" fill="#fff"/>
          </g>
        </g>
        <g id="Grupo_70724" data-name="Grupo 70724" transform="translate(308.581 111.475)">
          <g id="Grupo_70718" data-name="Grupo 70718">
            <path id="Trazado_104959" data-name="Trazado 104959" d="M1753.717,977.5a.333.333,0,0,1-.09-.012l-1.634-.455c-.066-.016-.137-.034-.207-.053s-.14-.041-.209-.062l-1.63-.453a.332.332,0,0,1-.23-.409l.009-.032c0-.01.006-.02.01-.03a6.446,6.446,0,0,1,3.928-11.665l1.633-6.076,0,0c-.141-.067-.316-.149-.251-.345l.116-.455.053-.208a.232.232,0,0,1,.285-.167l3.3.88a.233.233,0,0,1,.165.286h0l-.177.648v0l-.006.019a.268.268,0,0,1-.213.148.974.974,0,0,1-.208.014l-1.636,6.106a6.446,6.446,0,0,1-2.667,12.014c0,.011,0,.021-.007.031l-.009.032a.332.332,0,0,1-.319.243Zm-.214-12.933a6.2,6.2,0,0,0-3.536,11.295l.12.083-.1.1a.092.092,0,0,0-.025.04l-.009.033a.09.09,0,0,0,.063.112l1.634.455c.071.022.137.042.205.061s.135.036.2.052l1.638.456a.089.089,0,0,0,.069-.008.091.091,0,0,0,.043-.055l.009-.032a.09.09,0,0,0,0-.047l-.037-.141.146-.01a6.2,6.2,0,0,0,2.6-11.618l-.082-.046,1.736-6.475.1.005a1.062,1.062,0,0,0,.251-.006.185.185,0,0,0,.033-.009c.018-.07.063-.233.17-.627l-3.282-.876-.051.2c-.086.337-.11.43-.117.459a1.074,1.074,0,0,0,.122.063l.1.047.088.044-.031.115-1.7,6.337-.1,0Q1753.626,964.568,1753.5,964.568Zm5.048-5.739,0,.007h0Z" transform="translate(-1747.069 -957.068)" fill="#fff"/>
          </g>
          <g id="Grupo_70719" data-name="Grupo 70719" transform="translate(9.709 9.009)">
            <path id="Trazado_104960" data-name="Trazado 104960" d="M1799.346,1007.389a.06.06,0,0,1-.059-.05,6.258,6.258,0,0,0-2.325-3.892.06.06,0,0,1,.074-.1,6.378,6.378,0,0,1,2.37,3.967.06.06,0,0,1-.049.07Z" transform="translate(-1796.938 -1003.339)" fill="#fff"/>
          </g>
          <g id="Grupo_70721" data-name="Grupo 70721" transform="translate(0.492 11.234)">
            <path id="Trazado_104961" data-name="Trazado 104961" d="M1752.43,1022.367l.32.223,3.047.848.389-.026a5.9,5.9,0,0,0,5.289-4.3,5.967,5.967,0,0,0,.192-1.039l-11.246-2.939a4.076,4.076,0,0,0-.3.819A5.9,5.9,0,0,0,1752.43,1022.367Z" transform="translate(-1749.847 -1015.062)" fill="#fff"/>
            <g id="Grupo_70720" data-name="Grupo 70720">
              <path id="Trazado_104962" data-name="Trazado 104962" d="M1755.541,1023.205l-.01,0-3.065-.856-.32-.223a5.959,5.959,0,0,1-2.331-6.48,4.126,4.126,0,0,1,.3-.83l.021-.045.048.012,11.3,2.952,0,.051a6.074,6.074,0,0,1-.194,1.05,5.959,5.959,0,0,1-5.343,4.345Zm-3.014-.964,3.027.842.379-.025a5.839,5.839,0,0,0,5.235-4.256,5.924,5.924,0,0,0,.185-.978l-11.148-2.913a4.023,4.023,0,0,0-.273.765,5.838,5.838,0,0,0,2.284,6.349Z" transform="translate(-1749.598 -1014.769)" fill="#fff"/>
            </g>
          </g>
          <g id="Grupo_70723" data-name="Grupo 70723" transform="translate(0.974 10.815)">
            <path id="Trazado_104963" data-name="Trazado 104963" d="M1763.649,1016.36c-.191.692-2.9.611-5.948-.24s-5.5-2.007-5.309-2.7,2.952-.658,6,.192S1763.84,1015.667,1763.649,1016.36Z" transform="translate(-1752.322 -1012.873)" fill="#ebf4ff"/>
            <g id="Grupo_70722" data-name="Grupo 70722">
              <path id="Trazado_104964" data-name="Trazado 104964" d="M1761.823,1016.632a17.563,17.563,0,0,1-4.386-.709c-2.736-.762-5.577-1.956-5.351-2.774a.487.487,0,0,1,.252-.283c.8-.455,3.307-.268,5.823.434,2.735.762,5.521,2.01,5.3,2.821a.477.477,0,0,1-.246.279A3.069,3.069,0,0,1,1761.823,1016.632Zm-7.98-3.888a3.3,3.3,0,0,0-1.446.227.374.374,0,0,0-.2.211c-.169.613,2.095,1.742,5.267,2.626,2.5.7,4.943.907,5.684.488a.365.365,0,0,0,.189-.207c.173-.624-2.166-1.823-5.213-2.673A16.809,16.809,0,0,0,1753.843,1012.744Z" transform="translate(-1752.073 -1012.619)" fill="#fff"/>
            </g>
          </g>
        </g>
        <g id="Grupo_70727" data-name="Grupo 70727" transform="translate(165.329 6.946)">
          <path id="Trazado_104965" data-name="Trazado 104965" d="M1080.752,495.407l-5.317,5.514c.064.045.317.336.38.382l5.27-5.586C1081.018,495.675,1080.818,495.45,1080.752,495.407Z" transform="translate(-1062.947 -480.763)" fill="#fff"/>
          <path id="Trazado_104966" data-name="Trazado 104966" d="M1042.292,490.856l-.532-6.676a4.975,4.975,0,0,0-.512.059l.515,6.69A3.4,3.4,0,0,1,1042.292,490.856Z" transform="translate(-1035.416 -471.721)" fill="#fff"/>
          <g id="Grupo_70725" data-name="Grupo 70725" transform="translate(0 18.801)">
            <path id="Trazado_104967" data-name="Trazado 104967" d="M1019.458,533.08a8.16,8.16,0,0,1-1.86-16.107l.047-.011c.062-.015.125-.029.188-.042a8.188,8.188,0,0,1,1.625-.163,8.1,8.1,0,0,1,4.625,1.443h0q.1.068.2.139a8.158,8.158,0,0,1-4.82,14.741Zm0-15.934a7.79,7.79,0,0,0-1.548.155c-.059.012-.118.026-.176.04l-.048.011a7.777,7.777,0,1,0,6.362,1.3q-.092-.067-.187-.133h0A7.717,7.717,0,0,0,1019.458,517.146Z" transform="translate(-1011.295 -516.757)" fill="#fff"/>
          </g>
          <path id="Trazado_104968" data-name="Trazado 104968" d="M1019.736,443.5a4.973,4.973,0,1,0-.605.038c.126,0,.25-.006.374-.016C1019.582,443.516,1019.66,443.509,1019.736,443.5Z" transform="translate(-1013.593 -430.97)" fill="#fff"/>
          <g id="Grupo_70726" data-name="Grupo 70726" transform="translate(14.135)">
            <path id="Trazado_104969" data-name="Trazado 104969" d="M1092.058,436.513a8.136,8.136,0,0,1-4.261-1.2c-.069-.042-.136-.086-.2-.131a8.156,8.156,0,1,1,4.466,1.334Zm0-15.933a7.769,7.769,0,0,0-4.252,14.274c.064.042.129.084.194.125a7.771,7.771,0,1,0,4.058-14.4Z" transform="translate(-1083.896 -420.19)" fill="#fff"/>
          </g>
        </g>
      </g>
    </g>
    <g id="Grupo_70777" data-name="Grupo 70777" transform="translate(183.91 345.579)">
      <g id="Grupo_70733" data-name="Grupo 70733" transform="translate(0 0)">
        <path id="Trazado_104970" data-name="Trazado 104970" d="M1156.8,1334.639l-36.179.481.635-3.482.151-.83.06-.329,2.646-14.492.042-.225.12-.655.04-.225.011-.057.024-.132.156-.851.636-3.483,26.594-.126.7,3.366.176.847.032.155.008.039.047.222.136.655.046.222,3,14.445.1.459.144.7Z" transform="translate(-1048.918 -1184.607)" fill="#1a3371"/>
        <path id="Trazado_104971" data-name="Trazado 104971" d="M944.761,705.087l-163.241.776c-1.9.009-2.319.189-2.308,2.43l.515,108.49c.011,2.239.436,4.428,2.341,4.419l163.241-.775c1.9-.009,3.311-2.207,3.3-4.446l-.515-108.489C948.083,705.249,946.665,705.078,944.761,705.087Z" transform="translate(-773.983 -697.28)" fill="#0c132e"/>
        <path id="Trazado_104972" data-name="Trazado 104972" d="M923.055,664.991l-162.73.773a7.943,7.943,0,0,0-7.967,7.909l.536,112.791c.022,4.6,3.9,9.294,8.048,9.275l66.82-.529,28.317-.224,67.048-.53c4.15-.02,8.016-4.235,7.994-8.839l-.536-112.791A7.524,7.524,0,0,0,923.055,664.991Zm.877,116.8c.01,2.158-1.345,4.277-3.182,4.286l-157.357.747c-1.837.009-2.247-2.1-2.257-4.26l-.5-104.58c-.01-2.161.389-2.334,2.226-2.343l157.357-.747c1.837-.009,3.2.156,3.213,2.317Z" transform="translate(-752.359 -664.991)" fill="#1a3371"/>
        <g id="Grupo_70730" data-name="Grupo 70730" transform="translate(75.233 130.034)">
          <path id="Trazado_104973" data-name="Trazado 104973" d="M1167.448,1333.746l-28.679.245.12-.655.04-.225,28.335-.242.047.222Z" transform="translate(-1138.769 -1332.869)" fill="#0c132e"/>
        </g>
        <g id="Grupo_70731" data-name="Grupo 70731" transform="translate(72.334 145.578)">
          <path id="Trazado_104974" data-name="Trazado 104974" d="M1158.74,1413.864l-34.859.3.151-.83.06-.329,34.409-.294.1.459Z" transform="translate(-1123.881 -1412.708)" fill="#0c132e"/>
        </g>
        <path id="Trazado_104975" data-name="Trazado 104975" d="M1126.658,1419.833l-52.806.251c-.66,0-1.135-.4-.945-.812l1.723-3.7a1.031,1.031,0,0,1,.939-.454l49.537-.235a1.01,1.01,0,0,1,.953.466l1.546,3.685C1127.773,1419.434,1127.3,1419.83,1126.658,1419.833Z" transform="translate(-1010.463 -1268.882)" fill="#1a3371"/>
        <path id="Trazado_104976" data-name="Trazado 104976" d="M961.285,725.324V827.491a3.445,3.445,0,0,1-3.452,3.438l-154.448.447c-1.906,0-3.378-1.986-3.378-3.885V725.324a3.445,3.445,0,0,1,3.451-3.438l154.849-.441C960.214,721.445,961.285,723.425,961.285,725.324Z" transform="translate(-790.73 -710.454)" fill="#c4d7ff"/>
        <g id="Grupo_70732" data-name="Grupo 70732" transform="translate(87.129 5.073)">
          <path id="Trazado_104977" data-name="Trazado 104977" d="M1201.841,691.048a1.981,1.981,0,0,0-1.969,1.989,1.979,1.979,0,0,0,3.957-.019A1.982,1.982,0,0,0,1201.841,691.048Z" transform="translate(-1199.872 -691.048)" fill="#0c132e"/>
        </g>
      </g>
      <g id="Grupo_70757" data-name="Grupo 70757" transform="translate(45.929 17.145)">
        <g id="Grupo_70736" data-name="Grupo 70736" transform="translate(21.53)">
          <path id="Trazado_104978" data-name="Trazado 104978" d="M1127.73,924.275a28.717,28.717,0,0,1-5.248,13.924c-1.969,2.559-5.352,7.187-7.636,6.333-1.8-.674-6.741-6.456-8.457-9.832a29.854,29.854,0,0,1-2.557-7.868c-.122-1.266-.27-2.848-.268-4.231,0-.323-.017-.79-.016-1.077a15.868,15.868,0,0,0-.092-1.682c.03.045,1.143.065,3.134-1.5,1.775-1.391,2.743-5.68,2.75-6.128,0-.117,0-.972-.014-1.265a18.807,18.807,0,0,0,3.579,2.4,9.691,9.691,0,0,0,.963.414l0,0a6.2,6.2,0,0,0,2.122.42q.3,0,.6-.026a9.524,9.524,0,0,0,4.866-2.061c.236-.179.48-.569.7-.755,0,.164,1.1,6.134,2.543,7.077,2.419,1.579,3.033,1.414,3.033,1.428C1127.687,920.377,1127.913,922.5,1127.73,924.275Z" transform="translate(-1102.558 -880.21)" fill="#fcb086"/>
          <path id="Trazado_104979" data-name="Trazado 104979" d="M1146.259,916.89c-.693,1.076-3.267,4.1-6.522,4.18-2.713.07-5.41-2.395-6.82-4.328.042-.169.191-1.093.191-1.208.418.055,12.859.37,12.968.486C1146.07,916.039,1146.259,916.868,1146.259,916.89Z" transform="translate(-1126.282 -883.899)" fill="#e1a583" opacity="0.1" style="mix-blend-mode: multiply;isolation: isolate"/>
          <g id="Grupo_70735" data-name="Grupo 70735">
            <path id="Trazado_104980" data-name="Trazado 104980" d="M1106.992,779.135s-1.514,13.545,4.413,20.5c6.071,7.119,10.282,4.46,14.416-.587,2.937-3.586,4.233-12.935,3.349-20.307S1110.74,766.662,1106.992,779.135Z" transform="translate(-1105.266 -767.835)" fill="#fcb086"/>
            <path id="Trazado_104981" data-name="Trazado 104981" d="M1218,846.9c-.333.194-.918-.207-.876-.323.009-.026.039-.346.078-.825.079-.947.2-2.512.283-3.664l.108-1.46c.038,0,.261-.043.551-.087.152-.023.322-.046.493-.063.518-.051,1.051-.045,1.131.193C1220.03,841.459,1218.924,846.357,1218,846.9Z" transform="translate(-1194.09 -823.434)" fill="#fcb086"/>
            <path id="Trazado_104982" data-name="Trazado 104982" d="M1101.078,840.7c-.117,0-1.994-.524-2.174-.064-.305.777.557,5.722,1.457,6.308.324.21.927-.161.891-.279S1101.078,840.7,1101.078,840.7Z" transform="translate(-1098.841 -823.434)" fill="#fcb086"/>
            <path id="Trazado_104983" data-name="Trazado 104983" d="M1125.279,757.018c-1.258-2.3-4.191-2.376-5.3-2.677a1.369,1.369,0,0,1-.509-.216,2.956,2.956,0,0,1-.366-.443,2.438,2.438,0,0,0-1.855-.622,20.773,20.773,0,0,0-7.622,1.229c-.672.242-1.219.717-1.892.924a5.671,5.671,0,0,1-1.258.147c-2.051.15-4.594,1.511-5.275,3.416-.547,1.53-.414,5.192-.441,5.4-.016.121,1.128,5.1,1.132,5.165a.468.468,0,0,0,.621-.066c.337-.366.712-.762,1.016-1.078a2.378,2.378,0,0,1,1.967-.9c.771.094,1.512.143,1.9.193a19.762,19.762,0,0,0,6.851-.244,15,15,0,0,0,2.133-.652,12.6,12.6,0,0,0,2.358-1.227,2.253,2.253,0,0,1,3.266.863c.364.727.718,1.476.932,2.033.233.605.521,1.428.788,1.935a1.48,1.48,0,0,0,.9-.058,21.112,21.112,0,0,0,1.682-6.408A15.876,15.876,0,0,0,1125.279,757.018Z" transform="translate(-1100.386 -753.053)" fill="#0c132e"/>
            <g id="Grupo_70734" data-name="Grupo 70734" transform="translate(1.513 14.359)">
              <path id="Trazado_104984" data-name="Trazado 104984" d="M1107.425,835.3a23.25,23.25,0,0,0,2.383,7.235,15.322,15.322,0,0,0,5.256,5.132c2.632,1.7,4.9,1.072,6.9-.069a17.624,17.624,0,0,0,5.423-5.978c1.375-2.5,2.026-10.931,2.04-14.334,0-.191-.9-.59-1.028-.447a.2.2,0,0,0-.051.121c-.045.667-.556,5.887-.857,8.523a21.271,21.271,0,0,1-.467,2.292,3.65,3.65,0,0,1-1.385,1.794,2.593,2.593,0,0,1-2.507.245c-1.13-.385-1.082-1.09-2.236-1.414a8.87,8.87,0,0,0-1.827-.11c-.885-.019-1.444,0-2.439-.025a1.834,1.834,0,0,0-1.117.427,2.719,2.719,0,0,1-2.121.922c-2.53-.068-3.408-1.929-3.949-3.363a17.762,17.762,0,0,1-.77-2.838,42.778,42.778,0,0,1-.815-5.354c.013-.2-1.245.114-1.247.161A56.842,56.842,0,0,0,1107.425,835.3Z" transform="translate(-1106.612 -826.806)" fill="#0c132e"/>
            </g>
          </g>
        </g>
        <path id="Trazado_104985" data-name="Trazado 104985" d="M1150.416,1058.8l-.014-2.214-.325-51.888a10.342,10.342,0,0,1-1.634,1.958c-.1.092-.2.18-.3.265a8.269,8.269,0,0,1-5.544,1.845,10.716,10.716,0,0,1-5.929-1.726c-.076-.05-.152-.1-.227-.154l.234,51.914Z" transform="translate(-1107.589 -955.7)" fill="#ebf1ff"/>
        <g id="Grupo_70756" data-name="Grupo 70756" transform="translate(0 39.163)">
          <path id="Trazado_104986" data-name="Trazado 104986" d="M1043.138,986.073c-.081-.27-.206-.869-.357-1.717-1.1-6.18-5.494-25.671-3.154-26.689,3.368-1.75,10.5-2.178,12-2.43l.152-.025.052-.008.015,0,.025.058.049.112s0,.008.005.011l.519,1.171,1.647,3.714,3.831,8.639,6.741,15.43,5.252-17.771,2.629-6.449,2.079-5.1.023-.059.017-.042c.536.076,12.445,1.943,12.711,2.051l.04.429c.616,3.89.554,7.059.616,13.474a47.95,47.95,0,0,1-.565,8.995v.006c-.283,1.654-.954,9.875-.965,9.922.395,6.769,1.07,13.039,1.508,28.918H1042.28l.094-.41C1042.76,1016.594,1043.493,987.251,1043.138,986.073Z" transform="translate(-1029.081 -954.775)" fill="#fff"/>
          <path id="Trazado_104987" data-name="Trazado 104987" d="M1181.71,968.27s2.7-11.638,2.737-13.114a21.79,21.79,0,0,0-2.791-.458s-7.942,20.568-8.95,22.844c.014.094-.8,4.263-.992,6.249-.022.223.023.4.017.561l9.058-15.2-3.056-.071Z" transform="translate(-1135.99 -954.601)" fill="#d9e5ff"/>
          <path id="Trazado_104988" data-name="Trazado 104988" d="M1105,978.138c-.53-.953-1.264-2.637-11.426-21.575-2.174.229-2.644.308-2.644.308l5.227,14.875,4.279.174-3.166.522,9.289,13.707A44.916,44.916,0,0,1,1105,978.138Z" transform="translate(-1070.938 -956.103)" fill="#d9e5ff"/>
          <g id="Grupo_70739" data-name="Grupo 70739" transform="translate(80.962 4.773)">
            <g id="Grupo_70738" data-name="Grupo 70738">
              <g id="Grupo_70737" data-name="Grupo 70737">
                <path id="Trazado_104989" data-name="Trazado 104989" d="M1404.092,998.875s1.7-2.737,1.938-3.393.98-2.2,1.1-2.785.2-3.232.221-3.92a20.444,20.444,0,0,1,.269-2.2c.061-.342-.273-3.4.776-3.62.656-.138.9,2.026.9,2.026a12.088,12.088,0,0,0,.17,1.23c.154.754.634.7.958-.013a39.578,39.578,0,0,1,1.865-3.583c.844-1.486.991-2.091,1.848-3.475.345-.558,1.409-.67,1.326.3a5.486,5.486,0,0,1-.3,1.229c-.4,1.227-.841,2.436-1.254,3.659a5.49,5.49,0,0,0-.319,1.185.767.767,0,0,0,.25.393c.235.259.478.509.724.757.485.491.978.977,1.418,1.511.575.7,1.545.737,1.739,1.631a3.847,3.847,0,0,1-.982,2.6,46.48,46.48,0,0,1-3.426,3.6,16.831,16.831,0,0,0-2.619,4.119c-.844,1.743-1.3,2.785-1.3,2.785Z" transform="translate(-1404.092 -978.715)" fill="#fcb086"/>
              </g>
            </g>
            <path id="Trazado_104990" data-name="Trazado 104990" d="M1442.794,1016.3h0a1.228,1.228,0,0,1-.028-1.505l1.979-3.14c.368-.553.886-.814,1.438-.446h0a1.21,1.21,0,0,1,.336,1.674s-1.616,2.238-2.2,2.945C1443.808,1016.44,1443.347,1016.672,1442.794,1016.3Z" transform="translate(-1435.042 -1004.748)" fill="#ffb78f"/>
            <path id="Trazado_104991" data-name="Trazado 104991" d="M1449.546,1025.853h0a1.164,1.164,0,0,1-.187-1.616l1.994-3.212a.949.949,0,0,1,1.392-.384h0a1.108,1.108,0,0,1,.288,1.557l-2.109,2.985C1450.5,1025.717,1450.065,1026.13,1449.546,1025.853Z" transform="translate(-1440.358 -1012.345)" fill="#ffb78f"/>
            <path id="Trazado_104992" data-name="Trazado 104992" d="M1458.309,1033.849h0a1.055,1.055,0,0,1-.189-1.341l1.758-2.825a.956.956,0,0,1,1.318-.28h0a.956.956,0,0,1,.28,1.318l-1.919,2.708A.982.982,0,0,1,1458.309,1033.849Z" transform="translate(-1447.475 -1019.411)" fill="#ffb78f"/>
          </g>
          <g id="Grupo_70740" data-name="Grupo 70740" transform="translate(16.687 56.237)">
            <path id="Trazado_104993" data-name="Trazado 104993" d="M1074.039,1246.774a38.083,38.083,0,0,0,9.6-3.727s.787,1,.773,1.429c-.018.553-9.078,3.277-10.144,3.012A2.191,2.191,0,0,1,1074.039,1246.774Z" transform="translate(-1074.024 -1243.047)" fill="#d9e5ff"/>
            <path id="Trazado_104994" data-name="Trazado 104994" d="M1073.964,1248.79a38.076,38.076,0,0,0,9.6-3.727s.786,1,.773,1.429c-.018.553-9.078,3.277-10.144,3.012A2.2,2.2,0,0,1,1073.964,1248.79Z" transform="translate(-1073.964 -1244.67)" fill="#fff"/>
          </g>
          <g id="Grupo_70741" data-name="Grupo 70741" transform="translate(35.387 29.186)">
            <rect id="Rectángulo_8771" data-name="Rectángulo 8771" width="0.348" height="34.121" transform="translate(0 0.004) rotate(-0.74)" fill="#d9e5ff"/>
          </g>
          <g id="Grupo_70742" data-name="Grupo 70742" transform="translate(46.002 56.082)">
            <path id="Trazado_104995" data-name="Trazado 104995" d="M1234.9,1245.977a38.075,38.075,0,0,1-9.6-3.727s-.786,1-.773,1.43c.018.552,9.078,3.277,10.144,3.012A2.192,2.192,0,0,0,1234.9,1245.977Z" transform="translate(-1224.532 -1242.25)" fill="#d9e5ff"/>
            <path id="Trazado_104996" data-name="Trazado 104996" d="M1234.977,1247.993a38.074,38.074,0,0,1-9.6-3.727s-.787,1-.773,1.43c.018.552,9.078,3.277,10.144,3.012A2.193,2.193,0,0,0,1234.977,1247.993Z" transform="translate(-1224.593 -1243.873)" fill="#fff"/>
          </g>
          <path id="Trazado_104997" data-name="Trazado 104997" d="M1108.633,978.527c-.53-.953-1.924-3.777-12.086-22.715a7.865,7.865,0,0,0-2.366.358l4.614,14.418,4.2.319-3.034.445,9.2,13.71A46.866,46.866,0,0,0,1108.633,978.527Z" transform="translate(-1073.558 -955.498)" fill="#fff"/>
          <g id="Grupo_70749" data-name="Grupo 70749" transform="translate(28.385 37.008)">
            <g id="Grupo_70743" data-name="Grupo 70743">
              <path id="Trazado_104998" data-name="Trazado 104998" d="M1134.247,1149.831s3.028-.194,3.665-.367,2.224-.45,2.739-.68,2.59-1.615,3.131-1.973a19.281,19.281,0,0,1,1.839-1c.3-.141,2.461-2.068,3.2-1.383.465.428-1.063,1.8-1.063,1.8s-1.139.99-1.193,1.255c-.124.615,1.475.774,2.236.807.978.042,3.314.188,3.578.207s2.185-.119,2.064.83c-.107.84-3.68.821-5.155.883a.06.06,0,0,0-.007.119c.653.106,1.66.161,2.339.226.276.027.865.047,1.412.078.364.021,2.55.194,2.574.758.053,1.234-4.92.895-6.63.919-.041,0-.048.1-.007.1.894.142,3.116.269,3.358.285.916.057,2.1.285,2.052.818-.079.946-4.064.683-5.626.661a.063.063,0,0,0-.01.126c1.122.157,3.5.123,3.34.925-.1.49-2.283.54-2.771.613-.758.114-1.565-.011-2.137.117-.857.192-2.734-.137-5.687-.619a15.875,15.875,0,0,0-4.594.242c-1.8.3-2.848.528-2.848.528Z" transform="translate(-1134.048 -1144.282)" fill="#fcb086"/>
            </g>
            <g id="Grupo_70744" data-name="Grupo 70744" transform="translate(13.043 0.099)" opacity="0.1" style="mix-blend-mode: multiply;isolation: isolate">
              <path id="Trazado_104999" data-name="Trazado 104999" d="M1201.653,1146.049a.242.242,0,0,1-.185-.086l-.371-.438a.242.242,0,0,1,.067-.369c.34-.19.964-.483,1.313-.315a.23.23,0,0,1,.142.189c.022.212-.254.538-.818.968A.241.241,0,0,1,1201.653,1146.049Zm.571-1.064a2.27,2.27,0,0,0-.967.341.048.048,0,0,0-.013.073l.371.438a.047.047,0,0,0,.065.007c.528-.4.753-.689.742-.794,0-.007,0-.019-.032-.034A.391.391,0,0,0,1202.224,1144.985Z" transform="translate(-1201.039 -1144.792)" fill="#e1a583"/>
            </g>
            <g id="Grupo_70745" data-name="Grupo 70745" transform="translate(18.549 4.405)" opacity="0.1" style="mix-blend-mode: multiply;isolation: isolate">
              <path id="Trazado_105000" data-name="Trazado 105000" d="M1229.689,1168.127a.358.358,0,0,1-.358-.348l-.014-.5a.355.355,0,0,1,.1-.262.379.379,0,0,1,.261-.106c.976.018,1.468.187,1.463.5-.008.48-.778.654-1.422.715Zm-.163-.354a.163.163,0,0,0,.179.158c.776-.074,1.242-.27,1.246-.524,0-.141-.39-.29-1.272-.306a.176.176,0,0,0-.119.048.161.161,0,0,0-.047.12Z" transform="translate(-1229.317 -1166.907)" fill="#e1a583"/>
            </g>
            <g id="Grupo_70746" data-name="Grupo 70746" transform="translate(19.651 6.613)" opacity="0.1" style="mix-blend-mode: multiply;isolation: isolate">
              <path id="Trazado_105001" data-name="Trazado 105001" d="M1235.339,1179.469a.358.358,0,0,1-.358-.361l0-.5a.356.356,0,0,1,.113-.258.36.36,0,0,1,.264-.1c.975.052,1.461.239,1.444.555-.025.479-.8.626-1.447.664Zm-.163-.359a.164.164,0,0,0,.051.12.161.161,0,0,0,.122.044c.778-.047,1.251-.226,1.264-.48.007-.141-.38-.3-1.26-.351a.154.154,0,0,0-.121.044.163.163,0,0,0-.051.118Z" transform="translate(-1234.981 -1178.248)" fill="#e1a583"/>
            </g>
            <g id="Grupo_70747" data-name="Grupo 70747" transform="translate(18.41 8.603)" opacity="0.1" style="mix-blend-mode: multiply;isolation: isolate">
              <path id="Trazado_105002" data-name="Trazado 105002" d="M1228.964,1189.686a.358.358,0,0,1-.358-.361l0-.5a.358.358,0,0,1,.377-.354c.975.052,1.461.239,1.445.555-.025.479-.8.626-1.447.664Zm-.163-.359a.163.163,0,0,0,.051.12.157.157,0,0,0,.122.044c.778-.046,1.251-.225,1.264-.479.007-.141-.38-.3-1.26-.351a.157.157,0,0,0-.121.044.163.163,0,0,0-.052.118Z" transform="translate(-1228.606 -1188.466)" fill="#e1a583"/>
            </g>
            <g id="Grupo_70748" data-name="Grupo 70748" transform="translate(16.421 10.315)" opacity="0.1" style="mix-blend-mode: multiply;isolation: isolate">
              <path id="Trazado_105003" data-name="Trazado 105003" d="M1218.7,1198.287a.308.308,0,0,1-.307-.311l0-.407a.307.307,0,0,1,.1-.222.3.3,0,0,1,.228-.083c.8.042,1.2.2,1.184.468-.021.4-.657.523-1.186.554Zm0-.828a.113.113,0,0,0-.113.112l0,.407a.111.111,0,0,0,.035.083.107.107,0,0,0,.085.031c.609-.036.993-.178,1-.37,0-.084-.259-.224-1-.263Z" transform="translate(-1218.388 -1197.263)" fill="#e1a583"/>
            </g>
          </g>
          <path id="Trazado_105004" data-name="Trazado 105004" d="M1181.114,967.192s2.567-11.038,2.45-12.561a19.627,19.627,0,0,0-2.7-.431s-8.134,20.777-9.143,23.054c.015.1-.417,4.8-.609,6.519l9.152-15.728-3.056-.071Z" transform="translate(-1135.512 -954.2)" fill="#fff"/>
          <path id="Trazado_105005" data-name="Trazado 105005" d="M996.779,965.8c2.641-1.01,6.691-2.047,7.586-.186,1.324,2.75.374,7.6.65,13.938.347,7.98-1.208,15.04-1.407,20.059,10.2,1.583,19.531,3.9,19.531,3.9a34.847,34.847,0,0,0,.564,7.4c-18.881,7.8-31.153.66-34.438-2.947a1.513,1.513,0,0,1-.3-.476c-.982-2.566-.832-5.063-.242-11.062.114-1.158,1.285-14.9,2.539-20.683C991.879,972.9,993.664,966.99,996.779,965.8Z" transform="translate(-988.257 -962.563)" fill="#fff"/>
          <g id="Grupo_70750" data-name="Grupo 70750" transform="translate(14.854 30.533)">
            <path id="Trazado_105006" data-name="Trazado 105006" d="M1064.681,1117.349a.072.072,0,0,1-.021,0c-.072-.019-.121-.13-.109-.249.056-.579.109-1.117.171-1.742.1-.982.218-2.2.4-4.147.011-.119.078-.2.15-.181s.121.13.109.249c-.185,1.945-.306,3.168-.4,4.15-.062.624-.115,1.162-.17,1.74C1064.8,1117.272,1064.745,1117.349,1064.681,1117.349Z" transform="translate(-1064.55 -1111.023)" fill="#d9e5ff"/>
          </g>
          <g id="Grupo_70751" data-name="Grupo 70751" transform="translate(14.965 49.076)">
            <path id="Trazado_105007" data-name="Trazado 105007" d="M1065.24,1208.714a.145.145,0,0,1,.03-.288c4.757.133,10.824-.574,18.547-2.161a.145.145,0,0,1,.059.285c-7.745,1.591-13.833,2.3-18.613,2.167Z" transform="translate(-1065.121 -1206.262)" fill="#d9e5ff"/>
          </g>
          <g id="Grupo_70752" data-name="Grupo 70752" transform="translate(10.948 36.829)">
            <path id="Trazado_105008" data-name="Trazado 105008" d="M1066.585,1147.438a99.447,99.447,0,0,0-21.838-3.863c-.116-.009-.267.015-.259-.106s.11-.111.229-.1a103.529,103.529,0,0,1,22.163,3.837.219.219,0,0,1,.143.274C1066.992,1147.58,1066.6,1147.441,1066.585,1147.438Z" transform="translate(-1044.488 -1143.361)" fill="#d9e5ff"/>
          </g>
          <path id="Trazado_105009" data-name="Trazado 105009" d="M1253.105,964.977c1.686-1.457,4.916-.041,5.649.487,1.471,1.06,2.87,3,4.572,8.837,2.143,7.344,2.95,15.415,3.878,20.143,6.8-7.318,13.341-13.109,13.341-13.109s4.245,4.528,6.871,8.073c-9.723,16.126-18.951,23.766-23.072,23.766-2.059,0-4.388-1.371-6.308-4.662-2.06-3.532-3.41-5.473-4.054-9.762-.165-1.1-1.833-8.826-2.6-12.365C1250.072,980.313,1246.3,970.86,1253.105,964.977Z" transform="translate(-1198.359 -962.364)" fill="#fff"/>
          <g id="Grupo_70753" data-name="Grupo 70753" transform="translate(66.858 32.752)">
            <path id="Trazado_105010" data-name="Trazado 105010" d="M1331.87,1125.594a.139.139,0,0,1-.216-.142,6.53,6.53,0,0,1,1.516-2.989.139.139,0,0,1,.2.193,6.364,6.364,0,0,0-1.444,2.851A.14.14,0,0,1,1331.87,1125.594Z" transform="translate(-1331.651 -1122.421)" fill="#d9e5ff"/>
          </g>
          <g id="Grupo_70754" data-name="Grupo 70754" transform="translate(53.984 24.468)">
            <path id="Trazado_105011" data-name="Trazado 105011" d="M1267.828,1095.075a.139.139,0,0,1-.131-.092,79.368,79.368,0,0,1-2.169-14.97.139.139,0,1,1,.278,0,78.889,78.889,0,0,0,2.153,14.876.139.139,0,0,1-.131.186Z" transform="translate(-1265.528 -1079.874)" fill="#d9e5ff"/>
          </g>
          <g id="Grupo_70755" data-name="Grupo 70755" transform="translate(80.996 20.133)">
            <path id="Trazado_105012" data-name="Trazado 105012" d="M1411.217,1065.841a.1.1,0,0,1-.024.018c-.161.086-1.254-1.207-1.44-1.416-1.48-1.653-2.916-3.349-4.287-5.092q-.367-.467-.727-.941-.17-.224-.338-.451c-.044-.06-.156-.2-.126-.274.1-.24.356.117.42.2q.224.3.452.6.485.634.985,1.256,1.053,1.316,2.151,2.6.792.927,1.6,1.84.413.464.833.921C1410.815,1065.212,1411.342,1065.715,1411.217,1065.841Z" transform="translate(-1404.269 -1057.605)" fill="#d9e5ff"/>
          </g>
        </g>
      </g>
      <g id="Grupo_70760" data-name="Grupo 70760" transform="translate(88.192 52.824)">
        <g id="Grupo_70758" data-name="Grupo 70758">
          <path id="Trazado_105013" data-name="Trazado 105013" d="M1212.683,954.027a.351.351,0,0,1-.348.31.274.274,0,0,1-.04,0,.347.347,0,0,1-.308-.386c.717-6.214-.644-10.234-2.195-12.707-.127-.2-.254-.392-.381-.573-.139-.2-.278-.38-.415-.554l-.015-.019-.033-.04a11.835,11.835,0,0,0-1.942-1.918,6.711,6.711,0,0,0-1.216-.659c-.163-.356-.317-.754-.46-1.171a11.589,11.589,0,0,1,3.61,2.673c.143.154.285.313.422.479.062.072.122.145.181.22a14.808,14.808,0,0,1,2.673,5.459A24,24,0,0,1,1212.683,954.027Z" transform="translate(-1205.332 -936.307)" fill="#7aa2ff"/>
        </g>
        <g id="Grupo_70759" data-name="Grupo 70759" transform="translate(3.546 16.347)">
          <circle id="Elipse_5334" data-name="Elipse 5334" cx="3.43" cy="3.43" r="3.43" transform="translate(0.209 0.278)" fill="#d9e5ff"/>
          <circle id="Elipse_5335" data-name="Elipse 5335" cx="3.43" cy="3.43" r="3.43" fill="#ebf1ff"/>
          <circle id="Elipse_5336" data-name="Elipse 5336" cx="2.306" cy="2.306" r="2.306" transform="translate(1.2 0.736)" fill="#d9e5ff"/>
          <circle id="Elipse_5337" data-name="Elipse 5337" cx="2.306" cy="2.306" r="2.306" transform="translate(1.061 0.597)" fill="#ebf1ff"/>
        </g>
      </g>
      <g id="Grupo_70768" data-name="Grupo 70768" transform="translate(61.744 52.543)">
        <g id="Grupo_70761" data-name="Grupo 70761" transform="translate(4.685)">
          <path id="Trazado_105014" data-name="Trazado 105014" d="M1100.394,934.861c-.131.311-.161.391-.3.682a8.1,8.1,0,0,0-2.309,1.36,7.1,7.1,0,0,0-1.365,1.686c-.019.032-.038.064-.056.1-.035.059-.069.119-.1.179-.059.107-.117.217-.174.329a12.465,12.465,0,0,0-.631,1.5,20.87,20.87,0,0,0-.938,4.223,40.85,40.85,0,0,0-.076,8.49.35.35,0,0,1-.307.388l-.035,0a.349.349,0,0,1-.352-.31,41.411,41.411,0,0,1,.074-8.646,18.873,18.873,0,0,1,1.534-5.745c.026-.055.052-.109.08-.163l.01-.02c.065-.13.132-.258.2-.382q.214-.387.455-.744c.09-.131.181-.259.276-.383A7.583,7.583,0,0,1,1100.394,934.861Z" transform="translate(-1093.553 -934.861)" fill="#7aa2ff"/>
        </g>
        <g id="Grupo_70767" data-name="Grupo 70767" transform="translate(0 18.216)">
          <g id="Grupo_70763" data-name="Grupo 70763" transform="translate(0.24 6.759)">
            <g id="Grupo_70762" data-name="Grupo 70762">
              <path id="Trazado_105015" data-name="Trazado 105015" d="M1076.049,1075.017c-.865.014-3.647-.02-3.991-1-1.079-3.059-1.325-10.377-1.334-10.687a.194.194,0,0,1,.388-.012c0,.075.253,7.568,1.313,10.57.2.571,2.321.772,3.762.734a.194.194,0,1,1,.011.389Z" transform="translate(-1070.723 -1063.134)" fill="#cfdeff"/>
            </g>
          </g>
          <g id="Grupo_70765" data-name="Grupo 70765" transform="translate(5.159 5.93)">
            <g id="Grupo_70764" data-name="Grupo 70764" transform="translate(2.297)">
              <path id="Trazado_105016" data-name="Trazado 105016" d="M1107.984,1071.328a.194.194,0,0,1-.01-.389c1.233-.042,3.017-.364,3.123-.949.568-3.135-.16-10.821-.167-10.9a.194.194,0,1,1,.387-.037c.031.318.741,7.817.163,11.005-.2,1.1-2.944,1.25-3.492,1.268Z" transform="translate(-1107.787 -1058.879)" fill="#cfdeff"/>
            </g>
            <path id="Trazado_105017" data-name="Trazado 105017" d="M1108.264,1119.911c-.011-.143-.036-.345-.053-.483a.173.173,0,0,0-.18-.151c-.4.02-1.043.1-1.005.55s.7.333,1.093.269A.174.174,0,0,0,1108.264,1119.911Z" transform="translate(-1104.875 -1107.518)" fill="#a5c1ff"/>
            <path id="Trazado_105018" data-name="Trazado 105018" d="M1096.026,1121.652c-.016-.143-.029-.345-.038-.484a.173.173,0,0,1,.149-.182c.4-.056,1.044-.093,1.09.353s-.623.458-1.024.468A.173.173,0,0,1,1096.026,1121.652Z" transform="translate(-1095.987 -1108.867)" fill="#a5c1ff"/>
          </g>
          <g id="Grupo_70766" data-name="Grupo 70766">
            <path id="Trazado_105019" data-name="Trazado 105019" d="M1069.961,1036.364a.388.388,0,0,1-.39-.331c-.022-.148-.525-3.643,1.3-5.864a4.97,4.97,0,0,1,3.8-1.741,5.108,5.108,0,0,1,3.972,1.379c2.108,2.057,2.055,5.633,2.052,5.784a.389.389,0,0,1-.777-.016c0-.034.046-3.4-1.82-5.214a4.359,4.359,0,0,0-3.39-1.157,4.226,4.226,0,0,0-3.231,1.458c-1.606,1.957-1.135,5.222-1.13,5.254a.389.389,0,0,1-.326.443A.4.4,0,0,1,1069.961,1036.364Z" transform="translate(-1069.491 -1028.421)" fill="#7aa2ff"/>
          </g>
        </g>
      </g>
      <g id="Grupo_70776" data-name="Grupo 70776" transform="translate(101.438 22.508)">
        <g id="Grupo_70772" data-name="Grupo 70772" transform="translate(3.726)">
          <g id="Grupo_70769" data-name="Grupo 70769" transform="translate(2.805 2.941)">
            <path id="Trazado_105020" data-name="Trazado 105020" d="M1345.861,819.956l-36.588-1.657a2.407,2.407,0,0,1-2.363-2.34V800.4a2.4,2.4,0,0,1,2.309-2.337L1345,795.709a2.434,2.434,0,0,1,2.654,2.246l.8,19.569A2.417,2.417,0,0,1,1345.861,819.956Z" transform="translate(-1306.909 -795.703)" fill="#fff"/>
          </g>
          <g id="Grupo_70771" data-name="Grupo 70771">
            <g id="Grupo_70770" data-name="Grupo 70770">
              <path id="Trazado_105021" data-name="Trazado 105021" d="M1336.767,810.734q-.072,0-.144,0l-41.356-2.046a2.949,2.949,0,0,1-2.764-2.986V786.5a2.964,2.964,0,0,1,2.7-2.982l40.45-2.912a2.827,2.827,0,0,1,2.108.727,3,3,0,0,1,1,2.14l.907,24.158a3.038,3.038,0,0,1-.891,2.273A2.829,2.829,0,0,1,1336.767,810.734Zm-.135-.2a2.633,2.633,0,0,0,2-.773,2.843,2.843,0,0,0,.833-2.127l-.907-24.159a2.8,2.8,0,0,0-.93-2,2.644,2.644,0,0,0-1.964-.678l-40.45,2.912a2.769,2.769,0,0,0-2.52,2.788v19.2a2.755,2.755,0,0,0,2.579,2.792Z" transform="translate(-1292.503 -780.596)" fill="#fff"/>
            </g>
          </g>
        </g>
        <path id="Trazado_105022" data-name="Trazado 105022" d="M1280.272,850.019l-6.906,9.171,9.881-.261S1287.6,854.761,1280.272,850.019Z" transform="translate(-1273.367 -836.503)" fill="#fff"/>
        <g id="Grupo_70773" data-name="Grupo 70773" transform="translate(14.969 10.049)">
          <rect id="Rectángulo_8772" data-name="Rectángulo 8772" width="26.613" height="0.389" fill="#c4d7ff"/>
        </g>
        <g id="Grupo_70774" data-name="Grupo 70774" transform="translate(14.969 15.08)">
          <rect id="Rectángulo_8773" data-name="Rectángulo 8773" width="26.613" height="0.389" fill="#c4d7ff"/>
        </g>
        <g id="Grupo_70775" data-name="Grupo 70775" transform="translate(14.969 20.508)">
          <rect id="Rectángulo_8774" data-name="Rectángulo 8774" width="26.613" height="0.389" fill="#c4d7ff"/>
        </g>
      </g>
    </g>
    <g id="Grupo_70794" data-name="Grupo 70794" transform="translate(79.521 329.921)">
      <g id="Grupo_70779" data-name="Grupo 70779" transform="translate(45.155 49.712)">
        <path id="Trazado_105023" data-name="Trazado 105023" d="M480.821,891.629l-32.7-1.945,6.6-39.447,2.118-9.431,9.345-.584,8.976-.322.7,10.005.8,8.878.21,2.325.339,3.76.045.508.267,1.959Z" transform="translate(-448.12 -839.9)" fill="#fcb086"/>
        <g id="Grupo_70778" data-name="Grupo 70778" transform="translate(25.134 22.713)">
          <path id="Trazado_105024" data-name="Trazado 105024" d="M581.481,961.278a22.586,22.586,0,0,1-4.167-4.5c-.6-.825,1.569.845,3.855,2.035l.045.508Z" transform="translate(-577.214 -956.556)" fill="#faa88c"/>
        </g>
      </g>
      <g id="Grupo_70793" data-name="Grupo 70793" transform="translate(0 0)">
        <path id="Trazado_105025" data-name="Trazado 105025" d="M661.368,1667.478a73.382,73.382,0,0,1-20.856,1.054c-1.39-.107-2.792-.267-4.218-.48-7.6-1.118-15.848-3.647-26.426-7.249-.865-.295-3.324-2.392-4.221-2.7a124.949,124.949,0,0,1-24.79-11.292c-3.687-11.437-5.008-33.239,18.971-22.847.4.173,5.369.808,12.26,2.072,15.019,2.757,39.158,8.5,44.909,18.935C658.962,1648.535,660.43,1656.863,661.368,1667.478Z" transform="translate(-508.197 -1419.397)" fill="#0c132e"/>
        <g id="Grupo_70780" data-name="Grupo 70780" transform="translate(14.487 76.429)">
          <path id="Trazado_105026" data-name="Trazado 105026" d="M390.639,1070.972a26.776,26.776,0,0,1,2.467,8.041c1,6.048-.583,12.116-3,17.75-2.491,5.807-6.579,9.47-6.75,16-.138,5.282-.907,28.011-1.477,32.947-6.129,8.484-15.9,9.572-22.218,10.939a69.174,69.174,0,0,1-25.188.546q-1.98-1.469-4.1-3.09c-6.807-5.207-14.814-11.66-25-19.9-1.718-1.39-5.2-4.449-9.626-8.438-.107-2.067-.192-3.725-.29-4.523q-1.107-9.01-2.067-18.037c-1.016-9.687-4.255-20.643-2.035-29.966l.1-.415q1.35-5.665,2.7-11.331c1.586-6.665,3.193-13.385,6.119-19.581,2.322-4.916,6.259-11.559,11.377-14.05,2.561-1.248,9.83-3.687,12.669-3.181,23.847,4.258,25.075-.815,27.464-.759l2.843,1.07c11.847,4.48,20.473,9.1,28.61,11.161.766.191,1.744,15.383,1.893,17.1.463,5.322.735,8.125,3.242,13.094C389.146,1067.874,389.92,1069.412,390.639,1070.972Z" transform="translate(-290.6 -1014.809)" fill="#64a3e8"/>
          <path id="Trazado_105027" data-name="Trazado 105027" d="M465.883,987.49s-2-6.478-4.723-7.809c-8.979,2.821-19.008,1.113-26.613-2.5-2.133-1.013-6.577,10.934-5.781,12.046C429.3,989.968,454.666,995.993,465.883,987.49Z" transform="translate(-401.79 -977.121)" fill="#64a3e8"/>
        </g>
        <path id="Trazado_105028" data-name="Trazado 105028" d="M1179.244,1429.336a79.275,79.275,0,0,1,11.932,1.69c3.638.957,4.344,1.648,4.572,2.79a1,1,0,0,1-.874,1.189c-3.507.371-12.271,1.115-15.037,1.247C1180.012,1435.726,1179.244,1429.336,1179.244,1429.336Z" transform="translate(-991.741 -1264.848)" fill="#fcb086"/>
        <g id="Grupo_70781" data-name="Grupo 70781" transform="translate(41.222 86.91)">
          <path id="Trazado_105029" data-name="Trazado 105029" d="M428.067,1032.283a41.819,41.819,0,0,0,29.992,2.4,35.524,35.524,0,0,0,7.542-3.186.292.292,0,0,0-.295-.5c-11.008,6.268-25.657,6.4-36.944.782-.335-.167-.632.337-.295.5Z" transform="translate(-427.918 -1030.956)" fill="#1c3678"/>
        </g>
        <path id="Trazado_105030" data-name="Trazado 105030" d="M658.318,1084.58c-.938-2.893-5.212-21.284-4.653-29.037,5.654-.043,10.761,1.36,18.291,4.289,9.376,3.649,14.234,14.522,18.052,23.829a214.6,214.6,0,0,0,12.764,26.008c4.449,7.545,4.042,10.466,13.316,12.408,9.339,1.955,25.275,4.13,39.75,6.124,3.377.465,2.946,3.946,2.412,6.832-19.177,1.864-33.85,3-51.466,3.416-5.615.133-11.509,1.308-16.26-1.689C687.568,1134.9,663.53,1100.651,658.318,1084.58Z" transform="translate(-568.45 -963.845)" fill="#fcb086"/>
        <path id="Trazado_105031" data-name="Trazado 105031" d="M648.216,1095.739l-.365.176c-1.629.775-1.431.938-2.537-.274-1.724-1.887-2.819-5.259-3.953-7.548q-1.882-3.8-3.59-7.682a160.366,160.366,0,0,1-5.741-14.992c-.988-3.046-5.488-22.41-4.9-30.573,8.28,1.774,16.349,5.317,24.277,8.4,9.872,3.841,14.618,11.3,18.639,21.1,2.321,5.657,3.689,8.982,6.228,15.455.123.314.384.592.348.927-.052.475-.531.766-.957.983l-15.894,8.116-7.947,4.058C650.622,1094.5,649.43,1095.147,648.216,1095.739Z" transform="translate(-547.079 -947.178)" fill="#64a3e8"/>
        <path id="Trazado_105032" data-name="Trazado 105032" d="M320.186,1269.617c-.623,12.93-1.548,26.438-2.2,34.96-.055-.018-.109-.035-.164-.055q-1.3-.441-2.642-.905a148.473,148.473,0,0,1-19.6-8.055,1.154,1.154,0,0,0,.01-.206c-1.949-.995-3.869-2.048-5.806-3.189a164.624,164.624,0,0,1-14.18-9.5c-1.608-1.184-3.279-2.44-5.029-3.781-6.809-5.206-14.814-11.658-25-19.9-3.793-3.072-16.224-14.293-28.309-25.678-.724-10.395-1.092-20.209-.857-28.264.191-6.485.773-11.83,1.881-15.418.752-2.438,1.746-4.063,3.024-4.687,13.909-6.77,78.457-10.362,94.153,2.882C322.088,1198.246,321.74,1237.487,320.186,1269.617Z" transform="translate(-216.314 -1063.163)" fill="#f6f6f8"/>
        <g id="Grupo_70782" data-name="Grupo 70782" transform="translate(0 126.462)">
          <path id="Trazado_105033" data-name="Trazado 105033" d="M295.544,1340.081c-.027-.016-.055-.029-.082-.043-2-1.016-3.958-2.093-5.938-3.257a165.084,165.084,0,0,1-14.18-9.5q-.461-.342-.933-.691-1.98-1.469-4.1-3.09c-6.809-5.206-14.814-11.658-25-19.9-1.717-1.388-5.2-4.449-9.624-8.436-5.35-4.825-12.069-11.008-18.685-17.24l-.549-.518c-.3-10.149-.335-22.119-.165-27.884.191-6.485.773-11.83,1.881-15.418,32.349,1.4,51.084,7.827,59.846,12.8a34.24,34.24,0,0,1,16.962,25.579c2.146,17.127,1.639,43.415.551,66.144C295.531,1338.66,295.537,1339.2,295.544,1340.081Z" transform="translate(-216.192 -1234.1)" fill="#fff"/>
        </g>
        <g id="Grupo_70791" data-name="Grupo 70791" transform="translate(14.91)">
          <path id="Trazado_105034" data-name="Trazado 105034" d="M502.612,734.678q.389.043.779.083c1.865.187,4.4.437,5.8-1.065a7.474,7.474,0,0,0,1.375-2.557,95.008,95.008,0,0,0,3.519-11.658,8.7,8.7,0,0,1,1.771-4.2,3.487,3.487,0,0,0,.907-1.112,2.479,2.479,0,0,0-.385-1.893,17.706,17.706,0,0,1-2.154-5.04c-.289-1.821-.3-3.742-.57-5.585A59.668,59.668,0,0,0,511,690.269c-1.909-5.4-6.528-7.454-10.992-10.393-11.057-7.281-25.775.441-26.342,13.669-.424,9.885-.634,13.138,1.452,23.291,1.446,7.037,4.183,14.163,11.292,15.2C491.828,732.816,497.149,734.067,502.612,734.678Z" transform="translate(-438.225 -659.061)" fill="#fcb086"/>
          <g id="Grupo_70783" data-name="Grupo 70783">
            <path id="Trazado_105035" data-name="Trazado 105035" d="M347.4,649.034a12.2,12.2,0,0,1,.859-5.143c2.033-4.9,3.25-8.126,5.248-12.971,0-5.04,8.632-7.538,12.155-9.236,5.887-2.837,4.785-14.411,1.25-17.946-4.141-4.141-11.527-6.148-14.754-5.054-.581-3.947-5.514-5.7-9.5-5.508s-7.033,1.615-10.334,3.854a9.528,9.528,0,0,0-16.958-8.308,7.734,7.734,0,0,0-.93,7.147c1.778,4.214,6.655,4.5,9.685,7.394-5.6,4.228-8.435,6.534-11.636,10.123a79.822,79.822,0,0,0-8.982,11.648c-4.781,7.949-7.4,16.836-5.754,25.963.391,2.162,2.858,5.125,4.35,6.737,2.425,2.617,4.119,3.754,4.27,7.758.128,3.417-1.655,6.787-3.365,9.627-3.686,6.122-7.571,12.28-9.342,19.2s-1.079,14.9,3.63,20.278c5.637,6.435,12.348,8.781,20.9,8.471a53.773,53.773,0,0,0,17.382-4.121c6.42-3.021,11.019-9.064,13.758-15.61,3.543-8.469,6.26-20.361,6.186-29.606-.045-5.688-3.377-10.732-5.759-15.9A23.636,23.636,0,0,1,347.4,649.034Z" transform="translate(-292.773 -584.567)" fill="#0c132e"/>
          </g>
          <g id="Grupo_70788" data-name="Grupo 70788" transform="translate(25.677 12.142)">
            <g id="Grupo_70784" data-name="Grupo 70784" transform="translate(5.042)">
              <path id="Trazado_105036" data-name="Trazado 105036" d="M450.9,653.7c3.569-1.381,6.8-2.951,8.844-6.333a.292.292,0,0,0-.5-.295c-1.973,3.257-5.065,4.738-8.5,6.065-.347.134-.2.7.155.563Z" transform="translate(-450.551 -646.931)" fill="#64a3e8"/>
            </g>
            <g id="Grupo_70785" data-name="Grupo 70785" transform="translate(0 4.689)">
              <path id="Trazado_105037" data-name="Trazado 105037" d="M430.2,672.494a5.083,5.083,0,0,0-3.151-1.474c-.837-.039-2.1.256-2.338,1.2-.631,2.466,4.275.925,5.091.747l-.225-.534c-.944.539-4.329,1.7-3.03,3.341.517.654,1.458.394,2.019-.046a4.785,4.785,0,0,0,1.378-2.79c.086-.365-.477-.522-.563-.155a7.311,7.311,0,0,1-.526,1.639,2.623,2.623,0,0,1-.519.737q-.439.59-.754-.224-.854-.464-.037-.753c.741-.473,1.565-.808,2.328-1.243a.293.293,0,0,0-.225-.534c-.7.152-4.318,1.464-4.372-.029-.035-.967,2.058-.769,2.505-.647a4.806,4.806,0,0,1,2.008,1.175c.274.257.688-.155.413-.413Z" transform="translate(-424.654 -671.017)" fill="#64a3e8"/>
            </g>
            <g id="Grupo_70786" data-name="Grupo 70786" transform="translate(4.761 5.966)">
              <path id="Trazado_105038" data-name="Trazado 105038" d="M449.247,677.779c-.744,2.48,1.688,4.313,3.156,5.963.25.281.662-.133.413-.413-1.289-1.449-3.654-3.233-3.006-5.394a.292.292,0,0,0-.563-.155Z" transform="translate(-449.109 -677.574)" fill="#64a3e8"/>
            </g>
            <g id="Grupo_70787" data-name="Grupo 70787" transform="translate(4.795 6.132)">
              <path id="Trazado_105039" data-name="Trazado 105039" d="M449.286,678.791c.306,1.754,2.13,2.252,3.657,2.4.374.037.371-.547,0-.584-1.28-.127-2.835-.491-3.094-1.975-.064-.37-.627-.213-.563.155Z" transform="translate(-449.281 -678.424)" fill="#64a3e8"/>
            </g>
          </g>
          <g id="Grupo_70790" data-name="Grupo 70790" transform="translate(53.596 45.663)">
            <path id="Trazado_105040" data-name="Trazado 105040" d="M575.547,822.7c.051-1.709-2.012-3.738-3.607-3.583-4.829.47-4.414,11.109-2.739,12.851,1.051,1.093,2.607.523,3.79-.136a2.9,2.9,0,0,0,1.424-2Z" transform="translate(-568.051 -819.104)" fill="#fcb086"/>
            <g id="Grupo_70789" data-name="Grupo 70789" transform="translate(2.04 4.111)">
              <path id="Trazado_105041" data-name="Trazado 105041" d="M581.587,840.8a.667.667,0,0,0-.23-.429c-.368-.3-1.216-.089-1.595.078a2.065,2.065,0,0,0-1.082,1.054c-.423,1,.121,2.237.6,3.109a8.074,8.074,0,0,0,.427.7.185.185,0,0,0,.329-.153c-.127-.488-.289-.966-.37-1.468s-.3-1.005.064-1.449a1.721,1.721,0,0,1,.838-.5,1.7,1.7,0,0,0,.882-.422A.675.675,0,0,0,581.587,840.8Z" transform="translate(-578.529 -840.22)" fill="#faa88c"/>
            </g>
          </g>
        </g>
        <g id="Grupo_70792" data-name="Grupo 70792" transform="translate(90.5 96.112)">
          <path id="Trazado_105042" data-name="Trazado 105042" d="M694.213,1078.234c-9.034,2.746-12.043,12.623-13.189,20.979-.05.368.512.527.563.155,1.115-8.13,3.956-17.888,12.781-20.571.359-.109.206-.673-.155-.563Z" transform="translate(-681.021 -1078.219)" fill="#1c3678"/>
        </g>
      </g>
    </g>
    <g id="Grupo_70802" data-name="Grupo 70802" transform="translate(314.381 469.343)">
      <path id="Trazado_105043" data-name="Trazado 105043" d="M1453.018,1423.1c-5.035,0-9.3.85-10.807,2.027a31.382,31.382,0,0,0-5.459-.445c-5.288,0-9.574,1.114-9.574,2.489s4.286,2.489,9.574,2.489c3.795,0,7.073-.574,8.623-1.406a34.648,34.648,0,0,0,7.644.766c6.289,0,11.388-1.325,11.388-2.96S1459.307,1423.1,1453.018,1423.1Z" transform="translate(-1426.262 -1399.266)" fill="#e2ddf2" opacity="0.2" style="mix-blend-mode: multiply;isolation: isolate"/>
      <g id="Grupo_70797" data-name="Grupo 70797" transform="translate(14.28)">
        <g id="Grupo_70796" data-name="Grupo 70796">
          <path id="Trazado_105044" data-name="Trazado 105044" d="M1518.214,1333.041c-.076,5.287-.154,12.384-.152,12.483.01,1.137-.338,3.272-2.366,3.9-2.157.668-4.433.876-8.993.94a37.341,37.341,0,0,1-8.356-.94c-.064-.019-.125-.042-.185-.064-.031-.012-.062-.022-.092-.036a1.233,1.233,0,0,1-.12-.052.338.338,0,0,1-.036-.017c-.05-.023-.1-.047-.144-.073a.271.271,0,0,1-.031-.017c-.052-.028-.1-.057-.149-.088a.031.031,0,0,1-.01-.007h0a4.133,4.133,0,0,1-1.6-3.549c0-.1-.076-7.2-.154-12.483a5.767,5.767,0,0,1,2.334-4.769c.073-.052.145-.1.22-.149a5.062,5.062,0,0,1,2.824-.808l8.73.033-.005.04,2.91-.073a5.008,5.008,0,0,1,.8.052,5.521,5.521,0,0,1,4.581,5.586C1518.216,1332.982,1518.214,1333.011,1518.214,1333.041Z" transform="translate(-1495.825 -1322.126)" fill="#fff"/>
          <path id="Trazado_105045" data-name="Trazado 105045" d="M1525.471,1333.258c-.076,5.287-.154,12.384-.152,12.483.011,1.137-.338,3.272-2.366,3.9-2.157.668-4.433.876-8.993.94a37.34,37.34,0,0,1-8.356-.94c-.064-.019-.125-.042-.185-.064-.031-.012-.062-.022-.092-.036a1.262,1.262,0,0,1-.12-.052.337.337,0,0,1-.036-.017c-.05-.022-.1-.047-.143-.073a.3.3,0,0,1-.031-.017c-.052-.028-.1-.057-.149-.088a.038.038,0,0,1-.01-.007,42.2,42.2,0,0,0,7.347.689c4.56-.062,6.836-.272,8.991-.94,2.031-.632,2.379-2.764,2.368-3.9,0-.1,1.467-8.542-1.624-12.369-2.02-2.5-17.929-.19-16.5-4.278,0-.007.005-.014.007-.021.017-.049.09-.09.213-.128,1.852-.576,15-.024,15.255-.756a5.521,5.521,0,0,1,4.581,5.586C1525.473,1333.2,1525.471,1333.228,1525.471,1333.258Z" transform="translate(-1503.081 -1322.343)" fill="#f6f6f8"/>
          <path id="Trazado_105046" data-name="Trazado 105046" d="M1525.509,1310.055c.01,1.15-3.892,2.117-8.716,2.16s-8.743-.854-8.753-2,3.892-2.117,8.716-2.16S1525.5,1308.905,1525.509,1310.055Z" transform="translate(-1505.662 -1306.613)" fill="#f6f6f8"/>
          <path id="Trazado_105047" data-name="Trazado 105047" d="M1525.206,1317.78a.5.5,0,0,1,.013.111c.01,1.15-3.892,2.117-8.716,2.16s-8.743-.854-8.753-2a.5.5,0,0,1,.008-.088s-.078,2.316-.077,2.431c.011,1.247,3.843,2.1,9.074,2.05s8.686-.9,8.675-2.15C1525.429,1320.176,1525.206,1317.78,1525.206,1317.78Z" transform="translate(-1505.373 -1314.448)" fill="#fff"/>
          <g id="Grupo_70795" data-name="Grupo 70795" transform="translate(3.59)">
            <path id="Trazado_105048" data-name="Trazado 105048" d="M1531.183,1302.272c.008.919-3.111,1.692-6.966,1.726s-6.987-.683-7-1.6,3.111-1.692,6.966-1.726S1531.175,1301.353,1531.183,1302.272Z" transform="translate(-1516.646 -1300.669)" fill="#f6f6f8"/>
            <path id="Trazado_105049" data-name="Trazado 105049" d="M1529.318,1309.808l-.528-1.362a.428.428,0,0,1,.011.089c.008.919-3.11,1.692-6.966,1.727s-6.987-.683-7-1.6a.417.417,0,0,1,.006-.07l-.5,1.35a.5.5,0,0,0-.083.272c.009,1,3.405,1.775,7.586,1.737s7.563-.875,7.554-1.872A.507.507,0,0,0,1529.318,1309.808Z" transform="translate(-1514.264 -1306.932)" fill="#fff"/>
          </g>
        </g>
        <path id="Trazado_105050" data-name="Trazado 105050" d="M1543.233,1373.674h-1.844a.144.144,0,0,1-.144-.144v-1.844a.144.144,0,0,0-.144-.144h-1.2a.144.144,0,0,0-.144.144v1.844a.144.144,0,0,1-.144.144h-1.844a.144.144,0,0,0-.144.144v1.2a.144.144,0,0,0,.144.144h1.844a.144.144,0,0,1,.144.144v1.844a.144.144,0,0,0,.144.144h1.2a.144.144,0,0,0,.144-.144V1375.3a.144.144,0,0,1,.144-.144h1.844a.144.144,0,0,0,.144-.144v-1.2A.144.144,0,0,0,1543.233,1373.674Z" transform="translate(-1529.487 -1357.743)" fill="#c4d7ff"/>
      </g>
      <g id="Grupo_70799" data-name="Grupo 70799" transform="translate(0 4.957)">
        <path id="Trazado_105051" data-name="Trazado 105051" d="M1441.3,1355.51c-.064,4.445-.129,10.412-.128,10.5.009.956-.284,2.751-1.99,3.282-1.814.562-3.728.736-7.561.79a31.4,31.4,0,0,1-7.026-.79c-.054-.016-.1-.035-.156-.054-.026-.01-.052-.019-.077-.031a.985.985,0,0,1-.1-.044.277.277,0,0,1-.031-.015c-.042-.019-.082-.039-.121-.061l-.026-.015c-.044-.023-.084-.048-.125-.074l-.009-.006h0a3.474,3.474,0,0,1-1.343-2.984c0-.083-.064-6.05-.13-10.5a4.848,4.848,0,0,1,1.962-4.01c.061-.044.122-.084.185-.125a4.253,4.253,0,0,1,2.374-.68l7.34.028,0,.034,2.447-.061a4.207,4.207,0,0,1,.67.044,4.642,4.642,0,0,1,3.851,4.7C1441.305,1355.461,1441.3,1355.485,1441.3,1355.51Z" transform="translate(-1422.479 -1345.912)" fill="#fff"/>
        <path id="Trazado_105052" data-name="Trazado 105052" d="M1447.4,1355.692c-.064,4.445-.13,10.412-.128,10.5.009.956-.284,2.751-1.99,3.282-1.814.562-3.727.737-7.561.791a31.405,31.405,0,0,1-7.026-.791c-.054-.016-.1-.035-.156-.054-.026-.01-.052-.019-.077-.031a.946.946,0,0,1-.1-.044.224.224,0,0,1-.031-.014c-.042-.019-.082-.039-.121-.061l-.026-.015c-.044-.023-.084-.048-.125-.074a.03.03,0,0,1-.009-.006,35.473,35.473,0,0,0,6.177.579c3.834-.052,5.748-.229,7.56-.79a3.2,3.2,0,0,0,1.991-3.282c0-.083,1.234-7.182-1.365-10.4-1.7-2.1-15.075-.16-13.875-3.6,0-.006,0-.012.006-.017.015-.041.076-.076.179-.108,1.557-.485,12.615-.021,12.825-.636a4.642,4.642,0,0,1,3.851,4.7C1447.406,1355.643,1447.4,1355.667,1447.4,1355.692Z" transform="translate(-1428.58 -1346.094)" fill="#f6f6f8"/>
        <g id="Grupo_70798" data-name="Grupo 70798" transform="translate(1.941)">
          <path id="Trazado_105053" data-name="Trazado 105053" d="M1447.2,1334.841h-.006c-.016.962-3.286,1.77-7.327,1.806-4.02.036-7.291-.705-7.356-1.66-.013.715-.062,3.491-.062,3.575.009,1.049,3.231,1.763,7.63,1.724s7.3-.759,7.293-1.808C1447.37,1338.382,1447.2,1334.841,1447.2,1334.841Z" transform="translate(-1432.448 -1333.144)" fill="#fff"/>
          <path id="Trazado_105054" data-name="Trazado 105054" d="M1440.109,1329.629c4.041-.036,7.311-.844,7.327-1.806,0,0,0-.007,0-.01-.009-.967-3.3-1.721-7.359-1.685-3.852.034-7,.77-7.3,1.672a.46.46,0,0,0-.021.1.412.412,0,0,0,0,.042c0,.009,0,.017,0,.025C1432.818,1328.924,1436.089,1329.665,1440.109,1329.629Z" transform="translate(-1432.691 -1326.127)" fill="#f6f6f8"/>
        </g>
      </g>
      <path id="Trazado_105055" data-name="Trazado 105055" d="M1452.034,1390.224a27.376,27.376,0,0,1-10.661-.135c-.069-1.7-.069-3.279,0-5.32a38.385,38.385,0,0,0,10.548.014Z" transform="translate(-1437.653 -1368.395)" fill="#c4d7ff"/>
      <g id="Grupo_70800" data-name="Grupo 70800" transform="translate(5.586 17.831)">
        <path id="Trazado_105056" data-name="Trazado 105056" d="M1456.05,1396.988a1.545,1.545,0,0,0,.04-2.115l-2.153,2.206A1.545,1.545,0,0,0,1456.05,1396.988Z" transform="translate(-1453.398 -1394.363)" fill="#fff"/>
        <path id="Trazado_105057" data-name="Trazado 105057" d="M1451.609,1392.716a1.545,1.545,0,0,0-.04,2.115l2.153-2.206A1.545,1.545,0,0,0,1451.609,1392.716Z" transform="translate(-1451.17 -1392.251)" fill="#fff"/>
        <path id="Trazado_105058" data-name="Trazado 105058" d="M1455.447,1394.24c-.023-.023-.048-.043-.073-.064l-2.153,2.206c.022.024.043.049.066.072s.049.043.073.064l2.153-2.206C1455.491,1394.287,1455.47,1394.263,1455.447,1394.24Z" transform="translate(-1452.821 -1393.8)" fill="#f6f6f8"/>
      </g>
      <g id="Grupo_70801" data-name="Grupo 70801" transform="translate(9.17 17.84)">
        <path id="Trazado_105059" data-name="Trazado 105059" d="M1478.8,1393.687a1.545,1.545,0,0,0-1.6-1.384l.318,3.066A1.545,1.545,0,0,0,1478.8,1393.687Z" transform="translate(-1475.719 -1392.301)" fill="#fff"/>
        <path id="Trazado_105060" data-name="Trazado 105060" d="M1469.587,1394.094a1.545,1.545,0,0,0,1.6,1.384l-.318-3.066A1.545,1.545,0,0,0,1469.587,1394.094Z" transform="translate(-1469.579 -1392.39)" fill="#fff"/>
        <path id="Trazado_105061" data-name="Trazado 105061" d="M1476.305,1392.313c-.033,0-.064.01-.1.015l.318,3.066c.032,0,.065,0,.1-.005s.064-.01.1-.015l-.318-3.067C1476.37,1392.309,1476.338,1392.31,1476.305,1392.313Z" transform="translate(-1474.918 -1392.307)" fill="#f6f6f8"/>
      </g>
    </g>
    <g id="Grupo_70806" data-name="Grupo 70806" transform="translate(259.127 462.183)">
      <path id="Rectángulo_8775" data-name="Rectángulo 8775" d="M.643,0h4.1a.643.643,0,0,1,.643.643v0a.643.643,0,0,1-.643.643H.643A.643.643,0,0,1,0,.643v0A.643.643,0,0,1,.643,0Z" transform="translate(12.266 1.148) rotate(-0.272)" fill="#9ea4b3"/>
      <g id="Grupo_70803" data-name="Grupo 70803" transform="translate(4.415)">
        <path id="Trazado_105062" data-name="Trazado 105062" d="M1162.784,1264.8a.575.575,0,1,0-.923.023,1.785,1.785,0,0,0-.5,1.286.111.111,0,0,0,.111.114l1.739-.008a.1.1,0,0,0,.1-.1A1.769,1.769,0,0,0,1162.784,1264.8Z" transform="translate(-1161.365 -1263.893)" fill="#9ea4b3"/>
        <path id="Trazado_105063" data-name="Trazado 105063" d="M1173.383,1269.012a.353.353,0,1,0-.567.014,1.094,1.094,0,0,0-.3.79.068.068,0,0,0,.068.07l1.068-.005a.061.061,0,0,0,.061-.061A1.086,1.086,0,0,0,1173.383,1269.012Z" transform="translate(-1170.342 -1267.568)" fill="#9ea4b3"/>
      </g>
      <path id="Trazado_105064" data-name="Trazado 105064" d="M1139.905,1269.774a.609.609,0,1,1-.612-.606A.609.609,0,0,1,1139.905,1269.774Z" transform="translate(-1138.687 -1268.141)" fill="#9ea4b3"/>
      <g id="Grupo_70804" data-name="Grupo 70804" transform="translate(22.579 0.306)">
        <path id="Trazado_105065" data-name="Trazado 105065" d="M1257.275,1266.767a1.309,1.309,0,1,1-1.315-1.3A1.309,1.309,0,0,1,1257.275,1266.767Z" transform="translate(-1254.657 -1265.464)" fill="#9ea4b3"/>
        <path id="Trazado_105066" data-name="Trazado 105066" d="M1258.6,1269.846a1.8,1.8,0,0,0-.116-.252,1.876,1.876,0,0,0-.444-.529,1.855,1.855,0,0,0-.569-.228,1.819,1.819,0,0,0-.273-.038c-.093-.005-.246.227-.273.393a.067.067,0,0,0,.03.067,1.1,1.1,0,0,0,.231.12c.033.009.053-.014.075-.041.056-.065.126-.152.147-.133a1.022,1.022,0,0,1,.448.139,1.049,1.049,0,0,1,.294.419c.024.015-.039.107-.086.18-.018.029-.032.059-.015.088a1.077,1.077,0,0,0,.18.182.067.067,0,0,0,.073.01C1258.455,1270.147,1258.632,1269.932,1258.6,1269.846Z" transform="translate(-1256.481 -1268.15)" fill="#0c132e"/>
      </g>
      <g id="Grupo_70805" data-name="Grupo 70805" transform="translate(29.175 0.674)">
        <path id="Trazado_105067" data-name="Trazado 105067" d="M1289.953,1267.354l-.722,0a.7.7,0,0,0-.7.7c0,.042.017,1.032.017,1.032a.048.048,0,0,0,.083.033l.392-.4a.693.693,0,0,0,.21.031l.722,0a.7.7,0,1,0-.006-1.4Z" transform="translate(-1288.536 -1267.354)" fill="#9ea4b3"/>
        <path id="Trazado_105068" data-name="Trazado 105068" d="M1291.9,1270.757a.076.076,0,1,1-.076-.076A.076.076,0,0,1,1291.9,1270.757Z" transform="translate(-1291.119 -1270.033)" fill="#0c132e"/>
        <path id="Trazado_105069" data-name="Trazado 105069" d="M1293.787,1270.748a.076.076,0,1,1-.076-.076A.076.076,0,0,1,1293.787,1270.748Z" transform="translate(-1292.642 -1270.026)" fill="#0c132e"/>
        <path id="Trazado_105070" data-name="Trazado 105070" d="M1295.552,1270.74a.076.076,0,1,1-.076-.076A.076.076,0,0,1,1295.552,1270.74Z" transform="translate(-1294.064 -1270.019)" fill="#0c132e"/>
      </g>
    </g>
  </g>
</svg>
