<svg xmlns="http://www.w3.org/2000/svg" width="330.34" height="304.049" viewBox="0 0 330.34 304.049">
  <g id="Grupo_71103" data-name="Grupo 71103" transform="translate(-60.83 -47.997)">
    <path id="Trazado_105762" data-name="Trazado 105762" d="M391.17,250.126a171.542,171.542,0,0,1-22.7,85.629H83.53a171.542,171.542,0,0,1-22.7-85.629c0-93.471,73.95-169.24,165.17-169.24S391.17,156.655,391.17,250.126Z" fill="#fe851b" opacity="0.13"/>
    <path id="Trazado_105763" data-name="Trazado 105763" d="M380.51,343.9a8.143,8.143,0,0,1-8.14,8.15H75.59a8.145,8.145,0,1,1,0-16.291H372.37A8.135,8.135,0,0,1,380.51,343.9Z" fill="#1d1d1b" opacity="0.15"/>
    <g id="Grupo_71061" data-name="Grupo 71061">
      <g id="Grupo_71053" data-name="Grupo 71053">
        <path id="Trazado_105764" data-name="Trazado 105764" d="M147.061,71.413l-33.847-22.1-33.847,22.1L79,70.753l34.214-22.338,34.214,22.338Z" fill="#614f49"/>
        <path id="Trazado_105765" data-name="Trazado 105765" d="M114.857,49.779A1.648,1.648,0,1,1,113.214,48,1.716,1.716,0,0,1,114.857,49.779Z" fill="#5e5e5e"/>
        <g id="Grupo_71052" data-name="Grupo 71052">
          <path id="Trazado_105766" data-name="Trazado 105766" d="M150.346,72.18H79.966v4.564h3.339v88.093H79.966V169.4h70.38Z" fill="#1d1d1b" opacity="0.1"/>
          <g id="Grupo_71051" data-name="Grupo 71051">
            <rect id="Rectángulo_8845" data-name="Rectángulo 8845" width="68.061" height="88.093" transform="translate(79.184 73.365)" fill="#fff"/>
            <rect id="Rectángulo_8846" data-name="Rectángulo 8846" width="74.501" height="4.564" transform="translate(75.845 161.458)" fill="#614f49"/>
            <rect id="Rectángulo_8847" data-name="Rectángulo 8847" width="74.501" height="4.564" transform="translate(75.845 68.801)" fill="#614f49"/>
          </g>
        </g>
      </g>
      <g id="Grupo_71060" data-name="Grupo 71060">
        <path id="Trazado_105767" data-name="Trazado 105767" d="M93.511,151.387c1.333-8.958,2.267-11.675,1.735-18.579,2.493-2.758,3.243-9.445,3.823-16.512l1.411,27.182-.223,6.493c-.568,3.8-1.015,7.679-1.344,11.474h13.1c.129-1.868.236-3.716.327-5.393.339.01.679.022,1.021.022s.681-.012,1.02-.022c.091,1.677.2,3.525.327,5.393h13.1c-.329-3.8-.775-7.679-1.344-11.474l-.223-6.493,1.411-27.182c.581,7.067,1.33,13.754,3.823,16.512-.531,6.9.4,9.621,1.736,18.579l3.249.728a98.782,98.782,0,0,0,1.314-19.993l-3.359-22.143c-.172-4.1-4.021-6.263-5.772-6.544l-10.7-3.052-.02-1.077-4.561-.121-4.562.121-.02,1.077-10.7,3.052c-1.75.281-5.6,2.44-5.772,6.544l-3.359,22.143a98.781,98.781,0,0,0,1.314,19.993Z" fill="#ffcfa1"/>
        <path id="Trazado_105768" data-name="Trazado 105768" d="M90.355,160.032c.031.209.048.415.085.558.051.2.146.508.259.855h2.345l-.246-.262-.16-.979L93,158.153l.576,1.949a.845.845,0,0,0,1.052.572l.016,0a.845.845,0,0,0,.572-1.052l-.843-2.9a1.486,1.486,0,0,1-.058-.487l.061-1.332a4.21,4.21,0,0,0-.2-1.5l-.656-2.01-3.25.558,0,2.767A19.041,19.041,0,0,0,90.355,160.032Z" fill="#ffcfa1"/>
        <path id="Trazado_105769" data-name="Trazado 105769" d="M132.082,160.669l.017,0a.846.846,0,0,0,1.052-.572l.575-1.949.357,2.051-.159.979-.247.262h2.346c.112-.347.207-.656.258-.855.037-.143.054-.349.085-.558a19.041,19.041,0,0,0,.089-5.32l.005-2.767-3.249-.558-.657,2.01a4.209,4.209,0,0,0-.2,1.5l.061,1.332a1.485,1.485,0,0,1-.058.487l-.843,2.9A.846.846,0,0,0,132.082,160.669Z" fill="#ffcfa1"/>
        <path id="Trazado_105770" data-name="Trazado 105770" d="M117.67,93.305c2.933-2.436,3.207-6.833,2.846-10.3-.453-4.365-4.511-5.88-8.607-5.892-6.472-.017-7.481,4.2-7.633,5.693-.049.442-.284,2.347-.284,2.347-.056.259-.281,1.425.148,1.7a.521.521,0,0,1,.276.514l-.688,3.442a.789.789,0,0,0,.768.943h.572s-.014.511-.012,1.36v.007c0,.364.01.786.017,1.251l.049.356.111.8.054.395.15,1.074a1.193,1.193,0,0,0,1.338.913l2.05-.084-.026,1.485,9.128.27Z" fill="#ffcfa1"/>
        <g id="Grupo_71059" data-name="Grupo 71059">
          <g id="Grupo_71054" data-name="Grupo 71054">
            <path id="Trazado_105771" data-name="Trazado 105771" d="M109.871,128.907c.728-.665,1.309-1.757,2-2.451.627-.626,5.665-1.64,7.768-3.069a.53.53,0,0,0-.192-.964c-2.951-.783-6.592-1.9-9.446-1.527-1.78.23-2.8-.475-4.583-.245a4.418,4.418,0,0,0-3.48,2.57c-.42,1.038-1.739,2.491-.478,5.641a4.6,4.6,0,0,1,.221,1.97.883.883,0,0,0,1.237.786c.977-.382,1.908-.795,2.954-1.132C107.043,130.11,108.447,130.209,109.871,128.907Z" fill="#614f49"/>
            <path id="Trazado_105772" data-name="Trazado 105772" d="M104.136,128.757a3.739,3.739,0,0,1-2.449,2.1.883.883,0,0,0,1.235.763c.977-.382,1.908-.795,2.954-1.132,1.167-.376,2.571-.277,4-1.579.728-.665,1.309-1.757,2-2.451.627-.626,5.665-1.64,7.768-3.069a.52.52,0,0,0-.022-.89C114.025,124.106,106.865,122.265,104.136,128.757Z" fill="#1d1d1b" opacity="0.2"/>
          </g>
          <g id="Grupo_71055" data-name="Grupo 71055">
            <path id="Trazado_105773" data-name="Trazado 105773" d="M111.742,129.746a24.265,24.265,0,0,1-.6-4.078c-.082-.214-.534-.073-.668.035.046.751.13,1.5.246,2.252a2.735,2.735,0,0,0-1.235-.517.514.514,0,0,0-.1-.2,1.99,1.99,0,0,0-.771-.414,10.507,10.507,0,0,0-1.343-.727,1.537,1.537,0,0,0-1.533.439,1.238,1.238,0,0,0-.1,1.466,1.506,1.506,0,0,0,1.459.613c.433-.068.815-.317,1.249-.376a2.75,2.75,0,0,0,.828-.117.552.552,0,0,0,.131-.092,2.042,2.042,0,0,1,1.18.559,1.715,1.715,0,0,1,.507,1.31l.668.038c0-.058,0-.115,0-.173Z" fill="#4ab775"/>
          </g>
          <path id="Trazado_105774" data-name="Trazado 105774" d="M107.774,131.316c-.54.044-.842.578-1.043,1.039a2.088,2.088,0,0,0-.159,1.954,2.432,2.432,0,0,0,1.551.8,14.247,14.247,0,0,0,6.788.259,15.989,15.989,0,0,0,2.6-1.02,9.369,9.369,0,0,0,3.391-2.217,7.217,7.217,0,0,1,1.274-1.479c.229-.159.519-.31.56-.571a3.185,3.185,0,0,0-2.411.239c-.745.345-1.4.833-2.146,1.177a12.623,12.623,0,0,1-5.28.762,16.413,16.413,0,0,1-1.972-.076,8.068,8.068,0,0,1-2.316-.637A1.781,1.781,0,0,0,107.774,131.316Z" fill="#4ab775"/>
          <g id="Grupo_71056" data-name="Grupo 71056">
            <path id="Trazado_105775" data-name="Trazado 105775" d="M121.8,126.161a3.139,3.139,0,0,0-.655-1.249,3.967,3.967,0,0,0-3.383-1.261,4.678,4.678,0,0,0-3.232,2.452c-.131.2-.265.4-.4.609a4.938,4.938,0,0,1-.629-2.344l-.068-27.606-1.866.227-.074,27.385a6.663,6.663,0,0,0,1.252,3.82,3.668,3.668,0,0,1-1.228.557c-1.205.293-2.734.033-3.631.694a1.336,1.336,0,0,0-.418.5,4.153,4.153,0,0,0-1.971,1.984,3.722,3.722,0,0,0,.522,3.789l.017-.009,1.6-1.078a2,2,0,0,1-.278-2.017,2.059,2.059,0,0,1,.646-.8,4.481,4.481,0,0,0,.589.5,9.846,9.846,0,0,0,8.569.885,6.97,6.97,0,0,0,4.744-5.43A4.058,4.058,0,0,0,121.8,126.161Z" fill="#f9b659"/>
            <path id="Trazado_105776" data-name="Trazado 105776" d="M121.9,127.768a6.972,6.972,0,0,1-4.744,5.43,9.846,9.846,0,0,1-8.569-.885,4.481,4.481,0,0,1-.589-.5,2.059,2.059,0,0,0-.646.8,2,2,0,0,0,.278,2.017l-1.6,1.078a3.509,3.509,0,0,1,.418-3.257,2.492,2.492,0,0,1,1.5-.995,5.1,5.1,0,0,1,2.342.4,9.5,9.5,0,0,0,6.03-.254,8.458,8.458,0,0,0,4.376-3.8,6.206,6.206,0,0,1,.846-1.4,2.127,2.127,0,0,1,.261-.239A4.058,4.058,0,0,1,121.9,127.768Z" fill="#1d1d1b" opacity="0.1"/>
          </g>
          <g id="Grupo_71057" data-name="Grupo 71057">
            <path id="Trazado_105777" data-name="Trazado 105777" d="M125.133,139.91a1.415,1.415,0,0,1-.345.918,1.424,1.424,0,0,1,.345.919,1.454,1.454,0,0,1-.609,1.166.93.93,0,0,0-.017.092,1.385,1.385,0,0,1,.124.578,1.445,1.445,0,0,1-.452,1.041c-.01.036-.02.07-.03.107a1.4,1.4,0,0,1,.191.688,1.465,1.465,0,0,1-.743,1.258,1.408,1.408,0,0,1,.107.53,1.548,1.548,0,0,1-1.6,1.491c-.01,0-.02,0-.03,0a1.572,1.572,0,0,1-1.566,1.2,1.7,1.7,0,0,1-.79-.2,1.641,1.641,0,0,1-1.181.5,1.677,1.677,0,0,1-.853-.235,1.623,1.623,0,0,1-1.322.654,1.651,1.651,0,0,1-.873-.244V152.4a2.072,2.072,0,0,1-1.086,1.481c-.549.352-.115,2.218-.47,2.218-.107,0-.859.009-.963-.007-.141-.021-.107-2.011-.234-2.06a1.618,1.618,0,0,1-.914-1.448,1.147,1.147,0,0,1-.013-.184v-2.182a3.685,3.685,0,0,1,2.205-3.288,4.29,4.29,0,0,1,1.525-.394l3.738-.313a.965.965,0,0,0,.391-.116.809.809,0,0,0,.372-.416,22.16,22.16,0,0,0,.98-9.8c-.037.019-.07.037-.107.055a1.677,1.677,0,0,1-1.7,1.405,1.784,1.784,0,0,1-.867-.226,1.73,1.73,0,0,1-1.532.89,1.794,1.794,0,0,1-.83-.208,1.747,1.747,0,0,1-1.345.616,1.78,1.78,0,0,1-.927-.258,1.789,1.789,0,0,1-2.472-.067c-.027,0-.054,0-.081-.006a1.78,1.78,0,0,1-1.037.331,1.756,1.756,0,0,1-1.365-.64l-.114-.019a1.8,1.8,0,0,1-.916.251,1.737,1.737,0,0,1-1.479-.795c-.064-.019-.131-.034-.194-.052a16.213,16.213,0,0,0,.769,6.948.034.034,0,0,0,.007.018,13.959,13.959,0,0,0,.662,1.634A1.591,1.591,0,0,1,107,147.74a2.278,2.278,0,0,1,.75,1.245,2.163,2.163,0,0,1-.381,1.714.343.343,0,0,1-.278.138.373.373,0,0,1-.188-.052.29.29,0,0,1-.09-.425,1.584,1.584,0,0,0,.278-1.261,1.674,1.674,0,0,0-.72-1.041,2.021,2.021,0,0,1-1.151-.009,1.789,1.789,0,0,1-1.087-.906c-.05-.1-.1-.214-.144-.319a1.62,1.62,0,0,1-1.181-1.521,1.512,1.512,0,0,1,.2-.74,1.6,1.6,0,0,1-.987-1.451,1.539,1.539,0,0,1,.465-1.093,1.578,1.578,0,0,1-.8-1.356,1.552,1.552,0,0,1,.489-1.12,1.532,1.532,0,0,1,.17-2.381c.007-.056.02-.111.027-.166a1.353,1.353,0,0,1-.338-.89,1.445,1.445,0,0,1,.893-1.307c.067-.163.134-.328.215-.481a1.9,1.9,0,0,1,2.268-.881c7.013,2.228,11.025,1.757,15.9-1.861a1.979,1.979,0,0,1,1.824-.263,1.725,1.725,0,0,1,1.154,1.316c.027.146.044.29.067.437a1.449,1.449,0,0,1,.479,1.065,1.4,1.4,0,0,1-.231.76c0,.033.01.067.013.1a1.435,1.435,0,0,1,.512,1.089,1.411,1.411,0,0,1-.3.872,1.422,1.422,0,0,1,.013,2.1A1.4,1.4,0,0,1,125.133,139.91Z" fill="#c44645"/>
            <path id="Trazado_105778" data-name="Trazado 105778" d="M122.533,137.829c0,1.322-.144,2.641-.214,3.963-.08,1.516-.331,3.294-1.78,4.032l-.02.009a3.018,3.018,0,0,1-.85.269.809.809,0,0,0,.372-.416,22.16,22.16,0,0,0,.98-9.8c-.037.019-.07.037-.107.055a1.677,1.677,0,0,1-1.7,1.405,1.784,1.784,0,0,1-.867-.226,1.73,1.73,0,0,1-1.532.89,1.794,1.794,0,0,1-.83-.208,1.747,1.747,0,0,1-1.345.616,1.78,1.78,0,0,1-.927-.258,1.789,1.789,0,0,1-2.472-.067c-.027,0-.054,0-.081-.006a1.78,1.78,0,0,1-1.037.331,1.756,1.756,0,0,1-1.365-.64l-.114-.019a1.8,1.8,0,0,1-.916.251,1.737,1.737,0,0,1-1.479-.795c-.064-.019-.131-.034-.194-.052a16.213,16.213,0,0,0,.769,6.948.034.034,0,0,0,.007.018,13.959,13.959,0,0,0,.662,1.634A1.591,1.591,0,0,1,107,147.74a2.278,2.278,0,0,1,.75,1.245,2.163,2.163,0,0,1-.381,1.714.343.343,0,0,1-.278.138.373.373,0,0,1-.188-.052.29.29,0,0,1-.09-.425,1.584,1.584,0,0,0,.278-1.261,1.674,1.674,0,0,0-.72-1.041,2.021,2.021,0,0,1-1.151-.009,1.89,1.89,0,0,0,1.429-1.417c.241-1.237-.622-1.947-1.171-4.028a18,18,0,0,1-.669-4.031,3.437,3.437,0,0,1,.512-2.167c.445-.466.983-.313,1.579-.062a8.927,8.927,0,0,0,1.144.444,15.347,15.347,0,0,0,9.871-.459c.535-.214,2.078-1.056,2.867-1.31a1.571,1.571,0,0,1,.255-.067C121.687,134.848,122.533,135.178,122.533,137.829Z" fill="#1d1d1b" opacity="0.1"/>
            <path id="Trazado_105779" data-name="Trazado 105779" d="M123.7,147.207a1.548,1.548,0,0,1-1.6,1.491c-.01,0-.02,0-.03,0a1.572,1.572,0,0,1-1.566,1.2,1.7,1.7,0,0,1-.79-.2,1.641,1.641,0,0,1-1.181.5,1.677,1.677,0,0,1-.853-.235,1.623,1.623,0,0,1-1.322.654,1.651,1.651,0,0,1-.873-.244V152.4a2.072,2.072,0,0,1-1.086,1.481c-.549.352-.115,2.218-.47,2.218-.107,0-.859.009-.963-.007-.141-.021-.107-2.011-.234-2.06a1.618,1.618,0,0,1-.914-1.448,4.678,4.678,0,0,1,.793.238,1.782,1.782,0,0,0,1.221.1,1.394,1.394,0,0,0,.72-1.368,3.125,3.125,0,0,1,.194-1.579c.468-.8,1.666-.885,2.66-.986a11.971,11.971,0,0,0,4.8-1.536,13.409,13.409,0,0,1,1.385-.772A1.408,1.408,0,0,1,123.7,147.207Z" fill="#1d1d1b" opacity="0.1"/>
          </g>
          <path id="Trazado_105780" data-name="Trazado 105780" d="M121.094,143.256a2.448,2.448,0,0,1-.194.229,2.89,2.89,0,0,1,.128.37,2.007,2.007,0,0,1-.047,1.332,1.556,1.556,0,0,1-.733.759h0a1.4,1.4,0,0,1-.569.15l-.007.006a.965.965,0,0,1-.391.116l-2.627.221-1.111.092-.04,0h0c-.151.012-.3.033-.442.058-.11.021-.217.046-.324.073a4.321,4.321,0,0,0-.716.26,2.4,2.4,0,0,1-.556-.2c-.04-.019-.077-.037-.114-.059a3.275,3.275,0,0,1-.719.334h0a3.679,3.679,0,0,1-2.142.049,6.731,6.731,0,0,1-1.726-.882c-.148-.094-.295-.189-.439-.287-.164-.114-.327-.23-.478-.355a3.531,3.531,0,0,1-.351-.319,1.552,1.552,0,0,1-.231-.174,2.442,2.442,0,0,1-.576-.845,3.116,3.116,0,0,1-.214-.958c-.007-.128-.01-.26-.007-.389-.01-.045-.023-.094-.033-.143l-.1-.444a1.3,1.3,0,0,1-.221-.3l0-.006a1.939,1.939,0,0,1-.244-.732c-.007-.052-.013-.107-.017-.159a5.974,5.974,0,0,1,.131-1.4c0-.046-.007-.1-.007-.141-.01-.147-.013-.29-.02-.431-.027-.064-.06-.126-.09-.187a1.9,1.9,0,0,1-.188-.955,1.087,1.087,0,0,1,.014-.153.778.778,0,0,1,.371-.618l0-.012.013,0,.01-.006.007.012c.053.012.11.027.164.043a1.737,1.737,0,0,0,1.479.795h.056a1.657,1.657,0,0,0,.482-.085,1.62,1.62,0,0,0,.378-.166l.114.019a1.756,1.756,0,0,0,1.365.64,1.78,1.78,0,0,0,1.037-.331c.027,0,.054,0,.081.006a1.508,1.508,0,0,0,.167.15,1.77,1.77,0,0,0,1.1.38,1.78,1.78,0,0,0,1.2-.463,1.78,1.78,0,0,0,.927.258,1.1,1.1,0,0,0,.181-.013h0a1.715,1.715,0,0,0,1.161-.6,1.973,1.973,0,0,0,.318.132,1.767,1.767,0,0,0,.512.076,1.73,1.73,0,0,0,1.532-.89,1.784,1.784,0,0,0,.867.226,1.756,1.756,0,0,0,.539-.082,1.735,1.735,0,0,0,.505-.248,1.6,1.6,0,0,0,.656-1.075c.037-.018.07-.036.107-.055.02.2.027.392.043.588a2.481,2.481,0,0,0-.043-.588,4.585,4.585,0,0,1,.408,4.068,1.862,1.862,0,0,0-.117.367.5.5,0,0,0-.013.08,1.852,1.852,0,0,0,.17.685v0A2.385,2.385,0,0,1,121.094,143.256Z" fill="#f9b659"/>
          <g id="Grupo_71058" data-name="Grupo 71058">
            <path id="Trazado_105781" data-name="Trazado 105781" d="M109.009,139.206a4.77,4.77,0,0,0,1.348.034c.1-.009.208-.015.312-.022a3.887,3.887,0,0,1,1.652.2,1.6,1.6,0,0,1,1.014,1.017,2.51,2.51,0,0,1,.05.339,1.742,1.742,0,0,0,.158.667.945.945,0,0,0,.729.463h.06a.606.606,0,0,0,.5-.23.684.684,0,0,0,.12-.5,2.7,2.7,0,0,0-.257-.832c-.04-.086-.077-.175-.111-.264a1,1,0,0,1-.03-.872,1.7,1.7,0,0,1,.77-.514,1.753,1.753,0,0,0,.98-.753,1.973,1.973,0,0,1-.318-.132,1.715,1.715,0,0,1-1.161.6h0a1.635,1.635,0,0,0-.706.576,1.387,1.387,0,0,0-.007,1.246c.037.094.077.186.117.281a2.24,2.24,0,0,1,.224.7.275.275,0,0,1-.03.2c-.006.012-.026.04-.1.033a.43.43,0,0,1-.322-.2,1.493,1.493,0,0,1-.11-.509,2.824,2.824,0,0,0-.057-.4,2.051,2.051,0,0,0-1.308-1.337,3.588,3.588,0,0,0-1.128-.233l.506-.217a.116.116,0,0,0,.026-.015,1.751,1.751,0,0,1-.515-.282l-1.171.5a.22.22,0,0,0-.067.043,3.58,3.58,0,0,1-1.044-.031c-.408-.092-.826-.379-.843-.759a.194.194,0,0,0-.017-.073,1.657,1.657,0,0,1-.482.085v.007C107.808,138.652,108.437,139.078,109.009,139.206Z" fill="#1d1d1b" opacity="0.2"/>
            <path id="Trazado_105782" data-name="Trazado 105782" d="M121.3,140.4a.5.5,0,0,1,.013-.08.91.91,0,0,0-.191-.1,2.159,2.159,0,0,0-.719-.113l-.415-.018a3.013,3.013,0,0,0-.164-.368v-.013a5.314,5.314,0,0,0,.548-.452s.008,0,.012,0a1.335,1.335,0,0,1,.553.09.264.264,0,0,0,.1.019.254.254,0,0,0,.231-.139.223.223,0,0,0-.131-.3,1.839,1.839,0,0,0-.388-.1,1.578,1.578,0,0,0,.306-.868.241.241,0,0,0-.246-.234h0a.241.241,0,0,0-.251.225,1.981,1.981,0,0,1-.969,1.353,4.2,4.2,0,0,0-.258-.358,2.365,2.365,0,0,0,.934-1.922,1.735,1.735,0,0,1-.505.248,1.991,1.991,0,0,1-.847,1.395l0,0a1.134,1.134,0,0,1-.1.071,1.324,1.324,0,0,1-.151.089,3.674,3.674,0,0,1-2.024.428c-.181-.006-.669-.031-.836.318a.6.6,0,0,0-.011.444c.061.224.144.45.225.667a6.53,6.53,0,0,1,.249.775c0,.016.052.379.052.379a2.179,2.179,0,0,1-.087.521,1.568,1.568,0,0,1-1.178.841,3.435,3.435,0,0,1-1.653-.143,2.094,2.094,0,0,1-.652-.3.737.737,0,0,1-.2-.215l-.041-.073a1.916,1.916,0,0,1-.087-.824,1.418,1.418,0,0,0-.424-1.319,1.959,1.959,0,0,0-1.523-.143l-.04.006a5.5,5.5,0,0,1-2.918-.2,2.751,2.751,0,0,1-1.773-1.919.223.223,0,0,0-.064-.123,1.9,1.9,0,0,0,.188.955c.03.061.063.123.09.187.007.141.01.284.02.431a3.658,3.658,0,0,0,1.339.891c.06.024.12.046.183.067a1.449,1.449,0,0,0-.13.884.245.245,0,0,0,.247.193.269.269,0,0,0,.04,0,.233.233,0,0,0,.208-.263,1.029,1.029,0,0,1,.123-.676,6.583,6.583,0,0,0,2.537.022l.044-.007a1.564,1.564,0,0,1,1.114.049.517.517,0,0,1,.174.233,3.481,3.481,0,0,0-1.954.474l-.248.126a4.075,4.075,0,0,1-1.619.572,3.518,3.518,0,0,1-2.165-.866,1.939,1.939,0,0,0,.244.732l0,.006a3.506,3.506,0,0,0,1.817.59c.043,0,.087,0,.13,0a4.474,4.474,0,0,0,1.834-.63l.241-.123c-.061.209-.141.414-.225.625s-.17.435-.237.658l-.01.04a1.975,1.975,0,0,0-1.208.281h0a.253.253,0,0,0-.1.022,1.114,1.114,0,0,1-.87-.123c-.134-.07-.264-.15-.4-.238a4.2,4.2,0,0,0-.589-.337.23.23,0,0,0-.057-.015c.01.049.023.1.033.143,0,.129,0,.261.007.389.107.058.211.126.318.2.137.089.281.181.438.263a2.087,2.087,0,0,0,.69.221c-.243.367-.366.531-.259.954a6.344,6.344,0,0,0-.933-.657l-.04-.019a2.442,2.442,0,0,0,.576.845,1.552,1.552,0,0,0,.231.174,3.531,3.531,0,0,0,.351.319c.151.125.314.241.478.355.144.1.291.193.439.287a6.731,6.731,0,0,0,1.726.882,3.679,3.679,0,0,0,2.142-.049h0a3.275,3.275,0,0,0,.719-.334c.037.022.074.04.114.059a2.4,2.4,0,0,0,.556.2,4.321,4.321,0,0,1,.716-.26,4.44,4.44,0,0,1,.766-.131,2.126,2.126,0,0,1-1.148-.974.267.267,0,0,0-.338-.1.224.224,0,0,0-.114.309,2.493,2.493,0,0,0,.655.766,1.572,1.572,0,0,1-.461.046c-.123-.019-.237-.074-.358-.1a.8.8,0,0,0-.195-.011,1.774,1.774,0,0,0-.176-1.272c.07-.043.141-.086.207-.131a1.853,1.853,0,0,0,.466-.447,2.392,2.392,0,0,0,.23-.45c.027-.065.054-.129.084-.19a1.62,1.62,0,0,0,.365,1.129,4.215,4.215,0,0,0,1.335,1.013c.194.111.395.221.6.316l2.627-.221a.965.965,0,0,0,.391-.116l.007-.006a1.4,1.4,0,0,0,.569-.15h0c.023-.031.043-.064.064-.1a1,1,0,0,0,.08-.643,3.031,3.031,0,0,0-1.784-2.139.37.37,0,0,0,.024-.049,2.046,2.046,0,0,0,.1-.646v-.046a2.663,2.663,0,0,1,2.061,1.4.255.255,0,0,0,.231.134,2.89,2.89,0,0,0-.128-.37,2.448,2.448,0,0,0,.194-.229,2.914,2.914,0,0,0-.866-.861.41.41,0,0,0,.017-.067,4.272,4.272,0,0,0-.1-1.769l.238.009a1.643,1.643,0,0,1,.538.077.353.353,0,0,1,.238.241.243.243,0,0,0,.248.212.054.054,0,0,0,.023,0,.14.14,0,0,0,.04-.007A1.852,1.852,0,0,1,121.3,140.4Zm-10.278,6.367a6.3,6.3,0,0,1-2.748-1.474,1.613,1.613,0,0,1-.09-.241,1.18,1.18,0,0,1,.4-1.178,1.416,1.416,0,0,1,.983-.309,1.671,1.671,0,0,0,.452,1.451,1.587,1.587,0,0,0,.448.3,3.989,3.989,0,0,1-.89.2.232.232,0,0,0-.22.254.241.241,0,0,0,.247.2h.03a4.776,4.776,0,0,0,1.523-.422,3.123,3.123,0,0,0,.632.064,3.206,3.206,0,0,0,1.128-.2,1.037,1.037,0,0,1-.043,1.037A3.533,3.533,0,0,1,111.021,146.77Zm2.776-2.765a2.07,2.07,0,0,1-.184.371,1.5,1.5,0,0,1-.348.327,2.658,2.658,0,0,1-1.884.41,1.725,1.725,0,0,1-.284-.058,2.161,2.161,0,0,1-.251-.079,1.521,1.521,0,0,1-.472-.279,1.237,1.237,0,0,1-.311-1.071,2.3,2.3,0,0,1,.077-.4c0-.015.007-.028.01-.04.06-.205.141-.407.224-.621a5.442,5.442,0,0,0,.325-1.035,2.183,2.183,0,0,1,1.188-.153.09.09,0,0,0,.023.031c0,.07,0,.144,0,.22a2.023,2.023,0,0,0,.174,1.1,4.116,4.116,0,0,0-.924,1.145.222.222,0,0,0,.114.309.286.286,0,0,0,.11.021.251.251,0,0,0,.224-.125,3.7,3.7,0,0,1,.787-.992,2.456,2.456,0,0,0,.846.4,5.1,5.1,0,0,0,.73.166A2.481,2.481,0,0,0,113.8,144.005Zm6.1,1.261a.584.584,0,0,1-.033.38,1.026,1.026,0,0,1-.562.346,3.755,3.755,0,0,1-1.362.321,3.578,3.578,0,0,1-1.623-.578,3.877,3.877,0,0,1-1.191-.891,1.078,1.078,0,0,1-.171-1.166c.067-.009.134-.018.2-.031a2.073,2.073,0,0,0,1.546-1.126,1.638,1.638,0,0,0,.123-.657,5.017,5.017,0,0,1,.883.061.219.219,0,0,0,.044,0,.246.246,0,0,0,.247-.19.233.233,0,0,0-.2-.266,5.517,5.517,0,0,0-1.027-.067,6.431,6.431,0,0,0-.277-.872c-.081-.22-.157-.425-.214-.63-.027-.1-.024-.135-.017-.147s.047-.061.351-.046c.074,0,.151.006.224.006h0a.134.134,0,0,0,.037.022,2.083,2.083,0,0,1,1.094,1.074,3.4,3.4,0,0,1,.271,1.546,1.647,1.647,0,0,1-.077.508,2.007,2.007,0,0,1-.325.5l-.14.18-.211.273-.5.64a.215.215,0,0,0,.057.321.253.253,0,0,0,.144.043.271.271,0,0,0,.208-.1l.287-.37a1.77,1.77,0,0,0,.81.716.29.29,0,0,0,.11.021.251.251,0,0,0,.225-.128.219.219,0,0,0-.118-.306,1.273,1.273,0,0,1-.685-.747l.22-.282c.041-.052.084-.107.128-.165A2.553,2.553,0,0,1,119.893,145.266Zm-.13-3.128a3.265,3.265,0,0,0-1.037-.278,3.391,3.391,0,0,0-.3-1.228,2.632,2.632,0,0,0-.779-.979,3.776,3.776,0,0,0,1.275-.438,4.1,4.1,0,0,1,.364.545l0,.009.009.019c0,.009,0,.02.007.03a.386.386,0,0,0,.037.053l.007.012A3.963,3.963,0,0,1,119.763,142.138Z" fill="#1d1d1b" opacity="0.2"/>
          </g>
        </g>
        <path id="Trazado_105783" data-name="Trazado 105783" d="M110.014,91.781c.058.271.322.44.562.578l1.351.779,1.274.734c.107.061.246.122.346.049s.086-.219.06-.338a4.067,4.067,0,0,0-.945-1.994,2.045,2.045,0,0,0-2.03-.611C110.279,91.092,109.936,91.419,110.014,91.781Z" fill="#4ab775"/>
        <path id="Trazado_105784" data-name="Trazado 105784" d="M108.219,96.334a.2.2,0,0,0,.158.156.778.778,0,0,0,.236,0,1.5,1.5,0,0,1,1.3.6c.142.195.3.459.54.422.2-.031.3-.266.307-.468a1.345,1.345,0,0,0-.9-1.285,1.523,1.523,0,0,0-1.545.384A.255.255,0,0,0,108.219,96.334Z" fill="#4ab775"/>
        <path id="Trazado_105785" data-name="Trazado 105785" d="M109.557,94.238l-.345-.114a1.6,1.6,0,0,1,1.1-1.037,2.958,2.958,0,0,1,.534-.075l.176-.015a1.2,1.2,0,0,0,.564-.168.422.422,0,0,0,.2-.4l.356-.075a.782.782,0,0,1-.348.775,1.549,1.549,0,0,1-.736.231l-.184.016a2.654,2.654,0,0,0-.469.063A1.256,1.256,0,0,0,109.557,94.238Z" fill="#4ab775"/>
        <path id="Trazado_105786" data-name="Trazado 105786" d="M110.273,97.115l-.189-.31a.749.749,0,0,0,.315-.813,1.644,1.644,0,0,0-.228-.43c-.053-.08-.1-.16-.151-.242a.9.9,0,0,1-.037-.966l.3.211a.58.58,0,0,0,.057.577c.042.076.09.148.137.22a1.924,1.924,0,0,1,.275.529A1.115,1.115,0,0,1,110.273,97.115Z" fill="#4ab775"/>
        <path id="Trazado_105787" data-name="Trazado 105787" d="M113.428,96.3v3.273h-1.866V96.408a.983.983,0,0,0-.982-.985l-5.347.1-.111-.8-.049-.356c-.007-.465-.017-.887-.017-1.251l5.556.366A2.818,2.818,0,0,1,113.428,96.3Z" fill="#f9b659"/>
      </g>
      <rect id="Rectángulo_8848" data-name="Rectángulo 8848" width="16.431" height="1" transform="translate(84.5 79)" fill="#614f49"/>
      <rect id="Rectángulo_8849" data-name="Rectángulo 8849" width="16.431" height="1" transform="translate(128.395 79)" fill="#614f49"/>
      <rect id="Rectángulo_8850" data-name="Rectángulo 8850" width="16.431" height="1" transform="translate(128.395 82)" fill="#614f49"/>
      <rect id="Rectángulo_8851" data-name="Rectángulo 8851" width="10.783" height="1" transform="translate(134.043 85)" fill="#614f49"/>
      <rect id="Rectángulo_8852" data-name="Rectángulo 8852" width="16.431" height="1" transform="translate(84.5 82)" fill="#614f49"/>
      <rect id="Rectángulo_8853" data-name="Rectángulo 8853" width="10.746" height="1" transform="translate(84.5 85)" fill="#614f49"/>
      <rect id="Rectángulo_8854" data-name="Rectángulo 8854" width="14.265" height="1" transform="translate(84.5 88)" fill="#614f49"/>
      <rect id="Rectángulo_8855" data-name="Rectángulo 8855" width="14.265" height="1" transform="translate(84.5 91)" fill="#614f49"/>
    </g>
    <g id="Grupo_71065" data-name="Grupo 71065">
      <g id="Grupo_71062" data-name="Grupo 71062">
        <rect id="Rectángulo_8856" data-name="Rectángulo 8856" width="2.459" height="6.795" transform="translate(216.551 325.188)" fill="#575756"/>
        <path id="Trazado_105788" data-name="Trazado 105788" d="M224.5,335.137a4.7,4.7,0,1,1-4.689-4.974A4.838,4.838,0,0,1,224.5,335.137Z" fill="#1f1f1e"/>
      </g>
      <g id="Grupo_71063" data-name="Grupo 71063">
        <rect id="Rectángulo_8857" data-name="Rectángulo 8857" width="2.459" height="6.795" transform="translate(250.206 325.188)" fill="#575756"/>
        <path id="Trazado_105789" data-name="Trazado 105789" d="M258.155,335.137a4.7,4.7,0,1,1-4.69-4.974A4.839,4.839,0,0,1,258.155,335.137Z" fill="#1f1f1e"/>
      </g>
      <g id="Grupo_71064" data-name="Grupo 71064">
        <rect id="Rectángulo_8858" data-name="Rectángulo 8858" width="2.459" height="6.795" transform="translate(284.481 325.188)" fill="#575756"/>
        <path id="Trazado_105790" data-name="Trazado 105790" d="M278.991,335.137a4.7,4.7,0,1,0,4.689-4.974A4.838,4.838,0,0,0,278.991,335.137Z" fill="#1f1f1e"/>
      </g>
      <rect id="Rectángulo_8859" data-name="Rectángulo 8859" width="8.45" height="23.03" transform="translate(247.66 279.33)" fill="#ededed"/>
      <rect id="Rectángulo_8860" data-name="Rectángulo 8860" width="12.53" height="23.03" transform="translate(245.62 298.38)" fill="#3c3c3b"/>
      <path id="Trazado_105791" data-name="Trazado 105791" d="M214.839,327.642h74.042v-4.587l-37.107-4.587-36.935,4.587Z" fill="#3c3c3b"/>
    </g>
    <g id="Grupo_71069" data-name="Grupo 71069">
      <path id="Trazado_105792" data-name="Trazado 105792" d="M280.16,313.29c.01,3.07-.03,5.97-.13,8.67-.05,1.33-.12,2.61-.21,3.83-.04.63-.09,1.25-.14,1.85-.13,1.43-.29,2.76-.48,4.01-.12.85-.26,1.66-.41,2.42a26.861,26.861,0,0,1-.87,3.24v.8H260.11l-.41-10.47-.33-8.23-.63-15.93-.32-8.11-.54-13.78-1.1-27.55H277.9c.25,9.15.72,18.51,1.15,27.55.02.34.04.68.06,1.03q.21,4.32.4,8.51c.06,1.43.12,2.84.18,4.24.04.92.07,1.83.11,2.73.01.46.03.92.05,1.38,0,.05.01.1.01.15.01.62.04,1.25.06,1.86.02.67.04,1.33.06,1.99.02.59.04,1.17.05,1.75.02.7.03,1.39.05,2.07.01.15.01.29.01.43C280.12,309.63,280.15,311.49,280.16,313.29Z" fill="#5e4a4c"/>
      <g id="Grupo_71066" data-name="Grupo 71066">
        <path id="Trazado_105793" data-name="Trazado 105793" d="M269.238,330.846c4.915,0,8.88.543,8.672,7.257H260.117C260.335,331.08,264.323,330.846,269.238,330.846Z" fill="#6b6a58"/>
        <path id="Trazado_105794" data-name="Trazado 105794" d="M260.055,340.112h17.792l.086-2.781H260.141Z" fill="#16191e"/>
      </g>
      <path id="Trazado_105795" data-name="Trazado 105795" d="M246.7,254.04l-1.32,27.55-.66,13.78-.39,8.11-.47,9.87-.29,6.14-.4,8.15-.5,10.46v.01H224.88v-.8s-.01-.02,0-.02c-.14-.65-.27-1.35-.38-2.11v-.01c-.08-.48-.15-.97-.21-1.5v-.01c-.22-1.78-.38-3.8-.49-6.02-.04-.81-.08-1.66-.11-2.53-.04-1.01-.06-2.06-.08-3.15-.01-.42-.01-.85-.02-1.28-.02-1.3-.03-2.65-.03-4.04q0-2.19.03-4.5v-.47c.01-.58.02-1.17.03-1.76.02-1.18.04-2.39.07-3.62.02-.93.05-1.86.07-2.81.04-1.68.09-3.39.14-5.13.04-.98.07-1.98.1-2.98.01-.19.02-.39.02-.59.04-1.23.09-2.46.14-3.71.02-.73.05-1.46.08-2.19s.05-1.46.08-2.2c.07-1.69.14-3.38.21-5.09.38-9.06.78-18.42,1.06-27.55Z" fill="#5e4a4c"/>
      <g id="Grupo_71067" data-name="Grupo 71067">
        <path id="Trazado_105796" data-name="Trazado 105796" d="M233.607,330.846c-4.916,0-8.884.543-8.733,7.257h17.793C242.508,331.08,238.522,330.846,233.607,330.846Z" fill="#6b6a58"/>
        <path id="Trazado_105797" data-name="Trazado 105797" d="M242.712,340.112H224.919l-.063-2.781h17.793Z" fill="#16191e"/>
      </g>
      <g id="Grupo_71068" data-name="Grupo 71068">
        <path id="Trazado_105798" data-name="Trazado 105798" d="M280.03,321.96c-.05,1.33-.12,2.61-.21,3.83-.04.63-.09,1.25-.14,1.85-.13,1.43-.29,2.76-.48,4.01-.09-1.33-.18-2.67-.24-4.01q-.15-2.91-.19-5.84c-.01-.41-.02-.83-.02-1.24l-1.56,1.05c-.55.37-1.09.74-1.64,1.11a11.152,11.152,0,0,0,.99-1.19,12.426,12.426,0,0,0,2.4-5.82,14.211,14.211,0,0,1-5.73,2.73c2.16-1.85,3.6-2.73,5.07-5.14a52.092,52.092,0,0,0,.29-9.82c-.07-1.8-.14-3.55-.07-5.33.04-.93.07-1.85.11-2.78.17-4.25.34-8.51.5-12.75q.21,4.32.4,8.51c.06,1.43.12,2.84.18,4.24.04.92.07,1.83.11,2.73.01.46.03.92.05,1.38,0,.05.01.1.01.15.01.62.04,1.25.06,1.86.02.67.04,1.33.06,1.99.02.59.04,1.17.05,1.75.02.7.03,1.39.05,2.07.01.15.01.29.01.43.04,1.91.07,3.76.07,5.56C280.18,316.36,280.14,319.26,280.03,321.96Z" opacity="0.15"/>
        <path id="Trazado_105799" data-name="Trazado 105799" d="M233.79,305.28a7.879,7.879,0,0,1-4.51-1.8,14.608,14.608,0,0,1-3.6-4.79c-.15,1.57-.3,3.17-.44,4.79-.52,6-.96,12.28-1.35,18.45-.07,1.06-.14,2.12-.2,3.18-.04-1.01-.06-2.06-.08-3.15-.01-.42-.01-.85-.02-1.28-.02-1.3-.03-2.65-.03-4.04q0-2.19.03-4.5v-.47c.01-.58.02-1.16.03-1.76.02-1.18.04-2.39.07-3.62.02-.92.04-1.86.07-2.81.04-1.68.09-3.39.14-5.13.04-.98.07-1.98.1-2.98.01-.19.02-.39.02-.59.05-1.22.09-2.46.14-3.71.02-.73.05-1.46.08-2.19s.05-1.46.08-2.2a51.62,51.62,0,0,0,2.39,8.69,23.961,23.961,0,0,0,4.76,8.11A10.749,10.749,0,0,0,233.79,305.28Z" opacity="0.15"/>
        <path id="Trazado_105800" data-name="Trazado 105800" d="M246.7,254.04l-1.32,27.55-.66,13.78-.39,8.11-.47,9.87-.29,6.14-.4,8.15-.5,10.46v.01h-11.2l-.08-.01-6.5-.77h-.01v-.02l.01-.01,1.75-1.14a29.692,29.692,0,0,0,6.02-5.3,28,28,0,0,0,2.43-3.22,29.216,29.216,0,0,0,3.54-7.54,29.673,29.673,0,0,0,1.29-6.93l.77-9.69.65-8.11,1.1-13.78H224.53c.38-9.06.78-18.42,1.06-27.55Z" opacity="0.15"/>
        <path id="Trazado_105801" data-name="Trazado 105801" d="M277.91,337.31h.01v.02h-.04l-6.49.77-.08.01h-11.2l-.41-10.47-.33-8.23-.63-15.93-.32-8.11-.54-13.78-1.1-27.55H277.9c.25,9.15.72,18.51,1.15,27.55H260.83l.98,13.78.57,8.11.69,9.69a29.347,29.347,0,0,0,1.2,6.84,29.051,29.051,0,0,0,3.51,7.63,27.83,27.83,0,0,0,2.41,3.22,29.255,29.255,0,0,0,5.99,5.3l1.7,1.14Z" opacity="0.15"/>
      </g>
    </g>
    <g id="Grupo_71079" data-name="Grupo 71079">
      <g id="Grupo_71076" data-name="Grupo 71076">
        <path id="Trazado_105802" data-name="Trazado 105802" d="M257.016,207.548l-.767,1.834a1.317,1.317,0,0,1-1.215.809h-26.79a1.317,1.317,0,0,1-1.215-.809l-.767-1.834a1.317,1.317,0,0,0-1.214-.808h-2.324v9.107h37.83V206.74h-2.323A1.318,1.318,0,0,0,257.016,207.548Z" fill="#575756"/>
        <path id="Trazado_105803" data-name="Trazado 105803" d="M257.016,198.441l-.767,1.834a1.316,1.316,0,0,1-1.215.808h-26.79a1.316,1.316,0,0,1-1.215-.808l-.767-1.834a1.317,1.317,0,0,0-1.214-.809h-2.324v9.108h37.83v-9.108h-2.323A1.317,1.317,0,0,0,257.016,198.441Z" fill="#575756"/>
        <path id="Trazado_105804" data-name="Trazado 105804" d="M257.016,189.333l-.767,1.834a1.317,1.317,0,0,1-1.215.809h-26.79a1.317,1.317,0,0,1-1.215-.809l-.767-1.834a1.317,1.317,0,0,0-1.214-.809h-2.324v9.108h37.83v-9.108h-2.323A1.317,1.317,0,0,0,257.016,189.333Z" fill="#575756"/>
        <path id="Trazado_105805" data-name="Trazado 105805" d="M226.755,202.5c.866,9.026-.79,21.879.076,29.872v.03h47.208v-.03c.015-.061.015-.168.03-.32a57.448,57.448,0,0,0,.228-6.259c-.015-3.358-.2-7.02-.319-10.667a98.648,98.648,0,0,1,.182-13.021,29.728,29.728,0,0,1,.532-3.373c1.064-4.8,1.489-10.924,2.887-21.986-.015,0-.03-.015-.046-.015-5.941-2.477-13.72-5.849-15.011-7.08-2.507.972-9.5,1.246-12.08,1.534h-.015c-.4-.045-.9-.091-1.474-.136-3.145-.259-8.478-.578-10.6-1.4-1.292,1.231-9.116,4.619-15.057,7.1,1.4,11.062,1.823,17.185,2.887,21.986A32.4,32.4,0,0,1,226.755,202.5Z" fill="#4ab775"/>
        <path id="Trazado_105806" data-name="Trazado 105806" d="M273.9,215.124l-3.115,17.246v.03h14.632v-.03l1.368-20.634c-1.641-10.681-4.939-22.517-9.208-35.022l-.046.015L264.71,180.1l6.366,24.235Z" fill="#ededed"/>
        <path id="Trazado_105807" data-name="Trazado 105807" d="M248.953,232.37h36.466l7.232-24.205c-1.641-10.681-6.443-22.71-15.072-31.451l-.046.015c-5.941-2.477-13.72-5.849-15.011-7.08-2.507.972-13.576,37.78-13.576,37.78C248.471,214.361,248.953,232.37,248.953,232.37Z" fill="#fff"/>
        <path id="Trazado_105808" data-name="Trazado 105808" d="M249.769,232.37H215.432L207.455,211.7c1.641-10.681,9.536-23.675,15.817-34.987l.046.015c5.941-2.477,13.72-5.849,15.012-7.08,2.507.972,11.78,37.78,11.78,37.78C250.584,214.361,249.769,232.37,249.769,232.37Z" fill="#fff"/>
        <path id="Trazado_105809" data-name="Trazado 105809" d="M242.176,163.551l.065,2.2v.013l.077,2.665.026,1.055.232,8.29,5.238.1,2.524.051.218.013h.013l2.755.052,5.1.1.155-8.6.025-1.2v-.013l.039-2.677s.013,0,0-.013l.051-2.51Z" fill="#f2c194"/>
        <g id="Grupo_71070" data-name="Grupo 71070">
          <path id="Trazado_105810" data-name="Trazado 105810" d="M250.556,132.3c-7.394-.03-13.291,4.835-12.742,13.6a23.049,23.049,0,0,0,.378,3.011c-1.646-.932-3.087.7-2.509,3.188.408,1.757,1.264,4.116,2.238,4.471,1.167.426,1.522-.3,1.59-.324.521,2.533.731,4.794,1.634,6.138a42.545,42.545,0,0,0,2.659,3.686c1.738,2.042,3.182,2.548,6.5,2.569h.038c3.32.021,4.769-.467,6.534-2.486a42.683,42.683,0,0,0,2.7-3.653c.92-1.331,1.159-3.59,1.713-6.116.067.023.413.755,1.585.344.979-.342,1.864-2.691,2.295-4.442.61-2.485-.811-4.131-2.469-3.22a22.89,22.89,0,0,0,.417-3.005C263.783,137.3,257.949,132.362,250.556,132.3Z" fill="#ffcfa1"/>
          <path id="Trazado_105811" data-name="Trazado 105811" d="M239.9,134.84c-2.841,3.309-3.734,6.992-2.625,13.8,1.112.626,1.7,1.454,2.123,4.837.806.228,1.156.281,1.891.532-4.417-18.043,2.572-18.359,4.491-18.732a48.129,48.129,0,0,1,9.5.06c1.914.4,8.9.8,4.252,18.788.738-.242,1.088-.29,1.9-.507.467-3.378,1.064-4.2,2.184-4.81,1.195-6.795-.012-10.218-2.449-13.835C257.79,129.954,244.982,128.925,239.9,134.84Z" fill="#3c3c3b"/>
          <path id="Trazado_105812" data-name="Trazado 105812" d="M254.965,132.329a5.485,5.485,0,0,1,2.594.813c1.139.624,4.05,4.843,3.442,5.837-2.464,4.026-10.1,5.176-15.485,5.327a4.993,4.993,0,0,0,1.8-2.223,14.321,14.321,0,0,1-9.33.748c.962-2.635,1.991-5.373,4.04-7.289a12.053,12.053,0,0,1,6.117-2.842A36.015,36.015,0,0,1,254.965,132.329Z" fill="#3c3c3b"/>
        </g>
        <path id="Trazado_105813" data-name="Trazado 105813" d="M258.394,182.833a25.556,25.556,0,0,0,4.962-12.751l-4.742-2.639a16.025,16.025,0,0,1-8.178,10.421Z" fill="#61da91"/>
        <path id="Trazado_105814" data-name="Trazado 105814" d="M242.478,182.833a25.567,25.567,0,0,1-4.963-12.751l4.743-2.639a16.022,16.022,0,0,0,8.178,10.421Z" fill="#61da91"/>
        <path id="Trazado_105815" data-name="Trazado 105815" d="M248.953,207.421c.213-.289.411-.577.623-.866.183-.243.35-.471.532-.714,6.959-9.557,16.41-22.2,16.41-22.2s-5.318-2.765-4.938-3.175l5.834.2-1.079-8.858L261,168.631c-3.874,12.808-7.734,23.672-11.152,35.6-.183.623-.365,1.261-.532,1.9C249.2,206.555,249.075,206.98,248.953,207.421Z" fill="#ededed"/>
        <path id="Trazado_105816" data-name="Trazado 105816" d="M234.352,183.642s8.585,11.973,14.966,22.488c.091.136.182.288.258.425.183-.243.35-.471.532-.714-.076-.547-.167-1.079-.258-1.611-2.188-12.991-6.123-22.852-9.983-35.6l-5.333,3.175-1.079,8.858,5.835-.2C239.67,180.877,234.352,183.642,234.352,183.642Z" fill="#ededed"/>
        <path id="Trazado_105817" data-name="Trazado 105817" d="M248.424,213.839a1.187,1.187,0,1,0,1.187-1.187A1.187,1.187,0,0,0,248.424,213.839Z" fill="#c6c6c6"/>
        <g id="Grupo_71072" data-name="Grupo 71072">
          <g id="Grupo_71071" data-name="Grupo 71071">
            <path id="Trazado_105818" data-name="Trazado 105818" d="M229.149,191.8a5.187,5.187,0,0,0-1.694,3.243c-.331,2.383.412,4.872,1.066,7.068l2.346,7.87H230.1l-2.261-7.583c-.654-2.192-1.468-4.921-1.1-7.547a6.105,6.105,0,0,1,2-3.823,2.7,2.7,0,0,1,2.548-.589l-.145.885A2.143,2.143,0,0,0,229.149,191.8Z" fill="#878787"/>
            <path id="Trazado_105819" data-name="Trazado 105819" d="M241.607,209.977h-.738l.989-9.082c.247-2.278.529-4.86-.226-7.144a5.19,5.19,0,0,0-2.251-2.885,2.144,2.144,0,0,0-2.046-.109l-.3-.844a2.7,2.7,0,0,1,2.613.119,6.114,6.114,0,0,1,2.656,3.4c.833,2.517.524,5.348.276,7.623Z" fill="#878787"/>
            <path id="Trazado_105820" data-name="Trazado 105820" d="M235.868,191.266l1.725-.294a.467.467,0,0,0,.326-.531l-.064-.711a.466.466,0,0,0-.417-.463l-1.75.021a.45.45,0,0,0-.376.536l.09.983C235.428,191.1,235.641,191.3,235.868,191.266Z" fill="#706f6f"/>
            <path id="Trazado_105821" data-name="Trazado 105821" d="M232.676,191.556l-1.749.022a.466.466,0,0,1-.417-.464l-.065-.71a.466.466,0,0,1,.327-.531l1.725-.295c.226-.038.44.172.466.459l.089.984A.449.449,0,0,1,232.676,191.556Z" fill="#706f6f"/>
          </g>
          <path id="Trazado_105822" data-name="Trazado 105822" d="M238.879,209.977l-.476-4.922a5.47,5.47,0,0,0-.862-2.678,2.414,2.414,0,0,0-1.91-.792,2.925,2.925,0,0,0-2.312.82c-.9,1.112-.867,3.36-.541,5.092.146.778.271,1.543.4,2.307.01.057.021.116.03.173H232.15v-.006c-.124-.756-.247-1.513-.391-2.282-.179-.951-.653-4.19.753-5.935a3.911,3.911,0,0,1,3.153-1.207,3.384,3.384,0,0,1,2.725,1.231,6.473,6.473,0,0,1,1.047,3.178l.486,5.021Z" fill="#c44645"/>
          <path id="Trazado_105823" data-name="Trazado 105823" d="M236.868,209.977c-.133-1.777-.49-3.736-1.429-3.813-.343-.036-.678.391-.736.784a6.659,6.659,0,0,0,.054,1.481c.02.193.04.38.054.555.025.333.07.663.113.993h-1.045c-.037-.3-.079-.6-.1-.913-.013-.165-.032-.342-.051-.525a7.3,7.3,0,0,1-.049-1.739,1.847,1.847,0,0,1,1.913-1.665c.947.077,2.03.742,2.319,4.842Z" fill="#c44645"/>
        </g>
        <rect id="Rectángulo_8861" data-name="Rectángulo 8861" width="13.432" height="3.259" transform="translate(229.405 208.442)" fill="#c6c6c6"/>
        <g id="Grupo_71075" data-name="Grupo 71075">
          <path id="Trazado_105824" data-name="Trazado 105824" d="M239.063,220.107l1.029-.133a14.066,14.066,0,0,1,.583-6.169c.075-.23.156-.458.238-.686a10.38,10.38,0,0,0,.6-2.192,5.2,5.2,0,0,0-.681-3.553,2.04,2.04,0,0,0-2.322-.547,1.836,1.836,0,0,0-1.379,1.62h1.038c0-.23.293-.505.681-.639a1.049,1.049,0,0,1,1.166.208,4.262,4.262,0,0,1,.467,2.782,9.441,9.441,0,0,1-.551,1.972c-.084.236-.168.473-.246.71A15.1,15.1,0,0,0,239.063,220.107Z" fill="#c44645"/>
          <g id="Grupo_71074" data-name="Grupo 71074">
            <rect id="Rectángulo_8862" data-name="Rectángulo 8862" width="2.079" height="2.857" transform="translate(238.368 219.306)" fill="#dadada"/>
            <g id="Grupo_71073" data-name="Grupo 71073">
              <path id="Trazado_105825" data-name="Trazado 105825" d="M235.256,225.473a4.152,4.152,0,1,0,4.152-4.152A4.152,4.152,0,0,0,235.256,225.473Z" fill="#c6c6c6"/>
              <circle id="Elipse_5346" data-name="Elipse 5346" cx="1.961" cy="1.961" r="1.961" transform="translate(237.447 223.513)" fill="#706f6f"/>
            </g>
          </g>
        </g>
      </g>
      <g id="Grupo_71078" data-name="Grupo 71078">
        <path id="Trazado_105826" data-name="Trazado 105826" d="M268.979,186.385l2.148,16.13-24.51,5.807-15.509-2.376,1.1-19.285-12,22.928,19.4,11.541h48Z" opacity="0.1"/>
        <path id="Trazado_105827" data-name="Trazado 105827" d="M296.933,214a7.383,7.383,0,0,1-4.39,7.01l-.14.07a7.4,7.4,0,0,1-9.76-3.77c-.3-.53-.6-1.06-.9-1.6-.33-.59-.66-1.19-.98-1.78-1.9-3.48-3.69-6.98-5.31-10.51q-1.215-2.61-2.28-5.24a106.153,106.153,0,0,1-3.9-11.01,7.384,7.384,0,0,1,3.76-9.75l.14-.07a7.384,7.384,0,0,1,9.75,3.77l3.71,8.35.37.83.54,1.22.5,1.12.15.34.14.33.76,1.71.29.64.36.82.91,2.05,5.65,12.73A7.435,7.435,0,0,1,296.933,214Z" fill="#fff"/>
        <path id="Trazado_105828" data-name="Trazado 105828" d="M234.329,211.513a18.657,18.657,0,0,0,5.787-.042c1.286-.211,2.554-.558,3.855-.65,3.467-.243,6.773,1.332,9.891,2.868l7.035,3.465a1.236,1.236,0,0,1,.626.507,1.092,1.092,0,0,1-.852,1.572,35.862,35.862,0,0,1-8.563,0c-1.232-.2-1.925-.932-3.169-.82a16.964,16.964,0,0,0-2.812.656,18.767,18.767,0,0,1-11.938-.8A37.024,37.024,0,0,0,234.329,211.513Z" fill="#ffcf9a"/>
        <path id="Trazado_105829" data-name="Trazado 105829" d="M238.335,211.218l-.709,8.261c-.509.131-20.924,2.43-22.968,2.426-.3,0-.608,0-.906,0-.234,0-.472,0-.7-.009a7.143,7.143,0,0,1-6.2-8.089l.02-.143a7.4,7.4,0,0,1,8.234-6.237l2.858.576,11.807,2.252Z" fill="#fff"/>
        <path id="Trazado_105830" data-name="Trazado 105830" d="M289.077,222.149c-.226-.027-.465-.066-.7-.112-.3-.06-.615-.112-.913-.166q-4.311-.778-8.341-1.719c-.319-.084-.63-.149-.955-.226-1.231-.308-2.435-.617-3.616-.953-.208-.048-.406-.122-.6-.171a79.666,79.666,0,0,1-8-2.734c-.837-.338-1.642-.684-2.43-1.051l1.244-8.783,9.9,1.388.026.01.194.024,8.993-.247,3.28-.093,2.675-.078a7.416,7.416,0,0,1,7.019,7.756l-.008.148a7.243,7.243,0,0,1-.739,2.839A7.358,7.358,0,0,1,289.077,222.149Z" fill="#fff"/>
        <g id="Grupo_71077" data-name="Grupo 71077">
          <path id="Trazado_105831" data-name="Trazado 105831" d="M271.476,208.165a2.137,2.137,0,0,0,2.626.95l.006,0a1.193,1.193,0,0,0,.63-.909,1.815,1.815,0,0,0-.306-1.245l-3.735-5.7a2.008,2.008,0,0,0-2.479-.9l-.044.023a1.514,1.514,0,0,0-.345,2.237Z" fill="#efb67e"/>
          <path id="Trazado_105832" data-name="Trazado 105832" d="M267.636,189.19H244.028a1.343,1.343,0,0,0-1.343,1.343v28.028a1.343,1.343,0,0,0,1.343,1.343h23.608a1.343,1.343,0,0,0,1.343-1.343V190.533A1.343,1.343,0,0,0,267.636,189.19Z" fill="#c44645"/>
          <path id="Trazado_105833" data-name="Trazado 105833" d="M262.658,214.144c3.082,1.908,5.835,4.011,8.883.992,2.553-2.529,3.81-4.247,3.345-7.48l-4.194-3.944Z" fill="#ffc388"/>
          <path id="Trazado_105834" data-name="Trazado 105834" d="M262.635,200.969a1.71,1.71,0,0,0,.624,2.335l5.377,3.115a1.708,1.708,0,0,0,2.335-.623h0a1.709,1.709,0,0,0-.624-2.335l-5.377-3.116a1.71,1.71,0,0,0-2.335.624Z" fill="#ffcf9a"/>
          <path id="Trazado_105835" data-name="Trazado 105835" d="M260.023,203.349a1.71,1.71,0,0,0,.593,2.343l6.271,3.663a1.709,1.709,0,0,0,2.343-.593h0a1.709,1.709,0,0,0-.594-2.343l-6.271-3.663a1.708,1.708,0,0,0-2.342.593Z" fill="#ffcf9a"/>
          <path id="Trazado_105836" data-name="Trazado 105836" d="M259.193,206.781a1.708,1.708,0,0,0,.594,2.342l5.351,3.168a1.709,1.709,0,0,0,2.343-.593h0a1.709,1.709,0,0,0-.594-2.343l-5.351-3.168a1.709,1.709,0,0,0-2.343.594Z" fill="#ffcf9a"/>
          <path id="Trazado_105837" data-name="Trazado 105837" d="M259.017,210.292a1.446,1.446,0,0,0,.5,1.982l3.779,2.251a1.444,1.444,0,0,0,1.981-.5h0a1.444,1.444,0,0,0-.5-1.981L261,209.791a1.446,1.446,0,0,0-1.982.5Z" fill="#ffcf9a"/>
        </g>
      </g>
    </g>
    <g id="Grupo_71080" data-name="Grupo 71080">
      <rect id="Rectángulo_8863" data-name="Rectángulo 8863" width="7" height="122.96" transform="translate(147.763 220.937)" fill="#3c3c3b"/>
      <rect id="Rectángulo_8864" data-name="Rectángulo 8864" width="7" height="122.96" transform="translate(329.281 220.937)" fill="#3c3c3b"/>
      <rect id="Rectángulo_8865" data-name="Rectángulo 8865" width="214.566" height="74.432" transform="translate(134.215 220.937)" fill="#fff"/>
      <rect id="Rectángulo_8866" data-name="Rectángulo 8866" width="233.201" height="5.406" transform="translate(124.897 215.789)" fill="#9d9d9c"/>
      <rect id="Rectángulo_8867" data-name="Rectángulo 8867" width="7" height="126.524" transform="translate(341.781 220.937)" fill="#3c3c3b"/>
      <rect id="Rectángulo_8868" data-name="Rectángulo 8868" width="214.566" height="20.877" transform="translate(134.215 220.937)" fill="#1d1d1b" opacity="0.1"/>
      <rect id="Rectángulo_8869" data-name="Rectángulo 8869" width="7" height="126.524" transform="translate(134.215 220.937)" fill="#3c3c3b"/>
    </g>
    <g id="Grupo_71082" data-name="Grupo 71082">
      <path id="Trazado_105838" data-name="Trazado 105838" d="M290.872,210.6l6.579-30.034a3.461,3.461,0,0,1,3.212-2.635H340.68a2.054,2.054,0,0,1,2.058,2.635L336.159,210.6a3.464,3.464,0,0,1-3.212,2.635H292.929A2.054,2.054,0,0,1,290.872,210.6Z" fill="#3c3c3b"/>
      <g id="Grupo_71081" data-name="Grupo 71081">
        <path id="Trazado_105839" data-name="Trazado 105839" d="M294.343,213.234H334.36a3.462,3.462,0,0,0,3.212-2.635l6.58-30.034a2.055,2.055,0,0,0-2.058-2.635H302.077a3.461,3.461,0,0,0-3.212,2.635l-6.58,30.034A2.055,2.055,0,0,0,294.343,213.234Z" fill="#575756"/>
        <path id="Trazado_105840" data-name="Trazado 105840" d="M316.494,195.582a2.1,2.1,0,0,0,2.108,2.7,3.547,3.547,0,0,0,3.29-2.7,2.1,2.1,0,0,0-2.107-2.7A3.549,3.549,0,0,0,316.494,195.582Z" fill="#fff"/>
      </g>
      <path id="Trazado_105841" data-name="Trazado 105841" d="M265.787,215.847h66.067v-2.614H265.787Z" fill="#575756"/>
      <rect id="Rectángulo_8870" data-name="Rectángulo 8870" width="40.874" height="2.614" transform="translate(290.98 213.234)" fill="#3c3c3b"/>
    </g>
    <path id="Trazado_105842" data-name="Trazado 105842" d="M244.72,295.37l-.39,8.11H223.76c.04-1.68.09-3.39.14-5.13.04-.98.07-1.98.1-2.98Z" opacity="0.15"/>
    <path id="Trazado_105843" data-name="Trazado 105843" d="M256.11,298.38h2.04v5.1H245.62v-5.1h2.04v-3.01h8.45Z" opacity="0.15"/>
    <path id="Trazado_105844" data-name="Trazado 105844" d="M279.98,303.48H258.74l-.32-8.11h21.27c.04.92.07,1.83.11,2.73.01.46.03.92.05,1.38,0,.05.01.1.01.15.01.62.04,1.25.06,1.86C279.94,302.16,279.96,302.82,279.98,303.48Z" opacity="0.15"/>
    <g id="Grupo_71091" data-name="Grupo 71091">
      <g id="Grupo_71087" data-name="Grupo 71087">
        <path id="Trazado_105845" data-name="Trazado 105845" d="M123.191,286.224a25.719,25.719,0,0,1-20.024-9.5c-7.842-9.2-11.146-23.65-8.623-37.724a3.463,3.463,0,1,1,6.817,1.224c-2.134,11.9.643,24.463,7.076,32.006a19,19,0,0,0,15.157,7.062,3.464,3.464,0,0,1,.131,6.926C123.548,286.222,123.369,286.224,123.191,286.224Z" fill="#3c3c3b"/>
        <g id="Grupo_71083" data-name="Grupo 71083">
          <path id="Trazado_105846" data-name="Trazado 105846" d="M80.369,254.446h39.768a7.144,7.144,0,0,0,7.119-7.754l-4.244-49.61a7.145,7.145,0,0,0-7.119-6.536H83.922A7.144,7.144,0,0,0,76.8,197.18l-3.554,49.611A7.145,7.145,0,0,0,80.369,254.446Z" fill="#c44645"/>
          <path id="Trazado_105847" data-name="Trazado 105847" d="M134.2,247.267a7.91,7.91,0,0,1-.16,1.55,7.164,7.164,0,0,1-6.99,5.63H87.281a7.151,7.151,0,0,1-7.13-7.66l3.56-49.61a7.141,7.141,0,0,1,7.12-6.63H122.8a2.953,2.953,0,0,1,.42.02,4.407,4.407,0,0,1,.73.08,4.264,4.264,0,0,1,.62.13,7.132,7.132,0,0,1,5.35,6.3l1.3,15.19,1.47,17.19.01.05,1.47,17.19A5.444,5.444,0,0,1,134.2,247.267Z" fill="#a83c3b"/>
        </g>
        <g id="Grupo_71084" data-name="Grupo 71084">
          <rect id="Rectángulo_8871" data-name="Rectángulo 8871" width="2.459" height="6.795" transform="translate(90.005 332.547)" fill="#575756"/>
          <path id="Trazado_105848" data-name="Trazado 105848" d="M97.953,342.5a4.7,4.7,0,1,1-4.689-4.975A4.839,4.839,0,0,1,97.953,342.5Z" fill="#1f1f1e"/>
        </g>
        <g id="Grupo_71085" data-name="Grupo 71085">
          <rect id="Rectángulo_8872" data-name="Rectángulo 8872" width="2.459" height="6.795" transform="translate(123.66 332.547)" fill="#575756"/>
          <path id="Trazado_105849" data-name="Trazado 105849" d="M131.608,342.5a4.7,4.7,0,1,1-4.689-4.975A4.838,4.838,0,0,1,131.608,342.5Z" fill="#1f1f1e"/>
        </g>
        <g id="Grupo_71086" data-name="Grupo 71086">
          <rect id="Rectángulo_8873" data-name="Rectángulo 8873" width="2.459" height="6.795" transform="translate(157.934 332.547)" fill="#575756"/>
          <path id="Trazado_105850" data-name="Trazado 105850" d="M152.445,342.5a4.7,4.7,0,1,0,4.689-4.975A4.838,4.838,0,0,0,152.445,342.5Z" fill="#1f1f1e"/>
        </g>
        <rect id="Rectángulo_8874" data-name="Rectángulo 8874" width="8.46" height="23.03" transform="translate(121.11 286.69)" fill="#ededed"/>
        <rect id="Rectángulo_8875" data-name="Rectángulo 8875" width="12.534" height="23.032" transform="translate(119.074 305.736)" fill="#706f6f"/>
        <path id="Trazado_105851" data-name="Trazado 105851" d="M88.293,335h74.042v-4.587l-37.107-4.587-36.935,4.587Z" fill="#706f6f"/>
        <path id="Trazado_105852" data-name="Trazado 105852" d="M159.61,277.52v8.2a3.714,3.714,0,0,1-2.44,3.5,3.531,3.531,0,0,1-1.3.24H97.9a3.82,3.82,0,0,1-3.82-3.82v-8.03a3.822,3.822,0,0,1,3.82-3.83h57.97a3.744,3.744,0,0,1,2.9,1.38,4.438,4.438,0,0,1,.41.62c.06.12.12.25.17.38A3.618,3.618,0,0,1,159.61,277.52Z" fill="#a83c3b"/>
      </g>
      <g id="Grupo_71090" data-name="Grupo 71090">
        <path id="Trazado_105853" data-name="Trazado 105853" d="M195.02,233.789l1.184-.2,1.714-.6,2.714-3.026a1.154,1.154,0,0,1,1.384-.3l.881-.982a1.156,1.156,0,0,1,1.8.024l.018.021a1.5,1.5,0,0,1,.265.474,1.314,1.314,0,0,1,1.158.655l.016.026a1.754,1.754,0,0,1-.322,2.218l-4.4,3.654c-.013.011-.028.018-.041.028a1.526,1.526,0,0,1-.129.086.979.979,0,0,1-.24.113,1.366,1.366,0,0,1-.147.044c-.016,0-.03.01-.046.013l-5.352.941a1.408,1.408,0,0,1-1.563-1.329l-.005-.032A1.576,1.576,0,0,1,195.02,233.789Z" fill="#f2c194"/>
        <path id="Trazado_105854" data-name="Trazado 105854" d="M184.74,235.174s-2.357-3.911-1.449-6.447c0,0-33.01-9.644-33.789-9.417a7.9,7.9,0,0,0-5.023,4.069c-.888,1.795,7.347,8.623,7.972,11.733C157.5,236.557,184.74,235.174,184.74,235.174Z" fill="#ffcfa1"/>
        <path id="Trazado_105855" data-name="Trazado 105855" d="M161.885,222.57,153.9,183.586a8.328,8.328,0,0,0-9.748-6.609l-.161.033a8.328,8.328,0,0,0-6.614,9.753l.279,1.57,10.065,41.885Z" fill="#f9b659"/>
        <path id="Trazado_105856" data-name="Trazado 105856" d="M201.837,344.284a27.075,27.075,0,0,1-11.969,3.018l-3.543-.017-9.071-.034h-.423l-.458.017-1.221.051-.2.017-.271.017c-.39,0-.78.017-1.187.034l-2.2.085c-.254,0-.509,0-.763-.017a6.3,6.3,0,0,1-1.255-.136l-2.3-.457a.684.684,0,0,1-.441-.306.2.2,0,0,1-.034-.119.622.622,0,0,1-.034-.2,3.4,3.4,0,0,1-.017-.441c-.017-.728.034-1.882.119-3.153.017-.39.051-.8.085-1.2.017-.288.034-.593.067-.881v-.034c.187-2.136.407-4.154.543-4.628l.017-.085c.084-.306.593-1.238.983-2.509a9.113,9.113,0,0,0,.407-2.967,4.784,4.784,0,0,0-.034-.492l3.391-.237,3.95-.271.373-.034,4.255-.289a7.336,7.336,0,0,0,.831,1.577,14.415,14.415,0,0,0,4.815,3.7,4.051,4.051,0,0,0,.661.288h.017c1.356.492,3.56.763,5.748,1.34.542.152,1.051.288,1.542.406,2.849.712,5.205,1.153,6.443,2.306,1.22.814,1.169,2.577,1.509,4.7,0,.034.016.085.016.119A.753.753,0,0,1,201.837,344.284Z" fill="#1f1f1e"/>
        <path id="Trazado_105857" data-name="Trazado 105857" d="M191.64,267.06c-.062.957-3.885,43.907-4.969,68.458h-.01l-13.37,3.961-6.818,2.015v-.028c-2.894-16.829-1.229-51.914.61-63.811.314-2.09.639-3.989.948-5.658.868-4.652,1.58-7.542,1.652-7.82a10.608,10.608,0,0,1,2.1-4.356,10.889,10.889,0,0,1,7.763-4.134,10.529,10.529,0,0,1,1.9.01l.211.025a10.954,10.954,0,0,1,7.306,3.745,10.667,10.667,0,0,1,2.083,3.613c.06.181.12.362.17.552A10.773,10.773,0,0,1,191.64,267.06Z" fill="#4f403b"/>
        <path id="Trazado_105858" data-name="Trazado 105858" d="M177.523,276.588l-.1-.01s-3.4-.153-8.45-.384c-2.334-.086-5.01-.21-7.859-.335-4.838-.208-10.174-.437-15.163-.662-9.923-.443-18.468-.837-18.806-.909-23.33-2.671-10.322-32.265-9.512-32.468l.653-.356-.653.356,19.928,6.56c10.567.876,18.508,1.513,24.506,2,20.719,1.671,18.077,1.413,19.573,1.785,5.384,1.353,9.438,5.52,10.155,10.5a6.739,6.739,0,0,1,.153,1.223C192.444,270.751,185.992,277.146,177.523,276.588Z" fill="#4f403b"/>
        <path id="Trazado_105859" data-name="Trazado 105859" d="M146.894,183.842a13.074,13.074,0,0,0,7.36,2.492l6.3-20.139c-1.3-.363-8.135-3.709-13.2-6.282l-5.8,12.76-.816,1.772a.816.816,0,0,0-.227.117C139.037,175.409,143.877,181.858,146.894,183.842Z" fill="#f2c194"/>
        <path id="Trazado_105860" data-name="Trazado 105860" d="M157.458,207.674v.165c-.142,1.65-.377,3.819-.778,6.366-.495,3.183-1.226,6.931-2.193,10.963-.566,2.381-1.2,4.834-1.933,7.333a118.693,118.693,0,0,1-4.881,13.722,6.756,6.756,0,0,1-.306.731c-.425.966-.873,1.933-1.321,2.853-.66,1.343-1.343,2.64-2.051,3.866-4.338,7.616-9.784,13.274-16.339,14.1a30.909,30.909,0,0,1-13.038-1.7l-3.4-1.155c-3.961-7.4-3.182-12.614-2.121-23.059v-.024c.023-.047.023-.094.047-.141.212-.778.471-1.674.731-2.641,3.065-10.963,4.715-32.041,7.733-45.528a49.017,49.017,0,0,1,2.358-7.969,12.808,12.808,0,0,1,1.721-3.042c6.7-8.252,18.98-8.039,19-8.039l.024-.024a38.019,38.019,0,0,0,7.45,8.111c2.476,2.075,4.857,3.583,6.083,3.772,0,0,.448.99,1.014,2.711C156.515,192.843,158.425,200.152,157.458,207.674Z" fill="#d69943"/>
        <path id="Trazado_105861" data-name="Trazado 105861" d="M193.124,344.284a27.075,27.075,0,0,1-11.969,3.018l-3.543-.017-9.071-.034h-.423l-.458.017-1.221.051-.2.017-.272.017c-.389,0-.779.017-1.186.034l-2.2.085c-.255,0-.509,0-.763-.017a6.3,6.3,0,0,1-1.255-.136l-2.3-.457a.682.682,0,0,1-.441-.306.2.2,0,0,1-.034-.119.622.622,0,0,1-.034-.2,3.4,3.4,0,0,1-.017-.441c-.017-.728.034-1.882.119-3.153.017-.39.05-.8.085-1.2.017-.288.034-.593.067-.881v-.034c.187-2.136.407-4.154.543-4.628l.017-.085c.084-.306.593-1.238.983-2.509a9.114,9.114,0,0,0,.407-2.967,4.784,4.784,0,0,0-.034-.492l3.391-.237,3.95-.271.373-.034,4.255-.289a7.336,7.336,0,0,0,.831,1.577,14.415,14.415,0,0,0,4.815,3.7,4.052,4.052,0,0,0,.661.288h.017c1.356.492,3.56.763,5.747,1.34.543.152,1.052.288,1.543.406,2.848.712,5.205,1.153,6.442,2.306,1.221.814,1.17,2.577,1.509,4.7,0,.034.017.085.017.119A.753.753,0,0,1,193.124,344.284Z" fill="#303030"/>
        <path id="Trazado_105862" data-name="Trazado 105862" d="M182.79,267.073a32.1,32.1,0,0,1-.329,5.775c-1.78,13.444-2.247,27.136-3.049,40.7q-.623,10.511-1.207,21.024l-20.274,6.877s-.17.05-.17.03a119.966,119.966,0,0,1-1.36-14.8,351.871,351.871,0,0,1,.77-37.46,165.1,165.1,0,0,1,2.91-21.725c1.174-5.556,4.228-11.1,10.41-11.775.11-.02.23-.03.34-.04a10.854,10.854,0,0,1,11.025,6.67A15.337,15.337,0,0,1,182.79,267.073Z" fill="#614f49"/>
        <path id="Trazado_105863" data-name="Trazado 105863" d="M182.9,267.367a10.693,10.693,0,0,1-.36,1.09,12.49,12.49,0,0,1-5.16,6.08,14.139,14.139,0,0,1-4.77,1.83,14.931,14.931,0,0,1-3.81.22l-.1-.02s-.51-.02-1.44-.05l-.63-.03c-.82-.03-1.87-.08-3.09-.13-.99-.05-2.07-.12-3.28-.17l-.91-.03c-.24-.02-.49-.03-.74-.04-1.91-.07-4.01-.16-6.2-.26-2.66-.12-5.47-.23-8.27-.37a2.968,2.968,0,0,1-.52-.03c-2.15-.07-4.29-.16-6.37-.26-.19,0-.4-.02-.59-.02-6.29-.28-11.95-.54-15.25-.71-1.77-.09-2.86-.16-2.97-.19a22.245,22.245,0,0,1-2.82-.5,16.251,16.251,0,0,1-4.04-1.5,11.065,11.065,0,0,1-1.63-1.04c-.02,0-.02,0-.05-.02v-.03a12.01,12.01,0,0,1-4.22-5.75,22.784,22.784,0,0,1-.85-10.63c.02-.12.03-.24.05-.36.95-6.71,3.69-12.54,4.05-12.63l.17.04,5.91,1.95,1.37.46,4.79,1.58,7.69,2.55c1.8.15,3.53.29,5.18.42,4.52.38,8.5.7,12.01.99,2.71.21,5.14.4,7.3.59,7.14.57,11.51.91,14.23,1.13,5.17.42,4.37.39,5.34.64a14.317,14.317,0,0,1,6.47,3.54,11.916,11.916,0,0,1,3.7,6.97,7.4,7.4,0,0,1,.16,1.23A10.874,10.874,0,0,1,182.9,267.367Z" fill="#614f49"/>
        <g id="Grupo_71089" data-name="Grupo 71089">
          <g id="Grupo_71088" data-name="Grupo 71088">
            <path id="Trazado_105864" data-name="Trazado 105864" d="M168.968,157.028a22.137,22.137,0,0,1,0,3.135,17.472,17.472,0,0,1-.922,1.777l.281.849,1.253,3.8a1.684,1.684,0,0,1-1.421,2.112l-.345.066-1.187.209c-.017.088-.025.226-.043.4-.028.568-.083,1.532-.115,2.526l0,.017c-.05,1.168-.084,2.419-.124,3.193-.011.479-.02.787-.02.787a8.522,8.522,0,0,1-1.555,3.909,4.07,4.07,0,0,1-3.787,1.762l-3.338-.437a2.427,2.427,0,0,0-.393-.1c-3.9-1.078-9.028-6.15-8.425-12.552a4.745,4.745,0,0,1,.043-.485,1.119,1.119,0,0,1-.229-.042.023.023,0,0,0-.033.007,4.442,4.442,0,0,0-.879-.054c-2.45.109-5.7,1.462-5.686-.688,0-2.692-2.541-6.893-2.483-10.431.994-7.737,3.845-11.2,7.186-12.616.237-.1.442-.186.682-.266,3.213-1.107,6.757-.573,9.483-.309a13.3,13.3,0,0,1,10.908,8.33l0,.016A17.681,17.681,0,0,1,168.968,157.028Z" fill="#ffcfa1"/>
            <path id="Trazado_105865" data-name="Trazado 105865" d="M142.036,170.855c10.323,3.3,5.548-9.325,5.548-9.325s2.5.259,3.248,1.4c1.319.25,2.138.3,3.225.508,1.88-13.211-.559-15.986,13.777-11.5,3.135-2.722,3.283-8.642-12.292-10.354-7.8-.857-15.044,3.019-16.467,10.74C138.247,156.815,137.549,159.3,142.036,170.855Z" fill="#3c3c3b"/>
            <path id="Trazado_105866" data-name="Trazado 105866" d="M145.7,162.388c-.225,2.447,1.58,5.463,3.179,5.61s1.606-1.853,1.857-4.3c.165-1.617.787-3.88-.921-4.553C148.32,158.558,146.031,158.8,145.7,162.388Z" fill="#ffcfa1"/>
          </g>
        </g>
        <path id="Trazado_105867" data-name="Trazado 105867" d="M183.252,263.906a10.724,10.724,0,0,1-.354,3.466c-.118,1.179-.566,5.47-1.179,11.553a7.3,7.3,0,0,1-1.98-.8,6.2,6.2,0,0,1-2.358-3.584c-.4-1.226-.637-2.546-.967-3.772-1.509-5.541-5.729-10.091-10.775-12.85a2.759,2.759,0,0,0-.377-.188,38.57,38.57,0,0,0-16.174-3.961c-1.7-.1-3.372-.1-5.093-.1-2.57,0-5.14.024-7.71-.07-7.544-.331-14.971-1.934-22.351-3.537a19.467,19.467,0,0,0,7.238-4.22,20.612,20.612,0,0,0,6.861-13.557,39.108,39.108,0,0,0-.353-7.592q-2.123-19.488-4.268-38.95c3.513,15.466,7.451,31.782,18.556,43.1a14.671,14.671,0,0,0,5.116,3.726,6.794,6.794,0,0,0,5.47-.071,118.693,118.693,0,0,1-4.881,13.722,6.756,6.756,0,0,1-.306.731c-.425.966-.873,1.933-1.321,2.853,2.712.212,5.14.4,7.309.589,20.725,1.651,18.084,1.391,19.57,1.768,5.4,1.368,9.454,5.518,10.162,10.516A7.367,7.367,0,0,1,183.252,263.906Z" fill="#1d1d1b" opacity="0.1"/>
        <path id="Trazado_105868" data-name="Trazado 105868" d="M171.689,245.581s-3.7,5.85-3.681,5.779c0,0-31.169-14.722-31.81-15.221-2.652-2.063-2.55-2.988-3.325-5.921-.511-1.937,11.967-3.632,14.613-5.381C152.071,227.4,171.689,245.581,171.689,245.581Z" fill="#ffcfa1"/>
        <path id="Trazado_105869" data-name="Trazado 105869" d="M147.486,224.837l-8.417-40.59a8.315,8.315,0,0,0-9.746-6.512l-.161.032a8.225,8.225,0,0,0-6.617,9.617l.278,1.548,10.05,41.286Z" fill="#f9b659"/>
        <path id="Trazado_105870" data-name="Trazado 105870" d="M195.46,231.691c.76-.081,3-1.469,2.375-2.813-.369-.794-1.687-.069-3.063.156-1.18.194-4.594.3-4.594.3a2.138,2.138,0,0,1-.8-.07l-.845-.24c1.365,1.014,2.328,2.431,3.853,3.285Z" fill="#f2c194"/>
        <path id="Trazado_105871" data-name="Trazado 105871" d="M206.658,232.312l-.012-.029a1.3,1.3,0,0,0-1.828-.768l-4.606,2.462-5.035-.2s-2.26-1.123-2.985-1.59c-1.267-.817-2.482-3.282-4.916-3.525a10.264,10.264,0,0,0-2.459-.171l-3.423.478-.178,6.181,4.417,1a27.332,27.332,0,0,0,8.52,1.77c.343.018.678.061.919.046,1.283-.084,5.345-.766,5.345-.766.016,0,5.558-2.777,5.558-2.777A1.708,1.708,0,0,0,206.658,232.312Z" fill="#ffcfa1"/>
        <path id="Trazado_105872" data-name="Trazado 105872" d="M177.6,261.61q.343,1.7.688,3.409a3.64,3.64,0,0,0,.717,1.795,1.254,1.254,0,0,0,1.738.19,1.5,1.5,0,0,0,2.989.082,1.121,1.121,0,0,0,1.54-.151,2.107,2.107,0,0,0,.428-1.62,2.312,2.312,0,0,0,.9-1.834,7.764,7.764,0,0,0-.475-2.646q-.7-2.3-1.394-4.6a5.73,5.73,0,0,0-2.725-3.887,70.614,70.614,0,0,0-10.787-7l-3.536,4.578a1.4,1.4,0,0,0-.274.472,1.281,1.281,0,0,0,.029.614,8.217,8.217,0,0,0,4.046,5.353c.547.3,1.126.529,1.7.777a11.532,11.532,0,0,1,2.982,1.733,3.993,3.993,0,0,1,.894,1.033A5.668,5.668,0,0,1,177.6,261.61Z" fill="#ffcfa1"/>
      </g>
      <path id="Trazado_105873" data-name="Trazado 105873" d="M169.621,269.607q-1.02,2.085-1.91,4.21l-.01.01c-.32.76-.63,1.51-.92,2.28-.05.12-.1.25-.15.38-7.14,18.6-7.76,39.33-8.23,59.41a72.9,72.9,0,0,1-2-9.2v-.02a351.871,351.871,0,0,1,.77-37.46,3.531,3.531,0,0,1-1.3.24H152.5a13.032,13.032,0,0,0-2.95-5.61c-3.01-3.19-7.71-3.98-12.06-4.59q-8.4-1.17-16.8-2.36a33.087,33.087,0,0,1-9.25-2.22,13.561,13.561,0,0,1-1.68-.9h5.86a16.251,16.251,0,0,1-4.04-1.5,11.065,11.065,0,0,1-1.63-1.04c-.02,0-.02,0-.05-.02v-.03a12.01,12.01,0,0,1-4.22-5.75,22.784,22.784,0,0,1-.85-10.63c.02-.12.03-.24.05-.36h-2.77a76.714,76.714,0,0,1,1.65-7.51c3.88-15.06,8.7-31.86,12.58-46.93,0-.01.01-.03.01-.04s.01-.03.01-.05c-.33,14.16-6.22,30.6-1.35,43.89l.12.33c-2.12-.58-4.38.92-5.36,2.9a12.581,12.581,0,0,0-.82,6.48c.02.31.04.62.07.93.32,3.91,1.21,7.97,3.59,10.94v.01a10.99,10.99,0,0,0,1.58,1.62,10.6,10.6,0,0,0,1.48,1.03c3.84,2.26,8.79,2.21,13.34,1.95,7.39-.41,14.79-1.04,22.17-.5,2.8.2,5.64.57,8.46.76a32.367,32.367,0,0,0,8.8-.38C168.831,269.807,169.231,269.707,169.621,269.607Z" fill="#1d1d1b" opacity="0.1"/>
      <rect id="Rectángulo_8876" data-name="Rectángulo 8876" width="8.46" height="8.11" transform="translate(121.11 289.46)" opacity="0.15"/>
    </g>
    <g id="Grupo_71102" data-name="Grupo 71102" opacity="0.22" style="isolation: isolate">
      <path id="Trazado_105874" data-name="Trazado 105874" d="M352.575,96.219a7.433,7.433,0,1,0,7.433,7.433A7.433,7.433,0,0,0,352.575,96.219Zm4.9,8.878H354.02v3.458h-2.891V105.1h-3.458v-2.891h3.458V98.748h2.891v3.458h3.458Z" fill="#00357b" style="mix-blend-mode: overlay;isolation: isolate"/>
      <g id="Grupo_71092" data-name="Grupo 71092" style="mix-blend-mode: overlay;isolation: isolate">
        <path id="Trazado_105875" data-name="Trazado 105875" d="M229.847,108.458l-.059.059a4.137,4.137,0,0,0,0,5.851l4.859,4.859,5.91-5.91-4.859-4.859A4.137,4.137,0,0,0,229.847,108.458Z" fill="#00357b"/>
        <path id="Trazado_105876" data-name="Trazado 105876" d="M245.3,119.852a2.873,2.873,0,0,1,0,4.057l-.059.059a2.873,2.873,0,0,1-4.057,0l-4.8-4.8-.9.9,4.8,4.8a4.136,4.136,0,0,0,5.85,0l.06-.059a4.137,4.137,0,0,0,0-5.85l-4.8-4.8-.9.9Z" fill="#00357b"/>
      </g>
      <path id="Trazado_105877" data-name="Trazado 105877" d="M285.941,114.846a2.132,2.132,0,0,0-2.129-2.13H271.8a2.133,2.133,0,0,0-2.13,2.13v3.375h16.267Zm-1.667,1.708H271.342v-1.708a.462.462,0,0,1,.462-.463h12.008a.462.462,0,0,1,.462.463Zm2.4,5.535v2.3h-1.668v-2.3a1.26,1.26,0,0,0-1.259-1.258H271.866a1.26,1.26,0,0,0-1.259,1.258v2.3H268.94v-2.3a2.93,2.93,0,0,1,2.926-2.926h11.883A2.93,2.93,0,0,1,286.676,122.089Zm-1.668,13.332h1.668V137.3a2.929,2.929,0,0,1-2.927,2.926H271.866a2.929,2.929,0,0,1-2.926-2.926v-1.883h1.667V137.3a1.261,1.261,0,0,0,1.259,1.259h11.883a1.261,1.261,0,0,0,1.259-1.259Zm-16.068-9.782h17.736v8.533H268.94Z" fill="#00357b" style="mix-blend-mode: overlay;isolation: isolate"/>
      <path id="Trazado_105878" data-name="Trazado 105878" d="M192.461,180.8,190.1,176.71l-4.92,2.84V173.87h-4.725v5.681l-4.92-2.84-2.362,4.092,4.919,2.84-4.919,2.84,2.362,4.092,4.92-2.84v5.681h4.725v-5.681l4.92,2.84,2.363-4.092-4.92-2.84Z" fill="#00357b" style="mix-blend-mode: overlay;isolation: isolate"/>
      <path id="Trazado_105879" data-name="Trazado 105879" d="M297.052,66.219l-1.529-2.649-3.184,1.839V61.731h-3.059v3.677l-3.185-1.839-1.529,2.649,3.185,1.839L284.566,69.9l1.529,2.649,3.185-1.839v3.677h3.059V70.706l3.184,1.839,1.529-2.649-3.185-1.839Z" fill="#00357b" style="mix-blend-mode: overlay;isolation: isolate"/>
      <g id="Grupo_71095" data-name="Grupo 71095" style="mix-blend-mode: overlay;isolation: isolate">
        <path id="Trazado_105892" data-name="Trazado 105892" d="M215.634,158.471v-4.554H214.35v4.554a3.9,3.9,0,0,1-2.129,3.477l-.355.177v1.466l.027.413.358.176a3.958,3.958,0,0,1,2.226,3.576V172.3h1.285v-4.543a5.236,5.236,0,0,0-2.611-4.547v-.31A5.171,5.171,0,0,0,215.634,158.471Z" fill="#00357b"/>
        <path id="Trazado_105893" data-name="Trazado 105893" d="M207.136,153.917v4.554a5.174,5.174,0,0,0,2.483,4.426v.328a5.11,5.11,0,0,0-2.355,4.306V172.3h1.285v-4.768a3.84,3.84,0,0,1,2.024-3.378l.33-.184-.024-1.85-.347-.179a3.9,3.9,0,0,1-2.111-3.469v-4.554Z" fill="#00357b"/>
        <path id="Trazado_105894" data-name="Trazado 105894" d="M210.968,161.169l.414.217.445-.23a2.558,2.558,0,0,0,1.337-1.855h-3.558A2.58,2.58,0,0,0,210.968,161.169Z" fill="#00357b"/>
        <path id="Trazado_105895" data-name="Trazado 105895" d="M211.894,165.208l-.523-.249-.427.233a2.747,2.747,0,0,0-1.432,2.412v3.555h4V167.8A2.865,2.865,0,0,0,211.894,165.208Z" fill="#00357b"/>
        <rect id="Rectángulo_8895" data-name="Rectángulo 8895" width="10.275" height="1.686" transform="translate(206.312 151.669)" fill="#00357b"/>
        <rect id="Rectángulo_8896" data-name="Rectángulo 8896" width="10.275" height="1.686" transform="translate(206.312 172.821)" fill="#00357b"/>
      </g>
      <g id="Grupo_71101" data-name="Grupo 71101" style="mix-blend-mode: overlay;isolation: isolate">
        <path id="Trazado_105896" data-name="Trazado 105896" d="M311.277,137.448l-14.885,14.861a3.361,3.361,0,0,0,0,4.746l6.4,6.411a3.361,3.361,0,0,0,4.747,0l14.885-14.861a3.362,3.362,0,0,0,0-4.747l-6.4-6.41A3.361,3.361,0,0,0,311.277,137.448Zm.316.317a2.913,2.913,0,0,1,4.114,0l6.4,6.411a2.912,2.912,0,0,1,0,4.113l-14.885,14.861a2.913,2.913,0,0,1-4.114,0l-6.4-6.41a2.912,2.912,0,0,1,0-4.113Z" fill="#00357b"/>
        <path id="Trazado_105897" data-name="Trazado 105897" d="M318.391,141.488a.235.235,0,0,1,0,.333l-.333.332a.235.235,0,0,1-.332-.333l.333-.332A.234.234,0,0,1,318.391,141.488Z" fill="#00357b"/>
        <path id="Trazado_105898" data-name="Trazado 105898" d="M313.43,146.442a.235.235,0,0,1,0,.332l-.661.66a.235.235,0,1,1-.332-.332l.661-.661A.236.236,0,0,1,313.43,146.442Z" fill="#00357b"/>
        <path id="Trazado_105899" data-name="Trazado 105899" d="M309.9,149.963a.234.234,0,0,1,0,.332l-.662.66a.235.235,0,0,1-.332-.332l.662-.661A.235.235,0,0,1,309.9,149.963Z" fill="#00357b"/>
        <path id="Trazado_105900" data-name="Trazado 105900" d="M315.193,144.681a.235.235,0,0,1,0,.333l-.661.66a.235.235,0,1,1-.332-.333l.661-.66A.235.235,0,0,1,315.193,144.681Z" fill="#00357b"/>
        <path id="Trazado_105901" data-name="Trazado 105901" d="M311.666,148.2a.234.234,0,0,1,0,.332l-.661.661a.235.235,0,1,1-.332-.333l.661-.66A.234.234,0,0,1,311.666,148.2Z" fill="#00357b"/>
        <path id="Trazado_105902" data-name="Trazado 105902" d="M316.956,142.921a.234.234,0,0,1,0,.332l-.661.66a.235.235,0,0,1-.332-.332l.661-.66A.234.234,0,0,1,316.956,142.921Z" fill="#00357b"/>
        <path id="Trazado_105903" data-name="Trazado 105903" d="M308.139,151.723a.235.235,0,0,1,0,.333l-.661.66a.235.235,0,0,1-.332-.333l.661-.66A.235.235,0,0,1,308.139,151.723Z" fill="#00357b"/>
        <path id="Trazado_105904" data-name="Trazado 105904" d="M304.613,155.244a.236.236,0,0,1,0,.333l-.661.66a.235.235,0,0,1-.332-.333l.661-.66A.236.236,0,0,1,304.613,155.244Z" fill="#00357b"/>
        <path id="Trazado_105905" data-name="Trazado 105905" d="M302.849,157.005a.234.234,0,0,1,0,.332l-.661.66a.235.235,0,1,1-.332-.332l.661-.66A.234.234,0,0,1,302.849,157.005Z" fill="#00357b"/>
        <path id="Trazado_105906" data-name="Trazado 105906" d="M306.376,153.484a.234.234,0,0,1,0,.332l-.661.66a.235.235,0,1,1-.332-.332l.661-.66A.234.234,0,0,1,306.376,153.484Z" fill="#00357b"/>
        <path id="Trazado_105907" data-name="Trazado 105907" d="M301.086,158.765a.236.236,0,0,1,0,.333l-.333.332a.235.235,0,0,1-.332-.333l.333-.332A.236.236,0,0,1,301.086,158.765Z" fill="#00357b"/>
        <g id="Grupo_71100" data-name="Grupo 71100">
          <g id="Grupo_71096" data-name="Grupo 71096">
            <path id="Trazado_105908" data-name="Trazado 105908" d="M314.995,142.97a2.447,2.447,0,1,1,0-3.46A2.446,2.446,0,0,1,314.995,142.97Z" fill="#00357b"/>
            <path id="Trazado_105909" data-name="Trazado 105909" d="M320.355,148.33a2.447,2.447,0,1,1,0-3.46A2.446,2.446,0,0,1,320.355,148.33Z" fill="#00357b"/>
          </g>
          <g id="Grupo_71097" data-name="Grupo 71097">
            <path id="Trazado_105910" data-name="Trazado 105910" d="M310.636,147.329a2.447,2.447,0,1,1,0-3.46A2.447,2.447,0,0,1,310.636,147.329Z" fill="#00357b"/>
            <path id="Trazado_105911" data-name="Trazado 105911" d="M316,152.69a2.447,2.447,0,1,1,0-3.461A2.447,2.447,0,0,1,316,152.69Z" fill="#00357b"/>
          </g>
          <g id="Grupo_71098" data-name="Grupo 71098">
            <path id="Trazado_105912" data-name="Trazado 105912" d="M306.276,151.689a2.447,2.447,0,1,1,0-3.461A2.447,2.447,0,0,1,306.276,151.689Z" fill="#00357b"/>
            <path id="Trazado_105913" data-name="Trazado 105913" d="M311.637,157.049a2.447,2.447,0,1,1,0-3.461A2.449,2.449,0,0,1,311.637,157.049Z" fill="#00357b"/>
          </g>
          <g id="Grupo_71099" data-name="Grupo 71099">
            <circle id="Elipse_5347" data-name="Elipse 5347" cx="2.447" cy="2.447" r="2.447" transform="translate(297.741 151.871)" fill="#00357b"/>
            <path id="Trazado_105914" data-name="Trazado 105914" d="M307.277,161.408a2.447,2.447,0,1,1,0-3.46A2.447,2.447,0,0,1,307.277,161.408Z" fill="#00357b"/>
          </g>
        </g>
      </g>
      <path id="Trazado_105915" data-name="Trazado 105915" d="M344.364,66.4c-.315-1.623-3.159-1.51-3.626-3.1a2.453,2.453,0,0,1,1.146-2.372c.724-.588,1.584-1.135,1.865-2.025.454-1.435-1.028-2.918-2.533-2.964a4.441,4.441,0,0,0-2.66.9.785.785,0,0,1-1.25-.633,4.79,4.79,0,0,0-.355-2.227,2.193,2.193,0,0,0-2.607-1.048c-.568.259-1.217,1.756-1.424,2.362a.963.963,0,0,1-1.463.459,5.635,5.635,0,0,0-2.681-1.292,2.3,2.3,0,0,0-2.082,2.106c-.057,1.185,2.362,2.553,2.154,3.72a3.266,3.266,0,0,1-1.709,2.027,9.007,9.007,0,0,0-2.25,1.531,1.94,1.94,0,0,0-.233,2.485c.725.8,2.035.464,3.007,0s2.134-1,3.059-.45c.942.561,1.007,1.916.7,2.969a9.173,9.173,0,0,0-.775,3.171,2.741,2.741,0,0,0,5.31.711c.5-1.382-.084-3.166.936-4.223a3.052,3.052,0,0,1,2.78-.556,9.328,9.328,0,0,0,2.915.4C343.569,68.222,344.553,67.367,344.364,66.4Zm-14.924-2.23a.867.867,0,1,1,.944-.863A.906.906,0,0,1,329.44,64.169Zm.944-5.748a1.842,1.842,0,1,1,1.834,1.679A1.761,1.761,0,0,1,330.384,58.421Zm3.4,12.136a.866.866,0,1,1,.944-.863A.906.906,0,0,1,333.788,70.557Zm1.44-4.723a2.764,2.764,0,1,1,3.01-2.753A2.891,2.891,0,0,1,335.228,65.834Zm1.978-6.613a1.213,1.213,0,1,1,1.208,1.106A1.16,1.16,0,0,1,337.206,59.221Zm2.416,7.477a.867.867,0,1,1,.944-.864A.907.907,0,0,1,339.622,66.7Z" fill="#00357b" style="mix-blend-mode: overlay;isolation: isolate"/>
      <path id="Trazado_105916" data-name="Trazado 105916" d="M177.077,83.157a3.359,3.359,0,0,0-.721.616l-6.688-5.449a2.55,2.55,0,1,0-3.333,1.061l-1.71,6.094a3.923,3.923,0,1,0,3.651,4.469l7.541-2.454a3.223,3.223,0,0,0,.149.308,3.377,3.377,0,1,0,1.111-4.645ZM168.3,88.992a3.836,3.836,0,0,0-2.786-3.35l1.688-6.018a2.524,2.524,0,0,0,1.577-.356,2.606,2.606,0,0,0,.321-.244l6.738,5.491a3.364,3.364,0,0,0-.311,2.125Z" fill="#00357b" style="mix-blend-mode: overlay;isolation: isolate"/>
      <path id="Trazado_105917" data-name="Trazado 105917" d="M230.713,141.477a2.6,2.6,0,0,0-.575-.472l3.282-5.913a2,2,0,1,0-1.278-2.425l-4.939-.478a3.075,3.075,0,1,0-2.945,3.434l2.935,5.48a2.345,2.345,0,0,0-.217.157,2.647,2.647,0,1,0,3.737.217ZM225,135.51a3,3,0,0,0,2.2-2.612l4.877.472a1.987,1.987,0,0,0,.492,1.168,2.046,2.046,0,0,0,.234.214l-3.308,5.957a2.644,2.644,0,0,0-1.683.054Z" fill="#00357b" style="mix-blend-mode: overlay;isolation: isolate"/>
      <path id="Trazado_105918" data-name="Trazado 105918" d="M361.03,203.893l5.79-1.122a2.462,2.462,0,0,0,2.987,1.308,2.492,2.492,0,0,0,1.589-3.146,2.441,2.441,0,0,0-1.007-1.263l2.043-5.92a3.82,3.82,0,1,0-1.638-6.946l-3.911-4.507a2.452,2.452,0,0,0,.5-2.361,2.493,2.493,0,0,0-3.147-1.59,2.458,2.458,0,0,0-1.652,2.618l-5.514,1.069,0-.011a3.5,3.5,0,1,0-5.43,3.891l-2.241,6.5a2.458,2.458,0,0,0-.443.053,2.484,2.484,0,0,0,1.459,4.748l3.2,3.682a4.148,4.148,0,1,0,7.422,3Zm-9.541-7.336a2.426,2.426,0,0,0-.829-4.008l2.1-6.073a3.488,3.488,0,0,0,4.473-3.21l5.788-1.121a2.463,2.463,0,0,0,2.776.938c.032-.011.054-.037.086-.049l3.994,4.6a3.8,3.8,0,0,0,1.365,5.771l-2.009,5.821a2.479,2.479,0,0,0-2.68,2.333l-5.564,1.077a4.215,4.215,0,0,0-.12-.545,4.1,4.1,0,0,0-6.358-2.059Z" fill="#00357b" style="mix-blend-mode: overlay;isolation: isolate"/>
      <path id="Trazado_105919" data-name="Trazado 105919" d="M216.028,83.671l3.45-.668a1.469,1.469,0,0,0,1.78.78,1.487,1.487,0,0,0,.947-1.876,1.457,1.457,0,0,0-.6-.752l1.217-3.528a2.239,2.239,0,0,0,.979-.092,2.272,2.272,0,1,0-1.955-4.047l-2.33-2.685a1.463,1.463,0,0,0,.3-1.407,1.484,1.484,0,0,0-1.875-.947,1.464,1.464,0,0,0-.984,1.56l-3.286.636,0-.006a2.087,2.087,0,1,0-3.235,2.318L209.1,76.828a1.463,1.463,0,0,0-.263.031,1.48,1.48,0,0,0,.869,2.83l1.9,2.194a2.471,2.471,0,1,0,4.422,1.788ZM210.343,79.3a1.475,1.475,0,0,0,.364-1.494,1.46,1.46,0,0,0-.858-.894l1.249-3.619a2.078,2.078,0,0,0,2.665-1.913l3.449-.668a1.467,1.467,0,0,0,1.654.559c.02-.006.032-.022.051-.029l2.381,2.742a2.264,2.264,0,0,0,.813,3.438l-1.2,3.469a1.477,1.477,0,0,0-1.6,1.39L216,82.923a2.4,2.4,0,0,0-3.2-1.9,2.414,2.414,0,0,0-.665.351Z" fill="#00357b" style="mix-blend-mode: overlay;isolation: isolate"/>
    </g>
  </g>
</svg>
