<svg xmlns="http://www.w3.org/2000/svg" width="295" height="155.644" viewBox="0 0 295 155.644">
  <g id="Grupo_71644" data-name="Grupo 71644" transform="translate(-180.371 -267.521)">
    <path id="Trazado_106458" data-name="Trazado 106458" d="M483.639,422.905c-16.861,0-262.483.051-262.625-.32l-.024-.047a.225.225,0,0,1-.024-.069c-.094-.186-37.845-52.331,20.844-88.632,22.963-14.2-1.437-23.58,16.823-39.392,20.986-18.171,43.887,1.93,67.223-6.309a38.235,38.235,0,0,0,12.4-7.388,45.29,45.29,0,0,1,7.622-5.312q.629-.352,1.271-.687a54.445,54.445,0,0,1,5.085-2.317q1.762-.7,3.591-1.291h0q2.9-.942,5.952-1.627a78.887,78.887,0,0,1,8.877-1.462q1.98-.216,3.992-.342c26.074-1.646,55.417,7.611,70.56,21.14,3.049,2.724,16.912,16.82,5.984,36.2-6.9,12.233,22,23.916,32.276,37.885C509.583,398.445,483.876,422.442,483.639,422.905Z" transform="translate(-25.399)" fill="#ebf3fa"/>
    <g id="Grupo_71620" data-name="Grupo 71620" transform="translate(225.14 390.628)">
      <path id="Trazado_106459" data-name="Trazado 106459" d="M613.954,1389.226s1.483-8.076-4.843-8.977c0,0-4.281-.074-6.772,1.583,0,0,7.227,4.005,6.4,5.3s-7.731-5.043-7.731-5.043-7.611,3.494-9.28,5.956c0,0,9.091,1.456,7.969,2.511s-10.653-.021-10.653-.021-6.041,5.043-3.3,8.925,5.783,3.8,6.735,3.1,5.573-6.424,6.186-5.667-1.38,5.557-3.81,7.141c0,0,7.761,2.462,10.027-.87s1.147-5.874,2.584-7.908,3.111-3,2.833-1.622-3.306,4.332-3.273,6.965-.195,4.554,2.771,2.173,6.865-7.834,5.513-10.692Z" transform="translate(-585.028 -1380.249)" fill="#82b378"/>
      <g id="Grupo_71619" data-name="Grupo 71619" transform="translate(4.071 8.511)">
        <path id="Trazado_106460" data-name="Trazado 106460" d="M621.821,1466.077s17.8-11.3,24.856-8.431a15.24,15.24,0,0,0,6.588,2.979l1.1.914s-5.092-1.491-6.338-1.035C648.029,1460.5,646.041,1453.024,621.821,1466.077Z" transform="translate(-621.821 -1457.179)" fill="#82b378"/>
        <path id="Trazado_106461" data-name="Trazado 106461" d="M895.766,1488.311a13.231,13.231,0,0,1,8.868,5.624l-.672.476s-4.356-4.614-7.828-5.39S895.766,1488.311,895.766,1488.311Z" transform="translate(-864.322 -1484.865)" fill="#82b378"/>
      </g>
    </g>
    <path id="Trazado_106462" data-name="Trazado 106462" d="M658.372,592.046s-.435,10.311-2.348,10.112,1.313-11.454,1.313-11.454-8.156-6.549-11.84-7.037c0,0,3.455,10.969,1.649,10.3s-5.931-11.912-5.931-11.912-9.009-3.93-11.816,1.3-1.014,8.584.3,9.257,10.29,2.635,9.788,3.743-6.978,1.564-10.106-.264c0,0,1.587,10.045,6.576,10.714s7.2-2,10.278-1.533,5.1,1.8,3.4,2.258-6.687-1.272-9.609.236-5.2,2.328-.878,4.31,12.588,3.291,15.025.182l.3-.389a1.893,1.893,0,0,1-.3.389c.723.682,1.437,3.3,1.892,5.286.053.332.152.8.311,1.437h0c.058.285.1.518.135.681.669,4.369-1.78,11.076-1.78,11.076l.908.485a16.526,16.526,0,0,0,1.325-13.049,19.036,19.036,0,0,1-.354-9.024s9.851-2.857,7.321-10.427C663.925,598.725,661.615,593.9,658.372,592.046Z" transform="translate(-398.028 -278.479)" fill="#aec3ff" opacity="0.5"/>
    <path id="Trazado_106463" data-name="Trazado 106463" d="M1884.824,1139.91s-14.595,5.8-13.347,8.453,15.8-7.64,15.8-7.64,13.505,8.427,16.057,13.475c0,0-17.494.547-15.633,2.808s20.092,2.536,20.092,2.536,10.172,10.969,4.071,17.627-11.823,5.768-13.449,4.219-8.954-13.46-10.294-12.181,1.258,10.811,5.457,14.385c0,0-15.229,2.767-18.7-4.065s-.742-11.353-2.961-15.536-5.139-6.417-4.95-3.743,5.186,8.967,4.488,13.924-.734,8.633-5.751,3.427-11.051-16.43-7.809-21.493l.405-.633a2.871,2.871,0,0,0-.405.633c-1.343-.7-5.462-.407-8.545-.063-.5.09-1.224.183-2.22.275h0c-.439.06-.8.111-1.046.148-6.613,1.233-15.018,8.122-15.018,8.122l-1.153-1.061a25.151,25.151,0,0,1,18.081-8.459,28.972,28.972,0,0,0,13.142-4.025s-.844-15.587,11.3-15.756C1872.439,1135.287,1880.529,1136.182,1884.824,1139.91Z" transform="translate(-1467.045 -771.76)" fill="#8cacf4" opacity="0.5"/>
    <path id="Trazado_106464" data-name="Trazado 106464" d="M851.775,662.351H966.036l10.382-125.035-120.7.11c-1.046,0-5.724-.111-5.984,4.166l-4.7,111.277C844.853,658.031,847.924,662.351,851.775,662.351Z" transform="translate(-591.122 -239.946)" fill="#6c7aff"/>
    <g id="Grupo_71621" data-name="Grupo 71621" transform="translate(342.731 277.28)" opacity="0.5">
      <path id="Trazado_106465" data-name="Trazado 106465" d="M1657.933,384.87s2.127-17.819,11.258-28.452a1.993,1.993,0,0,1,3.5,1.349q0,.047,0,.094C1672.567,361.04,1662.344,374.447,1657.933,384.87Z" transform="translate(-1656.823 -355.726)" fill="#aec3ff" opacity="0.5"/>
      <path id="Trazado_106466" data-name="Trazado 106466" d="M1647.9,404.345s9.1-22.272,24.639-32.122a2.114,2.114,0,0,1,2.866.542,3.354,3.354,0,0,1,.135,3.012C1674.3,379.695,1656.972,392.881,1647.9,404.345Z" transform="translate(-1647.902 -370.099)" fill="#aec3ff" opacity="0.5"/>
    </g>
    <g id="Grupo_71623" data-name="Grupo 71623" transform="translate(209.456 351.723)">
      <path id="Trazado_106467" data-name="Trazado 106467" d="M484.368,1057.615s11.206-6.275,5.976-14.791c0,0-4.183-5.229-8.666-6.574,0,0,2.39,12.7,0,13s-1.643-14.343-1.643-14.343-11.8-5.677-16.435-5.229c0,0,7.321,12.4,4.93,12.1s-10.608-12.849-10.608-12.849-12.1-2.241-14.044,4.93,1.2,10.757,2.988,11.206,13.3.3,13,1.793-8.068,3.885-12.4,2.54c0,0,4.781,11.8,11.056,11.206s8.218-4.482,12.1-4.781,6.723.747,4.781,1.793-8.516.343-11.654,3.01-5.677,4.311.15,5.506,16.286.448,18.377-4.034Z" transform="translate(-443.266 -1028.597)" fill="#a8d29f"/>
      <g id="Grupo_71622" data-name="Grupo 71622" transform="translate(6.141 7.503)">
        <path id="Trazado_106468" data-name="Trazado 106468" d="M498.771,1096.416s31.376,10.16,34.962,21.515a23.835,23.835,0,0,0,2.988,10.907v2.241s-3.287-7.62-5.08-8.666C531.641,1122.413,538.663,1112.552,498.771,1096.416Z" transform="translate(-498.771 -1096.416)" fill="#82b378"/>
        <path id="Trazado_106469" data-name="Trazado 106469" d="M829.738,1378.254a20.694,20.694,0,0,1,2.08,16.292l-1.245-.334s1.208-9.852-1.323-14.807S829.738,1378.254,829.738,1378.254Z" transform="translate(-791.788 -1345.832)" fill="#82b378"/>
      </g>
    </g>
    <path id="Trazado_106470" data-name="Trazado 106470" d="M1071.951,662.274l-121.319.112c-2.265,0-4.271-2.082-4.679-4.86l-13.718-93.435-.837-5.7-2.159-14.711c-.487-3.317,1.472-6.249,4.176-6.252l121.319-.111c2.265,0,4.271,2.081,4.679,4.86l2.38,16.214.819,5.583,13.515,92.049C1076.614,659.339,1074.656,662.272,1071.951,662.274Z" transform="translate(-665.951 -239.946)" fill="#ccdbfd"/>
    <path id="Trazado_106471" data-name="Trazado 106471" d="M1061.793,558.39H931.4l-2.159-14.711c-.487-3.317,1.472-6.249,4.176-6.252l121.319-.111c2.265,0,4.271,2.081,4.679,4.86Z" transform="translate(-665.951 -239.946)" fill="#739af0"/>
    <g id="Grupo_71624" data-name="Grupo 71624" transform="translate(338.313 309.462)">
      <path id="Trazado_106472" data-name="Trazado 106472" d="M1608.015,649.542a2.271,2.271,0,0,1,2.392-2.782,3.527,3.527,0,0,1,2.342.83l-.507.7a2.715,2.715,0,0,0-1.688-.663,1.508,1.508,0,0,0-1.507,1.913,2.3,2.3,0,0,0,2.19,1.9,1.856,1.856,0,0,0,1.484-.7l.742.612a2.454,2.454,0,0,1-2.1.956A3.429,3.429,0,0,1,1608.015,649.542Z" transform="translate(-1607.969 -646.743)" fill="#f0f5ff"/>
      <path id="Trazado_106473" data-name="Trazado 106473" d="M1665.39,649.391a2.3,2.3,0,0,1,2.44-2.782,3.461,3.461,0,0,1,3.417,2.767,2.3,2.3,0,0,1-2.44,2.782A3.461,3.461,0,0,1,1665.39,649.391Zm4.825-.013a2.332,2.332,0,0,0-2.246-1.9,1.519,1.519,0,0,0-1.547,1.913,2.332,2.332,0,0,0,2.246,1.9A1.519,1.519,0,0,0,1670.216,649.378Z" transform="translate(-1658.998 -646.609)" fill="#f0f5ff"/>
      <path id="Trazado_106474" data-name="Trazado 106474" d="M1730.557,647.228l.912,0,3.665,3.7-.664-3.71.968,0,.96,5.365-.824,0-3.772-3.809.683,3.817-.968,0Z" transform="translate(-1716.994 -647.148)" fill="#f0f5ff"/>
      <path id="Trazado_106475" data-name="Trazado 106475" d="M1791.443,647.95l-1.776,0-.156-.874,4.546-.012.156.874-1.777,0,.8,4.491-.992,0Z" transform="translate(-1769.425 -647.018)" fill="#f0f5ff"/>
      <path id="Trazado_106476" data-name="Trazado 106476" d="M1845.424,646.944l4.154-.011.151.843-3.169.008.25,1.395,2.809-.007.151.843-2.809.007.258,1.441,3.209-.008.151.843-4.194.011Z" transform="translate(-1819.153 -646.897)" fill="#f0f5ff"/>
      <path id="Trazado_106477" data-name="Trazado 106477" d="M1899.315,646.788l.912,0,3.665,3.7-.664-3.709.969,0,.96,5.365-.824,0-3.772-3.809.683,3.817-.969,0Z" transform="translate(-1867.082 -646.757)" fill="#f0f5ff"/>
      <path id="Trazado_106478" data-name="Trazado 106478" d="M1960.2,647.51l-1.776,0-.156-.874,4.545-.012.156.874-1.776,0L1962,652l-.993,0Z" transform="translate(-1919.513 -646.627)" fill="#f0f5ff"/>
    </g>
    <path id="Trazado_106479" data-name="Trazado 106479" d="M1185.1,1351.917h-13.343a2.454,2.454,0,0,1-2.339-2.024l-2.074-13.343a1.69,1.69,0,0,1,1.71-2.024H1182.4a2.454,2.454,0,0,1,2.339,2.024l2.074,13.343A1.69,1.69,0,0,1,1185.1,1351.917Z" transform="translate(-877.758 -948.955)" fill="#739af0" opacity="0.3"/>
    <path id="Trazado_106480" data-name="Trazado 106480" d="M1387.344,1351.917H1374a2.454,2.454,0,0,1-2.339-2.024l-2.074-13.343a1.69,1.69,0,0,1,1.71-2.024h13.343a2.454,2.454,0,0,1,2.339,2.024l2.074,13.343A1.69,1.69,0,0,1,1387.344,1351.917Z" transform="translate(-1057.626 -948.955)" fill="#739af0" opacity="0.3"/>
    <path id="Trazado_106481" data-name="Trazado 106481" d="M1150.411,1125.514h-13.343a2.454,2.454,0,0,1-2.339-2.024l-2.074-13.343a1.69,1.69,0,0,1,1.71-2.024h13.343a2.454,2.454,0,0,1,2.339,2.024l2.074,13.343A1.69,1.69,0,0,1,1150.411,1125.514Z" transform="translate(-846.906 -747.6)" fill="#739af0" opacity="0.3"/>
    <path id="Trazado_106482" data-name="Trazado 106482" d="M1176.444,1132.626l4.06.543-2.371,2.743,1.372,3.85-3.869-1.8-3.212,1.837-.02-3.857-3.357-2.715,3.857-.582,1.137-3.515Z" transform="translate(-879.294 -766.283)" fill="#f77d48"/>
    <path id="Trazado_106483" data-name="Trazado 106483" d="M1924.7,905.606h-13.343a2.454,2.454,0,0,1-2.339-2.024l-2.074-13.343a1.69,1.69,0,0,1,1.71-2.025h13.343a2.454,2.454,0,0,1,2.339,2.025l2.074,13.343A1.69,1.69,0,0,1,1924.7,905.606Z" transform="translate(-1535.53 -552.022)" fill="#739af0" opacity="0.3"/>
    <path id="Trazado_106484" data-name="Trazado 106484" d="M1204.4,1393.322l3.063-7.826,4.033,4.349,1.324-1.743,4.375,5.21Z" transform="translate(-910.737 -994.287)" fill="#6c7aff"/>
    <path id="Trazado_106485" data-name="Trazado 106485" d="M1249.291,1366.3a.928.928,0,0,1,.951-1.124,1.413,1.413,0,0,1,1.347,1.122.928.928,0,0,1-.952,1.124A1.412,1.412,0,0,1,1249.291,1366.3Z" transform="translate(-950.645 -976.214)" fill="#6c7aff"/>
    <path id="Trazado_106486" data-name="Trazado 106486" d="M1589.588,1351.917h-13.343a2.454,2.454,0,0,1-2.339-2.024l-2.074-13.343a1.69,1.69,0,0,1,1.709-2.024h13.343a2.454,2.454,0,0,1,2.339,2.024l2.074,13.343A1.69,1.69,0,0,1,1589.588,1351.917Z" transform="translate(-1237.495 -948.955)" fill="#739af0" opacity="0.3"/>
    <g id="Grupo_71625" data-name="Grupo 71625" transform="translate(338.491 388.961)">
      <path id="Trazado_106487" data-name="Trazado 106487" d="M1609.578,1393.322l3.063-7.826,4.033,4.349L1618,1388.1l4.375,5.21Z" transform="translate(-1609.578 -1383.248)" fill="#6c7aff"/>
      <path id="Trazado_106488" data-name="Trazado 106488" d="M1654.468,1366.3a.928.928,0,0,1,.952-1.124,1.413,1.413,0,0,1,1.348,1.122.928.928,0,0,1-.952,1.124A1.412,1.412,0,0,1,1654.468,1366.3Z" transform="translate(-1649.486 -1365.175)" fill="#6c7aff"/>
    </g>
    <path id="Trazado_106489" data-name="Trazado 106489" d="M1757.143,1125.514H1743.8a2.454,2.454,0,0,1-2.339-2.024l-2.074-13.343a1.69,1.69,0,0,1,1.71-2.024h13.343a2.454,2.454,0,0,1,2.339,2.024l2.074,13.343A1.69,1.69,0,0,1,1757.143,1125.514Z" transform="translate(-1386.512 -747.6)" fill="#739af0" opacity="0.3"/>
    <g id="Grupo_71626" data-name="Grupo 71626" transform="translate(356.416 363.143)">
      <path id="Trazado_106490" data-name="Trazado 106490" d="M1771.6,1159.965l3.063-7.826,4.033,4.349,1.324-1.743,4.375,5.21Z" transform="translate(-1771.597 -1149.89)" fill="#6c7aff"/>
      <path id="Trazado_106491" data-name="Trazado 106491" d="M1816.486,1132.941a.928.928,0,0,1,.952-1.124,1.413,1.413,0,0,1,1.347,1.122.928.928,0,0,1-.952,1.124A1.413,1.413,0,0,1,1816.486,1132.941Z" transform="translate(-1811.504 -1131.817)" fill="#6c7aff"/>
    </g>
    <path id="Trazado_106492" data-name="Trazado 106492" d="M1317.965,905.606h-13.343a2.454,2.454,0,0,1-2.339-2.024l-2.074-13.343a1.69,1.69,0,0,1,1.71-2.025h13.343a2.454,2.454,0,0,1,2.339,2.025l2.074,13.343A1.69,1.69,0,0,1,1317.965,905.606Z" transform="translate(-995.923 -552.022)" fill="#739af0" opacity="0.3"/>
    <path id="Trazado_106493" data-name="Trazado 106493" d="M1349.732,920.212l1.818,10.312,7.114-5.162Z" transform="translate(-1039.989 -580.48)" fill="#f77d48"/>
    <path id="Trazado_106494" data-name="Trazado 106494" d="M1554.9,1125.514h-13.343a2.454,2.454,0,0,1-2.339-2.024l-2.074-13.343a1.69,1.69,0,0,1,1.709-2.024H1552.2a2.454,2.454,0,0,1,2.339,2.024l2.074,13.343A1.69,1.69,0,0,1,1554.9,1125.514Z" transform="translate(-1206.644 -747.6)" fill="#f77d48"/>
    <path id="Trazado_106495" data-name="Trazado 106495" d="M1590.624,1140.12l1.818,10.311,7.114-5.162Z" transform="translate(-1254.229 -776.058)" fill="#ffe6c2"/>
    <path id="Trazado_106496" data-name="Trazado 106496" d="M1959.387,1125.514h-13.343a2.454,2.454,0,0,1-2.339-2.024l-2.074-13.343a1.69,1.69,0,0,1,1.71-2.024h13.343a2.454,2.454,0,0,1,2.339,2.024l2.074,13.343A1.69,1.69,0,0,1,1959.387,1125.514Z" transform="translate(-1566.381 -747.6)" fill="#739af0" opacity="0.3"/>
    <path id="Trazado_106497" data-name="Trazado 106497" d="M1791.832,1351.917h-13.343a2.454,2.454,0,0,1-2.339-2.024l-2.074-13.343a1.69,1.69,0,0,1,1.71-2.024h13.343a2.455,2.455,0,0,1,2.339,2.024l2.074,13.343A1.69,1.69,0,0,1,1791.832,1351.917Z" transform="translate(-1417.363 -948.955)" fill="#739af0" opacity="0.3"/>
    <path id="Trazado_106498" data-name="Trazado 106498" d="M1520.209,905.606h-13.343a2.454,2.454,0,0,1-2.339-2.024l-2.074-13.343a1.69,1.69,0,0,1,1.71-2.025h13.343a2.454,2.454,0,0,1,2.339,2.025l2.074,13.343A1.69,1.69,0,0,1,1520.209,905.606Z" transform="translate(-1175.792 -552.022)" fill="#739af0" opacity="0.3"/>
    <g id="Grupo_71627" data-name="Grupo 71627" transform="translate(331.233 341.764)">
      <path id="Trazado_106499" data-name="Trazado 106499" d="M1553.22,939.3l-8.885.007a.36.36,0,0,1-.355-.3h0a.36.36,0,0,1,.354-.422l8.885-.007a.36.36,0,0,1,.355.3h0A.36.36,0,0,1,1553.22,939.3Z" transform="translate(-1543.974 -938.582)" fill="#6c7aff"/>
      <path id="Trazado_106500" data-name="Trazado 106500" d="M1556.459,957.676l-8.885.007a.36.36,0,0,1-.355-.3h0a.36.36,0,0,1,.354-.422l8.885-.007a.36.36,0,0,1,.355.3h0A.36.36,0,0,1,1556.459,957.676Z" transform="translate(-1546.855 -954.923)" fill="#6c7aff"/>
      <path id="Trazado_106501" data-name="Trazado 106501" d="M1559.7,976.051l-8.885.007a.36.36,0,0,1-.355-.3h0a.36.36,0,0,1,.354-.423l8.885-.007a.36.36,0,0,1,.355.3h0A.36.36,0,0,1,1559.7,976.051Z" transform="translate(-1549.737 -971.265)" fill="#6c7aff"/>
    </g>
    <g id="Grupo_71628" data-name="Grupo 71628" transform="translate(379.822 366.094)">
      <path id="Trazado_106502" data-name="Trazado 106502" d="M1992.4,1159.209l-8.885.007a.36.36,0,0,1-.355-.3h0a.36.36,0,0,1,.354-.422l8.885-.007a.36.36,0,0,1,.355.3h0A.36.36,0,0,1,1992.4,1159.209Z" transform="translate(-1983.152 -1158.489)" fill="#6c7aff"/>
      <path id="Trazado_106503" data-name="Trazado 106503" d="M1995.636,1177.583l-8.885.007a.36.36,0,0,1-.355-.3h0a.36.36,0,0,1,.354-.423l8.885-.007a.36.36,0,0,1,.355.3h0A.36.36,0,0,1,1995.636,1177.583Z" transform="translate(-1986.032 -1174.83)" fill="#6c7aff"/>
      <path id="Trazado_106504" data-name="Trazado 106504" d="M1998.877,1195.958l-8.885.007a.36.36,0,0,1-.355-.3h0a.36.36,0,0,1,.354-.423l8.885-.007a.36.36,0,0,1,.355.3h0A.36.36,0,0,1,1998.877,1195.958Z" transform="translate(-1988.915 -1191.172)" fill="#6c7aff"/>
    </g>
    <g id="Grupo_71629" data-name="Grupo 71629" transform="translate(316.534 391.869)">
      <path id="Trazado_106505" data-name="Trazado 106505" d="M1420.354,1392.184l-8.885.007a.36.36,0,0,1-.355-.3h0a.36.36,0,0,1,.354-.423l8.885-.007a.36.36,0,0,1,.355.3h0A.361.361,0,0,1,1420.354,1392.184Z" transform="translate(-1411.109 -1391.464)" fill="#6c7aff"/>
      <path id="Trazado_106506" data-name="Trazado 106506" d="M1423.594,1410.559l-8.885.007a.36.36,0,0,1-.355-.3h0a.36.36,0,0,1,.354-.422l8.885-.007a.36.36,0,0,1,.355.3h0A.36.36,0,0,1,1423.594,1410.559Z" transform="translate(-1413.99 -1407.806)" fill="#6c7aff"/>
      <path id="Trazado_106507" data-name="Trazado 106507" d="M1426.833,1428.934l-8.885.007a.36.36,0,0,1-.355-.3h0a.36.36,0,0,1,.354-.423l8.885-.007a.36.36,0,0,1,.355.3h0A.36.36,0,0,1,1426.833,1428.934Z" transform="translate(-1416.871 -1424.148)" fill="#6c7aff"/>
    </g>
    <g id="Grupo_71630" data-name="Grupo 71630" transform="translate(361.284 391.869)">
      <path id="Trazado_106508" data-name="Trazado 106508" d="M1824.843,1392.184l-8.885.007a.361.361,0,0,1-.355-.3h0a.36.36,0,0,1,.354-.423l8.885-.007a.36.36,0,0,1,.355.3h0A.36.36,0,0,1,1824.843,1392.184Z" transform="translate(-1815.597 -1391.464)" fill="#6c7aff"/>
      <path id="Trazado_106509" data-name="Trazado 106509" d="M1828.082,1410.559l-8.885.007a.36.36,0,0,1-.355-.3h0a.36.36,0,0,1,.354-.422l8.885-.007a.36.36,0,0,1,.355.3h0A.36.36,0,0,1,1828.082,1410.559Z" transform="translate(-1818.478 -1407.806)" fill="#6c7aff"/>
      <path id="Trazado_106510" data-name="Trazado 106510" d="M1831.321,1428.934l-8.885.007a.36.36,0,0,1-.355-.3h0a.36.36,0,0,1,.354-.423l8.885-.007a.361.361,0,0,1,.355.3h0A.36.36,0,0,1,1831.321,1428.934Z" transform="translate(-1821.359 -1424.148)" fill="#6c7aff"/>
    </g>
    <path id="Trazado_106511" data-name="Trazado 106511" d="M1352.655,1125.514h-13.343a2.454,2.454,0,0,1-2.339-2.024l-2.074-13.343a1.69,1.69,0,0,1,1.71-2.024h13.343a2.454,2.454,0,0,1,2.339,2.024l2.074,13.343A1.69,1.69,0,0,1,1352.655,1125.514Z" transform="translate(-1026.775 -747.6)" fill="#739af0" opacity="0.3"/>
    <path id="Trazado_106512" data-name="Trazado 106512" d="M1376.949,1142.727h-.037a.95.95,0,0,1-.676-.373,30.482,30.482,0,0,0-5.117-5.276c-.3-.242-.383-.593-.192-.784a.7.7,0,0,1,.883.092,32.974,32.974,0,0,1,4.493,4.418,17.841,17.841,0,0,1,4.907-9.074.7.7,0,0,1,.884.095c.3.243.381.594.19.784a17.223,17.223,0,0,0-4.91,9.8A.39.39,0,0,1,1376.949,1142.727Z" transform="translate(-1058.749 -768.491)" fill="#f77d48"/>
    <path id="Trazado_106513" data-name="Trazado 106513" d="M1094.953,805.468H1081.7a1.864,1.864,0,0,1-1.756-1.453h0a1.17,1.17,0,0,1,1.189-1.453h13.254a1.864,1.864,0,0,1,1.756,1.453h0A1.17,1.17,0,0,1,1094.953,805.468Z" transform="translate(-800.023 -475.847)" fill="#f99746"/>
    <path id="Trazado_106514" data-name="Trazado 106514" d="M1291.251,805.468H1278a1.864,1.864,0,0,1-1.756-1.453h0a1.17,1.17,0,0,1,1.19-1.453h13.254a1.864,1.864,0,0,1,1.756,1.453h0A1.17,1.17,0,0,1,1291.251,805.468Z" transform="translate(-974.604 -475.847)" fill="#f99746"/>
    <path id="Trazado_106515" data-name="Trazado 106515" d="M1503.967,805.468h-13.254a1.864,1.864,0,0,1-1.756-1.453h0a1.17,1.17,0,0,1,1.189-1.453H1503.4a1.864,1.864,0,0,1,1.756,1.453h0A1.169,1.169,0,0,1,1503.967,805.468Z" transform="translate(-1163.786 -475.847)" fill="#f99746"/>
    <path id="Trazado_106516" data-name="Trazado 106516" d="M1707.825,805.468h-13.254a1.864,1.864,0,0,1-1.756-1.453h0a1.17,1.17,0,0,1,1.189-1.453h13.254a1.864,1.864,0,0,1,1.756,1.453h0A1.17,1.17,0,0,1,1707.825,805.468Z" transform="translate(-1345.09 -475.847)" fill="#f99746"/>
    <path id="Trazado_106517" data-name="Trazado 106517" d="M1911.9,805.468h-13.254a1.864,1.864,0,0,1-1.756-1.453h0a1.17,1.17,0,0,1,1.189-1.453h13.254a1.864,1.864,0,0,1,1.756,1.453h0A1.17,1.17,0,0,1,1911.9,805.468Z" transform="translate(-1526.584 -475.847)" fill="#f99746"/>
    <g id="Grupo_71631" data-name="Grupo 71631" transform="translate(349.012 336.192)">
      <path id="Trazado_106518" data-name="Trazado 106518" d="M1722.454,905.606h-13.343a2.454,2.454,0,0,1-2.339-2.024l-2.074-13.343a1.69,1.69,0,0,1,1.71-2.025h13.343a2.454,2.454,0,0,1,2.339,2.025l2.074,13.343A1.69,1.69,0,0,1,1722.454,905.606Z" transform="translate(-1704.673 -888.214)" fill="#f77d48"/>
    </g>
    <path id="Trazado_106519" data-name="Trazado 106519" d="M1746.748,923.417h-.037a.951.951,0,0,1-.676-.373,30.488,30.488,0,0,0-5.117-5.276c-.3-.242-.383-.593-.192-.784a.7.7,0,0,1,.883.092,33,33,0,0,1,4.493,4.418,17.841,17.841,0,0,1,4.906-9.074.7.7,0,0,1,.884.1c.3.243.381.594.19.784a17.224,17.224,0,0,0-4.91,9.8A.39.39,0,0,1,1746.748,923.417Z" transform="translate(-1387.635 -573.444)" fill="#ffe6c2"/>
    <g id="Grupo_71636" data-name="Grupo 71636" transform="translate(364.026 319.955)">
      <g id="Grupo_71632" data-name="Grupo 71632" transform="translate(40.301 15.773)">
        <path id="Trazado_106520" data-name="Trazado 106520" d="M2383.261,1129.275a18.664,18.664,0,0,1,.853,3.529,12.794,12.794,0,0,1-1.083,3.476c-.418.575-.625-2.34-.956-2.778s-.068,1.1-.3,1.239-.72-1.13-.929-1.578.511-2.1.514-3.256S2383.261,1129.275,2383.261,1129.275Z" transform="translate(-2361.316 -1102.036)" fill="#ffb27d"/>
        <path id="Trazado_106521" data-name="Trazado 106521" d="M2204.659,888.44a4.078,4.078,0,0,1,6.144-3.838c.058.035.115.071.172.108,4.229,2.722,13.354,15.423,13.981,16.7s2.481,11.395,2.481,11.395-2.29.838-3.362-.031c0,0-3.715-9.6-4.264-10.08s-14.858-8.509-14.98-11.519C2204.8,890.374,2204.736,889.417,2204.659,888.44Z" transform="translate(-2204.646 -884.014)" fill="#233862"/>
      </g>
      <g id="Grupo_71633" data-name="Grupo 71633" transform="translate(0 12.001)">
        <rect id="Rectángulo_8954" data-name="Rectángulo 8954" width="3.525" height="24.212" transform="matrix(-0.329, -0.944, 0.944, -0.329, 5.896, 11.839)" fill="#f99746"/>
        <path id="Trazado_106522" data-name="Trazado 106522" d="M1840.375,930.357l5.9-.186-1.159-3.329Z" transform="translate(-1840.375 -918.332)" fill="#f9ddbf"/>
        <path id="Trazado_106523" data-name="Trazado 106523" d="M2092.975,850.848l.224.643a1.464,1.464,0,0,1-.9,1.864l-1.276.444-1.159-3.329,1.355-.472A1.38,1.38,0,0,1,2092.975,850.848Z" transform="translate(-2062.261 -849.921)" fill="#f9ddbf"/>
      </g>
      <g id="Grupo_71634" data-name="Grupo 71634" transform="translate(34.908 45.226)">
        <path id="Trazado_106524" data-name="Trazado 106524" d="M2385.909,1590.058s1.705,1.556,1.372,2.662-1.871,1.843-2.079,3.194-1.04,2.088-1.788,2.088h-3.569s-.551-.951.78-1.238,1.832-1.874,1.749-3.349a25.969,25.969,0,0,1,.125-3.44l2.828-.655Z" transform="translate(-2354.968 -1540.743)" fill="#1c3051"/>
        <path id="Trazado_106525" data-name="Trazado 106525" d="M2165.925,1621.343s.306,3.541-.443,3.91l-9.58-.02s0-1.105,1.539-1.351,4.242-1.147,4.7-3.153S2165.925,1621.343,2165.925,1621.343Z" transform="translate(-2155.902 -1568.003)" fill="#1c3051"/>
        <path id="Trazado_106526" data-name="Trazado 106526" d="M2173.387,1173.3s.505,6.207,1.1,13.669c.807,10.136,1.778,22.586,1.874,24.945.166,4.1.832,10.647.832,10.647s1.58,1.556,4.741.9a105.72,105.72,0,0,0,3.622-19.247c.012-.162.025-.326.038-.489.749-10.073,1.912-31.285,1.912-31.285Z" transform="translate(-2171.453 -1169.987)" fill="#f99746"/>
        <path id="Trazado_106527" data-name="Trazado 106527" d="M2173.387,1173.3s.505,6.207,1.1,13.669l11.069,17.245c.012-.162.025-.326.038-.489.749-10.073,1.912-31.285,1.912-31.285Z" transform="translate(-2171.453 -1169.987)" fill="#ef7e29"/>
        <path id="Trazado_106528" data-name="Trazado 106528" d="M2194.243,1154.292s9.107,22.48,15.1,33.045,7.86,13.513,7.86,13.513,3.431-1.351,3.743-2.273c0,0-2.29-20.4-6.3-25.367-2.266-2.81-4.928-11.24-5.053-14.189s-.811-8.783-.811-8.783Z" transform="translate(-2190.001 -1150.238)" fill="#f99746"/>
      </g>
      <path id="Trazado_106529" data-name="Trazado 106529" d="M2187.444,822.555s-6.1,3.095-9.676,2.063a5.244,5.244,0,0,0,2.056-3.822,9.727,9.727,0,0,0-.188-1.894l2.34-1.917,2.218-1.834A9.086,9.086,0,0,0,2187.444,822.555Z" transform="translate(-2140.44 -806.997)" fill="#ffb27d"/>
      <path id="Trazado_106530" data-name="Trazado 106530" d="M2168.766,898.161a25.139,25.139,0,0,1-7.526,3.242c-3.219.764-7.177.538-8.5.74a.551.551,0,0,1-.386-.1c-.1-.053-.688-3.981-1.273-8.937-.026-.2-.053-.4-.064-.6l-.009-.067c-.228-1.938-.427-3.973-.6-6.014-.141-1.588-.258-3.158-.338-4.633-.1-1.845-.144-3.54-.1-4.935.019-.637.056-1.21.113-1.708a12.145,12.145,0,0,1,3.031-6.5l1.079-1.228a5.915,5.915,0,0,0,3.733-.953c1.318-.867,2.74-1.8,3.008-1.645,2.019,1.1,3.664,3.968,4.838,7.75a43.1,43.1,0,0,1,1.521,7.262c.106.812.2,1.644.266,2.474.014.154.025.307.037.458.158,2.267.417,4.391.7,6.288.386,2.559.825,4.7,1.136,6.212.156.768.275,1.362.345,1.788C2169.841,897.422,2169.1,897.954,2168.766,898.161Z" transform="translate(-2115.701 -851.155)" fill="#2b478b"/>
      <path id="Trazado_106531" data-name="Trazado 106531" d="M2199.292,831.816a8.166,8.166,0,0,1-4.449,3.721c-.157-1.37-.188-1.894-.188-1.894l2.34-1.917Z" transform="translate(-2155.458 -821.739)" fill="#ed985f"/>
      <path id="Trazado_106532" data-name="Trazado 106532" d="M2174.917,771.153s5.9.845,6.376-2.779,1.564-5.956-2.18-6.648-4.661.6-5.12,1.768S2173.4,770.839,2174.917,771.153Z" transform="translate(-2136.806 -759.308)" fill="#ffb27d"/>
      <path id="Trazado_106533" data-name="Trazado 106533" d="M2167.292,743.35c.052-.062.174-.114.448-.134a1.112,1.112,0,0,0-.515-.134,1.378,1.378,0,0,0-.939-1.2.822.822,0,0,1,.41.585c-.775-.765-2.413-1.3-6.91-.855-5.927.586-3.9,4.348-3.117,4.786s2.687-.843,4.121-.758,1.747,2.149,2.239,2.423.29-.224.941-.534.736.778.56,1.49.746,1.628.746,1.628l.893-1c.893-1,1.67-5.181,1.238-6.06C2167.368,743.508,2167.331,743.429,2167.292,743.35Z" transform="translate(-2120.81 -741.449)" fill="#2c3a64"/>
      <path id="Trazado_106534" data-name="Trazado 106534" d="M2160.311,974.081s-4.972,3.783-10.241,4.612c-.1-1.845-.144-3.54-.1-4.935Z" transform="translate(-2115.701 -948.056)" fill="#233862"/>
      <g id="Grupo_71635" data-name="Grupo 71635" transform="translate(8.634 17.027)">
        <path id="Trazado_106535" data-name="Trazado 106535" d="M1923.856,906.521c-.079-.084-1.092-3.473-2.845-3.226-1.144.161-3.013.824-2.517,2.33.2.593,3.68,2.634,3.68,2.634Z" transform="translate(-1918.412 -902.404)" fill="#ffb27d"/>
        <path id="Trazado_106536" data-name="Trazado 106536" d="M1983.468,897.04a4.078,4.078,0,0,1-.427,7.232l-.187.078c-4.668,1.872-20.307,1.96-21.708,1.735s-10.728-4.573-10.728-4.573.643-2.353,1.972-2.723c0,0,9.978,2.528,10.688,2.358s15.54-7.189,18.065-5.546C1981.809,896.035,1982.627,896.537,1983.468,897.04Z" transform="translate(-1946.877 -895.352)" fill="#2b478b"/>
      </g>
    </g>
    <g id="Grupo_71640" data-name="Grupo 71640" transform="translate(235.246 319.17)">
      <path id="Trazado_106537" data-name="Trazado 106537" d="M1029.322,988.354s.548-.905.884-1.405,1-1.124,1.174-.964-.513.823-.482,1.044,1.177-.522,1.3-.689c.248-.335.9-.7.985-.275a5.518,5.518,0,0,1-.628,2.128,4.18,4.18,0,0,1-1.657,1.165c-.511.181-1.387.6-1.387.6Z" transform="translate(-990.274 -958.047)" fill="#ffb27d"/>
      <path id="Trazado_106538" data-name="Trazado 106538" d="M748.364,756.9c-.378-.73,8.255-3.358,8.392,3.844,0,0,16.172-.4,8.45-9.412-2.673-3.121-2.4-5.7-2.318-8.1s-1.665-9.383-7.651-8.68a4.457,4.457,0,0,0-3.524.377C747.263,737.237,737.3,759.558,748.364,756.9Z" transform="translate(-735.917 -734.354)" fill="#163560"/>
      <path id="Trazado_106539" data-name="Trazado 106539" d="M890.247,912.751a15.793,15.793,0,0,0,1.61,2.435c1.251,1.567,3.18,3.377,5.6,3.734a6.011,6.011,0,0,0,3.328-.54h0a15.174,15.174,0,0,0,5.153-4.308,2.4,2.4,0,0,0-.208-2.3s-6.061,1.262-6.627.979-3.865-9.788-4.65-10.983-3.464-1.815-3.464-1.815Z" transform="translate(-866.585 -881.633)" fill="#f99746"/>
      <path id="Trazado_106540" data-name="Trazado 106540" d="M903.3,1012.332c1.251,1.567,3.18,3.377,5.6,3.734a6.01,6.01,0,0,0,3.328-.54c-.115.015-3.052.378-4.223-1.717-1.194-2.137-2.486-5.531-4.26-4.4C902.978,1009.9,903.012,1011.111,903.3,1012.332Z" transform="translate(-878.026 -978.779)" fill="#ed7d2b"/>
      <path id="Trazado_106541" data-name="Trazado 106541" d="M677.879,1588.784s-1.812,1.654-1.459,2.829,1.989,1.958,2.21,3.395,1.105,2.219,1.9,2.219h3.793s.586-1.01-.829-1.315-1.948-1.992-1.859-3.559a27.609,27.609,0,0,0-.133-3.656l-3.006-.7Z" transform="translate(-676.374 -1493.557)" fill="#2358a5"/>
      <path id="Trazado_106542" data-name="Trazado 106542" d="M826.592,1601.429s-.652,7.006.144,7.4l10.182-.021s0-1.175-1.635-1.436-4.508-1.219-4.995-3.351S826.592,1601.429,826.592,1601.429Z" transform="translate(-809.749 -1505.5)" fill="#2358a5"/>
      <path id="Trazado_106543" data-name="Trazado 106543" d="M762.66,874.621c2.1-4.7,3.377-6.047,3.133-7.506-.182-1.086.555-20.239.555-20.239.249-.077.747-.146,1.019-.207a2.556,2.556,0,0,0,1.867-1.624,13.033,13.033,0,0,0,.634-4.322l.268.053,4.513.894s-.1,1.42-.106,2.758c0,.011,0,.022,0,.033a2.6,2.6,0,0,0,1.873,2.51c.57.165,1.066.305,1.066.305a41.386,41.386,0,0,1,1.974,9.591c.316,4.86-3.013,6.972.025,16.684C782.582,883.473,761.5,877.218,762.66,874.621Z" transform="translate(-753.073 -828.957)" fill="#ffb27d"/>
      <path id="Trazado_106544" data-name="Trazado 106544" d="M835.112,842.1s-.1,1.42-.106,2.758c-2.525-.071-3.86-2.375-4.407-3.652Z" transform="translate(-813.536 -829.382)" fill="#e8945b"/>
      <path id="Trazado_106545" data-name="Trazado 106545" d="M830.409,779.684s-5.975.1-5.979-3.623-.778-6.216,3.037-6.436,4.557,1.2,4.861,2.441S831.963,779.563,830.409,779.684Z" transform="translate(-807.99 -765.702)" fill="#ffb27d"/>
      <path id="Trazado_106546" data-name="Trazado 106546" d="M814.744,762.9s-1.636,4.366-4.147,5.012-3.6-.027-3.6-.027a7.11,7.11,0,0,0,2.326-4.2S813.51,760.825,814.744,762.9Z" transform="translate(-792.546 -759.072)" fill="#163560"/>
      <path id="Trazado_106547" data-name="Trazado 106547" d="M873.349,766.464a3.706,3.706,0,0,1,1.712,1.338,6.016,6.016,0,0,1,.808,3.417s1.233-2.968-.153-4.647C874.248,764.792,873.349,766.464,873.349,766.464Z" transform="translate(-851.557 -762.279)" fill="#163560"/>
      <path id="Trazado_106548" data-name="Trazado 106548" d="M867.262,838.184a1.5,1.5,0,0,0,1.237.5,1.1,1.1,0,0,0,.921-.608A4.014,4.014,0,0,0,867.262,838.184Z" transform="translate(-846.143 -826.511)" fill="#ebf3fa"/>
      <path id="Trazado_106549" data-name="Trazado 106549" d="M757.275,904.8a40.554,40.554,0,0,0,0,4.706c.1,1.7,1.822,3.981,2.066,4.544.613,1.414,1.3,1.644,1.3,1.644l5.346,1.31,1.88.46,5.928-1.77s2.7-7.536,1.616-11.778a32.606,32.606,0,0,0-2.74-7.188s-4.837,4.736-11.135-.4Z" transform="translate(-748.265 -878.404)" fill="#f99746"/>
      <path id="Trazado_106550" data-name="Trazado 106550" d="M824.7,1081.723s2.935,9.137,3.124,12.248-5.611,44.193-5.845,45.627c-.22,1.351-1.9,2.213-1.9,2.213a2.54,2.54,0,0,1-1.873.144,4.635,4.635,0,0,1-2.011-.948s-2.285-29.3-.871-39.766a165.759,165.759,0,0,0,1.431-19.517Z" transform="translate(-799.542 -1043.292)" fill="#163560"/>
      <path id="Trazado_106551" data-name="Trazado 106551" d="M706.162,1079.261s-4.478,6.008-4.9,10.069-.655,18.328-1.544,22.287-4.157,11.579-4.157,23.928a2.465,2.465,0,0,0,1.388,1.085,11.433,11.433,0,0,0,1.221.338,1.919,1.919,0,0,0,2.147-1.019c2.209-4.448,9.246-18.794,9.607-21.772.255-2.107,2.477-16.055,7.324-24.239,1.164-1.965-.714-9.779-.714-9.779Z" transform="translate(-693.442 -1041.102)" fill="#1c468a"/>
      <path id="Trazado_106552" data-name="Trazado 106552" d="M868.462,838.508s.1.439,1.194.371c0,0,.916-.057.888-.539A2.947,2.947,0,0,0,868.462,838.508Z" transform="translate(-847.21 -826.735)" fill="#fff"/>
      <path id="Trazado_106553" data-name="Trazado 106553" d="M799.149,1068.974a6.153,6.153,0,0,1-3.52.979c-2.8.056-9.725-.713-9.725-.713a5.727,5.727,0,0,0-.3,1.768s8.463,2.135,13.366.312A3.1,3.1,0,0,0,799.149,1068.974Z" transform="translate(-773.523 -1031.953)" fill="#233862"/>
      <g id="Grupo_71637" data-name="Grupo 71637" transform="translate(21.501 37.522)">
        <path id="Trazado_106554" data-name="Trazado 106554" d="M870.718,1074.944a1.286,1.286,0,1,1,1.276,1.444A1.369,1.369,0,0,1,870.718,1074.944Zm.423,0a.867.867,0,1,0,.853-1.021A.95.95,0,0,0,871.141,1074.944Z" transform="translate(-870.718 -1073.5)" fill="#fff"/>
      </g>
      <rect id="Rectángulo_8955" data-name="Rectángulo 8955" width="11.497" height="15.737" transform="matrix(-0.754, -0.657, 0.657, -0.754, 11.941, 46.224)" fill="#f77d48"/>
      <path id="Trazado_106555" data-name="Trazado 106555" d="M801.113,1084.163s3.371.518,3.361,1.272-.7,2.118-1.378,2.226c-.865.137-2.585-2.1-2.585-2.1Z" transform="translate(-786.777 -1045.462)" fill="#ffb27d"/>
      <path id="Trazado_106556" data-name="Trazado 106556" d="M806.6,1083.5a4.407,4.407,0,0,1,1.958-.242c.829.17,1.594.045,1.406.346s-1.309.189-1.487.307-.18.044-.18.044Z" transform="translate(-792.191 -1044.618)" fill="#ffb27d"/>
      <path id="Trazado_106557" data-name="Trazado 106557" d="M711.325,896.324a7.234,7.234,0,0,0-5.867,4.25c-1.626,3.952-4.711,10.588-4.711,11.7s1.723,4.558,10.977,6.536c0,0,.957-1.007.9-1.8,0,0-5.777-4.962-5.761-5.542.029-1.1.947-2.545,6.019-7.618C714.26,902.472,711.325,896.324,711.325,896.324Z" transform="translate(-698.05 -878.404)" fill="#f99746"/>
      <g id="Grupo_71639" data-name="Grupo 71639" transform="translate(38.644 16.069)">
        <path id="Trazado_106558" data-name="Trazado 106558" d="M1046.823,896.87l-13.349,4.35a2.24,2.24,0,0,1-2.769-1.338l-4.9-13.169a2.028,2.028,0,0,1,1.282-2.658l13.349-4.35a2.24,2.24,0,0,1,2.769,1.338l4.9,13.169A2.027,2.027,0,0,1,1046.823,896.87Z" transform="translate(-1025.669 -879.598)" fill="#f77d48"/>
        <g id="Grupo_71638" data-name="Grupo 71638" transform="translate(6.512 4.859)">
          <path id="Trazado_106559" data-name="Trazado 106559" d="M1084.526,962.745l1.406-9.12,4.957,3.2.955-2.24,5.481,3.98Z" transform="translate(-1084.526 -950.294)" fill="#ffe6c2"/>
          <path id="Trazado_106560" data-name="Trazado 106560" d="M1111.787,925.054a1.111,1.111,0,0,1,.714-1.476,1.289,1.289,0,0,1,1.586.725,1.111,1.111,0,0,1-.714,1.476A1.289,1.289,0,0,1,1111.787,925.054Z" transform="translate(-1108.699 -923.515)" fill="#ffe6c2"/>
        </g>
      </g>
      <path id="Trazado_106561" data-name="Trazado 106561" d="M1037.308,984.445a2.592,2.592,0,0,1,1.174-.964,9.375,9.375,0,0,0,1.25-.422c.266.286-.85.812-.863,1.295s.163,1.275-.553,1.367S1037.308,984.445,1037.308,984.445Z" transform="translate(-997.376 -955.544)" fill="#ffb27d"/>
    </g>
    <path id="Rectángulo_8956" data-name="Rectángulo 8956" d="M.391,0H294.609A.391.391,0,0,1,295,.391v0a.391.391,0,0,1-.391.391H.391A.391.391,0,0,1,0,.391v0A.391.391,0,0,1,.391,0Z" transform="translate(180.371 422.383)" fill="#233862"/>
    <g id="Grupo_71641" data-name="Grupo 71641" transform="translate(295.38 301.515)">
      <path id="Trazado_106562" data-name="Trazado 106562" d="M1321.149,619.683l17.526,3.158-11.4-8.4-.688,2.533-4.313.619Z" transform="translate(-1309.948 -610.055)" fill="#9ec3f6"/>
      <path id="Trazado_106563" data-name="Trazado 106563" d="M1248.631,615.227l-14.384-8.1-14.343-1.248Z" transform="translate(-1219.904 -602.442)" fill="#fff"/>
      <path id="Trazado_106564" data-name="Trazado 106564" d="M1376.52,579.164l11.4,8.4-8.6-12.785Z" transform="translate(-1359.193 -574.775)" fill="#fff"/>
    </g>
    <g id="Grupo_71642" data-name="Grupo 71642" transform="translate(195.387 393.505)">
      <path id="Trazado_106565" data-name="Trazado 106565" d="M330.235,1442.474l-14.137,2.547,9.2-6.773.555,2.043,3.479.5Z" transform="translate(-316.099 -1434.708)" fill="#9ec3f6"/>
      <path id="Trazado_106566" data-name="Trazado 106566" d="M316.1,1438.879l11.6-6.53,11.569-1.007Z" transform="translate(-316.099 -1428.567)" fill="#fff"/>
      <path id="Trazado_106567" data-name="Trazado 106567" d="M325.294,1409.79l-9.2,6.773,6.933-10.313Z" transform="translate(-316.099 -1406.25)" fill="#fff"/>
    </g>
    <path id="Trazado_106568" data-name="Trazado 106568" d="M954.694,1585.476a4.576,4.576,0,0,0,.036.583,4.783,4.783,0,0,0,4.75,4.2h67.312a4.787,4.787,0,0,0,0-9.573H959.48A4.786,4.786,0,0,0,954.694,1585.476Z" transform="translate(-688.656 -1167.885)" fill="#f78248"/>
    <path id="Trazado_106569" data-name="Trazado 106569" d="M995.2,1561.051h23.079a.737.737,0,0,0,.734-.734h0a.737.737,0,0,0-.734-.734H995.2a.737.737,0,0,0-.735.734h0A.737.737,0,0,0,995.2,1561.051Z" transform="translate(-724.024 -1149.113)" fill="#f78248"/>
    <rect id="Rectángulo_8957" data-name="Rectángulo 8957" width="2.502" height="0.866" transform="translate(274.949 412.805) rotate(180)" fill="#ea642f"/>
    <path id="Trazado_106570" data-name="Trazado 106570" d="M959.944,1644.651a4.794,4.794,0,0,0,4.205,2.5h14.258v-2.5Z" transform="translate(-693.325 -1224.77)" fill="#ea642f"/>
    <path id="Trazado_106571" data-name="Trazado 106571" d="M1112.123,1584.073v2.8a3.382,3.382,0,0,1-3.383,3.385h-70.118a3.382,3.382,0,0,1-3.383-3.385v-2.8a3.384,3.384,0,0,1,3.383-3.385h70.118A3.384,3.384,0,0,1,1112.123,1584.073Z" transform="translate(-760.29 -1167.885)" fill="#f99746"/>
    <path id="Trazado_106572" data-name="Trazado 106572" d="M1112.953,1644.651a3.383,3.383,0,0,1-3.265,2.5H1039.57a3.383,3.383,0,0,1-3.265-2.5Z" transform="translate(-761.238 -1224.77)" fill="#ef873a"/>
    <g id="Grupo_71643" data-name="Grupo 71643" transform="translate(344.87 412.804)">
      <path id="Trazado_106573" data-name="Trazado 106573" d="M1667.229,1585.493a5.321,5.321,0,0,0,1.392,3.7l.057.058a3.4,3.4,0,0,0,2.4,1.049c1.419,0,4.938-2.141,7.118-3.564,1.086-.709,1.841-1.239,1.841-1.239s-.754-.53-1.841-1.239c-2.18-1.423-5.7-3.565-7.118-3.565a3.174,3.174,0,0,0-1.178.228,3.855,3.855,0,0,0-1.623,1.281,5.285,5.285,0,0,0-.975,2.342.271.271,0,0,0,0,.031A5.93,5.93,0,0,0,1667.229,1585.493Z" transform="translate(-1667.229 -1580.689)" fill="#6c7aff"/>
      <path id="Trazado_106574" data-name="Trazado 106574" d="M1667.229,1616.7a5.32,5.32,0,0,0,1.392,3.7l10.791-3.713-12.112-.9A5.928,5.928,0,0,0,1667.229,1616.7Z" transform="translate(-1667.229 -1611.898)" fill="#739af0" opacity="0.7"/>
      <path id="Trazado_106575" data-name="Trazado 106575" d="M1676.719,1584.031l10.766,2.94-9.143-4.221A3.857,3.857,0,0,0,1676.719,1584.031Z" transform="translate(-1675.669 -1582.522)" fill="#abc3ef"/>
      <path id="Trazado_106576" data-name="Trazado 106576" d="M1760.026,1614.149a1.329,1.329,0,0,0,.7,1.239c1.086-.709,1.841-1.239,1.841-1.239s-.755-.53-1.841-1.239A1.326,1.326,0,0,0,1760.026,1614.149Z" transform="translate(-1749.759 -1609.345)" fill="#f99746"/>
    </g>
    <path id="Trazado_106577" data-name="Trazado 106577" d="M1840.375,952l1.109-.823a1.286,1.286,0,0,1,.383.823Z" transform="translate(-1476.349 -608.016)" fill="#2b478b"/>
  </g>
</svg>
