<svg xmlns="http://www.w3.org/2000/svg" xmlns:xlink="http://www.w3.org/1999/xlink" width="252.067" height="222.012" viewBox="0 0 252.067 222.012">
  <defs>
    <linearGradient id="linear-gradient" x1="-0.049" y1="0.5" x2="1.008" y2="0.5" gradientUnits="objectBoundingBox">
      <stop offset="0" stop-color="#ff2424"/>
      <stop offset="0.557" stop-color="#ff5959"/>
      <stop offset="1" stop-color="#ff8080"/>
    </linearGradient>
    <linearGradient id="linear-gradient-2" x1="0.027" y1="0.5" x2="1.025" y2="0.5" gradientUnits="objectBoundingBox">
      <stop offset="0" stop-color="#ff8080"/>
      <stop offset="0.443" stop-color="#ff5959"/>
      <stop offset="1" stop-color="#ff2424"/>
    </linearGradient>
    <linearGradient id="linear-gradient-3" x1="0.184" y1="0.245" x2="0.727" y2="1.022" gradientUnits="objectBoundingBox">
      <stop offset="0" stop-color="#fffea3"/>
      <stop offset="1" stop-color="#e69d25"/>
    </linearGradient>
    <linearGradient id="linear-gradient-4" x1="0.5" y1="0.079" x2="0.5" y2="1.019" gradientUnits="objectBoundingBox">
      <stop offset="0" stop-color="#00defb"/>
      <stop offset="0.311" stop-color="#00dbf8"/>
      <stop offset="0.543" stop-color="#00d2ee"/>
      <stop offset="0.749" stop-color="#00c4de"/>
      <stop offset="0.94" stop-color="#00b0c7"/>
      <stop offset="1" stop-color="#00a9bf"/>
    </linearGradient>
    <linearGradient id="linear-gradient-5" x1="0.5" y1="0.009" x2="0.5" y2="0.986" xlink:href="#linear-gradient-2"/>
    <linearGradient id="linear-gradient-6" x1="1.519" y1="-9.789" x2="2.522" y2="-9.789" gradientUnits="objectBoundingBox">
      <stop offset="0" stop-color="#e69d25"/>
      <stop offset="1" stop-color="#fffea3"/>
    </linearGradient>
    <linearGradient id="linear-gradient-7" x1="2.862" y1="3.896" x2="3.865" y2="3.896" xlink:href="#linear-gradient-6"/>
    <linearGradient id="linear-gradient-8" x1="0" y1="0.5" x2="1" y2="0.5" xlink:href="#linear-gradient-6"/>
    <linearGradient id="linear-gradient-9" x1="1.167" y1="-0.756" x2="2.194" y2="-0.756" xlink:href="#linear-gradient-6"/>
    <linearGradient id="linear-gradient-10" x1="39.294" y1="-23.563" x2="40.306" y2="-23.563" xlink:href="#linear-gradient-6"/>
    <linearGradient id="linear-gradient-11" x1="2.219" y1="-27.298" x2="3.231" y2="-27.298" xlink:href="#linear-gradient-6"/>
    <linearGradient id="linear-gradient-12" x1="23.034" y1="-30.06" x2="24.047" y2="-30.06" xlink:href="#linear-gradient-6"/>
    <linearGradient id="linear-gradient-13" x1="50.087" y1="5.414" x2="51.09" y2="5.414" xlink:href="#linear-gradient-6"/>
  </defs>
  <g id="Grupo_71596" data-name="Grupo 71596" transform="translate(-33.155 -29.949)">
    <ellipse id="Elipse_5362" data-name="Elipse 5362" cx="36.4" cy="3.58" rx="36.4" ry="3.58" transform="translate(135.229 244.8)" fill="#e7e8f7"/>
    <ellipse id="Elipse_5363" data-name="Elipse 5363" cx="125.036" cy="9.368" rx="125.036" ry="9.368" transform="translate(33.155 217.353)" fill="#e7e8f7"/>
    <rect id="Rect치ngulo_8950" data-name="Rect치ngulo 8950" width="4.774" height="174.842" transform="translate(57.022 50.196)" fill="#00357b" opacity="0.68"/>
    <rect id="Rect치ngulo_8951" data-name="Rect치ngulo 8951" width="4.774" height="174.842" transform="translate(257.523 50.196)" fill="#00357b" opacity="0.68"/>
    <g id="Grupo_71582" data-name="Grupo 71582" transform="translate(52.488 50.196)">
      <path id="Trazado_106342" data-name="Trazado 106342" d="M299.749,132.36c-71.612-12.488-143.224,12.488-214.836,0v-44.6c71.612,12.488,143.224-12.488,214.836,0Z" transform="translate(-84.913 -84.154)" fill="#00357b" opacity="0.33"/>
    </g>
    <path id="Trazado_106343" data-name="Trazado 106343" d="M202.887,418.756c-36.169,1.63-60.289,20.034-96.614,21.059q.235,1.724.469,3.443c37.076-.462,61.537-16.239,98.56-16.907C204.553,424.82,203.846,420.222,202.887,418.756Z" transform="translate(-45.808 -243.581)" fill="url(#linear-gradient)"/>
    <path id="Trazado_106344" data-name="Trazado 106344" d="M453.724,432.8c-.033,1.784-1.138,5.491-1.382,7.155,27.084,21.2,41.177-8.619,68.1,12.988.858-1.756-.123-3.727.736-5.487C493.649,425.595,481.181,454.835,453.724,432.8Z" transform="translate(-262.613 -252.377)" fill="url(#linear-gradient-2)"/>
    <g id="Grupo_71590" data-name="Grupo 71590" transform="translate(144.427 84.369)">
      <path id="Trazado_106345" data-name="Trazado 106345" d="M449.034,283.284l-.26-2.648a9.78,9.78,0,0,1-1.212-3.418c.052-1.142,3.237-1.333,3.7-.554s.415,2.778.467,3.453.415,2.856.415,2.856-2.6.986-3.167.156Z" transform="translate(-404.044 -238.636)" fill="#e5a395"/>
      <g id="Grupo_71583" data-name="Grupo 71583" transform="translate(8.829)">
        <path id="Trazado_106346" data-name="Trazado 106346" d="M357.542,217.947c1.875,2.65,3.664,4.607,4,4.373.251-.178-.41-1.568-1.563-3.387l.093-.068,7.7-5.584a36.239,36.239,0,0,0,7.044.122c.651.7,2,1.195,4.114,1.5a42.226,42.226,0,0,0,6.07.329q.546,0,1.111-.017c.866-.021,1.745-.058,2.625-.109a70.685,70.685,0,0,0,8.424-.976c3.766-.7,6-1.558,6.652-2.566.977-1.52.473-3.586-1.5-6.141-.467-.6-.958-1.161-1.407-1.635q1.261-.826,2.549-1.742l-3.051-4.283-4.467-6.272-.4-.555-7.519-10.554q-1.394.993-2.682,1.984a23.776,23.776,0,0,0-1.735-3.205c-1.77-2.7-3.558-3.851-5.314-3.424-1.165.283-2.712,2.116-4.6,5.449a73.718,73.718,0,0,0-4.636,10.088A45.426,45.426,0,0,0,367,198.156c-.441,2.28-.375,3.78.2,4.587l.285-.2a35.949,35.949,0,0,0-2.878,7.144l-7.266,5.54c-1.294-1.634-2.347-2.671-2.593-2.5C354.415,212.96,355.667,215.3,357.542,217.947Zm26.809-34.82c-8.511,6.735-13.468,13.265-16.35,18.454-.286-1.258.133-4.383,2.185-9.89a72.375,72.375,0,0,1,4.556-9.914c1.906-3.366,3.228-4.722,3.83-4.868C380.924,176.337,383.394,180.88,384.351,183.127ZM376.834,213.2c6.079-.754,14-3.04,23.033-8.753,1.815,1.881,4,4.775,2.919,6.456-.335.521-2.048,1.327-5.852,2.03A72.241,72.241,0,0,1,386.077,214C381.29,214.113,378.351,213.719,376.834,213.2Z" transform="translate(-354.693 -175.644)" fill="url(#linear-gradient-3)"/>
        <path id="Trazado_106347" data-name="Trazado 106347" d="M366.093,254.357l1.116,1.6,7.7-5.584a36.242,36.242,0,0,0,7.044.122c.651.7,2,1.195,4.114,1.5a42.228,42.228,0,0,0,6.07.329q.546,0,1.111-.017c.866-.021,1.745-.058,2.625-.109a70.7,70.7,0,0,0,8.424-.976c3.766-.7,6-1.558,6.652-2.566.978-1.52.473-3.586-1.5-6.141-.466-.6-.958-1.16-1.407-1.635q1.261-.826,2.549-1.742l-3.051-4.283c-4.355,3.229-17.943,12.4-33.561,13.834Zm17.883-4.066c6.079-.754,14-3.04,23.033-8.753,1.815,1.881,4,4.775,2.919,6.456-.335.521-2.048,1.327-5.852,2.03a72.24,72.24,0,0,1-10.858,1.066C388.432,251.2,385.493,250.809,383.976,250.291Z" transform="translate(-361.835 -212.734)" fill="#0b0b0d" opacity="0.1"/>
      </g>
      <g id="Grupo_71589" data-name="Grupo 71589" transform="translate(0 40.387)">
        <g id="Grupo_71588" data-name="Grupo 71588">
          <g id="Grupo_71587" data-name="Grupo 71587">
            <path id="Trazado_106348" data-name="Trazado 106348" d="M363.846,287.5a1.29,1.29,0,0,1-.539.89s-.574.928-.9,1.364a3.807,3.807,0,0,0,.335,1.992l-.275.074a3.334,3.334,0,0,1-1.889-.051v0s.1-.821.161-1.921a12.9,12.9,0,0,1,.351-2.155,16.907,16.907,0,0,1,.5-3.027,3.155,3.155,0,0,1,.232-.5c.188-.331.36-.425.481-.384a.324.324,0,0,1,.183.293c.022.2-.257,1.033-.389,1.733.062-.248.279-.648.348-.859a2.8,2.8,0,0,1,.2-.479.258.258,0,0,1,.224.07c.244.244.027,1.048.027,1.048l-.413,1.377.434-.843s.342-.655.55-.617.17.36.074.661a5.127,5.127,0,0,1-.443.85l-.588,1.5.327-.411.356-.427s.069-.085.163-.179c.119-.116.273-.246.367-.23a.1.1,0,0,1,.034.013A.244.244,0,0,1,363.846,287.5Z" transform="translate(-349.553 -283.77)" fill="#ffb7a4"/>
            <g id="Grupo_71584" data-name="Grupo 71584" transform="translate(12.178)">
              <path id="Trazado_106349" data-name="Trazado 106349" d="M363.9,284.165a.264.264,0,0,0,.358.136,1.245,1.245,0,0,0,.125-.521C364.263,283.74,364.091,283.832,363.9,284.165Z" transform="translate(-363.811 -283.77)" fill="#ffcfc5"/>
              <path id="Trazado_106350" data-name="Trazado 106350" d="M365.576,286.114c.028.09.141.1.275.119s.152-.339.153-.529a.256.256,0,0,0-.224-.067A2.773,2.773,0,0,0,365.576,286.114Z" transform="translate(-364.86 -284.938)" fill="#ffcfc5"/>
              <path id="Trazado_106351" data-name="Trazado 106351" d="M364.053,288.953q-.129.407-.246.818a3.965,3.965,0,0,0-.11.413,2.05,2.05,0,0,0-.037.429h.011c.054-.134.094-.269.135-.406s.06-.278.088-.417l.17-.836Z" transform="translate(-363.658 -287.017)" fill="#e5a395"/>
            </g>
            <g id="Grupo_71585" data-name="Grupo 71585" transform="translate(30.712 114.827)">
              <path id="Trazado_106352" data-name="Trazado 106352" d="M416.528,595.976l.544-4.786,4.232,1.058s-1.618,3.315-1.069,4.689S414.948,598.86,416.528,595.976Z" transform="translate(-415.144 -591.191)" fill="#e5a388"/>
              <path id="Trazado_106353" data-name="Trazado 106353" d="M422.615,607.787s-6.454-.756-9.336-2.542c0,0,.069-.358.188-.832.261-1.035.766-2.616,1.332-2.191.822.617.814,2.265,1.842,1.511s1.786-.825,2.4,0a13.623,13.623,0,0,0,3.159,2.473,1.333,1.333,0,0,1,.622.733A.966.966,0,0,1,422.615,607.787Z" transform="translate(-413.279 -598.058)" fill="#29293a"/>
            </g>
            <g id="Grupo_71586" data-name="Grupo 71586" transform="translate(0 102.887)">
              <path id="Trazado_106354" data-name="Trazado 106354" d="M336.349,561.7l4.074-2.48,2.041,3.7s-3.727.886-4.4,2.2S333.138,562.41,336.349,561.7Z" transform="translate(-333.629 -559.224)" fill="#e5a388"/>
              <path id="Trazado_106355" data-name="Trazado 106355" d="M335.995,573.764a.989.989,0,0,1-.713.313s-3.675-5.359-4.226-8.706c0,0,.275-.161.669-.362.941-.487,2.555-1.207,2.609-.481.076,1.026-1.172,2.1.074,2.383s1.8.8,1.578,1.811a13.631,13.631,0,0,0,.215,4A1.25,1.25,0,0,1,335.995,573.764Z" transform="translate(-331.056 -562.353)" fill="#29293a"/>
            </g>
            <path id="Trazado_106356" data-name="Trazado 106356" d="M382.444,481.542c.08,3.34-5.135,25.8-5.135,25.8s-1.337,3.458-5.14,1.511a9.629,9.629,0,0,1-.97-.888,3.347,3.347,0,0,1-.95-3.02c.74-3.866,2.439-13.025,2.886-17.917a16.273,16.273,0,0,0,.091-2.511c-.109-1.352-.809-3.15-1.475-7.315-.058-.376-.121-.758-.181-1.143l-.127.373c-1.3,3.754-3.756,8.708-6.153,11.228-7.483,7.858-17.946,11.518-17.946,11.518s-1.916.814-3.175-1.7a6.753,6.753,0,0,1-.528-1.686,1.857,1.857,0,0,1,.736-1.829l14.529-10.655,2.365-9.58a14.625,14.625,0,0,0,.349-5.044c-.4-3.741-.917-8.56.116-12.953a10.371,10.371,0,0,0,1.89,3.514c4.708,4.322,16.229,2.959,16.7-1.814C382.82,480.408,382.368,478.444,382.444,481.542Z" transform="translate(-338.922 -391.502)" fill="#3f3f5e"/>
            <path id="Trazado_106357" data-name="Trazado 106357" d="M398,316.743l-3.837,11.848s-.823,1.666-1.592,3.663a18.856,18.856,0,0,0-1.29,4.713c-.55,7,.209,5.951-1.191,20.07-.367,3.7-8.929,4.237-14.359,2.418-2.711-.907-4.265-2.01-4.988-4.232-.362-1.109.089-4.194.627-5.623,3.232-8.578-.412-15.242-1.921-17.988-1.2-2.172-6.082-8.551-8.414-12.618a10.126,10.126,0,0,1-1.316-4.33l-1.369-18.085,1.1-.31a6.373,6.373,0,0,1,2.788-.152l.951.159,1.438,11.934v0l.567,3.373a11.876,11.876,0,0,0,1.857,4.655c1.625,2.414,4.21,6.048,5.558,6.858l.022.012c2.062,1.2,5.618-1.659,8.217-1.11s5.217,2.608,7.415,1.235c1.6-1,3.3-6.126,4.106-8.857a11.684,11.684,0,0,0,.484-3.327l-.644-17.195.338-.22a6.483,6.483,0,0,1,4.261-1.015l.238.027,1.617,18.83A14.162,14.162,0,0,1,398,316.743Z" transform="translate(-348.155 -289.291)" fill="url(#linear-gradient-4)"/>
            <path id="Trazado_106358" data-name="Trazado 106358" d="M408.875,366.012s-.755,2.677-.961,3.226c0,0,5.4,1.589,6.822-.27l-1.152-2.957Z" transform="translate(-379.206 -335.293)" fill="#ffb7a4"/>
            <path id="Trazado_106359" data-name="Trazado 106359" d="M407.249,333.793s3.021-.755,4.188,1.236a11.911,11.911,0,0,1,1.026,8.033c-.687,2.4-1.095,4.188-4.665,3.5s-3.913-8.17-3.913-8.17S404.324,333.641,407.249,333.793Z" transform="translate(-376.682 -315.021)" fill="#ffb7a4"/>
            <path id="Trazado_106360" data-name="Trazado 106360" d="M411.1,333.405c.412-.641,2.106-3.25,1.327-4.989s-4-2.769-5.761-1.9-3.393,1.121-3.942,1.853-2.2,2.38-1.785,4.806,1.8,6.608,2.563,7.6c.34.441.668.871.927,1.212a3.494,3.494,0,0,0,2.746,1.409,3.344,3.344,0,0,0,1.59-.393c1.968-1.037,2.563-5.477,2.609-6.575S410.691,334.046,411.1,333.405Zm-2.2,5.767c-2.426-1.51-3.2.458-4.348,0-.858-.343-1.3-2.1-1.474-2.961a5.474,5.474,0,0,0-.2-.753,4.85,4.85,0,0,1,3.188-6.035c3.707-1.19,4.726,5.068,4.726,5.068S411.332,340.683,408.906,339.172Z" transform="translate(-374.797 -310.353)" fill="#302f3f"/>
            <path id="Trazado_106361" data-name="Trazado 106361" d="M365.364,292.253c-.024.1-.049.2-.076.3a.82.82,0,0,1-.113.292l-.005,0a.818.818,0,0,1,.076-.3q.054-.146.113-.291Z" transform="translate(-352.428 -289.084)" fill="#e5a395"/>
            <path id="Trazado_106362" data-name="Trazado 106362" d="M367.346,288.718s.2-.359.361-.314-.063.434-.063.434S367.4,288.809,367.346,288.718Z" transform="translate(-353.791 -286.67)" fill="#ffcfc5"/>
            <path id="Trazado_106363" data-name="Trazado 106363" d="M368.416,293.148c-.007.056-.045.282-.127.32s-.248-.085-.273-.1c.119-.117.273-.246.367-.23A.106.106,0,0,1,368.416,293.148Z" transform="translate(-354.211 -289.636)" fill="#ffcfc5"/>
            <path id="Trazado_106364" data-name="Trazado 106364" d="M420.3,505.46a8.665,8.665,0,0,1-.277,1.145,16.28,16.28,0,0,0,.091-2.511c-.109-1.353-.809-3.15-1.475-7.315-.058-.376-.121-.758-.181-1.143,0,0,.257-7.179.257-8.54s.226,9.41.905,11.109A14.727,14.727,0,0,1,420.3,505.46Z" transform="translate(-385.814 -411.076)" fill="#373751"/>
            <path id="Trazado_106365" data-name="Trazado 106365" d="M422.615,611.581s-6.454-.756-9.336-2.542c0,0,.069-.358.188-.832a26.741,26.741,0,0,0,9.359,2.526A.966.966,0,0,1,422.615,611.581Z" transform="translate(-382.567 -487.024)" fill="#a0a0ea"/>
            <path id="Trazado_106366" data-name="Trazado 106366" d="M425.384,608.111l-.105-.2a3.81,3.81,0,0,1,1.738-.5l.052.223A3.924,3.924,0,0,0,425.384,608.111Z" transform="translate(-390.085 -486.516)" fill="#a0a0ea"/>
            <path id="Trazado_106367" data-name="Trazado 106367" d="M429.223,610.047l-.121-.188a2.156,2.156,0,0,1,1.283-.319l.138.243A2.933,2.933,0,0,0,429.223,610.047Z" transform="translate(-392.48 -487.852)" fill="#a0a0ea"/>
            <path id="Trazado_106368" data-name="Trazado 106368" d="M335.995,575.088a.989.989,0,0,1-.713.313s-3.675-5.359-4.226-8.706c0,0,.275-.161.669-.362A26.679,26.679,0,0,0,335.995,575.088Z" transform="translate(-331.056 -460.791)" fill="#a0a0ea"/>
            <path id="Trazado_106369" data-name="Trazado 106369" d="M341.685,576.58a3.008,3.008,0,0,0-1.4-.512l.024-.223c.112.012,1.1.13,1.408.525Z" transform="translate(-336.837 -466.75)" fill="#a0a0ea"/>
            <path id="Trazado_106370" data-name="Trazado 106370" d="M342.209,579.989a2.259,2.259,0,0,0-1.134-.356v-.223a1.964,1.964,0,0,1,1.184.373Z" transform="translate(-337.333 -468.983)" fill="#a0a0ea"/>
          </g>
          <path id="Trazado_106371" data-name="Trazado 106371" d="M412.682,375.917l.8.628s-2.5,11.491-.45,19.188l3.193,2.047,1.474-3.275s-3.9-16.118-3.084-18l.655-.669-1.228-.955Z" transform="translate(-381.91 -340.849)" fill="url(#linear-gradient-5)"/>
          <path id="Trazado_106372" data-name="Trazado 106372" d="M417.092,372.774l1.419,1.692s2.129-1.2,2.4-1.911l-.873-1.037S418.184,372.884,417.092,372.774Z" transform="translate(-384.956 -338.743)" fill="#e7e8f7"/>
          <path id="Trazado_106373" data-name="Trazado 106373" d="M417.088,374.546c.432.517.865,1.034,1.292,1.555l-.059-.018a3.984,3.984,0,0,0,.652-.346c.209-.134.408-.283.6-.433s.394-.3.584-.464l.573-.486.012.011c-.078.1-.157.2-.24.292s-.169.188-.259.276a6.158,6.158,0,0,1-.568.5,5.877,5.877,0,0,1-.634.419,4.355,4.355,0,0,1-.69.329l-.036.013-.023-.03c-.41-.534-.814-1.073-1.22-1.611Z" transform="translate(-384.946 -340.519)" fill="#a5a5af"/>
        </g>
      </g>
      <path id="Trazado_106374" data-name="Trazado 106374" d="M406.767,372.271l-.819.819a2.816,2.816,0,0,0,2.867,1.434l1.229-1.229S408.815,373.909,406.767,372.271Z" transform="translate(-377.974 -298.827)" fill="#e7e8f7"/>
      <path id="Trazado_106375" data-name="Trazado 106375" d="M410.207,374.582c-.463.493-.924.988-1.392,1.475l-.022.024-.032,0a2.852,2.852,0,0,1-.776-.219,3.823,3.823,0,0,1-.7-.386,4.357,4.357,0,0,1-.6-.524c-.093-.095-.173-.2-.26-.3s-.156-.213-.229-.322l.016-.013c.1.086.195.175.29.264s.194.171.294.254c.2.167.4.321.61.467a5.331,5.331,0,0,0,.653.4,2.589,2.589,0,0,0,.713.244l-.054.02c.487-.468.982-.929,1.475-1.392Z" transform="translate(-378.13 -300.108)" fill="#a5a5af"/>
      <path id="Trazado_106376" data-name="Trazado 106376" d="M448.168,276.851s.052.987.623.909.285-.753.285-.753.121.787.511.709.242-.709.242-.709.1.935.545.675a.725.725,0,0,0,.312-.779s.39.908.779.649.182-.8.182-.8S451.465,275.735,448.168,276.851Z" transform="translate(-404.424 -238.72)" fill="#e5a395"/>
      <path id="Trazado_106377" data-name="Trazado 106377" d="M446.956,282.88l-1.661-1.644.779-.052.329.087Z" transform="translate(-402.625 -241.763)" fill="#e5a395"/>
      <path id="Trazado_106378" data-name="Trazado 106378" d="M445.3,281.315l.93,1.034s.883.779,1.155.948-.156-1.765-.156-1.765l-1.129-.221Z" transform="translate(-402.625 -241.842)" fill="#e5a395"/>
      <path id="Trazado_106379" data-name="Trazado 106379" d="M448.88,278.96a.331.331,0,0,0,.353.234c.274-.034.188-.382.188-.382S449.023,278.709,448.88,278.96Z" transform="translate(-404.871 -240.264)" fill="#f2cdc7"/>
      <path id="Trazado_106380" data-name="Trazado 106380" d="M451.215,278.949a.291.291,0,0,0,.31.2c.243-.025.173-.32.173-.32S451.345,278.74,451.215,278.949Z" transform="translate(-406.333 -240.277)" fill="#f2cdc7"/>
      <path id="Trazado_106381" data-name="Trazado 106381" d="M453.138,278.927a.291.291,0,0,0,.265.259c.243.023.231-.281.231-.281S453.306,278.747,453.138,278.927Z" transform="translate(-407.538 -240.295)" fill="#f2cdc7"/>
      <path id="Trazado_106382" data-name="Trazado 106382" d="M455.885,278.643a.291.291,0,0,0,.32.186c.241-.038.155-.329.155-.329S456,278.426,455.885,278.643Z" transform="translate(-409.259 -240.074)" fill="#f2cdc7"/>
    </g>
    <path id="Trazado_106383" data-name="Trazado 106383" d="M252.125,263.2l-.383,4.6a.737.737,0,0,0,.268.631l3.574,2.925a.736.736,0,0,1-.3,1.287l-4.495,1.058a.738.738,0,0,0-.518.449l-1.677,4.3a.737.737,0,0,1-1.316.115l-2.4-3.948a.736.736,0,0,0-.587-.353l-4.61-.265a.737.737,0,0,1-.516-1.216l3.015-3.5a.737.737,0,0,0,.154-.668l-1.172-4.467a.737.737,0,0,1,1-.866l4.258,1.786a.736.736,0,0,0,.683-.059l3.886-2.5A.736.736,0,0,1,252.125,263.2Z" transform="translate(-128.953 -145.627)" fill="url(#linear-gradient-6)"/>
    <path id="Trazado_106384" data-name="Trazado 106384" d="M555.036,267.5l-2.765,2.279a.572.572,0,0,0-.206.49l.31,3.569a.571.571,0,0,1-.877.531l-3.021-1.926a.571.571,0,0,0-.53-.044l-3.3,1.4a.571.571,0,0,1-.776-.669l.9-3.469a.571.571,0,0,0-.122-.518L542.3,266.44a.572.572,0,0,1,.4-.945l3.576-.218a.571.571,0,0,0,.455-.276l1.848-3.07a.572.572,0,0,1,1.021.085l1.313,3.334a.57.57,0,0,0,.4.347l3.49.809A.571.571,0,0,1,555.036,267.5Z" transform="translate(-318.881 -145.16)" fill="url(#linear-gradient-7)"/>
    <path id="Trazado_106385" data-name="Trazado 106385" d="M177.263,379.5l1.586,3.213a.572.572,0,0,0,.43.313l3.546.515a.572.572,0,0,1,.316.975l-2.566,2.5a.573.573,0,0,0-.164.506l.606,3.531a.572.572,0,0,1-.829.6l-3.172-1.667a.571.571,0,0,0-.532,0l-3.172,1.667a.572.572,0,0,1-.829-.6l.606-3.531a.573.573,0,0,0-.164-.506l-2.566-2.5a.572.572,0,0,1,.317-.975l3.545-.515a.572.572,0,0,0,.43-.313l1.586-3.213A.571.571,0,0,1,177.263,379.5Z" transform="translate(-85.848 -218.786)" fill="url(#linear-gradient-8)"/>
    <path id="Trazado_106386" data-name="Trazado 106386" d="M516.517,30.093l2.683,2.375a.573.573,0,0,0,.517.127l3.477-.864a.571.571,0,0,1,.661.783L522.427,35.8a.571.571,0,0,0,.039.53l1.9,3.04a.571.571,0,0,1-.539.871l-3.567-.344a.571.571,0,0,0-.492.2l-2.305,2.743a.571.571,0,0,1-1-.244l-.775-3.5a.571.571,0,0,0-.343-.406l-3.321-1.345a.571.571,0,0,1-.076-1.022l3.088-1.818a.572.572,0,0,0,.28-.452l.253-3.574A.572.572,0,0,1,516.517,30.093Z" transform="translate(-299.778 0)" fill="url(#linear-gradient-9)"/>
    <path id="Trazado_106387" data-name="Trazado 106387" d="M285.512,397.905l-2.046-.678a.342.342,0,0,0-.315.052l-1.719,1.3a.344.344,0,0,1-.551-.276l.013-2.155a.344.344,0,0,0-.147-.284l-1.768-1.233a.343.343,0,0,1,.092-.609l2.054-.654a.344.344,0,0,0,.225-.227l.626-2.063a.344.344,0,0,1,.608-.1l1.256,1.751a.344.344,0,0,0,.286.143l2.155-.042a.344.344,0,0,1,.284.547l-1.277,1.736a.342.342,0,0,0-.048.316l.706,2.036A.344.344,0,0,1,285.512,397.905Z" transform="translate(-153.912 -226.088)" fill="url(#linear-gradient-10)"/>
    <path id="Trazado_106388" data-name="Trazado 106388" d="M688.972,275.117l-2.045-.679a.344.344,0,0,0-.316.052l-1.719,1.3a.344.344,0,0,1-.551-.276l.013-2.155a.344.344,0,0,0-.147-.284l-1.768-1.233a.344.344,0,0,1,.093-.609l2.054-.654a.343.343,0,0,0,.224-.228l.626-2.062a.344.344,0,0,1,.608-.1l1.257,1.751a.343.343,0,0,0,.286.143l2.155-.042a.344.344,0,0,1,.284.547l-1.277,1.736a.345.345,0,0,0-.048.316l.706,2.036A.344.344,0,0,1,688.972,275.117Z" transform="translate(-406.672 -149.164)" fill="url(#linear-gradient-11)"/>
    <path id="Trazado_106389" data-name="Trazado 106389" d="M483.718,394.884l-2.046-.679a.344.344,0,0,0-.316.052l-1.719,1.3a.344.344,0,0,1-.551-.276l.013-2.155a.344.344,0,0,0-.147-.284l-1.768-1.233a.344.344,0,0,1,.092-.61l2.054-.653a.344.344,0,0,0,.225-.228l.626-2.062a.344.344,0,0,1,.608-.1l1.256,1.751a.343.343,0,0,0,.286.143l2.154-.042a.344.344,0,0,1,.283.547l-1.277,1.736a.343.343,0,0,0-.048.316l.706,2.036A.344.344,0,0,1,483.718,394.884Z" transform="translate(-278.084 -224.196)" fill="url(#linear-gradient-12)"/>
    <path id="Trazado_106390" data-name="Trazado 106390" d="M54.66,250.309l-2.15.146a.344.344,0,0,0-.272.168l-1.1,1.854a.344.344,0,0,1-.614-.047l-.8-2a.345.345,0,0,0-.244-.207l-2.1-.473a.344.344,0,0,1-.145-.6l1.654-1.382a.343.343,0,0,0,.122-.3l-.2-2.146A.344.344,0,0,1,49.33,245l1.825,1.146a.343.343,0,0,0,.319.025l1.979-.854a.344.344,0,0,1,.47.4l-.526,2.09a.343.343,0,0,0,.075.311l1.423,1.618A.344.344,0,0,1,54.66,250.309Z" transform="translate(-8.74 -134.695)" fill="url(#linear-gradient-13)"/>
    <g id="Grupo_71592" data-name="Grupo 71592" transform="translate(50.904 170.584)">
      <path id="Trazado_106391" data-name="Trazado 106391" d="M83.891,456.775s-6.2-12.426-1.384-19.748,8.815-4.1,8.48-13.313-1.372-12.824,7.028-16.663,15.038,12.147,14.2,18.077-2.952,15.824-7.5,18.6,2.233,8.113-3.148,12.7S86.366,467.635,83.891,456.775Z" transform="translate(-80.673 -406.464)" fill="#fe851b"/>
      <g id="Grupo_71591" data-name="Grupo 71591" transform="translate(8.515 9.058)">
        <path id="Trazado_106392" data-name="Trazado 106392" d="M103.784,473.754l-.315-.239a132.823,132.823,0,0,0,7.364-14.669c3.3-7.71,7.113-18.848,6.581-28.131l.36.042a47.506,47.506,0,0,1-1.752,14.37,98.951,98.951,0,0,1-4.858,13.924A133.139,133.139,0,0,1,103.784,473.754Z" transform="translate(-103.469 -430.715)" fill="#fff"/>
        <path id="Trazado_106393" data-name="Trazado 106393" d="M109.67,507.683c.018-.082,1.72-8.314-.694-14.426l.331-.092c2.461,6.232.735,14.575.717,14.658Z" transform="translate(-106.919 -469.839)" fill="#fff"/>
        <path id="Trazado_106394" data-name="Trazado 106394" d="M129.706,456.062c.012-.084,1.222-8.447-1.782-14.606l.316-.124c3.064,6.283,1.835,14.766,1.822,14.851Z" transform="translate(-118.79 -437.366)" fill="#fff"/>
        <path id="Trazado_106395" data-name="Trazado 106395" d="M124.716,486.108l-.14-.369a13.5,13.5,0,0,0,4.077-2.053,13.044,13.044,0,0,0,5.219-8.35l.355.131a13.341,13.341,0,0,1-5.346,8.55A13.52,13.52,0,0,1,124.716,486.108Z" transform="translate(-116.692 -458.669)" fill="#fff"/>
      </g>
    </g>
    <g id="Grupo_71593" data-name="Grupo 71593" transform="translate(42.375 178.673)">
      <path id="Trazado_106396" data-name="Trazado 106396" d="M74.209,475.738s-24.076-42.307-13.833-47.077S82.634,451.671,74.209,475.738Z" transform="translate(-57.839 -428.121)" fill="#feba1b"/>
      <path id="Trazado_106397" data-name="Trazado 106397" d="M81.122,485.447c1.212-8.945-2.082-19.78-5.059-27.293a116.742,116.742,0,0,0-6.83-14.325l.454-.18a117.158,117.158,0,0,1,6.858,14.381c3,7.562,6.311,18.471,5.088,27.5Z" transform="translate(-64.978 -437.849)" fill="#fff"/>
    </g>
    <g id="Grupo_71595" data-name="Grupo 71595" transform="translate(242.977 166.482)">
      <path id="Trazado_106398" data-name="Trazado 106398" d="M618.109,400.09c3.848,6.51-4,10.823-.218,14.093,1.958,1.694,4.434,2.5,5.722,3.984,1.2,1.386,1.372,3.363-.866,7.2a35.959,35.959,0,0,1-2.26,3.418c-2.608,3.5-4.266,4.5-3.207,7.151a14.363,14.363,0,0,0,1.6,2.763,5.424,5.424,0,0,1,.916,2.311,6.428,6.428,0,0,1,.075.831c.071,2.495-1.167,5.284-2.658,7.712q-.367.6-.751,1.164c-.116.172-.233.342-.349.51l-.06.084a40.994,40.994,0,0,1-3.724,4.552s-.812-.8-2.085-2.237c-4.085-4.606-12.921-15.723-14.933-27.73a27.873,27.873,0,0,1-.338-6.807,23,23,0,0,1,1.89-7.564C605.8,391.316,614.261,393.581,618.109,400.09Z" transform="translate(-594.901 -395.48)" fill="#fe851b"/>
      <g id="Grupo_71594" data-name="Grupo 71594" transform="translate(9.477 9.046)">
        <path id="Trazado_106399" data-name="Trazado 106399" d="M628.117,467.1l-.423.175a120.883,120.883,0,0,1-5.439-17.686,75.375,75.375,0,0,1-1.98-15.581c-.046-5.786.9-10.6,2.82-14.31l.407.21c-4.271,8.263-2.793,20.644-.8,29.574A120.469,120.469,0,0,0,628.117,467.1Z" transform="translate(-620.274 -419.698)" fill="#fff"/>
        <path id="Trazado_106400" data-name="Trazado 106400" d="M634.1,492.7l-.458-.016a57.544,57.544,0,0,1,1.059-8.335c.847-4.183,2.55-9.878,5.848-13.252l.328.32C634.7,477.73,634.1,492.548,634.1,492.7Z" transform="translate(-628.647 -451.897)" fill="#fff"/>
        <path id="Trazado_106401" data-name="Trazado 106401" d="M621.253,442.834l-.455-.052a39.452,39.452,0,0,1,1.391-6.317c.967-3.126,2.752-7.294,5.758-9.405l.263.375C622.644,431.343,621.267,442.72,621.253,442.834Z" transform="translate(-620.603 -424.31)" fill="#fff"/>
      </g>
      <path id="Trazado_106402" data-name="Trazado 106402" d="M661.483,428.578c1.745,7.506-7.557,16.014-5.959,20.876,1.205,3.671-5.984,13.254-12.725,19.788l-.071.068a43.917,43.917,0,0,1-6.048,5.02l-.608-.929a45.179,45.179,0,0,1-1.267-5.008,33.426,33.426,0,0,1-.682-7.684c.009-.208.021-.415.037-.622q.024-.287.054-.573a14.459,14.459,0,0,1,.385-2.14q.044-.173.1-.344l.037-.12a7.086,7.086,0,0,1,3.755-4.641c1.446-.669,2.53-1.153,3.35-1.565,3.047-1.534,2.439-2.063,3.207-7.151.194-1.286.478-2.867.931-4.829a22.571,22.571,0,0,1,2.2-5.788C652.393,425.24,660.052,422.434,661.483,428.578Z" transform="translate(-619.458 -414.116)" fill="#feba1b"/>
      <path id="Trazado_106403" data-name="Trazado 106403" d="M648.308,480.958l-.339-.1c.025-.084,2.477-8.487,5.914-17.571,4.621-12.217,8.724-19.781,12.192-22.481l.217.278c-3.369,2.622-7.545,10.342-12.078,22.325C650.782,472.483,648.332,480.875,648.308,480.958Z" transform="translate(-628.147 -423.877)" fill="#fff"/>
    </g>
  </g>
</svg>
