<svg xmlns="http://www.w3.org/2000/svg" width="339.084" height="321.975" viewBox="0 0 339.084 321.975">
  <g id="Grupo_72458" data-name="Grupo 72458" transform="translate(-293.85 -337.745)">
    <g id="Grupo_72327" data-name="Grupo 72327" transform="translate(315.945 631.918)">
      <path id="Trazado_107642" data-name="Trazado 107642" d="M518.515,1898.594s-100.668-1.185-106.954,8.115,50.718,6.843,82.245,6.614,71.43,0,71.43,0-7.568,10.651,10.207,12.289,73.786.369,86.637-2.119,27.923-11.855-6.327-14.875a613.545,613.545,0,0,0-66.307-1.909S595.3,1899.917,518.515,1898.594Z" transform="translate(-411.081 -1898.545)" fill="#ddc1a4"/>
    </g>
    <g id="Grupo_72394" data-name="Grupo 72394" transform="translate(513.795 380.472)">
      <g id="Grupo_72328" data-name="Grupo 72328" transform="translate(0.508 259.168)">
        <path id="Trazado_107643" data-name="Trazado 107643" d="M1505.444,1939.942s-47.221,1.83-41.44,8.473,105.542,7.235,115.607,2.794S1570.7,1937.4,1505.444,1939.942Z" transform="translate(-1463.514 -1939.512)" fill="#ddc1a4"/>
      </g>
      <g id="Grupo_72393" data-name="Grupo 72393" transform="translate(0)">
        <g id="Grupo_72332" data-name="Grupo 72332" transform="translate(23.827 249.824)">
          <g id="Grupo_72329" data-name="Grupo 72329" transform="translate(0.26 16.577)">
            <path id="Trazado_107644" data-name="Trazado 107644" d="M1614.061,1977.887l-25.447.241.009.974a.46.46,0,0,0,.464.455l24.988-.237a.616.616,0,0,0,.61-.622l0-.2A.616.616,0,0,0,1614.061,1977.887Z" transform="translate(-1588.614 -1977.887)" fill="#4e4059"/>
          </g>
          <g id="Grupo_72330" data-name="Grupo 72330" transform="translate(4.426)">
            <path id="Trazado_107645" data-name="Trazado 107645" d="M1620.981,1892.6s.188,5.1-.46,6.578-9.806,4.872-9.806,4.872l.028,2.941,19.468-.185a2.192,2.192,0,0,0,2.174-2.356,12.377,12.377,0,0,0-1.492-4.856c-2.17-4.023.216-7.485-.531-8.654S1620.7,1888.913,1620.981,1892.6Z" transform="translate(-1610.715 -1889.935)" fill="#ffbe91"/>
          </g>
          <g id="Grupo_72331" data-name="Grupo 72331" transform="translate(0 9.774)">
            <path id="Trazado_107646" data-name="Trazado 107646" d="M1600.654,1942.391c.25,1.522.968,5.4,2.247,6.8l-14.809.14c-.509,0-.908-.656-.854-1.162.173-1.63,1.907-4.925,12.613-6.366A.715.715,0,0,1,1600.654,1942.391Z" transform="translate(-1587.233 -1941.794)" fill="#4e4059"/>
          </g>
        </g>
        <g id="Grupo_72333" data-name="Grupo 72333" transform="translate(18.99 38.583)">
          <path id="Trazado_107647" data-name="Trazado 107647" d="M1580.05,769.15s-16.947,21.9-18.347,37.1,8.492,19.277,17.033,17.04S1586.507,771.723,1580.05,769.15Z" transform="translate(-1561.57 -769.15)" fill="#fcf8eb"/>
        </g>
        <g id="Grupo_72337" data-name="Grupo 72337" transform="translate(70.114 249.824)">
          <g id="Grupo_72334" data-name="Grupo 72334" transform="translate(0.35 16.555)">
            <path id="Trazado_107648" data-name="Trazado 107648" d="M1860.129,1977.771l-25.447.241.144.973a.545.545,0,0,0,.527.454l24.988-.237a.524.524,0,0,0,.525-.621l-.03-.2A.731.731,0,0,0,1860.129,1977.771Z" transform="translate(-1834.682 -1977.771)" fill="#4e4059"/>
          </g>
          <g id="Grupo_72335" data-name="Grupo 72335" transform="translate(4.147)">
            <path id="Trazado_107649" data-name="Trazado 107649" d="M1863.522,1892.594s.894,5.095.449,6.569-9.146,4.866-9.146,4.866l.435,2.937,19.468-.185a1.874,1.874,0,0,0,1.851-2.353,14.087,14.087,0,0,0-2.166-4.85c-2.73-4.018-.819-7.475-1.728-8.643S1862.728,1888.914,1863.522,1892.594Z" transform="translate(-1854.826 -1889.934)" fill="#ffbe91"/>
          </g>
          <g id="Grupo_72336" data-name="Grupo 72336" transform="translate(0 9.762)">
            <path id="Trazado_107650" data-name="Trazado 107650" d="M1845.459,1942.323c.461,1.52,1.715,5.392,3.19,6.788l-14.808.14c-.509,0-1-.655-1.016-1.16-.052-1.628,1.229-4.919,11.75-6.358A.841.841,0,0,1,1845.459,1942.323Z" transform="translate(-1832.823 -1941.726)" fill="#4e4059"/>
          </g>
        </g>
        <g id="Grupo_72342" data-name="Grupo 72342" transform="translate(0 46.123)">
          <g id="Grupo_72338" data-name="Grupo 72338" transform="translate(0.03 3.649)">
            <path id="Trazado_107651" data-name="Trazado 107651" d="M1499.191,828.516l-38.216,7.26s8.64,42.457,8.8,42.8h0a3.131,3.131,0,0,0,3.382,1.674l34.65-9.5Z" transform="translate(-1460.975 -828.516)" fill="#3da894"/>
          </g>
          <g id="Grupo_72339" data-name="Grupo 72339">
            <path id="Trazado_107652" data-name="Trazado 107652" d="M1499.062,812.806l-34.65,9.5a3.131,3.131,0,0,1-3.382-1.674h0a1.63,1.63,0,0,1,1.017-2.431l32.939-9.043Z" transform="translate(-1460.816 -809.157)" fill="#fcf8eb"/>
          </g>
          <g id="Grupo_72340" data-name="Grupo 72340" transform="translate(1.212 16.784)">
            <path id="Trazado_107653" data-name="Trazado 107653" d="M1467.248,898.206a2.153,2.153,0,0,0,2.094,1.175l.454,2.639s-.873.572-1.9-.59Z" transform="translate(-1467.248 -898.206)" fill="#fcf8eb"/>
          </g>
          <g id="Grupo_72341" data-name="Grupo 72341" transform="translate(2.241 21.882)">
            <path id="Trazado_107654" data-name="Trazado 107654" d="M1472.7,925.259a2.184,2.184,0,0,0,2.109,1.173l.454,2.638s-.885.58-1.91-.582Z" transform="translate(-1472.705 -925.259)" fill="#fcf8eb"/>
          </g>
        </g>
        <g id="Grupo_72343" data-name="Grupo 72343" transform="translate(35.68 1.5)">
          <path id="Trazado_107655" data-name="Trazado 107655" d="M1668.3,572.4a11.81,11.81,0,0,1,10.27,8.989c2.351,8.575.958,11.1,5.374,12.846s10.8,1.079,11.232,8.147-.907,10.171,2.4,11.878,14.072-1.146,15.63,9.131,4.22,18.489-10.982,22.274-40.405-5.1-45-10.081-4.922-26.093-4.829-28.792-2.072-5.753-2.235-8.068C1649.236,585.631,1668.3,572.4,1668.3,572.4Z" transform="translate(-1650.125 -572.398)" fill="#b29072"/>
        </g>
        <g id="Grupo_72344" data-name="Grupo 72344" transform="translate(24.69 94.429)">
          <path id="Trazado_107656" data-name="Trazado 107656" d="M1663.191,1223.014l-10.9-64.932c-.341-5.549,12.951-69.735,4.267-87.826-3.88-8.082-51.289-4.787-54.34,1.25l-.749,20.194s-9.958,39.441-9.646,64.014c.417,32.862,8.5,70.137,8.5,70.137s6.139,1.042,8.207,1.045c2.105,0,8.355-1.045,8.355-1.045l-.592-67.505s4.737-28.289,7.3-36.775c0,0,2.614,31.388,3.947,39.67,2.972,18.46,19.964,64.611,19.964,64.611a55.013,55.013,0,0,0,6.68.518C1655.856,1226.235,1663.191,1223.014,1663.191,1223.014Z" transform="translate(-1591.813 -1065.453)" fill="#4e4059"/>
        </g>
        <g id="Grupo_72345" data-name="Grupo 72345" transform="translate(36.507 103.69)">
          <path id="Trazado_107657" data-name="Trazado 107657" d="M1684.247,1121.578c-14.9,2.072-29.734,5.449-29.734,5.449s6.544,5.209,27.859,3.729a190.331,190.331,0,0,0,27.728-3.873,58.074,58.074,0,0,0-1.169-12.293A97.877,97.877,0,0,1,1684.247,1121.578Z" transform="translate(-1654.513 -1114.59)" fill="#342a3d"/>
        </g>
        <g id="Grupo_72346" data-name="Grupo 72346" transform="translate(31.785 31.369)">
          <path id="Trazado_107658" data-name="Trazado 107658" d="M1636.636,736.464a24,24,0,0,1,13.353-5.452c5.73-.152,11.816-.848,17.43,3.375,10.3,7.75,23.237,39.971,24.778,67.449.824,14.7-60.487,18.888-61.948,11.245-2.139-11.187.738-24.762.672-37.3C1630.832,758.746,1629.049,743.4,1636.636,736.464Z" transform="translate(-1629.457 -730.876)" fill="#fcf8eb"/>
        </g>
        <g id="Grupo_72347" data-name="Grupo 72347" transform="translate(38.28)">
          <path id="Trazado_107659" data-name="Trazado 107659" d="M1663.921,571.922s2.825-5.879,8.282-7.121,7.137.849,11.245,4.568c5.228,4.733,7.091,18.108-3.172,19.4C1668.327,590.273,1663.921,571.922,1663.921,571.922Z" transform="translate(-1663.921 -564.442)" fill="#b29072"/>
        </g>
        <g id="Grupo_72348" data-name="Grupo 72348" transform="translate(37.235 5.793)">
          <path id="Trazado_107660" data-name="Trazado 107660" d="M1670.331,595.2a8.052,8.052,0,0,1,7.731,7.077c.79,5.927.62,9.13-1.873,12.483-2.6,3.5-8.18,6.869-11.713,6.453a6.974,6.974,0,0,1-6.031-6.455,44.144,44.144,0,0,1,.126-5.485c-.086-2.85-1.073-12.9,4.282-13.664A44.085,44.085,0,0,1,1670.331,595.2Z" transform="translate(-1658.377 -595.176)" fill="#ffbe91"/>
        </g>
        <g id="Grupo_72350" data-name="Grupo 72350" transform="translate(44.899 18.045)">
          <g id="Grupo_72349" data-name="Grupo 72349">
            <path id="Trazado_107661" data-name="Trazado 107661" d="M1699.251,660.372a1.492,1.492,0,0,0,.1,1.686c.63.95,1.73-.024,1.79-.593a1.45,1.45,0,0,0-.4-1.035A1.29,1.29,0,0,0,1699.251,660.372Z" transform="translate(-1699.039 -660.181)" fill="#4e4059"/>
          </g>
        </g>
        <g id="Grupo_72352" data-name="Grupo 72352" transform="translate(37.855 18.534)">
          <g id="Grupo_72351" data-name="Grupo 72351">
            <path id="Trazado_107662" data-name="Trazado 107662" d="M1661.794,662.921a1.83,1.83,0,0,0,.153,1.672c.527.975,1.323.078,1.342-.481a1.85,1.85,0,0,0-.355-1.047A.867.867,0,0,0,1661.794,662.921Z" transform="translate(-1661.665 -662.775)" fill="#4e4059"/>
          </g>
        </g>
        <g id="Grupo_72354" data-name="Grupo 72354" transform="translate(44.592 17.828)">
          <g id="Grupo_72353" data-name="Grupo 72353">
            <path id="Trazado_107663" data-name="Trazado 107663" d="M1697.627,660.236a.212.212,0,0,1-.034,0,.216.216,0,0,1-.18-.248c0-.032.136-.778,1.235-.93a7.306,7.306,0,0,1,2.663.461.217.217,0,0,1-.147.407,7.038,7.038,0,0,0-2.457-.44c-.773.107-.866.564-.867.569A.217.217,0,0,1,1697.627,660.236Z" transform="translate(-1697.411 -659.035)" fill="#4e4059"/>
          </g>
        </g>
        <g id="Grupo_72355" data-name="Grupo 72355" transform="translate(49.539 23.201)">
          <path id="Trazado_107664" data-name="Trazado 107664" d="M1729.837,687.54l3.334,10.624s-1.678,7.036-6.658,6.658-1.933-4.979-1.933-4.979l-.3-8.606Z" transform="translate(-1723.658 -687.54)" fill="#ffbe91"/>
        </g>
        <g id="Grupo_72357" data-name="Grupo 72357" transform="translate(49.39 16.169)">
          <g id="Grupo_72356" data-name="Grupo 72356">
            <path id="Trazado_107665" data-name="Trazado 107665" d="M1723.08,651.529a.217.217,0,0,1-.023-.432l7.992-.866a.219.219,0,0,1,.239.192.216.216,0,0,1-.192.239l-7.993.866Z" transform="translate(-1722.863 -650.229)" fill="#4e4059"/>
          </g>
        </g>
        <g id="Grupo_72359" data-name="Grupo 72359" transform="translate(37.59 18.448)">
          <g id="Grupo_72358" data-name="Grupo 72358">
            <path id="Trazado_107666" data-name="Trazado 107666" d="M1660.476,663.187a.216.216,0,0,1-.164-.358,1.576,1.576,0,0,1,2.1-.2.217.217,0,0,1-.241.36h0a1.177,1.177,0,0,0-1.528.12A.217.217,0,0,1,1660.476,663.187Z" transform="translate(-1660.26 -662.32)" fill="#4e4059"/>
          </g>
        </g>
        <g id="Grupo_72361" data-name="Grupo 72361" transform="translate(44.547 15.406)">
          <g id="Grupo_72360" data-name="Grupo 72360">
            <path id="Trazado_107667" data-name="Trazado 107667" d="M1701.054,647.742a.215.215,0,0,1-.109-.029,11.249,11.249,0,0,0-3.586-1.1.217.217,0,0,1,.053-.43,11.492,11.492,0,0,1,3.751,1.153.217.217,0,0,1-.109.4Z" transform="translate(-1697.169 -646.183)" fill="#4e4059"/>
          </g>
        </g>
        <g id="Grupo_72363" data-name="Grupo 72363" transform="translate(37.395 15.879)">
          <g id="Grupo_72362" data-name="Grupo 72362">
            <path id="Trazado_107668" data-name="Trazado 107668" d="M1659.44,650.587a.217.217,0,0,1-.154-.368,9.854,9.854,0,0,1,1.992-1.5.217.217,0,0,1,.221.373,9.427,9.427,0,0,0-1.9,1.428A.216.216,0,0,1,1659.44,650.587Z" transform="translate(-1659.224 -648.692)" fill="#4e4059"/>
          </g>
        </g>
        <g id="Grupo_72367" data-name="Grupo 72367" transform="translate(54.634 15.506)">
          <g id="Grupo_72364" data-name="Grupo 72364">
            <path id="Trazado_107669" data-name="Trazado 107669" d="M1751.422,648.738a3.137,3.137,0,0,1,1.516-1.863c.732-.336,1.661-.28,2.263,1.517,1.125,3.354-2.773,8.648-4.073,6.138C1750.217,652.771,1750.919,650.151,1751.422,648.738Z" transform="translate(-1750.687 -646.714)" fill="#ffbe91"/>
          </g>
          <g id="Grupo_72366" data-name="Grupo 72366" transform="translate(1.085 1.309)">
            <g id="Grupo_72365" data-name="Grupo 72365">
              <path id="Trazado_107670" data-name="Trazado 107670" d="M1756.835,659.521a.216.216,0,0,1-.254-.145c-.039-.12-.362-1.187.133-1.681a1.125,1.125,0,0,1,.928-.226c.315.02.45.015.515-.112a4.672,4.672,0,0,0,.421-2.36c-.091-.753-.516-.91-.535-.916a.218.218,0,0,1-.136-.273.215.215,0,0,1,.268-.139,1.4,1.4,0,0,1,.832,1.276,5.078,5.078,0,0,1-.466,2.61c-.2.391-.6.366-.927.346-.24-.015-.466-.029-.6.1-.263.262-.1,1-.027,1.242a.216.216,0,0,1-.14.272Z" transform="translate(-1756.442 -653.66)" fill="#ea907e"/>
            </g>
          </g>
        </g>
        <g id="Grupo_72368" data-name="Grupo 72368" transform="translate(35.953 2.953)">
          <path id="Trazado_107671" data-name="Trazado 107671" d="M1654.237,582.419c-3.214,2.919-2.5,5.808-2.658,7.734s4.021,1.6,4.065,1.277.3-1.526.3-1.526a1.964,1.964,0,0,0,1.062,1.292c.814.288,6.175,1.348,6.593.938a7.79,7.79,0,0,0,.979-1.68,5.59,5.59,0,0,0,1.907,1.73c.9.307,4.175,3.109,5.485,2.984s2.531-3.5,1.724-5.605-5.088-8.067-8.547-8.586S1658.318,578.711,1654.237,582.419Z" transform="translate(-1651.574 -580.111)" fill="#b29072"/>
        </g>
        <g id="Grupo_72375" data-name="Grupo 72375" transform="translate(34.565 15.298)">
          <g id="Grupo_72370" data-name="Grupo 72370" transform="translate(8.296 0.194)">
            <g id="Grupo_72369" data-name="Grupo 72369">
              <path id="Trazado_107672" data-name="Trazado 107672" d="M1692.03,654.237l-.117,0a3.8,3.8,0,0,1-3.682-3.914h0a3.8,3.8,0,1,1,3.8,3.916Zm-3.367-3.9a3.367,3.367,0,1,0,3.468-3.263,3.37,3.37,0,0,0-3.468,3.263Z" transform="translate(-1688.229 -646.637)" fill="#4e4059"/>
            </g>
          </g>
          <g id="Grupo_72372" data-name="Grupo 72372">
            <g id="Grupo_72371" data-name="Grupo 72371">
              <path id="Trazado_107673" data-name="Trazado 107673" d="M1647.1,653.2h-.04a2.543,2.543,0,0,1-1.828-.847,4.121,4.121,0,0,1-1.018-3l.216.009-.216-.009c.086-2.073,1.478-3.741,3.112-3.741h.039a2.543,2.543,0,0,1,1.829.847,4.121,4.121,0,0,1,1.018,3C1650.127,651.529,1648.735,653.2,1647.1,653.2Zm.225-7.158c-1.4,0-2.6,1.483-2.678,3.326h0a3.687,3.687,0,0,0,.9,2.688,2.121,2.121,0,0,0,1.521.711h.033c1.4,0,2.6-1.483,2.679-3.326a3.688,3.688,0,0,0-.9-2.687,2.121,2.121,0,0,0-1.521-.711Z" transform="translate(-1644.21 -645.606)" fill="#4e4059"/>
            </g>
          </g>
          <g id="Grupo_72374" data-name="Grupo 72374" transform="translate(5.596 2.848)">
            <g id="Grupo_72373" data-name="Grupo 72373">
              <path id="Trazado_107674" data-name="Trazado 107674" d="M1676.838,661.716a.216.216,0,0,1-.159-.07h0a1.781,1.781,0,0,0-2.434-.054.217.217,0,1,1-.252-.352,2.228,2.228,0,0,1,3.005.113.217.217,0,0,1-.16.363Z" transform="translate(-1673.901 -660.714)" fill="#4e4059"/>
            </g>
          </g>
        </g>
        <g id="Grupo_72376" data-name="Grupo 72376" transform="translate(48.54 45.022)">
          <path id="Trazado_107675" data-name="Trazado 107675" d="M1742.209,803.318s6.719,28.371,3.421,36.562a17.548,17.548,0,0,1-18.331,10.805c-6.524-.987-8.943-12.168-8.943-12.168Z" transform="translate(-1718.357 -803.318)" fill="#e8e0ca"/>
        </g>
        <g id="Grupo_72378" data-name="Grupo 72378" transform="translate(38.588 19.152)">
          <g id="Grupo_72377" data-name="Grupo 72377">
            <path id="Trazado_107676" data-name="Trazado 107676" d="M1668.442,666.23a.186.186,0,0,0-.357-.063,7.858,7.858,0,0,1-1.679,2.047c-1.269,1.1-1.155,2.17.553,1.823s1.848-.521,1.813-1.6A17.107,17.107,0,0,0,1668.442,666.23Z" transform="translate(-1665.552 -666.055)" fill="#ea907e"/>
          </g>
        </g>
        <g id="Grupo_72384" data-name="Grupo 72384" transform="translate(31.785 20.759)">
          <g id="Grupo_72379" data-name="Grupo 72379" transform="translate(6.031)">
            <path id="Trazado_107677" data-name="Trazado 107677" d="M1670.549,678.24s-1.794-2.046-3.446-2.353-4.745-1.04-5.359-1.278-.159,1.288.48,1.671a8.983,8.983,0,0,0,3.152,1.519C1667.193,678.269,1671.252,679.185,1670.549,678.24Z" transform="translate(-1661.454 -674.584)" fill="#ffbe91"/>
          </g>
          <g id="Grupo_72383" data-name="Grupo 72383" transform="translate(0 2.332)">
            <g id="Grupo_72382" data-name="Grupo 72382">
              <g id="Grupo_72381" data-name="Grupo 72381">
                <g id="Grupo_72380" data-name="Grupo 72380">
                  <path id="Trazado_107678" data-name="Trazado 107678" d="M1649.4,690.891s-4.82-2.926-5.958-3.455c-1.456-.676-4.1-.445-6.684-.42-3.29.032-6.465.019-6.716.535-.434.893,5.155,1.763,5.063,2.165s-5.456-1.662-5.645-.915,5.053,2.524,5.141,2.907-3.723-1.5-3.749-.757c-.03.861,4.23,2.347,4.246,2.727s-1.533-.676-1.884.144,4.043,1.436,5.316,1.664,5.133,1.87,7.712,1.4C1648.087,696.549,1650,691.437,1649.4,690.891Z" transform="translate(-1629.456 -686.959)" fill="#ffbe91"/>
                </g>
              </g>
            </g>
          </g>
        </g>
        <g id="Grupo_72385" data-name="Grupo 72385" transform="translate(41.229 34.977)">
          <path id="Trazado_107679" data-name="Trazado 107679" d="M1679.833,785.854s20.125-39.027,27.015-35.624c6.669,3.294,5.724,30.075-.987,46.775-1.832,4.56-8.252,10.532-13.351,10.164C1676.613,806.022,1679.833,785.854,1679.833,785.854Z" transform="translate(-1679.565 -750.02)" fill="#fcf8eb"/>
        </g>
        <g id="Grupo_72386" data-name="Grupo 72386" transform="translate(39.565 28.795)">
          <path id="Trazado_107680" data-name="Trazado 107680" d="M1676.4,720.916s-12.126,46.569-.9,49.985c11.44,3.48,15.605-4.778,14.8-11.566s-2.029-42.682-9.347-42.108S1676.4,720.916,1676.4,720.916Z" transform="translate(-1670.737 -717.22)" fill="#ffbe91"/>
        </g>
        <g id="Grupo_72387" data-name="Grupo 72387" transform="translate(0.999 72.296)">
          <path id="Trazado_107681" data-name="Trazado 107681" d="M1466.385,948.609a2.27,2.27,0,0,0,.214,2.458.781.781,0,0,0,.37.129.574.574,0,0,0-.256.224c-.89,1.976.57,2.873.648,2.873a2.087,2.087,0,0,0,.039,1.391,2.813,2.813,0,0,0,.442.918.394.394,0,0,0-.031.037,1.679,1.679,0,0,0,.038,1.12,2.2,2.2,0,0,0,1.535,1.242c.533.046,3.328.272,3.837-.656.687-1.254-1.974-1.133-2.843-1.086.2.007,3.374-1.221,2.67-2.655-.391-.8-1.187-.7-1.86-.541,1.078-.365,2.546-1.423,1.917-2.512-.275-.476-2.033-.323-2.853-.5.857-.21,2.96-1.114,2.366-2.142C1471.94,947.732,1466.886,947.828,1466.385,948.609Z" transform="translate(-1466.117 -948.022)" fill="#ffbe91"/>
        </g>
        <g id="Grupo_72388" data-name="Grupo 72388" transform="translate(46.202 23.69)">
          <path id="Trazado_107682" data-name="Trazado 107682" d="M1715.531,706.911a.212.212,0,0,1-.206-.165c-.025-.111-2.563-11.119-4.017-13.153-1.433-2.006-5.161-3.03-5.2-3.04a.212.212,0,0,1,.11-.409c.159.043,3.91,1.073,5.432,3.2,1.5,2.1,3.981,12.849,4.085,13.3a.212.212,0,0,1-.159.254A.219.219,0,0,1,1715.531,706.911Z" transform="translate(-1705.953 -690.136)" fill="#ea907e"/>
        </g>
        <g id="Grupo_72389" data-name="Grupo 72389" transform="translate(46.764 124.132)">
          <path id="Trazado_107683" data-name="Trazado 107683" d="M1718.64,1250.417a.933.933,0,0,1-.094,0,.953.953,0,0,1-.857-1.042c.257-2.643.766-10.013.038-12.354-.893-2.875-6.492-9.925-8.574-12.4a.954.954,0,1,1,1.46-1.228c.316.375,7.746,9.233,8.936,13.061.99,3.186.078,12.7.038,13.105A.954.954,0,0,1,1718.64,1250.417Z" transform="translate(-1708.931 -1223.049)" fill="#342a3d"/>
        </g>
        <g id="Grupo_72390" data-name="Grupo 72390" transform="translate(80.583 176.366)">
          <path id="Trazado_107684" data-name="Trazado 107684" d="M1893.39,1514.47a.954.954,0,0,1-.906-.656l-4.07-12.37a.954.954,0,0,1,1.812-.6l4.07,12.37a.955.955,0,0,1-.906,1.252Z" transform="translate(-1888.366 -1500.192)" fill="#342a3d"/>
        </g>
        <g id="Grupo_72391" data-name="Grupo 72391" transform="translate(13.776 53.772)">
          <path id="Trazado_107685" data-name="Trazado 107685" d="M1533.909,850.6l1.032,1.57,3.573,23.3,1.447-1.25,2.434,1.25-4.243-24.178-1.217-1.545Z" transform="translate(-1533.909 -849.742)" fill="#4e4059"/>
        </g>
        <g id="Grupo_72392" data-name="Grupo 72392" transform="translate(56.461 35.295)">
          <path id="Trazado_107686" data-name="Trazado 107686" d="M1760.914,761.829a.53.53,0,0,1-.487-.739c.152-.352,3.763-8.642,7.906-9.374a.53.53,0,0,1,.184,1.044c-2.975.526-6.146,6.494-7.116,8.749A.53.53,0,0,1,1760.914,761.829Z" transform="translate(-1760.384 -751.708)" fill="#e8e0ca"/>
        </g>
      </g>
    </g>
    <g id="Grupo_72457" data-name="Grupo 72457" transform="translate(293.85 337.745)">
      <g id="Grupo_72395" data-name="Grupo 72395" transform="translate(123.355 50.028)">
        <path id="Trazado_107687" data-name="Trazado 107687" d="M948.6,603.187c-.813-.221.4,4.857,1.146,8.188l2.157-1.1S949.777,603.506,948.6,603.187Z" transform="translate(-948.335 -603.18)" fill="#ffbe91"/>
      </g>
      <g id="Grupo_72400" data-name="Grupo 72400" transform="translate(121.029 50.028)">
        <g id="Grupo_72398" data-name="Grupo 72398" transform="translate(0 0.004)">
          <g id="Grupo_72396" data-name="Grupo 72396" transform="translate(8.119)">
            <rect id="Rect치ngulo_9036" data-name="Rect치ngulo 9036" width="16.539" height="1.914" transform="matrix(0.98, -0.199, 0.199, 0.98, 0, 3.291)" fill="#fcf8eb"/>
          </g>
          <g id="Grupo_72397" data-name="Grupo 72397" transform="translate(0 3.291)">
            <rect id="Rect치ngulo_9037" data-name="Rect치ngulo 9037" width="8.285" height="1.914" transform="translate(0 1.648) rotate(-11.477)" fill="#ffb94a"/>
          </g>
        </g>
        <g id="Grupo_72399" data-name="Grupo 72399" transform="translate(23.87)">
          <path id="Trazado_107688" data-name="Trazado 107688" d="M1063.1,603.185l-.358.073a2.512,2.512,0,0,0-.1.807,1.719,1.719,0,0,0,.26.8,2.853,2.853,0,0,0,.247.264l.759-.137s-.3-1.218-.371-1.381S1063.317,603.141,1063.1,603.185Z" transform="translate(-1062.644 -603.18)" fill="#afafaf"/>
        </g>
      </g>
      <g id="Grupo_72401" data-name="Grupo 72401" transform="translate(129.148 0)">
        <path id="Trazado_107689" data-name="Trazado 107689" d="M995.6,385s.285-3.456-1.491-5.136-6.5.4-7.953-3.372,4.936-5.121,6.933-7.839-.482-5.658-8.238-9.762-6.713-13.948-2.657-17.291a18.433,18.433,0,0,1,8.771-3.854s-.651,9.112,1.961,11.947,12.137,5.686,14.637,11.715-11.851,5.68-12.379,7.459-.64,4.607,4.071,5.981,5.761.328,7.012,2.741-8.266,3.541-8.54,4.693S995.6,385,995.6,385Z" transform="translate(-979.073 -337.745)" fill="#f2ebe7"/>
      </g>
      <g id="Grupo_72402" data-name="Grupo 72402" transform="translate(92.372 256.006)">
        <path id="Trazado_107690" data-name="Trazado 107690" d="M783.952,1696.042l.629,42.268h15.967l.628-42.268Z" transform="translate(-783.952 -1696.042)" fill="#b29072"/>
      </g>
      <g id="Grupo_72403" data-name="Grupo 72403" transform="translate(31.737 256.006)">
        <path id="Trazado_107691" data-name="Trazado 107691" d="M462.24,1696.042l.628,42.268h15.967l.629-42.268Z" transform="translate(-462.24 -1696.042)" fill="#b29072"/>
      </g>
      <g id="Grupo_72404" data-name="Grupo 72404" transform="translate(177.845 256.006)">
        <path id="Trazado_107692" data-name="Trazado 107692" d="M1237.447,1696.042l.629,42.268h15.967l.628-42.268Z" transform="translate(-1237.447 -1696.042)" fill="#b29072"/>
      </g>
      <g id="Grupo_72405" data-name="Grupo 72405" transform="translate(117.21 256.006)">
        <path id="Trazado_107693" data-name="Trazado 107693" d="M915.735,1696.042l.628,42.268H932.33l.629-42.268Z" transform="translate(-915.735 -1696.042)" fill="#b29072"/>
      </g>
      <g id="Grupo_72406" data-name="Grupo 72406" transform="translate(160.999 160.753)">
        <path id="Trazado_107694" data-name="Trazado 107694" d="M1153.574,1196.7l-5.511-4.781s21.932-4.52,28.017,3.518-.919,14.353-.919,14.353l.958,36.958-14.163-2.28Z" transform="translate(-1148.063 -1190.653)" fill="#ffd44d"/>
      </g>
      <g id="Grupo_72407" data-name="Grupo 72407" transform="translate(69.679 69.222)">
        <path id="Trazado_107695" data-name="Trazado 107695" d="M663.711,713.23l21.944,171.681a11.289,11.289,0,0,0,11.284,10.959h80.01c3.925,0,7.122-4.02,7.182-9.03.179-15.047-.235-44.532-5.876-54.005-7.69-12.917-4.857-30.484-12.142-33.843-.159-.073-1.517-.295-3.676-.607-6.794-.982-21.519-2.861-31.755-3.85-5.9-.571-10.565-6.629-10.913-14.174l-15.391-53.984c-3.567-13.416-14.292-22.487-25.125-21.25l-10.771,1.23A5.568,5.568,0,0,0,663.711,713.23Z" transform="translate(-663.545 -705.015)" fill="#ffd44d"/>
      </g>
      <g id="Grupo_72408" data-name="Grupo 72408" transform="translate(7.78 70.865)">
        <path id="Trazado_107696" data-name="Trazado 107696" d="M335.13,731.184s4.276-8.448,22.873-11.547,46.893-8.068,52.757-4.876,27.06,123.567,27.06,123.567,61.782,1.424,65.226,7.624,2.716,22.551,2.027,23.929-118.837,2.235-126.415-2.588S335.13,731.184,335.13,731.184Z" transform="translate(-335.13 -713.732)" fill="#ffb94a"/>
      </g>
      <g id="Grupo_72409" data-name="Grupo 72409" transform="translate(119.685 154.182)">
        <path id="Trazado_107697" data-name="Trazado 107697" d="M961.138,1155.793s61.048,29.538,68.9,36.137,40.13,76.868,43.315,89.849c1.5,6.1-7.651,6.841-11.7,2.946-32.367-31.11-48.265-66.267-48.265-66.267s-58.659-13.412-73.794-20.6-12.621-32.069-2.566-35.5S961.138,1155.793,961.138,1155.793Z" transform="translate(-928.863 -1155.793)" fill="#ffbe91"/>
      </g>
      <g id="Grupo_72410" data-name="Grupo 72410" transform="translate(96.747 86.209)">
        <path id="Trazado_107698" data-name="Trazado 107698" d="M849.594,809.16c-8.971-4.241-31.477-14.407-40.309-14-5.147.235.367,13.125,2.926,20.4,1.595,4.533,23.81,14.4,41.839,16.578C856.246,823.624,851.686,813.269,849.594,809.16Z" transform="translate(-807.164 -795.146)" fill="#a3544a"/>
      </g>
      <g id="Grupo_72411" data-name="Grupo 72411" transform="translate(129.046 63.969)">
        <path id="Trazado_107699" data-name="Trazado 107699" d="M978.747,677.7c-2.251,5.5,13.689,37.52,13.689,37.52s-1.422-.705-3.775-1.818c2.092,4.109,6.652,14.463,4.455,22.976,10.908,1.315,20.283-.187,22.632-7.4C1022.213,709.143,981,672.2,978.747,677.7Z" transform="translate(-978.53 -677.148)" fill="#ffbe91"/>
      </g>
      <g id="Grupo_72412" data-name="Grupo 72412" transform="translate(95.17 160.753)">
        <path id="Trazado_107700" data-name="Trazado 107700" d="M831.072,1190.653s62.881,29.881,70.737,36.48,7.341,103.7,7.825,110.854c.424,6.27-9.1,3.751-10.428-1.709-6.285-25.739-26.3-81.491-26.3-81.491s-48.245-14.88-63.38-22.067-12.621-32.069-2.566-35.5S831.072,1190.653,831.072,1190.653Z" transform="translate(-798.797 -1190.653)" fill="#ffbe91"/>
      </g>
      <g id="Grupo_72413" data-name="Grupo 72413" transform="translate(58.769 83.616)">
        <path id="Trazado_107701" data-name="Trazado 107701" d="M757.342,881.106c-1.733-1.232-13.231-7.4-25.507-13.88a31.456,31.456,0,0,1-15.783-19.737c-2.411-9.156-8.656-18.862-16.315-24.445-8.5-6.2-21.3-10.346-29.5-9.189,3.757-13.058-8.823-21.325-14.47-25.838-5.611-4.484-11.266-9.79-27.3-4.271,0,0-13.156,7.287-19.6,17.372-6.887,10.781-1.663,29.471,6.2,46.621,1.285,2.8,4.323,6.027,5.707,8.706,1.751,3.388,1.866,6.181,3.626,9.222a64.649,64.649,0,0,0,5.855,8.082c2.559,11.359,13.643,21.463,24.118,28.865s37.336,9.9,47.348,17.6c4.492,3.453,11.453,19.554,11.453,19.554s23.464-12.71,35.476-21.788,21.09-28.911,21.09-28.911C766.8,885.3,761.256,883.889,757.342,881.106Z" transform="translate(-605.661 -781.386)" fill="#a3544a"/>
      </g>
      <g id="Grupo_72414" data-name="Grupo 72414" transform="translate(0 84.351)">
        <path id="Trazado_107702" data-name="Trazado 107702" d="M294.016,793.5l16.449,70.8a146.1,146.1,0,0,1,3.79,32.839l.081,52.912a11.289,11.289,0,0,0,11.284,10.959h80.01c3.925,0,7.122-4.02,7.182-9.03.18-15.047,1.452-80-5.834-83.357-.659-.3-36.021,1.3-49.509,0-4.53-.438-7.214-9.374-8.374-16.917a84.551,84.551,0,0,0-3.9-15.378l-10.517-29.679c-3.567-13.417-14.292-22.487-25.125-21.25l-10.771,1.231A5.568,5.568,0,0,0,294.016,793.5Z" transform="translate(-293.85 -785.29)" fill="#ffd44d"/>
      </g>
      <g id="Grupo_72415" data-name="Grupo 72415" transform="translate(88.51 170.067)">
        <path id="Trazado_107703" data-name="Trazado 107703" d="M811.6,1290.431c-.9-29.31-3.445-40.646-8.038-44.732s-35.366-8.579-38.351-3.064-3.789,16.647,11.253,21.242a38.73,38.73,0,0,0,6.958,1.483,6.726,6.726,0,0,1,6.257,6.17l1.887,58.559,19.37.08S811.9,1300.316,811.6,1290.431Z" transform="translate(-763.461 -1240.071)" fill="#f3e990"/>
      </g>
      <g id="Grupo_72416" data-name="Grupo 72416" transform="translate(55.151 109.064)">
        <path id="Trazado_107704" data-name="Trazado 107704" d="M610.926,969.129s-3.179-32.841-7.388-48.753c-1.47-5.556-11.956-4.636-13.186-1.191-1.02,2.856-5.242,19.756-3.45,37.664.991,9.9,2.1,20.552,10.68,28.262,15.739,14.145,68.882,3.3,62.088-8.541C656.188,970.5,610.926,969.129,610.926,969.129Z" transform="translate(-586.465 -916.405)" fill="#ffbe91"/>
      </g>
      <g id="Grupo_72417" data-name="Grupo 72417" transform="translate(121.129 167.689)">
        <path id="Trazado_107705" data-name="Trazado 107705" d="M942.9,1228.184c2.916,2.075,8.027,8.2,9.28,10.9s5.08,12.434,3.743,12.12-2.866-4.617-3.453-4.973c0,0,2.181,6.555,1.693,6.855s-1.239-.374-1.239-.374-.59,1.431-1.148.905-2.869-6.048-2.869-6.048,1.225,3.586.154,3.71-3.873-6.436-5.332-8.263-5.05-4.066-6.217-6.124C934.554,1231.677,938.811,1225.275,942.9,1228.184Z" transform="translate(-936.525 -1227.456)" fill="#ffbe91"/>
      </g>
      <g id="Grupo_72419" data-name="Grupo 72419" transform="translate(55.151 109.064)">
        <g id="Grupo_72418" data-name="Grupo 72418">
          <path id="Trazado_107706" data-name="Trazado 107706" d="M610.781,967.683c-.667-6.511-3.561-33.386-7.243-47.306-1.47-5.556-11.956-4.636-13.186-1.191-1.02,2.856-5.242,19.756-3.45,37.664a76.563,76.563,0,0,0,2.606,15.3A70.969,70.969,0,0,0,610.781,967.683Z" transform="translate(-586.465 -916.405)" fill="#a3544a"/>
        </g>
      </g>
      <g id="Grupo_72444" data-name="Grupo 72444" transform="translate(65.834 46.314)">
        <g id="Grupo_72420" data-name="Grupo 72420" transform="translate(6.208 0.941)">
          <path id="Trazado_107707" data-name="Trazado 107707" d="M699.743,595.334a13.382,13.382,0,0,0-10.215-6.759c-7.528-1.032-12.576,5.244-13.344,11.7-1.022,8.587,6.242,14.88,6.242,14.88s-1.843,4.6,4.687,4.049S703.9,603.207,699.743,595.334Z" transform="translate(-676.085 -588.463)" fill="#b29072"/>
        </g>
        <g id="Grupo_72421" data-name="Grupo 72421" transform="translate(12.485 4.11)">
          <path id="Trazado_107708" data-name="Trazado 107708" d="M726.752,608.261s-6.673-.907-10.187,1.688-6.1,8.94-5.935,11.957c0,0-.382.224-.532-.76a17.87,17.87,0,0,1-.665-5.605c.4-4.5,2.273-8.493,8.124-9.91C721.595,604.653,725.179,605.787,726.752,608.261Z" transform="translate(-709.389 -605.281)" fill="#fcf8eb"/>
        </g>
        <g id="Grupo_72422" data-name="Grupo 72422" transform="translate(14.756 26.123)">
          <path id="Trazado_107709" data-name="Trazado 107709" d="M723.008,722.076s-.149,5.152-.633,9.692c-.294,2.758-1.192,5.622-.871,6.012.791.962,10.562,2,10.339.191-.44-3.578-.822-12.614-.822-12.614Z" transform="translate(-721.435 -722.076)" fill="#ffbe91"/>
        </g>
        <g id="Grupo_72423" data-name="Grupo 72423" transform="translate(14.839 7.84)">
          <path id="Trazado_107710" data-name="Trazado 107710" d="M728.67,626a8.627,8.627,0,0,0-6.793,8.383c-.036,6.005.538,9.144,3.44,12.015,3.03,3,9,5.334,12.464,4.29a7.464,7.464,0,0,0,5.182-7.464,43.257,43.257,0,0,0-.819-5.4c-.275-2.835-.563-12.954-5.986-12.754A44.8,44.8,0,0,0,728.67,626Z" transform="translate(-721.875 -625.067)" fill="#ffbe91"/>
        </g>
        <g id="Grupo_72425" data-name="Grupo 72425" transform="translate(23.743 19.89)">
          <g id="Grupo_72424" data-name="Grupo 72424">
            <path id="Trazado_107711" data-name="Trazado 107711" d="M771.86,690.208a19.661,19.661,0,0,1-2.475-.233.314.314,0,0,1,.1-.621,17.568,17.568,0,0,0,2.578.221c.616-.026.688-.272.688-.275a.314.314,0,1,1,.628.028c0,.034-.051.823-1.289.874C772.015,690.207,771.939,690.208,771.86,690.208Z" transform="translate(-769.12 -689.001)" fill="#4e4059"/>
          </g>
        </g>
        <g id="Grupo_72427" data-name="Grupo 72427" transform="translate(32.064 19.007)">
          <g id="Grupo_72426" data-name="Grupo 72426">
            <path id="Trazado_107712" data-name="Trazado 107712" d="M814.689,685.386a3.348,3.348,0,0,1-1.239-.3.314.314,0,0,1,.263-.571,1.98,1.98,0,0,0,1.242.2.257.257,0,0,0,.15-.175.314.314,0,1,1,.6.187.884.884,0,0,1-.495.563A1.284,1.284,0,0,1,814.689,685.386Z" transform="translate(-813.267 -684.318)" fill="#4e4059"/>
          </g>
        </g>
        <g id="Grupo_72429" data-name="Grupo 72429" transform="translate(23.395 17.205)">
          <g id="Grupo_72428" data-name="Grupo 72428">
            <path id="Trazado_107713" data-name="Trazado 107713" d="M767.59,676.452a.314.314,0,0,1-.151-.59,12.015,12.015,0,0,1,3.865-1.1.314.314,0,0,1,.065.625,11.6,11.6,0,0,0-3.629,1.03A.311.311,0,0,1,767.59,676.452Z" transform="translate(-767.276 -674.756)" fill="#4e4059"/>
          </g>
        </g>
        <g id="Grupo_72431" data-name="Grupo 72431" transform="translate(32.041 17.227)">
          <g id="Grupo_72430" data-name="Grupo 72430">
            <path id="Trazado_107714" data-name="Trazado 107714" d="M815.838,675.731a.314.314,0,0,1-.078-.01,8.731,8.731,0,0,0-2.295-.216.314.314,0,1,1-.012-.628,9.306,9.306,0,0,1,2.463.235.314.314,0,0,1-.078.619Z" transform="translate(-813.145 -674.874)" fill="#4e4059"/>
          </g>
        </g>
        <g id="Grupo_72433" data-name="Grupo 72433" transform="translate(21.802 31.549)">
          <g id="Grupo_72432" data-name="Grupo 72432">
            <path id="Trazado_107715" data-name="Trazado 107715" d="M762.776,752.9a.314.314,0,0,1-.093-.014,24.5,24.5,0,0,1-3.707-1.44.314.314,0,1,1,.319-.541,24.537,24.537,0,0,0,3.572,1.38.314.314,0,0,1-.092.615Z" transform="translate(-758.822 -750.864)" fill="#ea907e"/>
          </g>
        </g>
        <g id="Grupo_72437" data-name="Grupo 72437" transform="translate(12.99 19.908)">
          <g id="Grupo_72434" data-name="Grupo 72434">
            <path id="Trazado_107716" data-name="Trazado 107716" d="M716.246,690.622a2.908,2.908,0,0,0-1.691-1.416,1.755,1.755,0,0,0-2.331,1.275c-1.041,2.684,3.33,6.721,4.6,4.7C717.7,693.76,716.842,691.718,716.246,690.622Z" transform="translate(-712.065 -689.102)" fill="#ffbe91"/>
          </g>
          <g id="Grupo_72436" data-name="Grupo 72436" transform="translate(1.019 0.884)">
            <g id="Grupo_72435" data-name="Grupo 72435">
              <path id="Trazado_107717" data-name="Trazado 107717" d="M720.12,698.657a.314.314,0,0,1-.295-.423c.069-.19.157-.652-.033-.78a1.107,1.107,0,0,0-.614-.049,1.107,1.107,0,0,1-1.049-.277,3.4,3.4,0,0,1-.646-2.167,1.308,1.308,0,0,1,.9-1.158.314.314,0,0,1,.166.606.682.682,0,0,0-.446.618,2.78,2.78,0,0,0,.519,1.719c.053.069.312.048.5.033a1.53,1.53,0,0,1,1.017.155c.523.355.416,1.121.269,1.518A.314.314,0,0,1,720.12,698.657Z" transform="translate(-717.471 -693.791)" fill="#ea907e"/>
            </g>
          </g>
        </g>
        <g id="Grupo_72438" data-name="Grupo 72438" transform="translate(13.548 6.187)">
          <path id="Trazado_107718" data-name="Trazado 107718" d="M730.321,621.728s-2.178,2.149-4.431,4.381-3.951,3.078-4.639,4.55c-1.434,3.064-1.874,8.3-1.874,8.3s-3.6-8.784-4.026-9.9-1.264-5.871,3.9-9.949c3.014-2.38,9.757-3.567,12.508-2.28,4.747,2.222,4.556,6.018,4.307,7.581S730.321,621.728,730.321,621.728Z" transform="translate(-715.026 -616.301)" fill="#b29072"/>
        </g>
        <g id="Grupo_72439" data-name="Grupo 72439" transform="translate(15.17 1.96)">
          <path id="Trazado_107719" data-name="Trazado 107719" d="M731.731,596.28a9.624,9.624,0,0,0-8.1-2.267,5.469,5.469,0,0,0,5.138,3.287C732.8,597.425,731.731,596.28,731.731,596.28Z" transform="translate(-723.635 -593.871)" fill="#fcf8eb"/>
        </g>
        <g id="Grupo_72440" data-name="Grupo 72440" transform="translate(21.455)">
          <path id="Trazado_107720" data-name="Trazado 107720" d="M757.018,588.365a9.624,9.624,0,0,1,6.838-4.892,5.469,5.469,0,0,1-3.709,4.842C756.407,589.8,757.018,588.365,757.018,588.365Z" transform="translate(-756.98 -583.473)" fill="#fcf8eb"/>
        </g>
        <g id="Grupo_72441" data-name="Grupo 72441" transform="translate(0 1.141)">
          <path id="Trazado_107721" data-name="Trazado 107721" d="M655.469,592.65s-2.961-5.492-9.656-1.908.833,15.056,4.938,14.289S657.795,594.952,655.469,592.65Z" transform="translate(-643.146 -589.528)" fill="#b29072"/>
        </g>
        <g id="Grupo_72442" data-name="Grupo 72442" transform="translate(30.119 20.61)">
          <path id="Trazado_107722" data-name="Trazado 107722" d="M803.427,692.823a4.922,4.922,0,0,0,1.858,1.693c1.956.9.537,1.926-.675,1.93C801.776,696.455,803.427,692.823,803.427,692.823Z" transform="translate(-802.949 -692.823)" fill="#ea907e"/>
        </g>
        <g id="Grupo_72443" data-name="Grupo 72443" transform="translate(32.281 25.007)">
          <path id="Trazado_107723" data-name="Trazado 107723" d="M814.919,716.154s-.891.314-.3,1.326S816.583,716.728,814.919,716.154Z" transform="translate(-814.417 -716.154)" fill="#4e4059"/>
        </g>
      </g>
      <g id="Grupo_72445" data-name="Grupo 72445" transform="translate(124.77 49.072)">
        <path id="Trazado_107724" data-name="Trazado 107724" d="M965.938,616.329c-.692-1.438-1.172-8.469-1.332-9.694s-.213-1.278-1.118-1.97-3.3.266-3.3.266-1.172-6.6-2.024-6.817-.16,8.042-.16,8.042l-2.157,1.1a14.759,14.759,0,0,1,.506,2.784,8,8,0,0,0,.532,4.634c.8,1.491,3.995,3.835,3.995,3.835C962.9,619.525,966.63,617.767,965.938,616.329Z" transform="translate(-955.845 -598.109)" fill="#ffbe91"/>
      </g>
      <g id="Grupo_72446" data-name="Grupo 72446" transform="translate(103.89 86.229)">
        <path id="Trazado_107725" data-name="Trazado 107725" d="M885.241,830.18a.844.844,0,0,1-.427-.116c-9.332-5.45-20.082-4.131-20.189-4.117a.848.848,0,0,1-.9-1.156c1.633-4.081.387-9.672-3.332-14.956-3.9-5.547-14.849-12.959-14.959-13.033a.848.848,0,0,1,.948-1.406c.46.31,11.316,7.663,15.4,13.463,3.688,5.241,5.109,10.844,3.938,15.29,3.263-.2,11.969-.208,19.948,4.452a.848.848,0,0,1-.429,1.58Z" transform="translate(-845.063 -795.251)" fill="#7f3633"/>
      </g>
      <g id="Grupo_72447" data-name="Grupo 72447" transform="translate(70.524 109.511)">
        <path id="Trazado_107726" data-name="Trazado 107726" d="M676.975,970.456a.848.848,0,0,1-.427-1.581c1.535-.894,2.9-2.225,2.744-2.687-.4-1.225-2.577-13.728-4.966-27.544-.42-2.429-.784-4.532-1.046-6.032a31.355,31.355,0,0,0-5.075-12.471.848.848,0,0,1,1.345-1.032,32.466,32.466,0,0,1,5.4,13.211c.262,1.5.626,3.6,1.046,6.035,1.577,9.12,4.513,26.1,4.908,27.308.672,2.063-2.513,4.1-3.505,4.678A.845.845,0,0,1,676.975,970.456Z" transform="translate(-668.032 -918.778)" fill="#7f3633"/>
      </g>
      <g id="Grupo_72448" data-name="Grupo 72448" transform="translate(89.106 118.938)">
        <path id="Trazado_107727" data-name="Trazado 107727" d="M767.471,996.191a.848.848,0,0,1-.8-1.118,58.964,58.964,0,0,1,8.391-15.516c5.668-7.331,21.31-10.608,21.973-10.744a.848.848,0,0,1,.34,1.661c-.156.032-15.689,3.287-20.972,10.12a58.363,58.363,0,0,0-8.124,15.018A.849.849,0,0,1,767.471,996.191Z" transform="translate(-766.623 -968.796)" fill="#7f3633"/>
      </g>
      <g id="Grupo_72451" data-name="Grupo 72451" transform="translate(250.944 275.801)">
        <g id="Grupo_72449" data-name="Grupo 72449">
          <path id="Trazado_107728" data-name="Trazado 107728" d="M1635.605,1801.065s2.353,5.752,5.81,5.642c6.815-.215,24.439-5.357,22.76-3.412-1.453,1.684-22.023,15-27.518,18.544a2.646,2.646,0,0,1-2.952-.091,5.523,5.523,0,0,1-2.49-3.984c-.176-3.263-.636-6.188-5.928-10.805Z" transform="translate(-1625.287 -1801.065)" fill="#ffbe91"/>
        </g>
        <g id="Grupo_72450" data-name="Grupo 72450" transform="translate(5.301 1.792)">
          <path id="Trazado_107729" data-name="Trazado 107729" d="M1654.038,1825.481a12.69,12.69,0,0,0-.627-3.355,2.953,2.953,0,0,1,1.834-.25c2.026.284,12.468-1.846,20.067-9.23,6.523-1.364,12.714-2.824,11.687-1.634-1.453,1.684-22.023,15-27.518,18.544a2.645,2.645,0,0,1-2.952-.091A5.523,5.523,0,0,1,1654.038,1825.481Z" transform="translate(-1653.411 -1810.572)" fill="#4e4059"/>
        </g>
      </g>
      <g id="Grupo_72454" data-name="Grupo 72454" transform="translate(192.38 301.984)">
        <g id="Grupo_72452" data-name="Grupo 72452">
          <path id="Trazado_107730" data-name="Trazado 107730" d="M1328,1942.747s-.589,4.022,2.173,5.813c5.444,3.53,22.364,8.774,19.85,9.508-2.177.635-26.462.712-32.941.721a2.317,2.317,0,0,1-2.244-1.685,5.733,5.733,0,0,1,.529-4.731c1.886-2.861,3.341-5.589,2.081-12.384Z" transform="translate(-1314.562 -1939.988)" fill="#ffbe91"/>
        </g>
        <g id="Grupo_72453" data-name="Grupo 72453" transform="translate(0 9.199)">
          <path id="Trazado_107731" data-name="Trazado 107731" d="M1315.366,1991.981a14.422,14.422,0,0,0,1.592-3.185,2.6,2.6,0,0,1,1.584.787c1.4,1.344,10.859,5.228,21.359,3.112,5.928,2.4,11.657,4.533,10.12,4.982-2.177.635-26.462.712-32.941.721a2.317,2.317,0,0,1-2.244-1.685A5.733,5.733,0,0,1,1315.366,1991.981Z" transform="translate(-1314.562 -1988.797)" fill="#4e4059"/>
        </g>
      </g>
      <g id="Grupo_72455" data-name="Grupo 72455" transform="translate(142.317 101.405)">
        <path id="Trazado_107732" data-name="Trazado 107732" d="M1060.81,887.81a.634.634,0,0,1-.44-.177l-11.233-10.768a.636.636,0,1,1,.88-.918l11.233,10.768a.636.636,0,0,1-.44,1.095Z" transform="translate(-1048.941 -875.77)" fill="#ea907e"/>
      </g>
      <g id="Grupo_72456" data-name="Grupo 72456" transform="translate(70.736 161.152)">
        <path id="Trazado_107733" data-name="Trazado 107733" d="M669.79,1203.655a.615.615,0,0,1-.106-.009.635.635,0,0,1-.522-.73c.043-.256,1.127-6.317,8.582-10.076a.636.636,0,0,1,.573,1.136c-6.851,3.454-7.89,9.093-7.9,9.15A.637.637,0,0,1,669.79,1203.655Z" transform="translate(-669.153 -1192.772)" fill="#ea907e"/>
      </g>
    </g>
  </g>
</svg>
