<svg xmlns="http://www.w3.org/2000/svg" width="610" height="292.048" viewBox="0 0 610 292.048">
  <g id="Grupo_71050" data-name="Grupo 71050" transform="translate(-128.633 -130.187)">
    <path id="Trazado_105690" data-name="Trazado 105690" d="M731.444,514.565a61.071,61.071,0,0,1-4.409,9.692q-.753,1.336-1.584,2.635H191.325s-48.647-111.4,17.627-165.336q1.243-1.009,2.494-1.981,1.152-.891,2.316-1.751,1.131-.838,2.272-1.643c19.976-14.109,41.85-21.087,64.793-25.412q1.212-.231,2.43-.447c.771-.141,1.541-.276,2.314-.409,18.6-3.209,37.86-4.9,57.346-7.4,6.783-.875,13.594-1.848,20.414-3.02,27.29-4.683,54.729-12.545,81.147-29.913,32.591-21.427,66.2-26.854,94.753-22.6q2.919.433,5.761,1,4.18.832,8.184,1.933c34.3,9.414,58.575,33.053,59.968,57.5.939,16.476,2.893,32.309,7.221,46.044a83.479,83.479,0,0,0,7.677,17.592q1.29,2.175,2.725,4.21c9.447,13.378,23.8,22.193,45.675,23.659,15.206,1.02,28.015,7.831,37.765,17.914l.272.283C733.317,456.823,740.588,488.8,731.444,514.565Z" transform="translate(-35.684 -106.274)" fill="#fcecdb"/>
    <path id="Trazado_105691" data-name="Trazado 105691" d="M2082.392,523.089a61.078,61.078,0,0,1-4.409,9.692H1895.938V276.5q4.18.832,8.184,1.933c34.3,9.414,58.575,33.053,59.969,57.5.938,16.476,2.893,32.309,7.221,46.044a83.484,83.484,0,0,0,7.677,17.592q1.29,2.175,2.725,4.21c9.447,13.378,23.8,22.193,45.675,23.659,15.205,1.02,28.015,7.831,37.765,17.914l.272.283C2084.265,465.346,2091.535,497.327,2082.392,523.089Z" transform="translate(-1386.631 -114.798)" fill="#fff4eb"/>
    <path id="Trazado_105692" data-name="Trazado 105692" d="M913.769,652.647c-.934-.6-3.1-3.25-4.6-5.182.216-.131.336-.21.336-.21-4.374-12.02-7.981-21.863-10.955-29.927a9.423,9.423,0,0,0,.957-2.914c1.076-5.543-4.328-7.646-4.328-7.646-.027-.015-.058-.027-.087-.042,3.221-24.227-4.527-25.874-4.527-25.874a16.774,16.774,0,0,0-6.151-.463c-1.142-2.461-3.431-3.973-7.206-4.164a9.751,9.751,0,0,0-3.7.633c.176-.276.349-.552.521-.833.791-.488,7.41-4.75,6.838-9.868a6.26,6.26,0,0,0-.671-2.357,8.939,8.939,0,0,0-.342-1.167c.588-2.575.623-4.666-.048-5.862a12.757,12.757,0,0,0-5.219-4.61,3.7,3.7,0,0,1,1.664.22c-.922-.75-3.892-1.213-3.892-1.213-10.574-13.451-26.883,3.97-29.853,8.51a21.509,21.509,0,0,1-6.1,6.7,14.662,14.662,0,0,1-3.136-1.973c-3.946-3.914-8.687-17.052-13.139-25.722a.124.124,0,0,1-.006-.015.366.366,0,0,1,.044,0c-.546-1.466-4.2-7.16-4.2-7.16h0c-.017-.014-2.324-1.9-8.732-4.153,0,0-.511-.2-1.366-.5-.4-.64.077-2.922.741-5.283.185-.654.382-1.315.579-1.948.164-.523.326-1.026.482-1.493,1.354.413,2.278.6,2.278.6,1.3.193,2.76-1.113,4.149-3.073-6.82,1.171-13.631,2.145-20.414,3.02a10.581,10.581,0,0,1-3.618,3.894c-.918-.1-2.031-.2-3.1-.251,0,0-6.859-.831-10.934.5-.1.025-.191.052-.276.077a6.694,6.694,0,0,0-3.844,3.663,15.6,15.6,0,0,0-1.453,7l.013-.012v.023a12.714,12.714,0,0,0,.037,1.649,31.091,31.091,0,0,0,.968,5.817,121.869,121.869,0,0,1-.577,15.176,11.12,11.12,0,0,1-1.921,5.013,12.348,12.348,0,0,1-1.42,1.709c-4.237,4.247-11.75,12.716-10.1,17.987.01.413.347.837.951,1.265-2.266,3.528-4.795,9.628-4.155,18.8.542,7.788,1.535,40.878,2.569,50.67.374,3.549.7,6.074.837,7.084a.029.029,0,0,1,0,.01,1.285,1.285,0,0,1-.253.866,44.04,44.04,0,0,0-3.823,7.188c-6.529,15.554-4.023,33.422-1.4,44.213-.035-.033-.073-.064-.106-.1.451,2.89-1.437,3.977-2.642,6.367a10.63,10.63,0,0,0-.681,5.771h24.087c-.486-4.077-7.505-3.715-9.079-4.726-1.424-.916-3.752-4.224-4.179-4.843-.031,0-.062.007-.091.008,2.21-10.327,6.834-30.9,10.795-41.6a27.364,27.364,0,0,1,2.612-5.609c2.357-3.4,4.546-8.961,6.533-15.573.284-.949.565-1.925.843-2.916.268,1.368.513,2.625.731,3.744.231,1.182.434,2.21.6,3.065.355,1.832.559,2.87.559,2.87a30.842,30.842,0,0,0-.683,11.584c1.861,16.493,13.372,34.623,19.5,43.27A5.292,5.292,0,0,1,802.013,715a4.077,4.077,0,0,1-.845,2.288c-1.58,2.336-.681,5.771-.681,5.771h24.088c-.484-4.077-7.5-3.715-9.077-4.726-1.387-.891-5.827-5.389-6.863-6.446a.205.205,0,0,1-.031.017c-2.1-8.538-6.838-29.005-7.647-43.333a41.162,41.162,0,0,1,.4-10.169c.748-3.532,1.348-6.969,1.826-10.3a146.789,146.789,0,0,0,.986-33.557c-.262-3-.609-5.777-.991-8.29a160.993,160.993,0,0,0-2.673-17.509c2.01-.309,3.146-.883,2.98-1.782,0,0,.5-2.17,1.314-5.489q1.228.3,2.459.583a23.254,23.254,0,0,0,1.525,13.025c.056.127,9.748,15.469,9.748,15.469a7.86,7.86,0,0,1,.893-1.124c-.664,6.4-.98,11.651-2.079,13.123-2.8,3.752-18.281,30.145,5.524,33.958a56.534,56.534,0,0,0,11.144.862c.8-.006,1.568-.037,2.307-.087q2.062.106,4.4.087c12.141-.106,19.573-5.088,22.9-9.567.885-1.194,4.145-6.637,8.137-13.926-.119,7.32-.168,12.626-.168,12.626a2.464,2.464,0,0,0,1.034,2.372c-.454.935-1.022,1.842-1.468,2.725a10.632,10.632,0,0,0-.681,5.771h24.088c-.484-4.074-7.6-3.607-9.077-4.726a7.739,7.739,0,0,1-2.11-2.314c.4-.031.629-.056.629-.056,1.7-5.069,3.169-9.767,4.444-14.124,4.868,7.316,8.894,12.717,8.894,12.717a2.967,2.967,0,0,0,2.45,1.747,3.858,3.858,0,0,1-.349.984,10.643,10.643,0,0,0-.679,5.771l24.088,1.688C922.362,654.987,915.343,653.658,913.769,652.647Zm-102.64-78.728c-1.317-.7-2.627-1.412-3.89-2.12,1.267-4.855,2.708-10.1,4.079-14.447a76.033,76.033,0,0,0,9.812,11.758A16.017,16.017,0,0,0,811.128,573.919Z" transform="translate(-486.456 -302.443)" fill="#fae7d4"/>
    <g id="Grupo_71032" data-name="Grupo 71032" transform="translate(500.52 160.703)">
      <path id="Trazado_105693" data-name="Trazado 105693" d="M2068.411,743.995a60.49,60.49,0,0,1-5.993,12.327H1890.142v.019H1878.12V600.78h20.593V558.052H1919.3v57.724h16.67V602.883h21.357a83.475,83.475,0,0,0,7.677,17.592v4.21h2.724c9.447,13.378,23.8,22.193,45.675,23.66,15.206,1.02,28.015,7.831,37.765,17.914l.272.283C2070.285,686.252,2077.555,718.234,2068.411,743.995Z" transform="translate(-1873.171 -496.407)" fill="#f7dfc8"/>
      <g id="Grupo_71031" data-name="Grupo 71031" transform="translate(0)">
        <path id="Trazado_105694" data-name="Trazado 105694" d="M1883.137,274.794v257h-13.945V271.862A118.256,118.256,0,0,1,1883.137,274.794Z" transform="translate(-1866.166 -271.862)" fill="#efcbab"/>
        <path id="Trazado_105695" data-name="Trazado 105695" d="M1860.094,1433.652h12.022v-.019h172.276a60.494,60.494,0,0,0,5.993-12.327h-195.24v12.327Z" transform="translate(-1855.145 -1173.719)" fill="#efcbab"/>
      </g>
    </g>
    <path id="Trazado_105696" data-name="Trazado 105696" d="M372.113,953.851c-2.772-10.721-20.045-7.371-20.045-7.371s-11.729,18.762-15.141,19.208,7.037-18.091,7.037-18.091c-6.611-.67-23.457,7.818-23.457,7.818s1.066,21.888-2.346,21.442,0-19.432,0-19.432c-6.4,2.01-12.368,9.828-12.368,9.828-7.464,12.731,8.53,22.112,8.53,22.112a37.014,37.014,0,0,1-4.265,16.3,32.462,32.462,0,0,0-3.824,20.537h-4.953a24.677,24.677,0,0,0-3.025-14.658,28.076,28.076,0,0,1-3.236-12.369s12.133-7.117,6.471-16.774c0,0-4.53-5.93-9.383-7.456,0,0,2.588,14.4,0,14.742s-1.779-16.266-1.779-16.266-12.78-6.439-17.8-5.93c0,0,7.927,14.064,5.338,13.725s-11.486-14.572-11.486-14.572-13.1-2.542-15.206,5.591,1.294,12.2,3.235,12.708,14.4.339,14.074,2.033-8.736,4.406-13.427,2.881c0,0,5.176,13.385,11.971,12.708s8.9-5.083,13.1-5.422,7.28.847,5.177,2.033-9.221.389-12.618,3.414-6.147,4.889.162,6.244,17.634.509,19.9-4.575l.283-.635a2.735,2.735,0,0,1-.283.635c1.164.711,2.909,4.1,4.121,6.7.173.443.446,1.055.851,1.888h0c.164.376.3.684.387.9,1.4,3.662,1.452,8.994,1.3,12.454H281.426v1.006h1.046a32.8,32.8,0,0,0,19.586,29.429H285.889a3.96,3.96,0,0,0-3.865,4.048h63.522a3.96,3.96,0,0,0-3.865-4.048H325.512a32.8,32.8,0,0,0,19.585-29.429h.728v-1.006H312.435a19.133,19.133,0,0,1,2.766-4.716c.132-.142.322-.347.557-.6.55-.533.935-.934,1.194-1.232,1.68-1.691,4-3.844,5.12-4.052a2.373,2.373,0,0,1-.048-.589c.015.189.031.383.048.589.383,4.71,9.108,8.824,14.475,9.67s3.709-1.465,1.859-4.891-7.7-4.96-9.038-6.538,1.425-1.582,4.659-.035,3.677,5.672,8.865,8.275,12.994-6.415,12.994-6.415c-4.134-.22-10.039-4.923-9.825-6.362s10.022,2.482,11.7,2.671,5.492-2,6.083-9.071-10.482-9.048-10.482-9.048-2.553,1.988-5.437,3.99a18.768,18.768,0,0,0-2.573-2.583c.952-.883,1.808-1.642,2.341-2.11a19.957,19.957,0,0,0,3.523.668c8.957.894,15.78-16.751,15.78-16.751-6.184,2.01-17.273-1.564-17.7-3.8s15.993-2.01,18.552-2.68S374.885,964.572,372.113,953.851Zm-45.491,50.426c-.509-.275-.475-1.2-.147-2.414.706.168,1.433.313,2.171.436C327.9,1003.7,327.18,1004.579,326.622,1004.278ZM315.7,1019.7a19.765,19.765,0,0,0-4.986,6.5H308.6c-.262-4.437-.365-12.352,1.65-17.631.12-.283.293-.689.51-1.185h0c.535-1.1.9-1.9,1.123-2.488,1.6-3.43,3.9-7.9,5.431-8.837a3.621,3.621,0,0,1-.373-.838l.373.838a7.084,7.084,0,0,0,1.687,2.3c-2.915,5.686,2.693,12.539,2.693,12.539A22.891,22.891,0,0,1,315.7,1019.7Zm23.554-28.121c-4.585-1.324-10.116-1.077-12.136-2.217-2.772-1.563,1.279-3.127,6.824-2.68,3.73.3,6.207,3.025,10.154,5.05A47.243,47.243,0,0,0,339.254,991.581Z" transform="translate(-95.631 -640.077)" fill="#f6dbc3"/>
    <g id="Grupo_71039" data-name="Grupo 71039" transform="translate(166.712 293.476)">
      <g id="Grupo_71034" data-name="Grupo 71034" transform="translate(67.657 50.531)">
        <path id="Trazado_105697" data-name="Trazado 105697" d="M674.061,1144.281s-8.855-10.33-.546-16.891c0,0,6.069-3.674,11.017-3.376,0,0-7.012,11.758-4.743,12.928s6.868-13.666,6.868-13.666,13.811-1.339,18.254.8c0,0-11.807,9.662-9.32,10.237s15.239-8.908,15.239-8.908,12.854,2.188,12.169,10.029-5.114,10.263-7.061,10.054-13.334-4.556-13.582-2.96,6.606,6.807,11.406,7.051c0,0-9.062,9.994-15.085,7.11s-6.537-7.457-10.291-9.171-6.959-1.711-5.409.038,8.345,3.449,10.492,7.246,4.073,6.359-2.158,5.422-16.36-5.5-16.8-10.718Z" transform="translate(-659.095 -1122.861)" fill="#599dad"/>
        <g id="Grupo_71033" data-name="Grupo 71033" transform="translate(0 12.72)">
          <path id="Trazado_105698" data-name="Trazado 105698" d="M703.325,1181.974s-34.912-1.345-42.622,8.639a25.246,25.246,0,0,1-6.952,9.757l-.817,2.229s6.049-6.379,8.214-6.765C661.147,1195.834,657.762,1183.465,703.325,1181.974Z" transform="translate(-645.736 -1181.913)" fill="#599dad"/>
          <path id="Trazado_105699" data-name="Trazado 105699" d="M627.536,1264.4a21.923,21.923,0,0,0-8.014,15.444l1.36.122s2.393-10.239,6.719-14.243S627.536,1264.4,627.536,1264.4Z" transform="translate(-619.522 -1245.943)" fill="#599dad"/>
        </g>
      </g>
      <g id="Grupo_71036" data-name="Grupo 71036" transform="translate(0 22.484)">
        <path id="Trazado_105700" data-name="Trazado 105700" d="M357.082,1029.127s14.085-7.888,7.512-18.593c0,0-5.259-6.573-10.893-8.263,0,0,3.005,15.963,0,16.339s-2.066-18.029-2.066-18.029-14.837-7.137-20.659-6.573c0,0,9.2,15.588,6.2,15.213s-13.334-16.151-13.334-16.151-15.212-2.817-17.654,6.2,1.5,13.522,3.756,14.085,16.714.375,16.339,2.254-10.141,4.883-15.588,3.193c0,0,6.01,14.837,13.9,14.085s10.329-5.634,15.212-6.01,8.452.939,6.01,2.254-10.7.431-14.649,3.784-7.137,5.419.188,6.921,20.471.563,23.1-5.071Z" transform="translate(-305.417 -992.651)" fill="#6bb7bf"/>
        <g id="Grupo_71035" data-name="Grupo 71035" transform="translate(7.719 9.432)">
          <path id="Trazado_105701" data-name="Trazado 105701" d="M341.253,1036.438s39.439,12.771,43.946,27.044a29.958,29.958,0,0,0,3.757,13.71v2.817s-4.132-9.578-6.386-10.893C382.57,1069.116,391.4,1056.721,341.253,1036.438Z" transform="translate(-341.253 -1036.438)" fill="#6bb7bf"/>
          <path id="Trazado_105702" data-name="Trazado 105702" d="M555.852,1219.253s6.082,9.236,2.614,20.479l-1.565-.42s1.519-12.383-1.663-18.611S555.852,1219.253,555.852,1219.253Z" transform="translate(-508.149 -1178.499)" fill="#6bb7bf"/>
        </g>
      </g>
      <g id="Grupo_71038" data-name="Grupo 71038" transform="translate(61.868 0)">
        <path id="Trazado_105703" data-name="Trazado 105703" d="M604.848,936.349s-18.567-10.4-9.9-24.508c0,0,6.932-8.665,14.358-10.893,0,0-3.961,21.042,0,21.538s2.723-23.766,2.723-23.766,19.557-9.407,27.232-8.665c0,0-12.131,20.547-8.17,20.052s17.577-21.29,17.577-21.29,20.052-3.713,23.27,8.169-1.98,17.824-4.951,18.567-22.033.5-21.538,2.971,13.368,6.437,20.547,4.208c0,0-7.922,19.557-18.319,18.567s-13.616-7.427-20.052-7.922-11.14,1.238-7.922,2.971,14.111.568,19.31,4.988,9.407,7.143-.247,9.123-26.984.742-30.45-6.684Z" transform="translate(-592.642 -888.268)" fill="#86d1cd"/>
        <g id="Grupo_71037" data-name="Grupo 71037" transform="translate(2.4 12.432)">
          <path id="Trazado_105704" data-name="Trazado 105704" d="M689.2,945.985s-51.988,16.834-57.929,35.649a39.493,39.493,0,0,1-4.951,18.072v3.713s5.446-12.626,8.417-14.358C634.741,989.061,623.106,972.721,689.2,945.985Z" transform="translate(-621.469 -945.985)" fill="#6bb7bf"/>
          <path id="Trazado_105705" data-name="Trazado 105705" d="M608.639,1186.969s-8.017,12.175-3.447,26.995l2.063-.554s-2-16.324,2.193-24.533S608.639,1186.969,608.639,1186.969Z" transform="translate(-603.784 -1133.249)" fill="#6bb7bf"/>
        </g>
      </g>
      <path id="Trazado_105706" data-name="Trazado 105706" d="M513.927,1337.436a36.37,36.37,0,0,0,36.37-36.37h-72.74A36.37,36.37,0,0,0,513.927,1337.436Z" transform="translate(-440.479 -1212.15)" fill="#e0b594"/>
      <path id="Trazado_105707" data-name="Trazado 105707" d="M539.022,1337.157a36.394,36.394,0,0,1-40.887-36.092h9.035A36.376,36.376,0,0,0,539.022,1337.157Z" transform="translate(-456.624 -1212.149)" fill="#ffebdc"/>
      <path id="Trazado_105708" data-name="Trazado 105708" d="M548.969,1462.165H475.225a4.487,4.487,0,0,1,4.487-4.487h64.77a4.487,4.487,0,0,1,4.487,4.487Z" transform="translate(-438.649 -1335.028)" fill="#e0b594"/>
      <rect id="Rectángulo_8840" data-name="Rectángulo 8840" width="74.763" height="1.116" transform="translate(35.883 88.916)" fill="#e0b594"/>
    </g>
    <path id="Rectángulo_8841" data-name="Rectángulo 8841" d="M.809,0H609.191A.809.809,0,0,1,610,.809v0a.809.809,0,0,1-.809.809H.809A.809.809,0,0,1,0,.809v0A.809.809,0,0,1,.809,0Z" transform="translate(128.633 420.617)" fill="#2e3552"/>
    <g id="Grupo_71040" data-name="Grupo 71040" transform="translate(324.783 130.187)">
      <path id="Trazado_105709" data-name="Trazado 105709" d="M1238.037,138.7c-.025-.69-.56-8.129-11.89-8.517,0,0,5.571.664,6.534,3.114,0,0-3.794-3.027-6.883-2.053s-4.9,6.386-4.922,8.167,1.7,7.519,3.659,8.007a5.984,5.984,0,0,0,2.375,0,26.752,26.752,0,0,0-1.522,2.717c-4.521,9.281.141,18.351,3.969,17.349,2.455-.643,3.149,3.546,3.149,3.546l23.848-19.307S1247.6,133.6,1238.037,138.7Z" transform="translate(-1181.76 -130.187)" fill="#2c3a64"/>
      <path id="Trazado_105710" data-name="Trazado 105710" d="M1381.923,473.217c-1.15-1.15-8.089-.882-8.089-.882s-3.833-1.533-8.549-3.6c-6.555-2.913-14.8-6.824-16.6-8.817-4.179-4.638-9.2-20.2-13.916-30.476q-.633-1.438-1.265-2.76a.968.968,0,0,0-.153-.269c-.23-.422-.422-.8-.613-1.15,0-.038-.038-.076-.077-.115a17.578,17.578,0,0,0-2.645-3.91V421.2c-1.035-1.111-2.032-1.572-2.952-1.188a13.24,13.24,0,0,0-3.642,3.1,2.869,2.869,0,0,0-.537.652,16.031,16.031,0,0,0-2.837,5.673,19.8,19.8,0,0,0-.652,6.287c.153,3.948,2.108,8.893,4.907,13.877a6.184,6.184,0,0,0,.384.69c5.367,9.392,13.609,18.785,18.63,21.851,3.3,2.032,11.577,3.258,18.554,3.948,4.638.5,8.74.728,10.427.844.728.8,6.018,6.862,8.012,5.1C1382.5,480.156,1383.073,474.367,1381.923,473.217Z" transform="translate(-1259.039 -357.477)" fill="#ed985f"/>
      <path id="Trazado_105711" data-name="Trazado 105711" d="M1797.51,1064.226l-25.513-2a14.006,14.006,0,0,1,.721-6.838c1.277-2.831-.48-4.879-2.228-8.25,1.621,1.669,7.2,1.423,10.893.927.452.733,5,7.477,6.511,8.561C1789.562,1057.823,1797,1059.4,1797.51,1064.226Z" transform="translate(-1612.988 -849.628)" fill="#233862"/>
      <path id="Trazado_105712" data-name="Trazado 105712" d="M1663.378,1058.618h-25.513a14.006,14.006,0,0,1,.721-6.838c1.277-2.831,3.5-5.869,1.754-9.241,1.621,1.669,6.742,1.486,10.431.99.452.733-1.707,5.521,2.993,9.489C1655.332,1054.342,1662.865,1053.789,1663.378,1058.618Z" transform="translate(-1508.82 -846.021)" fill="#233862"/>
      <path id="Trazado_105713" data-name="Trazado 105713" d="M1461.477,694.59s-8.474-3.395-20.062,8.381c-22.25,18.022-50.822,63.871-53.507,67.089-5.379,6.444-1.222,15.414,20.774,15.2,12.859-.125,20.73-6.029,24.255-11.337.939-1.415,4.39-7.864,8.619-16.5-.126,8.674-.179,14.961-.179,14.961-.66,6.148,13.151,4.467,13.151,4.467C1477.95,698.5,1461.477,694.59,1461.477,694.59Z" transform="translate(-1311.152 -572.663)" fill="#163560"/>
      <path id="Trazado_105714" data-name="Trazado 105714" d="M1403.07,517.993a14.106,14.106,0,0,0-5.529-5.464,3.569,3.569,0,0,1,1.763.261c-.978-.889-4.122-1.436-4.122-1.436-11.2-15.939-28.475,4.7-31.62,10.083s-7.093,11.347-17.736,10.928c-20.941-.825-22.273,20.237-17.989,31.022.06.152,10.326,18.331,10.326,18.331,2.417-4.43,24.154-23.228,38.624-23.091,4.86-1.962,9.993-7.741,10.393-8.2-3.8,4.761-6.562,7.013-8.4,8.089C1392.537,556.391,1406.5,524.849,1403.07,517.993Z" transform="translate(-1264.135 -424.599)" fill="#b5453c"/>
      <path id="Trazado_105715" data-name="Trazado 105715" d="M1508.8,668.894c.039.054-1.891,7.2-7.692,4.063-3.808-2.057-9.919-10.83-7.564-13.8,1.12-1.413,6.05-4.1,11.184-13.189l.616.532,10.363,8.964s-2.359,3.524-4.339,6.982C1509.708,665.347,1508.314,668.2,1508.8,668.894Z" transform="translate(-1395.286 -534.868)" fill="#f4a269"/>
      <path id="Trazado_105716" data-name="Trazado 105716" d="M1548.479,562.216s.193-7.367,2.371-12.318c1.556-3.534,11.009-14.162,21.643-4.593a19.241,19.241,0,0,1,4.949,6.948c1.4,3.437,2.589,9.631-8.379,17.084l-3.383,2.733Z" transform="translate(-1438.797 -452.833)" fill="#b5453c"/>
      <path id="Trazado_105717" data-name="Trazado 105717" d="M1483.81,666.093s3.808.726,5.417-1.431,5.114-6.72,5.933-4.1,8.548,10.232,10.336,10.431,3.041.7,2.029,1.627-.59,4.636-1.6,4.973S1486.14,665.889,1483.81,666.093Z" transform="translate(-1388.058 -545.7)" fill="#6bb7bf"/>
      <path id="Trazado_105718" data-name="Trazado 105718" d="M1557.516,597.453s-14.945-9.663-8.785-18.877,8.381-16.668,18.183-10.888,9.287,10.523,7.979,14.1S1561.563,599.729,1557.516,597.453Z" transform="translate(-1437.827 -471.855)" fill="#ffb27d"/>
      <path id="Trazado_105719" data-name="Trazado 105719" d="M1395.721,699.875s-25.309-18.65-34.167-11.625c-13.064,10.361-10.452,45.34-13.486,49.891s-20.133,37.189,7.676,40.509,34.215-14.211,35.479-27.36S1395.721,699.875,1395.721,699.875Z" transform="translate(-1275.297 -566.803)" fill="#6bb7bf"/>
      <path id="Trazado_105720" data-name="Trazado 105720" d="M1437.052,746.829s-7.288,40.288,7.155,51.294S1465.919,745.583,1437.052,746.829Z" transform="translate(-1349.929 -613.992)" fill="#599dad"/>
      <path id="Trazado_105721" data-name="Trazado 105721" d="M1511.233,704.923s.277-4.707,4.43-2.907,11.837,4.5,14.814,3.392-4.787,13.775-11.878,8.791S1511.233,704.923,1511.233,704.923Z" transform="translate(-1409.574 -578.523)" fill="#599dad"/>
      <path id="Trazado_105722" data-name="Trazado 105722" d="M1570.619,569.329s-11.287,8.09-18.569,5.525-8.861-6.036-8.861-6.036a21.174,21.174,0,0,0,12.717-6.536S1571.012,562.141,1570.619,569.329Z" transform="translate(-1434.648 -469.21)" fill="#b5453c"/>
      <path id="Trazado_105723" data-name="Trazado 105723" d="M1759.861,838.806a8.278,8.278,0,0,1,4.585,9.059c-1.138,6.568-3.413,4.367-3.413,4.367Z" transform="translate(-1604.648 -686.171)" fill="#ffb27d"/>
      <path id="Trazado_105724" data-name="Trazado 105724" d="M1655.567,594.113s1.406,4.437.572,7.276-3.738,7.888-2.221,8.666c0,0,7.97-5.3,7.327-11.749C1660.562,591.466,1655.567,594.113,1655.567,594.113Z" transform="translate(-1521.186 -493.789)" fill="#b5453c"/>
      <path id="Trazado_105725" data-name="Trazado 105725" d="M1354.925,751.707c3.379-4.049,47.976-82,66.527-80.952,27.92,1.578-20.875,79.407-24.3,84.562-3.525,5.308-8.6,11.465-21.456,11.59C1353.7,767.121,1349.546,758.151,1354.925,751.707Z" transform="translate(-1285.274 -554.31)" fill="#1c468a"/>
      <path id="Trazado_105726" data-name="Trazado 105726" d="M1657.789,696.244s1.11,1.035,26.365,78.682c0,0-10.538,7.636-12.884,1.915,0,0-34.033-51.079-26.017-60.074S1657.789,696.244,1657.789,696.244Z" transform="translate(-1513.767 -574.317)" fill="#1c468a"/>
      <path id="Trazado_105727" data-name="Trazado 105727" d="M1430.309,698.612s-6.667,10.3,14.066,19.746,23.172,11.754,27.216,12.6c6.3,1.314,30.495,1.129,30.495,1.129s.635-3.837-1.593-5.133c-3.568-2.075-24.177-5.445-26.956-6.556S1441.146,687.454,1430.309,698.612Z" transform="translate(-1345.28 -574.316)" fill="#ed985f"/>
      <path id="Trazado_105728" data-name="Trazado 105728" d="M1187.382,865.689l-5.066,1.886s-22-30.516-24.711-57.364a40.77,40.77,0,0,1,.724-13.726s-.215-1.229-.591-3.4c-.174-1.013-.389-2.233-.633-3.631-.715-4.1-1.7-9.706-2.824-16.092-2.589-14.694-5.943-33.478-8.548-47.287l1.365-.438,14.768-4.764,3.052-9.694,11-2.9s2.457,4.806,4.653,27.506c.405,2.978.773,6.261,1.051,9.822a194.376,194.376,0,0,1-1.046,39.764q-.757,5.918-1.931,12.2a54.421,54.421,0,0,0-.422,12.051C1179.326,831.58,1187.382,865.689,1187.382,865.689Z" transform="translate(-1122.801 -583.763)" fill="#2b478b"/>
      <path id="Trazado_105729" data-name="Trazado 105729" d="M1181.617,745.612l-23.879,47.473c-.174-1.013-.389-2.233-.633-3.631-.715-4.1-1.7-9.706-2.824-16.092-2.589-14.694-5.943-33.478-8.548-47.287l1.365-.438,14.768-4.764,3.052-9.694,11-2.9s2.457,4.806,4.653,27.506C1180.972,738.768,1181.34,742.052,1181.617,745.612Z" transform="translate(-1122.801 -583.763)" fill="#233862"/>
      <path id="Trazado_105730" data-name="Trazado 105730" d="M1090.719,694.262l-.553-4.74c-9.261,2.46-34.006-6.874-34.006-6.874s-8.972,7.886-7.794,26.791c.575,9.227,1.625,48.437,2.722,60.039.4,4.2.744,7.2.886,8.393a.021.021,0,0,1,0,.011,1.656,1.656,0,0,1-.269,1.028,54.514,54.514,0,0,0-4.049,8.514c-10.766,28.69,1.659,64.021,1.659,64.021l3.224-1.3s7.071-39.32,12.816-56.691a34.408,34.408,0,0,1,2.766-6.645c2.5-4.031,4.816-10.619,6.92-18.453,3.977-14.812,7.178-34.081,9.308-48.954C1084.644,719.418,1090.719,694.262,1090.719,694.262Z" transform="translate(-1042.408 -563.649)" fill="#2b478b"/>
      <path id="Trazado_105731" data-name="Trazado 105731" d="M1233.289,344.066a28.844,28.844,0,0,1-10.666,2.5c-15.922.872-19.537-13.085-20.194-22.349a13.35,13.35,0,0,1,5.463-.691c1.129.062,2.307.178,3.28.3,1.948-1.018,5.447-5.96,7.469-14.227l.687.318,11.489,5.4s-1.22,3.739-2.122,7.316c-.7,2.8-1.208,5.5-.786,6.262.906.368,1.447.6,1.447.6a.03.03,0,0,0,0,.012A78.83,78.83,0,0,1,1233.289,344.066Z" transform="translate(-1167.286 -270.951)" fill="#ffb27d"/>
      <path id="Trazado_105732" data-name="Trazado 105732" d="M1292.368,316.486s-1.221,3.735-2.122,7.316c-6.715-1.874-8.755-8.933-9.368-12.717Z" transform="translate(-1228.837 -272.12)" fill="#ed985f"/>
      <path id="Trazado_105733" data-name="Trazado 105733" d="M1290.318,248.082s-16.067-3.718-13.6-13.688,2.059-17.164,12.421-15.212,11.406,6.249,11.391,9.777S1294.561,248.792,1290.318,248.082Z" transform="translate(-1225.373 -199.761)" fill="#ffb27d"/>
      <path id="Trazado_105734" data-name="Trazado 105734" d="M1432.729,686.74s10.59.428,32.68,20.779c0,0,3.381,4.1,5.062,4.378s6.237,1.471,6.338,2.63-5.611,15.7-12.879,16.112-41.326-24.609-38.938-33.019S1432.729,686.74,1432.729,686.74Z" transform="translate(-1341.815 -566.86)" fill="#6bb7bf"/>
      <path id="Trazado_105735" data-name="Trazado 105735" d="M1286.725,216.68c-1.727-3.613-3.76-3.421-5.032-2.78a11.525,11.525,0,0,0-14.954-1.279,19.621,19.621,0,0,1-9.027,9.7s2.468,2.527,9.622,2.472a11.776,11.776,0,0,0,6.381-2.4,38.476,38.476,0,0,1-8.377,6.248c8.955-1.714,14.959-12.081,15.575-13.182.759,1.12,2.21,3.505,2.332,5.519.166,2.737-.776,8.051.791,8.252C1284.037,229.226,1289.316,222.1,1286.725,216.68Z" transform="translate(-1210.662 -193.142)" fill="#2c3a64"/>
      <path id="Trazado_105736" data-name="Trazado 105736" d="M1148.215,392.524c-.579-1.737-4.447-8.485-4.447-8.485h0c-.019-.017-2.462-2.255-9.251-4.921a.031.031,0,0,0,0,.012c.108.4,3.006,10.9,1.948,13.139-1.075,2.279-21.427-5.079-22.539-6.758-.889-1.348-.914-8.474-.889-11.249,0-.691.012-1.112.012-1.112s-7.6-1.03-11.869.7a32.847,32.847,0,0,1,2.307,7.7c.058.384.108.769.145,1.154a15.332,15.332,0,0,1,.062,2.424,4.631,4.631,0,0,1-1.468,2.891,22.489,22.489,0,0,1-3.061,2.539c-.79.571-1.638,1.17-2.515,1.819h0c-.074,4.758.261,12.582-.62,20.93a14.13,14.13,0,0,1-2.035,5.939,14.3,14.3,0,0,1-1.505,2.026c-4.487,5.033-12.444,15.066-10.7,21.311.128,5.889,49.8,13.627,48.739,7.159,0,0,7.465-35.976,11.5-44.661.145-.318.277-.629.4-.947a20.313,20.313,0,0,0,.637-10.107A9.3,9.3,0,0,1,1148.215,392.524Z" transform="translate(-1072.444 -320.579)" fill="#f99746"/>
      <path id="Trazado_105737" data-name="Trazado 105737" d="M1162.5,492.941c-9.8-.1-18.094-10.277-23.164-18.408a14.131,14.131,0,0,0,2.035-5.939c.881-8.348.546-16.172.62-20.93h0c.877-.649,1.725-1.249,2.515-1.819a22.48,22.48,0,0,0,3.06-2.539C1155.591,456.866,1175.786,493.081,1162.5,492.941Z" transform="translate(-1117.784 -375.86)" fill="#ed7d2b"/>
      <path id="Trazado_105738" data-name="Trazado 105738" d="M1222.874,448.382s-6.364-4.561-10.159-3.68c-3.374.767-10.58-.767-12-1.073-1.687-.92-3.718-2.032-5.865-3.259a171.687,171.687,0,0,1-15.181-9.43c-2.339-1.687-4.1-3.182-4.715-4.255a52.821,52.821,0,0,1-3.22-7.475c-.613-1.687-1.265-3.527-1.917-5.482-1.15-3.22-2.3-6.709-3.488-10.2-2.147-6.364-4.447-12.766-6.632-17.711a34.821,34.821,0,0,0-4.1-7.245c-1.035-1.265-2.032-1.917-2.99-1.763-.153.038-.268.076-.383.115,0,0-5.52,1.533-5.6,12.65a16.956,16.956,0,0,0,.038,1.955,41.2,41.2,0,0,0,1.035,6.939,104.9,104.9,0,0,0,4.37,14.568c.536,1.38,1.073,2.8,1.648,4.217,4.14,10.274,9.469,19.858,13.954,23.116a4.594,4.594,0,0,0,.537.383,40.309,40.309,0,0,0,7.82,3.488c4.524,1.534,9.891,2.914,14.682,4.064h.038c2.8.613,5.367,1.188,7.514,1.61,0,0,.46.115,1.265.268a85.686,85.686,0,0,1,10.159,3.105c5.52,2.185,8.97-1.419,11.424-2.453C1223.564,449.839,1222.874,448.382,1222.874,448.382Z" transform="translate(-1123.49 -323.672)" fill="#ffb27d"/>
      <path id="Trazado_105739" data-name="Trazado 105739" d="M1159.691,385.907c-7.38-2.035-13.073,3.728-13.073,3.728.093-11.1,5.617-12.618,5.617-12.618C1154.458,376.1,1157.034,379.945,1159.691,385.907Z" transform="translate(-1123.496 -323.744)" fill="#f99746"/>
      <path id="Trazado_105740" data-name="Trazado 105740" d="M1064.927,1426.15h-25.513a14.008,14.008,0,0,1,.721-6.839c1.276-2.831,3.277-4.117,2.8-7.542a9.188,9.188,0,0,0,7.952,3.042c.452.733,2.917,4.654,4.427,5.738C1056.979,1421.748,1064.414,1421.321,1064.927,1426.15Z" transform="translate(-1039.274 -1135.719)" fill="#233862"/>
      <path id="Trazado_105741" data-name="Trazado 105741" d="M1318.774,1430.317h-25.513s-.954-4.069.721-6.838c1.483-2.45.915-3.846-.184-5.873a9.912,9.912,0,0,0,4.3.809,8.984,8.984,0,0,0,3.794-1.334c1.1,1.252,5.8,6.581,7.269,7.637C1310.826,1425.916,1318.261,1425.489,1318.774,1430.317Z" transform="translate(-1238.341 -1139.887)" fill="#233862"/>
    </g>
    <g id="Grupo_71043" data-name="Grupo 71043" transform="translate(373.148 336.65)">
      <rect id="Rectángulo_8842" data-name="Rectángulo 8842" width="93.39" height="75.264" transform="translate(0 8.703)" fill="#c6601a"/>
      <rect id="Rectángulo_8843" data-name="Rectángulo 8843" width="84.496" height="75.262" transform="translate(55.589 8.704)" fill="#f1a34f"/>
      <g id="Grupo_71041" data-name="Grupo 71041" transform="translate(69.659 21.682)">
        <path id="Trazado_105742" data-name="Trazado 105742" d="M1588.761,1189.369a1.5,1.5,0,1,0,1.549,1.5A1.524,1.524,0,0,0,1588.761,1189.369Z" transform="translate(-1587.212 -1189.369)" fill="#d3671e"/>
        <path id="Trazado_105743" data-name="Trazado 105743" d="M1851.051,1190.867a1.55,1.55,0,1,1,1.549,1.5A1.524,1.524,0,0,1,1851.051,1190.867Z" transform="translate(-1794.221 -1189.369)" fill="#d3671e"/>
        <path id="Trazado_105744" data-name="Trazado 105744" d="M1588.761,1409.479a1.5,1.5,0,1,0,1.549,1.5A1.524,1.524,0,0,0,1588.761,1409.479Z" transform="translate(-1587.212 -1362.068)" fill="#d3671e"/>
        <path id="Trazado_105745" data-name="Trazado 105745" d="M1851.051,1410.977a1.55,1.55,0,1,1,1.549,1.5A1.524,1.524,0,0,1,1851.051,1410.977Z" transform="translate(-1794.221 -1362.068)" fill="#d3671e"/>
      </g>
      <g id="Grupo_71042" data-name="Grupo 71042" transform="translate(8.794 21.682)">
        <path id="Trazado_105746" data-name="Trazado 105746" d="M1304.64,1190.867c0-.827.429-1.5.959-1.5s.959.67.959,1.5-.429,1.5-.959,1.5S1304.64,1191.694,1304.64,1190.867Z" transform="translate(-1304.64 -1189.369)" fill="#b25618"/>
        <path id="Trazado_105747" data-name="Trazado 105747" d="M1468.058,1190.867c0-.827.429-1.5.959-1.5s.959.67.959,1.5-.429,1.5-.959,1.5S1468.058,1191.694,1468.058,1190.867Z" transform="translate(-1432.858 -1189.369)" fill="#b25618"/>
        <path id="Trazado_105748" data-name="Trazado 105748" d="M1304.64,1410.977c0-.827.429-1.5.959-1.5s.959.671.959,1.5-.429,1.5-.959,1.5S1304.64,1411.8,1304.64,1410.977Z" transform="translate(-1304.64 -1362.068)" fill="#b25618"/>
        <ellipse id="Elipse_5345" data-name="Elipse 5345" cx="0.959" cy="1.498" rx="0.959" ry="1.498" transform="translate(35.2 47.411)" fill="#b25618"/>
      </g>
      <path id="Trazado_105749" data-name="Trazado 105749" d="M1263.813,1097.535s12.691-11.722,21.063-8.147c11.02,4.705,37.078,3.394,43.653,2.18s57.931,2.412,75.369,5.846Z" transform="translate(-1263.813 -1088.709)" fill="#d3671e"/>
      <path id="Trazado_105750" data-name="Trazado 105750" d="M1606.383,1184.639v19.743h-84.5v-75.262h14.175l.278.121S1543.926,1180.292,1606.383,1184.639Z" transform="translate(-1466.298 -1120.415)" fill="#d86713" opacity="0.4"/>
    </g>
    <g id="Grupo_71047" data-name="Grupo 71047" transform="translate(513.145 324.287)">
      <path id="Trazado_105751" data-name="Trazado 105751" d="M1934.654,1141.158s-17.175-2.434-18.172-5.206c0,0,1.193-2.506-.692-3.16-.506-.176-1.356-.5-1.734-.02l.024,5.112a30.454,30.454,0,0,1,2.889,3.26c.573.8,11.671,5.449,11.671,5.449Z" transform="translate(-1913.991 -1110.721)" fill="#163560"/>
      <path id="Trazado_105752" data-name="Trazado 105752" d="M2095.862,1292.523c1.628-2.353-.064-18.974-11.788-13.928-2.49.753-5.486,2.554-9.074,5.841,0,0-5.151,12.136,15.161,20.164a4.072,4.072,0,0,1,2.3,2.72c.286,1.85.607,10.2-.083,10.454s-1.709-.705-2.453.349a4.505,4.505,0,0,0-.482,2.793h7.381s3.527-18.743,3.329-20.234S2093.93,1295.315,2095.862,1292.523Z" transform="translate(-2039.81 -1224.586)" fill="#163560"/>
      <path id="Trazado_105753" data-name="Trazado 105753" d="M2023.814,1031.31s3.906,8.192,1.749,10.648l-6.069-4.875S2019.464,1034.672,2023.814,1031.31Z" transform="translate(-1996.718 -1031.31)" fill="#233862"/>
      <path id="Trazado_105754" data-name="Trazado 105754" d="M1982.7,1079.325c-1.594-2.889-3.982-7.719-.831-9.691a3.634,3.634,0,0,0,.1-6.022c-3.271-1.765-6.594.467-8.151,2.648-2.964,4.149.973,10.634.973,10.634,3.721,8.013-3.939,12.184-7.634,13.671a43.143,43.143,0,0,0-6.221-7.329c-1.273-1.207-2.441-2.19-3.421-3.027-10.4-8.888-7.88-12.139-10.349-16.135-.484-.792-2.4-2.943-2.906-3.632s-.686-3.114-.746-5.256a3.6,3.6,0,0,0,1.3-2.111,2.113,2.113,0,0,1-.01.916c1.212-.983.937-3.247.937-3.247a2.673,2.673,0,0,1,.374,1.029,9.078,9.078,0,0,0-1.576-6.42c.382-3.31-2.363-9.067-2.363-9.067a13.791,13.791,0,0,0-3.661,3.91,6.023,6.023,0,0,0-6.42,1.745,6.221,6.221,0,0,1-3.817,1.136c-.549-.071-1.8,2.677-1.846,3.052-.545,4.155.775,6.211,3.149,8.338a3.536,3.536,0,0,1,0,3.042s.5-.2.562-.365a4.058,4.058,0,0,1-1.028,2.114,2.067,2.067,0,0,0,.483-.113,13.828,13.828,0,0,0-2.958,8.094c-4.981.042-9.719-.263-10.178-1.539,0,0,1.075-2.1-.692-3.16a3.915,3.915,0,0,0-1.937-.448l-.086,5.74a17.9,17.9,0,0,1,3.2,3.06c.356.5,7.327,3.645,12.54,5.95,3.035,13.157,12.783,20.763,16.009,22.968.466,4.02,2.853,9.249,9.7,15.34a4.071,4.071,0,0,1,1.223,3.344c-.367,1.836-2.937,9.789-3.671,9.789s-3.181-1.06-4.242-.326.408,3.589.408,3.589h7.466s9.218-15.173,9.544-16.642-4-7.178-1.223-9.136c1.189-.839,2.84-5.443,2.5-9.67C1970.847,1094.825,1987.692,1088.371,1982.7,1079.325Z" transform="translate(-1913.757 -1035.213)" fill="#2b478b"/>
      <path id="Trazado_105755" data-name="Trazado 105755" d="M1977.653,1067.477a.728.728,0,0,1,.7-.054,1.568,1.568,0,0,1-1.446,1.466S1977.294,1067.692,1977.653,1067.477Z" transform="translate(-1963.302 -1059.591)" fill="#163560"/>
      <g id="Grupo_71044" data-name="Grupo 71044" transform="translate(16.832 10.821)">
        <path id="Trazado_105756" data-name="Trazado 105756" d="M1991.9,1081.712a24.1,24.1,0,0,1,8.743,6.07h0a25.242,25.242,0,0,0-8.689-6.235Z" transform="translate(-1991.902 -1081.547)" fill="#163560"/>
      </g>
      <g id="Grupo_71045" data-name="Grupo 71045" transform="translate(16.36 11.168)">
        <path id="Trazado_105757" data-name="Trazado 105757" d="M1989.711,1083.335a28.612,28.612,0,0,1,8.368,9.476h0a29.985,29.985,0,0,0-8.258-9.652Z" transform="translate(-1989.711 -1083.159)" fill="#163560"/>
      </g>
      <g id="Grupo_71046" data-name="Grupo 71046" transform="translate(15.815 11.65)">
        <path id="Trazado_105758" data-name="Trazado 105758" d="M1987.179,1085.522a24.1,24.1,0,0,1,5.217,9.277h0a25.249,25.249,0,0,0-5.1-9.4Z" transform="translate(-1987.179 -1085.397)" fill="#163560"/>
      </g>
      <path id="Trazado_105759" data-name="Trazado 105759" d="M2045.725,1036.284s.29,6.332.912,7.505a3.626,3.626,0,0,0,1.45,1.563C2048.47,1042.042,2045.725,1036.284,2045.725,1036.284Z" transform="translate(-2017.299 -1035.213)" fill="#233862"/>
    </g>
    <g id="Grupo_71049" data-name="Grupo 71049" transform="translate(175.763 223.64)">
      <g id="Grupo_71048" data-name="Grupo 71048" transform="translate(0)">
        <path id="Trazado_105760" data-name="Trazado 105760" d="M419.245,564.458v55.714H349.751V591.96q-1.162.859-2.316,1.751v28.777h74.123V564.049Q420.4,564.248,419.245,564.458Z" transform="translate(-347.435 -564.049)" fill="#f6dbc3"/>
      </g>
      <path id="Trazado_105761" data-name="Trazado 105761" d="M433.524,568.021v52.825H368.731V593.433C388.707,579.324,410.581,572.347,433.524,568.021Z" transform="translate(-364.144 -567.165)" fill="#f6dbc3"/>
    </g>
  </g>
</svg>
