<svg xmlns="http://www.w3.org/2000/svg" width="400" height="205.05" viewBox="0 0 400 205.05">
  <g id="Grupo_71296" data-name="Grupo 71296" transform="translate(-196.12 -183.872)">
    <g id="Grupo_71295" data-name="Grupo 71295" transform="translate(196.12 183.872)">
      <path id="Trazado_106023" data-name="Trazado 106023" d="M266.756,550.123s-42.969-91.5,41.718-91.5c44.746,0,26.313-25.106,56.734-54.161S502.02,352.189,524.664,408.3s-33.318,98.705,20.758,91.4c64.982-8.781,90.652,50.43,90.652,50.43Z" transform="translate(-246.776 -345.134)" fill="#fbecdb"/>
      <path id="Trazado_106024" data-name="Trazado 106024" d="M1238.783,1165.193c-4.01-2.93-12.2-.952-18.251,1.164a27.6,27.6,0,0,0-3.324-3.857c13.028-8.392,31.02-26.289,21.484-27.8-8.29-1.317-19.478,14.792-25.457,24.6-6.209-4.177-15.723-7.248-30.249-6.183-37.7,2.764-67.148-21.553-88.857-13.443-17.26,6.448-33.078,10.061-48.333,8.827.657-11.144.8-33.025-7.952-35.295-8.884-2.3-.17,22.545,4.674,34.953q-1.7-.218-3.4-.521c-3.136-6.184-8.3-14.277-13.979-14.553-5.344-.261,1.252,7.015,7.742,13.179-18.656-3.917-40.786,11.248-41.152,29.178h232.905a21.574,21.574,0,0,0-2.24-6.068C1231.394,1169.194,1243.138,1168.376,1238.783,1165.193Z" transform="translate(-870.793 -971.815)" fill="#a8d29f"/>
      <g id="Grupo_71280" data-name="Grupo 71280" transform="translate(91.426 189.764)">
        <g id="Grupo_71279" data-name="Grupo 71279">
          <rect id="Rectángulo_8899" data-name="Rectángulo 8899" width="61.385" height="13.861" transform="translate(18.927 0)" fill="#4a75cb"/>
          <rect id="Rectángulo_8900" data-name="Rectángulo 8900" width="61.385" height="13.862" fill="#699dee"/>
        </g>
      </g>
      <g id="Grupo_71283" data-name="Grupo 71283" transform="translate(181.793 139.735)">
        <g id="Grupo_71282" data-name="Grupo 71282" transform="translate(0 0)">
          <g id="Grupo_71281" data-name="Grupo 71281">
            <rect id="Rectángulo_8901" data-name="Rectángulo 8901" width="45.708" height="63.888" transform="translate(59.802 63.888) rotate(180)" fill="#d86713"/>
            <rect id="Rectángulo_8902" data-name="Rectángulo 8902" width="45.708" height="63.888" transform="translate(45.708 63.888) rotate(180)" fill="#f1a34f"/>
          </g>
        </g>
        <path id="Trazado_106025" data-name="Trazado 106025" d="M1692.823,1103.168l14.094,9.593v-9.593Z" transform="translate(-1647.115 -1103.168)" fill="#c95c12"/>
      </g>
      <g id="Grupo_71286" data-name="Grupo 71286" transform="translate(6.376 118.313)">
        <path id="Trazado_106026" data-name="Trazado 106026" d="M571.1,1186.773s-8.548,6.356-10.215,5.971,6.247-6.862,6.247-6.862c-2.978-1.432-12.235-.534-12.235-.534s-3.083,9.943-4.6,9.16,3.18-8.665,3.18-8.665c-3.317-.2-7.385,2.263-7.385,2.263-5.569,4.4.366,11.322.366,11.322a16.926,16.926,0,0,1-4.66,6.54,14.7,14.7,0,0,0-5.372,10.352l.912.082s1.445-6.182,4.071-9.105c.1-.106.251-.258.434-.443.428-.4.728-.694.929-.915,1.307-1.256,3.113-2.856,3.984-3.011a1.677,1.677,0,0,1-.037-.438l.037.438c.3,3.5,7.088,6.556,11.264,7.184s2.886-1.088,1.447-3.634-5.994-3.685-7.033-4.857,1.109-1.175,3.626-.026,2.861,4.214,6.9,6.147,10.111-4.766,10.111-4.766c-3.217-.163-7.812-3.657-7.646-4.726s7.8,1.844,9.1,1.984,4.274-1.483,4.733-6.739S571.1,1186.773,571.1,1186.773Z" transform="translate(-491.069 -1151.2)" fill="#82b378"/>
        <g id="Grupo_71284" data-name="Grupo 71284" transform="translate(0 15.071)">
          <path id="Trazado_106027" data-name="Trazado 106027" d="M272.7,1085.839s9.441-5.287,5.035-12.462c0,0-3.525-4.406-7.3-5.539,0,0,2.014,10.7,0,10.952s-1.385-12.085-1.385-12.085-9.945-4.784-13.847-4.406c0,0,6.168,10.448,4.154,10.2s-8.938-10.826-8.938-10.826-10.2-1.888-11.833,4.154,1.007,9.063,2.518,9.441,11.2.251,10.952,1.51-6.8,3.273-10.448,2.14c0,0,4.028,9.945,9.315,9.441s6.924-3.777,10.2-4.028,5.665.629,4.028,1.51-7.175.289-9.819,2.536-4.783,3.632.126,4.639,13.721.378,15.484-3.4Z" transform="translate(-238.065 -1061.39)" fill="#a8d29f"/>
          <path id="Trazado_106028" data-name="Trazado 106028" d="M304.078,1130.3a20.082,20.082,0,0,1-2.518-9.189c-3.021-9.567-29.457-18.127-29.457-18.127,33.611,13.6,27.694,21.9,27.694,21.9.906.528,2.264,3.048,3.206,4.981.134.329.347.784.663,1.4h0c.128.279.23.508.3.668,1.731,4.33.814,11.807.814,11.807l1.049.282A17.436,17.436,0,0,0,304.078,1130.3Z" transform="translate(-266.93 -1096.658)" fill="#82b378"/>
        </g>
        <g id="Grupo_71285" data-name="Grupo 71285" transform="translate(41.469)">
          <path id="Trazado_106029" data-name="Trazado 106029" d="M519.069,994.469s-12.445-6.969-6.638-16.428c0,0,4.646-5.808,9.624-7.3,0,0-2.655,14.1,0,14.437s1.825-15.93,1.825-15.93,13.109-6.306,18.253-5.808c0,0-8.131,13.773-5.476,13.441s11.781-14.271,11.781-14.271,13.441-2.489,15.6,5.476-1.328,11.947-3.319,12.445-14.769.332-14.437,1.991,8.96,4.314,13.773,2.821c0,0-5.31,13.109-12.279,12.446s-9.127-4.978-13.441-5.31-7.467.83-5.31,1.991,9.458.381,12.943,3.343,6.306,4.788-.166,6.115-18.087.5-20.41-4.48Z" transform="translate(-510.887 -962.24)" fill="#a8d29f"/>
          <path id="Trazado_106030" data-name="Trazado 106030" d="M566.873,1017.064s-34.847,11.284-38.83,23.9a26.469,26.469,0,0,1-3.319,12.113,22.983,22.983,0,0,0-2.31,18.095l1.382-.371s-1.208-9.856,1.073-15.564c.093-.211.228-.512.4-.88h0c.416-.815.7-1.415.873-1.848,1.243-2.548,3.033-5.869,4.227-6.566C530.366,1045.937,522.567,1034.985,566.873,1017.064Z" transform="translate(-519.861 -1008.731)" fill="#82b378"/>
        </g>
        <path id="Trazado_106031" data-name="Trazado 106031" d="M425.95,1378.718a24.378,24.378,0,0,0,24.378-24.378H401.572A24.378,24.378,0,0,0,425.95,1378.718Z" transform="translate(-376.719 -1294.739)" fill="#f1a34f"/>
        <path id="Trazado_106032" data-name="Trazado 106032" d="M448.524,1378.53a24.4,24.4,0,0,1-27.406-24.192h6.056A24.383,24.383,0,0,0,448.524,1378.53Z" transform="translate(-393.294 -1294.739)" fill="#ffb973"/>
        <path id="Trazado_106033" data-name="Trazado 106033" d="M445.779,1503.694H402.364a3.008,3.008,0,0,0-3.008,3.008h49.43A3.008,3.008,0,0,0,445.779,1503.694Z" transform="translate(-374.839 -1421.392)" fill="#f1a34f"/>
        <path id="Trazado_106034" data-name="Trazado 106034" d="M446.037,1354.338H396.672a.374.374,0,1,0,0,.748h49.365a.374.374,0,0,0,0-.748Z" transform="translate(-372.246 -1294.739)" fill="#d86713"/>
      </g>
      <g id="Grupo_71287" data-name="Grupo 71287" transform="translate(182.899 24.511)">
        <path id="Trazado_106035" data-name="Trazado 106035" d="M1731.182,490.037c-.707-.107-2.836,1.861-2.836,1.861h0c-4.547.525-11.194,1.733-13.587,2.193-1.7.327-6.259-1.229-10.715-3.014-5.3-2.125-10.45-4.576-10.45-4.576-2.941-.15-6.281,5.216-.317,8.627a45.194,45.194,0,0,0,8.27,2.221h0c5.434,1.12,11.854,2.092,14.039,1.75,2.538-.4,9.724-3.026,14-5.038h0l.011-.005.048-.022a5.226,5.226,0,0,1,2-.545,4.469,4.469,0,0,0,2.638-1.809C1734.336,491.289,1731.888,490.145,1731.182,490.037Z" transform="translate(-1645.796 -465.01)" fill="#ed975d"/>
        <path id="Trazado_106036" data-name="Trazado 106036" d="M1674.225,697.554l-2.5.509s-11.456-12.872-13.224-18.288c-.946-2.895-6.994-4.146-13.315-5.779-5.5-1.422-11.209-3.136-13.935-6.48-5.859-7.184,3.679-16.012,3.679-16.012s10.142,6.028,18.892,12.255c6.116,4.352,11.551,8.8,12.37,11.358C1668.178,681.334,1672.4,693.153,1674.225,697.554Z" transform="translate(-1594.391 -604.933)" fill="#2b478b"/>
        <path id="Trazado_106037" data-name="Trazado 106037" d="M1896.175,953.922h1.408c.472-.074.82-.211,1.3-.274a1.306,1.306,0,0,1,1.14.274l.013.014h5.981c.151-.215.006-.712-.135-1.079a.85.85,0,0,0-.56-.512,6.453,6.453,0,0,1-3.03-1.384c-.644-.582-3.111-2.141-3.111-2.141l-.013,0c-.054,0-.312.08-1.434,1.028-.58.489-1.569-.69-1.569-.69a1.4,1.4,0,0,0-.324.44,1.487,1.487,0,0,0-.129.918,5.957,5.957,0,0,1-.428,2.218c-.139.411-.257.7-.257.7S1894.964,953.771,1896.175,953.922Z" transform="translate(-1819.692 -857.055)" fill="#233862"/>
        <path id="Trazado_106038" data-name="Trazado 106038" d="M1653.819,663.758l-8.636,10.237c-5.5-1.422-11.209-3.136-13.935-6.48-5.859-7.184,3.679-16.012,3.679-16.012S1645.07,657.531,1653.819,663.758Z" transform="translate(-1594.391 -604.933)" fill="#1e3d70"/>
        <path id="Trazado_106039" data-name="Trazado 106039" d="M1583.5,675.254s-.7,2.2-1.83,5.5c-1.433,4.177-3.568,10.123-5.884,15.638-.509,1.212-1.027,2.4-1.548,3.55-1.926,4.244-3.9,7.882-5.632,9.731-3.119,3.324-10.7,24.69-10.7,24.69l-1.889-.523s-2.634-18.245,6.7-28.627a.66.66,0,0,0,.189-.387.005.005,0,0,0,0,0c.124-1.537.568-8.419,1.534-15.392.238-1.711.506-3.426.809-5.07.019-.105.039-.209.058-.313,1.419-7.6,2.779-10.98,4.533-12.68l12.9,3.672Z" transform="translate(-1531.917 -621.776)" fill="#2b478b"/>
        <path id="Trazado_106040" data-name="Trazado 106040" d="M1550.154,1074.6h1.408c.472-.074.82-.211,1.3-.274a1.3,1.3,0,0,1,1.14.274l.013.014H1560c.151-.215.006-.713-.135-1.079a.851.851,0,0,0-.56-.512,6.45,6.45,0,0,1-3.03-1.384c-.645-.582-3.112-2.141-3.112-2.141l-.013,0c-.054,0-.312.081-1.434,1.028-.58.489-1.569-.691-1.569-.691a1.411,1.411,0,0,0-.324.44,1.487,1.487,0,0,0-.128.918,5.953,5.953,0,0,1-.429,2.218c-.139.41-.257.7-.257.7S1548.943,1074.446,1550.154,1074.6Z" transform="translate(-1526.267 -959.388)" fill="#233862"/>
        <path id="Trazado_106041" data-name="Trazado 106041" d="M1426.043,529.017s-2.158,5.28-4.647,10.419c-2.093,4.321-4.418,8.542-5.893,9.443-2.079,1.27-7.807,4.853-11.523,7.526,0,0-2.9-.022-3.35.533s-1.49,3.049-1.187,3.3a4.471,4.471,0,0,0,3.169-.439,5.223,5.223,0,0,1,1.846-.944l.05-.016.011,0h0c4.515-1.389,11.6-4.283,13.742-5.7,1.846-1.219,5.938-6.259,9.2-10.746h0a45.213,45.213,0,0,0,4.62-7.21C1434.2,528.645,1428.116,526.926,1426.043,529.017Z" transform="translate(-1399.389 -500.352)" fill="#ffb27d"/>
        <path id="Trazado_106042" data-name="Trazado 106042" d="M1580.219,353.084a10.872,10.872,0,0,0-.773-1,2.424,2.424,0,0,0,.953-.143c.758-.313,1.1-2.718.989-3.432s-1.166-2.776-2.464-2.982-2.639,1.235-2.639,1.235c.24-1.04,2.435-1.64,2.435-1.64-4.522.834-4.292,3.85-4.261,4.129-4.14-1.475-6.57,6.321-6.57,6.321l10.723,6.319s.028-1.722,1.052-1.611C1581.26,360.455,1582.588,356.537,1580.219,353.084Z" transform="translate(-1542.277 -345.124)" fill="#2c3a64"/>
        <path id="Trazado_106043" data-name="Trazado 106043" d="M1609.864,457.262c-2.46,1.16-5.726-.51-5.708-.528.211-.211.137-.843-.056-1.669a12.168,12.168,0,0,0-1.494-3.445c-.176-.3-.352-.6-.563-.914l.281-.105,4.78-1.916s.773,1.388,1.582,2.654c.685,1.055,1.406,2,1.722,1.969C1610.426,453.29,1613.59,455.469,1609.864,457.262Z" transform="translate(-1571.239 -432.944)" fill="#ffb27d"/>
        <path id="Trazado_106044" data-name="Trazado 106044" d="M1610.243,451.807c-.123,1.7-.7,4.78-3.005,5.905a12.161,12.161,0,0,0-1.494-3.445Z" transform="translate(-1574.378 -435.591)" fill="#ed975d"/>
        <path id="Trazado_106045" data-name="Trazado 106045" d="M1574.315,413.681s6.224-2.453,4.637-6.305-1.853-6.763-5.894-5.36-4.2,3.189-3.985,4.6S1572.656,414.22,1574.315,413.681Z" transform="translate(-1543.229 -393.064)" fill="#ffb27d"/>
        <path id="Trazado_106046" data-name="Trazado 106046" d="M1572.359,404.256c2.874-.406,3.712-1.567,3.712-1.567a7.96,7.96,0,0,1-4.2-3.351s-3.23-1.089-5.623.732a1.616,1.616,0,0,0-.3.675c-.549-.18-1.374-.133-1.849,1.417-.715,2.329,1.829,4.872,1.829,4.872.617-.174-.079-2.25-.176-3.358a5.244,5.244,0,0,1,.606-2.354c.3.4,3.336,4.2,7.037,4.357a15.61,15.61,0,0,1-3.735-2.005A4.776,4.776,0,0,0,1572.359,404.256Z" transform="translate(-1538.951 -390.823)" fill="#2c3a64"/>
        <path id="Trazado_106047" data-name="Trazado 106047" d="M1580.695,487.4c-.052-.186-.109-.379-.169-.577a14.6,14.6,0,0,0,1.571-4.706,9.449,9.449,0,0,0-.3-4.6s-4.317-2.289-6.223-2.581a.105.105,0,0,0-.024-.007l-.077-.007a26.434,26.434,0,0,0-6.09.585,3.014,3.014,0,0,1-1.464,3.565c-2.267,1.426-4.688-.365-4.688-.365-.073.049-.151.1-.231.16h0s-5.965,3.936-6.5,4.835-2.83,5.353-2.83,5.353.727,3.739,8.785,4.051a18.625,18.625,0,0,1,1.334,4.481c.64,5.075-.1,9.078.643,12.04s14.191,1.273,16.626.7,1.887-3.17,2.074-5.7C1583.371,501.455,1581.488,490.2,1580.695,487.4Z" transform="translate(-1530.221 -455.144)" fill="#699dee"/>
        <path id="Trazado_106048" data-name="Trazado 106048" d="M1718.124,516.1a14.607,14.607,0,0,1-1.582,4.727c-.211-.931-1.072-4.341-2.46-5.888A11.913,11.913,0,0,1,1718.124,516.1Z" transform="translate(-1666.248 -489.123)" fill="#4a82d3"/>
      </g>
      <g id="Grupo_71291" data-name="Grupo 71291" transform="translate(108.817 55.81)">
        <path id="Trazado_106049" data-name="Trazado 106049" d="M1380.377,717.546a42.424,42.424,0,0,1,3.044-3.394,9.248,9.248,0,0,1,3.041-.861c.135.127.141.31-.152.569s-1.412.912-1.252.985,3.535-1.607,4.022-1.042-.276,2.9-1.576,4.017-5.183,1.6-5.428,1.752C1380,720.9,1380.377,717.546,1380.377,717.546Z" transform="translate(-1309.163 -688.614)" fill="#ed975d"/>
        <path id="Trazado_106050" data-name="Trazado 106050" d="M1090.393,650.446s3.6,4.269,8.181,2.483a13.886,13.886,0,0,0,1-4.142c0-.216,0-.426.008-.625.025-1.979.091-3.09.091-3.09h0c-.208-.087-7.005-2.877-7-2.646C1092.785,647.779,1090.393,650.446,1090.393,650.446Z" transform="translate(-1063.279 -628.523)" fill="#ffb27d"/>
        <path id="Trazado_106051" data-name="Trazado 106051" d="M1109.826,650.62a10.63,10.63,0,0,0,6.231,4.46c.025-1.979.091-3.09.091-3.09h0C1115.956,651.939,1109.631,650.262,1109.826,650.62Z" transform="translate(-1079.755 -635.441)" fill="#ed975d"/>
        <path id="Trazado_106052" data-name="Trazado 106052" d="M1105.865,588.279s-7.644,1.8-8.689-2.98-2.737-7.763,2.1-9.112,6.186.265,6.923,1.775S1107.826,587.688,1105.865,588.279Z" transform="translate(-1068.047 -571.935)" fill="#ffb27d"/>
        <path id="Trazado_106053" data-name="Trazado 106053" d="M1075.7,565.7c-.1.067-1.749.572-4.864-5.633a5.4,5.4,0,0,1,.318-4.943c1.14-1.862,5.181-3.326,8.539-3.963s4.164,1.252,4.955,3.151a10.251,10.251,0,0,0,3.227,3.634c-2.9,1.617-6.383-.7-7.591-.315s-1.635,2.284-1.726,2.895-.23,1.117-1.749.572-.687,2.153-.444,2.669C1076.369,563.771,1076.575,565.146,1075.7,565.7Z" transform="translate(-1046.315 -551.039)" fill="#a9453d"/>
        <g id="Grupo_71288" data-name="Grupo 71288" transform="translate(0 58.685)">
          <path id="Trazado_106054" data-name="Trazado 106054" d="M921.711,1367.679h-4.628c-.97,0-2.048-.984-2.318-2.787s-2.264-2.787-2.7-4.262,1.78-3.553,1.78-3.553l.37-.481.385-.5,3.666.874s.09.885.147,2.012c.039.813.061,1.754.015,2.579-.108,1.968.544,4.086,2.268,4.469S921.711,1367.679,921.711,1367.679Z" transform="translate(-912.012 -1292.409)" fill="#2c3a64"/>
          <path id="Trazado_106055" data-name="Trazado 106055" d="M1114.656,1394.236h-12.269a1.091,1.091,0,0,1-.26-.078c-.819-.422-.562-3.651-.464-4.649.019-.185.032-.293.032-.293s4.314-3.553,4.908-.832c.019.085.04.168.063.25h0c.749,2.545,4.1,3.7,6.031,4.023A2.126,2.126,0,0,1,1114.656,1394.236Z" transform="translate(-1072.737 -1318.921)" fill="#2c3a64"/>
          <path id="Trazado_106056" data-name="Trazado 106056" d="M1069.4,959.534s-.655,8.174-1.425,18c-1.047,13.348-2.305,29.744-2.43,32.85-.215,5.393-1.079,14.021-1.079,14.021s-2.048,2.05-6.148,1.186a141.146,141.146,0,0,1-4.7-25.347c-.016-.214-.032-.429-.049-.644-.97-13.265-2.48-41.2-2.48-41.2Z" transform="translate(-1029.952 -955.166)" fill="#ee9849"/>
          <path id="Trazado_106057" data-name="Trazado 106057" d="M1069.4,959.534s-.655,8.174-1.425,18l-14.353,22.71c-.016-.214-.032-.429-.049-.644-.97-13.265-2.48-41.2-2.48-41.2Z" transform="translate(-1029.952 -955.166)" fill="#e58638"/>
          <path id="Trazado_106058" data-name="Trazado 106058" d="M958.7,942.455s-11.81,29.6-19.575,43.517-10.192,17.8-10.192,17.8-4.449-1.779-4.853-2.993c0,0,2.969-26.859,8.17-33.406,2.938-3.7,6.39-14.8,6.552-18.685s1.052-11.567,1.052-11.567Z" transform="translate(-922.25 -937.117)" fill="#ee9849"/>
        </g>
        <g id="Grupo_71289" data-name="Grupo 71289" transform="translate(3.629 22.396)">
          <path id="Trazado_106059" data-name="Trazado 106059" d="M941.676,931.654a40.017,40.017,0,0,1-.53,4.265,8.715,8.715,0,0,1-1.89,2.3c-.173-.025-.276-.164-.189-.522s.6-1.465.439-1.437-1.872,3.146-2.552,2.97-1.346-2.392-.941-3.957,3.154-4.024,3.259-4.276C940.162,928.861,941.676,931.654,941.676,931.654Z" transform="translate(-935.89 -894.957)" fill="#ed975d"/>
          <path id="Trazado_106060" data-name="Trazado 106060" d="M956.55,736.014c1.307.419,1.517.325,1.517.325s6.362-11.583,7.006-12.643,13.508-12.989,13.508-12.989l-3.306-12.327s-14.631,18.946-16.211,21.664c-2.611,4.492-4.141,14.926-4.141,14.926A3.824,3.824,0,0,0,956.55,736.014Z" transform="translate(-952.031 -698.379)" fill="#1e3d70"/>
        </g>
        <path id="Trazado_106061" data-name="Trazado 106061" d="M1046.871,700.168c-.046,2.532-.193,5.377-.391,8.268q-.018.257-.036.514c-.127,1.791-.265,3.585-.422,5.335-.063.7-.131,1.4-.2,2.077l-.011.092c-.005.255-.036.532-.064.784-.645,6.555-1.321,11.734-1.447,11.814a.736.736,0,0,1-.5.128c-1.719-.216-6.848.174-11.048-.74a31.833,31.833,0,0,1-9.828-4.075c-.429-.253-1.407-.926-1.328-1.428.078-.552.223-1.349.406-2.352a127.268,127.268,0,0,0,2.112-16.5q.109-1.962.317-3.869a58.755,58.755,0,0,1,1.712-9.239c1.44-5.184,3.556-9.154,6.21-10.707.347-.194,2.213.993,3.927,2.093a7.566,7.566,0,0,0,4.87,1.154l1.426,1.577a15.931,15.931,0,0,1,4.068,8.481q.057.421.1.9A55.744,55.744,0,0,1,1046.871,700.168Z" transform="translate(-1004.931 -660.606)" fill="#2a4e96"/>
        <path id="Trazado_106062" data-name="Trazado 106062" d="M1122.32,763.272c-.046,2.532-.193,5.377-.391,8.268-.012.171-.025.343-.036.514-9.82-6.146-11.333-17.394-11.333-17.394a26.865,26.865,0,0,1,11.626,2.911A55.78,55.78,0,0,1,1122.32,763.272Z" transform="translate(-1080.38 -723.709)" fill="#1e3d70"/>
        <g id="Grupo_71290" data-name="Grupo 71290" transform="translate(29.305 24.923)">
          <path id="Trazado_106063" data-name="Trazado 106063" d="M1148.205,719.315c-.506-1.369-1.293-1.28-1.293-1.28s-14.6,3.638-15.91,3.795-15.722-5.627-15.722-5.627-5.672-2.546-8.33-.221a6.348,6.348,0,0,0-1.874,6.728,6.425,6.425,0,0,0,5.43,4.786c5.88.749,17.611,2.159,20.069,1.816,5.473-.762,17.872-7.92,17.872-7.92A4.6,4.6,0,0,0,1148.205,719.315Z" transform="translate(-1104.806 -715.002)" fill="#2a4e96"/>
        </g>
      </g>
      <g id="man" transform="translate(253.275 0)">
        <g id="Grupo_71292" data-name="Grupo 71292" transform="translate(35.409 52.335)">
          <path id="Trazado_106064" data-name="Trazado 106064" d="M2296.461,914.463s2.028,1.88,1.632,3.216-2.227,2.226-2.474,3.859-1.237,2.523-2.127,2.523h-4.246s-.656-1.149.928-1.5,2.18-2.265,2.081-4.046a31.84,31.84,0,0,1,.148-4.156l3.364-.792Z" transform="translate(-2259.658 -854.992)" fill="#2c3a64"/>
          <path id="Trazado_106065" data-name="Trazado 106065" d="M2106.857,947.313a7.819,7.819,0,0,1-1.921.222h-9.6c.032-.286.256-1.3,1.826-1.557,1.774-.288,4.846-1.319,5.531-3.588a2.292,2.292,0,0,0,.06-.222c.544-2.424,4.5.742,4.5.742s.012.1.029.262C2107.374,944.063,2107.607,946.938,2106.857,947.313Z" transform="translate(-2095.335 -878.466)" fill="#2c3a64"/>
          <path id="Trazado_106066" data-name="Trazado 106066" d="M2110.44,548.744s.6,7.5,1.308,16.515c.96,12.246,2.115,27.289,2.229,30.138.2,4.948.99,12.864.99,12.864s1.879,1.88,5.64,1.088a129.487,129.487,0,0,0,4.309-23.254c.015-.2.03-.393.045-.591.89-12.171,2.275-37.8,2.275-37.8Z" transform="translate(-2108.144 -544.737)" fill="#35488b"/>
          <path id="Trazado_106067" data-name="Trazado 106067" d="M2110.44,548.744s.6,7.5,1.308,16.515l13.168,20.835c.015-.2.03-.393.045-.591.89-12.171,2.275-37.8,2.275-37.8Z" transform="translate(-2108.144 -544.737)" fill="#2c3a64"/>
          <path id="Trazado_106068" data-name="Trazado 106068" d="M2128.5,533.074s10.834,27.161,17.959,39.925,9.351,16.326,9.351,16.326,4.082-1.633,4.452-2.746c0,0-2.724-24.642-7.5-30.649-2.7-3.394-5.862-13.58-6.011-17.143s-.965-10.612-.965-10.612Z" transform="translate(-2123.459 -528.176)" fill="#35488b"/>
        </g>
        <g id="Grupo_71293" data-name="Grupo 71293" transform="translate(0 20.842)">
          <path id="Trazado_106069" data-name="Trazado 106069" d="M1869.416,459.917a32.593,32.593,0,0,0-3.434-.638,7.083,7.083,0,0,0-2.248.9c-.023.14.059.254.358.274s1.283-.106,1.22.013-2.9.676-2.928,1.247,1.522,1.631,2.834,1.7,3.892-1.453,4.113-1.473C1871.207,461.777,1869.416,459.917,1869.416,459.917Z" transform="translate(-1862.384 -438.258)" fill="#ffb27d"/>
          <path id="Trazado_106070" data-name="Trazado 106070" d="M1898.509,343.4c-.421-1.342-.323-1.556-.323-1.556s11.913-6.441,13-7.095,13.4-13.754,13.4-13.754l12.61,3.471s-19.514,14.865-22.31,16.466c-4.621,2.645-15.324,4.142-15.324,4.142A3.919,3.919,0,0,1,1898.509,343.4Z" transform="translate(-1892.736 -320.991)" fill="#e58638"/>
        </g>
        <path id="Trazado_106071" data-name="Trazado 106071" d="M2039.907,246.378s-4.421,7.778-8.742,8.793a11.809,11.809,0,0,1,1.232-4.4c-.431-.508-.809-.975-1.136-1.393a26.058,26.058,0,0,1-1.6-2.247l1.467-3.943,1-2.675a12.864,12.864,0,0,0,1.555,2.24A10.577,10.577,0,0,0,2039.907,246.378Z" transform="translate(-2004.23 -231.904)" fill="#ffb27d"/>
        <path id="Trazado_106072" data-name="Trazado 106072" d="M2033.672,255.247a8.2,8.2,0,0,1-2.411,6.624,26.055,26.055,0,0,1-1.6-2.247l1.467-3.943A8.376,8.376,0,0,1,2033.672,255.247Z" transform="translate(-2004.23 -244.397)" fill="#ed975d"/>
        <path id="Trazado_106073" data-name="Trazado 106073" d="M1990.809,216.756s6.605-2.575,4.938-6.664-1.937-7.175-6.225-5.7-4.466,3.363-4.241,4.863S1989.048,217.321,1990.809,216.756Z" transform="translate(-1966.548 -200.954)" fill="#ffb27d"/>
        <path id="Trazado_106074" data-name="Trazado 106074" d="M2068.591,312.948c-2.665,3.831-22.586,8.949-22.35,6.3a28.83,28.83,0,0,0,0-5.23q-.075-.852-.212-1.807a41.672,41.672,0,0,0-4.389-13.15q-.3-.583-.628-1.177a40.561,40.561,0,0,1-2.762-6.206c-1.38-3.989-1.936-7.8-1.24-10.3,0-.012.007-.023.011-.035,4.164-1.925,5.778-9.393,5.778-9.393s14.207,2.55,22.165,21.488C2064.961,293.436,2070.909,309.614,2068.591,312.948Z" transform="translate(-2010.209 -258.56)" fill="#ee9849"/>
        <path id="Trazado_106075" data-name="Trazado 106075" d="M2073.742,403.525q-.074-.852-.212-1.807a41.671,41.671,0,0,0-4.389-13.15,18.587,18.587,0,0,1,1.793-6.156c2.834-4.247,4.484-4.91,4.484-4.91S2079.668,395.422,2073.742,403.525Z" transform="translate(-2037.714 -348.07)" fill="#e58638"/>
        <g id="Grupo_71294" data-name="Grupo 71294" transform="translate(5.441 17.111)">
          <path id="Trazado_106076" data-name="Trazado 106076" d="M1906.369,520.655a42.44,42.44,0,0,0-4.539.426,9.254,9.254,0,0,0-2.5,1.931c.021.184.165.3.548.217s1.573-.592,1.537-.42-3.4,1.885-3.231,2.612,2.493,1.5,4.166,1.124,4.367-3.216,4.638-3.319C1909.283,522.35,1906.369,520.655,1906.369,520.655Z" transform="translate(-1898.176 -486.574)" fill="#ffb27d"/>
          <path id="Trazado_106077" data-name="Trazado 106077" d="M1944.872,332.014c-.787-1.272-.22-1.852-.22-1.852s12.141-9.506,13.093-10.466,5.36-16.252,5.36-16.252,1.517-6.189,5.07-6.871a6.506,6.506,0,0,1,6.618,2.725,6.584,6.584,0,0,1,.446,7.4c-3.1,5.224-9.353,15.592-11.179,17.363-4.064,3.942-17.662,9.452-17.662,9.452A4.708,4.708,0,0,1,1944.872,332.014Z" transform="translate(-1937.42 -296.443)" fill="#ee9849"/>
        </g>
        <path id="Trazado_106078" data-name="Trazado 106078" d="M1982.96,185.415c.046-.091.181-.189.509-.289a1.373,1.373,0,0,0-.665-.025,1.748,1.748,0,0,0-1.482-1.229,1.043,1.043,0,0,1,.664.612c-1.159-.734-3.306-.948-8.668.838-7.066,2.353-3.535,6.455-2.465,6.784s3.043-1.782,4.816-2.07,2.732,2.182,3.408,2.387.292-.357,1-.92,1.114.761,1.1,1.691,1.365,1.812,1.365,1.812l.81-1.485c.809-1.485.589-6.875-.184-7.846Z" transform="translate(-1952.813 -183.872)" fill="#2b478b"/>
      </g>
      <path id="Rectángulo_8903" data-name="Rectángulo 8903" d="M.714,0H399.286A.713.713,0,0,1,400,.713v0a.713.713,0,0,1-.713.713H.714A.714.714,0,0,1,0,.714v0A.714.714,0,0,1,.714,0Z" transform="translate(0 203.623)" fill="#2e3552"/>
      <path id="Trazado_106079" data-name="Trazado 106079" d="M1220.369,1431.284v8l-18.928-8Z" transform="translate(-1048.63 -1241.675)" fill="#4271bc"/>
      <rect id="Rectángulo_8904" data-name="Rectángulo 8904" width="62.597" height="82.219" transform="translate(271.127 121.404)" fill="#4a75cb"/>
      <rect id="Rectángulo_8905" data-name="Rectángulo 8905" width="62.598" height="82.219" transform="translate(251.825 121.404)" fill="#699dee"/>
      <path id="Trazado_106080" data-name="Trazado 106080" d="M2283.971,982.575v12.294l-19.3-12.294Z" transform="translate(-1950.247 -861.171)" fill="#4271bc"/>
    </g>
  </g>
</svg>
