<svg xmlns="http://www.w3.org/2000/svg" width="400" height="295.112" viewBox="0 0 400 295.112">
  <g id="Grupo_71278" data-name="Grupo 71278" transform="translate(-179.182 -205)">
    <g id="Grupo_71273" data-name="Grupo 71273" transform="translate(179.182 205)">
      <g id="Grupo_71104" data-name="Grupo 71104" transform="translate(2.398)">
        <path id="Trazado_105920" data-name="Trazado 105920" d="M278.031,486.765l-26.948-.657s-62.155-24.345-57.8-116.69S302.6,218.453,334.7,210.413s56.217-9.714,65.931,13.4,18.5,32.827,32.863,32.492,103.662-9.212,134.779,35.507c27.074,38.909,40.166,104.344-23.479,190.766Z" transform="translate(-193.065 -205)" fill="#e2f2f1"/>
      </g>
      <g id="Grupo_71115" data-name="Grupo 71115" transform="translate(281.062 184.77)">
        <g id="Grupo_71106" data-name="Grupo 71106">
          <g id="Grupo_71105" data-name="Grupo 71105">
            <path id="Trazado_105921" data-name="Trazado 105921" d="M1819.366,1307.907s15.559-26.945,24.828-10.993c0,0,17.244-31.04,31.256-20.047s-7.329,67.9-7.329,67.9,23.064-22.2,15.52,10.778c0,0,9.7-7.353,15.951-4.97s.862,20.931.862,20.931h-94.386Z" transform="translate(-1806.067 -1274.51)" fill="#7fc6a6"/>
          </g>
        </g>
        <g id="Grupo_71108" data-name="Grupo 71108" transform="translate(56.214 1.897)">
          <g id="Grupo_71107" data-name="Grupo 71107">
            <path id="Trazado_105922" data-name="Trazado 105922" d="M2131.587,1288.3a.133.133,0,0,1-.076-.242c.047-.033,4.717-3.239,8.743-2.442a.133.133,0,1,1-.052.26c-3.915-.775-8.494,2.368-8.54,2.4A.131.131,0,0,1,2131.587,1288.3Z" transform="translate(-2131.454 -1285.492)"/>
          </g>
        </g>
        <g id="Grupo_71110" data-name="Grupo 71110" transform="translate(59.322 3.446)">
          <g id="Grupo_71109" data-name="Grupo 71109">
            <path id="Trazado_105923" data-name="Trazado 105923" d="M2149.577,1296.011a.133.133,0,0,1-.076-.242,10.149,10.149,0,0,1,5.921-1.3.133.133,0,0,1,.127.139.131.131,0,0,1-.139.127,10.092,10.092,0,0,0-5.759,1.25A.132.132,0,0,1,2149.577,1296.011Z" transform="translate(-2149.444 -1294.458)"/>
          </g>
        </g>
        <g id="Grupo_71112" data-name="Grupo 71112" transform="translate(69.296 64.196)">
          <g id="Grupo_71111" data-name="Grupo 71111">
            <path id="Trazado_105924" data-name="Trazado 105924" d="M2207.309,1648.967a.133.133,0,0,1-.1-.223c.1-.107,2.475-2.606,5.059-2.642h0a.133.133,0,0,1,0,.265c-2.47.034-4.845,2.533-4.869,2.559A.133.133,0,0,1,2207.309,1648.967Z" transform="translate(-2207.176 -1646.101)"/>
          </g>
        </g>
        <g id="Grupo_71114" data-name="Grupo 71114" transform="translate(71.232 65.034)">
          <g id="Grupo_71113" data-name="Grupo 71113">
            <path id="Trazado_105925" data-name="Trazado 105925" d="M2218.516,1652.754a.133.133,0,0,1-.1-.224,6.39,6.39,0,0,1,3.476-1.576.133.133,0,1,1,.044.262,6.254,6.254,0,0,0-3.327,1.5A.133.133,0,0,1,2218.516,1652.754Z" transform="translate(-2218.383 -1650.953)"/>
          </g>
        </g>
      </g>
      <g id="Grupo_71131" data-name="Grupo 71131" transform="translate(16.611 206.323)">
        <g id="Grupo_71122" data-name="Grupo 71122">
          <g id="Grupo_71117" data-name="Grupo 71117">
            <g id="Grupo_71116" data-name="Grupo 71116">
              <path id="Trazado_105926" data-name="Trazado 105926" d="M390.73,1474.713c-1.078-.862-18.749-35.045-30.386-18.882,0,0-17.456-59.264-41.377-56.463s-3.664,46.765-3.664,46.765-20.473-8.4-15.732,13.792c0,0-26.076-4.741-24.137,14.008Z" transform="translate(-275.331 -1399.272)" fill="#7fc6a6"/>
            </g>
          </g>
          <g id="Grupo_71119" data-name="Grupo 71119" transform="translate(6.827 14.337)">
            <g id="Grupo_71118" data-name="Grupo 71118">
              <path id="Trazado_105927" data-name="Trazado 105927" d="M325.459,1486.794c3.19,3.849,4.1,8.354,2.043,10.063s-6.319-.026-9.509-3.875-4.1-8.354-2.043-10.063S322.269,1482.946,325.459,1486.794Z" transform="translate(-314.847 -1482.262)" fill="#7fc6a6"/>
            </g>
          </g>
          <g id="Grupo_71121" data-name="Grupo 71121" transform="translate(6.289 31.332)">
            <g id="Grupo_71120" data-name="Grupo 71120">
              <path id="Trazado_105928" data-name="Trazado 105928" d="M318.019,1583.314c1.888,2.278,2.43,4.945,1.209,5.957s-3.741-.015-5.629-2.294-2.43-4.945-1.21-5.957S316.13,1581.036,318.019,1583.314Z" transform="translate(-311.737 -1580.631)" fill="#7fc6a6"/>
            </g>
          </g>
        </g>
        <g id="Grupo_71124" data-name="Grupo 71124" transform="translate(43.806 4.133)">
          <g id="Grupo_71123" data-name="Grupo 71123">
            <path id="Trazado_105929" data-name="Trazado 105929" d="M537.755,1428.052a.25.25,0,0,0,.18-.424c-.175-.181-4.33-4.431-8.787-4.431h0a.25.25,0,0,0,0,.5h0c4.242,0,8.385,4.235,8.427,4.278A.25.25,0,0,0,537.755,1428.052Z" transform="translate(-528.896 -1423.197)"/>
          </g>
        </g>
        <g id="Grupo_71126" data-name="Grupo 71126" transform="translate(43.183 5.586)">
          <g id="Grupo_71125" data-name="Grupo 71125">
            <path id="Trazado_105930" data-name="Trazado 105930" d="M531.432,1434.665a.25.25,0,0,0,.179-.425,11.02,11.02,0,0,0-6.036-2.633.25.25,0,0,0-.076.495,10.7,10.7,0,0,1,5.753,2.488A.249.249,0,0,0,531.432,1434.665Z" transform="translate(-525.287 -1431.604)"/>
          </g>
        </g>
        <g id="Grupo_71128" data-name="Grupo 71128" transform="translate(90.869 56.394)">
          <g id="Grupo_71127" data-name="Grupo 71127">
            <path id="Trazado_105931" data-name="Trazado 105931" d="M810.175,1730.553a.25.25,0,0,0,.18-.424c-.175-.181-4.33-4.431-8.787-4.431a.25.25,0,1,0,0,.5h0c4.246,0,8.385,4.235,8.427,4.278A.25.25,0,0,0,810.175,1730.553Z" transform="translate(-801.315 -1725.698)"/>
          </g>
        </g>
        <g id="Grupo_71130" data-name="Grupo 71130" transform="translate(90.246 57.846)">
          <g id="Grupo_71129" data-name="Grupo 71129">
            <path id="Trazado_105932" data-name="Trazado 105932" d="M803.851,1737.165a.25.25,0,0,0,.179-.425,11.018,11.018,0,0,0-6.036-2.633.25.25,0,0,0-.076.495,10.747,10.747,0,0,1,5.753,2.488A.251.251,0,0,0,803.851,1737.165Z" transform="translate(-797.707 -1734.105)"/>
          </g>
        </g>
      </g>
      <g id="Grupo_71133" data-name="Grupo 71133" transform="translate(121.482 24.721)">
        <g id="Grupo_71132" data-name="Grupo 71132">
          <path id="Trazado_105933" data-name="Trazado 105933" d="M886.728,374.921c12.8-.88,44.021-2.577,62.832.23a2.99,2.99,0,0,0,2.74-4.874c-1.286-1.509-3.57-2.777-7.592-2.958,0,0,3.73-17.456-13.156-19.111-17.352-1.7-17.6,16.66-17.6,16.66s-10.139-9.635-15.065,2.281c0,0-10.713-4.7-15.576,1.123A4.067,4.067,0,0,0,886.728,374.921Z" transform="translate(-882.363 -348.096)" fill="#fff"/>
        </g>
      </g>
      <g id="Grupo_71135" data-name="Grupo 71135" transform="translate(36.582 97.467)">
        <g id="Grupo_71134" data-name="Grupo 71134">
          <path id="Trazado_105934" data-name="Trazado 105934" d="M393.6,794.351c6.934-.686,23.2-2.056,37.415-1.448a9.945,9.945,0,0,0,10.372-10.514,15.206,15.206,0,0,0-3.5-8.248c-9.106-11.859-23.573.426-23.173,6.62,0,0-3.409-9.211-12.521-7.2s-5.3,15.458-5.3,15.458-2.988-.5-4.984.984A2.42,2.42,0,0,0,393.6,794.351Z" transform="translate(-390.932 -769.171)" fill="#fff"/>
        </g>
      </g>
      <g id="Grupo_71137" data-name="Grupo 71137" transform="translate(279.636 77.824)">
        <g id="Grupo_71136" data-name="Grupo 71136">
          <path id="Trazado_105935" data-name="Trazado 105935" d="M1801.775,679.99c11.5-.911,39.547-2.731,56.484-.386a2.688,2.688,0,0,0,2.417-4.407c-1.17-1.344-3.235-2.462-6.853-2.587,0,0,3.188-15.727-12.006-17.055-15.614-1.365-15.665,15.142-15.665,15.142s-9.206-8.566-13.521,2.192c0,0-9.675-4.12-13.991,1.156A3.656,3.656,0,0,0,1801.775,679.99Z" transform="translate(-1797.813 -655.474)" fill="#fff"/>
        </g>
      </g>
      <g id="Grupo_71138" data-name="Grupo 71138" transform="translate(234.855 125.555)">
        <path id="Trazado_105936" data-name="Trazado 105936" d="M1545.868,963.17s-7.033-5.618-7.256-13.769,3.653-17.53,10.759-17.642,14.81,10.049,21.957,10.719,24.676-.782,32.492,2.791,28.249,16.17,14.069,37.953-27.468,19.984-27.468,19.984-38.075-13.611-38.41-14.168-9.938-12.728-9.938-13.286S1545.868,963.17,1545.868,963.17Z" transform="translate(-1538.603 -931.759)" fill="#fecc86"/>
      </g>
      <g id="Grupo_71139" data-name="Grupo 71139" transform="translate(115.746 92.591)">
        <path id="Trazado_105937" data-name="Trazado 105937" d="M867.926,743.788s11.471-5.918,24.2-.67,14.4,25.406,14.851,32.076,0,19.845,0,19.845-8.462,4.913-21.2,4.355-30.271-2.568-34.849-5.36S850.2,754.172,867.926,743.788Z" transform="translate(-849.157 -740.948)" fill="#49263e"/>
      </g>
      <g id="Grupo_71140" data-name="Grupo 71140" transform="translate(82.263 139.821)">
        <path id="Trazado_105938" data-name="Trazado 105938" d="M705.923,1014.33s-36.177,2.261-45.473,15.074-3.768,114.058,0,126.87H773.569l-7.351-107.023s-4.522-24.118-13.65-27.887S705.923,1014.33,705.923,1014.33Z" transform="translate(-655.349 -1014.33)" fill="#61a3c5"/>
      </g>
      <g id="Grupo_71142" data-name="Grupo 71142" transform="translate(0 280.823)">
        <g id="Grupo_71141" data-name="Grupo 71141">
          <path id="Trazado_105939" data-name="Trazado 105939" d="M571.036,1832.383H180.124a.942.942,0,0,1,0-1.884H571.036a.942.942,0,1,1,0,1.884Z" transform="translate(-179.182 -1830.499)"/>
        </g>
      </g>
      <g id="Grupo_71143" data-name="Grupo 71143" transform="translate(180.71 178.761)">
        <path id="Trazado_105940" data-name="Trazado 105940" d="M1255.957,1239.73h27.663s33.8.167,44.858,2.345,21.4,12.059,23.762,25.625-1.486,45.724-10.7,62.137-22.108,26.128-25.29,25.96-22.284-5.527-22.284-5.527c-1.87-.007-38.9-2.735-51.242-8.207-15.771-6.994-15.824-58.94-15.824-58.94l1.867-3.142-2.812-2.872-.761-6.139s5.639-20.014,7.146-20.939S1255.957,1239.73,1255.957,1239.73Z" transform="translate(-1225.195 -1239.73)" fill="#fd7583"/>
      </g>
      <g id="Grupo_71144" data-name="Grupo 71144" transform="translate(230.55 160.868)">
        <path id="Trazado_105941" data-name="Trazado 105941" d="M1542.977,1157.183a144.772,144.772,0,0,0-.986-14.625,9.382,9.382,0,0,0-3.025-3.574,33.977,33.977,0,0,0-10.349-2.827h-.569a33.976,33.976,0,0,0-10.349,2.827,9.383,9.383,0,0,0-3.025,3.574,144.742,144.742,0,0,0-.986,14.625,26.308,26.308,0,0,0,1.111,8.035l-.007-.006s1.768,13,12.554,12.821c.258,0,2.209,0,2.209,0,10.786.182,12.554-13.182,12.554-13.182l-.1-.11A26.393,26.393,0,0,0,1542.977,1157.183Z" transform="translate(-1513.685 -1136.157)" fill="#fe9f73"/>
      </g>
      <g id="Grupo_71146" data-name="Grupo 71146" transform="translate(242.12 185.366)">
        <g id="Grupo_71145" data-name="Grupo 71145">
          <path id="Trazado_105942" data-name="Trazado 105942" d="M1583.121,1288.074a.176.176,0,0,0,.036-.348c-1.134-.243-1.849-1.639-2.055-2.1a5.293,5.293,0,0,0,2.922-3.326,5.741,5.741,0,0,0-.917-4.266.176.176,0,1,0-.287.2,5.482,5.482,0,0,1,.861,3.981,5.046,5.046,0,0,1-2.885,3.17l-.141.072.057.148c.033.087.835,2.128,2.371,2.457A.193.193,0,0,0,1583.121,1288.074Z" transform="translate(-1580.656 -1277.965)" fill="#f07162"/>
        </g>
      </g>
      <g id="Grupo_71148" data-name="Grupo 71148" transform="translate(249.094 183.667)">
        <g id="Grupo_71147" data-name="Grupo 71147">
          <path id="Trazado_105943" data-name="Trazado 105943" d="M1627.968,1268.131a.377.377,0,0,0-.255.051c-2.786,1.709-6.1.015-6.135,0a.377.377,0,0,0-.349.668c.151.079,3.732,1.906,6.878-.023a.377.377,0,0,0-.14-.694Z" transform="translate(-1621.026 -1268.126)" fill="#fecc86"/>
        </g>
      </g>
      <g id="Grupo_71150" data-name="Grupo 71150" transform="translate(235.355 183.667)">
        <g id="Grupo_71149" data-name="Grupo 71149">
          <path id="Trazado_105944" data-name="Trazado 105944" d="M1541.82,1268.131a.376.376,0,0,1,.254.051c2.786,1.709,6.1.015,6.135,0a.377.377,0,1,1,.349.668c-.151.079-3.732,1.906-6.878-.023a.377.377,0,0,1,.14-.694Z" transform="translate(-1541.5 -1268.126)" fill="#fecc86"/>
        </g>
      </g>
      <g id="Grupo_71151" data-name="Grupo 71151" transform="translate(240.048 156.2)">
        <path id="Trazado_105945" data-name="Trazado 105945" d="M1576.892,1109.185a39.921,39.921,0,0,0-5.416.106,2.691,2.691,0,0,0-2.8,3.031l5.563,1.271.049-.435.008.434,5.509-1.488A2.692,2.692,0,0,0,1576.892,1109.185Z" transform="translate(-1568.663 -1109.138)" fill="#f75553"/>
      </g>
      <g id="Grupo_71152" data-name="Grupo 71152" transform="translate(236.801 186.967)">
        <path id="Trazado_105946" data-name="Trazado 105946" d="M1552.489,1289.367h-.06a2.627,2.627,0,0,1-2.558-1.9.188.188,0,1,1,.366-.088,2.217,2.217,0,0,0,2.2,1.612h.053a1.722,1.722,0,0,0,1.879-1.51.191.191,0,0,1,.2-.171.189.189,0,0,1,.171.2A2.123,2.123,0,0,1,1552.489,1289.367Z" transform="translate(-1549.866 -1287.233)"/>
      </g>
      <g id="Grupo_71153" data-name="Grupo 71153" transform="translate(249.544 186.967)">
        <path id="Trazado_105947" data-name="Trazado 105947" d="M1626.25,1289.367h-.059a2.629,2.629,0,0,1-2.559-1.9.189.189,0,0,1,.367-.088,2.217,2.217,0,0,0,2.2,1.612h.053a1.722,1.722,0,0,0,1.879-1.51.188.188,0,1,1,.375.034A2.123,2.123,0,0,1,1626.25,1289.367Z" transform="translate(-1623.627 -1287.233)"/>
      </g>
      <g id="Grupo_71154" data-name="Grupo 71154" transform="translate(242.639 196.82)">
        <path id="Trazado_105948" data-name="Trazado 105948" d="M1583.851,1345.571a.188.188,0,0,1-.119-.334,3.872,3.872,0,0,1,4.976-.106.188.188,0,0,1-.246.286,3.445,3.445,0,0,0-4.492.112A.187.187,0,0,1,1583.851,1345.571Z" transform="translate(-1583.663 -1344.264)" fill="#f07162"/>
      </g>
      <g id="Grupo_71155" data-name="Grupo 71155" transform="translate(272.493 179.606)">
        <path id="Trazado_105949" data-name="Trazado 105949" d="M1792.409,1275.3h0a.282.282,0,0,1-.28-.285c.089-10.828-9.012-23.713-19.094-27.034-3.71-1.222-9.2-2.163-16.309-2.8a.283.283,0,0,1,.05-.563c7.155.638,12.685,1.588,16.436,2.823,10.288,3.388,19.573,16.531,19.482,27.575A.282.282,0,0,1,1792.409,1275.3Z" transform="translate(-1756.466 -1244.62)"/>
      </g>
      <g id="Grupo_71156" data-name="Grupo 71156" transform="translate(228.557 158.432)">
        <path id="Trazado_105950" data-name="Trazado 105950" d="M1502.51,1144.629s12.938,5.695,24.117-6.141v-5.583l1.449,5.806s2.588,6.253,6.831,5.806c0,0,4.109-22.06-14.538-22.451C1498.07,1121.6,1502.51,1144.629,1502.51,1144.629Z" transform="translate(-1502.15 -1122.059)" fill="#fecc86"/>
      </g>
      <g id="Grupo_71161" data-name="Grupo 71161" transform="translate(225.745 180.441)">
        <g id="Grupo_71158" data-name="Grupo 71158">
          <g id="Grupo_71157" data-name="Grupo 71157">
            <path id="Trazado_105951" data-name="Trazado 105951" d="M1495.481,1254.26a4.805,4.805,0,1,1-4.805-4.806A4.805,4.805,0,0,1,1495.481,1254.26Z" transform="translate(-1485.87 -1249.454)" fill="#fe9f73"/>
          </g>
        </g>
        <g id="Grupo_71160" data-name="Grupo 71160" transform="translate(2.452 2.395)">
          <g id="Grupo_71159" data-name="Grupo 71159">
            <path id="Trazado_105952" data-name="Trazado 105952" d="M1502.063,1268.692a2.023,2.023,0,0,1-1.9-1.515,1.9,1.9,0,0,1,.767-2.219,2.264,2.264,0,0,1,2.492.055,2.123,2.123,0,0,0-.94-1.115,2.983,2.983,0,0,0-2.115-.135.154.154,0,0,1-.1-.292,3.253,3.253,0,0,1,2.36.157,2.617,2.617,0,0,1,1.236,1.764l.134.535-.392-.389a2.071,2.071,0,0,0-2.516-.318,1.613,1.613,0,0,0-.634,1.871,1.7,1.7,0,0,0,1.633,1.293.154.154,0,0,1,0,.308Z" transform="translate(-1500.066 -1263.316)" fill="#f07162"/>
          </g>
        </g>
      </g>
      <g id="Grupo_71162" data-name="Grupo 71162" transform="translate(257.887 209.72)">
        <path id="Trazado_105953" data-name="Trazado 105953" d="M1672.206,1462.488a.278.278,0,0,1-.073-.01.283.283,0,0,1-.2-.346l11.531-42.988a.283.283,0,1,1,.546.146l-11.531,42.988A.283.283,0,0,1,1672.206,1462.488Z" transform="translate(-1671.923 -1418.934)"/>
      </g>
      <g id="Grupo_71163" data-name="Grupo 71163" transform="translate(209.682 206.281)">
        <path id="Trazado_105954" data-name="Trazado 105954" d="M1399.2,1437.443a.282.282,0,0,1-.279-.238l-6.03-37.852a.283.283,0,0,1,.558-.089l6.029,37.852a.283.283,0,0,1-.234.324A.3.3,0,0,1,1399.2,1437.443Z" transform="translate(-1392.893 -1399.026)"/>
      </g>
      <g id="Grupo_71164" data-name="Grupo 71164" transform="translate(185.293 253.445)">
        <path id="Trazado_105955" data-name="Trazado 105955" d="M1293.137,1705.976l-.032,0c-.972-.11-23.9-2.76-31.072-7.622-7.22-4.892-10.187-25.144-10.31-26a.283.283,0,1,1,.56-.08c.03.208,3.054,20.863,10.067,25.615,7.059,4.784,30.582,7.5,30.819,7.529a.283.283,0,0,1-.031.563Z" transform="translate(-1251.72 -1672.026)"/>
      </g>
      <g id="Grupo_71165" data-name="Grupo 71165" transform="translate(176.408 150.798)">
        <path id="Trazado_105956" data-name="Trazado 105956" d="M1205.794,1104.178a.282.282,0,0,1-.276-.227l-5.22-25.74a.283.283,0,1,1,.554-.112l5.22,25.74a.282.282,0,0,1-.221.333A.287.287,0,0,1,1205.794,1104.178Z" transform="translate(-1200.292 -1077.873)"/>
      </g>
      <g id="Grupo_71166" data-name="Grupo 71166" transform="translate(227.868 247.661)">
        <path id="Trazado_105957" data-name="Trazado 105957" d="M1498.443,1671.254a.278.278,0,0,1-.063-.007.283.283,0,0,1-.213-.338c4.629-20.39,10.082-32.084,10.136-32.2a.282.282,0,1,1,.511.241c-.054.115-5.482,11.76-10.1,32.084A.283.283,0,0,1,1498.443,1671.254Z" transform="translate(-1498.16 -1638.547)"/>
      </g>
      <g id="Grupo_71167" data-name="Grupo 71167" transform="translate(235.073 173.314)">
        <path id="Trazado_105958" data-name="Trazado 105958" d="M1540.306,1215.612c-.1,0-.163,0-.17,0a.283.283,0,0,1,.022-.565c.087,0,8.79.264,14.491-6.74a.283.283,0,1,1,.438.357C1549.653,1215.339,1541.576,1215.612,1540.306,1215.612Z" transform="translate(-1539.865 -1208.201)"/>
      </g>
      <g id="Grupo_71170" data-name="Grupo 71170" transform="translate(214.518 206.56)">
        <g id="Grupo_71168" data-name="Grupo 71168">
          <path id="Trazado_105959" data-name="Trazado 105959" d="M1422.979,1407.963a.282.282,0,0,1-.233-.122,9.963,9.963,0,0,1-1.776-6.967.283.283,0,0,1,.556.1,9.574,9.574,0,0,0,1.685,6.544.283.283,0,0,1-.233.443Z" transform="translate(-1420.889 -1400.643)"/>
        </g>
        <g id="Grupo_71169" data-name="Grupo 71169" transform="translate(2.198 1.675)">
          <path id="Trazado_105960" data-name="Trazado 105960" d="M1436.517,1417.714a.283.283,0,0,1-.228-.115,13.532,13.532,0,0,1-2.679-6.97.283.283,0,0,1,.565-.019,13.214,13.214,0,0,0,2.569,6.653.283.283,0,0,1-.227.45Z" transform="translate(-1433.61 -1410.338)"/>
        </g>
      </g>
      <g id="Grupo_71173" data-name="Grupo 71173" transform="translate(268.42 283.046)">
        <g id="Grupo_71171" data-name="Grupo 71171" transform="translate(3.321 0.412)">
          <path id="Trazado_105961" data-name="Trazado 105961" d="M1752.394,1849.656a.283.283,0,0,1-.041-.562,9.574,9.574,0,0,0,5.939-3.225.283.283,0,0,1,.453.338,9.961,9.961,0,0,1-6.31,3.446Z" transform="translate(-1752.112 -1845.755)"/>
        </g>
        <g id="Grupo_71172" data-name="Grupo 71172">
          <path id="Trazado_105962" data-name="Trazado 105962" d="M1733.172,1846.656a.283.283,0,0,1-.032-.564,13.217,13.217,0,0,0,6.62-2.652.283.283,0,0,1,.371.426,13.527,13.527,0,0,1-6.927,2.787Z" transform="translate(-1732.89 -1843.371)"/>
        </g>
      </g>
      <g id="Grupo_71176" data-name="Grupo 71176" transform="translate(93.527 263.742)">
        <g id="Grupo_71174" data-name="Grupo 71174">
          <path id="Trazado_105963" data-name="Trazado 105963" d="M725.037,1737.76a.28.28,0,0,1-.153-.045,9.961,9.961,0,0,1-4.329-5.74.283.283,0,0,1,.552-.121,9.575,9.575,0,0,0,4.083,5.385.283.283,0,0,1-.153.52Z" transform="translate(-720.549 -1731.633)"/>
        </g>
        <g id="Grupo_71175" data-name="Grupo 71175" transform="translate(2.604 0.725)">
          <path id="Trazado_105964" data-name="Trazado 105964" d="M740.954,1741.664a.282.282,0,0,1-.145-.04,13.529,13.529,0,0,1-5.163-5.394.283.283,0,0,1,.514-.235,13.217,13.217,0,0,0,4.939,5.144.283.283,0,0,1-.145.525Z" transform="translate(-735.62 -1735.83)"/>
        </g>
      </g>
      <g id="Grupo_71179" data-name="Grupo 71179" transform="translate(107.755 164.135)">
        <g id="Grupo_71177" data-name="Grupo 71177" transform="translate(3.447 0.448)">
          <path id="Trazado_105965" data-name="Trazado 105965" d="M827.32,1163.809a.283.283,0,0,1-.276-.223,9.574,9.574,0,0,0-4.058-5.4.283.283,0,0,1,.308-.474,9.963,9.963,0,0,1,4.3,5.76.284.284,0,0,1-.277.342Z" transform="translate(-822.857 -1157.662)"/>
        </g>
        <g id="Grupo_71178" data-name="Grupo 71178">
          <path id="Trazado_105966" data-name="Trazado 105966" d="M808.213,1160.927a.283.283,0,0,1-.258-.166,13.216,13.216,0,0,0-4.916-5.167.283.283,0,0,1,.292-.484,13.53,13.53,0,0,1,5.138,5.417.283.283,0,0,1-.257.4Z" transform="translate(-802.903 -1155.07)"/>
        </g>
      </g>
      <g id="Grupo_71180" data-name="Grupo 71180" transform="translate(179.2 146.572)">
        <path id="Trazado_105967" data-name="Trazado 105967" d="M1230.179,1080.189a.283.283,0,0,1-.27-.2l-4.26-13.711c-4.409-11.491-8.906-12.3-8.951-12.3a.283.283,0,0,1,.079-.56c.2.027,4.846.791,9.406,12.679l4.266,13.728a.283.283,0,0,1-.27.367Z" transform="translate(-1216.456 -1053.412)"/>
      </g>
      <g id="Grupo_71181" data-name="Grupo 71181" transform="translate(160.975 171.988)">
        <path id="Trazado_105968" data-name="Trazado 105968" d="M1110.96,1224.017s15.157-18.111,18.9-19.786,11.11-3.964,12.506-3.015c0,0,7.928-2.274,10.5,1.452,0,0,4.578-1,6.029,3.461,0,0,3.806-.334,4.3,2.624.5,3.014-5.248,3.106-9.044,5.154a29.414,29.414,0,0,0-12.841,12.6c-3.741,7.146-6.909,15.241-9.847,18.591C1131.456,1245.1,1116.065,1228.967,1110.96,1224.017Z" transform="translate(-1110.96 -1200.529)" fill="#fe9f73"/>
      </g>
      <g id="Grupo_71182" data-name="Grupo 71182" transform="translate(196.325 177.306)">
        <path id="Trazado_105969" data-name="Trazado 105969" d="M1315.861,1236.313a.283.283,0,0,1-.19-.492,20.693,20.693,0,0,1,5.626-3.659,27.037,27.037,0,0,1,6.86-.852.283.283,0,0,1,0,.565,27.071,27.071,0,0,0-6.678.823,20.558,20.558,0,0,0-5.428,3.543A.281.281,0,0,1,1315.861,1236.313Z" transform="translate(-1315.578 -1231.309)" fill="#f07162"/>
      </g>
      <g id="Grupo_71183" data-name="Grupo 71183" transform="translate(187.532 173.844)">
        <path id="Trazado_105970" data-name="Trazado 105970" d="M1264.964,1217.224a.283.283,0,0,1-.17-.508c.179-.135,4.423-3.311,7.246-4.189a57.519,57.519,0,0,1,7.957-1.254.283.283,0,0,1,.054.563,58.445,58.445,0,0,0-7.843,1.231c-2.73.849-7.031,4.069-7.074,4.1A.281.281,0,0,1,1264.964,1217.224Z" transform="translate(-1264.681 -1211.271)" fill="#f07162"/>
      </g>
      <g id="Grupo_71184" data-name="Grupo 71184" transform="translate(181.628 172.314)">
        <path id="Trazado_105971" data-name="Trazado 105971" d="M1230.79,1208.515a.283.283,0,0,1-.2-.479,23.945,23.945,0,0,1,4.019-3.268c1.289-.794,6.649-2.281,6.877-2.344a.283.283,0,1,1,.151.545c-.055.015-5.51,1.529-6.731,2.28a23.837,23.837,0,0,0-3.909,3.18A.282.282,0,0,1,1230.79,1208.515Z" transform="translate(-1230.508 -1202.413)" fill="#f07162"/>
      </g>
      <g id="Grupo_71187" data-name="Grupo 71187" transform="translate(131.019 95.535)">
        <g id="Grupo_71186" data-name="Grupo 71186">
          <g id="Grupo_71185" data-name="Grupo 71185">
            <path id="Trazado_105972" data-name="Trazado 105972" d="M968.083,768.384s-1.356,24.94-5.4,28.612a6.839,6.839,0,0,1-5.821,1.341l-2.572,14.3-16.726-5.406,7.587-40.613s6.9-9.029,6.819-8.615S968.083,768.384,968.083,768.384Z" transform="translate(-937.566 -757.988)" fill="#fe9f73"/>
          </g>
        </g>
      </g>
      <g id="Grupo_71190" data-name="Grupo 71190" transform="translate(153.077 114.985)">
        <g id="Grupo_71189" data-name="Grupo 71189">
          <g id="Grupo_71188" data-name="Grupo 71188">
            <path id="Trazado_105973" data-name="Trazado 105973" d="M1065.373,879.466a.158.158,0,0,1,.025-.313c1.04-.027,1.9-1.141,2.156-1.509a4.747,4.747,0,0,1-2.028-3.414,5.146,5.146,0,0,1,1.511-3.61.158.158,0,1,1,.219.227,4.916,4.916,0,0,0-1.415,3.368,4.526,4.526,0,0,0,2.021,3.27l.112.087-.074.121c-.044.071-1.086,1.739-2.5,1.776A.194.194,0,0,1,1065.373,879.466Z" transform="translate(-1065.245 -870.576)" fill="#f07162"/>
          </g>
        </g>
      </g>
      <g id="Grupo_71193" data-name="Grupo 71193" transform="translate(137.75 129.751)">
        <g id="Grupo_71192" data-name="Grupo 71192">
          <g id="Grupo_71191" data-name="Grupo 71191">
            <path id="Trazado_105974" data-name="Trazado 105974" d="M988.188,967.033l.907-4.857s-8.122-2.017-12.566-6.133C976.529,956.043,982.138,963.894,988.188,967.033Z" transform="translate(-976.529 -956.043)" fill="#f07162"/>
          </g>
        </g>
      </g>
      <g id="Grupo_71196" data-name="Grupo 71196" transform="translate(148.669 117.032)">
        <g id="Grupo_71195" data-name="Grupo 71195">
          <g id="Grupo_71194" data-name="Grupo 71194">
            <path id="Trazado_105975" data-name="Trazado 105975" d="M1041.474,883.464a.88.88,0,1,1-.7-1.026A.88.88,0,0,1,1041.474,883.464Z" transform="translate(-1039.728 -882.422)"/>
          </g>
        </g>
      </g>
      <g id="Grupo_71199" data-name="Grupo 71199" transform="translate(156.805 118.552)">
        <g id="Grupo_71198" data-name="Grupo 71198">
          <g id="Grupo_71197" data-name="Grupo 71197">
            <path id="Trazado_105976" data-name="Trazado 105976" d="M1088.568,892.262a.88.88,0,1,1-.7-1.026A.88.88,0,0,1,1088.568,892.262Z" transform="translate(-1086.823 -891.22)"/>
          </g>
        </g>
      </g>
      <g id="Grupo_71201" data-name="Grupo 71201" transform="translate(155.903 114.643)">
        <g id="Grupo_71200" data-name="Grupo 71200">
          <path id="Trazado_105977" data-name="Trazado 105977" d="M1085.6,871.442a.282.282,0,0,1-.233-.122,5.439,5.439,0,0,0-3.509-2.16.283.283,0,0,1,.054-.563,5.915,5.915,0,0,1,3.92,2.4.283.283,0,0,1-.233.442Z" transform="translate(-1081.606 -868.596)" fill="#49263e"/>
        </g>
      </g>
      <g id="Grupo_71203" data-name="Grupo 71203" transform="translate(147.124 113.685)">
        <g id="Grupo_71202" data-name="Grupo 71202">
          <path id="Trazado_105978" data-name="Trazado 105978" d="M1031.068,864.574a.283.283,0,0,1-.161-.515,5.917,5.917,0,0,1,4.521-.841.283.283,0,0,1-.151.545,5.416,5.416,0,0,0-4.049.762A.28.28,0,0,1,1031.068,864.574Z" transform="translate(-1030.785 -863.05)" fill="#49263e"/>
        </g>
      </g>
      <g id="Grupo_71204" data-name="Grupo 71204" transform="translate(147.84 124.349)">
        <path id="Trazado_105979" data-name="Trazado 105979" d="M1039.292,928.228a4.375,4.375,0,0,1-4.355-3.22.188.188,0,0,1,.367-.084,3.936,3.936,0,0,0,3.985,2.927l.181,0a.192.192,0,0,1,.194.182.188.188,0,0,1-.182.194Z" transform="translate(-1034.932 -924.778)" fill="#f07162"/>
      </g>
      <g id="Grupo_71205" data-name="Grupo 71205" transform="translate(144.825 94.42)">
        <path id="Trazado_105980" data-name="Trazado 105980" d="M1019.6,752.31l-2.124,7.593s10.633,11.834,19.514,11.219,1.715-12.819,1.715-12.819-6.13,1.732-6.446-2.877c-.349-5.1-10.429-3.715-10.938-3.741A5.476,5.476,0,0,0,1019.6,752.31Z" transform="translate(-1017.478 -751.534)" fill="#49263e"/>
      </g>
      <g id="Grupo_71206" data-name="Grupo 71206" transform="translate(131.019 94.906)">
        <path id="Trazado_105981" data-name="Trazado 105981" d="M954.576,754.351l-1.751,5.75s-2.225,13.232-7.679,15.744-7.579-.334-7.579-.334l2.824-12.73s6.713-7.56,6.664-7.356S954.576,754.351,954.576,754.351Z" transform="translate(-937.566 -754.351)" fill="#49263e"/>
      </g>
      <g id="Grupo_71213" data-name="Grupo 71213" transform="translate(129.415 113.969)">
        <g id="Grupo_71209" data-name="Grupo 71209">
          <g id="Grupo_71208" data-name="Grupo 71208">
            <g id="Grupo_71207" data-name="Grupo 71207">
              <path id="Trazado_105982" data-name="Trazado 105982" d="M938.063,870.533a4.933,4.933,0,1,1-3.943-5.755A4.933,4.933,0,0,1,938.063,870.533Z" transform="translate(-928.28 -864.693)" fill="#fe9f73"/>
            </g>
          </g>
        </g>
        <g id="Grupo_71212" data-name="Grupo 71212" transform="translate(2.368 2.23)">
          <g id="Grupo_71211" data-name="Grupo 71211">
            <g id="Grupo_71210" data-name="Grupo 71210">
              <path id="Trazado_105983" data-name="Trazado 105983" d="M943.636,883.229A2.076,2.076,0,0,1,942,881.341a1.951,1.951,0,0,1,1.192-2.094,2.323,2.323,0,0,1,2.5.525,2.181,2.181,0,0,0-.738-1.3,3.063,3.063,0,0,0-2.109-.535.158.158,0,0,1-.043-.313,3.339,3.339,0,0,1,2.352.6,2.685,2.685,0,0,1,.915,2.013l.034.565-.322-.466a2.126,2.126,0,0,0-2.479-.8,1.655,1.655,0,0,0-.992,1.768,1.745,1.745,0,0,0,1.4,1.613.158.158,0,1,1-.053.311Z" transform="translate(-941.988 -877.599)" fill="#f07162"/>
            </g>
          </g>
        </g>
      </g>
      <g id="Grupo_71214" data-name="Grupo 71214" transform="translate(112.497 139.821)">
        <path id="Trazado_105984" data-name="Trazado 105984" d="M865.262,1027.394a52.656,52.656,0,0,0,24.645-8.025c-14.138-2.856-39.214-5.039-39.214-5.039a148.425,148.425,0,0,0-20.34,2.969C834.422,1021.137,845.255,1028.9,865.262,1027.394Z" transform="translate(-830.353 -1014.33)" fill="#fe9f73"/>
      </g>
      <g id="Grupo_71216" data-name="Grupo 71216" transform="translate(147.066 119.237)">
        <g id="Grupo_71215" data-name="Grupo 71215">
          <path id="Trazado_105985" data-name="Trazado 105985" d="M1030.543,895.374a.094.094,0,0,0,0-.188.094.094,0,0,0,0,.188Z" transform="translate(-1030.452 -895.186)" fill="#f75553"/>
        </g>
      </g>
      <g id="Grupo_71218" data-name="Grupo 71218" transform="translate(148.322 119.6)">
        <g id="Grupo_71217" data-name="Grupo 71217">
          <path id="Trazado_105986" data-name="Trazado 105986" d="M1037.814,897.475a.094.094,0,0,0,0-.188.094.094,0,0,0,0,.188Z" transform="translate(-1037.723 -897.287)" fill="#f75553"/>
        </g>
      </g>
      <g id="Grupo_71220" data-name="Grupo 71220" transform="translate(145.978 121.554)">
        <g id="Grupo_71219" data-name="Grupo 71219">
          <path id="Trazado_105987" data-name="Trazado 105987" d="M1024.242,908.786a.094.094,0,0,0,0-.188.094.094,0,0,0,0,.188Z" transform="translate(-1024.151 -908.597)" fill="#f75553"/>
        </g>
      </g>
      <g id="Grupo_71222" data-name="Grupo 71222" transform="translate(144.47 119.405)">
        <g id="Grupo_71221" data-name="Grupo 71221">
          <path id="Trazado_105988" data-name="Trazado 105988" d="M1015.516,896.344a.094.094,0,0,0,0-.188.094.094,0,0,0,0,.188Z" transform="translate(-1015.425 -896.156)" fill="#f75553"/>
        </g>
      </g>
      <g id="Grupo_71224" data-name="Grupo 71224" transform="translate(146.48 119.879)">
        <g id="Grupo_71223" data-name="Grupo 71223">
          <path id="Trazado_105989" data-name="Trazado 105989" d="M1027.15,899.091a.094.094,0,0,0,0-.188.094.094,0,0,0,0,.188Z" transform="translate(-1027.059 -898.903)" fill="#f75553"/>
        </g>
      </g>
      <g id="Grupo_71226" data-name="Grupo 71226" transform="translate(148.546 121.442)">
        <g id="Grupo_71225" data-name="Grupo 71225">
          <path id="Trazado_105990" data-name="Trazado 105990" d="M1039.107,908.139a.094.094,0,0,0,0-.189.094.094,0,0,0,0,.189Z" transform="translate(-1039.016 -907.951)" fill="#f75553"/>
        </g>
      </g>
      <g id="Grupo_71228" data-name="Grupo 71228" transform="translate(150.44 119.879)">
        <g id="Grupo_71227" data-name="Grupo 71227">
          <path id="Trazado_105991" data-name="Trazado 105991" d="M1050.078,899.091h.028a.07.07,0,0,0,.036-.008.068.068,0,0,0,.03-.019.07.07,0,0,0,.02-.03.071.071,0,0,0,.008-.036l0-.025a.092.092,0,0,0-.024-.042l-.019-.015a.094.094,0,0,0-.048-.013h-.028a.071.071,0,0,0-.036.008.069.069,0,0,0-.03.02.072.072,0,0,0-.02.03.07.07,0,0,0-.008.036c0,.008,0,.017,0,.025a.093.093,0,0,0,.024.041l.019.015a.1.1,0,0,0,.048.013Z" transform="translate(-1049.984 -898.903)" fill="#f75553"/>
        </g>
      </g>
      <g id="Grupo_71230" data-name="Grupo 71230" transform="translate(152.119 121.275)">
        <g id="Grupo_71229" data-name="Grupo 71229">
          <path id="Trazado_105992" data-name="Trazado 105992" d="M1059.789,907.17a.094.094,0,0,0,0-.189.094.094,0,0,0,0,.189Z" transform="translate(-1059.698 -906.981)" fill="#f75553"/>
        </g>
      </g>
      <g id="Grupo_71232" data-name="Grupo 71232" transform="translate(152.258 119.851)">
        <g id="Grupo_71231" data-name="Grupo 71231">
          <path id="Trazado_105993" data-name="Trazado 105993" d="M1060.6,898.93a.094.094,0,0,0,0-.188.094.094,0,0,0,0,.188Z" transform="translate(-1060.506 -898.741)" fill="#f75553"/>
        </g>
      </g>
      <g id="Grupo_71234" data-name="Grupo 71234" transform="translate(154.659 119.265)">
        <g id="Grupo_71233" data-name="Grupo 71233">
          <path id="Trazado_105994" data-name="Trazado 105994" d="M1074.492,895.536a.094.094,0,0,0,0-.188.094.094,0,0,0,0,.188Z" transform="translate(-1074.401 -895.348)" fill="#f75553"/>
        </g>
      </g>
      <g id="Grupo_71236" data-name="Grupo 71236" transform="translate(155.72 120.605)">
        <g id="Grupo_71235" data-name="Grupo 71235">
          <path id="Trazado_105995" data-name="Trazado 105995" d="M1080.632,903.292a.094.094,0,0,0,0-.188.094.094,0,0,0,0,.188Z" transform="translate(-1080.541 -903.104)" fill="#f75553"/>
        </g>
      </g>
      <g id="Grupo_71238" data-name="Grupo 71238" transform="translate(157.534 120.8)">
        <g id="Grupo_71237" data-name="Grupo 71237">
          <path id="Trazado_105996" data-name="Trazado 105996" d="M1091.135,904.423a.094.094,0,0,0,0-.188.094.094,0,0,0,0,.188Z" transform="translate(-1091.044 -904.235)" fill="#f75553"/>
        </g>
      </g>
      <g id="Grupo_71240" data-name="Grupo 71240" transform="translate(157.562 122.559)">
        <g id="Grupo_71239" data-name="Grupo 71239">
          <path id="Trazado_105997" data-name="Trazado 105997" d="M1091.3,914.6a.094.094,0,0,0,0-.188.094.094,0,0,0,0,.188Z" transform="translate(-1091.205 -914.414)" fill="#f75553"/>
        </g>
      </g>
      <g id="Grupo_71242" data-name="Grupo 71242" transform="translate(159.181 122.587)">
        <g id="Grupo_71241" data-name="Grupo 71241">
          <path id="Trazado_105998" data-name="Trazado 105998" d="M1100.668,914.764a.094.094,0,0,0,0-.189.094.094,0,0,0,0,.189Z" transform="translate(-1100.577 -914.576)" fill="#f75553"/>
        </g>
      </g>
      <g id="Grupo_71244" data-name="Grupo 71244" transform="translate(158.874 121.387)">
        <g id="Grupo_71243" data-name="Grupo 71243">
          <path id="Trazado_105999" data-name="Trazado 105999" d="M1098.891,907.816a.094.094,0,0,0,0-.188.094.094,0,0,0,0,.188Z" transform="translate(-1098.8 -907.628)" fill="#f75553"/>
        </g>
      </g>
      <g id="Grupo_71246" data-name="Grupo 71246" transform="translate(156.641 122.28)">
        <g id="Grupo_71245" data-name="Grupo 71245">
          <path id="Trazado_106000" data-name="Trazado 106000" d="M1085.964,912.987a.094.094,0,0,0,0-.189.094.094,0,0,0,0,.189Z" transform="translate(-1085.873 -912.798)" fill="#f75553"/>
        </g>
      </g>
      <g id="Grupo_71248" data-name="Grupo 71248" transform="translate(156.78 123.927)">
        <g id="Grupo_71247" data-name="Grupo 71247">
          <path id="Trazado_106001" data-name="Trazado 106001" d="M1086.772,922.52a.094.094,0,0,0,0-.188.094.094,0,0,0,0,.188Z" transform="translate(-1086.681 -922.332)" fill="#f75553"/>
        </g>
      </g>
      <g id="Grupo_71250" data-name="Grupo 71250" transform="translate(147.178 117.451)">
        <g id="Grupo_71249" data-name="Grupo 71249">
          <path id="Trazado_106002" data-name="Trazado 106002" d="M1031.189,885.034a.094.094,0,0,0,0-.188.094.094,0,0,0,0,.188Z" transform="translate(-1031.098 -884.846)" fill="#f75553"/>
        </g>
      </g>
      <g id="Grupo_71252" data-name="Grupo 71252" transform="translate(150.5 122.224)">
        <g id="Grupo_71251" data-name="Grupo 71251">
          <path id="Trazado_106003" data-name="Trazado 106003" d="M1050.417,912.663a.094.094,0,0,0,0-.188.094.094,0,0,0,0,.188Z" transform="translate(-1050.326 -912.475)" fill="#f75553"/>
        </g>
      </g>
      <g id="Grupo_71253" data-name="Grupo 71253" transform="translate(122.031 193.888)">
        <path id="Trazado_106004" data-name="Trazado 106004" d="M898.319,1398.913c-8.276,0-12.416-2.456-12.645-2.6a.283.283,0,0,1,.295-.482c.074.045,7.583,4.479,22.462,1.416,6.138-1.264,14.843-9.429,25.172-23.613,7.258-9.966,12.99-19.722,13.836-21.176l-23.9-24.4c-2.144,1.816-20.787,17.764-26.2,27.633a.283.283,0,1,1-.5-.272c5.765-10.517,26.322-27.79,26.529-27.963l.2-.168,24.562,25.08-.107.186c-.06.1-6.128,10.634-13.974,21.408-10.564,14.506-19.149,22.526-25.518,23.838A50.748,50.748,0,0,1,898.319,1398.913Z" transform="translate(-885.539 -1327.293)"/>
      </g>
      <g id="Grupo_71254" data-name="Grupo 71254" transform="translate(133.197 211.284)">
        <path id="Trazado_106005" data-name="Trazado 106005" d="M950.453,1434.1a.283.283,0,0,1-.2-.478c.09-.094,2.279-2.346,8.362-5.6a.283.283,0,1,1,.267.5c-5.989,3.206-8.2,5.472-8.22,5.495A.283.283,0,0,1,950.453,1434.1Z" transform="translate(-950.17 -1427.987)"/>
      </g>
      <g id="Grupo_71255" data-name="Grupo 71255" transform="translate(91.325 151.168)">
        <path id="Trazado_106006" data-name="Trazado 106006" d="M756.856,1141.46a.283.283,0,0,1-.266-.189c-.153-.433-15.377-43.406-26.149-54.178-5.581-5.581-11.331-6.62-15.173-6.508a18.1,18.1,0,0,0-7.053,1.586.283.283,0,1,1-.258-.5,18.35,18.35,0,0,1,7.295-1.648c3.953-.115,9.865.949,15.589,6.673,10.862,10.862,26.129,53.956,26.282,54.39a.283.283,0,0,1-.267.377Z" transform="translate(-707.803 -1080.013)"/>
      </g>
      <g id="Grupo_71256" data-name="Grupo 71256" transform="translate(170.47 222.155)">
        <path id="Trazado_106007" data-name="Trazado 106007" d="M1171.712,1493.493a2.6,2.6,0,0,1,2.135-2.471c2.135-.461,7.09.642,7.844,1.1s9.407,8.821,9.407,8.821,7.2,6.532,8.709,6.867,26.776,9.671,26.776,9.671l-6.049,17.588-2,11.263s-19.736-8.709-22.75-10.887-18.507-13.231-19.931-17.418-6.169-9.658-9.379-13.064c0,0-1.7-2.847.865-4.076,0,0-1.419-2.959,1.34-3.852C1168.683,1497.038,1167.092,1493.8,1171.712,1493.493Z" transform="translate(-1165.924 -1490.912)" fill="#fe9f73"/>
      </g>
      <g id="Grupo_71257" data-name="Grupo 71257" transform="translate(222.961 246.154)">
        <path id="Trazado_106008" data-name="Trazado 106008" d="M1518.475,1678.781c-4.114,0-21.534-5.312-22.279-5.54l-.029-.011-26.41-11.41.008-.195c.554-12.636,8.762-31.4,8.844-31.589l.094-.214.227.052c.2.045,19.822,4.546,28.611,7.531l.059.02,3.9,3.742a.283.283,0,0,1-.391.408l-3.808-3.656c-8.274-2.8-26.042-6.929-28.267-7.442-.906,2.106-8.107,19.18-8.7,30.977l26.037,11.25c.611.186,18.118,5.511,22.094,5.511h.087c3.776-.08,12.84-9.3,12.931-9.391a.283.283,0,0,1,.4.4c-.379.387-9.318,9.475-13.323,9.561Z" transform="translate(-1469.756 -1629.822)"/>
      </g>
      <g id="Grupo_71258" data-name="Grupo 71258" transform="translate(175.975 224.453)">
        <path id="Trazado_106009" data-name="Trazado 106009" d="M1208.5,1509.1a.282.282,0,0,1-.192-.075,21.737,21.737,0,0,0-3.223-2.52,67.07,67.07,0,0,0-7.068-1.737.283.283,0,0,1,.114-.554,73.567,73.567,0,0,1,7.2,1.78,21.591,21.591,0,0,1,3.365,2.616.283.283,0,0,1-.192.49Z" transform="translate(-1197.788 -1504.213)" fill="#f07162"/>
      </g>
      <g id="Grupo_71259" data-name="Grupo 71259" transform="translate(172.946 227.998)">
        <path id="Trazado_106010" data-name="Trazado 106010" d="M1190.086,1529.989a.281.281,0,0,1-.2-.079,19.5,19.5,0,0,0-2.957-2.358,60.1,60.1,0,0,0-6.474-2.264.283.283,0,0,1,.161-.542,58.611,58.611,0,0,1,6.59,2.313,19.65,19.65,0,0,1,3.072,2.444.282.282,0,0,1-.2.486Z" transform="translate(-1180.256 -1524.734)" fill="#f07162"/>
      </g>
      <g id="Grupo_71260" data-name="Grupo 71260" transform="translate(171.607 231.85)">
        <path id="Trazado_106011" data-name="Trazado 106011" d="M1181.045,1551.56a.282.282,0,0,1-.2-.088,13.452,13.452,0,0,0-2.343-1.908,38.53,38.53,0,0,0-5.788-1.978.283.283,0,1,1,.146-.546,37.749,37.749,0,0,1,5.936,2.041,13.79,13.79,0,0,1,2.458,2,.283.283,0,0,1-.2.478Z" transform="translate(-1172.5 -1547.031)" fill="#f07162"/>
      </g>
      <g id="Grupo_71261" data-name="Grupo 71261" transform="translate(116.895 149.9)">
        <path id="Trazado_106012" data-name="Trazado 106012" d="M881.023,1079.769A52.339,52.339,0,0,1,864.017,1077a35.854,35.854,0,0,1-8.088-3.815.283.283,0,0,1,.324-.463c.113.079,11.531,7.9,29.792,6.253a.283.283,0,1,1,.051.563C884.338,1079.7,882.644,1079.769,881.023,1079.769Z" transform="translate(-855.808 -1072.672)"/>
      </g>
      <g id="Grupo_71262" data-name="Grupo 71262" transform="translate(85.128 200.195)">
        <path id="Trazado_106013" data-name="Trazado 106013" d="M684.442,1390.788a.283.283,0,0,1-.257-.164L671.959,1364.2a.283.283,0,0,1,.513-.237l12.226,26.421a.283.283,0,0,1-.256.4Z" transform="translate(-671.933 -1363.801)"/>
      </g>
      <g id="Grupo_71263" data-name="Grupo 71263" transform="translate(84.681 205.164)">
        <path id="Trazado_106014" data-name="Trazado 106014" d="M673.517,1395.594a.281.281,0,0,1-.151-.044l-3.887-2.466a.283.283,0,1,1,.3-.477l3.887,2.466a.283.283,0,0,1-.152.521Z" transform="translate(-669.348 -1392.562)"/>
      </g>
      <g id="Grupo_71264" data-name="Grupo 71264" transform="translate(250.91 158.882)">
        <path id="Trazado_106015" data-name="Trazado 106015" d="M1641.877,1146.508a.282.282,0,0,1-.28-.327,32.63,32.63,0,0,0-.989-13.065c-1.977-6.419-8.781-7.879-8.849-7.893a.283.283,0,0,1,.113-.554c.072.015,7.2,1.545,9.276,8.28a33.246,33.246,0,0,1,1.008,13.321A.283.283,0,0,1,1641.877,1146.508Z" transform="translate(-1631.534 -1124.664)"/>
      </g>
      <g id="Grupo_71269" data-name="Grupo 71269" transform="translate(256.285 180.441)">
        <g id="Grupo_71266" data-name="Grupo 71266">
          <g id="Grupo_71265" data-name="Grupo 71265">
            <path id="Trazado_106016" data-name="Trazado 106016" d="M1662.649,1254.26a4.805,4.805,0,1,0,4.806-4.806A4.805,4.805,0,0,0,1662.649,1254.26Z" transform="translate(-1662.649 -1249.454)" fill="#fe9f73"/>
          </g>
        </g>
        <g id="Grupo_71268" data-name="Grupo 71268" transform="translate(3.228 2.395)">
          <g id="Grupo_71267" data-name="Grupo 71267">
            <path id="Trazado_106017" data-name="Trazado 106017" d="M1683.266,1268.692a2.023,2.023,0,0,0,1.9-1.515,1.9,1.9,0,0,0-.767-2.219,2.264,2.264,0,0,0-2.492.055,2.122,2.122,0,0,1,.939-1.115,2.983,2.983,0,0,1,2.115-.135.154.154,0,0,0,.1-.292,3.253,3.253,0,0,0-2.36.157,2.616,2.616,0,0,0-1.236,1.764l-.134.535.392-.389a2.07,2.07,0,0,1,2.516-.318,1.612,1.612,0,0,1,.634,1.871,1.7,1.7,0,0,1-1.633,1.293.154.154,0,0,0,0,.308Z" transform="translate(-1681.333 -1263.316)" fill="#f07162"/>
          </g>
        </g>
      </g>
      <g id="Grupo_71270" data-name="Grupo 71270" transform="translate(304.646 145.4)">
        <path id="Trazado_106018" data-name="Trazado 106018" d="M1947.795,1080.6a.283.283,0,0,1-.209-.472c.038-.042,3.811-4.359,4.794-15.662a17.217,17.217,0,0,0-4.441-12.9,22.216,22.216,0,0,0-5.213-4.413.283.283,0,0,1,.276-.494,22.344,22.344,0,0,1,5.351,4.52,17.772,17.772,0,0,1,4.591,13.337c-1,11.519-4.778,15.815-4.938,15.993A.282.282,0,0,1,1947.795,1080.6Z" transform="translate(-1942.58 -1046.624)"/>
      </g>
      <g id="Grupo_71271" data-name="Grupo 71271" transform="translate(146.288 99.41)">
        <path id="Trazado_106019" data-name="Trazado 106019" d="M1042.73,793.312a.282.282,0,0,1-.051,0,23.284,23.284,0,0,1-12.9-7.064,21.79,21.79,0,0,1-3.809-5.424.283.283,0,1,1,.516-.23,23.239,23.239,0,0,0,16.29,12.162.283.283,0,0,1-.05.561Z" transform="translate(-1025.95 -780.421)"/>
      </g>
      <g id="Grupo_71272" data-name="Grupo 71272" transform="translate(120.244 97.164)">
        <path id="Trazado_106020" data-name="Trazado 106020" d="M875.48,793.4a.286.286,0,0,1-.064-.007.283.283,0,0,1-.211-.339,49.939,49.939,0,0,1,14.667-25.567.283.283,0,1,1,.359.437,49.347,49.347,0,0,0-14.475,25.257A.283.283,0,0,1,875.48,793.4Z" transform="translate(-875.197 -767.419)"/>
      </g>
    </g>
    <g id="Grupo_71275" data-name="Grupo 71275" transform="translate(545.547 429.729)">
      <g id="Grupo_71274" data-name="Grupo 71274" transform="translate(0)">
        <path id="Trazado_106021" data-name="Trazado 106021" d="M2302.976,1510.344c-3.19,3.849-4.1,8.354-2.043,10.063s6.319-.025,9.509-3.874,4.1-8.354,2.043-10.063S2306.166,1506.5,2302.976,1510.344Z" transform="translate(-2299.83 -1505.812)" fill="#7fc6a6"/>
      </g>
    </g>
    <g id="Grupo_71277" data-name="Grupo 71277" transform="translate(545.996 450.87)">
      <g id="Grupo_71276" data-name="Grupo 71276" transform="translate(0)">
        <path id="Trazado_106022" data-name="Trazado 106022" d="M2304.293,1630.864c-1.888,2.278-2.43,4.945-1.209,5.957s3.741-.015,5.629-2.293,2.43-4.945,1.209-5.957S2306.182,1628.586,2304.293,1630.864Z" transform="translate(-2302.431 -1628.181)" fill="#7fc6a6"/>
      </g>
    </g>
  </g>
</svg>
