<svg xmlns="http://www.w3.org/2000/svg" width="820" height="131.765" viewBox="0 0 820 131.765">
  <g id="Grupo_57050" data-name="Grupo 57050" transform="translate(-285 -742.527)">
    <rect id="Rectángulo_6297" data-name="Rectángulo 6297" width="820" height="131.765" rx="63.197" transform="translate(285 742.527)" fill="#f98473"/>
    <g id="Grupo_56999" data-name="Grupo 56999" transform="translate(352.611 793.508)">
      <path id="Trazado_102209" data-name="Trazado 102209" d="M44.3-1184.252h0a1.766,1.766,0,0,0,.516,1.246l11.891,11.89-11.891,11.891a1.765,1.765,0,0,0-.516,1.246h0a1.761,1.761,0,0,0,3.007,1.245l14.382-14.382L47.305-1185.5A1.762,1.762,0,0,0,44.3-1184.252Z" transform="translate(-44.298 1186.017)" fill="#00357b"/>
    </g>
    <g id="Grupo_57013" data-name="Grupo 57013" transform="translate(1037.389 823.31) rotate(180)">
      <path id="Trazado_102209-2" data-name="Trazado 102209" d="M0,1.765H0A1.766,1.766,0,0,0,.516,3.011L12.407,14.9.516,26.792A1.765,1.765,0,0,0,0,28.038H0a1.761,1.761,0,0,0,3.007,1.245L17.389,14.9,3.007.519A1.762,1.762,0,0,0,0,1.765Z" fill="#00357b"/>
    </g>
  </g>
</svg>
