<svg xmlns="http://www.w3.org/2000/svg" width="400" height="313.017" viewBox="0 0 400 313.017">
  <g id="Grupo_71381" data-name="Grupo 71381" transform="translate(-117.958 -92.308)">
    <path id="Trazado_106086" data-name="Trazado 106086" d="M520.759,465.093c-.068,4.519-.8,9.04-.944,13.562-.218,6.746.867,13.4.492,20.144-.3,5.327-1.494,10.581-2.223,15.879-1.53,11.123-.982,22.338-.429,33.438,4.694-18.112,4.289-37.109,5.359-55.785.878-15.332,2.754-30.792,1.742-46.043-.2-2.964-.991-19.274-3.776-20.043-2.9-.8-3.049,11-2.962,12.7C518.472,447.766,520.893,456.167,520.759,465.093Z" transform="translate(-196.111 -164.06)" fill="#6d72a0"/>
    <path id="Trazado_106087" data-name="Trazado 106087" d="M615.714,447.225a83.7,83.7,0,0,1,.189,11.492c-.3,3.941-1.153,7.823-1.359,11.77-.316,6.041.893,12.1.444,18.129-.408,5.474-2.168,10.743-2.805,16.192-.433,3.708-.342,7.465-.7,11.181a91.964,91.964,0,0,1-2.136,11.6q-2.578,11.272-5.157,22.544c1.261-14.607,2.194-29.245,3.126-43.879l2.557-40.158c.239-3.75,1.776-37.227,3.26-37.069C616.091,429.345,615.573,444.97,615.714,447.225Z" transform="translate(-238.907 -165.446)" fill="#6d72a0"/>
    <path id="Trazado_106088" data-name="Trazado 106088" d="M580.961,656.622c-.229,2.36-.476,4.647-.744,6.83-2.368,19.263,6.931,17.257,7.846,8.792q.688-6.363,1.306-12.771a11.467,11.467,0,0,1-1.6,1.085C585.334,661.226,582.616,659.6,580.961,656.622Z" transform="translate(-226.94 -277.274)" fill="#ff9985"/>
    <path id="Trazado_106089" data-name="Trazado 106089" d="M528.172,658.345c-.418,2.376-.846,4.684-1.289,6.891-3.905,19.471,5.595,16.205,7.185,7.666q1.2-6.418,2.325-12.872a15.665,15.665,0,0,1-1.689,1.3C532.2,662.324,529.6,661.077,528.172,658.345Z" transform="translate(-200.464 -278.121)" fill="#ff9985"/>
    <path id="Trazado_106090" data-name="Trazado 106090" d="M589.347,551.415c6.864-52.2,8.65-105.733,7.844-122.662-27.911,0-22.716-.184-26.827.043.17,2.04,7.672,64.7,1.209,121.434-.282,2.478.619,4.669,2.992,4.674,3.361.008,7.9.015,10.954.02A3.927,3.927,0,0,0,589.347,551.415Z" transform="translate(-222.288 -165.277)" fill="#6d72a0"/>
    <path id="Trazado_106091" data-name="Trazado 106091" d="M520.6,553.921H531.53a5.1,5.1,0,0,0,4.985-4.476c6.353-56.757,13.854-107.253,13.836-121.6l-30.164-1.387c.868,7.35,2.51,58.822-3.94,122.614A4.324,4.324,0,0,0,520.6,553.921Z" transform="translate(-195.686 -164.186)" fill="#6d72a0"/>
    <g id="Grupo_71315" data-name="Grupo 71315" transform="translate(335.13 280.218)">
      <path id="Trazado_106092" data-name="Trazado 106092" d="M545.586,571.844a5.69,5.69,0,0,0,5.726-4.8c2.409-20.838,4.984-40.463,7.256-57.777,2.381-18.152,4.442-33.863,5.389-44.182l4.158-2.023a.728.728,0,0,0,.374-.944.7.7,0,0,0-.951-.3l-4.552,2.215a.763.763,0,0,0-.431.607c-.926,10.282-3.008,26.159-5.42,44.542-2.273,17.319-4.849,36.951-7.258,57.8a4.147,4.147,0,0,1-4.2,3.468.772.772,0,0,0-.768.7A.654.654,0,0,0,545.586,571.844Z" transform="translate(-544.912 -461.734)" fill="#545c87"/>
    </g>
    <g id="Grupo_71316" data-name="Grupo 71316" transform="translate(322.958 393.465)">
      <path id="Trazado_106093" data-name="Trazado 106093" d="M538.985,689.217l-13.494-4.758A1.384,1.384,0,0,0,523.8,685l-2.787,7.989c-.162.465.343.893,1.055.893h14.846C540.815,693.88,542.357,690.406,538.985,689.217Z" transform="translate(-520.983 -684.375)" fill="#000543"/>
    </g>
    <g id="Grupo_71317" data-name="Grupo 71317" transform="translate(350.852 393.464)">
      <path id="Trazado_106094" data-name="Trazado 106094" d="M593.62,689.217l-13.938-4.758c-.687-.234-1.521.037-1.659.539l-2.183,7.989c-.127.465.415.893,1.131.893H591.9C595.823,693.88,597.1,690.406,593.62,689.217Z" transform="translate(-575.821 -684.374)" fill="#000543"/>
    </g>
    <path id="Trazado_106095" data-name="Trazado 106095" d="M641.972,282.028A318.311,318.311,0,0,1,613.612,304a1.361,1.361,0,0,1-2.074-.739c-1.36-3.541-2.633-6.086-3.564-8.975l-14,2.176,9.833,20.758a4.393,4.393,0,0,0,7.055,2.038c16.394-10.842,23.543-21.841,34.308-33.808C642.21,284.413,643.79,284.41,641.972,282.028Z" transform="translate(-233.888 -93.219)" fill="#ff9985"/>
    <path id="Trazado_106096" data-name="Trazado 106096" d="M541.1,175.1c-1.4-1.809-4.473-1.249-6.883-1.418a17.926,17.926,0,0,1-2.427-.264c-.43-.147-1.474-.54-1.7-.638-2.535-1.1-2.77-.856-4.727-.475-.535.1-.913-.19-1.551-.017l-.043.007c-6.324,1.729-16.562,7.246-8.57,24.635-.1.594-.081,1.857-.478,2.245a15.744,15.744,0,0,1-2.565-.375,19.837,19.837,0,0,0-9.567.6,12.1,12.1,0,0,0-7.1,6.126c-.954,2.076-1.241,4.534-2.766,6.226-2.14,2.375-5.789,2.34-8.9,3.109a15.648,15.648,0,0,0-9.1,6.335c-3.878,5.708-3.512,13.686-.209,19.862s9.136,10.7,15.438,13.707c2.967,1.416,6.824,1.429,10.068,1.116,4.277-.413,7.225-2.12,10.5-4.877,3.517-2.965,7.119-6.141,8.835-10.431,2.115-5.286,1.005-11.337-.61-16.858a28.743,28.743,0,0,1-1.485-6.79,7.945,7.945,0,0,1,2.255-6.3c1.607-1.434,4.023-2.021,6.254-2.834a2.814,2.814,0,0,0,.923-.1,14.552,14.552,0,0,0,9.663-8.884,23.317,23.317,0,0,1,1.9-3.814c.8-1.353,2.462-4.274,2.483-6.793.014-1.672,1.578-4.207,1.89-5.862A10.153,10.153,0,0,0,541.1,175.1Z" transform="translate(-173.917 -39.147)" fill="#000543"/>
    <path id="Trazado_106097" data-name="Trazado 106097" d="M609.287,292.6c-2.14-6.52-5.645-18.432-10.468-23.618-.989-1.064-3.349-1.493-4.982-1.226-3.906.639-4.149,6.828-6.24,10.714l-.365.679.327.679,9.695,20.141a2.054,2.054,0,0,0,2.9.749c2.385-1.435,4.336-2.679,8.137-5.361A2.447,2.447,0,0,0,609.287,292.6Z" transform="translate(-230.576 -86.166)" fill="#ff685a"/>
    <g id="Grupo_71318" data-name="Grupo 71318" transform="translate(320.623 174.216)">
      <path id="Trazado_106098" data-name="Trazado 106098" d="M572.346,340.065a37.362,37.362,0,0,0-.9-8.522c-3.45-30.708-7.694-22.323-4.11-58.678a.654.654,0,0,1-.119-.576,12.334,12.334,0,0,0-2.79-10.187c-10.182-10.956-21.413-9.541-28.487-6.878a26.534,26.534,0,0,0-7.119,3.741c-3.637,2.144-10.613,6.961-11.475,8.618-1.194,2.294,2.952,13.8,5.748,19.583,1.885,5.634,4.251,11.1,4.9,17.056,1.28,11.853-6.439,19.392-10.9,32.555-1.22,3.6-.662,7.617.307,11.292.412,1.584-1.809,3.209,1.092,5.171,3.926,2.654,10.221,7.249,20.1,4.323,7.315-2.167,19.368-2.815,28.878-5.835,5.379-1.709,4.86-2.963,4.865-11.662Z" transform="translate(-516.391 -253.337)" fill="#ff685a"/>
    </g>
    <g id="Grupo_71321" data-name="Grupo 71321" transform="translate(341.076 174.216)">
      <g id="Grupo_71320" data-name="Grupo 71320" transform="translate(0 0)">
        <g id="Grupo_71319" data-name="Grupo 71319">
          <path id="Trazado_106099" data-name="Trazado 106099" d="M563.371,267.934q-2.909-3.623-5.936-7.147a3.439,3.439,0,0,1,.549-5A10.43,10.43,0,0,1,565.5,253.4c3,.386,8.014,2.726,6.451,5.956a84.932,84.932,0,0,1-4.394,8.238A2.534,2.534,0,0,1,563.371,267.934Z" transform="translate(-556.603 -253.337)" fill="#ff9985"/>
        </g>
      </g>
    </g>
    <ellipse id="Elipse_5351" data-name="Elipse 5351" cx="14.412" cy="16.411" rx="14.412" ry="16.411" transform="translate(329.628 150.195) rotate(-56.245)" fill="#000543"/>
    <g id="Grupo_71322" data-name="Grupo 71322" transform="translate(338.645 135.171)">
      <path id="Trazado_106100" data-name="Trazado 106100" d="M556.174,199.11A10.889,10.889,0,0,0,559,196.4c1.369-1.908,2.1-4.219,3.421-6.16a16.654,16.654,0,0,1,12.971-6.777c.694-.035,1.741-.046,1.972-.87a1.969,1.969,0,0,0-.134-1.017c-.253-.779-.737-1.692-.9-2.163a1.125,1.125,0,0,0-.282-.5,1.1,1.1,0,0,0-.479-.195l-4.419-1.02a39.883,39.883,0,0,0-6.132-1.083,7.638,7.638,0,0,0-4.978,1.014c-2.289,1.613-2.7,4.8-3.968,7.314a12.952,12.952,0,0,1-1.009,1.648l-.911-.844a15.519,15.519,0,0,0-.461,2.587c-.619.726-1.258,1.438-1.866,2.168l2.637,6.507c.324,1.4.741,2.9,1.275,4.505a12.5,12.5,0,0,0,2.333,4.319c.01.01.007.053.016.043.026-.027.139-5.542.139-5.542A2.886,2.886,0,0,1,556.174,199.11Z" transform="translate(-551.823 -176.576)" fill="#000543"/>
      <path id="Trazado_106101" data-name="Trazado 106101" d="M581.433,186.409a1.968,1.968,0,0,1,.134,1.017c-.23.824-1.277.835-1.971.87a16.654,16.654,0,0,0-12.971,6.777c-1.323,1.941-2.052,4.251-3.421,6.16a10.889,10.889,0,0,1-2.827,2.709,2.886,2.886,0,0,0,2.049,1.221l-.113,5.514L562,226.1a1.864,1.864,0,0,0,1.539,2.076l6.323.13a1.864,1.864,0,0,0,1.623-2.011l.267-13.022a10.769,10.769,0,0,0,1.395.129,10.911,10.911,0,0,0,11.119-10.635l.179-8.741A10.7,10.7,0,0,0,581.433,186.409ZM573.707,197.4c-.01.673-.373,1.213-.81,1.206s-.783-.557-.773-1.23.373-1.213.81-1.206l1.347.021-.66.64A1.732,1.732,0,0,1,573.707,197.4Zm.45-3.09-2.65-.042a.7.7,0,1,1,.022-1.407l2.65.042a.7.7,0,1,1-.022,1.407Zm5.151,9.043-1.19.366c-.685.211-1.314-.5-1.154-1.3l.026-.133a.856.856,0,0,0,.99.451l1.189-.366a1.355,1.355,0,0,0,.876-1.159l.083.237A1.479,1.479,0,0,1,579.308,203.35Zm3.916-5.8c-.011.672-.374,1.212-.811,1.206s-.783-.558-.773-1.23.373-1.212.811-1.205l1.346.021-.66.64A1.737,1.737,0,0,1,583.224,197.545Zm.627-3.087-2.057-.032a.727.727,0,0,1,.022-1.408l2.058.032a.727.727,0,0,1-.022,1.408Z" transform="translate(-556.025 -181.407)" fill="#ff9985"/>
      <path id="Trazado_106102" data-name="Trazado 106102" d="M584.955,199.843a.705.705,0,0,0-.693-.715l-2.65-.042a.7.7,0,1,0-.022,1.407l2.65.042A.706.706,0,0,0,584.955,199.843Z" transform="translate(-566.109 -187.636)" fill="#000543"/>
      <path id="Trazado_106103" data-name="Trazado 106103" d="M604.043,199.435l-2.058-.032a.727.727,0,0,0-.022,1.408l2.057.032a.727.727,0,0,0,.022-1.408Z" transform="translate(-576.196 -187.792)" fill="#000543"/>
      <path id="Trazado_106104" data-name="Trazado 106104" d="M596.046,215.5a1.355,1.355,0,0,1-.876,1.159l-1.189.366a.856.856,0,0,1-.99-.451l-.026.133c-.16.8.469,1.515,1.154,1.3l1.19-.366a1.479,1.479,0,0,0,.821-1.908Z" transform="translate(-572.025 -195.699)" fill="#fa694f"/>
      <path id="Trazado_106105" data-name="Trazado 106105" d="M584.283,205.592c-.437-.007-.8.533-.81,1.206s.335,1.223.773,1.23.8-.533.81-1.206a1.731,1.731,0,0,0-.086-.569l.66-.64Z" transform="translate(-567.374 -190.833)" fill="#000543"/>
      <path id="Trazado_106106" data-name="Trazado 106106" d="M602.992,205.884c-.438-.007-.8.533-.811,1.206s.336,1.224.773,1.23.8-.533.811-1.206a1.734,1.734,0,0,0-.087-.569l.66-.64Z" transform="translate(-576.566 -190.976)" fill="#000543"/>
    </g>
    <g id="Grupo_71324" data-name="Grupo 71324" transform="translate(271.798 209.127)">
      <g id="Grupo_71323" data-name="Grupo 71323">
        <path id="Trazado_106107" data-name="Trazado 106107" d="M441.621,391.339a7.686,7.686,0,0,1-.911.19,3.07,3.07,0,0,1-2.955-1.847,8.737,8.737,0,0,1-.6-4.3,14,14,0,0,1,1.233-5.273l.107-.217,0-.252a91.137,91.137,0,0,0-10.817-42.68A80.119,80.119,0,0,0,420.4,325.3l14.608-3.334c7.286,16.191,10.638,35.16,9.967,56.4l-.009.271.118.247c.057.12.113.239.159.362a10.711,10.711,0,0,1,.382,4.286,53.245,53.245,0,0,1-.645,5.547c-.227.246-.467.477-.706.709-.169.164-.338.328-.5.5l-.19.158-.129.09c-.085.06-.17.121-.26.172A6.8,6.8,0,0,1,441.621,391.339Z" transform="translate(-420.403 -321.971)" fill="#ff9985"/>
      </g>
    </g>
    <g id="Grupo_71326" data-name="Grupo 71326" transform="translate(191.757 211.915)">
      <g id="Grupo_71325" data-name="Grupo 71325" transform="translate(0)">
        <path id="Trazado_106108" data-name="Trazado 106108" d="M268.772,397.134a7.845,7.845,0,0,0,.924.107,3.072,3.072,0,0,0,2.775-2.109,8.734,8.734,0,0,0,.2-4.338,13.986,13.986,0,0,0-1.708-5.139l-.126-.207-.02-.251a91.137,91.137,0,0,1,6.89-43.487,80.143,80.143,0,0,1,6.188-12.267l-14.85-1.991c-5.783,16.786-7.4,35.982-4.8,57.071l.034.269-.1.256c-.046.125-.091.249-.125.375a10.712,10.712,0,0,0,.009,4.3,53.542,53.542,0,0,0,1.148,5.465c.249.224.509.432.768.641.183.147.367.3.547.449l.2.14.137.077c.091.052.181.1.275.148A6.8,6.8,0,0,0,268.772,397.134Z" transform="translate(-263.044 -327.453)" fill="#ff9985"/>
      </g>
    </g>
    <path id="Trazado_106109" data-name="Trazado 106109" d="M405.4,458.382a76.748,76.748,0,0,1,.191,11.079c-.3,3.8-1.168,7.542-1.378,11.348-.32,5.824.906,11.662.45,17.478-.414,5.277-2.2,10.358-2.846,15.611-.439,3.575-.347,7.2-.713,10.78a84.64,84.64,0,0,1-2.166,11.184L393.706,557.6c1.28-14.083,2.225-28.195,3.171-42.3q1.3-19.358,2.595-38.716c.242-3.615,1.8-35.892,3.307-35.738C405.782,441.144,405.256,456.208,405.4,458.382Z" transform="translate(-135.488 -171.249)" fill="#000543"/>
    <path id="Trazado_106110" data-name="Trazado 106110" d="M370.145,660.265c-.233,2.275-.483,4.48-.755,6.585-2.4,18.572,7.031,16.637,7.958,8.476q.7-6.134,1.325-12.313a11.688,11.688,0,0,1-1.618,1.046C374.581,664.7,371.824,663.135,370.145,660.265Z" transform="translate(-123.348 -279.064)" fill="#ff9985"/>
    <path id="Trazado_106111" data-name="Trazado 106111" d="M313.262,661.926c-.259,2.291-.535,4.516-.832,6.643-2.617,18.772,6.795,15.624,7.817,7.391q.769-6.188,1.469-12.411a14.235,14.235,0,0,1-1.624,1.25C317.623,665.762,314.9,664.56,313.262,661.926Z" transform="translate(-95.328 -279.88)" fill="#ff9985"/>
    <path id="Trazado_106112" data-name="Trazado 106112" d="M378.652,558.774c6.963-50.322,9.729-102.061,8.912-118.383-28.314,0-24-.055-28.169.164.172,1.967,7.783,62.377,1.227,117.076-.286,2.389.628,4.5,3.035,4.507,3.41.007,8.011.014,11.113.019A3.912,3.912,0,0,0,378.652,558.774Z" transform="translate(-118.629 -171.027)" fill="#000543"/>
    <g id="Grupo_71328" data-name="Grupo 71328" transform="translate(212.016 268.331)">
      <path id="Trazado_106113" data-name="Trazado 106113" d="M307.969,561.249H319.06a4.846,4.846,0,0,0,4.893-4.315c4.361-54.72,10.116-103.4,9.571-117.232l-30.65-1.336c1.151,7.086,4.706,56.711.506,118.214A4.448,4.448,0,0,0,307.969,561.249Z" transform="translate(-302.874 -438.365)" fill="#000543"/>
      <g id="Grupo_71327" data-name="Grupo 71327" transform="translate(15.461 8.557)">
        <path id="Trazado_106114" data-name="Trazado 106114" d="M333.976,570.086a5.593,5.593,0,0,0,5.645-5.014c1.734-21.745,3.679-42.223,5.393-60.29,1.8-18.942,3.353-35.335,3.961-46.1l4.15-2.111a.748.748,0,0,0,.347-.985.718.718,0,0,0-.975-.314l-4.542,2.312a.762.762,0,0,0-.417.634c-.589,10.73-2.161,27.3-3.981,46.479-1.717,18.072-3.661,38.557-5.394,60.313a4.074,4.074,0,0,1-4.139,3.619.761.761,0,0,0-.755.731A.7.7,0,0,0,333.976,570.086Z" transform="translate(-333.269 -455.187)" fill="#000523"/>
      </g>
    </g>
    <g id="Grupo_71329" data-name="Grupo 71329" transform="translate(214.636 394.81)">
      <path id="Trazado_106115" data-name="Trazado 106115" d="M323.88,691.689,311.463,687.1c-.611-.226-1.355.036-1.477.519l-1.945,7.7c-.113.449.37.861,1.008.861h13.3C325.841,696.185,326.983,692.835,323.88,691.689Z" transform="translate(-308.025 -687.02)" fill="#d7e1fc"/>
    </g>
    <g id="Grupo_71330" data-name="Grupo 71330" transform="translate(243.582 394.81)">
      <path id="Trazado_106116" data-name="Trazado 106116" d="M382.986,691.689,368.847,687.1c-.7-.226-1.543.036-1.683.52l-2.215,7.7c-.129.449.421.861,1.148.861h15.144C385.221,696.185,386.52,692.836,382.986,691.689Z" transform="translate(-364.931 -687.021)" fill="#d7e1fc"/>
    </g>
    <g id="Grupo_71331" data-name="Grupo 71331" transform="translate(252.11 181.791)">
      <path id="Trazado_106117" data-name="Trazado 106117" d="M413.5,285.884c-4.767-9.015-8.76-14.442-12.71-15.909-4.1-1.522-27.988-4.189-15.526,3.189a8.5,8.5,0,0,1,.308,2.172c.094,7.078,4.446,12.668,9.18,17.843,1.546,2.266,5.272,7.746,7.7,11.011a3.1,3.1,0,0,0,3.682,1l11.172-4.655a2.93,2.93,0,0,0,1.894-4.136A113.465,113.465,0,0,0,413.5,285.884Z" transform="translate(-381.697 -268.229)" fill="#91b4de"/>
    </g>
    <g id="Grupo_71333" data-name="Grupo 71333" transform="translate(293.532 208.948)">
      <g id="Grupo_71332" data-name="Grupo 71332" transform="translate(0)">
        <path id="Trazado_106118" data-name="Trazado 106118" d="M479.5,321.62c-9.313,15.116-14.276,34.559-16.349,55.707l-.017.174h6.57c2.242-14.475,6.693-28.451,14.812-39.579,2.508-3.672,4.561-7.08,7.838-10.45Z" transform="translate(-463.131 -321.62)" fill="#ff9985"/>
      </g>
    </g>
    <g id="Grupo_71334" data-name="Grupo 71334" transform="translate(305.99 186.696)">
      <path id="Trazado_106119" data-name="Trazado 106119" d="M505.2,277.872c-2.967,2.364-6.264,6.3-10.079,11.687a113.556,113.556,0,0,0-7.006,9.7,2.93,2.93,0,0,0,1.344,4.346l10.478,6.058a3.1,3.1,0,0,0,3.78-.521c2.825-2.925,7.228-7.879,9.053-9.926,1.479-1.246,2.929-2.531,4.281-3.881Z" transform="translate(-487.623 -277.872)" fill="#ff685a"/>
    </g>
    <g id="Grupo_71336" data-name="Grupo 71336" transform="translate(203.491 172.299)">
      <g id="Grupo_71335" data-name="Grupo 71335">
        <path id="Trazado_106120" data-name="Trazado 106120" d="M357.173,286.724c1.373-3.549,5.789-14.72,4.267-18.221-5.5-12.655-16.8-16.608-27.713-18.542-6.111-1.082-19.594.321-22.291,1.316-6.555,2.418-21.547,7.55-25.241,13.159-.836,1.269,5.1,9.757,3.835,10.421,1.245,23.657,7.281,35.7,3.645,68.415-.419,3.765,2.657,7.657,6.377,6.944,19.439-3.724,26.345,3.508,44.6-1.018,1.6-.4,7.58.292,9.734-2.5,1.123-1.456-1.914-5.224-1.077-12.162C355.049,305.877,344.094,320.54,357.173,286.724Z" transform="translate(-286.114 -249.569)" fill="#91b4de"/>
      </g>
    </g>
    <g id="Grupo_71339" data-name="Grupo 71339" transform="translate(233.574 172.388)">
      <g id="Grupo_71338" data-name="Grupo 71338" transform="translate(0 0)">
        <g id="Grupo_71337" data-name="Grupo 71337">
          <path id="Trazado_106121" data-name="Trazado 106121" d="M353.5,267.523q-3.543-4.412-7.231-8.706a4.189,4.189,0,0,1,.669-6.089c2.7-2.029,5.871-3.329,9.158-2.906,3.654.47,9.763,3.32,7.859,7.255a103.358,103.358,0,0,1-5.353,10.035A3.086,3.086,0,0,1,353.5,267.523Z" transform="translate(-345.257 -249.743)" fill="#ff9985"/>
        </g>
      </g>
    </g>
    <g id="Grupo_71340" data-name="Grupo 71340" transform="translate(194.617 184.302)">
      <path id="Trazado_106122" data-name="Trazado 106122" d="M294.021,286.418c3.346-12.039-14.566-19.071-17.94-6.931-1.449,5.212-4.873,15.839-7.195,22.759a4.193,4.193,0,0,0,2.859,5.375l9.94,2.759a4.757,4.757,0,0,0,5.8-3.158C290.1,298.939,292.223,292.888,294.021,286.418Z" transform="translate(-268.667 -273.167)" fill="#91b4de"/>
    </g>
    <g id="Grupo_71346" data-name="Grupo 71346" transform="translate(230.76 122.392)">
      <path id="Trazado_106123" data-name="Trazado 106123" d="M373.164,166.678c-.319-.373-.753-.629-1.041-1.028-.642-.891-.335-2.083-.418-3.161s-1.26-2.348-1.986-1.657c.385-1.568.7-3.458-.38-4.753-2.03-2.436-6.191.173-8.448-2.032-.674-.659-1.029-1.648-1.784-2.2a2.6,2.6,0,0,0-3.3.5,8.17,8.17,0,0,0-1.352,2.041,1.935,1.935,0,0,1-.271.138,3.151,3.151,0,0,1-2.163-.082c-1.753-.413-3.377.974-4.354,2.818-.411.776-1.729-.334-2.2.4-1.076,1.667-3.311,2.444-3.755,4.446-.241,1.085.123,2.324-.251,3.357-.4,1.1-1.561,1.763-1.713,2.945-.24,1.876,1.434,3.613,1.513,5.455.037.867.819,1.683.84,2.007a4.244,4.244,0,0,0,.7,2,45.766,45.766,0,0,0,1.495,6.9,12.619,12.619,0,0,0,2.2,4.445c.009.011,1.4,1.544,1.4,1.531a17.1,17.1,0,0,1,.041-3.366,10.433,10.433,0,0,1-.846-3.681c-.02,0-.039.005-.059,0-1.717-.1-3.014-1.852-2.9-3.92a3.509,3.509,0,0,1,3.144-3.559l2.28.617c7.353-.871,5.542-8.657,12.223-9.563,4.342-.589,6.934.295,8.224.987a12.113,12.113,0,0,1,1.214,5.648l.067.024c0-.1.874-.819.819-1.55l.081.074C373.448,171.5,374.477,168.207,373.164,166.678Z" transform="translate(-339.724 -151.454)" fill="#000543"/>
      <path id="Trazado_106124" data-name="Trazado 106124" d="M366.041,182.385c-6.681.906-4.87,8.692-12.223,9.563l-2.28-.617a3.509,3.509,0,0,0-3.144,3.559c-.117,2.068,1.181,3.823,2.9,3.92.02,0,.039,0,.059,0a10.435,10.435,0,0,0,.846,3.681,13.346,13.346,0,0,0,11.355,7.727c6.485.365,11-4.392,11.377-11.074l.551-9.78c.007-.115,0-.226,0-.34a12.113,12.113,0,0,0-1.214-5.648C372.976,182.679,370.383,181.8,366.041,182.385Z" transform="translate(-343.98 -166.557)" fill="#ff9985"/>
      <g id="Grupo_71341" data-name="Grupo 71341" transform="translate(6.572 26.854)">
        <path id="Trazado_106125" data-name="Trazado 106125" d="M354.6,232.468l8.565-.215c1.156.041,2.043,2.169,2.084.98l.906-26.454a2.14,2.14,0,0,0-2.025-2.235l-8.4-.295a2.14,2.14,0,0,0-2.177,2.088l-.905,26.436C352.6,233.963,353.446,232.427,354.6,232.468Z" transform="translate(-352.644 -204.249)" fill="#ff9985"/>
      </g>
      <g id="Grupo_71342" data-name="Grupo 71342" transform="translate(17.691 21.145)">
        <path id="Trazado_106126" data-name="Trazado 106126" d="M377.926,193.164l-2.673-.138a.711.711,0,1,0-.073,1.421l2.674.137a.711.711,0,1,0,.073-1.42Z" transform="translate(-374.504 -193.025)" fill="#000543"/>
      </g>
      <g id="Grupo_71343" data-name="Grupo 71343" transform="translate(28.237 21.535)">
        <path id="Trazado_106127" data-name="Trazado 106127" d="M398.658,193.929l-2.674-.137a.711.711,0,1,0-.073,1.42l2.674.138a.711.711,0,0,0,.073-1.421Z" transform="translate(-395.236 -193.791)" fill="#000543"/>
      </g>
      <g id="Grupo_71344" data-name="Grupo 71344" transform="translate(28.068 24.063)">
        <path id="Trazado_106128" data-name="Trazado 106128" d="M396.546,200.065c-.036.7-.432,1.243-.885,1.219s-.791-.607-.755-1.3.432-1.243.885-1.219S396.582,199.368,396.546,200.065Z" transform="translate(-394.904 -198.761)" fill="#000543"/>
      </g>
      <g id="Grupo_71345" data-name="Grupo 71345" transform="translate(18.031 23.739)">
        <path id="Trazado_106129" data-name="Trazado 106129" d="M376.815,199.428c-.036.7-.432,1.243-.885,1.219s-.791-.607-.755-1.3.432-1.243.885-1.219S376.85,198.731,376.815,199.428Z" transform="translate(-375.172 -198.124)" fill="#000543"/>
      </g>
      <path id="Trazado_106130" data-name="Trazado 106130" d="M387.539,208.681l-.09-.243a1.41,1.41,0,0,1-1.069,1.131l-1.41.316a1.074,1.074,0,0,1-1.148-.5l-.036.133a1.108,1.108,0,0,0,1.313,1.368l1.41-.316A1.43,1.43,0,0,0,387.539,208.681Z" transform="translate(-361.355 -179.453)" fill="#fa694f"/>
    </g>
    <path id="Trazado_106131" data-name="Trazado 106131" d="M468.874,429.949a10.481,10.481,0,0,1,1,3.864.611.611,0,0,1-1.1.394c-.419-.584-1.309-2.206-2.036-2.086-.355.059-.375.559-.3.912q.523,2.458,1.178,4.886a1.775,1.775,0,0,1-.608,2.218c-1.268,1.262-2.179,1.848-4.22.757a11.573,11.573,0,0,1-4.672-4.627c-1.263-3.083.925-9.475,3.381-11.557,1.273-1.08,3.859-1.722,4.69.271C467.686,428.574,467.82,427.706,468.874,429.949Z" transform="translate(-166.953 -162.823)" fill="#ff9985"/>
    <path id="Trazado_106132" data-name="Trazado 106132" d="M868.125,664.656c.4,2.231.817,4.4,1.245,6.464,3.772,18.252-5.435,15.635-6.971,7.625q-1.154-6.022-2.244-12.08a13.942,13.942,0,0,0,1.636,1.143C864.216,668.628,866.739,667.317,868.125,664.656Z" transform="translate(-364.675 -281.221)" fill="#ff9985"/>
    <g id="Grupo_71347" data-name="Grupo 71347" transform="translate(488.607 396.329)">
      <path id="Trazado_106133" data-name="Trazado 106133" d="M848.628,694.5l13.618-4.417c.67-.218,1.486.034,1.62.5L866,698c.124.432-.405.829-1.105.829H850.308C846.476,698.833,845.224,695.606,848.628,694.5Z" transform="translate(-846.645 -690.006)" fill="#6d72a0"/>
    </g>
    <path id="Trazado_106134" data-name="Trazado 106134" d="M806.416,663.877c.582,2.226,1.17,4.385,1.763,6.444,5.234,18.174-4.154,16.281-6.332,8.295q-1.637-6-3.213-12.05a13.941,13.941,0,0,0,1.723,1.024C802.842,668.221,805.25,666.686,806.416,663.877Z" transform="translate(-334.448 -280.839)" fill="#ff9985"/>
    <g id="Grupo_71348" data-name="Grupo 71348" transform="translate(457.92 396.357)">
      <path id="Trazado_106135" data-name="Trazado 106135" d="M788.3,694.629l13.618-4.488c.671-.221,1.486.034,1.621.508l2.133,7.538c.124.438-.405.842-1.1.842H789.978C786.146,699.029,784.894,695.751,788.3,694.629Z" transform="translate(-786.315 -690.06)" fill="#6d72a0"/>
    </g>
    <path id="Trazado_106136" data-name="Trazado 106136" d="M765.715,468.411c.316,7.973,1.452,15.918,1.184,23.893-.217,6.47-1.352,13.023-.112,19.357.844,4.312,2.752,8.295,3.851,12.539,1.6,6.161,1.444,12.668,2.049,19.032s2.163,13.006,6.384,17.494q-2.677-26.68-5.354-53.36c-.785-7.825-1.568-15.762-.417-23.533.79-5.327,2.482-10.52,2.613-15.913A27.252,27.252,0,0,0,770.4,450.8a3.78,3.78,0,0,1-1.141-2.641A5.278,5.278,0,0,1,770.554,446c2.617-3.7-2.982-12.38-3.977-1.586A182.909,182.909,0,0,0,765.715,468.411Z" transform="translate(-318.222 -170.44)" fill="#b2c3eb"/>
    <path id="Trazado_106137" data-name="Trazado 106137" d="M830.168,439.213a5.62,5.62,0,0,1,4.646-2.442H856.03l1.37.038,1.053,1.264-.054,5.292c-3.754,26.579-4.463,75.188,1.079,109.214A6.4,6.4,0,0,1,852.985,560c-1.731-.043-3.989-.1-6.973-.188a6.527,6.527,0,0,1-6.265-5.473c-2.323-14.5-4.359-29.267-6.153-46-3.173-29.6-4.365-55.4-4.4-65.732A5.85,5.85,0,0,1,830.168,439.213Z" transform="translate(-349.463 -169.251)" fill="#b2c3eb"/>
    <path id="Trazado_106138" data-name="Trazado 106138" d="M800.35,432.541l-.461,3.213c-3.629,25.281-5.231,48.038-4.763,67.64.691,28.941,2.981,40.66,4.532,49.577.612,3.518-1.76,6.226-3.773,6.206l-12.714-.139a2.838,2.838,0,0,1-2.757-2.395c-2.6-15.839-4.894-31.65-7.135-52.884-2.388-22.628-2.446-42.971-2.492-59.318-.009-3.225-.018-6.255-.045-9.066l-.027-2.836Z" transform="translate(-320.73 -167.173)" fill="#b2c3eb"/>
    <path id="Trazado_106139" data-name="Trazado 106139" d="M825.535,474.3c.5,7.367,1.666,14.688,1.693,22.074.022,5.992,2.222,10.747,3.421,16.573.816,3.967-.433,8.939.589,12.836,1.483,5.657,1.935,14.576,2.621,20.448s1.769,9.755,5.327,13.794c-1.992-16.408-3.977-33.492-5.969-49.9-.877-7.218-1.755-14.54-1.06-21.761.476-4.95,1.688-9.8,1.629-14.793a27.7,27.7,0,0,0-4.993-15.688,3.754,3.754,0,0,1-1.006-2.413c.068-.8,2.214-4.027,2.589-4.679,2.007-3.491-5.2-15.6-5.672-5.59C824.354,452.575,825.033,466.91,825.535,474.3Z" transform="translate(-347.21 -171.483)" fill="#b2c3eb"/>
    <path id="Trazado_106140" data-name="Trazado 106140" d="M832.188,257.635c-3.419-5.085-13.908-5.979-22.243-7.033-9.52-1.2-10.016-.93-21.45.951-11.837,1.947-26.085,6.813-23.667,16.69,11.146,45.539-2.787,52.09-.313,76.543.173,1.711-.893,3.58.375,4.742s3.149,1.264,4.868,1.3c8.651.2,23.3-3.721,33.341,1.06,6.664,3.171,9.778,4.515,16.511,2.926,3.762-.888,6.144-5.161,6.871-8.476,6.291-28.673-2.463-36.448,6.287-69.666C834.152,271.421,835.22,262.143,832.188,257.635Z" transform="translate(-317.535 -77.42)" fill="#000543"/>
    <g id="Grupo_71349" data-name="Grupo 71349" transform="translate(476.635 173.048)">
      <path id="Trazado_106141" data-name="Trazado 106141" d="M837.085,255.662c0,2.552-3.129,4.621-6.988,4.621s-6.988-2.069-6.988-4.621,3.129-4.621,6.988-4.621S837.085,253.11,837.085,255.662Z" transform="translate(-823.108 -251.041)" fill="#ff9985"/>
    </g>
    <g id="Grupo_71353" data-name="Grupo 71353" transform="translate(441.956 180.593)">
      <g id="Grupo_71350" data-name="Grupo 71350" transform="translate(0.896 28.835)">
        <path id="Trazado_106142" data-name="Trazado 106142" d="M810.286,337.577c-1.382-2.167-9.739-2.291-38.727-6.173a1.653,1.653,0,0,1-1.407-1.925c.388-2.183.762-4.247,1.272-6.914-4.311,1.3-10.825,1.243-14.662,1-.208,5.313.141,9.572-.053,13.537a4.45,4.45,0,0,0,3.717,4.6c5.387.892,17.083.525,20.012.249C802.619,339.857,804.692,341.083,810.286,337.577Z" transform="translate(-756.693 -322.565)" fill="#ff9985"/>
      </g>
      <g id="Grupo_71352" data-name="Grupo 71352" transform="translate(0 0)">
        <g id="Grupo_71351" data-name="Grupo 71351">
          <path id="Trazado_106143" data-name="Trazado 106143" d="M778.6,274.524c-.837,5.188-1.919,10.247-3.162,16.311-.308,1.5-1.427,5.1-2.877,5.6-5.428,1.874-10.781.159-15.788-.334a2.062,2.062,0,0,1-1.8-2.469c1.2-5.836,2.451-11.688,3.385-17.478C760.395,263.534,780.624,262.005,778.6,274.524Z" transform="translate(-754.93 -265.875)" fill="#000543"/>
        </g>
      </g>
    </g>
    <g id="Grupo_71354" data-name="Grupo 71354" transform="translate(466.155 125.133)">
      <path id="Trazado_106144" data-name="Trazado 106144" d="M832.449,180.467c.816-1.973,2.394-4.006,1.814-6.02-.2-.692-.643-1.283-.808-1.985a11.064,11.064,0,0,1-.114-1.775c-.252-3.641-3.527-4.966-5.8-6.941-2.071-1.8-2.98-4.885-5.612-5.9a1.2,1.2,0,0,0-.61-.313,1.489,1.489,0,0,0-.58.027,6.456,6.456,0,0,0-2.2.17,7.6,7.6,0,0,0-1.05-.772c-1.289-.564-2.535,1.1-3.939,1.127-.948.021-1.817-.715-2.757-.6-.985.126-1.612,1.12-1.994,2.05a4.983,4.983,0,0,1-1.562,2.512,15.962,15.962,0,0,1-1.681.673c-1.327.647-1.921,2.216-2.269,3.667a29.787,29.787,0,0,0-.763,5.542c-.032.678-.086,1.177.447,1.673a1.491,1.491,0,0,0,.686.36,11.788,11.788,0,0,1,2.8-5.909,39.044,39.044,0,0,0,16.163,8.69l-1.291,3.65c-1.313,3.712-1.71,4.489-5.533,5.207-4.549.854-11.591-.29-11.993-.357-.038-.007-.072,7.439-.072,7.439.26,2.188,2.358,4.629,4.522,4.834,1.281.122,3.522.429,5.66.467a9.632,9.632,0,0,0,4.42-.677A26.559,26.559,0,0,0,822.835,194a11.277,11.277,0,0,0,2.8-7.866l.289-6.21c1.6.159,2.769,1.846,2.623,3.81a3.9,3.9,0,0,1-1.4,2.788l-.153,4.924c.524-.3,1.206-.184,1.76-.434,1.4-.633,1.006-2.869,2.018-4.034.683-.786,1.907-.951,2.507-1.8.629-.894.305-2.136-.149-3.132A16.02,16.02,0,0,1,832.449,180.467Z" transform="translate(-802.505 -156.842)" fill="#000543"/>
      <path id="Trazado_106145" data-name="Trazado 106145" d="M839.232,206.026c.146-1.964-1.026-3.651-2.623-3.81l-.289,6.21a11.277,11.277,0,0,1-2.8,7.866,26.567,26.567,0,0,1-4.506,3.315,9.632,9.632,0,0,1-4.42.677l-.341,11.07,12.835,1.175.583-18.792.153-4.924A3.9,3.9,0,0,0,839.232,206.026Z" transform="translate(-813.192 -179.136)" fill="#ff9985"/>
      <path id="Trazado_106146" data-name="Trazado 106146" d="M816.8,196.443c3.823-.718,4.219-1.494,5.533-5.207l1.291-3.65a39.044,39.044,0,0,1-16.163-8.69,11.79,11.79,0,0,0-2.8,5.909c-.033.2-.056.4-.079.6.019,0,.036-.008.055-.007l2.533.2a.685.685,0,0,1-.107,1.365l-2.513-.2.269,8.758c-.014.191-.009.378-.014.567C805.206,196.152,812.248,197.3,816.8,196.443Zm-2.178-9.236,2.534.2a.684.684,0,0,1-.107,1.364l-.056,0a1.617,1.617,0,0,1,.162.878c-.053.669-.443,1.184-.872,1.15s-.734-.6-.682-1.274a1.6,1.6,0,0,1,.3-.841l-1.383-.111a.685.685,0,0,1,.107-1.365Zm-6.954,1.5c-.052.669-.443,1.184-.872,1.15s-.734-.6-.681-1.274.443-1.184.872-1.15S807.718,188.035,807.665,188.7Zm3.306,6.411-1.288-.478a1.383,1.383,0,0,1-.734-1.932l.114-.22a1.356,1.356,0,0,0,.865,1.213l1.288.478a1.012,1.012,0,0,0,1.143-.333l.017.132A1.057,1.057,0,0,1,810.971,195.115Z" transform="translate(-803.509 -167.678)" fill="#ff9985"/>
      <path id="Trazado_106147" data-name="Trazado 106147" d="M823.535,196.6l1.383.111a1.605,1.605,0,0,0-.3.841c-.053.669.252,1.24.682,1.274s.819-.48.872-1.15a1.616,1.616,0,0,0-.162-.878l.056,0a.684.684,0,0,0,.107-1.364l-2.534-.2a.685.685,0,0,0-.107,1.365Z" transform="translate(-812.532 -175.704)" fill="#000543"/>
      <path id="Trazado_106148" data-name="Trazado 106148" d="M807.168,192.608a.682.682,0,0,0-.619-.736l-2.533-.2c-.019,0-.036.007-.055.007a.68.68,0,0,0-.053,1.358l2.534.2A.681.681,0,0,0,807.168,192.608Z" transform="translate(-802.889 -173.955)" fill="#000543"/>
      <path id="Trazado_106149" data-name="Trazado 106149" d="M808.488,195.672c-.429-.034-.82.481-.872,1.15s.252,1.24.681,1.274.82-.481.872-1.15S808.916,195.707,808.488,195.672Z" transform="translate(-805.013 -175.921)" fill="#000543"/>
      <path id="Trazado_106150" data-name="Trazado 106150" d="M815.317,207.3l-1.288-.478a1.356,1.356,0,0,1-.865-1.213l-.115.22a1.383,1.383,0,0,0,.734,1.932l1.288.478a1.057,1.057,0,0,0,1.405-1.141l-.017-.132A1.012,1.012,0,0,1,815.317,207.3Z" transform="translate(-807.609 -180.804)" fill="#fa694f"/>
    </g>
    <g id="Grupo_71360" data-name="Grupo 71360" transform="translate(488.771 214.504)">
      <g id="Grupo_71355" data-name="Grupo 71355" transform="translate(2.992)">
        <path id="Trazado_106151" data-name="Trazado 106151" d="M857.247,332.7a1,1,0,0,1,.232,1.391l-2.84,4.21a.972.972,0,1,1-1.609-1.085l2.84-4.21A1,1,0,0,1,857.247,332.7Z" transform="translate(-852.849 -332.542)" fill="#ff9985"/>
      </g>
      <path id="Trazado_106152" data-name="Trazado 106152" d="M856.617,347.15a4.314,4.314,0,0,0,1.638-1.614,2.514,2.514,0,0,0,.1-1.44,11.665,11.665,0,0,0-1.114-3.488,3.412,3.412,0,0,0-2.963-2.132,5.79,5.79,0,0,0-3.988,1.6c-1.945,1.789-2.623,2.445-3.145,4.553-.654,2.639.43,4.471,4.134,3.863C853.186,348.18,855.1,348.146,856.617,347.15Z" transform="translate(-846.967 -335.457)" fill="#ff9985"/>
      <g id="Grupo_71356" data-name="Grupo 71356" transform="translate(6.467 1.832)">
        <path id="Trazado_106153" data-name="Trazado 106153" d="M860.714,339.015l7.233-1.079a.9.9,0,0,0-.266-1.782l-7.233,1.079a.9.9,0,1,0,.266,1.782Z" transform="translate(-859.68 -336.143)" fill="#ff9985"/>
      </g>
      <g id="Grupo_71357" data-name="Grupo 71357" transform="translate(7.547 4.137)">
        <path id="Trazado_106154" data-name="Trazado 106154" d="M862.838,343.547l7.234-1.079a.9.9,0,0,0-.266-1.782l-7.234,1.079a.9.9,0,0,0,.266,1.782Z" transform="translate(-861.805 -340.676)" fill="#ff9985"/>
      </g>
      <g id="Grupo_71358" data-name="Grupo 71358" transform="translate(6.942 6.968)">
        <path id="Trazado_106155" data-name="Trazado 106155" d="M861.648,349.113l7.233-1.079a.9.9,0,0,0-.266-1.782l-7.233,1.079a.9.9,0,1,0,.266,1.782Z" transform="translate(-860.614 -346.242)" fill="#ff9985"/>
      </g>
      <g id="Grupo_71359" data-name="Grupo 71359" transform="translate(5.442 9.316)">
        <path id="Trazado_106156" data-name="Trazado 106156" d="M858.7,353.729l7.233-1.079a.9.9,0,1,0-.266-1.782l-7.233,1.079a.9.9,0,0,0,.266,1.782Z" transform="translate(-857.666 -350.858)" fill="#ff9985"/>
      </g>
    </g>
    <g id="Grupo_71366" data-name="Grupo 71366" transform="translate(403.247 180.951)">
      <g id="Grupo_71361" data-name="Grupo 71361" transform="translate(0.488 2.716)">
        <path id="Trazado_106157" data-name="Trazado 106157" d="M680.836,271.919a1,1,0,0,1,.961,1.038l-.062,5.094a.974.974,0,1,1-1.946-.024l.062-5.093A1,1,0,0,1,680.836,271.919Z" transform="translate(-679.789 -271.919)" fill="#ff9985"/>
      </g>
      <path id="Trazado_106158" data-name="Trazado 106158" d="M688.614,282.251A4.335,4.335,0,0,0,689.1,280a2.521,2.521,0,0,0-.708-1.263,11.692,11.692,0,0,0-2.856-2.31,3.423,3.423,0,0,0-3.658-.155,5.808,5.808,0,0,0-2.461,3.538c-.644,2.571-.852,3.494-.128,5.548.906,2.573,2.824,3.511,5.593.961C686.3,285,687.889,283.923,688.614,282.251Z" transform="translate(-678.829 -271.11)" fill="#ff9985"/>
      <g id="Grupo_71362" data-name="Grupo 71362" transform="translate(2.627 0)">
        <path id="Trazado_106159" data-name="Trazado 106159" d="M685.5,273.045l5.468-4.889a.9.9,0,0,0-1.2-1.347l-5.469,4.889a.9.9,0,0,0,1.205,1.347Z" transform="translate(-683.993 -266.579)" fill="#ff9985"/>
      </g>
      <g id="Grupo_71363" data-name="Grupo 71363" transform="translate(4.803 1.337)">
        <path id="Trazado_106160" data-name="Trazado 106160" d="M689.776,275.674l5.468-4.889a.9.9,0,1,0-1.2-1.347l-5.469,4.889a.9.9,0,1,0,1.2,1.347Z" transform="translate(-688.271 -269.208)" fill="#ff9985"/>
      </g>
      <g id="Grupo_71364" data-name="Grupo 71364" transform="translate(5.855 4.044)">
        <path id="Trazado_106161" data-name="Trazado 106161" d="M691.844,280.995l5.469-4.889a.9.9,0,1,0-1.205-1.347l-5.468,4.889a.9.9,0,1,0,1.2,1.347Z" transform="translate(-690.339 -274.529)" fill="#ff9985"/>
      </g>
      <g id="Grupo_71365" data-name="Grupo 71365" transform="translate(5.891 6.838)">
        <path id="Trazado_106162" data-name="Trazado 106162" d="M691.916,286.488l5.468-4.889a.9.9,0,0,0-1.2-1.347l-5.469,4.89a.9.9,0,0,0,1.205,1.347Z" transform="translate(-690.411 -280.022)" fill="#ff9985"/>
      </g>
    </g>
    <g id="Grupo_71374" data-name="Grupo 71374" transform="translate(117.958 240.813)">
      <path id="Trazado_106163" data-name="Trazado 106163" d="M126.5,494.3s-4.285,10.4-4.285,34.224l4.076-.052s1.881-22.938,6.9-31.3Z" transform="translate(-120.051 -438.329)" fill="#ff9985"/>
      <path id="Trazado_106164" data-name="Trazado 106164" d="M148.742,684.515l-.621,6.108,4.134,1.019.806-6.044Z" transform="translate(-132.779 -531.792)" fill="#ff9985"/>
      <path id="Trazado_106165" data-name="Trazado 106165" d="M152.718,552.019c-3.224,1.509-6.723,2.835-8.971,2.779l.287,2.359a258.526,258.526,0,0,1,1.448,34.817A168.7,168.7,0,0,1,143,619.454a2.549,2.549,0,0,0,2.522,2.956h6.437a2.561,2.561,0,0,0,2.531-2.151c1.485-9.279,2.69-18.674,3.649-28.017,1.249-12.135,2.073-24.15,2.319-33.832l.015-1.467A5.417,5.417,0,0,0,152.718,552.019Z" transform="translate(-130.245 -466.432)" fill="#ffd176"/>
      <path id="Trazado_106166" data-name="Trazado 106166" d="M177.772,684.515l-.62,6.108,4.134,1.019.806-6.044Z" transform="translate(-147.043 -531.792)" fill="#ff9985"/>
      <g id="Grupo_71367" data-name="Grupo 71367" transform="translate(14.56 157.799)">
        <path id="Trazado_106167" data-name="Trazado 106167" d="M153.875,696.982l-5.711-2.444a.492.492,0,0,0-.68.277l-.895,4.1c-.052.239.17.459.463.459h6.117C154.778,699.378,155.3,697.593,153.875,696.982Z" transform="translate(-146.582 -694.495)" fill="#2c2655"/>
      </g>
      <path id="Trazado_106168" data-name="Trazado 106168" d="M181.748,552.019c-3.225,1.509-6.723,2.835-8.971,2.779l.287,2.359a258.446,258.446,0,0,1,1.448,34.817,168.783,168.783,0,0,1-2.484,27.48,2.548,2.548,0,0,0,2.522,2.956h6.437a2.561,2.561,0,0,0,2.531-2.151c1.485-9.279,2.69-18.674,3.649-28.017,1.249-12.135,2.073-24.15,2.319-33.832l.015-1.467A5.417,5.417,0,0,0,181.748,552.019Z" transform="translate(-144.509 -466.432)" fill="#ffd176"/>
      <g id="Grupo_71368" data-name="Grupo 71368" transform="translate(43.986 36.633)">
        <path id="Trazado_106169" data-name="Trazado 106169" d="M214.1,470.084c-3.552-2.565-3.925-2.9-5.117-3.789l-4.551,7.034c2.818,1.563,6.549,3.758,8.771,4.445,3.613,1.116,17.256-12.418,21.48-18.079,1.658-2.223,1.524-3.2,1.449-3.278-.4-.375-2.938-.085-6.252,2.79-4.272,3.708-8.909,6.289-14.65,10.846A.94.94,0,0,1,214.1,470.084Z" transform="translate(-204.433 -456.286)" fill="#ff9985"/>
      </g>
      <path id="Trazado_106170" data-name="Trazado 106170" d="M171.69,392.992a10.8,10.8,0,0,1-2.011-2.315c-.379-.787-.4-1.7-.719-2.509a1.917,1.917,0,0,0-2-1.378c-.415.1-.757.4-1.171.495-1.167.274-1.958-1.039-2.831-1.826a3.863,3.863,0,0,0-3.743-.75c-.912.31-1.835.972-2.742.66-.713-.247-1.171-1.056-1.929-1.1-1.113-.064-1.575,1.477-2.608,1.893a4.667,4.667,0,0,1-2.314-.143,3.909,3.909,0,0,0-3.74,1.756,7.078,7.078,0,0,1-1.2,1.945c-.77.641-2,.621-2.66,1.369-1.365,1.557.562,3.05,1.08,4.836.654,2.248-1.046,5.108.611,6.8.388.4.947.693,1.091,1.222s-.2,1.107-.116,1.658c.163,1.033,1.626,1.364,2.3,2.118.092.184.2.356.292.535a.746.746,0,0,1,.04.112c2.993,5.435,8.219,8.674,13.177,7.545,4.107-.935,7.045-4.648,8.082-9.425.053-.02.1-.022.157-.044a4.931,4.931,0,0,0,2.6-2.784c.984-2.25-.669-3.937-.121-5.927.211-.761,1.016-1.24,1.324-1.97A2.743,2.743,0,0,0,171.69,392.992Z" transform="translate(-129.544 -384.266)" fill="#2c2655"/>
      <path id="Trazado_106171" data-name="Trazado 106171" d="M258.875,451.9a6.346,6.346,0,0,1,1.832-1.586.371.371,0,0,1,.511.491c-.2.386-.847,1.307-.585,1.67.128.178.405.053.577-.082q1.2-.948,2.34-1.959a1.078,1.078,0,0,1,1.371-.268c1.029.349,1.593.687,1.55,2.091a7.024,7.024,0,0,1-1.256,3.788c-1.336,1.519-5.4,2.053-7.2,1.279-.931-.4-3.267-.23-2.407-1.22C257.159,454.322,257.939,453.08,258.875,451.9Z" transform="translate(-185.501 -416.583)" fill="#ff9985"/>
      <path id="Trazado_106172" data-name="Trazado 106172" d="M177.287,464.5c-3.132-2.377-5.909-4.319-8.614-6.254a4.764,4.764,0,0,0-.886-.495,20.619,20.619,0,0,0-3.461-.908c-11.417-2.038-16.58.418-16.58.418-6.11,1.959-10.989,4.913-9.99,7.25,6.244,14.591,3,30.775,2.753,39a15.245,15.245,0,0,0,.681,4.93l19.681,5.974c-.017-.07-.031-.136-.048-.206,3.994.01,8.451.317,11.43-2.853.548-.584.212-2.811.035-3.593-3.062-13.53.593-20.929-.319-31.83-.037-.4-.084-.805-.133-1.213a1.743,1.743,0,0,0,2.109-.832l3.832-7.175A1.752,1.752,0,0,0,177.287,464.5Z" transform="translate(-127.622 -419.53)" fill="#f9eddc"/>
      <path id="Trazado_106173" data-name="Trazado 106173" d="M173,457.306c-3.132-1.274-6.4-.89-7.309.858s.9,4.2,4.034,5.47,6.4.89,7.309-.858S176.137,458.58,173,457.306Z" transform="translate(-141.299 -419.785)" fill="#ff9985"/>
      <g id="Grupo_71370" data-name="Grupo 71370" transform="translate(18.247 3.926)">
        <g id="Grupo_71369" data-name="Grupo 71369">
          <path id="Trazado_106174" data-name="Trazado 106174" d="M160.427,414.833a2.879,2.879,0,0,1-3.258-2.4,2.908,2.908,0,0,1,1.635-3.578l1.957-.06c5.619-2.462,2.308-8.2,7.387-10.527,3.3-1.513,5.569-1.436,6.757-1.2a3.948,3.948,0,0,1,.973.3l-1.048-2.9c-9.986-7.193-18.725,3.505-18.725,3.505l1.173,7.783-3.447-1.832c-.025,3.088,1.2,7.127,4.664,12.418a10.807,10.807,0,0,0,2.495,2.748l.2-2.355A7.713,7.713,0,0,1,160.427,414.833Z" transform="translate(-153.832 -391.985)" fill="#2c2655"/>
          <path id="Trazado_106175" data-name="Trazado 106175" d="M181.4,414.2l-.963-7.9a10.045,10.045,0,0,0-2.406-4.455c-1.189-.237-3.457-.314-6.757,1.2-5.078,2.328-1.768,8.064-7.387,10.527l-1.957.06a3.17,3.17,0,0,0,1.606,5.989,8.4,8.4,0,0,0,.782,1.9l-.2,2.355-.615,7.217a2.113,2.113,0,0,0,2.56,2.245c2.038-.454,4.084-.891,5.79,0l.652-9.174c.124.034.237.059.364.1C177.867,425.665,182.707,419.589,181.4,414.2Zm-5.377.315.914-.518a1.025,1.025,0,0,0,.5-1.012l.114.15a1.039,1.039,0,0,1-.316,1.531l-.914.518a.8.8,0,0,1-1.2-.673l0-.1A.78.78,0,0,0,176.02,414.515Zm-4.939-5.193-1.888.47a.517.517,0,0,1-.249-1l1.887-.469a.517.517,0,1,1,.249,1Zm.494,2.525c.122.492-.038.955-.358,1.035s-.678-.255-.8-.747.038-.955.358-1.034S171.453,411.356,171.575,411.848Zm7.252-1.106c-.319.079-.678-.255-.8-.747s.038-.955.357-1.034.678.254.8.746S179.148,410.662,178.828,410.742Zm.987-3.68-1.888.469a.516.516,0,0,1-.249-1l1.888-.469a.517.517,0,0,1,.249,1Z" transform="translate(-156.954 -396.765)" fill="#ff9985"/>
          <path id="Trazado_106176" data-name="Trazado 106176" d="M178.914,414.687l-1.887.469a.517.517,0,0,0,.249,1l1.888-.469a.517.517,0,1,0-.249-1Z" transform="translate(-165.036 -403.132)" fill="#2c2655"/>
          <path id="Trazado_106177" data-name="Trazado 106177" d="M196.084,410.244l-1.888.469a.516.516,0,0,0,.249,1l1.888-.469a.517.517,0,0,0-.249-1Z" transform="translate(-173.472 -400.949)" fill="#2c2655"/>
          <path id="Trazado_106178" data-name="Trazado 106178" d="M195.581,415.952c-.319.079-.479.542-.357,1.034s.48.826.8.747.48-.543.358-1.035S195.9,415.872,195.581,415.952Z" transform="translate(-174.15 -403.755)" fill="#2c2655"/>
          <path id="Trazado_106179" data-name="Trazado 106179" d="M180.62,420.159c-.32.079-.48.543-.358,1.034s.48.826.8.747.48-.543.358-1.035S180.939,420.079,180.62,420.159Z" transform="translate(-166.798 -405.822)" fill="#2c2655"/>
          <path id="Trazado_106180" data-name="Trazado 106180" d="M190.745,426.073l.913-.518a1.039,1.039,0,0,0,.316-1.531l-.114-.15a1.025,1.025,0,0,1-.5,1.012l-.914.518a.78.78,0,0,1-.9-.1l0,.1A.8.8,0,0,0,190.745,426.073Z" transform="translate(-171.377 -407.654)" fill="#fa694f"/>
        </g>
        <path id="Trazado_106181" data-name="Trazado 106181" d="M181,419.815l1.012-.367-.512.956Z" transform="translate(-167.183 -405.479)" fill="#2c2655"/>
        <path id="Trazado_106182" data-name="Trazado 106182" d="M195.849,415.645l1.012-.367-.512.956Z" transform="translate(-174.477 -403.43)" fill="#2c2655"/>
      </g>
      <g id="Grupo_71372" data-name="Grupo 71372" transform="translate(3.115 41.2)">
        <path id="Trazado_106183" data-name="Trazado 106183" d="M129.457,469.948l1.437-2.142c4.767-6.8,14.19,1.46,9.4,8.291a63.381,63.381,0,0,0-5.848,10.372,1.667,1.667,0,0,1-2.169.868l-6.866-1.649a1.724,1.724,0,0,1-1.265-2.142C125.5,478.794,127.269,473.579,129.457,469.948Z" transform="translate(-124.083 -465.265)" fill="#f9eddc"/>
        <g id="Grupo_71371" data-name="Grupo 71371" transform="translate(7.986 10.513)">
          <path id="Trazado_106184" data-name="Trazado 106184" d="M139.784,497.451a.324.324,0,0,1,.023-.1.289.289,0,0,1,.38-.154,1.371,1.371,0,0,0,1.791-.721,63.69,63.69,0,0,1,5.875-10.419.291.291,0,0,1,.476.335,63.071,63.071,0,0,0-5.821,10.324,1.948,1.948,0,0,1-2.547,1.016A.291.291,0,0,1,139.784,497.451Z" transform="translate(-139.783 -485.934)" fill="#efcba0"/>
        </g>
      </g>
      <path id="Trazado_106185" data-name="Trazado 106185" d="M125.082,556.986a6.354,6.354,0,0,1,.23,2.412.371.371,0,0,1-.7.131c-.2-.39-.574-1.448-1.021-1.446-.219,0-.279.3-.268.518q.079,1.524.239,3.042a1.077,1.077,0,0,1-.577,1.272,1.791,1.791,0,0,1-2.6.05,7.025,7.025,0,0,1-2.358-3.221c-.463-1.969,1.46-5.592,3.131-6.605.867-.526,2.082-2.528,2.39-1.254C124.105,554.184,124.665,555.541,125.082,556.986Z" transform="translate(-117.958 -466.421)" fill="#ff9985"/>
      <g id="Grupo_71373" data-name="Grupo 71373" transform="translate(29.028 157.799)">
        <path id="Trazado_106186" data-name="Trazado 106186" d="M184.8,696.983l-7.655-2.444c-.377-.121-.836.018-.911.277l-1.2,4.1c-.07.239.228.458.621.458h8.2C186.011,699.379,186.715,697.594,184.8,696.983Z" transform="translate(-175.026 -694.496)" fill="#2c2655"/>
      </g>
    </g>
    <g id="Grupo_71375" data-name="Grupo 71375" transform="translate(498.621 178.373)">
      <path id="Trazado_106187" data-name="Trazado 106187" d="M867.305,286.688c-.416-6.419-.838-11.506-.97-16.8-.286-11.344,17.668-11.094,17.956.344.148,5.9.014,9.308.394,15.2.053.822.111,1.645.159,2.466.328,5.673,1.639,12.754.07,18.289a2.956,2.956,0,0,1-.316.716l-16.766-10.675C867.674,292.67,867.491,289.553,867.305,286.688Z" transform="translate(-866.331 -261.511)" fill="#000543"/>
    </g>
    <g id="Grupo_71376" data-name="Grupo 71376" transform="translate(495.844 187.924)">
      <path id="Trazado_106188" data-name="Trazado 106188" d="M877.175,307.34c-3.271-8.444-7.117-15.059-9.513-22.345a20.394,20.394,0,0,0-2.2-4.708H860.9a16.027,16.027,0,0,0,.061,2.512c.588,6.4,4.451,40.1,10.3,40.1,1.3,0,7.464-1.95,10.785-6.993C880.944,313.163,879.557,309.057,877.175,307.34Z" transform="translate(-860.872 -280.287)" fill="#ff9985"/>
    </g>
    <g id="Grupo_71380" data-name="Grupo 71380" transform="translate(493.617 175.45)">
      <g id="Grupo_71377" data-name="Grupo 71377" transform="translate(7.351 6.175)">
        <path id="Trazado_106189" data-name="Trazado 106189" d="M875.026,268.03a1,1,0,0,0-1.355.389l-2.578,4.375a.971.971,0,1,0,1.672.985l2.579-4.375A1,1,0,0,0,875.026,268.03Z" transform="translate(-870.945 -267.902)" fill="#ff9985"/>
      </g>
      <path id="Trazado_106190" data-name="Trazado 106190" d="M856.539,270.631a4.321,4.321,0,0,1,.752-2.173,2.508,2.508,0,0,1,1.257-.711,11.642,11.642,0,0,1,3.628-.495,3.411,3.411,0,0,1,3.2,1.758,5.791,5.791,0,0,1,.271,4.288c-.778,2.525-1.078,3.419-2.757,4.8-2.1,1.726-4.221,1.535-5.266-2.07C857.086,274.172,856.293,272.432,856.539,270.631Z" transform="translate(-856.493 -261.407)" fill="#ff9985"/>
      <g id="Grupo_71378" data-name="Grupo 71378" transform="translate(5.105)">
        <path id="Trazado_106191" data-name="Trazado 106191" d="M868.706,263.921l-2.137-6.993a.9.9,0,0,1,1.723-.527l2.137,6.994a.9.9,0,1,1-1.723.526Z" transform="translate(-866.53 -255.763)" fill="#ff9985"/>
      </g>
      <g id="Grupo_71379" data-name="Grupo 71379" transform="translate(2.559 0.016)">
        <path id="Trazado_106192" data-name="Trazado 106192" d="M863.7,263.953l-2.137-6.994a.9.9,0,0,1,1.723-.526l2.137,6.994a.9.9,0,1,1-1.723.526Z" transform="translate(-861.524 -255.795)" fill="#ff9985"/>
      </g>
    </g>
    <path id="Trazado_106193" data-name="Trazado 106193" d="M817.07,217.372c0,.583-.315,1.055-.7,1.055s-.7-.472-.7-1.055.315-1.054.7-1.054S817.07,216.79,817.07,217.372Z" transform="translate(-342.815 -60.932)" fill="#fff"/>
    <path id="Trazado_106194" data-name="Trazado 106194" d="M751.258,156.356c0-.033.128-.258.1-.274-7.913-4.258-18.767-3.12-18.821-12.838-.045-8.023,10.386-4.815,10.33-14.757-.052-9.412-17.3-3.724-17.367-15.095-.027-4.846,5.78-8.122,5.76-11.745-.043-7.7-21.444-9.365-26.093-9.339-10.795.06-19.582,3.567-19.521,14.45.114,20.562,29.085,12.334,29.149,23.731.026,4.77-4.5,9.009-4.469,14.95.049,8.885,27.416,8.987,32.7,9.431C745.763,155.1,744.9,154.6,751.258,156.356Z" transform="translate(-278.93)" fill="#c0cece"/>
    <path id="Trazado_106195" data-name="Trazado 106195" d="M875.461,258.956a.68.68,0,0,0-.842-.457l-7.793,2.308.391,1.3L875,259.8A.68.68,0,0,0,875.461,258.956Z" transform="translate(-367.953 -81.644)" fill="#fff"/>
    <rect id="Rectángulo_8942" data-name="Rectángulo 8942" width="2.556" height="0.647" rx="0.078" transform="translate(357.292 159.446)" fill="#fff"/>
    <rect id="Rectángulo_8943" data-name="Rectángulo 8943" width="2.652" height="0.672" rx="0.081" transform="translate(251.038 156.476)" fill="#fff"/>
    <rect id="Rectángulo_8944" data-name="Rectángulo 8944" width="2.652" height="0.672" rx="0.081" transform="translate(153.082 265.412)" fill="#fff"/>
  </g>
</svg>
