<svg xmlns="http://www.w3.org/2000/svg" xmlns:xlink="http://www.w3.org/1999/xlink" width="400" height="211.754" viewBox="0 0 400 211.754">
  <defs>
    <clipPath id="clip-path">
      <path id="SVGID" d="M378.654,742.788c0,20.274-3.711,47.738,17.883,54.15,27.218,8.081,43.54,37.1,73.805,37.1,50.639,0,91.688-40.852,91.688-91.246,0-20.857,1.541-42.3-18.864-55.447-23.27-14.993-43.144-35.8-72.825-35.8-33.264,0-63.867,6.251-79.938,32.631C382.009,697.952,378.654,725.5,378.654,742.788Z" transform="translate(-378.411 -651.542)" fill="none"/>
    </clipPath>
    <clipPath id="clip-path-2">
      <path id="SVGID-2" data-name="SVGID" d="M411.508,704.344c0,20.274-35.737,85.8-57.331,92.206-27.218,8.082-43.539,37.1-73.805,37.1-50.638,0-91.688-40.852-91.688-91.246,0-20.857-1.541-42.3,18.864-55.447,23.271-14.994,43.145-35.8,72.825-35.8,33.264,0,63.867,6.251,79.938,32.631C368.7,697.566,411.508,687.053,411.508,704.344Z" transform="translate(-188.657 -651.156)" fill="none"/>
    </clipPath>
    <clipPath id="clip-path-3">
      <ellipse id="Elipse_5375" data-name="Elipse 5375" cx="19.665" cy="19.665" rx="19.665" ry="19.665" transform="matrix(0.693, -0.721, 0.721, 0.693, 0, 28.363)" fill="none"/>
    </clipPath>
  </defs>
  <g id="Grupo_71871" data-name="Grupo 71871" transform="translate(0 0)">
    <path id="Trazado_106943" data-name="Trazado 106943" d="M379.184,732.716c0,20.274-3.711,47.738,17.883,54.15,27.218,8.081,43.54,37.1,73.805,37.1,50.639,0,91.688-40.852,91.688-91.246,0-20.856,1.541-42.3-18.864-55.446-23.27-14.994-43.144-35.8-72.825-35.8-33.262,0-63.866,6.251-79.938,32.631C382.539,687.881,379.184,715.425,379.184,732.716Z" transform="translate(-162.587 -623.628)" fill="#fe851b" opacity="0.49"/>
    <g id="Grupo_71779" data-name="Grupo 71779" transform="translate(215.753 29.262)">
      <g id="Grupo_71778" data-name="Grupo 71778" clip-path="url(#clip-path)">
        <g id="Grupo_71777" data-name="Grupo 71777" transform="translate(42.705 5.154)">
          <g id="Grupo_71757" data-name="Grupo 71757" transform="translate(4.874 83.82)">
            <g id="Grupo_71754" data-name="Grupo 71754" transform="translate(3.663)">
              <path id="Trazado_106944" data-name="Trazado 106944" d="M429.5,772.582c3.7.587,7.409-2.354,8.291-6.569,2.127-10.163,3.7-17.055,5.825-27.218.882-4.216-2.8-7.881-7.6-8.644s-8.565,1.72-9.032,6c-1.127,10.321-2.2,17.292-3.326,27.614C423.191,768.049,425.808,772,429.5,772.582Z" transform="translate(-423.604 -730.013)" fill="#ffc6a9"/>
            </g>
            <g id="Grupo_71755" data-name="Grupo 71755" transform="translate(3.432 31.396)">
              <path id="Trazado_106945" data-name="Trazado 106945" d="M429.745,800.256l.456-.014c2.157-.067,3.084-4.269,3.459-7.77,1.286-11.984,2.142-17.23,3.429-29.213.375-3.5-1.726-5.676-5.82-5.55l-.867.027c-4.093.125-7.223,3.051-6.988,6.534.8,11.919,2.142,14.494,2.943,26.413C426.59,794.166,427.588,800.322,429.745,800.256Z" transform="translate(-423.401 -757.703)" fill="#ffc6a9"/>
            </g>
            <g id="Grupo_71756" data-name="Grupo 71756" transform="translate(0 65.27)">
              <path id="Trazado_106946" data-name="Trazado 106946" d="M430.688,801.446a1.333,1.333,0,0,0-1.7.908l-1.49,7.091a1.454,1.454,0,0,0,1.166,1.619,1.332,1.332,0,0,0,1.7-.909l1.49-7.09A1.454,1.454,0,0,0,430.688,801.446Z" transform="translate(-419.423 -785.73)" fill="#ffaa7f"/>
              <path id="Trazado_106947" data-name="Trazado 106947" d="M424.9,816.9l1.67-11.3-4.927-1.154a28.558,28.558,0,0,1,.888,4.119A13.194,13.194,0,0,1,422.4,812l.625,6.234A1.73,1.73,0,0,0,424.9,816.9Z" transform="translate(-420.204 -785.321)" fill="#ff986b"/>
              <path id="Trazado_106948" data-name="Trazado 106948" d="M422.473,817.074l3.255-10.7s-3.778-4.234-4.312-3.263c-.373.681.1,3.176.05,5.514a12.86,12.86,0,0,1-.7,3.331l-.4,6.166A1.817,1.817,0,0,0,422.473,817.074Z" transform="translate(-420.374 -785.519)" fill="#ffaa7f"/>
              <path id="Trazado_106949" data-name="Trazado 106949" d="M421.162,806.552c-.62-1.709,1.593-3.611,2.847-6.323.686-1.484,2.609-5.694,2.609-5.694l.053-6.955,6.6,4.935s2.307,6.719,1.573,10.242-2.726,3.495-2.951,5.976c-.07.777-2.734-3.388-2.734-3.388l-3.553,2.875S421.571,807.677,421.162,806.552Z" transform="translate(-420.283 -787.579)" fill="#ffaa7f"/>
              <path id="Trazado_106950" data-name="Trazado 106950" d="M428.977,803.747l-.06-4.232-3.569,6.052-1.686-.531,1.353,2.357-2.627,8.563,3.173-9.076Z" transform="translate(-420.104 -785.982)" fill="#ff986b"/>
            </g>
          </g>
          <g id="Grupo_71758" data-name="Grupo 71758" transform="translate(0 119.873)">
            <path id="Trazado_106951" data-name="Trazado 106951" d="M441.213,841.291c0-4.785,4.764-49.609,4.764-49.609l8.016,3.227c-.493,5.065-5.759,59.344-5.378,65.8.4,6.775-1.418,97.453-1.418,97.453a27.633,27.633,0,0,1-6.8,2.855c-.153-17.841-.968-101.647-.968-101.647S441.213,853.353,441.213,841.291Z" transform="translate(-412.949 -757.813)" fill="#113e51"/>
            <path id="Trazado_106952" data-name="Trazado 106952" d="M488.124,851.857c-1.072-4.551-7.5-68.538-10.709-70.413s-43.908-3.212-48.459-4.283a7.292,7.292,0,0,1-3.251-1.994c2.176-6.759,4.626-11.847,5.525-12.521,1.594-1.2,54.293-.757,54.293-.757.4,1.2,11.275,12.56,12.072,34.08s-2.906,53.2-2.109,56.784,8.475,40.018,10.76,53.8c3.949,23.824,2.269,52.386,2.269,52.386a62,62,0,0,1-8.249,4.654C503.33,900.956,489.183,856.36,488.124,851.857Z" transform="translate(-414.786 -761.811)" fill="#113e51"/>
            <path id="Trazado_106953" data-name="Trazado 106953" d="M428.628,857.553c-.116-4.7-8.71-27.038-5.349-66.52a81.459,81.459,0,0,1,3.716-17.442,7.292,7.292,0,0,0,3.251,1.994c4.551,1.07,45.246,2.409,48.459,4.283s9.638,65.861,10.709,70.413c1.059,4.5,15.206,49.1,12.142,111.738-4.437,2.067-9.891,3.881-14.344,3.106-9.166-1.593-11.721-4.806-11.721-4.806s1.758-82.839,2.155-93.6S462.2,798.593,462.2,798.593l-5.04-1.68-.041.417-7.8-2.574s-4.982,44.171-4.982,48.956c0,12.062-1.779,18.081-1.779,18.081s.815,83.806.968,101.647a30.149,30.149,0,0,1-8.2,1.161c-8.767,0-17.609-2.374-18.2-6.425C411.746,921.638,428.783,863.927,428.628,857.553Z" transform="translate(-416.075 -760.234)" fill="#1f507b"/>
          </g>
          <g id="Grupo_71760" data-name="Grupo 71760" transform="translate(75.431 136.481)">
            <g id="Grupo_71759" data-name="Grupo 71759" transform="translate(0)">
              <path id="Trazado_106954" data-name="Trazado 106954" d="M491.964,873.749a.491.491,0,0,0,.082-.007.43.43,0,0,0,.34-.5c-.425-2.2-1.008-4.806-1.624-7.563-1.583-7.085-3.377-15.115-3.377-20.106a33.143,33.143,0,0,1,.417-4.488,34.1,34.1,0,0,0,.428-4.644V836.2c-.468-33.443-2.1-42.247-3.419-49.323a75.689,75.689,0,0,1-1.35-10.022.466.466,0,0,0-.457-.4.431.431,0,0,0-.4.457,76.847,76.847,0,0,0,1.364,10.123c1.31,7.045,2.939,15.809,3.4,49.18v.221a33.181,33.181,0,0,1-.421,4.527,34,34,0,0,0-.424,4.6c0,5.085,1.805,13.164,3.4,20.293.613,2.75,1.2,5.347,1.617,7.538A.428.428,0,0,0,491.964,873.749Z" transform="translate(-482.602 -776.458)" fill="#547c99"/>
            </g>
          </g>
          <g id="Grupo_71762" data-name="Grupo 71762" transform="translate(62.604 135.106)">
            <g id="Grupo_71761" data-name="Grupo 71761">
              <path id="Trazado_106955" data-name="Trazado 106955" d="M487.065,800.155a.429.429,0,0,0,.259-.771c-7.128-5.37-13.8-15.816-15.182-23.785a.429.429,0,0,0-.846.149c1.442,8.288,8.11,18.746,15.512,24.32A.42.42,0,0,0,487.065,800.155Z" transform="translate(-471.289 -775.245)" fill="#547c99"/>
            </g>
          </g>
          <g id="Grupo_71764" data-name="Grupo 71764" transform="translate(7.281 134.161)">
            <g id="Grupo_71763" data-name="Grupo 71763" transform="translate(0)">
              <path id="Trazado_106956" data-name="Trazado 106956" d="M422.926,795.435a.426.426,0,0,0,.372-.218c3.131-5.533,6.975-14.181,7.512-20.335a.428.428,0,0,0-.389-.465.419.419,0,0,0-.465.389c-.525,6.02-4.317,14.531-7.4,19.991a.426.426,0,0,0,.162.583A.417.417,0,0,0,422.926,795.435Z" transform="translate(-422.496 -774.412)" fill="#547c99"/>
            </g>
          </g>
          <ellipse id="Elipse_5373" data-name="Elipse 5373" cx="19.462" cy="21.379" rx="19.462" ry="21.379" transform="translate(20.392 10.681) rotate(-8.784)" fill="#b55941"/>
          <path id="Trazado_106957" data-name="Trazado 106957" d="M448,667.394a9.973,9.973,0,0,0-6.936,7.1c-.635,2.712-1.068,12.082,1.189,14.229s-2.3-1.426-3.558-4.275c-1.756-3.971-1.371-13.455,2.075-19.589a11.57,11.57,0,0,1,5.338-5.148C452.418,656.6,448,667.394,448,667.394Z" transform="translate(-413.185 -655.679)" fill="#ed8d74"/>
          <path id="Trazado_106958" data-name="Trazado 106958" d="M479.561,668.779c2.465,43.857,40.85,26.574,32.68,50.264-.245.708-.5,1.376-.717,2.009-3.612,10.472,17.341,8.27,12.42,22.538-2.913,8.447-14.772,6.084-17.288,13.379-.62,1.8-.7,3.823-1.379,5.785a10.537,10.537,0,0,1-13,6.1c-2.658-.916-5.092-2.69-8-3.693-6.063-2.091-6.577,2.976-19.262-1.4-26.551-9.157-39.935-28.582-30.427-56.151,6.49-18.818,22.962-35.332,41.628-38.124Z" transform="translate(-414.006 -654.389)" fill="#b55941"/>
          <g id="Grupo_71765" data-name="Grupo 71765" transform="translate(16.724 29.066)">
            <path id="Trazado_106959" data-name="Trazado 106959" d="M481.678,707.2c-5.332-1.547-16.13-12.8-17.628-17.063-.031-.087-.05-.177-.078-.264-2.391,10.623-10.1,12.12-12.75,12.163a10.018,10.018,0,0,1-4.792-.857c-5.3,4.011-15.605,8.373-15.605,8.373a55.437,55.437,0,0,1,8.1,4.469c3.2,2.295,54.194-4.1,54.194-4.1S487.01,708.746,481.678,707.2Z" transform="translate(-430.825 -680.632)" fill="#ffc6a9"/>
            <path id="Trazado_106960" data-name="Trazado 106960" d="M449.38,703.125c2.654-.043,10.359-1.54,12.75-12.163-1.32-4.212.842-9.24.842-9.24a42.652,42.652,0,0,0-12.53,13.981,20.68,20.68,0,0,1-5.854,6.564A10.018,10.018,0,0,0,449.38,703.125Z" transform="translate(-428.983 -681.723)" fill="#eead8c"/>
          </g>
          <path id="Trazado_106961" data-name="Trazado 106961" d="M472.406,686.585c.15-.219.3-.438.444-.658,11.053-16.689-3.822-25.667-11.6-27.435-9.777-2.224-17.648,11.111-20.23,22.465s1.508,18.639,3.168,19.318c8.378,3.432,16.08-.363,22.145-6.331-.2.715-.354,1.491.075,1.708,1.085.549,5.346-.9,8.339-4.756C476.678,688.4,474.245,686.388,472.406,686.585Z" transform="translate(-412.848 -655.799)" fill="#ffc6a9"/>
          <path id="Trazado_106962" data-name="Trazado 106962" d="M478.086,678.834a6.868,6.868,0,0,1-4.629,5.521c-1.655.658-5.5,5.956-7.6,6.009-1.977.051,4.466-3.782-4.23-5.431-7.361-1.393-15.666-16.346-14.655-22.864s10.626-7.058,17.739-4.708C476.628,661.3,479.1,672.316,478.086,678.834Z" transform="translate(-411.952 -656.088)" fill="#ed8d74"/>
          <path id="Trazado_106963" data-name="Trazado 106963" d="M475.374,673.659c-4,24.4,35.868,23.223,30.979,37.4-.5,1.462-1.22,2.926-1.722,4.381-3.786,10.979,15.237,11.47,11.718,21.669-1.481,4.295-5.783,8.2-10.185,7.013-7.716-2.073-8.021-6.453-8.448-8.87.316.026-.46-.675.273.169a14.4,14.4,0,0,0,4.242,3.62c2.912,1.788,6.437-.349,5.1-4.154-2.068-5.9-11-8.409-7.428-18.774.211-.611.438-1.216.645-1.819,5.1-14.779-38.213-23.474-34.2-35.106,1-2.892,3.574-8.353,6.6-7.309a4.832,4.832,0,0,1,2.1,1.679Z" transform="translate(-409.381 -653.991)" fill="#ed8d74"/>
          <path id="Trazado_106964" data-name="Trazado 106964" d="M478.2,687.352c7.607,5.966,23.954,14.268,18.781,27.455-2.11,5.378-6.752,3.344-7.815,6.506s3.306,12.307,2.091,15.928c-.819,2.435-2.66,4.24-6.835,4.571,1.337-2.21,4.481-1.583,5.3-4.031,1.821-5.424-4.483-12.577-2.821-17.525,1.294-3.856,6.7-3.176,7.842-6.584,3.311-9.865-6.667-17.222-20.378-29.58a12.242,12.242,0,0,1,4.54,2.939Z" transform="translate(-408.273 -652.34)" fill="#ed8d74"/>
          <path id="Trazado_106965" data-name="Trazado 106965" d="M467.323,683.113a10.839,10.839,0,0,1,5.222,3.118c1.921,2.056,3.012,4.607,5.031,6.768,4.378,4.684,10.385,3.137,13.734,6.721a3.978,3.978,0,0,1,1.112,2.831,13.069,13.069,0,0,0-.926-1.11c-4.7-5.033-9.972-1.226-14.054-5.592-2.636-2.821-3.389-6.9-5.894-9.583-1.324-1.417-2.759-3.068-6.051-2.564Z" transform="translate(-409.46 -652.471)" fill="#ed8d74"/>
          <g id="Grupo_71769" data-name="Grupo 71769" transform="translate(71.93 90.259)">
            <g id="Grupo_71766" data-name="Grupo 71766" transform="translate(0)">
              <path id="Trazado_106966" data-name="Trazado 106966" d="M493.76,778.262c-3.7.587-7.409-2.355-8.291-6.571-2.127-10.163-3.7-17.054-5.823-27.217-.882-4.216,2.8-7.882,7.6-8.646s8.565,1.721,9.033,6c1.127,10.321,2.2,17.293,3.324,27.615C500.074,773.728,497.456,777.675,493.76,778.262Z" transform="translate(-479.514 -735.693)" fill="#ffc6a9"/>
            </g>
            <g id="Grupo_71767" data-name="Grupo 71767" transform="translate(6.645 31.397)">
              <path id="Trazado_106967" data-name="Trazado 106967" d="M492.762,805.936l-.456-.015c-2.157-.066-3.084-4.268-3.459-7.77-1.286-11.984-2.142-17.23-3.429-29.214-.375-3.5,1.726-5.675,5.82-5.549l.867.026c4.093.126,7.223,3.051,6.988,6.534-.8,11.92-2.142,14.494-2.943,26.414C495.916,799.846,494.919,806,492.762,805.936Z" transform="translate(-485.375 -763.383)" fill="#ffc6a9"/>
            </g>
            <g id="Grupo_71768" data-name="Grupo 71768" transform="translate(9.106 65.271)">
              <path id="Trazado_106968" data-name="Trazado 106968" d="M490.717,807.126a1.332,1.332,0,0,1,1.7.908l1.49,7.09a1.453,1.453,0,0,1-1.166,1.619,1.332,1.332,0,0,1-1.7-.908l-1.49-7.09A1.454,1.454,0,0,1,490.717,807.126Z" transform="translate(-487.28 -791.41)" fill="#ffc6a9"/>
              <path id="Trazado_106969" data-name="Trazado 106969" d="M496.568,822.579l-1.67-11.3,4.927-1.153a28.555,28.555,0,0,0-.888,4.119,13.2,13.2,0,0,0,.131,3.432l-.625,6.234A1.731,1.731,0,0,1,496.568,822.579Z" transform="translate(-486.562 -791.001)" fill="#ffc6a9"/>
              <path id="Trazado_106970" data-name="Trazado 106970" d="M499.045,822.753l-3.255-10.7s3.779-4.234,4.312-3.262c.373.681-.1,3.175-.05,5.514a12.873,12.873,0,0,0,.7,3.331l.4,6.166A1.819,1.819,0,0,1,499.045,822.753Z" transform="translate(-486.442 -791.199)" fill="#ffc6a9"/>
              <path id="Trazado_106971" data-name="Trazado 106971" d="M501.369,812.232c.62-1.709-1.593-3.612-2.847-6.325-.686-1.484-2.609-5.694-2.609-5.694l-.053-6.954-6.6,4.933s-2.307,6.719-1.573,10.243,2.726,3.495,2.951,5.977c.07.776,2.734-3.388,2.734-3.388l3.553,2.874S500.959,813.357,501.369,812.232Z" transform="translate(-487.546 -793.259)" fill="#ffc6a9"/>
              <path id="Trazado_106972" data-name="Trazado 106972" d="M492.687,809.426l.06-4.232,3.569,6.052,1.686-.53-1.353,2.357,2.627,8.563-3.173-9.076Z" transform="translate(-486.857 -791.662)" fill="#ffc6a9"/>
            </g>
          </g>
          <path id="Trazado_106973" data-name="Trazado 106973" d="M475.9,731.076l.134,12.45,2.526.777c-.406.666-2.057,3.762-2.057,10.167,0,7.3,14.722,18.8,11.665,27.972-.4,1.2-4.473.882-10.352.045-1.644-4.507-5.5-13.6-6.735-31.867C470.686,744.852,475.9,731.076,475.9,731.076Z" transform="translate(-408.716 -646.051)" fill="#3ba8a8"/>
          <g id="Grupo_71770" data-name="Grupo 71770" transform="translate(9.609 56.023)">
            <path id="Trazado_106974" data-name="Trazado 106974" d="M434.945,705.5a66.07,66.07,0,0,0,20.185,5.583c11.6,1.288,30.491-3.436,32.639-4.294a12.452,12.452,0,0,1,8.16,2.576c3.865,3.006,8.7,34.621,8.7,36.768s-19.866,1.454-19.866,1.454-.034.048-.091.141l-2.526-.777-.134-12.45s-5.21,13.776-4.819,19.544c1.238,18.263,5.091,27.36,6.735,31.867-6.524-.927-34.947-.105-43.482-1.01-16.5-1.751-15.051-4.915-15.051-4.915s9.24-19.322,12.126-25.957c1.578-3.632-2.738-11.648-2.738-11.648s-.346.194-.9.478c-.619-4.084-1.245-11.711-.185-23.374.569-6.263-3.753-7.141-6.042-7.176C428.258,707.445,434.945,705.5,434.945,705.5Z" transform="translate(-424.441 -705.498)" fill="#51bcbc"/>
            <path id="Trazado_106975" data-name="Trazado 106975" d="M433.808,718.68c-1.06,11.663-.434,19.29.185,23.374-2.339,1.2-9.443,1.313-9.443-.384,0-3.462,2.14-20.628,3.2-30.1,0-.02.009-.04.012-.061C430.055,711.539,434.377,712.417,433.808,718.68Z" transform="translate(-424.55 -704.694)" fill="#3ba8a8"/>
          </g>
          <g id="Grupo_71772" data-name="Grupo 71772" transform="translate(66.724 58.292)">
            <g id="Grupo_71771" data-name="Grupo 71771" transform="translate(0)">
              <path id="Trazado_106976" data-name="Trazado 106976" d="M475.452,733.66a.433.433,0,0,0,.429-.448c-.067-1.488-.1-2.793-.1-3.989,0-7.288,3.133-17.343,7.627-20.121a4.491,4.491,0,0,1,4.631-.189.429.429,0,1,0,.382-.768,5.314,5.314,0,0,0-5.463.227c-4.736,2.926-8.034,13.337-8.034,20.851,0,1.209.032,2.527.1,4.027A.43.43,0,0,0,475.452,733.66Z" transform="translate(-474.923 -707.498)" fill="#3ba8a8"/>
            </g>
          </g>
          <g id="Grupo_71774" data-name="Grupo 71774" transform="translate(18.588 77.093)">
            <g id="Grupo_71773" data-name="Grupo 71773" transform="translate(0)">
              <path id="Trazado_106977" data-name="Trazado 106977" d="M442.418,744.115c1,0,2.11-.058,3.3-.172a.43.43,0,0,0-.084-.855c-1.166.113-2.25.17-3.22.17-7.6,0-9.092-3.431-9.092-9.357,0-1.83.145-3.924.3-6.141.073-1.036.146-2.112.212-3.226a.429.429,0,0,0-.4-.452.422.422,0,0,0-.454.4c-.065,1.11-.139,2.183-.211,3.216-.155,2.232-.3,4.341-.3,6.2C432.469,740.206,434.133,744.115,442.418,744.115Z" transform="translate(-432.469 -724.08)" fill="#3ba8a8"/>
            </g>
          </g>
          <g id="Grupo_71776" data-name="Grupo 71776" transform="translate(43.435 89.469)">
            <g id="Grupo_71775" data-name="Grupo 71775" transform="translate(0)">
              <path id="Trazado_106978" data-name="Trazado 106978" d="M459.253,742.661c4.9,0,8.043-1.965,11.206-7.008a.429.429,0,1,0-.727-.456c-3.019,4.817-5.859,6.607-10.479,6.607a31.506,31.506,0,0,1-4.38-.37.422.422,0,0,0-.485.364.43.43,0,0,0,.365.485A32.3,32.3,0,0,0,459.253,742.661Z" transform="translate(-454.383 -734.996)" fill="#3ba8a8"/>
            </g>
          </g>
        </g>
      </g>
    </g>
    <path id="Trazado_106979" data-name="Trazado 106979" d="M371.531,732.33c0,20.274,3.71,47.738-17.884,54.15-27.218,8.081-43.538,37.1-73.805,37.1-50.638,0-91.688-40.852-91.688-91.246,0-20.857-1.541-42.3,18.864-55.447,23.271-14.993,43.144-35.8,72.825-35.8,33.264,0,63.867,6.251,79.938,32.631C368.175,687.494,371.531,715.039,371.531,732.33Z" transform="translate(-188.127 -623.68)" fill="#fe851b" opacity="0.5"/>
    <g id="Grupo_71812" data-name="Grupo 71812" transform="translate(0.601 28.824)">
      <g id="Grupo_71811" data-name="Grupo 71811" clip-path="url(#clip-path-2)">
        <g id="Grupo_71810" data-name="Grupo 71810" transform="translate(22.869 -0.271)">
          <path id="Trazado_106980" data-name="Trazado 106980" d="M350.528,702.992a2,2,0,0,1,1.454-2.434l10.588-2.671a2,2,0,1,1,.981,3.888l-10.588,2.671A2,2,0,0,1,350.528,702.992Z" transform="translate(-189.868 -644.639)" fill="#ffaa7f"/>
          <path id="Trazado_106981" data-name="Trazado 106981" d="M234.448,932.788H316.07L296.606,781.474l-46.462,1.256Z" transform="translate(-205.396 -633.443)" fill="#bac5ce"/>
          <g id="Grupo_71803" data-name="Grupo 71803" transform="translate(0)">
            <g id="Grupo_71780" data-name="Grupo 71780" transform="translate(95.577 156.392)">
              <path id="Trazado_106982" data-name="Trazado 106982" d="M296.448,803.393a1.4,1.4,0,0,1,1.78.953l1.562,7.437a1.526,1.526,0,0,1-1.223,1.7,1.4,1.4,0,0,1-1.779-.952l-1.562-7.438A1.526,1.526,0,0,1,296.448,803.393Z" transform="translate(-292.842 -786.908)" fill="#ffaa7f"/>
              <path id="Trazado_106983" data-name="Trazado 106983" d="M302.586,819.6l-1.753-11.849,5.168-1.21a29.915,29.915,0,0,0-.931,4.321,13.86,13.86,0,0,0,.137,3.6l-.655,6.54A1.815,1.815,0,0,1,302.586,819.6Z" transform="translate(-292.088 -786.479)" fill="#ff986b"/>
              <path id="Trazado_106984" data-name="Trazado 106984" d="M305.184,819.786l-3.415-11.219s3.964-4.441,4.523-3.422c.392.714-.109,3.33-.052,5.784a13.47,13.47,0,0,0,.729,3.494l.417,6.467A1.906,1.906,0,0,1,305.184,819.786Z" transform="translate(-291.963 -786.687)" fill="#ffaa7f"/>
              <path id="Trazado_106985" data-name="Trazado 106985" d="M307.621,808.749c.652-1.792-1.67-3.788-2.985-6.633-.72-1.558-2.738-5.973-2.738-5.973l-.056-7.3-6.92,5.176s-2.42,7.048-1.65,10.743,2.861,3.666,3.1,6.27c.074.813,2.868-3.555,2.868-3.555l3.728,3.016S307.192,809.931,307.621,808.749Z" transform="translate(-293.121 -788.848)" fill="#ffaa7f"/>
              <path id="Trazado_106986" data-name="Trazado 106986" d="M298.514,805.807l.063-4.44,3.744,6.349,1.768-.556-1.42,2.472,2.756,8.982-3.328-9.521Z" transform="translate(-292.399 -787.172)" fill="#ff986b"/>
            </g>
            <g id="Grupo_71782" data-name="Grupo 71782" transform="translate(15.337 328.033)">
              <path id="Trazado_106987" data-name="Trazado 106987" d="M225.755,951.845c-3.407,10.29-6.827,22.845,3.487,26.26,9.2,3.048,15.064-8.7,18.473-18.987s-.068-16.267-6.132-18.275S229.163,941.556,225.755,951.845Z" transform="translate(-222.353 -940.228)" fill="#501153"/>
              <g id="Grupo_71781" data-name="Grupo 71781" transform="translate(9.647 26.054)">
                <path id="Trazado_106988" data-name="Trazado 106988" d="M231.267,964.36a29.858,29.858,0,0,0,4.222.933.593.593,0,0,0,.677-.492.6.6,0,0,0-.492-.677,28.679,28.679,0,0,1-4.047-.891.592.592,0,0,0-.361,1.127Z" transform="translate(-230.861 -963.207)" fill="#547c99"/>
              </g>
            </g>
            <g id="Grupo_71785" data-name="Grupo 71785" transform="translate(94.174 315.894)">
              <path id="Trazado_106989" data-name="Trazado 106989" d="M314.027,952.685s-11.6-9.834-9.521-22.28c.54-3.224-12.623,3.413-12.623,3.413a67,67,0,0,1,3.4,10.3,17.723,17.723,0,0,1-.672,9.74s9.62,5.177,12.658,2.981A65.382,65.382,0,0,1,314.027,952.685Z" transform="translate(-291.883 -929.522)" fill="#ffaa7f"/>
              <path id="Trazado_106990" data-name="Trazado 106990" d="M313.014,948.51s18.365,8.616,25.807,15.2c.933.825-.1,3.7-.1,3.7l-44.281-1.633.486-4.05s-1.576-3.388-1.713-3.766c-.9-2.506,1.328-8.029,1.328-8.029a8.2,8.2,0,0,0,9.308,3.465C310.3,951.775,313.014,948.51,313.014,948.51Z" transform="translate(-291.734 -926.981)" fill="#501153"/>
              <g id="Grupo_71783" data-name="Grupo 71783" transform="translate(26.049 24.159)">
                <path id="Trazado_106991" data-name="Trazado 106991" d="M315.8,955.581a.491.491,0,0,0,.042-.19,26.156,26.156,0,0,1,.366-3.987.491.491,0,1,0-.968-.165,26.672,26.672,0,0,0-.382,4.135.492.492,0,0,0,.942.208Z" transform="translate(-314.857 -950.829)" fill="#547c99"/>
              </g>
              <g id="Grupo_71784" data-name="Grupo 71784" transform="translate(31.341 26.354)">
                <path id="Trazado_106992" data-name="Trazado 106992" d="M320.589,957.146a.473.473,0,0,0,.039-.249,18.59,18.59,0,0,1-.057-3.6.492.492,0,1,0-.981-.083,19.6,19.6,0,0,0,.059,3.784.492.492,0,0,0,.94.146Z" transform="translate(-319.525 -952.765)" fill="#547c99"/>
              </g>
            </g>
            <g id="Grupo_71786" data-name="Grupo 71786" transform="translate(17.42 125.744)">
              <path id="Trazado_106993" data-name="Trazado 106993" d="M286.666,845.19c0-5.018-5-52.038-5-52.038l-8.41,3.385c.518,5.313,6.04,62.25,5.642,69.025-.418,7.106,1.487,102.225,1.487,102.225a28.994,28.994,0,0,0,7.13,2.995c.16-18.714,1.015-106.624,1.015-106.624S286.666,857.843,286.666,845.19Z" transform="translate(-217.622 -757.624)" fill="#113e51"/>
              <path id="Trazado_106994" data-name="Trazado 106994" d="M245.953,856.274c1.122-4.773,7.863-71.895,11.233-73.861s46.058-3.37,50.833-4.493a7.644,7.644,0,0,0,3.411-2.091c-2.284-7.09-4.854-12.428-5.8-13.134-1.672-1.254-56.952-.795-56.952-.795-.418,1.254-11.827,13.175-12.663,35.749s3.048,55.8,2.211,59.565-8.891,41.977-11.287,56.436c-4.142,24.991-2.38,54.952-2.38,54.952a64.993,64.993,0,0,0,8.653,4.882C230,907.777,244.842,861,245.953,856.274Z" transform="translate(-224.19 -761.818)" fill="#113e51"/>
              <path id="Trazado_106995" data-name="Trazado 106995" d="M308.7,862.248c.12-4.93,9.137-28.362,5.611-69.778a85.413,85.413,0,0,0-3.9-18.3,7.643,7.643,0,0,1-3.411,2.091c-4.775,1.124-47.462,2.527-50.833,4.493s-10.111,69.087-11.233,73.861c-1.111,4.724-15.951,51.5-12.738,117.21,4.654,2.168,10.375,4.07,15.047,3.259,9.615-1.673,12.294-5.043,12.294-5.043s-1.844-86.894-2.261-98.182,16.2-71.463,16.2-71.463l5.287-1.762.042.438,8.181-2.7s5.226,46.336,5.226,51.354c0,12.654,1.866,18.967,1.866,18.967s-.855,87.91-1.015,106.624a31.58,31.58,0,0,0,8.6,1.218c9.2,0,18.47-2.49,19.1-6.74C326.411,929.472,308.54,868.935,308.7,862.248Z" transform="translate(-223.178 -760.164)" fill="#1f507b"/>
            </g>
            <g id="Grupo_71788" data-name="Grupo 71788" transform="translate(26.472 142.919)">
              <g id="Grupo_71787" data-name="Grupo 71787" transform="translate(0)">
                <path id="Trazado_106996" data-name="Trazado 106996" d="M232.868,879.512a.874.874,0,0,1-.133-.01.7.7,0,0,1-.55-.814c.447-2.315,1.057-5.046,1.7-7.937,1.659-7.422,3.538-15.833,3.538-21.042a34.116,34.116,0,0,0-.434-4.673,35.811,35.811,0,0,1-.451-4.907l0-.24c.49-35.111,2.209-44.359,3.59-51.789a79.423,79.423,0,0,0,1.414-10.484.694.694,0,1,1,1.386.091,80.661,80.661,0,0,1-1.434,10.649c-1.372,7.379-3.078,16.561-3.567,51.548l0,.227a34.7,34.7,0,0,0,.439,4.718,35.643,35.643,0,0,1,.448,4.862c0,5.362-1.9,13.853-3.57,21.345-.644,2.882-1.252,5.6-1.7,7.9A.693.693,0,0,1,232.868,879.512Z" transform="translate(-232.173 -776.965)" fill="#547c99"/>
              </g>
            </g>
            <g id="Grupo_71790" data-name="Grupo 71790" transform="translate(33.199 141.476)">
              <g id="Grupo_71789" data-name="Grupo 71789" transform="translate(0)">
                <path id="Trazado_106997" data-name="Trazado 106997" d="M238.8,802.312a.693.693,0,0,1-.417-1.247c7.435-5.6,14.389-16.494,15.833-24.8a.694.694,0,1,1,1.367.24c-1.522,8.748-8.556,19.782-16.365,25.663A.687.687,0,0,1,238.8,802.312Z" transform="translate(-238.106 -775.693)" fill="#547c99"/>
              </g>
            </g>
            <g id="Grupo_71792" data-name="Grupo 71792" transform="translate(99.507 140.49)">
              <g id="Grupo_71791" data-name="Grupo 71791" transform="translate(0)">
                <path id="Trazado_106998" data-name="Trazado 106998" d="M305.106,797.36a.69.69,0,0,1-.605-.353c-3.295-5.826-7.344-14.936-7.911-21.43a.695.695,0,0,1,1.384-.123c.511,5.873,4.254,14.712,7.735,20.87a.694.694,0,0,1-.6,1.035Z" transform="translate(-296.587 -774.824)" fill="#547c99"/>
              </g>
            </g>
            <path id="Trazado_106999" data-name="Trazado 106999" d="M253.792,677.12c-1.892,12.24,5.608,23.559,16.751,25.28s21.709-6.805,23.6-19.045-5.608-23.559-16.751-25.281S255.683,664.88,253.792,677.12Z" transform="translate(-202.846 -649.989)" fill="#501153"/>
            <path id="Trazado_107000" data-name="Trazado 107000" d="M279.21,662.776s5.868,1.438,7.274,7.446c.667,2.845,1.121,12.674-1.246,14.925s2.409-1.5,3.731-4.483c1.842-4.166,1.438-14.114-2.176-20.549a12.136,12.136,0,0,0-5.6-5.4C274.575,651.45,279.21,662.776,279.21,662.776Z" transform="translate(-199.616 -650.488)" fill="#66226b"/>
            <path id="Trazado_107001" data-name="Trazado 107001" d="M256.172,664.23c-2.585,46-42.849,27.875-34.28,52.726.256.741.524,1.444.752,2.107,3.789,10.986-18.19,8.676-13.029,23.643,3.057,8.861,15.5,6.381,18.135,14.035.651,1.884.737,4.01,1.446,6.068a11.056,11.056,0,0,0,13.638,6.4c2.787-.962,5.34-2.823,8.387-3.874,6.361-2.194,6.9,3.123,20.206-1.467,27.851-9.6,41.89-29.981,31.915-58.9-6.808-19.74-24.085-37.062-43.665-39.992Z" transform="translate(-208.826 -649.135)" fill="#501153"/>
            <g id="Grupo_71793" data-name="Grupo 71793" transform="translate(33.225 30.489)">
              <path id="Trazado_107002" data-name="Trazado 107002" d="M250.13,704.531c5.593-1.621,16.92-13.428,18.492-17.9.032-.091.052-.185.082-.277,2.509,11.142,10.591,12.713,13.375,12.758a10.509,10.509,0,0,0,5.026-.9c5.558,4.208,16.369,8.784,16.369,8.784a58.223,58.223,0,0,0-8.5,4.686c-3.358,2.408-56.849-4.3-56.849-4.3S244.536,706.154,250.13,704.531Z" transform="translate(-238.129 -676.663)" fill="#ffaa7f"/>
              <path id="Trazado_107003" data-name="Trazado 107003" d="M278.573,700.258c-2.784-.045-10.866-1.616-13.375-12.758,1.384-4.419-.883-9.693-.883-9.693a44.755,44.755,0,0,1,13.144,14.667,21.692,21.692,0,0,0,6.141,6.885A10.509,10.509,0,0,1,278.573,700.258Z" transform="translate(-234.624 -677.807)" fill="#ff986b"/>
            </g>
            <path id="Trazado_107004" data-name="Trazado 107004" d="M256.675,682.908c-.156-.229-.313-.459-.466-.689-11.594-17.508,4.009-26.924,12.172-28.78,10.256-2.332,18.511,11.655,21.22,23.566s-1.582,19.552-3.322,20.265c-8.788,3.6-16.868-.382-23.229-6.642.205.751.37,1.564-.079,1.79-1.138.577-5.608-.945-8.749-4.989C252.194,684.816,254.747,682.7,256.675,682.908Z" transform="translate(-203.038 -650.614)" fill="#ffaa7f"/>
            <path id="Trazado_107005" data-name="Trazado 107005" d="M250.073,674.778a7.2,7.2,0,0,0,4.856,5.79c1.736.69,5.775,6.247,7.977,6.3,2.074.053-4.685-3.968,4.437-5.7,7.721-1.464,16.435-17.147,15.374-23.984s-11.147-7.4-18.609-4.939C251.6,656.384,249.012,667.94,250.073,674.778Z" transform="translate(-203.334 -650.917)" fill="#6b2572"/>
            <path id="Trazado_107006" data-name="Trazado 107006" d="M255.307,669.348c4.2,25.594-37.626,24.362-32.5,39.233.528,1.534,1.28,3.07,1.806,4.6,3.972,11.516-15.983,12.031-12.293,22.73,1.555,4.506,6.066,8.6,10.685,7.356,8.093-2.174,8.414-6.768,8.861-9.3-.331.027.484-.709-.286.178a15.085,15.085,0,0,1-4.449,3.8c-3.055,1.876-6.752-.366-5.353-4.357,2.17-6.19,11.541-8.82,7.792-19.694-.221-.641-.459-1.276-.677-1.907-5.347-15.5,40.085-24.624,35.876-36.826-1.047-3.034-3.749-8.761-6.923-7.667a5.078,5.078,0,0,0-2.2,1.763Z" transform="translate(-208.419 -648.718)" fill="#6b2572"/>
            <path id="Trazado_107007" data-name="Trazado 107007" d="M248.983,683.712c-7.979,6.259-25.126,14.968-19.7,28.8,2.213,5.641,7.083,3.508,8.2,6.824s-3.468,12.91-2.193,16.708c.858,2.556,2.789,4.448,7.169,4.8-1.4-2.318-4.7-1.66-5.563-4.228-1.909-5.691,4.7-13.192,2.959-18.384-1.357-4.044-7.025-3.33-8.226-6.905-3.473-10.347,6.994-18.065,21.375-31.03a12.868,12.868,0,0,0-4.762,3.083Z" transform="translate(-206.227 -646.985)" fill="#6b2572"/>
            <path id="Trazado_107008" data-name="Trazado 107008" d="M260.807,679.266a11.358,11.358,0,0,0-5.478,3.271c-2.015,2.155-3.158,4.832-5.277,7.1-4.593,4.913-10.893,3.29-14.407,7.05a4.166,4.166,0,0,0-1.167,2.97,13.891,13.891,0,0,1,.971-1.165c4.935-5.279,10.461-1.285,14.742-5.865,2.765-2.959,3.556-7.242,6.184-10.053,1.389-1.486,2.892-3.218,6.347-2.69Z" transform="translate(-205.392 -647.123)" fill="#6b2572"/>
            <g id="Grupo_71797" data-name="Grupo 71797" transform="translate(15.686 94.679)">
              <g id="Grupo_71794" data-name="Grupo 71794" transform="translate(3.842)">
                <path id="Trazado_107009" data-name="Trazado 107009" d="M232.238,779.074c3.878.616,7.771-2.47,8.7-6.892,2.23-10.66,3.879-17.89,6.109-28.55.925-4.422-2.94-8.268-7.975-9.068s-8.985,1.805-9.476,6.3c-1.181,10.827-2.305,18.14-3.488,28.966C225.615,774.319,228.36,778.458,232.238,779.074Z" transform="translate(-226.048 -734.42)" fill="#ffaa7f"/>
              </g>
              <g id="Grupo_71795" data-name="Grupo 71795" transform="translate(3.599 32.933)">
                <path id="Trazado_107010" data-name="Trazado 107010" d="M232.49,808.1l.478-.015c2.262-.069,3.235-4.476,3.628-8.151,1.349-12.57,2.247-18.073,3.6-30.643.395-3.674-1.81-5.954-6.1-5.822l-.909.028c-4.295.132-7.577,3.2-7.331,6.855.84,12.5,2.247,15.2,3.089,27.707C229.181,801.716,230.228,808.172,232.49,808.1Z" transform="translate(-225.835 -763.466)" fill="#ffaa7f"/>
              </g>
              <g id="Grupo_71796" data-name="Grupo 71796" transform="translate(0 68.467)">
                <path id="Trazado_107011" data-name="Trazado 107011" d="M233.479,809.351a1.4,1.4,0,0,0-1.779.954l-1.562,7.437a1.525,1.525,0,0,0,1.222,1.7,1.4,1.4,0,0,0,1.78-.954l1.562-7.437A1.526,1.526,0,0,0,233.479,809.351Z" transform="translate(-221.663 -792.865)" fill="#ffaa7f"/>
                <path id="Trazado_107012" data-name="Trazado 107012" d="M227.407,825.56l1.752-11.849-5.168-1.21a29.912,29.912,0,0,1,.931,4.321,13.86,13.86,0,0,1-.137,3.6l.655,6.539A1.816,1.816,0,0,0,227.407,825.56Z" transform="translate(-222.482 -792.436)" fill="#ff986b"/>
                <path id="Trazado_107013" data-name="Trazado 107013" d="M224.862,825.744l3.415-11.219s-3.965-4.441-4.524-3.422c-.391.714.109,3.33.053,5.784a13.5,13.5,0,0,1-.73,3.493l-.416,6.468A1.908,1.908,0,0,0,224.862,825.744Z" transform="translate(-222.66 -792.644)" fill="#ffaa7f"/>
                <path id="Trazado_107014" data-name="Trazado 107014" d="M223.486,814.707c-.651-1.793,1.67-3.789,2.987-6.634.719-1.557,2.737-5.972,2.737-5.972l.056-7.3,6.92,5.176s2.42,7.048,1.65,10.744-2.86,3.666-3.1,6.269c-.074.814-2.867-3.553-2.867-3.553l-3.727,3.016S223.916,815.889,223.486,814.707Z" transform="translate(-222.564 -794.805)" fill="#ffaa7f"/>
                <path id="Trazado_107015" data-name="Trazado 107015" d="M231.684,811.765l-.063-4.44-3.744,6.349-1.768-.557,1.42,2.472-2.756,8.982,3.329-9.521Z" transform="translate(-222.377 -793.129)" fill="#ff986b"/>
              </g>
            </g>
            <path id="Trazado_107016" data-name="Trazado 107016" d="M250.652,729.578l-.141,13.058-2.651.815c.426.7,2.158,3.947,2.158,10.665,0,7.658-15.443,19.721-12.236,29.342.418,1.254,4.692.925,10.86.049,1.725-4.728,5.767-14.271,7.065-33.428C256.117,744.029,250.652,729.578,250.652,729.578Z" transform="translate(-205.009 -640.389)" fill="#ffac1a"/>
            <g id="Grupo_71798" data-name="Grupo 71798" transform="translate(21.917 58.767)">
              <path id="Trazado_107017" data-name="Trazado 107017" d="M301.253,702.747a69.322,69.322,0,0,1-21.173,5.856c-12.163,1.352-31.985-3.6-34.238-4.5a13.064,13.064,0,0,0-8.559,2.7c-4.053,3.153-9.126,36.316-9.126,38.568S249,746.9,249,746.9s.035.05.094.147l2.651-.815.141-13.058s5.465,14.451,5.055,20.5c-1.3,19.157-5.34,28.7-7.065,33.428,6.844-.974,36.658-.112,45.61-1.061,17.309-1.836,15.789-5.155,15.789-5.155s-9.693-20.268-12.721-27.228c-1.657-3.809,2.872-12.218,2.872-12.218s.363.2.944.5c.65-4.284,1.305-12.286.194-24.519-.6-6.571,3.937-7.491,6.338-7.528C308.268,704.789,301.253,702.747,301.253,702.747Z" transform="translate(-228.156 -702.747)" fill="#ffbc35"/>
            </g>
            <g id="Grupo_71800" data-name="Grupo 71800" transform="translate(31.467 60.912)">
              <g id="Grupo_71799" data-name="Grupo 71799" transform="translate(0)">
                <path id="Trazado_107018" data-name="Trazado 107018" d="M250.676,732.56a.7.7,0,0,1-.694-.726c.063-1.379.105-2.778.105-4.173,0-7.58-3.238-18.026-7.884-20.9a4.423,4.423,0,0,0-4.62-.188.695.695,0,0,1-.621-1.243,5.879,5.879,0,0,1,5.972.248c5.573,3.445,8.541,15.035,8.541,22.079,0,1.417-.042,2.835-.105,4.236A.694.694,0,0,1,250.676,732.56Z" transform="translate(-236.578 -704.639)" fill="#ffcc6d"/>
              </g>
            </g>
            <g id="Grupo_71802" data-name="Grupo 71802" transform="translate(82.061 80.625)">
              <g id="Grupo_71801" data-name="Grupo 71801" transform="translate(0)">
                <path id="Trazado_107019" data-name="Trazado 107019" d="M285.316,743.529c-1.054,0-2.2-.059-3.488-.183a.7.7,0,0,1-.625-.757.685.685,0,0,1,.759-.626c1.229.117,2.358.178,3.354.178,7.812,0,9.294-3.364,9.294-9.572,0-1.912-.153-4.1-.314-6.427-.076-1.087-.155-2.216-.223-3.383a.7.7,0,0,1,.652-.735.717.717,0,0,1,.734.653c.069,1.162.147,2.288.222,3.369.163,2.346.317,4.564.317,6.523C296,739.148,294.181,743.529,285.316,743.529Z" transform="translate(-281.2 -722.025)" fill="#ffcc6d"/>
              </g>
            </g>
          </g>
          <path id="Trazado_107020" data-name="Trazado 107020" d="M261.919,696.128a67.671,67.671,0,0,1,9.978,26.111c2.3,15.166-7.152,228.25-7.152,228.25S221.8,954.8,219.5,950.2s8.733-79.513,10.572-90.084,7.353-68.941,8.732-74c4.136-15.166,13.383-24.251,13.383-28.388s-3.454-10.987-3.454-10.987l-6.711-41.056Z" transform="translate(-207.439 -644.866)" fill="#eff3f4"/>
          <path id="Trazado_107021" data-name="Trazado 107021" d="M251.74,754.047s-6.584,12.9-9.366,18.606C236.41,784.9,224.481,890.69,224.481,890.69s21.347-111.13,23.858-115.212,8.476-22.289,8.476-22.289L250.506,730.1s-.6,7.393-.6,8.648-.327,4.633-.327,4.633Z" transform="translate(-206.73 -640.319)" fill="#d9dbdd"/>
          <path id="Trazado_107022" data-name="Trazado 107022" d="M281.971,696.2A117.088,117.088,0,0,0,278.14,721.9c-.694,15.234,15.762,229.2,15.762,229.2s32.558.909,33.875-3.772-10.722-79.017-12.614-89.5-9.146-68.521-10.4-73.511c-3.751-14.972-10.674-23.663-10.918-27.793s1.276-8.336,1.738-11.109c1.7-10.189,2.216-41.258,2.216-41.258Z" transform="translate(-199.551 -644.857)" fill="#eff3f4"/>
          <path id="Trazado_107023" data-name="Trazado 107023" d="M292.3,753.325s7.972,17.658,10.23,23.243c4.841,11.979,16.658,112.053,16.658,112.053s-21.3-110.068-23.274-114.038-7.169-21.9-7.169-21.9l6.25-26.025a32.572,32.572,0,0,1,.472,3.3C295.535,731.2,292.3,753.325,292.3,753.325Z" transform="translate(-198.13 -640.78)" fill="#d9dbdd"/>
          <path id="Trazado_107024" data-name="Trazado 107024" d="M225.139,808.444s5.516,5.975,11.031,6.435,9.192-50.557,10.571-55.613,3.677-25.738,3.677-25.738-4.6-28.5-9.192-28.955-7.813.459-11.031,22.061-1.769,29.4-3.183,30.785S225.139,808.444,225.139,808.444Z" transform="translate(-206.642 -643.746)" fill="#eff3f4"/>
          <g id="Grupo_71804" data-name="Grupo 71804" transform="translate(30.12 60.393)">
            <path id="Trazado_107025" data-name="Trazado 107025" d="M249.2,731.658a.58.58,0,0,1-.577-.534c-.691-9.029-4.552-23.076-9.274-25.445a2.926,2.926,0,0,0-3.072.219.578.578,0,1,1-.619-.976,4.034,4.034,0,0,1,4.209-.276c5.728,2.873,9.334,18.864,9.911,26.387a.581.581,0,0,1-.534.622A.3.3,0,0,1,249.2,731.658Z" transform="translate(-235.391 -704.181)" fill="#fff"/>
          </g>
          <g id="Grupo_71805" data-name="Grupo 71805" transform="translate(18.113 159.929)">
            <path id="Trazado_107026" data-name="Trazado 107026" d="M236.853,796.694c-3.9,0-7.164-1.513-10.614-3.111l-1.1-.508a.579.579,0,1,1,.482-1.053l1.105.51c3.49,1.621,6.8,3.151,10.651,3a.579.579,0,1,1,.043,1.158C237.229,796.692,237.04,796.694,236.853,796.694Z" transform="translate(-224.801 -791.968)" fill="#fff"/>
          </g>
          <g id="Grupo_71806" data-name="Grupo 71806" transform="translate(102.434 58.987)">
            <path id="Trazado_107027" data-name="Trazado 107027" d="M336.806,733.7c1.651-3.3-.015-7.67-3.72-9.753l-22.328-12.55c-3.7-2.083-8.446-.293-10.59,4s-.729,9.158,3.161,10.87l23.443,10.318C330.663,738.291,335.155,737,336.806,733.7Z" transform="translate(-299.168 -701.926)" fill="#ffaa7f"/>
            <path id="Trazado_107028" data-name="Trazado 107028" d="M355.253,704.073l-.313-.313c-1.479-1.479-4.793-.9-7.4,1.291L325.212,723.8c-2.609,2.192-2.45,6.244.357,9.05l.594.594c2.807,2.807,6.859,2.967,9.05.358l1.109-1.32,17.639-21a9.813,9.813,0,0,0,1.386-2.176C356.308,707.238,356.341,705.16,355.253,704.073Z" transform="translate(-295.93 -702.941)" fill="#ffaa7f"/>
          </g>
          <path id="Trazado_107029" data-name="Trazado 107029" d="M348.009,706.9s-16.639,16.011-17.894,15.383-32.649-22.6-34.532-18.835c-.992,1.985-1.883,26.056-1.883,26.056s33.9,13.185,37.358,12.243,23.858-14.441,23.858-14.441,0-6.906-1.883-10.673S348.009,706.9,348.009,706.9Z" transform="translate(-197.466 -643.944)" fill="#eff3f4"/>
          <path id="Trazado_107030" data-name="Trazado 107030" d="M372.743,697.119l-11.8,6.321-.051,4.409s3.684-.723,5.667-2.679a15.5,15.5,0,0,1,3.322-2.274l5.433-4.945A2.029,2.029,0,0,0,372.743,697.119Z" transform="translate(-188.473 -644.759)" fill="#ff986b"/>
          <path id="Trazado_107031" data-name="Trazado 107031" d="M343.7,706.6s5.49-6,9.041-6,7.245,2.747,10.8,2.155,15.743-5.895,16.716-4.338c.173.278,1.082.783.483,1.341-2.756,2.572-12.337,7.488-16.226,8.947-3.08,1.154-7.513,1.082-10.9,1.638a6.979,6.979,0,0,0-3.228,1.623l-5.906-4.9Z" transform="translate(-190.773 -644.598)" fill="#ffaa7f"/>
          <path id="Trazado_107032" data-name="Trazado 107032" d="M373.605,702.63l-13.1.4s-3.285,5.787-2,6.014c.9.16,3.488-1.306,6.106-2.125a15.066,15.066,0,0,1,3.961-.479l7-1.873A2.133,2.133,0,0,0,373.605,702.63Z" transform="translate(-188.833 -643.996)" fill="#ffaa7f"/>
          <path id="Trazado_107033" data-name="Trazado 107033" d="M352.709,700.442l3.429,1.247,5.959,1.926.044,2.072,2.11-2.388,10.5-.3-11.274-.117Z" transform="translate(-189.568 -644.288)" fill="#ff986b"/>
          <g id="Grupo_71807" data-name="Grupo 71807" transform="translate(95.744 57.915)">
            <path id="Trazado_107034" data-name="Trazado 107034" d="M296.006,727.561a.629.629,0,0,1-.169-.025.582.582,0,0,1-.384-.723c.89-2.907,2.744-8.958,2.744-14.208,0-4.807-1.55-8.006-4.606-9.51a.579.579,0,0,1,.511-1.04c3.485,1.716,5.252,5.264,5.252,10.549,0,5.421-1.888,11.586-2.794,14.547A.582.582,0,0,1,296.006,727.561Z" transform="translate(-293.268 -701.996)" fill="#fff"/>
          </g>
          <g id="Grupo_71808" data-name="Grupo 71808" transform="translate(79.961 50.765)">
            <path id="Trazado_107035" data-name="Trazado 107035" d="M279.923,752.409a.584.584,0,0,1-.321-.1c-.41-.274-1.262-.844,6.3-38.039l-2.7-4.2a.578.578,0,0,1,.048-.689l7.051-8.227-8.753-4.375a.579.579,0,1,1,.517-1.035l9.418,4.708a.58.58,0,0,1,.18.9l-7.253,8.461L287,713.846a.58.58,0,0,1,.081.427c-2.735,13.448-6.929,35.3-6.658,37.268a.579.579,0,0,1-.5.867Z" transform="translate(-279.347 -695.69)" fill="#fff"/>
          </g>
          <g id="Grupo_71809" data-name="Grupo 71809" transform="translate(46.054 50.685)">
            <path id="Trazado_107036" data-name="Trazado 107036" d="M267.287,754.616a.578.578,0,0,1-.321-.1c-.764-.508-3.277-13.418-7.47-38.37a.56.56,0,0,1,.011-.241l1.48-5.629L249.63,699.838a.578.578,0,0,1,.172-.96l7.847-3.216a.579.579,0,1,1,.439,1.071l-7,2.871,10.944,10.06a.576.576,0,0,1,.168.571l-1.536,5.846c2.411,14.336,6.246,35.984,7.057,37.569a.578.578,0,0,1-.429.967Z" transform="translate(-249.443 -695.619)" fill="#fff"/>
          </g>
        </g>
      </g>
    </g>
    <path id="Trazado_107037" data-name="Trazado 107037" d="M481,625.734l-4.222,23.441,13.135.6-4.222,19.834,10.32-25.845-11.728-2.4,4.691-14.425Z" transform="translate(-149.491 -625.734)" fill="#fff"/>
    <path id="Trazado_107038" data-name="Trazado 107038" d="M506.728,641.815,493.88,661.871l11.912,5.568-11.471,16.722,19.4-19.951-9.923-6.7,9.84-11.543Z" transform="translate(-147.203 -623.582)" fill="#fff"/>
    <g id="Grupo_71813" data-name="Grupo 71813" transform="translate(151.737 30.139)">
      <path id="Trazado_107039" data-name="Trazado 107039" d="M327.923,684.643l-.513-.774c.625-.413,1.308-.836,2.024-1.279,3.707-2.3,8.319-5.154,10.165-9.973,1.972-5.15,1.948-9.359-.073-12.508-2.548-3.97-8.147-6.262-16.643-6.811a3.421,3.421,0,0,1-.932-.107l.177-.429.127-.446c.093.019.332.032.687.055,8.808.568,14.65,3,17.365,7.236,2.188,3.412,2.242,7.9.159,13.342-1.957,5.111-6.718,8.059-10.543,10.429C329.215,683.816,328.54,684.235,327.923,684.643Z" transform="translate(-321.952 -652.316)" fill="#1f507b"/>
    </g>
    <g id="Grupo_71814" data-name="Grupo 71814" transform="translate(172.617 0.569)">
      <path id="Trazado_107040" data-name="Trazado 107040" d="M340.367,650.072a22.562,22.562,0,0,1,10.071-11.353c10.733-6.314,16.915-2.163,21.429.867,3.236,2.172,5.016,3.2,7,.964A14.528,14.528,0,0,0,381,636.875a15.493,15.493,0,0,1,2.282-3.911c2.241-2.523,4.328-2.471,6.253-1.736a9.43,9.43,0,0,1,1.455-2.129,2.438,2.438,0,0,1,3.212-.706c4.836-3.907,12.294-2.112,17.2,2.244q.415.367.787.747c2.248,2.079,4.373,5.267,4.66,8.231a4.264,4.264,0,0,1,1.05.683,5.822,5.822,0,0,1,1.713,3.4c1.93,2.785,3.847,7.746,3.3,10.6,1.651,2.792,2.357,5.813.45,7.962-2.083,2.346-4.112,1.27-6.032-.331a2.478,2.478,0,0,1-.534,1.946,2.532,2.532,0,0,1-.229.227,19.955,19.955,0,0,0,2.462,1.383,16.063,16.063,0,0,1,3.277,1.985,2.949,2.949,0,0,1,1.136,2.033,3.7,3.7,0,0,1-1.163,2.62c-3.51,3.954-8.059,2.843-12.459,1.767-.984-.239-1.982-.483-2.97-.668a12.441,12.441,0,0,1-3.984-.115c-.417,4.038-1.374,6.926-2.847,8.583a4.349,4.349,0,0,1-3.861,1.567,7.061,7.061,0,0,1-3.71-1.833,9.252,9.252,0,0,1-2.464-3.255c-2.619,0-5.143-.56-6.472-1.739a11.339,11.339,0,0,1-1.434-1.748,26.825,26.825,0,0,1-3.54-2.637,18.557,18.557,0,0,1-3.4-4.042c-1.5-2.522-1.039-3.922-.391-4.653A5.31,5.31,0,0,1,377.155,662a6.038,6.038,0,0,1-.935-.666,2.07,2.07,0,0,1-.836-1.773,3.474,3.474,0,0,1,1.01-1.9A20.186,20.186,0,0,1,378.5,655.7a11.873,11.873,0,0,1,.265-3.881,7.056,7.056,0,0,1-.736-2.238c-.025-.179-.044-.357-.054-.533a4.885,4.885,0,0,1-.461-.98,3.779,3.779,0,0,1,.982-3.878c2.526-2.845,4.952-2.332,7.243-.769a12.213,12.213,0,0,1,4.76-1.447,11.551,11.551,0,0,1,1.611-.024c-.019-.041-.037-.083-.054-.125-2.408-3.158-4.061-6.489-2.84-9.862-1.729-.667-3.407-.636-5.335,1.535a14.855,14.855,0,0,0-2.152,3.711,15.319,15.319,0,0,1-2.258,3.873c-2.55,2.872-5.1,1.158-8.06-.828-4.335-2.912-10.274-6.9-20.567-.842a21.789,21.789,0,0,0-9.726,10.945Zm44.6-6.2c-2.087-1.338-3.881-1.378-5.865.857a3.151,3.151,0,0,0-.95,2.511,4.45,4.45,0,0,1,.952-1.8c1.415-1.594,3.11-1.584,4.952-.948Q384.508,644.161,384.97,643.873ZM378.2,662.545a5.825,5.825,0,0,0-2.843,1.348c-.85.958-.207,2.542.481,3.7a17.691,17.691,0,0,0,3.238,3.851,24.418,24.418,0,0,0,2.06,1.632c-.706-1.492-.736-2.662-.078-3.4a3.32,3.32,0,0,1,1.7-.967,32.64,32.64,0,0,1-.215-3.8q-.371-.452-.715-.923A37.9,37.9,0,0,1,378.2,662.545Zm.432-5.887A16.871,16.871,0,0,0,377,658.2a2.762,2.762,0,0,0-.808,1.432c-.022.235.014.605.567,1.1a7.008,7.008,0,0,0,1.526.961c.6-.145,1.239-.273,1.889-.4A16.137,16.137,0,0,1,378.627,656.658Zm4.662-11.57a3.2,3.2,0,0,0-3.577.887,4.083,4.083,0,0,0-.933,2.827,7.621,7.621,0,0,0,.729.927,11.588,11.588,0,0,1,1.823-2.738A17.923,17.923,0,0,1,383.29,645.088Zm-4.126,5.455-.1-.105c.022.066.043.132.067.2Zm1.352,3.536a8.568,8.568,0,0,1-1.118-1.25,11.124,11.124,0,0,0-.121,2.24C379.669,654.752,380.084,654.421,380.515,654.08Zm-.711-2.913q-.092.274-.168.551a7.613,7.613,0,0,0,1.543,1.871c.073.066.147.13.226.194l.387.319-.393.311c-.727.577-1.416,1.124-2.04,1.635A15.125,15.125,0,0,0,381,661.125a12.373,12.373,0,0,0,4.726-1.592c-.454-1.023-.941-2.023-1.406-2.978-.48-.985-.942-1.935-1.33-2.83l-.291-.222c-.9-.681-1.822-1.386-2.646-2.116Q379.923,651.276,379.8,651.167Zm4.395-5.77a16.806,16.806,0,0,0-2.262,2.132,10.628,10.628,0,0,0-1.819,2.823c.147.141.3.284.468.431.569.5,1.2,1,1.828,1.489-.6-1.752-.73-3.214.161-4.219.853-.96,2.481-1.367,4.631-1.2l-.053-.028A31.5,31.5,0,0,0,384.2,645.4Zm-3.628,16.637c-.353.069-.705.138-1.054.211q.684.284,1.538.6C380.886,662.579,380.724,662.307,380.571,662.034ZM389.3,648c-2.934-.658-5.2-.446-6.117.588a2.264,2.264,0,0,0-.4,1.9l.632-.215a15.709,15.709,0,0,0,2.939,4.847c-.027-.135-.052-.269-.074-.4-.332-2.024-.061-3.819.707-4.684a2.037,2.037,0,0,1,.562-.4l.015-.133.269-.007a18.083,18.083,0,0,1,1.821-.682C389.531,648.53,389.411,648.261,389.3,648Zm-5.046,5.675a15.066,15.066,0,0,1-1.281-2.314,15.388,15.388,0,0,0,.674,1.847Q383.954,653.445,384.252,653.676Zm1.443-9.3q-.371.218-.732.463c.835.359,1.693.812,2.566,1.27.153.081.308.161.464.244-.314-.29-.628-.578-.945-.858C386.581,645.081,386.131,644.706,385.7,644.38Zm.356,15.915a13.051,13.051,0,0,1-4.644,1.575c.285.489.594.968.925,1.433q.369.129.766.262l.3.1-.024.314c-.012.172-.021.384-.027.627a19.691,19.691,0,0,0,1.945,1.992,16.978,16.978,0,0,0,2.225,1.682C387.978,665.753,387.171,662.963,386.052,660.294Zm3.472-17.368a11.556,11.556,0,0,0-3.051,1.032c.375.293.746.608,1.115.934q.32.284.637.577a11.15,11.15,0,0,1-.514-1.536l-.07-.322.3-.134A10.168,10.168,0,0,1,389.524,642.926ZM386.677,658.2c.175-.813-.354-1.685-1.65-2.837-.208-.184-.427-.37-.656-.556.215.454.443.921.675,1.4.425.874.869,1.784,1.289,2.716A1.879,1.879,0,0,0,386.677,658.2Zm-3.8,11.32a2.474,2.474,0,0,0-1.213.694c-.645.729.008,2.2.456,3.009.162.294.339.579.518.849a19.927,19.927,0,0,0,6.964,2.806,5.56,5.56,0,0,1,1.515-4.741,5.407,5.407,0,0,1,1.666-1.277,10.547,10.547,0,0,1-4.288-1.113c-.166-.031-.331-.061-.494-.088a8.01,8.01,0,0,1-1.579,2.634,2.379,2.379,0,0,1-1.164.811,1.2,1.2,0,0,1-1.116-.3A6.019,6.019,0,0,1,382.873,669.518Zm7.1-37.224c-.791,2.263-.155,4.521,1.163,6.759a5.164,5.164,0,0,1-.04-2.335,9.693,9.693,0,0,1,.107-3.784C390.783,632.707,390.375,632.487,389.972,632.294Zm3.572-3.32a1.656,1.656,0,0,0-1.951.662,8.593,8.593,0,0,0-1.309,1.914c.392.185.779.388,1.158.593a8.031,8.031,0,0,1,1.583-2.626Q393.276,629.233,393.543,628.974Zm-6.995,39.64a18.545,18.545,0,0,1-1.8-1.411q-.728-.648-1.4-1.367c.026.836.09,1.8.2,2.722A12.838,12.838,0,0,1,386.548,668.614Zm6.223-25.274a11.135,11.135,0,0,0-4.184.743,28.771,28.771,0,0,0,1.057,2.685c.049.045.1.089.149.133.193.171.417.361.664.556.584.161,1.169.347,1.746.556l.449-.136c.728-.22,1.506-.455,2.314-.706Q393.651,645.084,392.771,643.34Zm-5.229,7.287a5.662,5.662,0,0,0-.465,3.956,10.083,10.083,0,0,0,.49,1.862c.408.415.839.824,1.289,1.223a27.1,27.1,0,0,0,4.339,3.158,7.324,7.324,0,0,0,1.31-.1c-.078-.232-.16-.465-.242-.7-.526-.612-1.074-1.227-1.619-1.838C390.185,655.431,387.848,652.806,387.542,650.627Zm-.372,18.9a13.979,13.979,0,0,0-3.5-.159,5.487,5.487,0,0,0,1,2.832.388.388,0,0,0,.388.116,1.613,1.613,0,0,0,.749-.56A7.131,7.131,0,0,0,387.17,669.525Zm4.764-36.191a8.316,8.316,0,0,0-.163,2.2c1.079-1.02,3.2-.933,6,.256.336.142.679.3,1.027.469-.213-.378-.432-.773-.658-1.183l-.392-.711a7.948,7.948,0,0,1-1.2.254A7.782,7.782,0,0,1,391.934,633.334Zm-1.6,17.018q-.949-.075-2.014-.064c.1,1.95,2.553,4.7,4.927,7.364l.245.274C392.448,655.183,391.3,652.547,390.336,650.352Zm3.925-20.943q-.327.3-.633.646a7.3,7.3,0,0,0-1.471,2.48,7.32,7.32,0,0,0,4.293,1.287,6.872,6.872,0,0,0,.892-.178,17.178,17.178,0,0,0-2.9-4.084C394.38,629.506,394.32,629.456,394.261,629.408Zm-6.787,28.95a2.922,2.922,0,0,1-.714,1.318l-.06.067c1.261,2.942,2.193,6.061,1.581,8.912l-.015.066q.226.124.449.235.891.17,1.833.388a3.578,3.578,0,0,1-1.047-2.968,5.193,5.193,0,0,1,1.247-2.868,7.007,7.007,0,0,1,2.538-1.7c-.109-.06-.218-.12-.327-.183a6.288,6.288,0,0,1-3.983-1.579,7.455,7.455,0,0,1-1.475-1.84C387.494,658.254,387.485,658.305,387.474,658.359Zm12.1-20.777a22.182,22.182,0,0,0-2.117-1.043c-2.543-1.077-4.444-1.2-5.216-.327a1.577,1.577,0,0,0-.324.613,22.68,22.68,0,0,0,1.81,5.331,12.976,12.976,0,0,1,2.463.751,25.486,25.486,0,0,1,5.6,1.874,38.167,38.167,0,0,0,3.566-1.65c-.708-.872-1.4-1.752-2.019-2.642a5.356,5.356,0,0,1-2.443-1.2A8.063,8.063,0,0,1,399.576,637.582Zm-12.288,39.584A21.513,21.513,0,0,1,384,675.784a.639.639,0,0,0,.052.048A6.748,6.748,0,0,0,387.289,677.166Zm3.239-28.64c-.057-.042-.113-.083-.169-.125.023.052.045.1.069.156Zm16.225-20.007c-4-1.9-8.568-2.155-11.862.359l.085.075a18.321,18.321,0,0,1,3.155,4.44,24.114,24.114,0,0,0,2.582-1.178c.448-.227.9-.454,1.352-.664a10.088,10.088,0,0,1,1.24-1.7A3.95,3.95,0,0,1,406.754,628.519Zm-15.375,20.589c-.212.066-.419.129-.621.194l.127.287a15.173,15.173,0,0,1,1.982.333c-.149-.066-.3-.138-.458-.219C392.065,649.53,391.718,649.325,391.379,649.109Zm-.406,11.258c-.736-.513-1.452-1.065-2.143-1.65a5.905,5.905,0,0,0,.684.72A5.369,5.369,0,0,0,390.973,660.367Zm8.4-1.956-.044-.145c-.624-2.082-1.269-4.235-2.99-5.762a9.255,9.255,0,0,0-5.074-2.055c1.208,2.743,2.586,5.955,3.735,9.193.23.269.456.539.677.8A11.026,11.026,0,0,0,399.371,658.411Zm-3.491-14.755c-.492-.1-.983-.17-1.468-.222.588.683,1.2,1.363,1.8,2.039q.451.505.9,1.011c.743-.244,1.5-.5,2.252-.773A15.327,15.327,0,0,0,395.88,643.656Zm-.573,4.254c-.652.2-1.283.4-1.887.578l.118.05a8.575,8.575,0,0,0,1.858.141A2.891,2.891,0,0,0,395.307,647.91ZM394.231,662.3a7.018,7.018,0,0,0-2.879,1.748,4.344,4.344,0,0,0-1.045,2.4,2.758,2.758,0,0,0,.892,2.395A7.031,7.031,0,0,0,393.222,670l.181.047a5.887,5.887,0,0,0,3.1-1.025c.007-.036.015-.074.024-.11a35.224,35.224,0,0,0-1.373-6.189Q394.689,662.521,394.231,662.3Zm.944-12.064a2.1,2.1,0,0,1-1,.083,8.4,8.4,0,0,1,2.7,1.582c1.83,1.626,2.526,3.8,3.163,5.919.205-.2.4-.406.593-.618l.1-.109a6.99,6.99,0,0,0-2.569-4.805A16.511,16.511,0,0,0,395.176,650.233Zm1.1-3.475q-.33-.372-.664-.745l-.192-.215c.166.383.312.748.433,1.1Zm5.257-14.046-.449.227a25.928,25.928,0,0,1-2.547,1.171q.163.293.321.581c.45.816.889,1.61,1.3,2.29.583.33,1.175.692,1.769,1.081A6.867,6.867,0,0,1,401.528,632.711Zm-4.671,14.708-.637.2q.345.532.727,1.1l.342.507-.6.117c-.218.043-.433.076-.65.1a1.51,1.51,0,0,1-.155.26,16.787,16.787,0,0,1,2.812,1.974,8.007,8.007,0,0,1,2.716,4.423C401.773,653.393,399.531,650.47,396.856,647.419Zm-2.68,23.795a4.779,4.779,0,0,0-2.459,1.459,4.654,4.654,0,0,0-1.273,4.3,5.589,5.589,0,0,0,4.844-1.645,5.743,5.743,0,0,0,1.274-3.226c-.569-.264-1.248-.5-1.95-.742Zm4.651,3.028a3.22,3.22,0,0,1-.764,1.445c-1.308,1.474-4.233,2.323-7.194,2.467a9.116,9.116,0,0,0,2.113,2.671,6.206,6.206,0,0,0,3.265,1.634,3.526,3.526,0,0,0,3.163-1.3c1.363-1.535,2.256-4.287,2.652-8.181-1.242-.225-2.584-.535-3.979-.885l.043.036a2.108,2.108,0,0,1,.743,1.833A2.156,2.156,0,0,1,398.827,674.243Zm1.265-27.937c-.8.3-1.609.575-2.4.839,2.227,2.563,4.2,5.15,4.529,7.66A7.44,7.44,0,0,0,402.93,652a6.824,6.824,0,0,0-2.59-5.476C400.259,646.45,400.175,646.377,400.092,646.306Zm.666-1.112c-.522-.226-1.049-.434-1.577-.624q.541.381,1.073.815Zm-4.729,17.014q-.146-.2-.3-.394c.033.1.067.211.1.314Zm6.617-30.033c-1.265,2.4-.675,4.617.7,6.869q.529.384,1.052.793a23.479,23.479,0,0,0,5.3-.355l.4-.057a4.164,4.164,0,0,0,.819-3.185,6.521,6.521,0,0,0-2.289-3.6C406.61,630.843,404.71,631.244,402.646,632.175Zm-5.827,31.178c-.231-.076-.463-.155-.694-.242a38.561,38.561,0,0,1,.985,4.144c.227-.506.5-1.035.779-1.582A8.1,8.1,0,0,0,396.819,663.353ZM399.873,660a12.461,12.461,0,0,1-3.348,1.527c.291.386.565.768.814,1.146a14.674,14.674,0,0,0,1.861.444,20.6,20.6,0,0,0,.969-2.33C400.064,660.527,399.966,660.264,399.873,660Zm2.316-20.781q-.33-.23-.661-.447A4.1,4.1,0,0,0,402.19,639.215Zm9.435-7.249c-.068-.063-.138-.127-.207-.188-2.363-2.1-5.577-3.566-7.507-1.392-.183.206-.353.412-.508.616a5.285,5.285,0,0,1,5.763,1.029,7.189,7.189,0,0,1,2.551,4.074,4.778,4.778,0,0,1-.571,3.18,19.93,19.93,0,0,1,3.2-.2,5.894,5.894,0,0,0-.037-2.589A9.784,9.784,0,0,0,411.625,631.966Zm-9.844,13.693c-.274.11-.551.219-.829.324a7.667,7.667,0,0,1,2.787,6.048,8.781,8.781,0,0,1-1.567,4.5,5.179,5.179,0,0,1-.633,1.625,11.1,11.1,0,0,1-.508,2.583,6.121,6.121,0,0,0,1.486,2.159q.09.08.187.156a3.889,3.889,0,0,1,2.221-.526,8.493,8.493,0,0,0,2.121-1.361c-.969-2.364-1.654-4.227-.753-5.239.621-.7,1.853-1.324,4.185-.324l.156.07a7.758,7.758,0,0,0,.276-1.583c-.286-.239-.569-.48-.846-.725a12.2,12.2,0,0,1-2.294-2.59l-.237-.379.4-.2c.142-.071.282-.135.424-.193l-.031-.027A28.754,28.754,0,0,0,401.781,645.66Zm-5.344,24.353c-.1.056-.2.109-.3.159.108,0,.218,0,.328,0Q396.445,670.094,396.437,670.012Zm.782,3.069a6.013,6.013,0,0,1-1.327,2.787,5.677,5.677,0,0,1-.733.693,5.707,5.707,0,0,0,2.3-1.412,2.322,2.322,0,0,0,.607-1.262,1.316,1.316,0,0,0-.475-1.152,2.905,2.905,0,0,0-.27-.21C397.292,672.716,397.259,672.9,397.219,673.082Zm1.607-9.209c-.29-.056-.584-.119-.876-.193a9.089,9.089,0,0,1,.468.985C398.554,664.4,398.691,664.14,398.826,663.873Zm-.073,3.389a3.348,3.348,0,0,1-.8,1.536,5.691,5.691,0,0,1-.567.556c.025.3.042.59.051.878.766.068,1.553.188,2.347.333.105-.437.2-.906.3-1.389a15.381,15.381,0,0,1,1.672-5.086,12.041,12.041,0,0,1-2.092-.085c-.257.517-.519,1.017-.77,1.494l-.144.275A3.755,3.755,0,0,1,398.753,667.262Zm7.126-23.493c-.979.53-2.028,1.024-3.115,1.485a29.212,29.212,0,0,1,6.1,4.118c.128.113.252.227.374.338a6.526,6.526,0,0,1,.694-.137A30.936,30.936,0,0,0,405.879,643.768Zm-5.226,18.037c-.187.484-.4.959-.612,1.423a11.067,11.067,0,0,0,1.7.044A6.475,6.475,0,0,1,400.654,661.806Zm-1.078,9.545q-.553-.1-1.1-.179a6.1,6.1,0,0,0,1.077.245Zm6.789-28.783c-.2-.183-.4-.364-.6-.542-.268-.237-.536-.469-.81-.7.359.464.737.932,1.122,1.407Zm2.945-2.216a28.829,28.829,0,0,1-3.845.345q.425.355.84.725.39.345.772.7A13.5,13.5,0,0,0,409.309,640.352ZM400.375,671.5c-.028.1-.058.2-.088.287.714.163,1.408.307,2.069.424l.093-.012q.451-.065.91-.085c-.5-.1-1.01-.205-1.523-.313C401.35,671.7,400.861,671.6,400.375,671.5Zm2.394-7.422c-1.064,1.263-1.5,3.386-1.891,5.261-.1.476-.2.94-.3,1.376.474.094.949.194,1.423.293a21.594,21.594,0,0,0,6.092.735c1.573-1.812,1.205-4.393.37-6.928a8.111,8.111,0,0,1-1.4.228A7.328,7.328,0,0,1,402.768,664.079Zm4.2-20.936c-.124.076-.249.15-.376.224a29.7,29.7,0,0,1,4.194,6.134,8.976,8.976,0,0,1,1.34.071A29.94,29.94,0,0,0,406.972,643.143Zm3.573-2.962c-.093.118-.192.236-.3.353a13.2,13.2,0,0,1-2.574,2.163c.616.6,1.211,1.223,1.779,1.863a12.417,12.417,0,0,0,3.327-2.541,6.891,6.891,0,0,0,1.324-2.129A23.534,23.534,0,0,0,410.545,640.181Zm-5.452,23.163a8.956,8.956,0,0,1-1.187.41,6.761,6.761,0,0,0,3.1.482,7.32,7.32,0,0,0,1.192-.188c-.028-.081-.058-.16-.088-.239A17.39,17.39,0,0,0,405.094,663.344Zm5.286-6.9c-.074-.034-.147-.067-.22-.1-1.516-.652-2.614-.612-3.261.117-.549.617.029,2.256.778,4.1.082-.086.162-.173.242-.263A12.776,12.776,0,0,0,410.38,656.444Zm-1.356-5.826c-.1.034-.205.073-.307.115a12.175,12.175,0,0,0,1.887,2.026c.1.091.2.18.307.269-.01-.141-.024-.28-.041-.419A20.6,20.6,0,0,0,409.024,650.618Zm-1.652,11.335a9.672,9.672,0,0,1-.968.7c.438.065.891.151,1.355.247C407.63,662.582,407.5,662.264,407.372,661.953Zm7.567-22.01a7.56,7.56,0,0,1-1.552,2.612,12.686,12.686,0,0,1-3.046,2.431,6.827,6.827,0,0,0,2.875,1.291,11.362,11.362,0,0,1,5.4,2.893c.075.066.151.134.226.2a19.835,19.835,0,0,0-.006-5.36,7.21,7.21,0,0,0-1.022-1.187,6.9,6.9,0,0,0-2.143-1.3l.28-.76.091.033a5.34,5.34,0,0,0,.023-.62A5.723,5.723,0,0,0,414.939,639.943Zm-4.667,10.4c-.109.011-.217.026-.324.044q.282.282.544.56C410.425,650.745,410.351,650.544,410.272,650.344Zm8.452.027c-.217-.21-.431-.409-.642-.6a10.668,10.668,0,0,0-5.069-2.714,9.506,9.506,0,0,1-2.091-.73,25,25,0,0,1,2.226,3.413c.87.18,1.735.438,2.589.692a27.134,27.134,0,0,0,2.872.743C418.649,650.9,418.688,650.634,418.724,650.371Zm-8.065,7.432a14.99,14.99,0,0,1-2.135,3.034q-.252.282-.514.54c.231.561.472,1.144.7,1.737l.787.184.412.1a7.522,7.522,0,0,0,1.537-1.092q-.054-.24-.109-.476A22.1,22.1,0,0,1,410.659,657.8Zm1.954-7.342a9.29,9.29,0,0,0-1.489-.155,9.951,9.951,0,0,1,.527,1.992,14.659,14.659,0,0,1,1.774,2.874c.243.231.486.485.727.757A12.946,12.946,0,0,0,412.612,650.462Zm3.377-11.15a9.572,9.572,0,0,0-.8-2.516,6.569,6.569,0,0,1-.039,2.356A6.562,6.562,0,0,1,415.989,639.311Zm-5.974,24.938a8.363,8.363,0,0,1-.777.329c.8,2.421,1.2,4.919.025,6.921a3.542,3.542,0,0,0,1.551-1.008c1.4-1.576,1.449-3.654,1.1-5.846C411.3,664.536,410.656,664.4,410.015,664.249Zm1.1-7.43c-.032.081-.066.161-.1.242.127-.027.254-.054.381-.078C411.3,656.926,411.2,656.871,411.11,656.819Zm.45-1.474q-.073.345-.179.7c.43.234.839.489,1.214.744q.291-.039.578-.071c-.113-.341-.247-.691-.406-1.05-.052-.049-.105-.1-.158-.143-.308-.274-.624-.54-.94-.8Q411.627,655.029,411.56,655.345Zm-3.1,17.175a2.338,2.338,0,0,1-.22.171c.591.133,1.18.277,1.767.421,4.357,1.064,8.474,2.069,11.66-1.519a3.012,3.012,0,0,0,.96-2.035,2.183,2.183,0,0,0-.865-1.474,15.451,15.451,0,0,0-3.106-1.869,17.694,17.694,0,0,1-2.839-1.652,6.231,6.231,0,0,1-3.068.21c.323,2.267.217,4.509-1.332,6.255A4.651,4.651,0,0,1,408.462,672.521Zm3.931-14.89c-.308.047-.618.1-.925.161a21.275,21.275,0,0,0,.65,3.812,8.49,8.49,0,0,0,1.578-2.694c-.017-.1-.035-.208-.053-.313C413.239,658.254,412.817,657.929,412.393,657.631Zm6.888-5.532-.395-.057a24.222,24.222,0,0,1-3.381-.831c-.638-.191-1.268-.378-1.889-.532a12.793,12.793,0,0,1,1.349,5.888c.413-.026.818-.046,1.209-.066,2.43-.125,4.53-.231,5.482-1.3a2.044,2.044,0,0,0,.4-.72,21.416,21.416,0,0,0-2.618-3.381c-.029.2-.061.4-.093.61Zm-7.636,11.1q-.289.24-.6.449c.241.051.482.1.719.146Q411.708,663.5,411.645,663.2Zm6.631-21.051a3.917,3.917,0,0,0-.916-1.248,3.282,3.282,0,0,0-.484-.356,6.046,6.046,0,0,1-.057.611A7.621,7.621,0,0,1,418.276,642.151Zm-4.369,18.283a9.859,9.859,0,0,1-1.306,1.847q-.129.146-.265.286c.1.453.2.913.28,1.372a6.725,6.725,0,0,0,2.539,0A6.253,6.253,0,0,1,413.907,660.434Zm.867-2.336c-.025.116-.052.23-.082.345.263.237.524.477.782.718-.21-.37-.442-.743-.692-1.107Zm1.542,2.95c-.316-.288-.636-.587-.96-.89-.252-.237-.506-.475-.763-.711.025.181.049.359.071.533.192,1.481.347,2.668,1.265,3.6a1.694,1.694,0,0,0,.257-.236A2.416,2.416,0,0,0,416.316,661.048Zm6.23-5.716a2.242,2.242,0,0,1-.286.4c-1.177,1.327-3.433,1.441-6.046,1.575q-.454.022-.931.049a15.49,15.49,0,0,1,1.177,1.93,10.283,10.283,0,0,1,.562,1.308l.221.2c2.4,2.132,3.838,2.815,5.508.934C424.234,660.061,423.786,657.661,422.547,655.333Zm-.312-2.078c.024-2.17-1.116-5.318-2.419-7.67a27.1,27.1,0,0,1-.238,4.491A23.061,23.061,0,0,1,422.235,653.254Z" transform="translate(-340.367 -626.236)" fill="#1f507b"/>
    </g>
    <g id="Grupo_71815" data-name="Grupo 71815" transform="translate(226.06 4.892)">
      <path id="Trazado_107041" data-name="Trazado 107041" d="M394.361,640.688a15.447,15.447,0,0,1,2.282-3.912c2.239-2.523,4.328-2.471,6.252-1.735a9.452,9.452,0,0,1,1.456-2.129,2.437,2.437,0,0,1,3.212-.708c4.836-3.906,12.294-2.112,17.2,2.244q.413.367.787.747c2.248,2.079,4.372,5.268,4.66,8.232a4.228,4.228,0,0,1,1.05.683,5.815,5.815,0,0,1,1.713,3.4c1.93,2.784,3.847,7.745,3.3,10.6,1.651,2.792,2.357,5.812.45,7.961-2.083,2.346-4.112,1.271-6.032-.331a2.477,2.477,0,0,1-.534,1.946,2.557,2.557,0,0,1-.229.228,20.25,20.25,0,0,0,2.46,1.383,15.985,15.985,0,0,1,3.278,1.985,2.947,2.947,0,0,1,1.136,2.033,3.7,3.7,0,0,1-1.164,2.619c-3.509,3.954-8.058,2.842-12.458,1.768-.984-.24-1.982-.484-2.97-.669a12.44,12.44,0,0,1-3.984-.113c-.417,4.038-1.375,6.924-2.847,8.583a4.352,4.352,0,0,1-3.862,1.566,7.041,7.041,0,0,1-3.709-1.833,9.253,9.253,0,0,1-2.464-3.255c-2.619,0-5.143-.559-6.472-1.738a11.422,11.422,0,0,1-1.435-1.749,26.982,26.982,0,0,1-3.539-2.636,18.624,18.624,0,0,1-3.4-4.043c-1.5-2.522-1.039-3.922-.39-4.653a5.3,5.3,0,0,1,2.407-1.357,6.076,6.076,0,0,1-.937-.666,2.078,2.078,0,0,1-.836-1.774,3.485,3.485,0,0,1,1.01-1.9,20.563,20.563,0,0,1,2.111-1.958,11.932,11.932,0,0,1,.265-3.881,7.084,7.084,0,0,1-.735-2.238c-.026-.18-.044-.357-.054-.534a4.8,4.8,0,0,1-.462-.98,3.778,3.778,0,0,1,.982-3.877c2.525-2.845,4.95-2.333,7.243-.769a12.208,12.208,0,0,1,4.76-1.447,11.216,11.216,0,0,1,1.61-.024l-.054-.125c-2.407-3.159-4.06-6.489-2.839-9.863-1.729-.667-3.407-.636-5.336,1.535a14.9,14.9,0,0,0-2.151,3.711,15.361,15.361,0,0,1-2.257,3.874C390.289,647.77,393.736,642.049,394.361,640.688Zm3.973,7c-2.089-1.338-3.881-1.377-5.865.858a3.151,3.151,0,0,0-.95,2.511,4.422,4.422,0,0,1,.952-1.8c1.415-1.594,3.109-1.585,4.952-.949Q397.871,647.973,398.334,647.685Zm-6.775,18.673a5.819,5.819,0,0,0-2.842,1.347c-.85.959-.207,2.543.481,3.7a17.655,17.655,0,0,0,3.238,3.849,24.661,24.661,0,0,0,2.06,1.633c-.706-1.493-.736-2.662-.078-3.4a3.326,3.326,0,0,1,1.7-.966,32.4,32.4,0,0,1-.215-3.8q-.371-.451-.715-.923A38.153,38.153,0,0,1,391.559,666.358Zm.431-5.888a17.136,17.136,0,0,0-1.628,1.541,2.754,2.754,0,0,0-.808,1.432c-.023.236.014.605.566,1.1a7.1,7.1,0,0,0,1.527.96c.6-.144,1.239-.273,1.889-.4A16.127,16.127,0,0,1,391.99,660.47Zm4.663-11.57a3.2,3.2,0,0,0-3.578.888,4.075,4.075,0,0,0-.932,2.827,7.5,7.5,0,0,0,.729.926A11.577,11.577,0,0,1,394.7,650.8,18.019,18.019,0,0,1,396.653,648.9Zm-4.126,5.455-.1-.105c.02.066.043.131.067.2Zm1.352,3.536a8.5,8.5,0,0,1-1.118-1.25,11.2,11.2,0,0,0-.122,2.241C393.033,658.564,393.448,658.234,393.879,657.892Zm-.711-2.913c-.061.184-.117.367-.168.552a7.654,7.654,0,0,0,1.543,1.871c.073.065.147.129.224.193l.388.319-.393.312c-.727.576-1.417,1.122-2.041,1.634a15.134,15.134,0,0,0,1.64,5.08,12.391,12.391,0,0,0,4.726-1.593c-.454-1.023-.941-2.023-1.406-2.977-.48-.985-.942-1.934-1.33-2.83l-.291-.221c-.9-.682-1.823-1.386-2.646-2.116C393.329,655.126,393.247,655.051,393.168,654.979Zm4.395-5.77a16.811,16.811,0,0,0-2.262,2.132,10.617,10.617,0,0,0-1.819,2.824c.147.141.3.283.468.43.569.506,1.2,1,1.828,1.49-.6-1.753-.73-3.216.161-4.22.853-.96,2.481-1.367,4.631-1.2l-.053-.028A32.067,32.067,0,0,0,397.563,649.209Zm-3.629,16.638c-.352.069-.705.138-1.055.21.457.19.967.39,1.538.6C394.248,666.391,394.087,666.12,393.933,665.847Zm8.728-14.033c-2.934-.657-5.2-.446-6.117.588a2.268,2.268,0,0,0-.4,1.9l.633-.215a15.7,15.7,0,0,0,2.939,4.847c-.027-.134-.052-.268-.074-.4-.332-2.024-.062-3.819.708-4.683a2.017,2.017,0,0,1,.562-.4l.014-.134.27-.007a18.263,18.263,0,0,1,1.821-.681C402.894,652.342,402.775,652.073,402.662,651.813Zm-5.046,5.676a15.137,15.137,0,0,1-1.281-2.315,15.5,15.5,0,0,0,.672,1.847Q397.317,657.257,397.616,657.489Zm1.443-9.3q-.371.219-.732.464c.833.359,1.693.811,2.566,1.269l.464.244c-.314-.29-.629-.578-.945-.858C399.945,648.894,399.495,648.518,399.059,648.192Zm.355,15.915a13.035,13.035,0,0,1-4.644,1.575c.286.489.6.968.925,1.433.247.086.5.174.768.263l.3.1-.024.313c-.012.172-.023.385-.027.628a19.785,19.785,0,0,0,1.945,1.991,16.783,16.783,0,0,0,2.223,1.682C401.342,669.565,400.534,666.775,399.414,664.106Zm3.473-17.368a11.5,11.5,0,0,0-3.051,1.033c.375.293.746.607,1.113.933q.32.284.638.577a11.1,11.1,0,0,1-.515-1.536l-.07-.321.3-.135A10.116,10.116,0,0,1,402.887,646.738Zm-2.847,15.273c.175-.814-.354-1.686-1.651-2.837-.208-.185-.426-.37-.655-.557.215.454.443.921.675,1.4.425.873.868,1.784,1.289,2.716A1.887,1.887,0,0,0,400.04,662.011Zm-3.8,11.32a2.459,2.459,0,0,0-1.213.693c-.645.729.008,2.2.456,3.009.162.295.338.581.518.85a19.946,19.946,0,0,0,6.964,2.806,5.564,5.564,0,0,1,1.515-4.742,5.426,5.426,0,0,1,1.666-1.277,10.543,10.543,0,0,1-4.288-1.112c-.167-.031-.331-.061-.494-.09a7.982,7.982,0,0,1-1.581,2.634,2.38,2.38,0,0,1-1.164.811,1.2,1.2,0,0,1-1.116-.3A6.032,6.032,0,0,1,396.236,673.331Zm7.1-37.225c-.791,2.264-.155,4.522,1.163,6.759a5.143,5.143,0,0,1-.04-2.333,9.7,9.7,0,0,1,.107-3.785C404.147,636.519,403.739,636.3,403.335,636.106Zm3.572-3.32a1.657,1.657,0,0,0-1.951.663,8.606,8.606,0,0,0-1.31,1.913c.393.185.78.389,1.158.593a8.054,8.054,0,0,1,1.583-2.625Q406.64,633.045,406.907,632.786Zm-6.995,39.64a18.274,18.274,0,0,1-1.8-1.411q-.728-.646-1.4-1.367c.026.836.09,1.8.2,2.722A12.907,12.907,0,0,1,399.912,672.426Zm6.221-25.273a11.141,11.141,0,0,0-4.184.742c.185.611.562,1.539,1.058,2.686l.147.132c.193.171.418.361.666.556.584.161,1.169.347,1.746.557.146-.045.3-.09.449-.136.728-.221,1.5-.456,2.313-.706Q407.016,648.9,406.133,647.153Zm-5.228,7.287a5.653,5.653,0,0,0-.465,3.955,9.97,9.97,0,0,0,.49,1.862c.408.415.839.824,1.288,1.224a27,27,0,0,0,4.34,3.158,7.33,7.33,0,0,0,1.31-.1q-.119-.347-.242-.7c-.526-.611-1.074-1.227-1.619-1.838C403.548,659.243,401.21,656.619,400.905,654.44Zm-.372,18.9a14.04,14.04,0,0,0-3.5-.159,5.482,5.482,0,0,0,1,2.833.4.4,0,0,0,.389.116,1.628,1.628,0,0,0,.749-.56A7.136,7.136,0,0,0,400.533,673.337Zm4.764-36.19a8.258,8.258,0,0,0-.163,2.2c1.079-1.019,3.2-.932,6,.256q.5.214,1.027.47c-.213-.379-.432-.774-.658-1.184-.129-.234-.261-.472-.393-.71a7.909,7.909,0,0,1-1.2.253A7.779,7.779,0,0,1,405.3,637.147Zm-1.6,17.017c-.634-.049-1.3-.07-2.015-.062.1,1.95,2.553,4.7,4.928,7.364l.244.273C405.81,658.995,404.667,656.359,403.7,654.164Zm3.925-20.943q-.327.3-.633.646a7.277,7.277,0,0,0-1.471,2.481,7.318,7.318,0,0,0,4.293,1.286,6.847,6.847,0,0,0,.892-.177,17.135,17.135,0,0,0-2.9-4.085C407.742,633.318,407.683,633.268,407.624,633.22Zm-6.788,28.95a2.9,2.9,0,0,1-.713,1.318c-.019.023-.04.044-.061.067,1.261,2.943,2.193,6.062,1.582,8.912l-.015.067q.226.123.449.234c.593.113,1.206.245,1.833.388a3.577,3.577,0,0,1-1.047-2.969,5.184,5.184,0,0,1,1.246-2.867,7.009,7.009,0,0,1,2.539-1.7l-.328-.183a6.3,6.3,0,0,1-3.982-1.579,7.452,7.452,0,0,1-1.475-1.84C400.856,662.068,400.847,662.119,400.836,662.171Zm12.1-20.776a22.313,22.313,0,0,0-2.118-1.042c-2.542-1.078-4.442-1.2-5.216-.328a1.6,1.6,0,0,0-.323.613,22.665,22.665,0,0,0,1.81,5.331,12.9,12.9,0,0,1,2.463.752,25.386,25.386,0,0,1,5.6,1.874,38.639,38.639,0,0,0,3.566-1.651c-.708-.872-1.4-1.751-2.019-2.642a5.329,5.329,0,0,1-2.443-1.2A8.032,8.032,0,0,1,412.94,641.394Zm-12.287,39.585a21.573,21.573,0,0,1-3.295-1.382l.052.048A6.774,6.774,0,0,0,400.652,680.979Zm3.239-28.64-.17-.125c.024.051.046.1.069.155C403.825,652.361,403.858,652.349,403.892,652.339Zm16.225-20.008c-4-1.9-8.57-2.155-11.862.361q.042.036.085.075a18.29,18.29,0,0,1,3.155,4.439,24.162,24.162,0,0,0,2.582-1.178c.448-.226.9-.454,1.352-.663a10.1,10.1,0,0,1,1.24-1.7A3.955,3.955,0,0,1,420.117,632.331Zm-15.375,20.591q-.318.1-.621.193l.127.287a15.182,15.182,0,0,1,1.982.333c-.149-.065-.3-.138-.458-.218C405.428,653.343,405.081,653.139,404.742,652.922Zm-.407,11.257c-.735-.511-1.451-1.065-2.142-1.649a5.989,5.989,0,0,0,.684.72A5.4,5.4,0,0,0,404.335,664.179Zm8.4-1.955-.044-.145c-.624-2.083-1.269-4.236-2.99-5.763a9.272,9.272,0,0,0-5.074-2.055c1.208,2.744,2.586,5.956,3.735,9.194.23.268.456.537.677.805A11.066,11.066,0,0,0,412.735,662.224Zm-3.491-14.756q-.74-.141-1.468-.222c.587.683,1.2,1.363,1.8,2.04q.451.5.9,1.011c.743-.245,1.5-.5,2.252-.773A15.332,15.332,0,0,0,409.244,647.468Zm-.573,4.254c-.652.2-1.285.4-1.888.578l.119.051a8.652,8.652,0,0,0,1.858.139A2.9,2.9,0,0,0,408.671,651.722Zm-1.076,14.386a7.041,7.041,0,0,0-2.879,1.748,4.348,4.348,0,0,0-1.045,2.4,2.757,2.757,0,0,0,.892,2.395,7.014,7.014,0,0,0,2.023,1.153l.181.047a5.877,5.877,0,0,0,3.1-1.025c.007-.036.015-.074.024-.109a35.249,35.249,0,0,0-1.374-6.19C408.2,666.4,407.9,666.258,407.595,666.109Zm.945-12.063a2.1,2.1,0,0,1-1,.082,8.4,8.4,0,0,1,2.7,1.583c1.83,1.625,2.525,3.8,3.162,5.919q.31-.3.594-.619c.032-.036.064-.071.094-.108a6.99,6.99,0,0,0-2.569-4.806A16.4,16.4,0,0,0,408.539,654.046Zm1.1-3.476-.664-.745-.193-.215c.166.383.313.75.434,1.1Zm5.257-14.045-.45.226a25.919,25.919,0,0,1-2.546,1.172q.163.293.321.581c.45.815.889,1.61,1.3,2.289.583.33,1.175.692,1.769,1.082A6.863,6.863,0,0,1,414.891,636.524Zm-4.673,14.707-.637.2q.347.532.728,1.1l.342.507-.6.117q-.327.063-.65.1a1.564,1.564,0,0,1-.155.261,16.731,16.731,0,0,1,2.811,1.974,7.992,7.992,0,0,1,2.716,4.422C415.135,657.2,412.895,654.283,410.219,651.232Zm-2.679,23.8a4.769,4.769,0,0,0-2.459,1.458,4.655,4.655,0,0,0-1.273,4.305,5.587,5.587,0,0,0,4.844-1.646,5.752,5.752,0,0,0,1.274-3.226c-.57-.263-1.25-.5-1.951-.74C407.83,675.127,407.685,675.077,407.539,675.027Zm4.651,3.027a3.244,3.244,0,0,1-.764,1.445c-1.308,1.475-4.233,2.324-7.194,2.467a9.1,9.1,0,0,0,2.113,2.671,6.209,6.209,0,0,0,3.264,1.635,3.53,3.53,0,0,0,3.165-1.3c1.363-1.536,2.255-4.287,2.652-8.181-1.242-.224-2.584-.536-3.979-.887l.042.036a2.109,2.109,0,0,1,.744,1.835A2.352,2.352,0,0,1,412.19,678.055Zm1.265-27.936c-.8.295-1.609.574-2.4.838,2.228,2.563,4.2,5.151,4.53,7.66a7.411,7.411,0,0,0,.71-2.8,6.825,6.825,0,0,0-2.589-5.478Zm.666-1.113q-.784-.338-1.578-.624.541.383,1.073.815Zm-4.729,17.014q-.146-.2-.3-.395l.1.315C409.258,665.968,409.325,666,409.392,666.02Zm6.616-30.033c-1.264,2.4-.675,4.617.7,6.869q.529.384,1.052.793a23.413,23.413,0,0,0,5.3-.355l.4-.057a4.169,4.169,0,0,0,.819-3.184,6.513,6.513,0,0,0-2.29-3.6C419.973,634.656,418.074,635.056,416.008,635.987Zm-5.826,31.178q-.347-.112-.694-.242a38.688,38.688,0,0,1,.985,4.144c.227-.506.494-1.034.779-1.582A8.106,8.106,0,0,0,410.182,667.165Zm3.053-3.357a12.439,12.439,0,0,1-3.347,1.527c.291.385.565.769.814,1.146a14.854,14.854,0,0,0,1.861.445,20.71,20.71,0,0,0,.969-2.331Q413.375,664.212,413.236,663.808Zm2.318-20.781c-.22-.152-.441-.3-.661-.446A4.091,4.091,0,0,0,415.553,643.027Zm9.435-7.249-.207-.188c-2.364-2.1-5.577-3.566-7.507-1.392q-.276.31-.508.616a5.285,5.285,0,0,1,5.763,1.03,7.2,7.2,0,0,1,2.551,4.074,4.779,4.779,0,0,1-.573,3.18,19.931,19.931,0,0,1,3.2-.2,5.893,5.893,0,0,0-.037-2.589A9.781,9.781,0,0,0,424.988,635.778Zm-9.844,13.693c-.276.11-.551.219-.829.325a7.658,7.658,0,0,1,2.786,6.047,8.76,8.76,0,0,1-1.567,4.5,5.219,5.219,0,0,1-.632,1.626,11.108,11.108,0,0,1-.508,2.583,6.114,6.114,0,0,0,1.485,2.158c.061.054.124.107.188.158a3.887,3.887,0,0,1,2.221-.527,8.464,8.464,0,0,0,2.121-1.361c-.969-2.363-1.654-4.227-.753-5.238.621-.7,1.853-1.326,4.185-.324l.156.069a7.826,7.826,0,0,0,.276-1.582c-.286-.239-.569-.48-.846-.726a12.169,12.169,0,0,1-2.294-2.59l-.237-.378.4-.2c.142-.07.282-.134.423-.193l-.03-.026A28.723,28.723,0,0,0,415.144,649.472ZM409.8,673.824c-.1.057-.2.109-.3.16.108,0,.217,0,.327,0C409.814,673.934,409.806,673.88,409.8,673.824Zm.782,3.07a6.013,6.013,0,0,1-1.327,2.787,5.667,5.667,0,0,1-.732.692,5.707,5.707,0,0,0,2.3-1.41,2.32,2.32,0,0,0,.608-1.263,1.314,1.314,0,0,0-.475-1.151,2.735,2.735,0,0,0-.27-.21C410.655,676.529,410.621,676.714,410.583,676.895Zm1.607-9.21q-.437-.083-.876-.192a9.177,9.177,0,0,1,.468.984Q411.985,668.086,412.189,667.685Zm-.074,3.389a3.343,3.343,0,0,1-.8,1.537,5.827,5.827,0,0,1-.567.556c.024.3.042.59.051.876.766.069,1.553.189,2.347.333.1-.435.2-.9.3-1.388a15.382,15.382,0,0,1,1.672-5.086,11.925,11.925,0,0,1-2.092-.086c-.257.517-.519,1.017-.77,1.5l-.145.276A3.728,3.728,0,0,1,412.116,671.074Zm7.127-23.492c-.979.529-2.028,1.023-3.115,1.484a29.24,29.24,0,0,1,6.1,4.119c.127.112.252.226.374.338a6.533,6.533,0,0,1,.694-.138A30.947,30.947,0,0,0,419.243,647.582Zm-5.226,18.037c-.188.483-.4.958-.613,1.422a10.957,10.957,0,0,0,1.7.045A6.463,6.463,0,0,1,414.017,665.619Zm-1.078,9.544c-.369-.066-.735-.127-1.1-.179a5.993,5.993,0,0,0,1.077.245Zm6.789-28.781c-.2-.184-.4-.364-.6-.542q-.4-.355-.81-.7c.359.464.737.932,1.122,1.406C419.539,646.492,419.634,646.436,419.728,646.381Zm2.945-2.217a28.654,28.654,0,0,1-3.845.345c.283.237.564.48.839.725s.518.466.773.7A13.434,13.434,0,0,0,422.673,644.164Zm-8.935,31.149c-.028.1-.059.2-.088.288.714.162,1.407.306,2.069.424l.093-.014c.3-.043.6-.07.909-.085-.5-.1-1.01-.205-1.523-.312C414.713,675.513,414.225,675.41,413.738,675.313Zm2.392-7.421c-1.062,1.262-1.5,3.386-1.89,5.261-.1.476-.2.94-.3,1.375q.711.143,1.423.294a21.543,21.543,0,0,0,6.092.734c1.573-1.812,1.205-4.391.368-6.928a8.1,8.1,0,0,1-1.4.228A7.342,7.342,0,0,1,416.131,667.892Zm4.205-20.937c-.124.076-.249.151-.376.224a29.7,29.7,0,0,1,4.194,6.134,8.993,8.993,0,0,1,1.34.071A30.032,30.032,0,0,0,420.336,646.955Zm3.573-2.962q-.139.177-.3.353a13.1,13.1,0,0,1-2.575,2.163q.925.9,1.78,1.863a12.418,12.418,0,0,0,3.327-2.541,6.914,6.914,0,0,0,1.324-2.129A23.83,23.83,0,0,0,423.909,643.993Zm-5.452,23.163a9.019,9.019,0,0,1-1.187.41,6.744,6.744,0,0,0,3.1.482,7.327,7.327,0,0,0,1.192-.188l-.088-.239A17.418,17.418,0,0,0,418.457,667.156Zm5.286-6.9c-.074-.035-.147-.068-.22-.1-1.516-.651-2.614-.612-3.261.118-.549.617.029,2.255.777,4.1.082-.085.163-.173.243-.263A12.794,12.794,0,0,0,423.743,660.257Zm-1.356-5.827c-.1.035-.205.073-.307.115a12.081,12.081,0,0,0,1.887,2.026c.1.091.2.18.307.269q-.015-.209-.041-.418A20.583,20.583,0,0,0,422.387,654.43Zm-1.652,11.335a9.376,9.376,0,0,1-.969.7c.438.065.891.151,1.356.248C420.994,666.394,420.863,666.077,420.735,665.765Zm7.567-22.009a7.578,7.578,0,0,1-1.552,2.612,12.688,12.688,0,0,1-3.046,2.43,6.822,6.822,0,0,0,2.875,1.291,11.371,11.371,0,0,1,5.4,2.892l.226.2a19.826,19.826,0,0,0-.006-5.358,7.177,7.177,0,0,0-1.022-1.188,6.9,6.9,0,0,0-2.143-1.3l.28-.76.091.033a.711.711,0,0,0-1.107-.858Zm-4.667,10.4c-.109.011-.217.026-.325.043q.284.282.544.56Q423.754,654.457,423.635,654.157Zm8.452.026q-.325-.315-.642-.6a10.661,10.661,0,0,0-5.071-2.714,9.584,9.584,0,0,1-2.091-.731,25.021,25.021,0,0,1,2.227,3.414c.87.18,1.735.438,2.589.692a27.435,27.435,0,0,0,2.872.743Q432.033,654.579,432.087,654.183Zm-8.065,7.434a15.081,15.081,0,0,1-2.135,3.033q-.252.282-.514.54c.231.561.472,1.144.7,1.738l.787.184.412.1a7.508,7.508,0,0,0,1.538-1.091l-.109-.477A21.985,21.985,0,0,1,424.022,661.616Zm1.954-7.343a9.446,9.446,0,0,0-1.489-.155,9.959,9.959,0,0,1,.526,1.993,14.631,14.631,0,0,1,1.776,2.873c.242.231.485.486.727.757A12.95,12.95,0,0,0,425.976,654.274Zm3.377-11.15a9.571,9.571,0,0,0-.8-2.516,6.571,6.571,0,0,1-.039,2.356A6.756,6.756,0,0,1,429.352,643.123Zm-5.974,24.938a7.79,7.79,0,0,1-.777.329c.8,2.421,1.2,4.919.025,6.922a3.553,3.553,0,0,0,1.551-1.009c1.4-1.576,1.449-3.654,1.1-5.845C424.659,668.349,424.019,668.208,423.378,668.061Zm1.1-7.429c-.033.079-.066.161-.1.242.127-.028.254-.054.381-.079C424.659,660.739,424.566,660.683,424.473,660.632Zm.45-1.475q-.073.345-.18.7c.43.234.839.489,1.216.744.193-.026.387-.05.578-.07-.113-.341-.247-.69-.406-1.05-.053-.05-.105-.1-.159-.144-.307-.274-.623-.54-.939-.8Q424.991,658.842,424.923,659.157Zm-3.1,17.175a2.14,2.14,0,0,1-.22.171c.591.134,1.18.277,1.765.421,4.358,1.065,8.476,2.07,11.662-1.518a3.019,3.019,0,0,0,.96-2.036,2.192,2.192,0,0,0-.865-1.474,15.425,15.425,0,0,0-3.107-1.869,17.59,17.59,0,0,1-2.838-1.652,6.2,6.2,0,0,1-3.068.21c.323,2.268.217,4.509-1.332,6.255A4.645,4.645,0,0,1,421.826,676.332Zm3.931-14.888q-.464.068-.925.16a21.385,21.385,0,0,0,.649,3.813,8.491,8.491,0,0,0,1.579-2.7c-.017-.1-.035-.208-.053-.313C426.6,662.068,426.181,661.741,425.757,661.444Zm6.887-5.532-.393-.057a24.3,24.3,0,0,1-3.382-.832c-.637-.19-1.266-.376-1.888-.531a12.792,12.792,0,0,1,1.349,5.887c.413-.025.817-.045,1.208-.066,2.431-.124,4.53-.23,5.482-1.3a2.044,2.044,0,0,0,.4-.72,21.587,21.587,0,0,0-2.618-3.381c-.029.2-.061.4-.094.61Zm-7.635,11.1q-.291.238-.6.448.364.078.72.146C425.091,667.41,425.05,667.213,425.009,667.015Zm6.631-21.051a3.909,3.909,0,0,0-.916-1.25,3.36,3.36,0,0,0-.484-.356,6.077,6.077,0,0,1-.058.612A7.626,7.626,0,0,1,431.639,645.964Zm-4.369,18.282a9.88,9.88,0,0,1-1.306,1.847c-.086.1-.176.194-.266.287.1.452.2.912.281,1.372a6.773,6.773,0,0,0,2.539,0A6.248,6.248,0,0,1,427.271,664.246Zm.867-2.334q-.037.172-.082.344.395.355.781.719c-.209-.371-.441-.743-.691-1.108Zm1.542,2.95c-.316-.289-.636-.589-.96-.891-.252-.236-.507-.474-.763-.71.025.181.048.358.07.532.193,1.482.348,2.669,1.265,3.6a1.646,1.646,0,0,0,.259-.236A2.414,2.414,0,0,0,429.68,664.861Zm6.23-5.716a2.333,2.333,0,0,1-.286.4c-1.178,1.328-3.433,1.442-6.046,1.575-.3.015-.615.031-.931.05a15.546,15.546,0,0,1,1.177,1.93,10.43,10.43,0,0,1,.562,1.307c.074.067.147.134.221.2,2.4,2.132,3.838,2.815,5.508.934C437.6,663.873,437.149,661.474,435.91,659.146Zm-.312-2.079c.024-2.17-1.116-5.317-2.418-7.671a27.1,27.1,0,0,1-.238,4.491A23.05,23.05,0,0,1,435.6,657.066Z" transform="translate(-387.501 -630.048)" fill="#1f507b"/>
    </g>
    <g id="Grupo_71868" data-name="Grupo 71868" transform="translate(125.024 24.416)">
      <g id="Grupo_71867" data-name="Grupo 71867" transform="translate(0 0)" clip-path="url(#clip-path-3)">
        <g id="Grupo_71866" data-name="Grupo 71866">
          <ellipse id="Elipse_5374" data-name="Elipse 5374" cx="19.665" cy="19.665" rx="19.665" ry="19.665" transform="matrix(0.693, -0.721, 0.721, 0.693, 0, 28.363)" fill="#1e3549"/>
          <g id="Grupo_71865" data-name="Grupo 71865" transform="translate(5.968 6.485)">
            <g id="Grupo_71827" data-name="Grupo 71827" transform="translate(1.027)">
              <g id="Grupo_71816" data-name="Grupo 71816" transform="translate(3.392 5.622)">
                <path id="Trazado_107042" data-name="Trazado 107042" d="M308.679,684.421a15.461,15.461,0,0,1,.553-12.779c4.617-9.613,18.7-17.137,29.258-12.064a15.118,15.118,0,0,1,2.789,1.737l-.5.637a14.272,14.272,0,0,0-2.64-1.644c-10.156-4.879-23.72,2.4-28.178,11.684a14.675,14.675,0,0,0-.532,12.126Z" transform="translate(-307.554 -657.947)" fill="#1f507b"/>
              </g>
              <g id="Grupo_71817" data-name="Grupo 71817" transform="translate(6.449 10.138)">
                <path id="Trazado_107043" data-name="Trazado 107043" d="M310.4,686.867a20.559,20.559,0,0,1,1.92-11.42c4.865-10.128,18-17.165,29.792-11.5.4.2.808.4,1.208.63l-.4.705c-.384-.218-.771-.418-1.16-.605-11.359-5.456-24.016,1.345-28.711,11.12a19.733,19.733,0,0,0-1.846,10.97Z" transform="translate(-310.249 -661.929)" fill="#1f507b"/>
              </g>
              <g id="Grupo_71818" data-name="Grupo 71818" transform="translate(8.898 11.67)">
                <path id="Trazado_107044" data-name="Trazado 107044" d="M312.41,688.744a29.217,29.217,0,0,1,2.814-10.211c5.283-11,17.255-19.109,29.918-13.341l-.337.737c-12.188-5.552-23.739,2.314-28.851,12.954a28.355,28.355,0,0,0-2.737,9.926Z" transform="translate(-312.41 -663.281)" fill="#1f507b"/>
              </g>
              <g id="Grupo_71819" data-name="Grupo 71819" transform="translate(9.787 14.686)">
                <path id="Trazado_107045" data-name="Trazado 107045" d="M313.194,691.814A37.589,37.589,0,0,1,315,687.347c5.876-12.233,17.776-20.836,29.612-21.407l.04.81c-11.548.557-23.17,8.974-28.922,20.948a36.785,36.785,0,0,0-1.768,4.371Z" transform="translate(-313.194 -665.94)" fill="#1f507b"/>
              </g>
              <g id="Grupo_71820" data-name="Grupo 71820" transform="translate(20.341)">
                <path id="Trazado_107046" data-name="Trazado 107046" d="M336.935,685.678c-8.471-7.032-14.605-23.059-14.429-32.69l.808.014c-.171,9.448,5.838,25.164,14.137,32.054Z" transform="translate(-322.502 -652.988)" fill="#1f507b"/>
              </g>
              <g id="Grupo_71821" data-name="Grupo 71821" transform="translate(17.672 0.701)">
                <path id="Trazado_107047" data-name="Trazado 107047" d="M336.535,689.663c-10.615-7.87-12.934-19.16-15.386-31.111-.324-1.581-.652-3.174-1-4.774l.791-.172c.349,1.6.677,3.2,1,4.783,2.421,11.8,4.709,22.939,15.077,30.625Z" transform="translate(-320.148 -653.606)" fill="#1f507b"/>
              </g>
              <g id="Grupo_71822" data-name="Grupo 71822" transform="translate(14.073 1.24)">
                <path id="Trazado_107048" data-name="Trazado 107048" d="M334.526,693.011c-9.672-8.671-11.636-16.677-13.908-25.945a120.987,120.987,0,0,0-3.644-12.71l.762-.274a121.86,121.86,0,0,1,3.669,12.792c2.332,9.515,4.175,17.03,13.661,25.535Z" transform="translate(-316.974 -654.082)" fill="#1f507b"/>
              </g>
              <g id="Grupo_71823" data-name="Grupo 71823" transform="translate(1.53 4.798)">
                <path id="Trazado_107049" data-name="Trazado 107049" d="M305.911,678.743a23.849,23.849,0,0,1,2.041-6.583c4.27-8.886,14.453-14.75,25.946-14.94l.012.81c-11.189.184-21.091,5.868-25.228,14.48a23.007,23.007,0,0,0-1.972,6.361Z" transform="translate(-305.911 -657.22)" fill="#1f507b"/>
              </g>
              <g id="Grupo_71824" data-name="Grupo 71824" transform="translate(1.96 13.93)">
                <path id="Trazado_107050" data-name="Trazado 107050" d="M306.291,666.038l.265-.764c1.214.422,2.466.871,3.744,1.329,10.834,3.882,23.112,8.283,33.889,4.837l.247.771c-11.039,3.53-24-1.115-34.41-4.846C308.751,666.907,307.5,666.46,306.291,666.038Z" transform="translate(-306.291 -665.274)" fill="#1f507b"/>
              </g>
              <g id="Grupo_71825" data-name="Grupo 71825" transform="translate(1.016 15.835)">
                <path id="Trazado_107051" data-name="Trazado 107051" d="M305.458,667.69l.338-.736c7.895,3.631,23.115,9.225,36.332,5.908l.2.785C329.541,676.855,315.22,672.178,305.458,667.69Z" transform="translate(-305.458 -666.954)" fill="#1f507b"/>
              </g>
              <g id="Grupo_71826" data-name="Grupo 71826" transform="translate(0 19.159)">
                <path id="Trazado_107052" data-name="Trazado 107052" d="M304.562,670.676l.175-.791c1.965.435,3.923.909,6,1.412,10.785,2.611,21.938,5.311,32.487,2.059l.239.775c-10.764,3.316-22.025.59-32.917-2.047C308.473,671.582,306.519,671.11,304.562,670.676Z" transform="translate(-304.562 -669.885)" fill="#1f507b"/>
              </g>
            </g>
            <g id="Grupo_71839" data-name="Grupo 71839" transform="translate(1.116 1.324)">
              <g id="Grupo_71828" data-name="Grupo 71828" transform="translate(2.902 6.754)">
                <path id="Trazado_107053" data-name="Trazado 107053" d="M307.2,674.432a15.558,15.558,0,0,1,7-10.439c8.762-5.857,24.339-5.465,30.534,3.8a13.873,13.873,0,0,1,1.437,2.786l-.757.287a13.013,13.013,0,0,0-1.352-2.623c-5.948-8.9-20.955-9.235-29.412-3.582a14.775,14.775,0,0,0-6.649,9.9Z" transform="translate(-307.199 -660.113)" fill="#1f507b"/>
              </g>
              <g id="Grupo_71829" data-name="Grupo 71829" transform="translate(3.108 11.835)">
                <path id="Trazado_107054" data-name="Trazado 107054" d="M307.381,677.311a20.912,20.912,0,0,1,7.439-8.649c9.232-6.172,23.768-5.825,30.69,4.531q.357.534.684,1.1l-.7.4q-.313-.546-.655-1.057c-6.653-9.951-20.659-10.261-29.566-4.306a20.1,20.1,0,0,0-7.153,8.312Z" transform="translate(-307.381 -664.594)" fill="#1f507b"/>
              </g>
              <g id="Grupo_71830" data-name="Grupo 71830" transform="translate(3.97 15.077)">
                <path id="Trazado_107055" data-name="Trazado 107055" d="M308.8,680.219l-.655-.474a29.882,29.882,0,0,1,7.565-7.212c10.023-6.7,24.144-7.806,31.735,3.048l-.663.464c-7.293-10.425-20.926-9.321-30.622-2.838A29.046,29.046,0,0,0,308.8,680.219Z" transform="translate(-308.141 -667.453)" fill="#1f507b"/>
              </g>
              <g id="Grupo_71831" data-name="Grupo 71831" transform="translate(2.955 20.907)">
                <path id="Trazado_107056" data-name="Trazado 107056" d="M307.777,682.962l-.531-.612a38.806,38.806,0,0,1,3.788-2.882c11.15-7.453,25.46-9.006,35.6-3.862l-.366.722c-9.862-5-23.869-3.483-34.783,3.812A37.68,37.68,0,0,0,307.777,682.962Z" transform="translate(-307.246 -672.595)" fill="#1f507b"/>
              </g>
              <g id="Grupo_71832" data-name="Grupo 71832" transform="translate(26.313 1.706)">
                <path id="Trazado_107057" data-name="Trazado 107057" d="M329.31,689.9c-3.453-9.915-.356-26.255,4.719-34.241l.683.434c-4.976,7.829-8.015,23.837-4.637,33.541Z" transform="translate(-327.847 -655.661)" fill="#1f507b"/>
              </g>
              <g id="Grupo_71833" data-name="Grupo 71833" transform="translate(22.864 1.171)">
                <path id="Trazado_107058" data-name="Trazado 107058" d="M327.042,693.034c-4.811-11.64-.962-22.2,3.114-33.374.539-1.479,1.082-2.967,1.609-4.472l.764.268c-.528,1.508-1.073,3-1.613,4.481-4.018,11.024-7.816,21.437-3.125,32.788Z" transform="translate(-324.805 -655.189)" fill="#1f507b"/>
              </g>
              <g id="Grupo_71834" data-name="Grupo 71834" transform="translate(19.522)">
                <path id="Trazado_107059" data-name="Trazado 107059" d="M323.663,694.871c-3.614-11.861-1.15-19.5,1.7-28.342a118.328,118.328,0,0,0,3.472-12.374l.791.168a118.967,118.967,0,0,1-3.492,12.454c-2.926,9.073-5.238,16.24-1.7,27.857Z" transform="translate(-321.858 -654.156)" fill="#1f507b"/>
              </g>
              <g id="Grupo_71835" data-name="Grupo 71835" transform="translate(0 6.162)">
                <path id="Trazado_107060" data-name="Trazado 107060" d="M305.257,673.864l-.617-.523c1.493-1.764,6.566-8.388,8.435-9.638,8.1-5.414,19.562-5.49,29.24-.187l-.39.71c-9.4-5.166-20.549-5.1-28.4.15C311.72,665.583,306.7,672.157,305.257,673.864Z" transform="translate(-304.64 -659.59)" fill="#1f507b"/>
              </g>
              <g id="Grupo_71836" data-name="Grupo 71836" transform="translate(9.684 4.784)">
                <path id="Trazado_107061" data-name="Trazado 107061" d="M335.905,680.172c-8.2-3.938-14.793-11.817-20.294-18.387-.829-.989-1.638-1.956-2.431-2.885l.616-.525c.795.93,1.606,1.9,2.436,2.89,7.024,8.39,14.988,17.9,25.712,20.132l-.164.793A25.6,25.6,0,0,1,335.905,680.172Z" transform="translate(-313.181 -658.375)" fill="#1f507b"/>
              </g>
              <g id="Grupo_71837" data-name="Grupo 71837" transform="translate(7.936 5.967)">
                <path id="Trazado_107062" data-name="Trazado 107062" d="M333.782,680.305c-10.241-4.919-18.07-14.56-22.143-20.425l.666-.461c4.71,6.785,14.506,18.691,27.2,22.186l-.215.781A32.854,32.854,0,0,1,333.782,680.305Z" transform="translate(-311.639 -659.419)" fill="#1f507b"/>
              </g>
              <g id="Grupo_71838" data-name="Grupo 71838" transform="translate(5.366 8.185)">
                <path id="Trazado_107063" data-name="Trazado 107063" d="M332.708,680.8c-7.216-3.466-13.222-9.212-19.078-14.815-1.465-1.4-2.848-2.725-4.257-4.017l.548-.6c1.413,1.3,2.8,2.625,4.269,4.03,7.636,7.3,15.531,14.857,25.968,17.143l-.173.791A33.155,33.155,0,0,1,332.708,680.8Z" transform="translate(-309.373 -661.375)" fill="#1f507b"/>
              </g>
            </g>
            <g id="Grupo_71851" data-name="Grupo 71851" transform="translate(0 1.522)">
              <g id="Grupo_71840" data-name="Grupo 71840" transform="translate(16.834 0.415)">
                <path id="Trazado_107064" data-name="Trazado 107064" d="M327.814,692.735l-.39-.709a13.063,13.063,0,0,0,2.407-1.706c3.524-3.157,5.422-8.387,5.209-14.351a24.787,24.787,0,0,0-5.8-15.273,14.773,14.773,0,0,0-10.739-5.191l.022-.81a15.563,15.563,0,0,1,11.319,5.461,25.612,25.612,0,0,1,6.006,15.783c.222,6.206-1.776,11.667-5.479,14.984A13.869,13.869,0,0,1,327.814,692.735Z" transform="translate(-318.503 -654.696)" fill="#1f507b"/>
              </g>
              <g id="Grupo_71841" data-name="Grupo 71841" transform="translate(13.212 1.11)">
                <path id="Trazado_107065" data-name="Trazado 107065" d="M323.979,693.311l-.5-.638c.33-.257.647-.522.954-.8a18.8,18.8,0,0,0,6.041-14.668A23.783,23.783,0,0,0,324.543,662a20.076,20.076,0,0,0-9.235-5.912l.229-.777a20.9,20.9,0,0,1,9.609,6.149,24.611,24.611,0,0,1,6.14,15.734,19.6,19.6,0,0,1-6.311,15.287Q324.5,692.908,323.979,693.311Z" transform="translate(-315.308 -655.309)" fill="#1f507b"/>
              </g>
              <g id="Grupo_71842" data-name="Grupo 71842" transform="translate(10.396 2.358)">
                <path id="Trazado_107066" data-name="Trazado 107066" d="M322.852,694.735l-.552-.592c9.3-8.688,6.286-22.028-1.5-30.717a29.029,29.029,0,0,0-7.979-6.3l.378-.717a29.841,29.841,0,0,1,8.2,6.477C329.451,671.869,332.53,685.693,322.852,694.735Z" transform="translate(-312.825 -656.41)" fill="#1f507b"/>
              </g>
              <g id="Grupo_71843" data-name="Grupo 71843" transform="translate(6.84 1.818)">
                <path id="Trazado_107067" data-name="Trazado 107067" d="M321.668,693.719c3.575-10.5.093-24.122-8.665-33.9a37.925,37.925,0,0,0-3.314-3.276l.532-.61a38.755,38.755,0,0,1,3.386,3.346c8.946,9.989,12.494,23.935,8.827,34.7Z" transform="translate(-309.689 -655.933)" fill="#1f507b"/>
              </g>
              <g id="Grupo_71844" data-name="Grupo 71844" transform="translate(5.626 23.792)">
                <path id="Trazado_107068" data-name="Trazado 107068" d="M308.99,679.376l-.372-.72c9.333-4.811,25.946-4.043,34.565-.142l-.333.738C334.4,675.426,318.122,674.667,308.99,679.376Z" transform="translate(-308.618 -675.313)" fill="#1f507b"/>
              </g>
              <g id="Grupo_71845" data-name="Grupo 71845" transform="translate(2.212 20.784)">
                <path id="Trazado_107069" data-name="Trazado 107069" d="M306.017,677.491l-.41-.7c10.849-6.4,21.842-4.073,33.481-1.609,1.539.326,3.089.654,4.653.965l-.159.794c-1.567-.311-3.12-.639-4.662-.966C327.44,673.547,316.6,671.252,306.017,677.491Z" transform="translate(-305.607 -672.66)" fill="#1f507b"/>
              </g>
              <g id="Grupo_71846" data-name="Grupo 71846" transform="translate(0 17.699)">
                <path id="Trazado_107070" data-name="Trazado 107070" d="M304,674.395l-.342-.734c11.235-5.245,19.143-3.88,28.3-2.3a118.43,118.43,0,0,0,12.738,1.7l-.054.807a118.676,118.676,0,0,1-12.822-1.706C322.425,670.539,315,669.257,304,674.395Z" transform="translate(-303.656 -669.94)" fill="#1f507b"/>
              </g>
              <g id="Grupo_71847" data-name="Grupo 71847" transform="translate(22.687)">
                <path id="Trazado_107071" data-name="Trazado 107071" d="M332.842,687.342c3.785-10.032,2.159-21.061-4.142-28.1a23.567,23.567,0,0,0-5.035-4.232l.431-.685a24.405,24.405,0,0,1,5.208,4.377c6.5,7.257,8.185,18.61,4.3,28.921Z" transform="translate(-323.665 -654.33)" fill="#1f507b"/>
              </g>
              <g id="Grupo_71848" data-name="Grupo 71848" transform="translate(14.379 4.915)">
                <path id="Trazado_107072" data-name="Trazado 107072" d="M316.338,690.254c.719-11.21,9.481-20.95,16.522-28.775.864-.96,1.708-1.9,2.516-2.814l.608.535c-.811.918-1.657,1.858-2.522,2.82-7.32,8.135-15.615,17.356-16.317,28.286Z" transform="translate(-316.338 -658.665)" fill="#1f507b"/>
              </g>
              <g id="Grupo_71849" data-name="Grupo 71849" transform="translate(13.667 3.343)">
                <path id="Trazado_107073" data-name="Trazado 107073" d="M315.71,687.812c1.711-13.307,12.26-24.844,18.4-30.534l.55.593c-6.055,5.617-16.465,16.991-18.144,30.045Z" transform="translate(-315.71 -657.278)" fill="#1f507b"/>
              </g>
              <g id="Grupo_71850" data-name="Grupo 71850" transform="translate(12.522 1.129)">
                <path id="Trazado_107074" data-name="Trazado 107074" d="M314.7,688.637c.813-10.883,7.249-19.856,13.472-28.533,1.181-1.647,2.3-3.2,3.379-4.778l.668.458c-1.087,1.581-2.205,3.141-3.389,4.791-6.159,8.588-12.527,17.467-13.323,28.123Z" transform="translate(-314.7 -655.326)" fill="#1f507b"/>
              </g>
            </g>
            <g id="Grupo_71852" data-name="Grupo 71852" transform="translate(17.996 1.498)">
              <path id="Trazado_107075" data-name="Trazado 107075" d="M320.754,694.186c-3.026-10.111.066-22.368,3.674-31.732,1.034-2.684,2.1-5.458,2.963-8.145l.771.246c-.867,2.71-1.941,5.5-2.979,8.19-3.559,9.237-6.6,21.364-3.653,31.209Z" transform="translate(-319.527 -654.309)" fill="#2d648e"/>
            </g>
            <g id="Grupo_71853" data-name="Grupo 71853" transform="translate(12.633 2.116)">
              <path id="Trazado_107076" data-name="Trazado 107076" d="M317.138,694c-3.966-8.107-2.887-18.651,3.207-31.337,1.188-2.473,2.558-5.026,4.186-7.8l.7.409c-1.617,2.759-2.976,5.293-4.154,7.745-5.982,12.452-7.062,22.758-3.21,30.631Z" transform="translate(-314.798 -654.854)" fill="#2d648e"/>
            </g>
            <g id="Grupo_71854" data-name="Grupo 71854" transform="translate(8.494 1.982)">
              <path id="Trazado_107077" data-name="Trazado 107077" d="M313.34,691.729c-4.639-11.041-1.028-21.21,2.634-28.835,1.364-2.839,2.882-5.6,4.321-8.158l.705.4c-1.432,2.548-2.942,5.293-4.3,8.111-3.813,7.937-7.1,17.49-2.617,28.171Z" transform="translate(-311.147 -654.736)" fill="#2d648e"/>
            </g>
            <g id="Grupo_71855" data-name="Grupo 71855" transform="translate(19.838 2.387)">
              <path id="Trazado_107078" data-name="Trazado 107078" d="M323.168,693.654c-5.09-12.425.412-26.419,5.969-38.561l.736.337c-5.485,11.988-10.923,25.791-5.955,37.918Z" transform="translate(-321.152 -655.093)" fill="#2d648e"/>
            </g>
            <g id="Grupo_71856" data-name="Grupo 71856" transform="translate(14.368 1.634)">
              <path id="Trazado_107079" data-name="Trazado 107079" d="M337.793,690.4c-12.5-12.331-19.722-24.393-21.465-35.854l.8-.121c1.716,11.285,8.859,23.194,21.231,35.4Z" transform="translate(-316.328 -654.429)" fill="#2d648e"/>
            </g>
            <g id="Grupo_71857" data-name="Grupo 71857" transform="translate(11.73 2.1)">
              <path id="Trazado_107080" data-name="Trazado 107080" d="M335.25,690.64c-9.278-6.466-13.348-16.5-17.284-26.2-1.244-3.067-2.531-6.24-3.965-9.253l.732-.348c1.443,3.036,2.734,6.219,3.983,9.3,3.891,9.591,7.915,19.509,17,25.838Z" transform="translate(-314.001 -654.84)" fill="#2d648e"/>
            </g>
            <g id="Grupo_71858" data-name="Grupo 71858" transform="translate(9.94 4.72)">
              <path id="Trazado_107081" data-name="Trazado 107081" d="M335.479,693.057c-11.538-7.914-16.914-20.834-22.111-33.328l-.945-2.267.746-.312.946,2.268c5.152,12.385,10.481,25.193,21.822,32.971Z" transform="translate(-312.423 -657.151)" fill="#2d648e"/>
            </g>
            <g id="Grupo_71859" data-name="Grupo 71859" transform="translate(7.909 5.073)">
              <path id="Trazado_107082" data-name="Trazado 107082" d="M336.749,695.306c-13-9.149-20.788-24.863-26.118-37.53l.745-.314c5.288,12.568,13.005,28.152,25.839,37.182Z" transform="translate(-310.631 -657.462)" fill="#2d648e"/>
            </g>
            <g id="Grupo_71860" data-name="Grupo 71860" transform="translate(0.811 15.877)">
              <path id="Trazado_107083" data-name="Trazado 107083" d="M304.371,673.152l.229-.777c15.06,4.446,26.424-.329,38.457-5.385l.313.746C331.2,672.85,319.707,677.679,304.371,673.152Z" transform="translate(-304.371 -666.991)" fill="#2d648e"/>
            </g>
            <g id="Grupo_71861" data-name="Grupo 71861" transform="translate(0 17.528)">
              <path id="Trazado_107084" data-name="Trazado 107084" d="M303.656,675.76l.223-.778c14.729,4.222,28.41,2.085,41.828-6.536l.438.681C332.519,677.882,318.622,680.051,303.656,675.76Z" transform="translate(-303.656 -668.447)" fill="#2d648e"/>
            </g>
            <g id="Grupo_71862" data-name="Grupo 71862" transform="translate(1.99 20.366)">
              <path id="Trazado_107085" data-name="Trazado 107085" d="M305.411,677.973l.186-.788c14.576,3.424,25.941,1.559,38-6.235l.44.68C331.775,679.555,320.222,681.453,305.411,677.973Z" transform="translate(-305.411 -670.95)" fill="#2d648e"/>
            </g>
            <g id="Grupo_71863" data-name="Grupo 71863" transform="translate(3.194 20.801)">
              <path id="Trazado_107086" data-name="Trazado 107086" d="M306.473,679.832l.2-.786c13.777,3.449,28.343.566,38.96-7.712l.5.638C335.315,680.4,320.491,683.34,306.473,679.832Z" transform="translate(-306.473 -671.334)" fill="#2d648e"/>
            </g>
            <g id="Grupo_71864" data-name="Grupo 71864" transform="translate(0.279 14.878)">
              <path id="Trazado_107087" data-name="Trazado 107087" d="M303.9,671.677l.17-.79c10.925,2.337,27.439,2.489,38.023-4.777l.458.668C331.757,674.189,314.984,674.049,303.9,671.677Z" transform="translate(-303.902 -666.11)" fill="#2d648e"/>
            </g>
          </g>
        </g>
      </g>
    </g>
    <g id="Grupo_71869" data-name="Grupo 71869" transform="translate(143.318 23.103)">
      <path id="Trazado_107088" data-name="Trazado 107088" d="M318.416,694.772a25.222,25.222,0,0,1-3.889-2.337l.544-.751c5.12,3.712,10.615,4.973,15.891,3.64a20.082,20.082,0,0,0,12.828-10.878c5.269-10.968,3.2-18.444,1.382-25.041-1.316-4.763-2.451-8.877-.507-13.3l.85.374c-1.812,4.116-.718,8.082.551,12.674,1.773,6.42,3.98,14.409-1.44,25.689a21.019,21.019,0,0,1-13.438,11.377A18.519,18.519,0,0,1,318.416,694.772Z" transform="translate(-314.527 -646.11)" fill="#1f507b"/>
    </g>
    <g id="Grupo_71870" data-name="Grupo 71870" transform="translate(133.071 30.193)">
      <path id="Trazado_107089" data-name="Trazado 107089" d="M317.406,692.056c-10.38-8.006-14.574-19.958-10.2-29.065.192-.4.378-.791.559-1.177,2.739-5.812,4.9-10.4,17.111-9.282l-.086.925c-11.56-1.062-13.5,3.053-16.184,8.752-.184.388-.37.782-.561,1.184-4.184,8.708-.1,20.191,9.929,27.927Z" transform="translate(-305.489 -652.363)" fill="#1f507b"/>
    </g>
  </g>
</svg>
