<svg xmlns="http://www.w3.org/2000/svg" width="352.362" height="301.719" viewBox="0 0 352.362 301.719">
  <g id="Grupo_72633" data-name="Grupo 72633" transform="translate(-25.094 -246.727)">
    <path id="Trazado_108017" data-name="Trazado 108017" d="M95.255,525.889c-9.622-6.7-17.3-15.816-24.189-25.307a249.314,249.314,0,0,1-41.864-94c-4.17-19.527-5.914-40.186.1-59.227s21.074-36.151,40.651-40.087c5.386-1.084,11.155-1.125,16.188,1.076,4.675,2.044,8.335,5.828,11.787,9.587,15.466,16.846,29.424,35.126,46.126,50.748,6.371,5.958,13.369,11.646,21.719,14.163,11.913,3.592,24.8.229,36.3-4.513,23.531-9.7,44.37-25.03,67.683-35.239s51.331-14.78,73.629-2.509c21.545,11.857,32.929,37.358,33.649,61.939s-7.625,48.509-17.435,71.059c-7.383,16.971-16.461,34.451-32.289,44.042" transform="translate(0 22.245)" fill="#94bdff" stroke="#94bdff" stroke-miterlimit="10" stroke-width="0.762" opacity="0.44"/>
    <g id="Grupo_72632" data-name="Grupo 72632" transform="translate(52.389 246.727)">
      <path id="Trazado_108018" data-name="Trazado 108018" d="M352.3,461.947c0,1.851-68.775,3.35-153.613,3.35s-153.612-1.5-153.612-3.35,68.775-3.349,153.612-3.349S352.3,460.1,352.3,461.947Z" transform="translate(-45.076 -167.942)" fill="#94bdff" stroke="#94bdff" stroke-miterlimit="10" stroke-width="0.341"/>
      <g id="Grupo_72631" data-name="Grupo 72631" transform="translate(7.934)">
        <g id="Grupo_72611" data-name="Grupo 72611" transform="translate(0 13.794)">
          <g id="Grupo_72595" data-name="Grupo 72595" transform="translate(50.018 28.994)">
            <g id="Grupo_72587" data-name="Grupo 72587" transform="translate(41.036)">
              <path id="Trazado_108019" data-name="Trazado 108019" d="M135.229,280.158s4.472,5.2,6.313,6.885C141.542,287.044,141.135,277.174,135.229,280.158Z" transform="translate(-110.539 -277.293)" fill="#d4427f"/>
              <path id="Trazado_108020" data-name="Trazado 108020" d="M143.912,280.654s-3.1-3.5-20.133-2.585c-13.562.727-5.171,35.28,17.03,29.8C151.169,303.079,143.912,280.654,143.912,280.654Z" transform="translate(-117.232 -277.917)" fill="#d4427f"/>
              <path id="Trazado_108021" data-name="Trazado 108021" d="M136.345,287.254a18.2,18.2,0,0,0,3.137,1.967c.3.13.219.624-.067.789l-2.056,1.181Z" transform="translate(-110.124 -274.445)" fill="#ffc2bd"/>
              <g id="Grupo_72586" data-name="Grupo 72586" transform="translate(7.475 3.556)">
                <path id="Trazado_108022" data-name="Trazado 108022" d="M126.787,293.814c.062.237-.18.447-.417.446a3.344,3.344,0,0,0-3.67,2.95c-.325,2.708,3.314,3.192,4.812,3.277a1.632,1.632,0,0,1,1.128.556c.9,1.017,2.181,2.627,3.517,4.129.189.214-1.447,12.831-1.447,12.831s8.9,3.576,13.47.279c0,0-3.212-13.388-2.6-15.037,1.117-.226,7.178-3.549,5-13.911-2.052-9.765-9.748-8.982-11.473-8.665C133.656,280.937,123.61,281.785,126.787,293.814Z" transform="translate(-122.68 -280.51)" fill="#ffc2bd"/>
                <path id="Trazado_108023" data-name="Trazado 108023" d="M137.865,297.286a7.609,7.609,0,0,1-4.812-.163c-2.088-1,3.881,5.638,5.383,5.22A48.866,48.866,0,0,1,137.865,297.286Z" transform="translate(-118.986 -274.37)" fill="#021e2b"/>
                <path id="Trazado_108024" data-name="Trazado 108024" d="M123.938,292.933s1.488-3.255,3.379,1.106" transform="translate(-122.212 -276.324)" fill="#cf484b"/>
                <g id="Grupo_72585" data-name="Grupo 72585" transform="translate(13.116 7.392)">
                  <path id="Trazado_108025" data-name="Trazado 108025" d="M141.069,291.728l-4.726.742s1.539,2.085,2.869,1.631S141.069,291.728,141.069,291.728Z" transform="translate(-130.715 -283.73)" fill="#fff"/>
                  <path id="Trazado_108026" data-name="Trazado 108026" d="M137.9,289.106l.121,2.424,1.224-.309a.307.307,0,0,0,.148-.506Z" transform="translate(-130.137 -284.705)" fill="#cf484b"/>
                  <path id="Trazado_108027" data-name="Trazado 108027" d="M135.078,288.022c-.377.373.051-1.082.609-1.339a1.047,1.047,0,0,1,1.414.409A3.268,3.268,0,0,0,135.078,288.022Z" transform="translate(-131.239 -285.649)" fill="#021e2b"/>
                  <path id="Trazado_108028" data-name="Trazado 108028" d="M140,286.747a3.271,3.271,0,0,0-1.9.13,1.046,1.046,0,0,1,1.1-.979,1.381,1.381,0,0,1,.76.34S140.211,286.78,140,286.747Z" transform="translate(-130.065 -285.898)" fill="#021e2b"/>
                  <path id="Trazado_108029" data-name="Trazado 108029" d="M136.64,289.716c.092.418.331.722.532.678s.294-.42.2-.838-.331-.72-.534-.676S136.548,289.3,136.64,289.716Z" transform="translate(-130.618 -284.791)" fill="#021e2b"/>
                  <path id="Trazado_108030" data-name="Trazado 108030" d="M138.74,289.251c.088.4.316.687.509.646s.28-.4.192-.8-.316-.689-.509-.646S138.653,288.85,138.74,289.251Z" transform="translate(-129.837 -284.95)" fill="#021e2b"/>
                  <path id="Trazado_108031" data-name="Trazado 108031" d="M132.393,293.923a2.324,2.324,0,1,0,1.347-3A2.325,2.325,0,0,0,132.393,293.923Z" transform="translate(-132.241 -284.085)" fill="#ff859f"/>
                </g>
              </g>
              <path id="Trazado_108032" data-name="Trazado 108032" d="M142.878,280.977s-7.75,14.437-17.782,12.724C125.1,293.7,121.3,275.334,142.878,280.977Z" transform="translate(-114.403 -277.18)" fill="#d4427f" stroke="#d4427f" stroke-linecap="round" stroke-linejoin="round" stroke-width="0.799"/>
              <path id="Trazado_108033" data-name="Trazado 108033" d="M125.218,294.578a1.3,1.3,0,1,0,1.3-1.3A1.3,1.3,0,0,0,125.218,294.578Z" transform="translate(-114.262 -272.206)" fill="#fff"/>
            </g>
            <g id="Grupo_72588" data-name="Grupo 72588" transform="translate(70.015 39.73)">
              <path id="Trazado_108034" data-name="Trazado 108034" d="M144.725,355.132c5.841,8.633,12.746,18.761,18.84,24.359,5.168,4.747,12.62,12.5,14.555,13.307.554.23.6-7.573-1.956-10.851a54.673,54.673,0,0,0-6.343-6.3s-10.368-18.674-11.891-25.117c-3.491-14.787-1.975-23.537-4.951-27.953-5.431-8.06-10.23,9.748-10.23,9.748S137.457,344.391,144.725,355.132Z" transform="translate(-137.414 -301.819)" fill="#ffc2bd"/>
              <path id="Trazado_108035" data-name="Trazado 108035" d="M145.6,332.773l12.236-3.426s-6.37-23.287-19.479-22.448Z" transform="translate(-138.356 -306.878)" fill="#94bdff" stroke="#94bdff" stroke-miterlimit="10" stroke-width="0.387"/>
            </g>
            <g id="Grupo_72592" data-name="Grupo 72592" transform="translate(3.028 84.131)">
              <g id="Grupo_72589" data-name="Grupo 72589" transform="translate(60.318 146.446)">
                <path id="Trazado_108036" data-name="Trazado 108036" d="M136.281,446.161l1.14,14.119s2.321,8.473,4.475,5.192a23.791,23.791,0,0,1,4.29-5.013l1.111-14.466Z" transform="translate(-132.458 -445.994)" fill="#ffc2bd"/>
                <path id="Trazado_108037" data-name="Trazado 108037" d="M148.243,457.111l13.1,7.473c.586.335.269,1.033-.469,1.029-6.047-.033-22.338-.2-26.622-.255-.519-.007-.877-.384-.713-.752.907-2.03,3.989-9.717,4.341-9.77,0,0,3.058,4.948,4.841,4.45a15.59,15.59,0,0,0,4.293-2.143A1.006,1.006,0,0,1,148.243,457.111Z" transform="translate(-133.494 -442.706)" fill="#021e2b" stroke="#021e2b" stroke-miterlimit="10" stroke-width="0.427"/>
                <line id="Línea_163" data-name="Línea 163" x1="2.224" y2="2.034" transform="translate(15.172 15.26)" fill="#b300ae" stroke="#fff" stroke-linecap="round" stroke-miterlimit="10" stroke-width="0.467"/>
                <line id="Línea_164" data-name="Línea 164" x1="2.224" y2="2.034" transform="translate(16.642 16.436)" fill="#b300ae" stroke="#fff" stroke-linecap="round" stroke-miterlimit="10" stroke-width="0.467"/>
              </g>
              <g id="Grupo_72590" data-name="Grupo 72590" transform="translate(0 137.966)">
                <path id="Trazado_108038" data-name="Trazado 108038" d="M100.793,439.813l-5.328,13.126s-1.734,8.611,1.665,6.651a23.723,23.723,0,0,1,6.083-2.552l7.5-12.424Z" transform="translate(-87.482 -439.813)" fill="#ffc2bd"/>
                <path id="Trazado_108039" data-name="Trazado 108039" d="M106.2,454.478l8.341,12.561c.373.563-.222,1.044-.881.709C108.27,465,93.791,457.529,89.99,455.555c-.461-.239-.612-.737-.3-.992,1.722-1.406,7.929-6.887,8.267-6.778,0,0,.508,5.8,2.325,6.153a15.632,15.632,0,0,0,4.8.015A1,1,0,0,1,106.2,454.478Z" transform="translate(-89.526 -436.849)" fill="#021e2b" stroke="#021e2b" stroke-miterlimit="10" stroke-width="0.427"/>
                <line id="Línea_165" data-name="Línea 165" x1="2.901" y2="0.818" transform="translate(15.752 19.583)" fill="#b300ae" stroke="#fff" stroke-linecap="round" stroke-miterlimit="10" stroke-width="0.467"/>
                <line id="Línea_166" data-name="Línea 166" x1="2.901" y2="0.818" transform="translate(16.536 21.294)" fill="#b300ae" stroke="#fff" stroke-linecap="round" stroke-miterlimit="10" stroke-width="0.467"/>
              </g>
              <g id="Grupo_72591" data-name="Grupo 72591" transform="translate(10.135)">
                <path id="Trazado_108040" data-name="Trazado 108040" d="M133.76,339.256c-3.963,8.416-5.874,10.694-8.352,20.9-2.873,11.831-2.264,27.764-3.939,39.658a228.01,228.01,0,0,1-4.409,24.692c-3.6,16.846-8.913,38.741-17.892,54.909.668,1,8.335,5.278,12.676,7.949,13.638-16.813,24.076-35.851,29.391-57.109,4.031-16.126,5.136-32.945,6.066-48.458a1.506,1.506,0,0,1,3-.044c1.361,15.532-4.247,78.908-2.726,105.324,2.32,0,11.2.621,14.544.621C164.338,461.781,173,450.539,174.3,422.4c1.285-27.924,4.434-55.025-13.193-83.158C150.445,339.5,142.54,339.426,133.76,339.256Z" transform="translate(-96.075 -339.244)" fill="#001c39"/>
                <path id="Trazado_108041" data-name="Trazado 108041" d="M135.742,339.431s2.039,19.709-17.594,20.183" transform="translate(-89.018 -339.174)" fill="none" stroke="#fff" stroke-miterlimit="10" stroke-width="0.345" opacity="0.5"/>
                <path id="Trazado_108042" data-name="Trazado 108042" d="M141.81,339.432c.656,1.258,0,17.11,12.035,17.462" transform="translate(-80.219 -339.174)" fill="none" stroke="#fff" stroke-miterlimit="10" stroke-width="0.345" opacity="0.5"/>
                <line id="Línea_167" data-name="Línea 167" x1="20.53" y1="12.507" transform="translate(0 130.048)" fill="none" stroke="#fff" stroke-miterlimit="10" stroke-width="0.345" opacity="0.5"/>
                <line id="Línea_168" data-name="Línea 168" x1="23.834" y1="0.708" transform="translate(51.444 141.139)" fill="none" stroke="#fff" stroke-miterlimit="10" stroke-width="0.345" opacity="0.5"/>
              </g>
            </g>
            <g id="Grupo_72593" data-name="Grupo 72593" transform="translate(36.148 37.628)">
              <path id="Trazado_108043" data-name="Trazado 108043" d="M146.78,306.763c-.032.081,3.6,2.473,3.882,3.032,1.793,3.586,7.027,9.632,9.5,17.268.882,2.724,1.3,2.936.325,7.5,21.046,12.236,22.024,68.517,20.556,74.227l-67.376-2.121s3.915-42.09,12.236-58.076c.08-10.687-8.462-30.808-5.758-38.66,0,0,12.113-4.42,14.333-4.59C134.48,305.346,147.783,312.607,146.78,306.763Z" transform="translate(-113.669 -305.346)" fill="#94bdff" stroke="#94bdff" stroke-miterlimit="10" stroke-width="0.387"/>
            </g>
            <path id="Trazado_108044" data-name="Trazado 108044" d="M132.932,333.246s-8.075,26.183,16.4,37.439c0,0-23.492-4.159-22.269-31.566Z" transform="translate(-72.558 -257.343)" fill="#7090c2" stroke="#7090c2" stroke-miterlimit="10" stroke-width="0.387"/>
            <path id="Trazado_108045" data-name="Trazado 108045" d="M108.8,306.966c-.029.728,2.4,37.527,2.4,37.527,1.6,8.813,3.174,24.189,4.7,28.624s3.91,17.9,1.831,15.143-2.391-7.143-3.225-4.5.512,17.764-1.886,16.94-2.111-14.181-2.111-14.181-.578,14.561-2.509,14.241-1.151-13.9-1.151-13.9-.266,12.871-2.693,12.775-.675-13.638-.675-13.638-1.113,9.678-2.084,9.64-8.246-37.272-9.755-48.27-4.325-40.18-4.325-40.18Z" transform="translate(-87.319 -267.115)" fill="#c96f65"/>
            <g id="Grupo_72594" data-name="Grupo 72594" transform="translate(10.804 41.794)">
              <path id="Trazado_108046" data-name="Trazado 108046" d="M96.161,385.293c2.1-5.439,24.846-67.187,24.846-67.187L132,326.891c-.709,8.046-24.068,61.723-24.946,62.887,0,0-.709,1.419-.947,1.183s.237-4.732,0-4.494-4.021,7.569-4.967,7.1,1.183-4.967.711-5.2-1.893,4.732-2.84,4.494.711-5.2.237-5.2-1.42,4.73-2.129,4.494.709-5.2.473-5.441S96.407,391.2,95.46,391.2C94.751,391.2,95.626,386.68,96.161,385.293Z" transform="translate(-95.194 -304.767)" fill="#ffc2bd"/>
              <path id="Trazado_108047" data-name="Trazado 108047" d="M130.764,311.361s-6.511-5.181-10.578-1.877c-5.535,4.5-9.191,15.143-9.191,15.143s13.879,16.724,14.155,16.24c3.522-6.182,3.785-7.346,4.593-9.9C131.6,325.1,133.808,319.641,130.764,311.361Z" transform="translate(-89.319 -308.383)" fill="#94bdff" stroke="#94bdff" stroke-miterlimit="10" stroke-width="0.387"/>
            </g>
          </g>
          <g id="Grupo_72610" data-name="Grupo 72610">
            <g id="Grupo_72597" data-name="Grupo 72597" transform="translate(34.889 43.755)">
              <g id="Grupo_72596" data-name="Grupo 72596">
                <path id="Trazado_108048" data-name="Trazado 108048" d="M83.809,335.36c-2.967-6.557-4.262-12.771-5.546-18.376-4.254-18.567-2.13-23.844,11.406-27.576,9.8-2.7,13.469,2.631,15.983,7.112,5.881,10.478,8.368,17.23,13.108,27.116Z" transform="translate(-76.291 -288.677)" fill="#ffe396"/>
              </g>
            </g>
            <g id="Grupo_72609" data-name="Grupo 72609">
              <g id="Grupo_72604" data-name="Grupo 72604" transform="translate(0 129.208)">
                <g id="Grupo_72598" data-name="Grupo 72598" transform="translate(29.253)">
                  <path id="Trazado_108049" data-name="Trazado 108049" d="M114.147,350.967s7.3,49.14,7.7,62.728-2.421,74.168-2.421,74.168l-14.531.3s-15.523-101.628-32.708-134.4Z" transform="translate(-72.183 -350.967)" fill="#5067a1"/>
                  <path id="Trazado_108050" data-name="Trazado 108050" d="M84.946,352.106s15.625,61.2,16.145,65.628,5.209,70.054,5.209,70.054" transform="translate(-67.437 -350.543)" fill="none" stroke="#fff" stroke-miterlimit="10" stroke-width="0.381"/>
                  <line id="Línea_169" data-name="Línea 169" x1="17.449" transform="translate(30.009 130.474)" fill="none" stroke="#fff" stroke-miterlimit="10" stroke-width="0.381" stroke-dasharray="2.283"/>
                </g>
                <g id="Grupo_72599" data-name="Grupo 72599" transform="translate(3.357 1.999)">
                  <path id="Trazado_108051" data-name="Trazado 108051" d="M120.587,352.424a2.713,2.713,0,0,0-.959,1.532c-1.849,8.857-12.465,45.152-25.807,72.8-10.178,21.092-23.26,60.78-23.26,60.78l-17.255-.477L69.3,423.08A56.534,56.534,0,0,0,71.032,412.4c.886-13.62,3.973-41.141,2.762-58.776Z" transform="translate(-53.306 -352.424)" fill="#697be4"/>
                  <path id="Trazado_108052" data-name="Trazado 108052" d="M91.073,353.5s-5.555,54.863-8.333,60.419-23.612,72.92-23.612,72.92" transform="translate(-51.141 -352.025)" fill="none" stroke="#fff" stroke-miterlimit="10" stroke-width="0.381"/>
                  <line id="Línea_170" data-name="Línea 170" x1="17.449" transform="translate(2.258 128.475)" fill="none" stroke="#fff" stroke-miterlimit="10" stroke-width="0.381" stroke-dasharray="2.283"/>
                </g>
                <g id="Grupo_72601" data-name="Grupo 72601" transform="translate(0 136.38)">
                  <path id="Trazado_108053" data-name="Trazado 108053" d="M65.082,453.944l1-3.564-11.7.026-1.331,3.538,4.021,8.758,9.4-7.006Z" transform="translate(-50.043 -450.38)" fill="#c96f65"/>
                  <g id="Grupo_72600" data-name="Grupo 72600" transform="translate(0 3.442)">
                    <path id="Trazado_108054" data-name="Trazado 108054" d="M66.55,452.889a12.705,12.705,0,0,0-7.064,2.724c-2.261,1.659-4.589-1.763-5.636-2.646-.213-.18-2.941,8.89-2.941,8.89H83.982C84.366,461.857,66.55,452.889,66.55,452.889Z" transform="translate(-50.841 -452.889)" fill="#fc79a9"/>
                    <path id="Rectángulo_9058" data-name="Rectángulo 9058" d="M1.849,0H31.284a1.849,1.849,0,0,1,1.849,1.849V4.673a0,0,0,0,1,0,0H0a0,0,0,0,1,0,0V1.849A1.849,1.849,0,0,1,1.849,0Z" transform="translate(33.133 13.83) rotate(180)" fill="#fc79a9"/>
                  </g>
                </g>
                <g id="Grupo_72603" data-name="Grupo 72603" transform="translate(60.581 136.38)">
                  <path id="Trazado_108055" data-name="Trazado 108055" d="M110.251,453.944l-1.866-3.564-11.986.388.623,3.176,5.222,8.758,9.4-7.006Z" transform="translate(-94.506 -450.38)" fill="#c96f65"/>
                  <g id="Grupo_72602" data-name="Grupo 72602" transform="translate(0 3.442)">
                    <path id="Trazado_108056" data-name="Trazado 108056" d="M110.71,452.889a12.705,12.705,0,0,0-7.064,2.724c-2.261,1.659-4.589-1.763-5.636-2.646-.213-.18-2.941,8.89-2.941,8.89h33.073C128.526,461.857,110.71,452.889,110.71,452.889Z" transform="translate(-95 -452.889)" fill="#fc79a9"/>
                    <path id="Rectángulo_9059" data-name="Rectángulo 9059" d="M1.849,0H31.284a1.849,1.849,0,0,1,1.849,1.849V4.673a0,0,0,0,1,0,0H0a0,0,0,0,1,0,0V1.849A1.849,1.849,0,0,1,1.849,0Z" transform="translate(33.133 13.83) rotate(180)" fill="#fc79a9"/>
                  </g>
                </g>
              </g>
              <path id="Trazado_108057" data-name="Trazado 108057" d="M100.3,352.866s-1.043,21.094-19.532,20.052" transform="translate(-39.737 -221.053)" fill="none" stroke="#fff" stroke-miterlimit="10" stroke-width="0.381"/>
              <g id="Grupo_72606" data-name="Grupo 72606" transform="translate(17.094 40.873)">
                <path id="Trazado_108058" data-name="Trazado 108058" d="M106.619,293.69c1.873,2.277,11.969,19.914,11.278,87.785,0,0-48.073,2.066-51.811-.1-2.424-1.4-11.172-99.577,23.633-94.617C89.719,286.758,101.573,287.553,106.619,293.69Z" transform="translate(-63.32 -286.576)" fill="#ffe396"/>
                <g id="Grupo_72605" data-name="Grupo 72605" transform="translate(6.012 33.929)">
                  <path id="Trazado_108059" data-name="Trazado 108059" d="M93.574,317.222c-3.668,10.488-7.021,25.532-5.952,35.38A54.444,54.444,0,0,0,97.16,377.04c3.572,4.648,9.532,11.618,9,12.341s-5.706-4.607-4.9-2.052,9.276,13.524,6.238,14.8-6.88-8.91-8.452-10.54c1.447,1.763,6.95,11.573,4.453,12.893s-6.466-9.63-7.688-11.094c1.451,1.829,6.68,10.585,3.863,12.09s-6.752-9.918-7.232-11.193c-2.959-2,9.174,12.572,1.451,7.588s-23.776-29.679-25.637-44.893,1.29-30.568,4.642-45.669C79.754,312.979,86.7,314.954,93.574,317.222Z" transform="translate(-67.702 -311.309)" fill="#c96f65"/>
                </g>
              </g>
              <g id="Grupo_72608" data-name="Grupo 72608" transform="translate(35.225)">
                <path id="Trazado_108060" data-name="Trazado 108060" d="M83.476,274.994a27.876,27.876,0,0,1-3.578,17.15c-.822,1.478,18.073,4.6,18.073,4.6l-2.342-9.379S83.055,270.3,83.476,274.994Z" transform="translate(-75.296 -250.314)" fill="#c96f65"/>
                <path id="Trazado_108061" data-name="Trazado 108061" d="M93.134,280.462l.447,7.595s-6.936-3.5-7.119-8.8S93.134,280.462,93.134,280.462Z" transform="translate(-72.846 -249.2)" fill="#02042b"/>
                <path id="Trazado_108062" data-name="Trazado 108062" d="M95.6,261.2c4.67,7.065,5.689,14.905,4.913,23.316a5.319,5.319,0,0,1-1.973,2.848,4.05,4.05,0,0,1-3.024.587c-2.775-.534-6.191-1.364-8.851-2.122a3.731,3.731,0,0,1-2.646-2.032c-.6-.985-.964-2.188-1.512-3.255-.185-.361-.294-.3-.742-.657-.853-.678-3.747-1.471-2.9-4.4.665-2.306,3.86-1.28,5.3.54.088.111.4.053.424-.107-.081-3.8-.409-9.471-.862-13.241C87.983,262.373,92.11,263.867,95.6,261.2Z" transform="translate(-75.726 -255.141)" fill="#c96f65"/>
                <path id="Trazado_108063" data-name="Trazado 108063" d="M76.776,267.973c-1.3,3.221,3.083,8.674,3.083,8.674a1.475,1.475,0,0,1,2.528-.21c.676.643,2.323,2.314,3.843.65,1.434-1.571-.977-4.9-.166-7.051,1.434-3.8,9.5-3.734,12.1-4.534,3.272-1.007-1.981-9.759-7.684-8.618C75.57,259.866,76.776,267.973,76.776,267.973Z" transform="translate(-76.536 -256.782)" fill="#20314f" stroke="#20314f" stroke-miterlimit="10" stroke-width="0.387"/>
                <g id="Grupo_72607" data-name="Grupo 72607" transform="translate(4.453 14.077)">
                  <path id="Trazado_108064" data-name="Trazado 108064" d="M94.023,269.09l3.131,3.491a.478.478,0,0,1-.289.7l-2.183.6Z" transform="translate(-74.486 -266.283)" fill="#8a4c45"/>
                  <path id="Trazado_108065" data-name="Trazado 108065" d="M79.782,272.152s1.506-1.628,2.653,1.5" transform="translate(-79.782 -265.302)" fill="#8a4c45"/>
                  <path id="Trazado_108066" data-name="Trazado 108066" d="M95.886,273.172s-1.857.332-4.376.908c0,0,2.882,2.49,4.566,1.535Z" transform="translate(-75.421 -264.765)" fill="#fff"/>
                  <path id="Trazado_108067" data-name="Trazado 108067" d="M91.3,269.026c-.506.51.055-1.464.808-1.819a1.416,1.416,0,0,1,1.918.535A4.42,4.42,0,0,0,91.3,269.026Z" transform="translate(-75.57 -267.044)" fill="#02042b"/>
                  <path id="Trazado_108068" data-name="Trazado 108068" d="M92.88,270.187c.025.472.232.844.46.831s.394-.4.369-.877-.232-.844-.461-.831S92.854,269.715,92.88,270.187Z" transform="translate(-74.913 -266.201)" fill="#02042b"/>
                </g>
              </g>
            </g>
          </g>
        </g>
        <g id="Grupo_72627" data-name="Grupo 72627" transform="translate(156.81 30.609)">
          <g id="Grupo_72613" data-name="Grupo 72613" transform="translate(5.596 22.186)">
            <g id="Grupo_72612" data-name="Grupo 72612">
              <path id="Trazado_108069" data-name="Trazado 108069" d="M191.339,339.571c-6.755,2.047-20.829-37.933-20.829-37.933-3.64-7.226,1.549-11.573,3.268-10.606,1.542.868,5.382,6.711,5.382,6.711S190.752,320.1,191,319.7Z" transform="translate(-169.244 -283.096)" fill="#f1b7a5"/>
              <line id="Línea_171" data-name="Línea 171" y1="14.403" x2="3.233" transform="translate(5.563)" fill="none" stroke="#464b6b" stroke-linecap="round" stroke-miterlimit="10" stroke-width="1.933"/>
              <path id="Trazado_108070" data-name="Trazado 108070" d="M177.867,297.347s-.108-5.738-.915-5.839-4.605.233-4.955,1.543,2.871,1.2,2.871,1.2-1.482,2.7-.171,3.549S177.867,297.347,177.867,297.347Z" transform="translate(-168.23 -282.875)" fill="#f1b7a5"/>
            </g>
            <path id="Trazado_108071" data-name="Trazado 108071" d="M222.877,292.23s-11.393,7.079-15.281,11.045-17.731,14.761-17.731,14.761L180.1,299.594l-8.88,8.235s11.829,32.433,18.273,32.557S237.1,311.137,222.877,292.23Z" transform="translate(-168.507 -282.601)" fill="#fff"/>
          </g>
          <g id="Grupo_72615" data-name="Grupo 72615" transform="translate(32.111)">
            <path id="Trazado_108072" data-name="Trazado 108072" d="M222.664,301.673c12.9-24.9-.741-33.649-8.257-32.542-5.129.713-10.23,2.928-13.6,6.863-1.229,1.438-2.911,6.795-2.062,8.479l-10.179,19.867" transform="translate(-188.571 -269.039)" fill="#1e2f4d"/>
            <path id="Trazado_108073" data-name="Trazado 108073" d="M206.985,287.247" transform="translate(-181.724 -262.268)" fill="#1e2f4d"/>
            <path id="Trazado_108074" data-name="Trazado 108074" d="M214.921,282.926a.438.438,0,0,0,.567.28c.979-.354,3.17-1.373,4.408,1.081,1.25,2.48-.7,4.823-2.161,5.437-.421.177-1.381.619-1.56,1.04-.547,1.294-.207,3.571.051,6.47a8,8,0,0,0,6.128,7.431s-14.148,12.363-16.706,4.751c.951-1.642-.543-14.868-1.616-13.227-.985,1.5-7.2-.125-7.815-11.086-.572-10.153,6.4-11.906,8.223-12.214C205.975,272.627,211.107,271.149,214.921,282.926Z" transform="translate(-185.741 -267.681)" fill="#f1b7a5"/>
            <path id="Trazado_108075" data-name="Trazado 108075" d="M198.51,273.972s13.863,9.086,15.872,9.533C214.382,283.505,215.376,266.017,198.51,273.972Z" transform="translate(-184.875 -267.976)" fill="#1e2f4d"/>
            <g id="Grupo_72614" data-name="Grupo 72614" transform="translate(10.61 13.182)">
              <path id="Trazado_108076" data-name="Trazado 108076" d="M213.69,282.172s-2.7-2.7-3.1,2.355" transform="translate(-190.995 -277.606)" fill="#ec8565"/>
              <path id="Trazado_108077" data-name="Trazado 108077" d="M204.081,282.414a2.448,2.448,0,1,0,3.095,1.553A2.449,2.449,0,0,0,204.081,282.414Z" transform="translate(-194.036 -277.294)" fill="#f7a288"/>
              <path id="Trazado_108078" data-name="Trazado 108078" d="M197.053,286.734a2.449,2.449,0,0,0-.746-4.522A11.92,11.92,0,0,0,197.053,286.734Z" transform="translate(-196.305 -277.322)" fill="#f7a288"/>
              <path id="Trazado_108079" data-name="Trazado 108079" d="M199.63,281.577l.34,2.707-1.414-.1a.345.345,0,0,1-.265-.531Z" transform="translate(-195.587 -277.558)" fill="#ec8565"/>
              <path id="Trazado_108080" data-name="Trazado 108080" d="M197.431,284.615l5.188.3s-1.333,3.113-2.816,2.52S197.431,284.615,197.431,284.615Z" transform="translate(-195.886 -276.429)" fill="#fff"/>
              <path id="Trazado_108081" data-name="Trazado 108081" d="M202.906,280.073c.457.317-.251-1.107-.874-1.269a1.094,1.094,0,0,0-1.383.679A3.417,3.417,0,0,1,202.906,280.073Z" transform="translate(-194.689 -278.606)"/>
              <path id="Trazado_108082" data-name="Trazado 108082" d="M196.848,279.973c-.453.322.24-1.108.862-1.279a1.1,1.1,0,0,1,1.39.665A3.431,3.431,0,0,0,196.848,279.973Z" transform="translate(-196.157 -278.648)"/>
              <path id="Trazado_108083" data-name="Trazado 108083" d="M201.526,281.831c-.021.48-.225.862-.458.852s-.406-.406-.385-.886.224-.863.457-.853S201.545,281.349,201.526,281.831Z" transform="translate(-194.677 -277.794)"/>
              <path id="Trazado_108084" data-name="Trazado 108084" d="M198.739,281.537c-.018.46-.214.824-.436.815s-.388-.388-.369-.848.214-.823.436-.815S198.758,281.079,198.739,281.537Z" transform="translate(-195.7 -277.889)"/>
              <path id="Trazado_108085" data-name="Trazado 108085" d="M202.078,290.392s3.7-1.207,5.863-2.14S204.547,304.467,202.078,290.392Z" transform="translate(-194.158 -275.09)"/>
            </g>
          </g>
          <g id="Grupo_72616" data-name="Grupo 72616" transform="translate(32.325 235.47)">
            <path id="Trazado_108086" data-name="Trazado 108086" d="M209.007,443.772l-1.693,12.015s-2.714,7.969-5.234,4.884a24.85,24.85,0,0,0-5.013-4.715l-.829-12.491Z" transform="translate(-185.934 -439.647)" fill="#f1b5a5"/>
            <path id="Trazado_108087" data-name="Trazado 108087" d="M200.856,444.017l-.435,16.341s7.975,1.2,5.011-4.14l1.742-11.33Z" transform="translate(-184.379 -439.442)" fill="#f7a288"/>
            <path id="Trazado_108088" data-name="Trazado 108088" d="M234.818,443.017,238.556,455s2.845,2.5,3.873,2.431c1.868-.118,2.848-3.342,2.848-3.342l.307-11.074Z" transform="translate(-171.588 -439.814)" fill="#f1b5a5"/>
            <path id="Trazado_108089" data-name="Trazado 108089" d="M238.744,440.682l2.615,19.827s5.36,1.416,2.4-3.922l.654-15.252Z" transform="translate(-170.128 -440.682)" fill="#f7a288"/>
            <path id="Trazado_108090" data-name="Trazado 108090" d="M199.03,453.066l-10.063,8.156c-.514.383-.147,1.026.589,1.033l14.854.121a.868.868,0,0,0,.8-.4l1.121-2.3c.324-.663.969-.716.908-.014l.549,2.217c-.029.35,3.522.254,3.553-.063a62.644,62.644,0,0,0-.569-10.215.738.738,0,0,0-.665-.514h0a1.01,1.01,0,0,0-.83.229c-1,.97-4.209,3.889-5.917,3.3a12.6,12.6,0,0,1-3.092-1.513A1.054,1.054,0,0,0,199.03,453.066Z" transform="translate(-188.727 -436.819)" fill="#ff7aae"/>
            <path id="Trazado_108091" data-name="Trazado 108091" d="M244.87,450.808l5.714,9.57a1.864,1.864,0,0,1-.831,2.7c-1.788,1.063-3.247,3.185-4.371,3.217-2.032.056-5.19-2.083-7.029-2.885-1.236-.539-2.2-1.328-2.05-2.361l1.42-9.6c.018-.118.228-.162.331-.069l2.188,1.984c.716.65,2.661.562,3.144-.215.346-.556,1.154-2.346,1.154-2.346A.224.224,0,0,1,244.87,450.808Z" transform="translate(-171.042 -436.945)" fill="#ff7aae"/>
          </g>
          <g id="Grupo_72617" data-name="Grupo 72617" transform="translate(35.405 79.66)">
            <path id="Trazado_108092" data-name="Trazado 108092" d="M231.414,328.239a88.027,88.027,0,0,1,9.7,24.5c3.074,12.024,36.423,113.736,37.873,135.608-3.789.914-25.237.781-27.631.647-7.618-21.829-31.476-96.135-34.742-109.887-.5-2.114-3.768-1.65-3.513.508C214.956,395.316,228,445.961,228,489.032c-1.986,1.011-28.119.786-30.414.5-2.5-26.934-15.743-128.9,4.256-161.954C210.982,326.314,222.142,327.962,231.414,328.239Z" transform="translate(-190.972 -327.106)" fill="#697be4"/>
            <path id="Trazado_108093" data-name="Trazado 108093" d="M201.971,330.059s-8.146,20.157-8.146,48.606,7.717,109.99,7.717,109.99" transform="translate(-189.912 -326.008)" fill="none" stroke="#fff" stroke-miterlimit="10" stroke-width="0.26"/>
            <line id="Línea_172" data-name="Línea 172" x1="34.379" y1="158.65" transform="translate(35.933 3.122)" fill="none" stroke="#fff" stroke-miterlimit="10" stroke-width="0.26"/>
            <path id="Trazado_108094" data-name="Trazado 108094" d="M213.008,329.962s.277,26.058,11.972,24" transform="translate(-182.778 -326.044)" fill="none" stroke="#fff" stroke-miterlimit="10" stroke-width="0.26"/>
            <path id="Trazado_108095" data-name="Trazado 108095" d="M198.989,330.445,236.64,358.8s1.572-15.3-5.117-27.857Z" transform="translate(-187.991 -325.864)" opacity="0.21" style="mix-blend-mode: multiply;isolation: isolate"/>
            <path id="Trazado_108096" data-name="Trazado 108096" d="M195.316,354.8c11.7,2.055,9.814-23.873,9.814-23.873" transform="translate(-189.357 -325.684)" fill="none" stroke="#fff" stroke-miterlimit="10" stroke-width="0.26"/>
          </g>
          <path id="Trazado_108097" data-name="Trazado 108097" d="M211.774,295.6s2.386-.69,1.991-.182a10,10,0,0,1-2.089,1.637Z" transform="translate(-147.869 -259.3)" fill="#c20600"/>
          <g id="Grupo_72618" data-name="Grupo 72618" transform="translate(41.381 33.284)">
            <path id="Trazado_108098" data-name="Trazado 108098" d="M205.231,294.4c.266.646-10.212,22.922-9.9,29.253.32,6.379,4.677,17.113,4.338,18.071,0,0,4.948,3.9,32.252-.4,8.393-7.344,1.019-32.3-1.8-40.206,0,0-10.529-6.847-12.843-7.017C217.283,294.1,205.818,307.772,205.231,294.4Z" transform="translate(-195.329 -293.003)" fill="#f2579f"/>
            <path id="Trazado_108099" data-name="Trazado 108099" d="M218.388,295.332s-10.028,19.42-14.167,23.877.159,59.056.159,59.056l35.5-4.775-8.112-63.745a16.8,16.8,0,0,0-12-14.016Z" transform="translate(-192.691 -292.546)" fill="#fff"/>
            <path id="Trazado_108100" data-name="Trazado 108100" d="M216.881,295.111s-7.3,16.739-12.814,28.2c0,0-2.358,17.517-1.563,22.612,0,0,11.88-24.7,14.428-29.319l-1.242-6.05,5.09-.879,1.593-10.189Z" transform="translate(-192.722 -292.628)" fill="#224382"/>
            <path id="Trazado_108101" data-name="Trazado 108101" d="M216.011,293.3s-7.3,16.741-12.814,28.2c0,0-1.591,16.767-.8,21.861,0,0,11.621-24.355,14.167-28.971l-1.273-5.253,4.616-1.273,1.591-10.189Z" transform="translate(-192.782 -293.301)" fill="#fff"/>
            <path id="Trazado_108102" data-name="Trazado 108102" d="M201.689,339.342l32.335-22.633,1.471,15.579-10.223,19.229a10.608,10.608,0,0,1-16.5-1.483Z" transform="translate(-192.964 -284.597)" fill="#464b6b" opacity="0.25"/>
          </g>
          <path id="Trazado_108103" data-name="Trazado 108103" d="M206.513,295.274s-2.941,18.1-1.989,26.663c.159,1.432.477,55.235.8,55.712s-16.556.477-16.556.477l11.654-79.887Z" transform="translate(-156.389 -259.283)" fill="#fff"/>
          <path id="Trazado_108104" data-name="Trazado 108104" d="M204.846,293.65c-.239.159-4.3,3.262-4.3,3.262l-1.036,3.9,1.991,2.467-2.786,1.911s-3.264,7.322.159,24.275,2.707,12.735,2.707,12.735Z" transform="translate(-153.21 -259.887)" fill="#fff"/>
          <path id="Trazado_108105" data-name="Trazado 108105" d="M204.81,295.972c-.316-.23-4.375,2.874-4.375,2.874l-1.034,3.9,1.991,2.468-2.786,1.91s-3.264,7.323.159,24.275,2.784,13.125,2.784,13.125Z" transform="translate(-153.252 -259.028)" fill="#224382"/>
          <path id="Trazado_108106" data-name="Trazado 108106" d="M204.2,293.46c-.239.159-3.649,3.523-3.649,3.523l-1.036,3.9,1.991,2.467-2.786,1.911s-3.264,7.322.159,24.275,2.783,13.978,2.783,13.978Z" transform="translate(-153.21 -259.958)" fill="#fff"/>
          <g id="Grupo_72622" data-name="Grupo 72622" transform="translate(37.462 32.915)">
            <g id="Grupo_72619" data-name="Grupo 72619">
              <path id="Trazado_108107" data-name="Trazado 108107" d="M204.263,293.032c-4.334,4.191-6.328,9.276-7.586,15.173s-1.44,11.958-1.911,17.97" transform="translate(-191.619 -293.032)" fill="none" stroke="#35445c" stroke-miterlimit="10" stroke-width="0.415"/>
              <path id="Trazado_108108" data-name="Trazado 108108" d="M197.624,320.193a5.945,5.945,0,0,0-.519-1.9,2.014,2.014,0,0,0-1.528-1.128,2.388,2.388,0,0,0-2.055,1.384,5.569,5.569,0,0,0-.491,1.119c-.032.1-.051.24.04.3a.274.274,0,0,0,.188.018c1.34-.173,2.687.49,4.026.3" transform="translate(-192.274 -284.061)" fill="#35445c"/>
              <path id="Trazado_108109" data-name="Trazado 108109" d="M193.04,320.24h4.823a.568.568,0,0,0,.568-.568h0a.567.567,0,0,0-.568-.568H193.04a.568.568,0,0,0-.568.568h0A.569.569,0,0,0,193.04,320.24Z" transform="translate(-192.472 -283.337)" fill="#adbede"/>
            </g>
            <g id="Grupo_72621" data-name="Grupo 72621" transform="translate(9.865 0.428)">
              <g id="Grupo_72620" data-name="Grupo 72620">
                <path id="Trazado_108110" data-name="Trazado 108110" d="M210.089,329.558a3.355,3.355,0,0,0,2.792.707,2.929,2.929,0,0,0,1.273-1.166,19.878,19.878,0,0,0,2.771-7.116,24.326,24.326,0,0,0,.669-7.468,11.974,11.974,0,0,0-2.763-6.867,5.164,5.164,0,0,0-1.668-1.314c-1.8-.819-3.959.026-5.486,1.29a19.6,19.6,0,0,0-4.46,6.032,48.243,48.243,0,0,0-2.941,6.379,7.043,7.043,0,0,0-.571,3.375,2.8,2.8,0,0,0,2.11,2.446" transform="translate(-199.663 -288.635)" fill="none" stroke="#35445c" stroke-miterlimit="10" stroke-width="0.415"/>
                <path id="Trazado_108111" data-name="Trazado 108111" d="M209.878,310.756c2.1-4.629,4.24-9.449,4.166-14.532a3.693,3.693,0,0,0-1.274-2.88" transform="translate(-195.864 -293.344)" fill="none" stroke="#35445c" stroke-miterlimit="10" stroke-width="0.415"/>
              </g>
              <path id="Trazado_108112" data-name="Trazado 108112" d="M206.209,324.75l.365.106a1.417,1.417,0,0,0,1.755-.967v-.005a1.417,1.417,0,0,0-.969-1.753l-.365-.106Z" transform="translate(-197.228 -282.679)" fill="#adbede"/>
              <path id="Trazado_108113" data-name="Trazado 108113" d="M201.558,322.709l-.329-.189a1.418,1.418,0,0,1-.52-1.936l0,0a1.417,1.417,0,0,1,1.936-.519l.329.191Z" transform="translate(-199.344 -283.48)" fill="#adbede"/>
            </g>
          </g>
          <g id="Grupo_72626" data-name="Grupo 72626" transform="translate(0 33.593)">
            <g id="Grupo_72623" data-name="Grupo 72623">
              <path id="Trazado_108114" data-name="Trazado 108114" d="M206.109,343.4l-11.3-35.461a7.043,7.043,0,0,0-3.892-4.35L167.776,293.6a.875.875,0,0,0-1.148,1.11l11.418,34.741a7.056,7.056,0,0,0,3.69,4.206l23.2,10.84A.875.875,0,0,0,206.109,343.4Z" transform="translate(-164.638 -293.526)" fill="#2d4773"/>
              <path id="Trazado_108115" data-name="Trazado 108115" d="M204.693,344.915l-11.3-35.46a7.043,7.043,0,0,0-3.892-4.35l-23.139-9.994a.875.875,0,0,0-1.148,1.11l11.418,34.741a7.05,7.05,0,0,0,3.69,4.2l23.2,10.84A.875.875,0,0,0,204.693,344.915Z" transform="translate(-165.164 -292.963)" fill="#fff"/>
              <line id="Línea_173" data-name="Línea 173" x1="20.029" y1="8.567" transform="translate(3.697 9.857)" fill="none" stroke="#1d254a" stroke-miterlimit="10" stroke-width="0.331"/>
              <line id="Línea_174" data-name="Línea 174" x1="16.541" y1="6.833" transform="translate(7.184 15.364)" fill="none" stroke="#1d254a" stroke-miterlimit="10" stroke-width="0.331"/>
              <path id="Trazado_108116" data-name="Trazado 108116" d="M194.8,327.787,173.379,318.4l1.4,4.487,21.822,9.791Z" transform="translate(-162.11 -284.275)" fill="#f2579f"/>
            </g>
            <g id="Grupo_72625" data-name="Grupo 72625" transform="translate(24.231 6.726)">
              <g id="Grupo_72624" data-name="Grupo 72624" transform="translate(0 15.666)">
                <path id="Trazado_108117" data-name="Trazado 108117" d="M225.8,350.215c-5.289,4.674-34.737-25.811-34.737-25.811-1.375-.782-8.525-8.965-8.23-9.847.25-.75,4.667,1.973,4.7,1.764.1-.572-4.262-3.087-3.233-4.116.7-.7,3.88,2.306,4.556,1.911s-5.051-4.426-3.087-4.262c1.764.147,11.532,7.407,11.532,7.407s19.849,15.492,19.907,15.029Z" transform="translate(-182.828 -309.848)" fill="#f1b7a5"/>
                <path id="Trazado_108118" data-name="Trazado 108118" d="M195.079,316.557s-2.49-5.172-3.264-4.926-4.09,2.13-3.862,3.467,3.111-.1,3.111-.1-.224,3.067,1.322,3.3S195.079,316.557,195.079,316.557Z" transform="translate(-180.925 -309.189)" fill="#f1b7a5"/>
              </g>
              <path id="Trazado_108119" data-name="Trazado 108119" d="M232.285,298.429s-7.409,11.181-9.29,16.406-9.972,20.8-9.972,20.8l-16.556-12.7-4.642,11.186S216.088,358.684,222,356.113,253.1,309.691,232.285,298.429Z" transform="translate(-179.482 -298.429)" fill="#fff"/>
            </g>
          </g>
        </g>
        <g id="Grupo_72629" data-name="Grupo 72629" transform="translate(150.815)">
          <path id="Trazado_108120" data-name="Trazado 108120" d="M160.794,277.057l7.44-7.44H196.25a10.326,10.326,0,0,0,10.326-10.326v-2.239a10.326,10.326,0,0,0-10.326-10.326H171.119a10.325,10.325,0,0,0-10.325,10.326Z" transform="translate(-160.794 -246.727)" fill="#ffe396"/>
          <g id="Grupo_72628" data-name="Grupo 72628" transform="translate(12.017 8.584)">
            <circle id="Elipse_5563" data-name="Elipse 5563" cx="2.575" cy="2.575" r="2.575" transform="translate(18.885 0)" fill="#fff"/>
            <circle id="Elipse_5564" data-name="Elipse 5564" cx="2.575" cy="2.575" r="2.575" transform="translate(9.442 0)" fill="#fff"/>
            <path id="Trazado_108121" data-name="Trazado 108121" d="M169.554,255.559a2.575,2.575,0,1,0,2.575-2.575A2.576,2.576,0,0,0,169.554,255.559Z" transform="translate(-169.554 -252.984)" fill="#fff"/>
          </g>
        </g>
        <g id="Grupo_72630" data-name="Grupo 72630" transform="translate(157.201 15.721)">
          <path id="Trazado_108122" data-name="Trazado 108122" d="M177.937,335.7a6.244,6.244,0,1,1-6.245-6.245A6.245,6.245,0,0,1,177.937,335.7Z" transform="translate(-165.449 -231.686)" fill="#ffe396"/>
          <path id="Trazado_108123" data-name="Trazado 108123" d="M220.354,262.222a4.035,4.035,0,1,1-4.035-4.035A4.034,4.034,0,0,1,220.354,262.222Z" transform="translate(-148.033 -258.187)" fill="#ffe396"/>
        </g>
      </g>
    </g>
  </g>
</svg>
