<svg xmlns="http://www.w3.org/2000/svg" width="270.104" height="180.128" viewBox="0 0 270.104 180.128">
  <g id="Grupo_71581" data-name="Grupo 71581" transform="translate(-208.626 -158.497)">
    <g id="Grupo_71382" data-name="Grupo 71382" transform="translate(208.626 158.497)">
      <path id="Trazado_106196" data-name="Trazado 106196" d="M230.185,338.166s-36.1-40.557-14.872-79.56,52.482-11.986,51.118-57.391,65.549-49.283,86.843-36.11,21.16,29.029,65.13,23.8,52.354,38.5,40.908,60.789c-16.24,31.618,45.035,26.424,6.4,88.555Z" transform="translate(-208.626 -158.497)" fill="#ebf3fa"/>
    </g>
    <g id="Grupo_71385" data-name="Grupo 71385" transform="translate(265.338 231.501)" opacity="0.5">
      <g id="Grupo_71383" data-name="Grupo 71383" transform="translate(6.545)" opacity="0.5">
        <path id="Trazado_106197" data-name="Trazado 106197" d="M803.828,823.651s-13.3-10.093-26.312-10.856a1.854,1.854,0,0,0-1.357,3.211l.065.059C778.425,818.041,794,819.866,803.828,823.651Z" transform="translate(-775.56 -812.792)" fill="#afcdfb"/>
      </g>
      <g id="Grupo_71384" data-name="Grupo 71384" transform="translate(0 8.035)" opacity="0.5">
        <path id="Trazado_106198" data-name="Trazado 106198" d="M755.845,890.184s-20.782-8.307-37.416-4.274a1.966,1.966,0,0,0-1.49,2.268,3.12,3.12,0,0,0,1.928,2.037C722.289,891.918,742.313,888.844,755.845,890.184Z" transform="translate(-716.902 -884.806)" fill="#afcdfb"/>
      </g>
    </g>
    <g id="Grupo_71386" data-name="Grupo 71386" transform="translate(357.305 259.494)" opacity="0.5">
      <path id="Trazado_106199" data-name="Trazado 106199" d="M1582.205,1068.473c-1.419-6.15-11.765-4.635-11.765-4.635s-7.378,10.391-9.417,10.568,4.573-10.116,4.573-10.116c-3.917-.529-14.12,3.913-14.12,3.913s.165,12.454-1.855,12.124.417-11.035.417-11.035c-3.848,1-7.567,5.3-7.567,5.3-4.712,7.062,4.6,12.748,4.6,12.748a20.25,20.25,0,0,1-2.886,9.163h0a14.678,14.678,0,0,0-1.305,2.42l1.037.039q.143-.413.312-.795a.006.006,0,0,1,0,0l.005-.011c.077-.158.188-.382.326-.655h0c.34-.608.572-1.059.72-1.384v0c1.023-1.912,2.487-4.4,3.42-4.9a2.008,2.008,0,0,1-.2-.484l.2.484c1.632,3.872,10.487,4.841,15.472,4.013s2.881-2.3.3-4.669-8.181-1.979-9.8-2.929.828-1.747,4.116-1.369,4.813,3.738,10.121,4.447,9.745-9.158,9.745-9.158c-3.722,1-10.24-1.276-10.446-2.554s9.556-.782,11.092-1.105S1583.625,1074.623,1582.205,1068.473Z" transform="translate(-1541.141 -1063.672)" fill="#afcdfb"/>
    </g>
    <g id="Grupo_71387" data-name="Grupo 71387" transform="translate(265.338 293.29)" opacity="0.3">
      <path id="Trazado_106200" data-name="Trazado 106200" d="M742.822,1372.636s1.28,8.657-.338,8.783-.734-9.744-.734-9.744-7.8-4.209-10.93-4.052c0,0,4.607,8.611,3.005,8.333s-6.809-9.017-6.809-9.017-8.091-1.9-9.585,2.889.525,7.307,1.721,7.667,8.946.621,8.706,1.622-5.534,2.37-8.416,1.325c0,0,2.912,8.127,7.153,7.921s5.65-2.77,8.273-2.849,4.508.717,3.173,1.362-5.743-.037-7.925,1.667-3.935,2.734-.042,3.725,10.954.816,12.479-2.146l.191-.37a1.593,1.593,0,0,1-.191.37c.707.458,1.715,2.529,2.409,4.115.1.269.253.642.486,1.149h0c.094.229.168.416.22.547,1.249,3.537.286,9.5.286,9.5l.829.265a14.089,14.089,0,0,0-.977-11.075,16.252,16.252,0,0,1-1.729-7.464s7.708-3.887,4.409-9.807C748.486,1377.352,745.805,1373.686,742.822,1372.636Z" transform="translate(-716.902 -1366.569)" fill="#aec3ff"/>
    </g>
    <g id="Grupo_71392" data-name="Grupo 71392" transform="translate(308.117 171.239)">
      <g id="Grupo_71389" data-name="Grupo 71389" transform="translate(4.127 0)">
        <g id="Grupo_71388" data-name="Grupo 71388">
          <path id="Trazado_106201" data-name="Trazado 106201" d="M1137.831,283.579c1.538,4.054,14.726,14.7,14.726,14.7s4.3-3.492,8.279-7.253c2.979-2.784,5.763-5.715,6.423-7.449,1.563-4.029-.1-9.793-5.861-10.77-5.739-.977-8.84,5.031-8.84,5.031s-3.1-6.008-8.865-5.031a7.839,7.839,0,0,0-2.637.928C1137.465,275.739,1136.561,280.258,1137.831,283.579Z" transform="translate(-1137.287 -272.702)" fill="#f78248"/>
        </g>
      </g>
      <g id="Grupo_71391" data-name="Grupo 71391" transform="translate(0 6.039)">
        <g id="Grupo_71390" data-name="Grupo 71390">
          <path id="Trazado_106202" data-name="Trazado 106202" d="M1110.266,336.61l-1.36-7.141-.594,3.051H1100.3v-.482h7.617l1-5.12,1.422,7.468.64-2.521h1.384l.944-4.4,1.209,6.7.635-2.567H1118l1.052-3.45.921,6.04.74-2.591h2.365l.695-3.788,1.493,5.959.541-2.171h3.059l.16,1.809,1.685-6.586,1.107,4.795h4.975v.482h-5.359l-.747-3.237-1.893,7.4-.37-4.18h-2.241l-.916,3.679-1.421-5.673-.365,1.994h-2.4l-1.248,4.368-.934-6.13-.538,1.763h-2.838l-1.087,4.392-1.176-6.521-.513,2.389h-1.4Z" transform="translate(-1100.297 -326.826)" fill="#fff"/>
        </g>
      </g>
    </g>
    <g id="Grupo_71408" data-name="Grupo 71408" transform="translate(277.931 187.32)">
      <g id="Grupo_71407" data-name="Grupo 71407" transform="translate(0)">
        <g id="Grupo_71393" data-name="Grupo 71393" transform="translate(0 26.979)">
          <path id="Trazado_106203" data-name="Trazado 106203" d="M838.337,659.63A67.1,67.1,0,0,0,851.643,671.1l-7.43,6.819s-10.91-5.133-14.177-12.953a3.514,3.514,0,0,1,1.634-4.471l2.955-1.528A3.089,3.089,0,0,1,838.337,659.63Z" transform="translate(-829.766 -658.615)" fill="#ea7147"/>
        </g>
        <g id="Grupo_71394" data-name="Grupo 71394" transform="translate(21.877 20.827)">
          <path id="Trazado_106204" data-name="Trazado 106204" d="M1078.948,620.333s1-17.742-22.792-16.812-30.316,18.6-30.316,18.6Z" transform="translate(-1025.84 -603.486)" fill="#ff8c5a"/>
        </g>
        <g id="Grupo_71395" data-name="Grupo 71395" transform="translate(2.032)">
          <path id="Trazado_106205" data-name="Trazado 106205" d="M890.276,454.263s-11.068-33.855-35.092-37.4a4.01,4.01,0,0,0-3.907,1.752l-2.588,3.872a4.2,4.2,0,0,0,1.962,6.253c6.586,2.544,17.89,10.119,25.4,32.654Z" transform="translate(-847.977 -416.823)" fill="#ea7147"/>
        </g>
        <g id="Grupo_71396" data-name="Grupo 71396" transform="translate(71.498 8.044)">
          <path id="Trazado_106206" data-name="Trazado 106206" d="M1470.56,519.6s9.017-27.581,28.583-30.638a3.551,3.551,0,0,1,3.49,1.546l1.66,2.484a3.988,3.988,0,0,1-1.777,5.9c-5.461,2.286-14.333,8.681-20.292,26.561Z" transform="translate(-1470.56 -488.917)" fill="#ea7147"/>
        </g>
        <g id="Grupo_71397" data-name="Grupo 71397" transform="translate(10.251 27.482)">
          <path id="Trazado_106207" data-name="Trazado 106207" d="M1005.324,702.01c-.492,29.571-16.638,65.211-33.57,65.211a43.728,43.728,0,0,1-6.152,0c-35.516-6.163-55.928-75.914-36.385-93.442a36.491,36.491,0,0,1,34.26-8.4c24.171-7.15,36.189,3.539,40.238,20.329a54.976,54.976,0,0,1,1.084,5.98q.17,1.342.285,2.717A75.814,75.814,0,0,1,1005.324,702.01Z" transform="translate(-921.635 -663.123)" fill="#f78248"/>
        </g>
        <g id="Grupo_71398" data-name="Grupo 71398" transform="translate(12.075 25.147)">
          <path id="Trazado_106208" data-name="Trazado 106208" d="M978,646.792s-11.059-7.246-23.379-3.527-16.638,21.648-16.638,21.648,2.923,4.619,11.524-5.376S978,646.792,978,646.792Z" transform="translate(-937.988 -642.203)" fill="#ea642f"/>
        </g>
        <g id="Grupo_71399" data-name="Grupo 71399" transform="translate(26.781 28.457)">
          <path id="Trazado_106209" data-name="Trazado 106209" d="M1069.788,683.11s7.511-4.114,11.23,1.1,1.162,26.88,8.368,38.125,9.066,14.811,9.3,23.04a46.138,46.138,0,0,0-6.509-23.68c-7.037-11.4-5.722-36.347-7.283-41.508s4.37-7.167,4.37-7.167-7.159-2.6-11.344,0S1069.788,683.11,1069.788,683.11Z" transform="translate(-1069.788 -671.864)" fill="#ea642f"/>
        </g>
        <g id="Grupo_71400" data-name="Grupo 71400" transform="translate(34.426 68.214)">
          <path id="Trazado_106210" data-name="Trazado 106210" d="M1138.328,1056.175c-.533.758,9.419-17.79,7.951-27.991l1.933,3.122S1148.866,1041.181,1138.328,1056.175Z" transform="translate(-1138.308 -1028.184)" fill="#ea642f"/>
        </g>
        <g id="Grupo_71401" data-name="Grupo 71401" transform="translate(41.886 44.573)">
          <path id="Trazado_106211" data-name="Trazado 106211" d="M1205.16,816.3s3.564,3.431,12.243,4.35,13.017,4.328,14.567,10.837A12.377,12.377,0,0,0,1220,822.929c-9.531,0-14.838-3.487-14.838-3.487Z" transform="translate(-1205.16 -816.304)" fill="#ea642f"/>
        </g>
        <g id="Grupo_71402" data-name="Grupo 71402" transform="translate(67.794 50.065)">
          <path id="Trazado_106212" data-name="Trazado 106212" d="M1462.978,871.5c-1.436.583-3.018,1.969-4.306,4.967-1.27,2.961-12.762,12.276-14.289,20.431a23.889,23.889,0,0,1-7.025,12.839c3.405-3.436,4.045-5.816,5.423-13.989a14.946,14.946,0,0,1,.837-2.954,22.05,22.05,0,0,1,1.322-2.759,45.975,45.975,0,0,1,4.53-6.4c.472-.577.938-1.135,1.39-1.673,2-2.387,3.721-4.393,4.246-5.829a33.274,33.274,0,0,1,6.788-10.615A54.968,54.968,0,0,1,1462.978,871.5Z" transform="translate(-1437.357 -865.524)" fill="#ea642f"/>
        </g>
        <g id="Grupo_71403" data-name="Grupo 71403" transform="translate(60.122 73.96)">
          <path id="Trazado_106213" data-name="Trazado 106213" d="M1368.622,1086.963c-.578.037,12.1-2.426,15.762-7.284l-.415,2.236S1380.056,1086.231,1368.622,1086.963Z" transform="translate(-1368.602 -1079.679)" fill="#ea642f"/>
        </g>
        <g id="Grupo_71404" data-name="Grupo 71404" transform="translate(61.931 64.173)">
          <path id="Trazado_106214" data-name="Trazado 106214" d="M1406.153,994.028s-3.262,1.071-8.965-.97-9.443-1.217-12.373,2.385a8.59,8.59,0,0,1,10.065-1.745c5.958,2.872,10.327,2.292,10.327,2.292Z" transform="translate(-1384.815 -991.963)" fill="#ea642f"/>
        </g>
        <g id="Grupo_71405" data-name="Grupo 71405" transform="translate(65.449 32.21)">
          <path id="Trazado_106215" data-name="Trazado 106215" d="M1435.706,715.274s-5.488-9.143-11.509-9.653-8.367.612-7.755,3.265,5.389,1.781,8.715,4.513S1437.113,720.233,1435.706,715.274Z" transform="translate(-1416.348 -705.501)" fill="#ff996c"/>
        </g>
        <g id="Grupo_71406" data-name="Grupo 71406" transform="translate(31.638 102.668)">
          <path id="Trazado_106216" data-name="Trazado 106216" d="M1113.321,1338.941s6.252,15.634,14.678,18.618,11.691.746,10.806-2.686-4.782-1.9-10.172-6.993S1113.593,1332.707,1113.321,1338.941Z" transform="translate(-1113.321 -1336.968)" fill="#e8672e"/>
        </g>
      </g>
    </g>
    <g id="Grupo_71427" data-name="Grupo 71427" transform="translate(404.151 199.852)">
      <g id="Grupo_71422" data-name="Grupo 71422" transform="translate(0 3.89)">
        <g id="Grupo_71410" data-name="Grupo 71410" transform="translate(2.108 1.947)">
          <g id="Grupo_71409" data-name="Grupo 71409">
            <path id="Trazado_106217" data-name="Trazado 106217" d="M1980.372,585.5a17.317,17.317,0,0,0,5.17,4.565,26.513,26.513,0,0,0,5.608,2.456,32.261,32.261,0,0,0,6.471,1.338l.4-5.06a27.775,27.775,0,0,1-5.453-1.154,17.519,17.519,0,0,1-7.3-4.194l-.121,1.244-.221-1.622q-.242-.281-.462-.579a2.538,2.538,0,0,0-4.09,3.007Z" transform="translate(-1979.879 -581.454)" fill="#f9ddbf"/>
          </g>
        </g>
        <g id="Grupo_71412" data-name="Grupo 71412" transform="translate(0 8.436)">
          <g id="Grupo_71411" data-name="Grupo 71411">
            <path id="Trazado_106218" data-name="Trazado 106218" d="M1961.98,643.831a24.335,24.335,0,0,0,7.375,3.479,26.646,26.646,0,0,0,6.609.97c.241.006.478.008.71.007a24.556,24.556,0,0,0,6.023-.706l-1.253-4.462a21.069,21.069,0,0,1-5.531.524,21.961,21.961,0,0,1-5.4-.821q-.385-.11-.763-.235l-.028,1.339-.312-1.454a19.641,19.641,0,0,1-4.778-2.44,2.317,2.317,0,1,0-2.654,3.8Z" transform="translate(-1960.989 -639.614)" fill="#f9ddbf"/>
          </g>
        </g>
        <g id="Grupo_71414" data-name="Grupo 71414" transform="translate(8.454 0.064)">
          <g id="Grupo_71413" data-name="Grupo 71413">
            <path id="Trazado_106219" data-name="Trazado 106219" d="M2036.884,567.5a14.13,14.13,0,0,0,5.037,6.241,23.7,23.7,0,0,0,3.495,2.21l1.932-3.928a19.63,19.63,0,0,1-2.842-1.815,14.8,14.8,0,0,1-1.979-1.8l-.5,1.233.235-1.535a7,7,0,0,1-1.259-2.085,2.188,2.188,0,1,0-4.12,1.476Z" transform="translate(-2036.755 -564.576)" fill="#f9ddbf"/>
          </g>
        </g>
        <g id="Grupo_71421" data-name="Grupo 71421" transform="translate(20.27)">
          <g id="Grupo_71416" data-name="Grupo 71416" transform="translate(1.414 1.846)">
            <g id="Grupo_71415" data-name="Grupo 71415">
              <path id="Trazado_106220" data-name="Trazado 106220" d="M2172.962,584.577a17.316,17.316,0,0,1-5.142,4.6,26.518,26.518,0,0,1-5.593,2.491,32.273,32.273,0,0,1-6.463,1.378l-.429-5.058a27.772,27.772,0,0,0,5.446-1.188,17.525,17.525,0,0,0,7.275-4.239l.128,1.243.211-1.624q.24-.282.458-.582a2.538,2.538,0,0,1,4.108,2.981Z" transform="translate(-2155.335 -580.548)" fill="#f9ddbf"/>
            </g>
          </g>
          <g id="Grupo_71418" data-name="Grupo 71418" transform="translate(0 8.321)">
            <g id="Grupo_71417" data-name="Grupo 71417">
              <path id="Trazado_106221" data-name="Trazado 106221" d="M2163.352,642.786a24.338,24.338,0,0,1-7.353,3.525,26.653,26.653,0,0,1-6.6,1.011c-.241.007-.478.011-.71.011a24.536,24.536,0,0,1-6.027-.669l1.225-4.47a21.066,21.066,0,0,0,5.535.49,21.958,21.958,0,0,0,5.391-.855q.384-.113.762-.24l.036,1.339.3-1.456a19.648,19.648,0,0,0,4.763-2.47,2.317,2.317,0,1,1,2.677,3.783Z" transform="translate(-2142.66 -638.578)" fill="#f9ddbf"/>
            </g>
          </g>
          <g id="Grupo_71420" data-name="Grupo 71420" transform="translate(2.605)">
            <g id="Grupo_71419" data-name="Grupo 71419">
              <path id="Trazado_106222" data-name="Trazado 106222" d="M2176.445,566.917a14.13,14.13,0,0,1-5,6.272,23.723,23.723,0,0,1-3.481,2.231l-1.956-3.916a19.668,19.668,0,0,0,2.831-1.833,14.79,14.79,0,0,0,1.968-1.808l.506,1.23-.245-1.534a6.987,6.987,0,0,0,1.246-2.093,2.188,2.188,0,1,1,4.13,1.45Z" transform="translate(-2166.009 -564.003)" fill="#f9ddbf"/>
            </g>
          </g>
        </g>
      </g>
      <g id="Grupo_71423" data-name="Grupo 71423" transform="translate(9.665 0.336)">
        <path id="Trazado_106223" data-name="Trazado 106223" d="M2047.61,552.97c-.02-6.4,11.519-20.822,11.519-20.822s11.628,14.353,11.648,20.75a11.583,11.583,0,1,1-23.167.072Z" transform="translate(-2047.61 -532.148)" fill="#88b9ff"/>
      </g>
      <g id="Grupo_71425" data-name="Grupo 71425" transform="translate(10.976)">
        <g id="Grupo_71424" data-name="Grupo 71424">
          <path id="Trazado_106224" data-name="Trazado 106224" d="M2079.78,529.906c-.045-.482-.586-.746-3.317-.765-1.856-.013-4.3.11-6.89.343.036.045.238.3.565.713a47.659,47.659,0,0,1,8.461-.183,44.391,44.391,0,0,1-7.615,1.279q-.658.069-1.359.134-.866.079-1.664.138a43.063,43.063,0,0,1-7.419.1,47.541,47.541,0,0,1,8.374-1.355c.369-.479.6-.771.643-.825l-.11.011c-2.639.242-5.111.57-6.962.925-2.685.513-3.168.871-3.125,1.353s.586.746,3.318.765h.389c1.242,0,2.712-.062,4.3-.169.754-.051,1.535-.113,2.329-.186.62-.056,1.23-.119,1.826-.184,1.94-.214,3.72-.469,5.137-.74,2.583-.494,3.128-.845,3.127-1.3C2079.782,529.942,2079.781,529.924,2079.78,529.906Z" transform="translate(-2059.358 -529.14)" fill="#f9ddbf"/>
        </g>
      </g>
      <g id="Grupo_71426" data-name="Grupo 71426" transform="translate(14.749 17.945)">
        <path id="Trazado_106225" data-name="Trazado 106225" d="M2093.172,690.207l1.133,0,.007,2.038,2.09-.006-.006-2.038,1.133,0,.016,5.151-1.133,0-.006-2.068-2.09.007.007,2.068-1.133,0Z" transform="translate(-2093.172 -690.169)" fill="#fff0e1"/>
        <path id="Trazado_106226" data-name="Trazado 106226" d="M2143.29,690.11l2.009-.006a2.58,2.58,0,1,1,.016,5.151l-2.009.006Zm2.021,4.122a1.553,1.553,0,1,0-.01-3.105l-.875,0,.009,3.105Z" transform="translate(-2137.698 -690.089)" fill="#fff0e1"/>
        <path id="Trazado_106227" data-name="Trazado 106227" d="M2194.86,689.972l1.133,0,.013,4.121,2.568-.008,0,1.03-3.7.011Z" transform="translate(-2183.514 -689.968)" fill="#fff0e1"/>
      </g>
    </g>
    <g id="Grupo_71435" data-name="Grupo 71435" transform="translate(384.734 224.708)">
      <g id="Grupo_71429" data-name="Grupo 71429" transform="translate(18.685 16.597)">
        <g id="Grupo_71428" data-name="Grupo 71428">
          <path id="Trazado_106228" data-name="Trazado 106228" d="M1954.427,910.34l1.478-2.32c.1.164,2.626,4.421,6.47,3.42,1.526-.4,2-1.631,2.187-3.636.207-2.183.465-4.9,3.5-7.148l.537.726c-2.715,2.008-2.664,4.615-2.818,6.727C1965.136,917.043,1955.436,912.387,1954.427,910.34Z" transform="translate(-1954.427 -900.656)" fill="#ea642f"/>
        </g>
      </g>
      <g id="Grupo_71430" data-name="Grupo 71430" transform="translate(29.543 15.751)">
        <path id="Trazado_106229" data-name="Trazado 106229" d="M2051.74,894.3a5.986,5.986,0,0,1,5.25-.949s.117,1.441-1.8,3.762A3.7,3.7,0,0,0,2051.74,894.3Z" transform="translate(-2051.74 -893.081)" fill="#ea642f"/>
      </g>
      <g id="Grupo_71431" data-name="Grupo 71431" transform="translate(0 0.76)">
        <path id="Trazado_106230" data-name="Trazado 106230" d="M1788.571,758.72s.448,5.584,5.632,7.294l-2.12,4.17S1783.5,767.875,1788.571,758.72Z" transform="translate(-1786.968 -758.72)" fill="#ea642f"/>
      </g>
      <g id="Grupo_71432" data-name="Grupo 71432" transform="translate(17.067 0.694)">
        <path id="Trazado_106231" data-name="Trazado 106231" d="M1945.51,758.135s-.413,5.586-5.586,7.329l2.145,4.157S1950.64,767.259,1945.51,758.135Z" transform="translate(-1939.924 -758.135)" fill="#ea642f"/>
      </g>
      <g id="Grupo_71433" data-name="Grupo 71433" transform="translate(0.552)">
        <path id="Trazado_106232" data-name="Trazado 106232" d="M1791.913,772.612c-.02-6.36,11.452-20.7,11.452-20.7s11.56,14.269,11.58,20.63a11.516,11.516,0,0,1-23.032.071Z" transform="translate(-1791.913 -751.911)" fill="#f78248"/>
      </g>
      <g id="Grupo_71434" data-name="Grupo 71434" transform="translate(6.001 17.516)">
        <path id="Trazado_106233" data-name="Trazado 106233" d="M1840.75,909.182l1.127,0,.013,4.1,2.553-.008,0,1.024-3.68.011Z" transform="translate(-1840.75 -909.146)" fill="#fff0e1"/>
        <path id="Trazado_106234" data-name="Trazado 106234" d="M1881.333,909.034l2-.006a2.565,2.565,0,1,1,.016,5.121l-2,.006Zm2.01,4.1a1.544,1.544,0,1,0-.01-3.087l-.87,0,.01,3.087Z" transform="translate(-1876.805 -909.013)" fill="#fff0e1"/>
        <path id="Trazado_106235" data-name="Trazado 106235" d="M1932.6,908.9l1.126,0,.013,4.1,2.553-.008,0,1.024-3.68.011Z" transform="translate(-1922.355 -908.894)" fill="#fff0e1"/>
      </g>
    </g>
    <g id="Grupo_71472" data-name="Grupo 71472" transform="translate(331.303 207.29)">
      <g id="Grupo_71436" data-name="Grupo 71436" transform="translate(0)">
        <circle id="Elipse_5352" data-name="Elipse 5352" cx="23.878" cy="23.878" r="23.878" fill="#f9ddbf"/>
      </g>
      <g id="Grupo_71437" data-name="Grupo 71437" transform="translate(6.284 6.284)">
        <circle id="Elipse_5353" data-name="Elipse 5353" cx="17.593" cy="17.593" r="17.593" fill="#ea642f"/>
      </g>
      <g id="Grupo_71438" data-name="Grupo 71438" transform="translate(7.909 7.909)">
        <circle id="Elipse_5354" data-name="Elipse 5354" cx="15.709" cy="15.709" r="15.709" transform="translate(0 0.523) rotate(-0.955)" fill="#f99746"/>
      </g>
      <g id="Grupo_71471" data-name="Grupo 71471" transform="translate(8.111 8.262)">
        <g id="Grupo_71439" data-name="Grupo 71439" transform="translate(8.098 25.149)">
          <circle id="Elipse_5355" data-name="Elipse 5355" cx="2.389" cy="2.389" r="2.389" transform="translate(0 4.651) rotate(-76.718)" fill="#ffc688"/>
        </g>
        <g id="Grupo_71440" data-name="Grupo 71440" transform="translate(12.632 27.246)">
          <path id="Trazado_106236" data-name="Trazado 106236" d="M1494.012,916.073a2.04,2.04,0,1,1,2.04,2.039A2.04,2.04,0,0,1,1494.012,916.073Z" transform="translate(-1494.012 -914.033)" fill="#ffc688"/>
        </g>
        <g id="Grupo_71441" data-name="Grupo 71441" transform="translate(16.711 27.021)">
          <path id="Trazado_106237" data-name="Trazado 106237" d="M1530.569,914.054a2.04,2.04,0,1,1,2.04,2.04A2.039,2.039,0,0,1,1530.569,914.054Z" transform="translate(-1530.569 -912.015)" fill="#ffc688"/>
        </g>
        <g id="Grupo_71442" data-name="Grupo 71442" transform="translate(27.396 14.557)">
          <path id="Trazado_106238" data-name="Trazado 106238" d="M1626.34,802.355a2.039,2.039,0,1,1,2.039,2.039A2.039,2.039,0,0,1,1626.34,802.355Z" transform="translate(-1626.34 -800.315)" fill="#ffc688"/>
        </g>
        <g id="Grupo_71443" data-name="Grupo 71443" transform="translate(27.121 18.506)">
          <path id="Trazado_106239" data-name="Trazado 106239" d="M1623.872,837.479a1.78,1.78,0,1,1,1.78,1.78A1.78,1.78,0,0,1,1623.872,837.479Z" transform="translate(-1623.872 -835.699)" fill="#ffc688"/>
        </g>
        <g id="Grupo_71444" data-name="Grupo 71444" transform="translate(19.552 24.512)">
          <circle id="Elipse_5356" data-name="Elipse 5356" cx="2.081" cy="2.081" r="2.081" transform="translate(0 2.942) rotate(-45)" fill="#ffc688"/>
        </g>
        <g id="Grupo_71445" data-name="Grupo 71445" transform="translate(24.198 24.673)">
          <path id="Trazado_106240" data-name="Trazado 106240" d="M1597.674,892.364a1.391,1.391,0,1,1,1.391,1.391A1.391,1.391,0,0,1,1597.674,892.364Z" transform="translate(-1597.674 -890.973)" fill="#ffc688"/>
        </g>
        <g id="Grupo_71446" data-name="Grupo 71446" transform="translate(26.483 21.891)">
          <path id="Trazado_106241" data-name="Trazado 106241" d="M1618.156,867.434a1.391,1.391,0,1,1,1.391,1.391A1.391,1.391,0,0,1,1618.156,867.434Z" transform="translate(-1618.156 -866.043)" fill="#ffc688"/>
        </g>
        <g id="Grupo_71447" data-name="Grupo 71447" transform="translate(23.702 21.96)">
          <path id="Trazado_106242" data-name="Trazado 106242" d="M1593.227,868.051a1.391,1.391,0,1,1,1.391,1.391A1.391,1.391,0,0,1,1593.227,868.051Z" transform="translate(-1593.227 -866.66)" fill="#ffc688"/>
        </g>
        <g id="Grupo_71448" data-name="Grupo 71448" transform="translate(17.94 24.081)">
          <circle id="Elipse_5357" data-name="Elipse 5357" cx="1.391" cy="1.391" r="1.391" transform="translate(0 2.707) rotate(-76.718)" fill="#ffc688"/>
        </g>
        <g id="Grupo_71449" data-name="Grupo 71449" transform="translate(18.113 0.912)">
          <path id="Trazado_106243" data-name="Trazado 106243" d="M1547.918,680.406a2.389,2.389,0,1,1-2.389-2.389A2.39,2.39,0,0,1,1547.918,680.406Z" transform="translate(-1543.139 -678.017)" fill="#ffc688"/>
        </g>
        <g id="Grupo_71450" data-name="Grupo 71450" transform="translate(22.577 2.926)">
          <path id="Trazado_106244" data-name="Trazado 106244" d="M1586.765,697.878a1.811,1.811,0,1,1-1.811-1.811A1.811,1.811,0,0,1,1586.765,697.878Z" transform="translate(-1583.143 -696.067)" fill="#ffc688"/>
        </g>
        <g id="Grupo_71451" data-name="Grupo 71451" transform="translate(24.817 5.569)">
          <path id="Trazado_106245" data-name="Trazado 106245" d="M1607.326,721.807a2.053,2.053,0,1,1-2.053-2.053A2.053,2.053,0,0,1,1607.326,721.807Z" transform="translate(-1603.221 -719.754)" fill="#ffc688"/>
        </g>
        <g id="Grupo_71452" data-name="Grupo 71452" transform="translate(25.893 9.198)">
          <circle id="Elipse_5358" data-name="Elipse 5358" cx="2.5" cy="2.5" r="2.5" fill="#ffc688"/>
        </g>
        <g id="Grupo_71453" data-name="Grupo 71453" transform="translate(23.499 9.063)">
          <path id="Trazado_106246" data-name="Trazado 106246" d="M1594.048,752.387a1.318,1.318,0,1,1-1.318-1.318A1.317,1.317,0,0,1,1594.048,752.387Z" transform="translate(-1591.413 -751.069)" fill="#ffc688"/>
        </g>
        <g id="Grupo_71454" data-name="Grupo 71454" transform="translate(16.115 3.948)">
          <path id="Trazado_106247" data-name="Trazado 106247" d="M1527.867,706.548a1.317,1.317,0,1,1-1.317-1.318A1.317,1.317,0,0,1,1527.867,706.548Z" transform="translate(-1525.232 -705.23)" fill="#ffc688"/>
        </g>
        <g id="Grupo_71455" data-name="Grupo 71455" transform="translate(7.663 5.951)">
          <path id="Trazado_106248" data-name="Trazado 106248" d="M1452.116,724.5a1.318,1.318,0,1,1-1.318-1.318A1.318,1.318,0,0,1,1452.116,724.5Z" transform="translate(-1449.481 -723.181)" fill="#ffc688"/>
        </g>
        <g id="Grupo_71456" data-name="Grupo 71456" transform="translate(18.375 5.466)">
          <path id="Trazado_106249" data-name="Trazado 106249" d="M1547.649,719.914a1.083,1.083,0,1,1-1.082-1.083A1.083,1.083,0,0,1,1547.649,719.914Z" transform="translate(-1545.484 -718.831)" fill="#ffc688"/>
        </g>
        <g id="Grupo_71457" data-name="Grupo 71457" transform="translate(14.765)">
          <circle id="Elipse_5359" data-name="Elipse 5359" cx="2.039" cy="2.039" r="2.039" fill="#ffc688"/>
        </g>
        <g id="Grupo_71458" data-name="Grupo 71458" transform="translate(10.686 0.225)">
          <path id="Trazado_106250" data-name="Trazado 106250" d="M1480.651,673.9a2.04,2.04,0,1,1-2.039-2.039A2.039,2.039,0,0,1,1480.651,673.9Z" transform="translate(-1476.572 -671.864)" fill="#ffc688"/>
        </g>
        <g id="Grupo_71459" data-name="Grupo 71459" transform="translate(0 12.688)">
          <circle id="Elipse_5360" data-name="Elipse 5360" cx="2.04" cy="2.04" r="2.04" fill="#ffc688"/>
        </g>
        <g id="Grupo_71460" data-name="Grupo 71460" transform="translate(0.336 16.711)">
          <path id="Trazado_106251" data-name="Trazado 106251" d="M1387.3,821.358a1.741,1.741,0,1,1-1.741-1.741A1.741,1.741,0,0,1,1387.3,821.358Z" transform="translate(-1383.816 -819.617)" fill="#ffc688"/>
        </g>
        <g id="Grupo_71461" data-name="Grupo 71461" transform="translate(3.65 16.765)">
          <path id="Trazado_106252" data-name="Trazado 106252" d="M1417,821.838a1.741,1.741,0,1,1-1.741-1.741A1.741,1.741,0,0,1,1417,821.838Z" transform="translate(-1413.516 -820.097)" fill="#ffc688"/>
        </g>
        <g id="Grupo_71462" data-name="Grupo 71462" transform="translate(1.608 19.84)">
          <path id="Trazado_106253" data-name="Trazado 106253" d="M1399.3,849.7a2.042,2.042,0,1,1-2.042-2.042A2.042,2.042,0,0,1,1399.3,849.7Z" transform="translate(-1395.212 -847.661)" fill="#ffc688"/>
        </g>
        <g id="Grupo_71463" data-name="Grupo 71463" transform="translate(3.65 23.662)">
          <path id="Trazado_106254" data-name="Trazado 106254" d="M1416.334,883.324a1.409,1.409,0,1,1-1.409-1.409A1.409,1.409,0,0,1,1416.334,883.324Z" transform="translate(-1413.516 -881.915)" fill="#ffc688"/>
        </g>
        <g id="Grupo_71464" data-name="Grupo 71464" transform="translate(5.824 25.677)">
          <path id="Trazado_106255" data-name="Trazado 106255" d="M1435.819,901.379a1.409,1.409,0,1,1-1.409-1.409A1.409,1.409,0,0,1,1435.819,901.379Z" transform="translate(-1433.001 -899.97)" fill="#ffc688"/>
        </g>
        <g id="Grupo_71465" data-name="Grupo 71465" transform="translate(6.399 22.936)">
          <path id="Trazado_106256" data-name="Trazado 106256" d="M1440.969,876.818a1.409,1.409,0,1,1-1.409-1.409A1.409,1.409,0,0,1,1440.969,876.818Z" transform="translate(-1438.151 -875.409)" fill="#ffc688"/>
        </g>
        <g id="Grupo_71466" data-name="Grupo 71466" transform="translate(0.795 9.26)">
          <path id="Trazado_106257" data-name="Trazado 106257" d="M1391.487,754.618a1.78,1.78,0,1,1-1.78-1.78A1.78,1.78,0,0,1,1391.487,754.618Z" transform="translate(-1387.928 -752.838)" fill="#ffc688"/>
        </g>
        <g id="Grupo_71467" data-name="Grupo 71467" transform="translate(6.9 1.79)">
          <circle id="Elipse_5361" data-name="Elipse 5361" cx="2.081" cy="2.081" r="2.081" fill="#ffc688"/>
        </g>
        <g id="Grupo_71468" data-name="Grupo 71468" transform="translate(4.496 3.87)">
          <path id="Trazado_106258" data-name="Trazado 106258" d="M1423.878,705.924a1.391,1.391,0,1,1-1.391-1.391A1.391,1.391,0,0,1,1423.878,705.924Z" transform="translate(-1421.096 -704.533)" fill="#ffc688"/>
        </g>
        <g id="Grupo_71469" data-name="Grupo 71469" transform="translate(2.21 6.652)">
          <path id="Trazado_106259" data-name="Trazado 106259" d="M1403.395,730.854a1.391,1.391,0,1,1-1.391-1.391A1.391,1.391,0,0,1,1403.395,730.854Z" transform="translate(-1400.613 -729.463)" fill="#ffc688"/>
        </g>
        <g id="Grupo_71470" data-name="Grupo 71470" transform="translate(4.992 6.583)">
          <path id="Trazado_106260" data-name="Trazado 106260" d="M1428.325,730.237a1.391,1.391,0,1,1-1.391-1.391A1.391,1.391,0,0,1,1428.325,730.237Z" transform="translate(-1425.543 -728.846)" fill="#ffc688"/>
        </g>
      </g>
    </g>
    <g id="Grupo_71497" data-name="Grupo 71497" transform="translate(242.57 239.561)">
      <g id="Grupo_71473" data-name="Grupo 71473" transform="translate(34.339 20.822)">
        <path id="Trazado_106261" data-name="Trazado 106261" d="M820.6,1073.983s.34-.766.561-1.128,1.163-1.425,1.323-1.185.8,1.86.461,2.313.022,1.242-1.673,1.72Z" transform="translate(-820.605 -1071.635)" fill="#ffb27d"/>
      </g>
      <g id="Grupo_71474" data-name="Grupo 71474" transform="translate(15.503 18.334)">
        <path id="Trazado_106262" data-name="Trazado 106262" d="M651.788,1049.339s8.677,7.243,12.06,6.572a66.763,66.763,0,0,0,6.706-1.917l.812,2.077s-3.641,4.939-7.438,4.972a21.626,21.626,0,0,1-10.318-2.569Z" transform="translate(-651.788 -1049.339)" fill="#95b3ef"/>
      </g>
      <g id="Grupo_71475" data-name="Grupo 71475" transform="translate(0.286 93.422)">
        <path id="Trazado_106263" data-name="Trazado 106263" d="M515.407,1723.618s.252,4.063,1.038,4.121c.1.008,3.987.008,3.987.008l4.956-.029a1.608,1.608,0,0,0-1.481-1.447c-1.449-.252-3.874-1.271-4.751-3.185C518.233,1721.072,515.407,1723.618,515.407,1723.618Z" transform="translate(-515.407 -1722.311)" fill="#1c3d72"/>
      </g>
      <g id="Grupo_71476" data-name="Grupo 71476" transform="translate(0 44.849)">
        <path id="Trazado_106264" data-name="Trazado 106264" d="M512.847,1337.136a10.335,10.335,0,0,0,2.683.5,9.852,9.852,0,0,0,2.5-.357,68.548,68.548,0,0,1,1.845-8.787c.818-3.168,1.987-7.241,3.65-12.3,4.6-13.988,6-22.171,6.123-22.947.007-.041.01-.061.01-.061l-.015-.007-14.134-6.206s1.747,19.279-.482,26.679a31.2,31.2,0,0,0-.809,3.545C512.814,1325.235,512.847,1337.136,512.847,1337.136Z" transform="translate(-512.846 -1286.973)" fill="#2b478b"/>
      </g>
      <g id="Grupo_71477" data-name="Grupo 71477" transform="translate(2.17 44.849)">
        <path id="Trazado_106265" data-name="Trazado 106265" d="M537.16,1328.5c.818-3.168,1.987-7.241,3.65-12.3,4.6-13.988,6-22.171,6.123-22.947,0-.023,0-.045-.005-.068l-14.134-6.206s1.747,19.279-.482,26.679C532,1314.686,537.16,1328.5,537.16,1328.5Z" transform="translate(-532.298 -1286.973)" fill="#233862"/>
      </g>
      <g id="Grupo_71478" data-name="Grupo 71478" transform="translate(11.325 93.422)">
        <path id="Trazado_106266" data-name="Trazado 106266" d="M614.343,1723.618s.252,4.063,1.038,4.121c.1.008,3.987.008,3.987.008l4.956-.029a1.608,1.608,0,0,0-1.481-1.447c-1.449-.252-3.874-1.271-4.751-3.185C617.169,1721.072,614.343,1723.618,614.343,1723.618Z" transform="translate(-614.343 -1722.311)" fill="#1c3d72"/>
      </g>
      <g id="Grupo_71479" data-name="Grupo 71479" transform="translate(4.311 45.303)">
        <path id="Trazado_106267" data-name="Trazado 106267" d="M566.509,1291.045a201.215,201.215,0,0,1-1.978,27.832c-2.162,15.339-1.429,21.85-1.429,21.85a14.725,14.725,0,0,1-2.084.53,9.456,9.456,0,0,1-3.093-.358s-3.094-15.345-2.207-23.022-4.237-26.346-4.237-26.346Z" transform="translate(-551.482 -1291.045)" fill="#2b478b"/>
      </g>
      <g id="Grupo_71480" data-name="Grupo 71480" transform="translate(9.316 9.892)">
        <path id="Trazado_106268" data-name="Trazado 106268" d="M596.341,979.852l2.759,1.809,2.513-.711a6,6,0,0,0,.588-3.013,18.756,18.756,0,0,0-.1-2.006l-3.722-1.643-1.389-.612c0,.022.108,1.14.123,1.3A9.5,9.5,0,0,1,596.341,979.852Z" transform="translate(-596.341 -973.676)" fill="#ffb27d"/>
      </g>
      <g id="Grupo_71481" data-name="Grupo 71481" transform="translate(0.848 15.019)">
        <path id="Trazado_106269" data-name="Trazado 106269" d="M539.061,1073.849c-3.434,3.316-17.677.026-18.478-3.627s2.063-48.825,7.929-50.549c1.217-.358,7.725,1.746,7.725,1.746a41.264,41.264,0,0,1,1.691,6.072c.13.662.509,7.675.793,14.236.133,3.069.245,6.039.3,8.214C539.075,1051.978,539.135,1073.776,539.061,1073.849Z" transform="translate(-520.451 -1019.632)" fill="#afcdfb"/>
      </g>
      <g id="Grupo_71482" data-name="Grupo 71482" transform="translate(10.261 10.503)">
        <path id="Trazado_106270" data-name="Trazado 106270" d="M604.918,979.9c.755,1.277,3.4,2.394,4.808,2.906a18.732,18.732,0,0,0-.1-2.006l-3.722-1.643C605.083,979.147,604.582,979.331,604.918,979.9Z" transform="translate(-604.813 -979.158)" fill="#fca56b"/>
      </g>
      <g id="Grupo_71483" data-name="Grupo 71483" transform="translate(8.117 2.049)">
        <path id="Trazado_106271" data-name="Trazado 106271" d="M593.961,913.258s-6,1.871-7.1-1.882-2.628-6.039,1.155-7.392,4.952-.142,5.627,1.021S595.492,912.675,593.961,913.258Z" transform="translate(-585.597 -903.387)" fill="#ffb27d"/>
      </g>
      <g id="Grupo_71484" data-name="Grupo 71484" transform="translate(5.508 0)">
        <path id="Trazado_106272" data-name="Trazado 106272" d="M572.626,888.328s-.382,4.367-1.286,4.177-1.9-.6-1.765.721-.878,3.573-2.18,3.568c-2.793-.011-5.828-7.178-5.063-8.537C564.538,884.336,575.814,883.545,572.626,888.328Z" transform="translate(-562.212 -885.023)" fill="#163560"/>
      </g>
      <g id="Grupo_71485" data-name="Grupo 71485" transform="translate(8.909 13.313)">
        <path id="Trazado_106273" data-name="Trazado 106273" d="M598.826,1006.185c-.077-.032-4.465-2-4.978-1.831s-1.153,1.736-1.153,1.736l7.725,1.746A3.837,3.837,0,0,0,598.826,1006.185Z" transform="translate(-592.696 -1004.343)" fill="#95b3ef"/>
      </g>
      <g id="Grupo_71491" data-name="Grupo 71491" transform="translate(15.46 2.766)">
        <g id="Grupo_71486" data-name="Grupo 71486" transform="translate(0 31.292)">
          <path id="Trazado_106274" data-name="Trazado 106274" d="M678.3,1192.609,653.7,1215.764c-.482.454-1.09.6-1.351.322l-.83-.882c-.261-.277-.08-.875.4-1.329l24.593-23.155c.482-.454,1.09-.6,1.351-.321l.83.882C678.958,1191.557,678.777,1192.155,678.3,1192.609Z" transform="translate(-651.401 -1190.257)" fill="#1f4d84"/>
        </g>
        <g id="Grupo_71487" data-name="Grupo 71487" transform="translate(0 44.748)">
          <path id="Trazado_106275" data-name="Trazado 106275" d="M664.494,1312.747,653.7,1322.907c-.482.454-1.09.6-1.351.321l-.83-.882c-.261-.277-.08-.875.4-1.329l10.792-10.161Z" transform="translate(-651.401 -1310.857)" fill="#f78248"/>
        </g>
        <g id="Grupo_71488" data-name="Grupo 71488" transform="translate(20.405)">
          <path id="Trazado_106276" data-name="Trazado 106276" d="M835.117,934.711a19.277,19.277,0,1,0,31.95-19.372q-.148-.148-.3-.292a19.277,19.277,0,0,0-31.647,19.663Zm5.51-17.791a17.756,17.756,0,1,1,.765,25.1A17.734,17.734,0,0,1,840.627,916.92Z" transform="translate(-834.281 -909.81)" fill="#1f4d84"/>
        </g>
        <g id="Grupo_71490" data-name="Grupo 71490" transform="translate(21.927 1.522)" opacity="0.5">
          <g id="Grupo_71489" data-name="Grupo 71489">
            <path id="Trazado_106277" data-name="Trazado 106277" d="M878.6,953.37a17.756,17.756,0,1,1-.765-25.1A17.682,17.682,0,0,1,878.6,953.37Z" transform="translate(-847.916 -923.45)" fill="#b3cff9"/>
          </g>
        </g>
      </g>
      <g id="Grupo_71492" data-name="Grupo 71492" transform="translate(6.973 22.786)">
        <path id="Trazado_106278" data-name="Trazado 106278" d="M587.789,1111.785c-13.551-9.656-12.424-22.542-12.424-22.542,4.953,2.794,9.868,8.97,12.123,14.328C587.62,1106.64,587.732,1109.61,587.789,1111.785Z" transform="translate(-575.342 -1089.243)" fill="#95b3ef"/>
      </g>
      <g id="Grupo_71495" data-name="Grupo 71495" transform="translate(6.713 16.807)">
        <g id="Grupo_71493" data-name="Grupo 71493" transform="translate(24.459 23.055)">
          <path id="Trazado_106279" data-name="Trazado 106279" d="M793.848,1243.345a3.7,3.7,0,0,0,1.731-1.069s.408.028-.067.9c-.04.073-.128.26-.194.392a.084.084,0,0,0,.071.121,9.029,9.029,0,0,1,2.168.045c.146.031.189.382.184.531a1.356,1.356,0,0,1-.286.926,4.739,4.739,0,0,1-1.712.9,5.182,5.182,0,0,1-2.65-.333l-.868-.4.269-1.612.218.045C793.058,1243.856,793.487,1243.434,793.848,1243.345Z" transform="translate(-792.225 -1242.276)" fill="#ffb27d"/>
        </g>
        <g id="Grupo_71494" data-name="Grupo 71494">
          <path id="Trazado_106280" data-name="Trazado 106280" d="M577.5,1035.652s-12.176,2.318,3.582,19.951c2.52,2.82,16.137,6.492,16.137,6.492s1.381-1.175.685-2.127c0,0-9.375-6.808-11.438-7.89-.928-.487-3.6-10.866-5.114-13.366A6.82,6.82,0,0,0,577.5,1035.652Z" transform="translate(-573.015 -1035.652)" fill="#afcdfb"/>
        </g>
      </g>
      <g id="Grupo_71496" data-name="Grupo 71496" transform="translate(34.669 20.416)">
        <path id="Trazado_106281" data-name="Trazado 106281" d="M823.563,1070.968a6.213,6.213,0,0,0,.476-1.163,6.418,6.418,0,0,1,.786-1.779c.083-.083.355.024.388.379a2.062,2.062,0,0,1-.2.77,8.677,8.677,0,0,0-.258,1.531C824.571,1071.32,823.563,1070.968,823.563,1070.968Z" transform="translate(-823.563 -1068)" fill="#ffb27d"/>
      </g>
    </g>
    <g id="Grupo_71513" data-name="Grupo 71513" transform="translate(276.909 306.194)">
      <g id="Grupo_71512" data-name="Grupo 71512" transform="translate(0 0)">
        <g id="Grupo_71498" data-name="Grupo 71498">
          <rect id="Rect치ngulo_8947" data-name="Rect치ngulo 8947" width="48.048" height="32.115" rx="16.057" fill="#fcecdb"/>
        </g>
        <g id="Grupo_71499" data-name="Grupo 71499" transform="translate(5.533 3.893)">
          <path id="Trazado_106282" data-name="Trazado 106282" d="M879.431,1523.559a4.771,4.771,0,1,1-2.79-6.144A4.771,4.771,0,0,1,879.431,1523.559Z" transform="translate(-870.191 -1517.109)" fill="#f7e0cb"/>
        </g>
        <g id="Grupo_71500" data-name="Grupo 71500" transform="translate(5.533 3.893)">
          <path id="Trazado_106283" data-name="Trazado 106283" d="M876.641,1517.415l-3.354,8.934a4.771,4.771,0,0,1,3.354-8.934Z" transform="translate(-870.191 -1517.109)" fill="#efcbab"/>
        </g>
        <g id="Grupo_71501" data-name="Grupo 71501" transform="translate(5.534 18.678)">
          <path id="Trazado_106284" data-name="Trazado 106284" d="M878.669,1657.406a4.771,4.771,0,1,1-.679-6.713A4.771,4.771,0,0,1,878.669,1657.406Z" transform="translate(-870.201 -1649.617)" fill="#f7e0cb"/>
        </g>
        <g id="Grupo_71502" data-name="Grupo 71502" transform="translate(5.534 18.678)">
          <path id="Trazado_106285" data-name="Trazado 106285" d="M877.99,1650.692l-6.035,7.392a4.771,4.771,0,1,1,6.035-7.392Z" transform="translate(-870.201 -1649.617)" fill="#efcbab"/>
        </g>
        <g id="Grupo_71503" data-name="Grupo 71503" transform="translate(34.638 3.893)">
          <path id="Trazado_106286" data-name="Trazado 106286" d="M1140.285,1523.559a4.771,4.771,0,1,1-2.79-6.144A4.771,4.771,0,0,1,1140.285,1523.559Z" transform="translate(-1131.045 -1517.109)" fill="#f7e0cb"/>
        </g>
        <g id="Grupo_71504" data-name="Grupo 71504" transform="translate(34.639 3.893)">
          <path id="Trazado_106287" data-name="Trazado 106287" d="M1137.505,1517.415l-3.354,8.934a4.771,4.771,0,1,1,3.354-8.934Z" transform="translate(-1131.055 -1517.109)" fill="#efcbab"/>
        </g>
        <g id="Grupo_71505" data-name="Grupo 71505" transform="translate(34.639 18.678)">
          <path id="Trazado_106288" data-name="Trazado 106288" d="M1139.522,1657.4a4.768,4.768,0,0,1-6.5.842c-.073-.051-.143-.105-.214-.163a4.771,4.771,0,0,1,6.035-7.392c.069.058.137.115.2.175A4.771,4.771,0,0,1,1139.522,1657.4Z" transform="translate(-1131.055 -1649.614)" fill="#f7e0cb"/>
        </g>
        <g id="Grupo_71506" data-name="Grupo 71506" transform="translate(34.639 18.678)">
          <path id="Trazado_106289" data-name="Trazado 106289" d="M1139.047,1650.865l-6.024,7.379c-.073-.051-.143-.105-.214-.163a4.771,4.771,0,0,1,6.035-7.392C1138.913,1650.747,1138.98,1650.8,1139.047,1650.865Z" transform="translate(-1131.055 -1649.614)" fill="#efcbab"/>
        </g>
        <g id="Grupo_71509" data-name="Grupo 71509" transform="translate(20.628 3.893)">
          <g id="Grupo_71507" data-name="Grupo 71507">
            <path id="Trazado_106290" data-name="Trazado 106290" d="M1014.561,1519.84a4.771,4.771,0,1,1-6.355-2.268A4.771,4.771,0,0,1,1014.561,1519.84Z" transform="translate(-1005.478 -1517.111)" fill="#f7e0cb"/>
          </g>
          <g id="Grupo_71508" data-name="Grupo 71508" transform="translate(0 0.461)">
            <path id="Trazado_106291" data-name="Trazado 106291" d="M1008.206,1521.24l4.087,8.623a4.771,4.771,0,0,1-4.087-8.623Z" transform="translate(-1005.478 -1521.24)" fill="#efcbab"/>
          </g>
        </g>
        <g id="Grupo_71510" data-name="Grupo 71510" transform="translate(20.627 18.677)">
          <path id="Trazado_106292" data-name="Trazado 106292" d="M1008.474,1658.806a4.771,4.771,0,1,1,6.2-2.656A4.771,4.771,0,0,1,1008.474,1658.806Z" transform="translate(-1005.475 -1649.604)" fill="#f7e0cb"/>
        </g>
        <g id="Grupo_71511" data-name="Grupo 71511" transform="translate(20.97 18.677)">
          <path id="Trazado_106293" data-name="Trazado 106293" d="M1017.407,1656.15l-8.859-3.546a4.771,4.771,0,0,1,8.859,3.546Z" transform="translate(-1008.548 -1649.604)" fill="#efcbab"/>
        </g>
      </g>
    </g>
    <g id="Grupo_71570" data-name="Grupo 71570" transform="translate(328.282 259.462)">
      <g id="Grupo_71514" data-name="Grupo 71514" transform="translate(71.358 40.412)">
        <path id="Trazado_106294" data-name="Trazado 106294" d="M1925.421,1425.642a7.882,7.882,0,0,1-2.175,0c-1.205-.167-3.348-.033-2.477.637a8.338,8.338,0,0,0,3.381,1.237,3.842,3.842,0,0,0,1.681-.381Z" transform="translate(-1920.566 -1425.577)" fill="#ed985f"/>
      </g>
      <g id="Grupo_71515" data-name="Grupo 71515" transform="translate(74.639 15.018)">
        <path id="Trazado_106295" data-name="Trazado 106295" d="M1963.428,1200.391a3.4,3.4,0,0,1,6.121-.811,3.076,3.076,0,0,1,.458,1.543c.083,3.247-6.32,15.813-7.17,16.925-1.547,2.023-10.886,6.89-10.886,6.89l-1.985-.289a14.709,14.709,0,0,0,2.284-1.865c2.4-2.4,5.9-6.29,6.539-6.83C1959.889,1215.029,1961.791,1205.648,1963.428,1200.391Z" transform="translate(-1949.967 -1197.987)" fill="#ed985f"/>
      </g>
      <g id="Grupo_71516" data-name="Grupo 71516" transform="translate(84.308)">
        <path id="Trazado_106296" data-name="Trazado 106296" d="M2036.627,1065.408s2-3.062,5.145-1.646c3.916,1.765,2.909,5.81,3.916,6.668,2.886,2.461,4.119,3.679,3.163,6.678-1.035,3.248-4.956,6.305-8.268,8.157,0,0-4.457-4.048-1.957-6.255,1.353-1.194.556-4.821.417-5.351S2036.627,1065.408,2036.627,1065.408Z" transform="translate(-2036.627 -1063.388)" fill="#2b478b"/>
      </g>
      <g id="Grupo_71517" data-name="Grupo 71517" transform="translate(85.501 16.459)">
        <path id="Trazado_106297" data-name="Trazado 106297" d="M2050.21,1210.9a24.3,24.3,0,0,0-1.3,3.129c-.454,1.452-1.587,6.071-1.587,6.071a7.773,7.773,0,0,0,5.593,2.513s1.75-2.739,1.133-5.212S2050.21,1210.9,2050.21,1210.9Z" transform="translate(-2047.32 -1210.903)" fill="#95b3ef"/>
      </g>
      <g id="Grupo_71551" data-name="Grupo 71551" transform="translate(0 27.753)">
        <g id="Grupo_71528" data-name="Grupo 71528" transform="translate(0)">
          <g id="Grupo_71519" data-name="Grupo 71519" transform="translate(24.498)">
            <g id="Grupo_71518" data-name="Grupo 71518">
              <path id="Trazado_106298" data-name="Trazado 106298" d="M1535.983,1315.443l-3.417,8.058-6.727,15.859-.227-.09a17.265,17.265,0,0,0-13.183.253l-.969-1.892v0h0l-6.884-13.452-3.989-7.794a43.355,43.355,0,0,1,35.354-.955h0Z" transform="translate(-1500.585 -1312.118)" fill="#f9ddbf"/>
            </g>
          </g>
          <g id="Grupo_71521" data-name="Grupo 71521" transform="translate(0 20.134)">
            <g id="Grupo_71520" data-name="Grupo 71520">
              <path id="Trazado_106299" data-name="Trazado 106299" d="M1310.194,1505.665q-.09.126-.179.255a17.2,17.2,0,0,0-3.017,9.747v.008h-25.971a43.036,43.036,0,0,1,6.684-23.106l7.571,4.411Z" transform="translate(-1281.027 -1492.569)" fill="#88b9ff"/>
            </g>
          </g>
          <g id="Grupo_71523" data-name="Grupo 71523" transform="translate(6.684 4.263)">
            <g id="Grupo_71522" data-name="Grupo 71522">
              <path id="Trazado_106300" data-name="Trazado 106300" d="M1370.589,1373.463l-.2.087-.037.017a17.342,17.342,0,0,0-6.942,5.722L1348.5,1370.6l-7.571-4.411a43.434,43.434,0,0,1,17.814-15.872l3.989,7.794,6.884,13.452h0v0Z" transform="translate(-1340.932 -1350.321)" fill="#afcdfb"/>
            </g>
          </g>
          <g id="Grupo_71525" data-name="Grupo 71525" transform="translate(57.428 20.304)">
            <g id="Grupo_71524" data-name="Grupo 71524">
              <path id="Trazado_106301" data-name="Trazado 106301" d="M1798.8,1517.027v-.008a17.182,17.182,0,0,0-2.927-9.614c-.05-.075-.1-.149-.152-.223l14.9-8.681,7.57-4.41a43.036,43.036,0,0,1,6.578,22.936Z" transform="translate(-1795.716 -1494.091)" fill="#e8672e"/>
            </g>
          </g>
          <g id="Grupo_71527" data-name="Grupo 71527" transform="translate(49.751 3.325)">
            <g id="Grupo_71526" data-name="Grupo 71526">
              <path id="Trazado_106302" data-name="Trazado 106302" d="M1757.063,1358.9l-7.57,4.409-14.9,8.681a17.32,17.32,0,0,0-7.633-6.134l-.044-.019,6.727-15.859,3.418-8.058A43.4,43.4,0,0,1,1757.063,1358.9Z" transform="translate(-1726.913 -1341.919)" fill="#f99746"/>
            </g>
          </g>
        </g>
        <g id="Grupo_71530" data-name="Grupo 71530" transform="translate(32.035 32.035)">
          <g id="Grupo_71529" data-name="Grupo 71529">
            <path id="Trazado_106303" data-name="Trazado 106303" d="M1590.544,1610.433h-22.41a11.213,11.213,0,0,1,6.18-10.018q.438-.22.9-.4a11.091,11.091,0,0,1,2.194-.618,11.272,11.272,0,0,1,5.8.521c.091.033.182.068.272.1a11.212,11.212,0,0,1,7.062,10.414Z" transform="translate(-1568.134 -1599.228)" fill="#aec3ff"/>
          </g>
        </g>
        <g id="Grupo_71532" data-name="Grupo 71532" transform="translate(35.802 35.802)">
          <g id="Grupo_71531" data-name="Grupo 71531">
            <path id="Trazado_106304" data-name="Trazado 106304" d="M1616.773,1640.43H1601.9a7.429,7.429,0,0,1,7.324-7.437h.113a7.423,7.423,0,0,1,2.37.385c.1.034.2.07.3.109a7.443,7.443,0,0,1,4.767,6.944Z" transform="translate(-1601.898 -1632.992)" fill="#88b9ff"/>
          </g>
        </g>
        <g id="Grupo_71536" data-name="Grupo 71536" transform="translate(41.675 19.082)">
          <g id="Grupo_71534" data-name="Grupo 71534">
            <g id="Grupo_71533" data-name="Grupo 71533">
              <path id="Trazado_106305" data-name="Trazado 106305" d="M1656.269,1505.484a1.935,1.935,0,0,1-1.026-.432c-.047-.039-.093-.08-.136-.123s-.084-.088-.123-.134a1.948,1.948,0,0,1-.146-2.3.194.194,0,0,1,.027-.034l.538-.589h0l2.116-2.316,2.4-2.622,3.835-4.2,1.34-1.466v0h0l7.365-8.061a.236.236,0,0,1,.324-.023l.317.26a.235.235,0,0,1,.041.32l-7.641,10.574-3.412,4.722-2.207,3.054-1.73,2.394-.243.337-.052.071a.288.288,0,0,1-.03.035A1.946,1.946,0,0,1,1656.269,1505.484Z" transform="translate(-1654.532 -1483.134)" fill="#2b478b"/>
            </g>
          </g>
          <g id="Grupo_71535" data-name="Grupo 71535" transform="translate(1.17 19.371)">
            <path id="Trazado_106306" data-name="Trazado 106306" d="M1665.289,1656.99a.883.883,0,1,1-.028,1.249A.884.884,0,0,1,1665.289,1656.99Z" transform="translate(-1665.016 -1656.746)" fill="#f9ddbf"/>
          </g>
        </g>
        <g id="Grupo_71550" data-name="Grupo 71550" transform="translate(0 43.189)">
          <g id="Grupo_71537" data-name="Grupo 71537">
            <rect id="Rect치ngulo_8948" data-name="Rect치ngulo 8948" width="86.479" height="7.561" fill="#2b478b"/>
          </g>
          <g id="Grupo_71549" data-name="Grupo 71549" transform="translate(23.995 1.968)">
            <g id="Grupo_71538" data-name="Grupo 71538">
              <path id="Trazado_106307" data-name="Trazado 106307" d="M1496.075,1718.639a1.849,1.849,0,0,1,3.184-1.242l-.461.531a1.213,1.213,0,0,0-.9-.391,1.105,1.105,0,0,0,0,2.2,1.264,1.264,0,0,0,.921-.41l.491.526a1.867,1.867,0,0,1-3.235-1.217Z" transform="translate(-1496.075 -1716.826)" fill="#91b5f8"/>
            </g>
            <g id="Grupo_71539" data-name="Grupo 71539" transform="translate(3.851 0.06)">
              <path id="Trazado_106308" data-name="Trazado 106308" d="M1530.585,1717.364h.771v1.387h1.422v-1.387h.771v3.5h-.771v-1.407h-1.422v1.407h-.771Z" transform="translate(-1530.585 -1717.364)" fill="#91b5f8"/>
            </g>
            <g id="Grupo_71540" data-name="Grupo 71540" transform="translate(7.501)">
              <path id="Trazado_106309" data-name="Trazado 106309" d="M1563.3,1718.639a1.863,1.863,0,1,1,1.858,1.813A1.813,1.813,0,0,1,1563.3,1718.639Zm2.919,0a1.065,1.065,0,0,0-1.062-1.1,1.051,1.051,0,0,0-1.052,1.1,1.065,1.065,0,0,0,1.062,1.1A1.051,1.051,0,0,0,1566.218,1718.639Z" transform="translate(-1563.299 -1716.826)" fill="#91b5f8"/>
            </g>
            <g id="Grupo_71541" data-name="Grupo 71541" transform="translate(11.912 0.06)">
              <path id="Trazado_106310" data-name="Trazado 106310" d="M1602.835,1717.364h.771v2.8h1.748v.7h-2.519Z" transform="translate(-1602.835 -1717.364)" fill="#91b5f8"/>
            </g>
            <g id="Grupo_71542" data-name="Grupo 71542" transform="translate(15.011 0.06)">
              <path id="Trazado_106311" data-name="Trazado 106311" d="M1630.613,1717.364h2.644v.686h-1.878v.711h1.652v.686h-1.652v.736h1.9v.686h-2.669Z" transform="translate(-1630.613 -1717.364)" fill="#91b5f8"/>
            </g>
            <g id="Grupo_71543" data-name="Grupo 71543" transform="translate(18.126 0.01)">
              <path id="Trazado_106312" data-name="Trazado 106312" d="M1658.526,1719.96l.456-.545a1.608,1.608,0,0,0,1.046.425c.316,0,.506-.125.506-.34,0-.2-.121-.3-.706-.446-.706-.18-1.162-.376-1.162-1.082a1.1,1.1,0,0,1,1.227-1.056,2.03,2.03,0,0,1,1.3.445l-.4.581a1.642,1.642,0,0,0-.911-.345c-.3,0-.451.135-.451.315,0,.23.15.305.756.461.711.185,1.112.441,1.112,1.061,0,.7-.531,1.087-1.287,1.087A2.23,2.23,0,0,1,1658.526,1719.96Z" transform="translate(-1658.526 -1716.916)" fill="#91b5f8"/>
            </g>
            <g id="Grupo_71544" data-name="Grupo 71544" transform="translate(21.245 0.06)">
              <path id="Trazado_106313" data-name="Trazado 106313" d="M1687.55,1718.075h-1.067v-.711h2.9v.711h-1.067v2.794h-.771Z" transform="translate(-1686.483 -1717.364)" fill="#91b5f8"/>
            </g>
            <g id="Grupo_71545" data-name="Grupo 71545" transform="translate(24.74 0.06)">
              <path id="Trazado_106314" data-name="Trazado 106314" d="M1717.808,1717.364h2.644v.686h-1.878v.711h1.652v.686h-1.652v.736h1.9v.686h-2.669Z" transform="translate(-1717.808 -1717.364)" fill="#91b5f8"/>
            </g>
            <g id="Grupo_71546" data-name="Grupo 71546" transform="translate(28.095 0.06)">
              <path id="Trazado_106315" data-name="Trazado 106315" d="M1747.876,1717.364h1.6a1.4,1.4,0,0,1,1.021.356,1.107,1.107,0,0,1,.3.811,1.089,1.089,0,0,1-.751,1.087l.856,1.251h-.9l-.761-1.121h-.6v1.121h-.771Zm1.552,1.7c.375,0,.591-.2.591-.506,0-.331-.23-.5-.606-.5h-.766v1.006Z" transform="translate(-1747.876 -1717.364)" fill="#91b5f8"/>
            </g>
            <g id="Grupo_71547" data-name="Grupo 71547" transform="translate(31.56)">
              <path id="Trazado_106316" data-name="Trazado 106316" d="M1778.93,1718.639a1.863,1.863,0,1,1,1.858,1.813A1.812,1.812,0,0,1,1778.93,1718.639Zm2.919,0a1.065,1.065,0,0,0-1.061-1.1,1.051,1.051,0,0,0-1.052,1.1,1.065,1.065,0,0,0,1.061,1.1A1.051,1.051,0,0,0,1781.849,1718.639Z" transform="translate(-1778.93 -1716.826)" fill="#91b5f8"/>
            </g>
            <g id="Grupo_71548" data-name="Grupo 71548" transform="translate(35.971 0.06)">
              <path id="Trazado_106317" data-name="Trazado 106317" d="M1818.465,1717.364h.771v2.8h1.748v.7h-2.519Z" transform="translate(-1818.465 -1717.364)" fill="#91b5f8"/>
            </g>
          </g>
        </g>
      </g>
      <g id="Grupo_71552" data-name="Grupo 71552" transform="translate(81.037 1.483)">
        <path id="Trazado_106318" data-name="Trazado 106318" d="M2011.667,1076.735a31.781,31.781,0,0,1,4.763,2.329c2.149,2.384,1.536,5.495.306,5.524-.788.019-.635,1.33-.635,1.33l-8.786-3.717S2008.373,1076.033,2011.667,1076.735Z" transform="translate(-2007.315 -1076.679)" fill="#2b478b"/>
      </g>
      <g id="Grupo_71553" data-name="Grupo 71553" transform="translate(95.049 28.044)">
        <path id="Trazado_106319" data-name="Trazado 106319" d="M2132.894,1362.708l1.9-.279a22.476,22.476,0,0,0,7.344-14.559,20.365,20.365,0,0,1,1.517-5.474c.68-1.1,1.843-3.182,3.122-5.518,2.305-4.206,4.989-9.237,5.909-10.839,2.933-5.107,1.519-8.541,1.519-8.541s-8.182-.809-10.424-2.77l-.807,1.245s-1.773,7.848-1.689,7.884l-.266.815a136.548,136.548,0,0,0-3.885,14.111c-.493,2.473-.625,7.374-.759,8.329C2135.585,1352.745,2132.894,1362.708,2132.894,1362.708Z" transform="translate(-2132.894 -1314.728)" fill="#2b478b"/>
      </g>
      <g id="Grupo_71554" data-name="Grupo 71554" transform="translate(91.061 74.016)">
        <path id="Trazado_106320" data-name="Trazado 106320" d="M2097.151,1731.162h7.932a4.354,4.354,0,0,0-.224-2.126c-.4-.88-.963-.908-.072-2.288-.5.519-2.125.734-3.271.579a9.7,9.7,0,0,1-1.375,2.093C2099.622,1729.793,2097.311,1729.66,2097.151,1731.162Z" transform="translate(-2097.151 -1726.748)" fill="#223e6b"/>
      </g>
      <g id="Grupo_71555" data-name="Grupo 71555" transform="translate(108.809 27.544)">
        <path id="Trazado_106321" data-name="Trazado 106321" d="M2256.342,1332.9c2.305-4.206,4.989-9.237,5.909-10.839,2.933-5.107,1.519-8.54,1.519-8.54a21.648,21.648,0,0,1-6.208-3.27S2255.729,1326.214,2256.342,1332.9Z" transform="translate(-2256.216 -1310.248)" fill="#233862"/>
      </g>
      <g id="Grupo_71556" data-name="Grupo 71556" transform="translate(108.712 26.389)">
        <path id="Trazado_106322" data-name="Trazado 106322" d="M2255.374,1304.91l-.027-1.484c2.956.373,10.191-3.532,10.191-3.532s3.092,2.057,3.515,7.93c.207,2.867,1.514,14.991,1.659,18.611a20.33,20.33,0,0,0,1.8,5.386c4.51,8.392,2.152,19.794,2.152,19.794l-1.048-.266s-3.813-11.82-6.306-16.933c-.423-.867-3.054-5-4.028-7.33a141.052,141.052,0,0,1-4.9-14.7C2258.292,1312.407,2255.374,1304.91,2255.374,1304.91Z" transform="translate(-2255.347 -1299.894)" fill="#2b478b"/>
      </g>
      <g id="Grupo_71557" data-name="Grupo 71557" transform="translate(86.306 10.116)">
        <path id="Trazado_106323" data-name="Trazado 106323" d="M2059.673,1165.437c4.832-1.109,1.745-7.9,1.465-7.779-.669-.136-2.14-1.312-3.455-3.608l-.178.154-2.968,2.6s.686,1.012,1.263,2a4.532,4.532,0,0,1,.773,1.8C2056.335,1160.8,2058.384,1165.733,2059.673,1165.437Z" transform="translate(-2054.537 -1154.05)" fill="#ffb27d"/>
      </g>
      <g id="Grupo_71558" data-name="Grupo 71558" transform="translate(86.306 10.271)">
        <path id="Trazado_106324" data-name="Trazado 106324" d="M2054.538,1158.04s.686,1.011,1.263,2c1.845-1.137,1.847-3.422,1.7-4.605Z" transform="translate(-2054.538 -1155.438)" fill="#ed985f"/>
      </g>
      <g id="Grupo_71559" data-name="Grupo 71559" transform="translate(81.386 4.966)">
        <path id="Trazado_106325" data-name="Trazado 106325" d="M2015.276,1117.1s4.48-2.493,2.885-5.259-2.092-4.951-5.02-3.476-2.87,2.848-2.562,3.9S2014.069,1117.681,2015.276,1117.1Z" transform="translate(-2010.437 -1107.894)" fill="#ffb27d"/>
      </g>
      <g id="Grupo_71560" data-name="Grupo 71560" transform="translate(80.741 4.591)">
        <path id="Trazado_106326" data-name="Trazado 106326" d="M2004.687,1107.673c.205-1.228.829-1.345,1.264-1.263a3.583,3.583,0,0,1,4.357-1.669,6.1,6.1,0,0,0,3.531,2.121s-.52.967-2.662,1.566a3.659,3.659,0,0,1-2.113-.169,11.956,11.956,0,0,0,3.04,1.146c-2.823.258-5.509-2.322-5.787-2.6a4.019,4.019,0,0,0-.222,1.849c.186.832.924,2.339.473,2.533C2006.569,1111.19,2004.379,1109.515,2004.687,1107.673Z" transform="translate(-2004.657 -1104.536)" fill="#2b478b"/>
      </g>
      <g id="Grupo_71561" data-name="Grupo 71561" transform="translate(121.725 73.959)">
        <path id="Trazado_106327" data-name="Trazado 106327" d="M2371.969,1730.705h7.932a4.353,4.353,0,0,0-.224-2.126c-.4-.88-1.019-1.28-.87-2.345a2.856,2.856,0,0,1-2.472.946,8.709,8.709,0,0,1-1.376,1.784C2374.44,1729.336,2372.128,1729.2,2371.969,1730.705Z" transform="translate(-2371.969 -1726.234)" fill="#223e6b"/>
      </g>
      <g id="Grupo_71562" data-name="Grupo 71562" transform="translate(88.264 12.737)">
        <path id="Trazado_106328" data-name="Trazado 106328" d="M2074.688,1191.693a19.284,19.284,0,0,0,3.918.71,26.427,26.427,0,0,1,5.368.833,7.175,7.175,0,0,1,1.5.821h0a.553.553,0,0,1,.044.033,4.845,4.845,0,0,1,.622.537,3.4,3.4,0,0,1,.728,1.08c.414,1.022-.134,3.855-.485,5.4a1.407,1.407,0,0,0,.72,1.561q1.189.615,2.338,1.135l.121.054c-.007-.158-.01-.314-.01-.467a14.446,14.446,0,0,1,.134-1.958,8.2,8.2,0,0,0,1.562,3.14c10.645,4.271,18.082,2.415,17.96.287-.42-7.388-5.4-13.671-5.4-13.671-9.291-10.8-28.086-13.649-28.086-13.649s-.9-.109-1.986,1.2c-1.562,1.88-1.64,2.37-1.64,2.37S2071.685,1190.645,2074.688,1191.693Z" transform="translate(-2072.078 -1177.544)" fill="#afcdfb"/>
      </g>
      <g id="Grupo_71563" data-name="Grupo 71563" transform="translate(94.792 16.36)">
        <path id="Trazado_106329" data-name="Trazado 106329" d="M2130.59,1221.247a26.483,26.483,0,0,1,5.367.833,21.991,21.991,0,0,0-2.79-12.07S2131.047,1218.64,2130.59,1221.247Z" transform="translate(-2130.59 -1210.01)" fill="#95b3ef"/>
      </g>
      <g id="Grupo_71564" data-name="Grupo 71564" transform="translate(81.169 15.027)">
        <path id="Trazado_106330" data-name="Trazado 106330" d="M2019.924,1198.065s5.227.517,5.646,3.913-5.012,17.231-5.789,18.484c-1.416,2.281-9.753,10.1-9.753,10.1l-1.537-.931s5.914-10.011,6.83-10.949C2016.758,1217.209,2018.154,1199.241,2019.924,1198.065Z" transform="translate(-2008.491 -1198.065)" fill="#ffb27d"/>
      </g>
      <g id="Grupo_71565" data-name="Grupo 71565" transform="translate(89.72 14.546)">
        <path id="Trazado_106331" data-name="Trazado 106331" d="M2085.334,1200.721s-.537-8.758,6.166-6.64-1.04,17.181-1.04,17.181-3.934-.194-5.329-3.627Z" transform="translate(-2085.131 -1193.751)" fill="#afcdfb"/>
      </g>
      <g id="Grupo_71566" data-name="Grupo 71566" transform="translate(102.33 29.823)">
        <path id="Trazado_106332" data-name="Trazado 106332" d="M2198.385,1337.154a1.407,1.407,0,0,0,.72,1.561q1.19.615,2.339,1.135c.041-.13.078-.267.111-.412a7.174,7.174,0,0,0,.134-1.958,10.623,10.623,0,0,0-3.546-6.81,3.4,3.4,0,0,1,.728,1.08C2199.284,1332.772,2198.737,1335.605,2198.385,1337.154Z" transform="translate(-2198.143 -1330.67)" fill="#95b3ef"/>
      </g>
      <g id="Grupo_71567" data-name="Grupo 71567" transform="translate(88.283 11.737)">
        <path id="Trazado_106333" data-name="Trazado 106333" d="M2075.876,1169.586s-.819-1.035-1.372-1c0,0-2.237,3.131-2.255,4.568C2072.25,1173.153,2075.04,1169.44,2075.876,1169.586Z" transform="translate(-2072.25 -1168.584)" fill="#95b3ef"/>
      </g>
      <g id="Grupo_71568" data-name="Grupo 71568" transform="translate(79.901 46.196)">
        <path id="Trazado_106334" data-name="Trazado 106334" d="M1998.4,1477.807a18.593,18.593,0,0,1-1.134,2.158c-.4.546.228,2.473.309,2.757s.406-.494.343-1.038-.021-.813.11-.792a3.514,3.514,0,0,1,.891,1.932c.063.856.229,1.522.479,1.262s1.559-2.024,1.067-3.3-1.007-1.4.11-2.648C2001.838,1476.728,1998.4,1477.807,1998.4,1477.807Z" transform="translate(-1997.133 -1477.412)" fill="#ffb27d"/>
      </g>
      <g id="Grupo_71569" data-name="Grupo 71569" transform="translate(72.786 41.329)">
        <path id="Trazado_106335" data-name="Trazado 106335" d="M1935.727,1433.8a3.881,3.881,0,0,1-1.417.207c-.792-.034-1.24.352-.723.434s2,.579,2.807.289S1935.727,1433.8,1935.727,1433.8Z" transform="translate(-1933.366 -1433.796)" fill="#ed985f"/>
      </g>
    </g>
    <g id="Grupo_71579" data-name="Grupo 71579" transform="translate(301.878 323.594)">
      <g id="Grupo_71574" data-name="Grupo 71574" transform="translate(0 7.576)">
        <g id="Grupo_71571" data-name="Grupo 71571">
          <path id="Trazado_106336" data-name="Trazado 106336" d="M1044.388,1709.391a3.342,3.342,0,0,0,3.331,3.331h15.728a3.33,3.33,0,0,0,0-6.66h-15.728A3.34,3.34,0,0,0,1044.388,1709.391Z" transform="translate(-1044.388 -1706.061)" fill="#9db0f4"/>
        </g>
        <g id="Grupo_71572" data-name="Grupo 71572" transform="translate(8.114)">
          <path id="Trazado_106337" data-name="Trazado 106337" d="M1117.1,1709.391a3.34,3.34,0,0,0,3.329,3.331h7.616a3.33,3.33,0,0,0,0-6.66h-7.616A3.339,3.339,0,0,0,1117.1,1709.391Z" transform="translate(-1117.105 -1706.061)" fill="#aec3ff"/>
        </g>
        <g id="Grupo_71573" data-name="Grupo 71573" transform="translate(2.592 0.739)" opacity="0.4">
          <path id="Rect치ngulo_8949" data-name="Rect치ngulo 8949" d="M.525,0h14.9a.525.525,0,0,1,.525.525v0a.525.525,0,0,1-.525.525H.525A.525.525,0,0,1,0,.525v0A.525.525,0,0,1,.525,0Z" transform="translate(15.946 1.05) rotate(180)" fill="#fff"/>
        </g>
      </g>
      <g id="Grupo_71578" data-name="Grupo 71578" transform="translate(15.476)">
        <g id="Grupo_71575" data-name="Grupo 71575">
          <path id="Trazado_106338" data-name="Trazado 106338" d="M1183.416,1640.208a3.544,3.544,0,0,0,1.723,4.687l15.135,7a3.531,3.531,0,0,0,2.964-6.409l-15.135-7A3.542,3.542,0,0,0,1183.416,1640.208Z" transform="translate(-1183.092 -1638.161)" fill="#ed7d2b"/>
        </g>
        <g id="Grupo_71576" data-name="Grupo 71576" transform="translate(7.807 3.61)">
          <path id="Trazado_106339" data-name="Trazado 106339" d="M1253.388,1672.56a3.541,3.541,0,0,0,1.722,4.687l7.328,3.388a3.531,3.531,0,0,0,2.964-6.409l-7.328-3.388A3.54,3.54,0,0,0,1253.388,1672.56Z" transform="translate(-1253.064 -1670.513)" fill="#f99746"/>
        </g>
        <g id="Grupo_71577" data-name="Grupo 71577" transform="translate(3.668 0.87)" opacity="0.5">
          <path id="Trazado_106340" data-name="Trazado 106340" d="M1216.257,1647.019l14.437,6.675a.5.5,0,0,0,.664-.244l.047-.1a.5.5,0,0,0-.244-.664l-14.437-6.675a.5.5,0,0,0-.664.244l-.047.1A.5.5,0,0,0,1216.257,1647.019Z" transform="translate(-1215.967 -1645.962)" fill="#fff"/>
        </g>
      </g>
    </g>
    <g id="Grupo_71580" data-name="Grupo 71580" transform="translate(218.621 337.788)">
      <path id="Trazado_106341" data-name="Trazado 106341" d="M556.279,1766.207l-257.766-.089a.307.307,0,0,1-.306-.306v-.137a.307.307,0,0,1,.306-.306l257.766.089a.307.307,0,0,1,.306.306v.137A.307.307,0,0,1,556.279,1766.207Z" transform="translate(-298.207 -1765.369)" fill="#2e3552"/>
    </g>
  </g>
</svg>
