<svg xmlns="http://www.w3.org/2000/svg" xmlns:xlink="http://www.w3.org/1999/xlink" width="295" height="295" viewBox="0 0 295 295">
  <defs>
    <clipPath id="clip-path">
      <rect id="Rectángulo_8960" data-name="Rectángulo 8960" width="295" height="295" fill="none"/>
    </clipPath>
    <clipPath id="clip-path-2">
      <path id="Trazado_106587" data-name="Trazado 106587" d="M1019.756,1106.287l-38.7,2.169-5.094-26.927s-1.685,23-2.832,26.927c-12.052-.014-26.434-.564-35.815-2.169-.26-.045,3.678-62.5,3.656-74.559q-.03-17.309.206-34.618c.142-11.032-.647-22.494,1.108-33.413,1.44-8.966,5.343-17.567,14.856-18.472,5.655-.537,11.343-1.163,17.04-1.242v-.013c.2,0,.406,0,.609.006s.406-.008.609-.008v.014c5.7.058,11.387.663,17.045,1.181,7.6.7,12.316,7.093,13.9,14.385,2.191,10.1,2.426,20.564,2.06,30.871-.375,10.558.258,21.082.807,31.631.659,12.641.5,25.342,2.581,37.773C1012.308,1062.927,1019.086,1106.348,1019.756,1106.287Z" transform="translate(-937.302 -943.968)" fill="#fff"/>
    </clipPath>
    <clipPath id="clip-path-3">
      <path id="Trazado_106616" data-name="Trazado 106616" d="M1007.691,907.226a21.909,21.909,0,0,1-8.107,4.156c-4.028,1.13-8.653.03-12.245-1.96-5.941-3.292-6.363-9.969-7.924-15.88l11.693-3.075a21.32,21.32,0,0,1,10.844,0l11.694,3.075c-.97,3.67-1.559,7.566-3.53,10.876A11.569,11.569,0,0,1,1007.691,907.226Z" transform="translate(-979.415 -889.766)" fill="#fff"/>
    </clipPath>
  </defs>
  <g id="Grupo_71706" data-name="Grupo 71706" transform="translate(-711.172 -711.172)">
    <g id="Grupo_71705" data-name="Grupo 71705" transform="translate(711.172 711.172)" clip-path="url(#clip-path)">
      <g id="Grupo_71704" data-name="Grupo 71704" transform="translate(-10.134 43.641)">
        <g id="Grupo_71645" data-name="Grupo 71645" transform="translate(0 193.997)" opacity="0.84">
          <rect id="Rectángulo_8958" data-name="Rectángulo 8958" width="315.267" height="57.362" fill="#fe851b"/>
        </g>
        <g id="Grupo_71701" data-name="Grupo 71701" transform="translate(93.043)">
          <g id="Grupo_71646" data-name="Grupo 71646" transform="translate(31.106 1.721)">
            <path id="Trazado_106578" data-name="Trazado 106578" d="M1018.842,906a23.39,23.39,0,0,1-21.676-2.368c-6.119-4.352-11.73-7.553-19.506-7.783-4.829-.143-9.355,1.876-13.957,3.03-4.045,1.014-7.135,4.263-11.5,4.86-5.731.785-11.617-2.739-14.195-7.918a17.965,17.965,0,0,1,.869-16.639c2.1-3.661,4.04-6.393,1.675-10.474a17.671,17.671,0,0,1-1.516-2.677,7.464,7.464,0,0,1-.345-2.87c.213-5.288,4.219-9.252,6.888-13.619a9.231,9.231,0,0,0,1.439-3.261c.479-3.006-1.909-5.605-3.183-8.371-4.126-8.96,2.915-19.15,9.768-24.527,4.043-3.171,8.889-4.452,13.25-7.037,1.986-1.177,3.8-2.635,5.805-3.771,3.5-1.981,7.322-2.065,11.213-1.519,11.082,1.554,23.682,9.61,26.25,21.2,1.741,7.859-1.11,17,6.676,22.5,2.345,1.658,5.307,2.643,6.906,5.028,3.4,5.068-1.595,12.576,1.513,17.828a17.7,17.7,0,0,0,2.672,3.073,25.33,25.33,0,0,1,6.844,19.732,12.673,12.673,0,0,1-1.4,5.029,16.61,16.61,0,0,1-5.148,4.977,47.655,47.655,0,0,1-9.254,5.535Z" transform="translate(-936.366 -800.766)" fill="#0b2d4e"/>
          </g>
          <g id="Grupo_71647" data-name="Grupo 71647" transform="translate(45.723 41.794)">
            <path id="Trazado_106579" data-name="Trazado 106579" d="M1018.491,910.632a14.445,14.445,0,0,1-1.153,8.429c-3.392,7.058-11.791,8.435-18.873,8.71a42.179,42.179,0,0,1-7.853-.416c-2.313-.345-4.373.007-6.711-.046a25.692,25.692,0,0,1-13.117-3.948,12.193,12.193,0,0,1-4.66-4.756c-1.339-2.787-.949-6.079-.241-9.089A18.363,18.363,0,0,1,967.7,904.5c.954-1.654,2.324-3.059,3.12-4.8,1.5-3.264.266-7.078,1.6-10.279a18.786,18.786,0,0,1,5.831-6.9,15.934,15.934,0,0,1,10.405-2.559,44.193,44.193,0,0,1,10.62,2.477c2.727.892,5.072.34,7.073,2.593,1.586,1.786,1.032,4.7,1.539,6.865C1009.586,899.176,1017.343,903.016,1018.491,910.632Z" transform="translate(-965.234 -879.915)" fill="#061f33"/>
          </g>
          <g id="Grupo_71648" data-name="Grupo 71648" transform="translate(5.041 75.027)">
            <path id="Trazado_106580" data-name="Trazado 106580" d="M912.595,957.393c4.226-5.044,9.074-9.988,15.733-11.459,3.885-.858,10.777-.617,11.409,4.4.353,2.8-2.048,5.136-3.642,7.517-1.772,2.647-2.76,5.788-4.147,8.633-2.779,5.7-7.038,10.387-10.625,15.609-3.989,5.806-6.891,12.394-11.013,18.053-3.177,4.361-7.43,9-12.513,11.218-4.209,1.833-9.55,1.465-11.714-2.98-1.92-3.945-1.286-9.124.148-13.169,1.008-2.846,2.94-5.169,4.817-7.505a109.491,109.491,0,0,0,6.4-9.388A209.2,209.2,0,0,1,912.595,957.393Z" transform="translate(-884.883 -945.552)" fill="#fff"/>
          </g>
          <g id="Grupo_71649" data-name="Grupo 71649" transform="translate(78.528 75.613)">
            <path id="Trazado_106581" data-name="Trazado 106581" d="M1071.606,1014.241c-6.7-.367-14.743-7.762-18.153-12.06-10.155-12.8-24.127-29.211-23.4-46.427a10.115,10.115,0,0,1,1.359-5.2c5.568-8.414,21.968-1.151,26.941,4.2,4.877,5.251,8.026,11.7,11.23,18.028,3.511,6.937,7.01,13.94,9.33,21.388,1.258,4.038,2.767,9.644,1.128,13.758C1078.114,1012.776,1075.035,1014.428,1071.606,1014.241Z" transform="translate(-1030.028 -946.711)" fill="#fff"/>
          </g>
          <g id="Grupo_71650" data-name="Grupo 71650" transform="translate(66.286 162.293)">
            <path id="Trazado_106582" data-name="Trazado 106582" d="M1043.719,1221.484c.14,16.579-.689,29.921-.551,50.693.02,2.9.093,5.8.155,8.7.036,1.7.6,5.515-.771,6.81a3.527,3.527,0,0,1-1.355.689,37.1,37.1,0,0,1-9.825,2.071,25.486,25.486,0,0,1-10.648-2.125.458.458,0,0,1-.2-.12.467.467,0,0,1-.078-.258c-.194-2.079-.147-4.064-.152-6.131q-.012-5.692-.221-11.382c-.271-7.584-.776-15.159-1.428-22.719-1.307-15.155-3.2-30.25-5.009-45.351-1.407-11.776-2.761-23.561-3.735-35.383-.917-11.122-4.491-21.639-4.012-32.948.193-4.556,1.021-9.481,4.352-12.594,3.766-3.521,9.491-3.641,14.645-3.473,13.6.445,16.875,13.035,18.524,23.81,1.972,12.88.885,27.166.4,40.187C1043.316,1195.12,1043.608,1208.294,1043.719,1221.484Z" transform="translate(-1005.848 -1117.913)" fill="#0b2d4e"/>
          </g>
          <g id="Grupo_71651" data-name="Grupo 71651" transform="translate(35.922 161.982)">
            <path id="Trazado_106583" data-name="Trazado 106583" d="M950.878,1272.725c.067,4.958.183,9.9.248,14.869a1.315,1.315,0,0,0,.143.706,1.21,1.21,0,0,0,.482.378c2.889,1.5,22.619,3.057,22.407-2.163-.379-9.3-.317-18.612.03-27.91.809-21.67,3.161-43.239,5.066-64.83q2.189-24.808,3.47-49.685c.544-10.711.071-24.095-12.9-26.6-7.692-1.485-18,5.827-20.3,13.316-4.571,14.881-3.808,24.232-3.154,39.643.673,15.865,2.281,35.734,2.578,51.614C949.26,1238.642,950.451,1251.956,950.878,1272.725Z" transform="translate(-945.877 -1117.298)" fill="#0b2d4e"/>
          </g>
          <g id="Grupo_71657" data-name="Grupo 71657" transform="translate(31.58 74.225)">
            <path id="Trazado_106584" data-name="Trazado 106584" d="M1019.756,1106.287l-38.7,2.169-5.094-26.927s-1.685,23-2.832,26.927c-12.052-.014-26.434-.564-35.815-2.169-.26-.045,3.678-62.5,3.656-74.559q-.03-17.309.206-34.618c.142-11.032-.647-22.494,1.108-33.413,1.44-8.966,5.343-17.567,14.856-18.472,5.655-.537,11.343-1.163,17.04-1.242v-.013c.2,0,.406,0,.609.006s.406-.008.609-.008v.014c5.7.058,11.387.663,17.045,1.181,7.6.7,12.316,7.093,13.9,14.385,2.191,10.1,2.426,20.564,2.06,30.871-.375,10.558.258,21.082.807,31.631.659,12.641.5,25.342,2.581,37.773C1012.308,1062.927,1019.086,1106.348,1019.756,1106.287Z" transform="translate(-937.302 -943.968)" fill="#fff"/>
            <g id="Grupo_71656" data-name="Grupo 71656" clip-path="url(#clip-path-2)">
              <g id="Grupo_71652" data-name="Grupo 71652" transform="translate(24.912 -5.362)">
                <path id="Trazado_106585" data-name="Trazado 106585" d="M986.5,935.455l12.088,51.209,16.578-53.287Z" transform="translate(-986.505 -933.377)" fill="#2592a9"/>
              </g>
              <g id="Grupo_71654" data-name="Grupo 71654" transform="translate(25.414 -3.315)">
                <g id="Grupo_71653" data-name="Grupo 71653">
                  <path id="Trazado_106586" data-name="Trazado 106586" d="M987.5,937.421l11.049,11.626,2,7.25,2.294-6.819,13.673-12.057Z" transform="translate(-987.497 -937.421)" fill="#f8a17a"/>
                </g>
              </g>
              <g id="Grupo_71655" data-name="Grupo 71655" transform="translate(36.779 47.92)">
                <rect id="Rectángulo_8959" data-name="Rectángulo 8959" width="0.441" height="100.272" transform="translate(0 0.009) rotate(-1.126)" fill="#b7c6ca"/>
              </g>
            </g>
          </g>
          <g id="Grupo_71667" data-name="Grupo 71667" transform="translate(28.574 71.67)">
            <g id="Grupo_71658" data-name="Grupo 71658" transform="translate(53.725 0.129)">
              <path id="Trazado_106588" data-name="Trazado 106588" d="M1049.061,987.124l-1.615-.1a141.893,141.893,0,0,0-.707-25.941c-.59-4.933-1.484-10.111-4-14.549-1.715-3.022-3.19-4.7-5.26-5.975l.85-1.377c2.324,1.435,3.955,3.273,5.817,6.554,2.66,4.687,3.592,10.054,4.2,15.156A143.446,143.446,0,0,1,1049.061,987.124Z" transform="translate(-1037.477 -939.177)" fill="#515151"/>
            </g>
            <g id="Grupo_71659" data-name="Grupo 71659" transform="translate(14.346)">
              <path id="Trazado_106589" data-name="Trazado 106589" d="M961.317,977.783H959.7c0-7.381,0-12.258,1.768-20.019.934-4.1,3.9-14.149,11.223-18.843l.873,1.362c-6.822,4.371-9.628,13.932-10.518,17.84C961.318,965.707,961.318,970.253,961.317,977.783Z" transform="translate(-959.699 -938.922)" fill="#515151"/>
            </g>
            <g id="Grupo_71660" data-name="Grupo 71660" transform="translate(1.7 47.34)">
              <path id="Trazado_106590" data-name="Trazado 106590" d="M940.385,1068.9a28.141,28.141,0,0,1-5.663-.743l.3-1.44c3.541.741,6.941,1.276,9.628-.308,3.192-1.881,4.194-6.149,4.882-10l2.852-15.959c.152-.851.347-1.716.553-2.632a33.25,33.25,0,0,0,.91-5.392l1.469.079a34.364,34.364,0,0,1-.944,5.636c-.2.9-.394,1.749-.54,2.568l-2.851,15.959c-.746,4.175-1.855,8.813-5.584,11.011A9.671,9.671,0,0,1,940.385,1068.9Z" transform="translate(-934.722 -1032.423)" fill="#8f8f8f"/>
            </g>
            <g id="Grupo_71661" data-name="Grupo 71661" transform="translate(7.964 38.052)">
              <path id="Trazado_106591" data-name="Trazado 106591" d="M947.4,1024.38c-.315-2.112-.748-5.005.8-7.318a7.237,7.237,0,0,1,6.574-2.952,7.134,7.134,0,0,1,5.473,3.425,10.211,10.211,0,0,1,1.249,5.914l-1.616-.087a8.656,8.656,0,0,0-1.026-5,5.51,5.51,0,0,0-4.232-2.638,5.577,5.577,0,0,0-5.077,2.242c-1.2,1.792-.839,4.223-.547,6.177Z" transform="translate(-947.094 -1014.079)" fill="#515151"/>
            </g>
            <g id="Grupo_71662" data-name="Grupo 71662" transform="translate(8.342 48.125)">
              <path id="Trazado_106592" data-name="Trazado 106592" d="M961.988,1069.912a9.944,9.944,0,0,1-5.416-1.372c-3.665-2.3-4.641-6.971-5.268-11.165l-3.463-23.183,1.455-.218,3.464,23.183c.578,3.871,1.458,8.165,4.595,10.137,2.64,1.659,6.054,1.222,9.615.582l.26,1.448A30.092,30.092,0,0,1,961.988,1069.912Z" transform="translate(-947.841 -1033.974)" fill="#8f8f8f"/>
            </g>
            <g id="Grupo_71663" data-name="Grupo 71663" transform="translate(58.824 43.766)">
              <circle id="Elipse_5364" data-name="Elipse 5364" cx="5.974" cy="5.974" r="5.974" fill="#cad1d8"/>
            </g>
            <g id="Grupo_71664" data-name="Grupo 71664" transform="translate(60.941 45.882)">
              <circle id="Elipse_5365" data-name="Elipse 5365" cx="2.752" cy="2.752" r="2.752" transform="translate(0 4.377) rotate(-52.669)" fill="#8b8b8c"/>
            </g>
            <g id="Grupo_71665" data-name="Grupo 71665" transform="translate(0 80.502)">
              <circle id="Elipse_5366" data-name="Elipse 5366" cx="1.851" cy="1.851" r="1.851" fill="#515151"/>
            </g>
            <g id="Grupo_71666" data-name="Grupo 71666" transform="translate(25.923 80.502)">
              <circle id="Elipse_5367" data-name="Elipse 5367" cx="1.851" cy="1.851" r="1.851" fill="#515151"/>
            </g>
          </g>
          <g id="Grupo_71668" data-name="Grupo 71668" transform="translate(2.723 73.744)">
            <path id="Trazado_106593" data-name="Trazado 106593" d="M897.44,979.508c.235,2.982.454,5.965.608,8.95a60.436,60.436,0,0,1-.325,11.8c-.44,3.033-.826,6.745-3.838,8.372a9.229,9.229,0,0,1-4.732.952c-3.463-.126-6.833-1.657-7.664-5.11A43.257,43.257,0,0,1,880.359,992c.33-7.6,1.181-15.187,1.759-22.765.525-6.864.817-13.779,2.551-20.508.631-2.448,1.727-4.7,4.318-5.467a4.513,4.513,0,0,1,5.535,2.066c1.424,3.016,1.487,6.591,1.446,9.9-.044,3.622.256,7.269.467,10.886C896.7,970.578,897.088,975.042,897.44,979.508Z" transform="translate(-880.305 -943.02)" fill="#f8a17a"/>
          </g>
          <g id="Grupo_71669" data-name="Grupo 71669" transform="translate(58.406 52.755)">
            <path id="Trazado_106594" data-name="Trazado 106594" d="M994.21,925.428c5.438,1.342,11.138,1.724,16.317-.356a2.96,2.96,0,0,0,1.474-1.026c.875-1.356-1.035-4.219-1.37-5.562a27.6,27.6,0,0,1-.484-7.413c.073-2.888.094-5.784.241-8.668a33.552,33.552,0,0,0-8.6-.782c-2.63.1-5.257-.159-7.885-.011a.963.963,0,0,0-.59.167.79.79,0,0,0-.2.542c-.352,3.9-.006,7.85-.282,11.757a20.071,20.071,0,0,1-1.355,6.715c-.339.744-1.7,2.623-1,3.429a1.362,1.362,0,0,0,.654.349C992.15,924.882,993.175,925.172,994.21,925.428Z" transform="translate(-990.286 -901.563)" fill="#f8a17a"/>
          </g>
          <g id="Grupo_71670" data-name="Grupo 71670" transform="translate(60.59 52.722)">
            <path id="Trazado_106595" data-name="Trazado 106595" d="M1012.642,917.926a30.186,30.186,0,0,1-.291-6.92c.073-2.888.094-5.784.241-8.668a33.56,33.56,0,0,0-8.6-.782c-2.63.1-5.256-.158-7.885-.011a.965.965,0,0,0-.591.167.79.79,0,0,0-.2.542c-.352,3.9-.006,7.85-.282,11.757a27.371,27.371,0,0,1-.442,3.342c.413.345.833.676,1.265.982a13.988,13.988,0,0,0,11.506,2A17.2,17.2,0,0,0,1012.642,917.926Z" transform="translate(-994.599 -901.499)" fill="#e5785c"/>
          </g>
          <g id="Grupo_71671" data-name="Grupo 71671" transform="translate(72.314 70.785)">
            <path id="Trazado_106596" data-name="Trazado 106596" d="M1017.754,949.356l8.754,7.163,8.485-15.01-7.333-4.335Z" transform="translate(-1017.754 -937.174)" fill="#00afcd"/>
          </g>
          <g id="Grupo_71672" data-name="Grupo 71672" transform="translate(49.936 70.785)">
            <path id="Trazado_106597" data-name="Trazado 106597" d="M991.434,948.925l-9.111,6.978-8.768-14.394,7.333-4.335Z" transform="translate(-973.556 -937.174)" fill="#00afcd"/>
          </g>
          <g id="Grupo_71673" data-name="Grupo 71673" transform="translate(3.681 45.522)">
            <path id="Trazado_106598" data-name="Trazado 106598" d="M893.966,889.427c-.56,3.956-.092,8.043-.118,12.026a5.247,5.247,0,0,0-2.183-.2,1.789,1.789,0,0,0-1.5,1.412,2.626,2.626,0,0,0-3.741,2.123,2.857,2.857,0,0,0-3.157.3c-1.356,1.146-1.057,3.529-1,5.127a32.182,32.182,0,0,0,.859,6.383,19.9,19.9,0,0,0,6.074,10.571,1.683,1.683,0,0,0,1.149.531,1.753,1.753,0,0,0,1.1-.778,54.858,54.858,0,0,0,6.013-9.067,12.866,12.866,0,0,0,1.667-4.707c.157-1.668-.356-3.2-.457-4.835q-.175-2.853-.341-5.706-.2-3.492-.385-6.985c-.085-1.6.23-8.967-2.725-8.3C894.372,887.513,894.089,888.563,893.966,889.427Z" transform="translate(-882.197 -887.278)" fill="#f8a17a"/>
          </g>
          <g id="Grupo_71674" data-name="Grupo 71674" transform="translate(9.174 68.514)">
            <path id="Trazado_106599" data-name="Trazado 106599" d="M898.945,941.258a15.321,15.321,0,0,1,4.4-5.955.862.862,0,0,0,.391-.552c.015-.264-.213-.47-.425-.627,0-.41-2.146-1.211-2.517-1.434a3.52,3.52,0,0,1-1.858,2.034,2.047,2.047,0,0,1-2.487-.748,3.74,3.74,0,0,1-3.4,1.668c1.035.9,2.376,1.348,3.432,2.272A9.541,9.541,0,0,1,898.945,941.258Z" transform="translate(-893.046 -932.69)" fill="#e5785c"/>
          </g>
          <g id="Grupo_71675" data-name="Grupo 71675" transform="translate(13.542 64.081)">
            <path id="Trazado_106600" data-name="Trazado 106600" d="M905.87,929.882a20.3,20.3,0,0,0-2.914-2.007c-.941-.717-1.663-2.043-1.059-3.061s2.053-1.026,3.165-.674a15.754,15.754,0,0,1,2.762,1.288c2.2,1.207,5.066,2.4,5.1,5.377a7.674,7.674,0,0,1-1.03,3.52,21.275,21.275,0,0,1-8.862,8.981c-.834-1.822.224-3.925,1.385-5.558C905.923,935.622,908.115,932.322,905.87,929.882Z" transform="translate(-901.675 -923.934)" fill="#f8a17a"/>
          </g>
          <g id="Grupo_71676" data-name="Grupo 71676" transform="translate(122.797 141.971)">
            <path id="Trazado_106601" data-name="Trazado 106601" d="M1135.006,1082.007a3.7,3.7,0,0,0,.059-.776c-.1-3.173-3.84-4.028-6.276-3.108a22.211,22.211,0,0,0-5.6,3.641c-2.113,1.83-4.724,4.384-5.64,7.092a.98.98,0,0,0-.064.578c.125.425.684.5,1.128.5l7.578-.035a8.055,8.055,0,0,0,3.4-.507,5.727,5.727,0,0,0,1.774-1.385,27.119,27.119,0,0,0,2.057-2.823A8.547,8.547,0,0,0,1135.006,1082.007Z" transform="translate(-1117.464 -1077.774)" fill="#e5785c"/>
          </g>
          <g id="Grupo_71679" data-name="Grupo 71679" transform="translate(82.465 93.442)">
            <g id="Grupo_71677" data-name="Grupo 71677">
              <path id="Trazado_106602" data-name="Trazado 106602" d="M1084.581,981.924l-46.14,38.626-.638,2.438,76.274-3.812.638-2.439Z" transform="translate(-1037.803 -981.924)" fill="#d6322d"/>
            </g>
            <g id="Grupo_71678" data-name="Grupo 71678" transform="translate(0 2.438)">
              <path id="Trazado_106603" data-name="Trazado 106603" d="M1083.943,986.74l-46.14,38.626,26.616,32.572,49.657-36.384Z" transform="translate(-1037.803 -986.74)" fill="#e5534a"/>
            </g>
          </g>
          <g id="Grupo_71680" data-name="Grupo 71680" transform="translate(123.562 133.961)">
            <path id="Trazado_106604" data-name="Trazado 106604" d="M1135.769,1072.687a1.589,1.589,0,0,1-.743,1.349,6.656,6.656,0,0,0-1.011.443c-.608.483-.693,1.455-1.306,1.948s-1.368.285-2.037.612c-1.05.517-.817,2.378-1.9,2.829-.594.248-1.343-.076-1.89.266-.292.182-.454.516-.719.736a1.566,1.566,0,0,1-1.677.07,4.607,4.607,0,0,1-1.312-1.182l-2.919-3.408a3.852,3.852,0,0,1-1.269-2.71c.063-.526,1.578-1.9,1.591-1.792-.108-.9-.843-1.694-.7-2.587s1.062-1.4,1.878-1.775a1.34,1.34,0,0,1-.766-1.652,2.042,2.042,0,0,1,1.46-1.272,4.51,4.51,0,0,1,2,.026,1.2,1.2,0,0,1-.171-1.738,2.8,2.8,0,0,1,1.75-.843,1.909,1.909,0,0,1,.8-.016,2.122,2.122,0,0,1,.847.535,35.617,35.617,0,0,1,6.005,6.2l1.112,1.6a5.06,5.06,0,0,1,.943,1.867A2.077,2.077,0,0,1,1135.769,1072.687Z" transform="translate(-1118.975 -1061.954)" fill="#f8a17a"/>
          </g>
          <g id="Grupo_71681" data-name="Grupo 71681" transform="translate(0 83.398)">
            <path id="Trazado_106605" data-name="Trazado 106605" d="M875.042,1000.829c-.444-7.29.461-14.593,1.661-21.773.913-5.46,2.014-10.875,3.063-16.292a.655.655,0,0,1,.8-.64,91.967,91.967,0,0,1,13.932.662,1.059,1.059,0,0,1,.633.226,1.07,1.07,0,0,1,.207.8c-.1,7.312.192,14.387.748,21.666a259.589,259.589,0,0,1,.8,27.732,6.392,6.392,0,0,1-2.621,5.484c-2.745,1.833-6.9,2.686-10.049,1.461-3.572-1.39-5.972-5.043-7.215-8.518A39.583,39.583,0,0,1,875.042,1000.829Z" transform="translate(-874.927 -962.086)" fill="#fff"/>
          </g>
          <g id="Grupo_71682" data-name="Grupo 71682" transform="translate(30.919)">
            <path id="Trazado_106606" data-name="Trazado 106606" d="M937.854,882.478c-.6-1.8.472-3.433,1.507-5.01a16.3,16.3,0,0,0,1.18-1.995,6.49,6.49,0,0,0-.067-5.477,12.936,12.936,0,0,0-1.817-2.543,14.765,14.765,0,0,1-1.782-2.441,7.628,7.628,0,0,1-.225-6.644,14.8,14.8,0,0,1,4.391-4.932c.36-.3.733-.611,1.088-.92,1.492-1.3,4.823-4.761,3.55-8.939a24.114,24.114,0,0,0-2.094-4.506c-.294-.534-.6-1.087-.883-1.638a22.167,22.167,0,0,1-2.686-9.43,13.52,13.52,0,0,1,3.065-9.251,20.94,20.94,0,0,1,6.741-4.59q1.042-.516,2.087-1.025a98.188,98.188,0,0,0,9.1-4.855,27.24,27.24,0,0,0,5.082-3.78c.367-.376.72-.761,1.061-1.134a15.62,15.62,0,0,1,3.388-3.04c4.33-2.653,10.194-3.565,16.51-2.568a30.789,30.789,0,0,1,15.392,6.894c.467.417.92.855,1.347,1.3,3.46,3.623,5.675,7.955,6.076,11.887.411,4.032.481,7.983.5,11.317,0,.7-.019,1.379-.04,2.03a14.888,14.888,0,0,0,.637,6.033c1.2,3.278,2.729,5.268,4.81,6.259a13.5,13.5,0,0,0,3.049.9,19.1,19.1,0,0,1,2.39.618,9.844,9.844,0,0,1,6.428,8.721,18.994,18.994,0,0,1-1.1,6.073c-.26.879-.529,1.787-.731,2.684-.876,3.894-.525,9.161,3.088,12.265l-.384.447c-3.811-3.274-4.193-8.78-3.279-12.841.206-.916.477-1.834.74-2.721a18.574,18.574,0,0,0,1.076-5.884,9.244,9.244,0,0,0-6.036-8.188,18.7,18.7,0,0,0-2.316-.6,14.175,14.175,0,0,1-3.18-.944c-2.93-1.4-4.319-4.429-5.109-6.589a15.554,15.554,0,0,1-.673-6.253c.021-.647.043-1.315.04-2.009-.014-3.32-.083-7.254-.493-11.26-.388-3.8-2.545-8.011-5.916-11.541-.416-.436-.858-.863-1.313-1.269-7.346-6.558-21.968-9.922-31.2-4.263a15.149,15.149,0,0,0-3.261,2.935c-.344.377-.7.766-1.075,1.149a27.714,27.714,0,0,1-5.19,3.867,98.76,98.76,0,0,1-9.159,4.885q-1.043.51-2.085,1.024a20.472,20.472,0,0,0-6.56,4.45,12.926,12.926,0,0,0-2.919,8.846,21.589,21.589,0,0,0,2.621,9.178c.281.544.583,1.093.875,1.624a24.552,24.552,0,0,1,2.142,4.619c1.373,4.507-2.149,8.183-3.727,9.554-.36.312-.735.625-1.1.927-1.651,1.377-3.358,2.8-4.232,4.724a7.029,7.029,0,0,0,.208,6.121,14.282,14.282,0,0,0,1.714,2.341A13.6,13.6,0,0,1,941,869.735a7,7,0,0,1,.073,5.985,16.68,16.68,0,0,1-1.222,2.07c-1,1.528-1.948,2.971-1.44,4.5Z" transform="translate(-935.996 -797.367)" fill="#0b2d4e"/>
          </g>
          <g id="Grupo_71683" data-name="Grupo 71683" transform="translate(48.104 42.408)">
            <path id="Trazado_106607" data-name="Trazado 106607" d="M974.143,881.487c-3.981-1.795-4.75,3.585-3.89,6.167a8.428,8.428,0,0,0,1.61,2.936c1,1.135,3.754,2.933,5.151,1.5a3.357,3.357,0,0,0,.577-2.578C977.459,887.08,976.842,882.7,974.143,881.487Z" transform="translate(-969.937 -881.127)" fill="#e5785c"/>
          </g>
          <g id="Grupo_71686" data-name="Grupo 71686" transform="translate(66.835 9.58)">
            <g id="Grupo_71685" data-name="Grupo 71685">
              <g id="Grupo_71684" data-name="Grupo 71684">
                <path id="Trazado_106608" data-name="Trazado 106608" d="M1006.934,818.015a16.244,16.244,0,0,1,6.795-1.706,26.3,26.3,0,0,1,7.018.724,25.143,25.143,0,0,1,12.291,6.735,22.138,22.138,0,0,1,6.381,12.489,60.643,60.643,0,0,1,.256,7.072,16.7,16.7,0,0,0,1.195,6.751,13.749,13.749,0,0,0,4.536,5.076c1.881,1.359,3.963,2.448,5.972,3.689a9.037,9.037,0,0,1,2.786,2.309,6.173,6.173,0,0,1,.911,3.523,13.013,13.013,0,0,1-.453,3.561,24.6,24.6,0,0,1-1.3,3.308,6.684,6.684,0,0,0-.63,3.31,10.093,10.093,0,0,0,.971,3.288c1,2.107,2.221,4.123,3.232,6.255a19.35,19.35,0,0,1,1.969,6.767,16.677,16.677,0,0,1-.865,6.956,16.585,16.585,0,0,0,.7-6.94,19.091,19.091,0,0,0-2.1-6.641c-1.036-2.1-2.278-4.091-3.32-6.218a10.516,10.516,0,0,1-1.054-3.423,7.173,7.173,0,0,1,.621-3.546,24.282,24.282,0,0,0,1.232-3.26,12.614,12.614,0,0,0,.417-3.408,5.622,5.622,0,0,0-.821-3.195,8.511,8.511,0,0,0-2.619-2.13c-1.989-1.219-4.089-2.3-6.026-3.689a14.358,14.358,0,0,1-4.766-5.308,17.291,17.291,0,0,1-1.228-7.023,60.676,60.676,0,0,0-.22-7,21.933,21.933,0,0,0-6.146-12.216,24.78,24.78,0,0,0-12-6.778,26.047,26.047,0,0,0-6.937-.876A16.165,16.165,0,0,0,1006.934,818.015Z" transform="translate(-1006.934 -816.289)" fill="#73b8d4"/>
              </g>
            </g>
          </g>
          <g id="Grupo_71687" data-name="Grupo 71687" transform="translate(50.821 15.19)">
            <path id="Trazado_106609" data-name="Trazado 106609" d="M1013.408,849.812a35.02,35.02,0,0,0-1.685-10.445c-4.433-12.94-20.7-15.92-30.33-6.447-10.742,10.564-6.217,35.387,5.38,43.964a12.872,12.872,0,0,0,10.991,2C1008.991,875.7,1013.65,861.761,1013.408,849.812Z" transform="translate(-975.304 -827.369)" fill="#f8a17a"/>
          </g>
          <g id="Grupo_71688" data-name="Grupo 71688" transform="translate(50.236 13.174)">
            <path id="Trazado_106610" data-name="Trazado 106610" d="M1012.819,836.618c-3.491-13.226-19.5-17.367-29.788-8.612a21.544,21.544,0,0,0-3.95,4.845c-.993,1.511-2.376,2.656-3.252,4.317a14.953,14.953,0,0,0-1.647,5.514c-.182,1.87.429,3.506.477,5.3a6.559,6.559,0,0,1,2.168-5,20.8,20.8,0,0,1,3.738-2.257,6.137,6.137,0,0,0,2.989-3.064c4.093,5.365,10.445,7.009,16.694,8.557,5.244,1.3,11,4.6,11.116,10.728a5.23,5.23,0,0,0,.4,2.006,8.909,8.909,0,0,0,.614-2.578c.113-1,.4-1.993.6-2.991a44.308,44.308,0,0,0,.769-6.226A35.02,35.02,0,0,0,1012.819,836.618Z" transform="translate(-974.148 -823.387)" fill="#e5785c"/>
          </g>
          <g id="Grupo_71689" data-name="Grupo 71689" transform="translate(45.086 10.878)">
            <path id="Trazado_106611" data-name="Trazado 106611" d="M1010.816,857.084a7.069,7.069,0,0,0,2.255-3.17c1.383-4.109,1.233-8.657,1.063-13.06a31.02,31.02,0,0,0-.859-7.285,18.561,18.561,0,0,0-3.727-6.763,21.843,21.843,0,0,0-18.435-7.88c-2.705.233-4.694,1.543-7.07,2.654a69.983,69.983,0,0,1-7.483,2.493c-2.815.937-5.712,1.921-7.944,3.89a14.637,14.637,0,0,0-3.67,5.352,15.307,15.307,0,0,0-.826,7.677,20.293,20.293,0,0,0,1.449,6.37c.873,1.856,2.816,3.068,4.556,3.993-.258-.137-.035-3.2-.042-3.672a25.024,25.024,0,0,1,.944-8.071c.81-2.53,2.412-4.079,4.5-5.622a15.439,15.439,0,0,0,2.368-2.034c.349-.39,1.87-2.185,1.621-2.74a18.338,18.338,0,0,0,5.354,7.073,60.7,60.7,0,0,0,14.279,7.563c.366.144.735.288,1.1.437a12.315,12.315,0,0,1,3.837,2.22c2.508,2.306,2.69,5.85,2.6,9.045a3,3,0,0,0,.094,1.04C1007.3,858.161,1009.811,857.857,1010.816,857.084Z" transform="translate(-963.977 -818.852)" fill="#0b2d4e"/>
          </g>
          <g id="Grupo_71690" data-name="Grupo 71690" transform="translate(85.966 42.408)">
            <path id="Trazado_106612" data-name="Trazado 106612" d="M1048.185,881.487c3.981-1.795,4.75,3.585,3.89,6.167a8.431,8.431,0,0,1-1.609,2.936c-1,1.135-3.755,2.933-5.151,1.5a3.357,3.357,0,0,1-.577-2.578C1044.869,887.08,1045.487,882.7,1048.185,881.487Z" transform="translate(-1044.719 -881.127)" fill="#f8a17a"/>
          </g>
          <g id="Grupo_71695" data-name="Grupo 71695" transform="translate(52.902 46.782)">
            <path id="Trazado_106613" data-name="Trazado 106613" d="M1007.691,907.226a21.909,21.909,0,0,1-8.107,4.156c-4.028,1.13-8.653.03-12.245-1.96-5.941-3.292-6.363-9.969-7.924-15.88l11.693-3.075a21.32,21.32,0,0,1,10.844,0l11.694,3.075c-.97,3.67-1.559,7.566-3.53,10.876A11.569,11.569,0,0,1,1007.691,907.226Z" transform="translate(-979.415 -889.766)" fill="#fff"/>
            <g id="Grupo_71694" data-name="Grupo 71694" clip-path="url(#clip-path-3)">
              <g id="Grupo_71693" data-name="Grupo 71693" transform="translate(-1.133 6.53)">
                <g id="Grupo_71691" data-name="Grupo 71691" transform="translate(22.351)">
                  <path id="Trazado_106614" data-name="Trazado 106614" d="M1023.987,917.581a34.055,34.055,0,0,0,8.364-4.678c2.421-2.033,2.893-4.583,2.8-7.633a3.542,3.542,0,0,0-.185-1.243,2.653,2.653,0,0,0-2.606-1.362c-6.686.2-11.01,7.149-11.04,13.3a2.08,2.08,0,0,0,.589,1.769A2.161,2.161,0,0,0,1023.987,917.581Z" transform="translate(-1021.324 -902.663)" fill="#e5f4f1"/>
                </g>
                <g id="Grupo_71692" data-name="Grupo 71692">
                  <path id="Trazado_106615" data-name="Trazado 106615" d="M988.355,917.581a34.058,34.058,0,0,1-8.364-4.678c-2.42-2.033-2.893-4.583-2.8-7.633a3.541,3.541,0,0,1,.185-1.243,2.652,2.652,0,0,1,2.606-1.362c6.687.2,11.01,7.149,11.04,13.3a2.078,2.078,0,0,1-.589,1.769C989.838,918.157,989.021,917.875,988.355,917.581Z" transform="translate(-977.178 -902.663)" fill="#e5f4f1"/>
                </g>
              </g>
            </g>
          </g>
          <g id="Grupo_71697" data-name="Grupo 71697" transform="translate(85.549 43.235)">
            <g id="Grupo_71696" data-name="Grupo 71696">
              <path id="Trazado_106617" data-name="Trazado 106617" d="M1046.11,882.761l-1.056,9.021-1.158-.212Z" transform="translate(-1043.896 -882.761)" fill="#fff"/>
            </g>
          </g>
          <g id="Grupo_71700" data-name="Grupo 71700" transform="translate(50.821 42.157)">
            <g id="Grupo_71699" data-name="Grupo 71699">
              <g id="Grupo_71698" data-name="Grupo 71698">
                <path id="Trazado_106618" data-name="Trazado 106618" d="M975.3,880.632l3.636,9.819-1.125.346Z" transform="translate(-975.304 -880.632)" fill="#fff"/>
              </g>
            </g>
          </g>
        </g>
        <g id="Grupo_71702" data-name="Grupo 71702" transform="translate(161.81 96.473)">
          <circle id="Elipse_5368" data-name="Elipse 5368" cx="1.142" cy="1.142" r="1.142" fill="#cad1d8"/>
        </g>
        <g id="Grupo_71703" data-name="Grupo 71703" transform="translate(161.81 107.674)">
          <circle id="Elipse_5369" data-name="Elipse 5369" cx="1.142" cy="1.142" r="1.142" fill="#cad1d8"/>
        </g>
      </g>
    </g>
  </g>
</svg>
