<svg xmlns="http://www.w3.org/2000/svg" width="289.281" height="260.107" viewBox="0 0 289.281 260.107">
  <g id="Grupo_71618" data-name="Grupo 71618" transform="translate(-113.363 -119.289)">
    <g id="Grupo_71612" data-name="Grupo 71612" transform="translate(113.363 119.288)">
      <path id="Trazado_106404" data-name="Trazado 106404" d="M156.255,378.742s-38.179-37.411-42.264-93.759c-5.081-70.09,20.86-107.226,69.586-114.722,14.954-2.3,34.747-17.871,55.353-37.008,41.588-38.623,159.7,2.385,132.485,129.186-12.8,59.651,39.556,56.314,15.647,116.432Z" transform="translate(-113.363 -119.288)" fill="#ebf3fa"/>
      <g id="Grupo_71598" data-name="Grupo 71598" transform="translate(163.912 217.459)">
        <path id="Trazado_106405" data-name="Trazado 106405" d="M1309.109,1545.935s-4.682-12.171,4.928-15.431c0,0,6.66-1.37,11.033.487,0,0-10.106,8.369-8.433,10.153s10.589-10.137,10.589-10.137,12.9,3.223,16.23,6.578c0,0-13.764,4.937-11.7,6.254s16.622-3.154,16.622-3.154,10.907,6.1,7.771,12.963-7.913,7.627-9.6,6.814-10.58-8.393-11.316-7.032,3.782,8.268,8.039,10.029c0,0-11.392,6.118-15.906,1.58s-3.511-8.832-6.351-11.586-5.736-3.778-4.9-1.7,6.43,5.793,7.15,9.912,1.638,7.051-3.689,4.2-13.011-10.215-11.737-15.073Z" transform="translate(-1287.505 -1530.017)" fill="#599dad"/>
        <g id="Grupo_71597" data-name="Grupo 71597" transform="translate(0 14.014)">
          <path id="Trazado_106406" data-name="Trazado 106406" d="M1298.522,1628.708s-31.1-12.419-41.266-5.876a24.2,24.2,0,0,1-9.41,6.581l-1.454,1.75s7.511-3.819,9.59-3.473C1255.982,1627.69,1256.894,1615.432,1298.522,1628.708Z" transform="translate(-1235.652 -1620.927)" fill="#599dad"/>
          <path id="Trazado_106407" data-name="Trazado 106407" d="M1188.91,1674.712a21.012,21.012,0,0,0-12.194,11.376l1.189.547s5.447-8.479,10.639-10.707S1188.91,1674.712,1188.91,1674.712Z" transform="translate(-1176.716 -1666.227)" fill="#599dad"/>
        </g>
      </g>
      <g id="Grupo_71600" data-name="Grupo 71600" transform="translate(83.954 172.961)">
        <path id="Trazado_106408" data-name="Trazado 106408" d="M686.264,1256s6.061-5.407,1.668-9.951c0,0-3.3-2.657-6.25-2.874,0,0,3.213,7.515,1.778,8.027s-2.976-8.632-2.976-8.632-8.065-1.892-10.864-.981c0,0,6.217,6.656,4.7,6.8s-8.308-6.484-8.308-6.484-7.779.271-8,4.965,2.209,6.479,3.378,6.511,8.252-1.634,8.272-.67-4.451,3.5-7.31,3.264c0,0,4.566,6.635,8.36,5.408s4.461-3.892,6.819-4.607,4.254-.458,3.2.453-5.212,1.376-6.785,3.453-2.916,3.438.845,3.38,10.118-1.951,10.8-5Z" transform="translate(-657.999 -1241.343)" fill="#599dad"/>
        <g id="Grupo_71599" data-name="Grupo 71599" transform="translate(3.734 6.156)">
          <path id="Trazado_106409" data-name="Trazado 106409" d="M682.223,1281.279s20.764,1.983,24.531,8.5a15.076,15.076,0,0,0,3.337,6.326l.307,1.384s-3.072-4.256-4.322-4.656C706.075,1292.837,709.063,1285.788,682.223,1281.279Z" transform="translate(-682.223 -1281.279)" fill="#599dad"/>
          <path id="Trazado_106410" data-name="Trazado 106410" d="M856.954,1373.817a13.087,13.087,0,0,1,3.513,9.776l-.814-.036s-.6-6.249-2.842-8.962S856.954,1373.817,856.954,1373.817Z" transform="translate(-829.087 -1358.987)" fill="#599dad"/>
        </g>
      </g>
      <g id="Grupo_71602" data-name="Grupo 71602" transform="translate(161.499 152.242)">
        <path id="Trazado_106411" data-name="Trazado 106411" d="M1192.265,1158.121s-20.661-14.161-9-29.782c0,0,9.046-9.421,17.989-11.244,0,0-6.878,24.246-2.288,25.248s5.717-27.57,5.717-27.57,23.925-8.95,32.843-7.265c0,0-16.4,22.8-11.707,22.639s22.866-23.091,22.866-23.091,23.9-2.223,26.411,12.049-4.215,20.684-7.776,21.239-25.881-1.76-25.563,1.195,14.987,8.965,23.64,7.116c0,0-11.364,22.084-23.447,19.819s-15.172-10.152-22.665-11.417-13.191.268-9.6,2.641,16.481,2.165,22.106,7.9,10.269,9.373-1.259,10.669-31.711-2-34.985-11.07Z" transform="translate(-1176.823 -1106.932)" fill="#86d1cd"/>
        <g id="Grupo_71601" data-name="Grupo 71601" transform="translate(0 15.554)">
          <path id="Trazado_106412" data-name="Trazado 106412" d="M1288.385,1207.836s-62.731,14.212-71.694,35.636a46.487,46.487,0,0,1-7.724,20.659l-.394,4.353s7.726-14.222,11.392-15.938C1219.965,1252.546,1208.061,1232.157,1288.385,1207.836Z" transform="translate(-1201.249 -1207.836)" fill="#6bb7bf"/>
          <path id="Trazado_106413" data-name="Trazado 106413" d="M1168.779,1559.54s-10.692,13.42-6.908,31.279l2.477-.43s-.613-19.348,5.176-28.526S1168.779,1559.54,1168.779,1559.54Z" transform="translate(-1161.061 -1503.245)" fill="#6bb7bf"/>
        </g>
      </g>
      <g id="Grupo_71604" data-name="Grupo 71604" transform="translate(29.761 197.629)">
        <path id="Trazado_106414" data-name="Trazado 106414" d="M374.4,1439.733s15.734-12.275,5.7-24.125c0,0-7.656-7.047-14.856-8.058,0,0,6.66,18.943,3.059,19.964s-5.9-21.643-5.9-21.643-19.465-5.943-26.473-4.165c0,0,14.162,17.324,10.42,17.427s-19.316-17.239-19.316-17.239-19.115-.595-20.411,10.877,4.367,16.241,7.226,16.508,20.494-2.67,20.386-.3-11.478,7.865-18.449,6.819c0,0,10.121,17,19.618,14.609s11.567-8.818,17.463-10.191,10.5-.434,7.765,1.629-13,2.53-17.191,7.365-7.706,7.957,1.525,8.422,25.119-3.143,27.277-10.52Z" transform="translate(-306.431 -1401.376)" fill="#599dad"/>
        <g id="Grupo_71603" data-name="Grupo 71603" transform="translate(65.347 36.873)">
          <path id="Trazado_106415" data-name="Trazado 106415" d="M733.35,1641.6s11.735,7.012,13.918,21.391l-1.968.373s-4.965-14.6-11.855-19.824S733.35,1641.6,733.35,1641.6Z" transform="translate(-730.358 -1640.585)" fill="#599dad"/>
        </g>
      </g>
      <g id="Grupo_71606" data-name="Grupo 71606" transform="translate(64.88 205.97)">
        <path id="Trazado_106416" data-name="Trazado 106416" d="M571.375,1476.011s8.436-6.8,2.884-13.148c0,0-4.218-3.76-8.137-4.246,0,0,3.781,10.228,1.835,10.813s-3.391-11.7-3.391-11.7-10.62-3.057-14.41-2.031c0,0,7.841,9.283,5.81,9.372s-10.638-9.192-10.638-9.192-10.384-.156-10.988,6.084,2.513,8.78,4.067,8.9,11.1-1.628,11.066-.343-6.163,4.37-9.958,3.863c0,0,5.643,9.144,10.779,7.762s6.2-4.889,9.393-5.685,5.7-.327,4.23.817-7.036,1.487-9.27,4.149-4.115,4.388.9,4.559,13.611-1.925,14.719-5.949Z" transform="translate(-534.262 -1455.489)" fill="#86d1cd"/>
        <g id="Grupo_71605" data-name="Grupo 71605" transform="translate(4.992 7.558)">
          <path id="Trazado_106417" data-name="Trazado 106417" d="M566.645,1504.523s27.535,4.024,32.121,12.964a20.114,20.114,0,0,0,4.025,8.652l.316,1.864s-3.81-5.875-5.449-6.492C597.658,1521.511,602.109,1512.316,566.645,1504.523Z" transform="translate(-566.645 -1504.523)" fill="#6bb7bf"/>
          <path id="Trazado_106418" data-name="Trazado 106418" d="M793.289,1639.474a17.462,17.462,0,0,1,4.03,13.26l-1.083-.1s-.385-8.366-3.19-12.131S793.289,1639.474,793.289,1639.474Z" transform="translate(-757.143 -1617.858)" fill="#6bb7bf"/>
        </g>
      </g>
      <g id="Grupo_71611" data-name="Grupo 71611" transform="translate(84.068 12.274)">
        <g id="Grupo_71607" data-name="Grupo 71607" transform="translate(37.624 94.972)">
          <path id="Trazado_106419" data-name="Trazado 106419" d="M905.373,1348.656a13.569,13.569,0,0,1,.355-3.324c.355-.829,1.659-4.206,1.659-4.206h5.1a31.239,31.239,0,0,1,1.007,4.088c.059,1.007,0,3.442,0,3.442Z" transform="translate(-904.98 -1260.031)" fill="#233862"/>
          <path id="Trazado_106420" data-name="Trazado 106420" d="M1070.555,1348.656a13.574,13.574,0,0,0-.355-3.324c-.356-.829-1.659-4.206-1.659-4.206h-5.1a31.259,31.259,0,0,0-1.007,4.088c-.059,1.007,0,3.442,0,3.442Z" transform="translate(-1037.813 -1260.031)" fill="#233862"/>
          <path id="Trazado_106421" data-name="Trazado 106421" d="M903.856,829.584s.891,27.221-.442,42.752.01,37.147.01,37.147a10.081,10.081,0,0,0,8.884,0s5.068-30.006,5.036-37.147c-.034-7.6,5.516-41.566,5.516-41.566Z" transform="translate(-902.824 -827.341)" fill="#f99746"/>
          <path id="Trazado_106422" data-name="Trazado 106422" d="M1007.4,897.174a10.075,10.075,0,0,1-8.883,0s-5.067-30.005-5.035-37.146c.014-3.212-.967-11.126-2.106-19.2-1.559-11.039-3.411-22.37-3.411-22.37l18.983-3.43s-.87,29.465.463,45S1007.4,897.174,1007.4,897.174Z" transform="translate(-974.837 -815.032)" fill="#f99746"/>
          <path id="Trazado_106423" data-name="Trazado 106423" d="M1012.192,949.7c.014-3.212-.967-11.126-2.106-19.2a38,38,0,0,1,4.061-9.459C1017.791,931.261,1012.192,949.7,1012.192,949.7Z" transform="translate(-993.552 -904.7)" fill="#ed7d2b"/>
        </g>
        <path id="Trazado_106424" data-name="Trazado 106424" d="M738.7,458.564a21.931,21.931,0,0,0-6.675.51c-2.481.822-18.944-13.34-22.594-12.771a6.255,6.255,0,0,0-3.331,5.31s13.018,17.875,21.451,22.485,9.009,17.359,9.009,17.359l4.7-3.517Z" transform="translate(-698.802 -408.156)" fill="#2a4e96"/>
        <path id="Trazado_106425" data-name="Trazado 106425" d="M676.116,330.349c.09.187,8.729,19.091,8.729,19.091s-4.375,4.7-7.2,3.928l-5.186-23.23Z" transform="translate(-670.347 -309.91)" fill="#b56f40"/>
        <path id="Trazado_106426" data-name="Trazado 106426" d="M664.757,297.315a18.578,18.578,0,0,0-.392-3.852c-.5-1.188-.376-2.612-1.947-2.347s-3.333,1.427-3.379,1.953a7.919,7.919,0,0,0,.952,3.691c.541.557,1.544,1.424,1.544,1.424Z" transform="translate(-658.989 -276.876)" fill="#b56f40"/>
        <path id="Trazado_106427" data-name="Trazado 106427" d="M691.874,299.391a16.693,16.693,0,0,1,1.154-2.375c.4-.521-1.5-3.4-1.664-3.478,0,0-.652.3.063,1.646a1.337,1.337,0,0,1-.194,1.538Z" transform="translate(-686.106 -278.952)" fill="#b56f40"/>
        <path id="Trazado_106428" data-name="Trazado 106428" d="M984.314,384.112a21.931,21.931,0,0,1,6.236-2.435c2.592-.335,11.284-20.236,14.821-21.306a6.255,6.255,0,0,1,5.3,3.34s-3.978,21.753-9.577,29.563-1.1,20.258-1.1,20.258l-5.25-1.84Z" transform="translate(-934.128 -335.483)" fill="#2a4e96"/>
        <path id="Trazado_106429" data-name="Trazado 106429" d="M847.891,345.005s-6.113.817-6.93-2.647-6.291-5.088-5.361-8.162c1.141-3.77-1.092-6.779.723-9.507,2-3.007,5.379-2.2,6.752-3.99a6.425,6.425,0,0,1,7.443-2.431c3.31,1.286,5.4-.122,7.676,1.284,2.519,1.553,2.156,4.163,4.182,5.168,1.857.922,1.811,4.387.939,7.358-.628,2.141,1.994,3.554-1.509,6.528-1.458,1.238-.668,3.529-5.545,4.851C854.065,344.053,849.032,343.9,847.891,345.005Z" transform="translate(-808.248 -299.516)" fill="#233862"/>
        <path id="Trazado_106430" data-name="Trazado 106430" d="M890.153,449.806a47.7,47.7,0,0,1,.587,8.07l-4.819,4.883,21.4-.736-6.236-5.944s-2.854-7.045-2.569-9.9S890.153,449.806,890.153,449.806Z" transform="translate(-850.902 -407.45)" fill="#b56f40"/>
        <path id="Trazado_106431" data-name="Trazado 106431" d="M914.081,471.48s2.38,3.66,5.466,3,3.143-4.3,3.143-4.3Z" transform="translate(-874.722 -428.364)" fill="#99592e"/>
        <path id="Trazado_106432" data-name="Trazado 106432" d="M897.383,401.821c-2.255.376-6.946-1.851-7.632-5.558l-1.07-5.784a2.347,2.347,0,0,1,1.642-2.849l8.575-1.586a2.347,2.347,0,0,1,2.552,2.073l1.009,5.456C903.18,397.46,899.969,401.389,897.383,401.821Z" transform="translate(-853.196 -357.173)" fill="#b56f40"/>
        <path id="Trazado_106433" data-name="Trazado 106433" d="M893.736,560.932a98.785,98.785,0,0,1-15.529,4.53,77.832,77.832,0,0,1-9.856,1.055c-3.227.165-5.567.14-5.567.14s-1.651.457-2.19-8c-.411-6.435-.46-9.733-1.844-15.519-.762-3.184-1.6-7.413-3.237-10.033-3.677-5.887.6-14.153,2.049-15.1a29.247,29.247,0,0,1,6.226-2.487c.015.08,3.059,3.139,5.975,3.007a10.024,10.024,0,0,0,4.373-4.8,56.368,56.368,0,0,1,8.259.063s.538,1.245,5.832,23.6C890.327,546.233,896.124,560.521,893.736,560.932Z" transform="translate(-823.951 -465.091)" fill="#2a4e96"/>
        <path id="Trazado_106434" data-name="Trazado 106434" d="M886.856,381.628s.712-5.218,5.962-5.421,5.894.808,6.672,1.974.735-4.926.735-4.926l-6.361-.676s-6.9,2.261-7.441,3.5c-.558,1.269-.4,1.33-.4,1.33Z" transform="translate(-850.97 -345.809)" fill="#233862"/>
        <g id="Grupo_71608" data-name="Grupo 71608" transform="translate(36.43 34.851)">
          <path id="Trazado_106435" data-name="Trazado 106435" d="M898.482,428.754c-.882.163-2.684.294-3.277-1.183a1.412,1.412,0,0,1,.032-1.24,1.672,1.672,0,0,1,1.19-.788l2.713-.5a1.218,1.218,0,0,1,1.153.243,1.8,1.8,0,0,1,.235,1.535c-.235,1.087-.73,1.666-1.555,1.82A4.993,4.993,0,0,1,898.482,428.754Zm-2.022-3.032a1.491,1.491,0,0,0-1.064.7,1.237,1.237,0,0,0-.023,1.085,1.994,1.994,0,0,0,2.033,1.169,5.443,5.443,0,0,0,1.518-.208l.011,0c.747-.138,1.2-.672,1.416-1.681.049-.226.18-.991-.188-1.37a1.053,1.053,0,0,0-.99-.191Z" transform="translate(-895.078 -425.003)" fill="#2c3a64"/>
        </g>
        <g id="Grupo_71609" data-name="Grupo 71609" transform="translate(43.085 33.676)">
          <path id="Trazado_106436" data-name="Trazado 106436" d="M941.255,421.151a4.976,4.976,0,0,1-.5.069,2,2,0,0,1-2.1-1.144,1.8,1.8,0,0,1-.329-1.518,1.219,1.219,0,0,1,.99-.639l2.713-.5a1.671,1.671,0,0,1,1.393.31,1.412,1.412,0,0,1,.474,1.147C943.866,420.465,942.137,420.988,941.255,421.151Zm-1.91-3.053a1.054,1.054,0,0,0-.856.532c-.208.486.188,1.154.314,1.347.565.864,1.176,1.2,1.924,1.064h.011a5.449,5.449,0,0,0,1.492-.349,1.994,1.994,0,0,0,1.481-1.819,1.238,1.238,0,0,0-.41-1.005,1.491,1.491,0,0,0-1.243-.27Z" transform="translate(-938.248 -417.383)" fill="#2c3a64"/>
        </g>
        <g id="Grupo_71610" data-name="Grupo 71610" transform="translate(41.452 35.324)">
          <path id="Trazado_106437" data-name="Trazado 106437" d="M927.787,428.737a.109.109,0,0,1-.082-.2,2.574,2.574,0,0,1,2.052-.377.109.109,0,0,1-.065.207,2.39,2.39,0,0,0-1.862.347A.107.107,0,0,1,927.787,428.737Z" transform="translate(-927.659 -428.076)" fill="#2c3a64"/>
        </g>
        <path id="Trazado_106438" data-name="Trazado 106438" d="M925.773,461.874l2.179-.4,2.239-.414s-.632,1.706-1.942,1.916A3.225,3.225,0,0,1,925.773,461.874Z" transform="translate(-884.611 -420.648)" fill="#ebf3fa"/>
        <path id="Trazado_106439" data-name="Trazado 106439" d="M1099.517,233.429c0,.208.414,20.987.414,20.987s5.979,2.334,8.189.418l-5.4-23.181Z" transform="translate(-1031.573 -226.607)" fill="#b56f40"/>
        <path id="Trazado_106440" data-name="Trazado 106440" d="M1091.03,205.736a18.584,18.584,0,0,1-1.318-3.641c-.061-1.289-.794-2.517.737-2.959s3.622-.16,3.892.295a7.918,7.918,0,0,1,.743,3.739c-.245.737-.774,1.952-.774,1.952Z" transform="translate(-1023.087 -198.914)" fill="#b56f40"/>
        <path id="Trazado_106441" data-name="Trazado 106441" d="M1086.551,213.015a16.688,16.688,0,0,0-2.07-1.639c-.589-.295-.126-3.709-.009-3.856,0,0,.718-.012.657,1.51a1.337,1.337,0,0,0,.841,1.3Z" transform="translate(-1018.607 -206.193)" fill="#b56f40"/>
        <path id="Trazado_106442" data-name="Trazado 106442" d="M660.616,292.324c.979-.42,2.351-.678,2.709-.273s-.557,2.1-1.492,2.682c-.447.28-2.7.427-2.989-.193C658.619,294.051,658.606,293.187,660.616,292.324Z" transform="translate(-658.743 -277.522)" fill="#b56f40"/>
      </g>
      <rect id="Rect치ngulo_8952" data-name="Rect치ngulo 8952" width="59.984" height="61.823" transform="translate(108.234 197.583)" fill="#e6a330"/>
      <path id="Trazado_106443" data-name="Trazado 106443" d="M857.691,1395.752H799.318a3.9,3.9,0,0,1-3.9-3.9h0a3.9,3.9,0,0,1,3.9-3.9h58.373a3.9,3.9,0,0,1,3.9,3.9h0A3.9,3.9,0,0,1,857.691,1395.752Z" transform="translate(-690.278 -1192.385)" fill="#ffb93e"/>
      <path id="Trazado_106444" data-name="Trazado 106444" d="M537.149,1799.916H273.728a.619.619,0,0,1-.618-.618h0a.619.619,0,0,1,.618-.618H537.149a.619.619,0,0,1,.618.618h0A.619.619,0,0,1,537.149,1799.916Z" transform="translate(-248.486 -1539.809)" fill="#2e3552"/>
    </g>
    <g id="Grupo_71613" data-name="Grupo 71613" transform="translate(311.639 151.135)">
      <path id="Trazado_106445" data-name="Trazado 106445" d="M1407.788,362.038a6.646,6.646,0,0,1-3.856,1.235,6.022,6.022,0,0,1-3.165-1.517l-1.119,2.172s2.861,1.558,5.224.985a6.06,6.06,0,0,0,2.385-1.525A2.07,2.07,0,0,0,1407.788,362.038Z" transform="translate(-1399.648 -356.227)" fill="#6bb7bf"/>
      <path id="Trazado_106446" data-name="Trazado 106446" d="M1438.258,327.294l3-1.408s-.124,6.373-5.284,8.558C1435.972,334.444,1439.087,329.941,1438.258,327.294Z" transform="translate(-1430.373 -325.886)" fill="#86d1cd"/>
    </g>
    <g id="Grupo_71614" data-name="Grupo 71614" transform="translate(209.874 214.804)">
      <path id="Trazado_106447" data-name="Trazado 106447" d="M757.3,781.814a9.342,9.342,0,0,1-.4,5.678,8.463,8.463,0,0,1-3.631,3.341l2.252,2.592s3.525-2.922,4.009-6.305a8.524,8.524,0,0,0-.748-3.909A2.909,2.909,0,0,0,757.3,781.814Z" transform="translate(-751.142 -775.204)" fill="#6bb7bf"/>
      <path id="Trazado_106448" data-name="Trazado 106448" d="M739.742,743.58l-.276-4.647s8.254,3.484,8.417,11.358C747.883,750.291,743.629,743.878,739.742,743.58Z" transform="translate(-739.466 -738.933)" fill="#86d1cd"/>
    </g>
    <g id="Grupo_71615" data-name="Grupo 71615" transform="translate(305.89 253.048)">
      <path id="Trazado_106449" data-name="Trazado 106449" d="M1370.11,995.341a8.93,8.93,0,0,1-4.067-3.613,8.087,8.087,0,0,1-.412-4.7l-3.276.193s.157,4.373,2.437,6.713a8.147,8.147,0,0,0,3.4,1.714A2.782,2.782,0,0,0,1370.11,995.341Z" transform="translate(-1362.354 -987.03)" fill="#6bb7bf"/>
      <path id="Trazado_106450" data-name="Trazado 106450" d="M1390.619,1019.484l3.68,2.5s-7.452,4.218-13.51-.251C1380.789,1021.735,1388.126,1022.253,1390.619,1019.484Z" transform="translate(-1377.947 -1014.481)" fill="#86d1cd"/>
    </g>
    <g id="Grupo_71616" data-name="Grupo 71616" transform="translate(354.188 223.075)">
      <path id="Trazado_106451" data-name="Trazado 106451" d="M1700.929,794.524a5.407,5.407,0,0,1,7.626,1.485l3.591-1.545s-1.773-2.8-8.735-1.559C1698.858,793.718,1700.929,794.524,1700.929,794.524Z" transform="translate(-1696.639 -792.588)" fill="#5685d8"/>
      <path id="Trazado_106452" data-name="Trazado 106452" d="M1675.679,797.484s1.186-4.9,10.12-4.9c0,0-3.348.318-5.964,4.663Z" transform="translate(-1675.679 -792.588)" fill="#739af0"/>
    </g>
    <g id="Grupo_71617" data-name="Grupo 71617" transform="translate(181.245 271.416)">
      <path id="Trazado_106453" data-name="Trazado 106453" d="M564.944,1114a5.407,5.407,0,0,1-7.549-1.837l-3.659,1.377s1.642,2.879,8.653,1.962C566.976,1114.9,564.944,1114,564.944,1114Z" transform="translate(-553.735 -1111.24)" fill="#5685d8"/>
      <path id="Trazado_106454" data-name="Trazado 106454" d="M598.419,1106.189s-1.412,4.835-10.337,4.421c0,0,3.359-.162,6.173-4.381Z" transform="translate(-582.787 -1106.189)" fill="#739af0"/>
    </g>
    <path id="Trazado_106455" data-name="Trazado 106455" d="M1431.563,605.958s-2.406-1.52-2.659-3.356c0,0-2.343.127-2.849.886,0,0,1.076,3.039,2.343,3.609C1428.4,607.1,1431.246,607.288,1431.563,605.958Z" transform="translate(-1110.344 -408.813)" fill="#ed7d2b"/>
    <path id="Trazado_106456" data-name="Trazado 106456" d="M422.18,761.083s-2.406-1.52-2.659-3.356c0,0-2.343.127-2.849.887,0,0,1.076,3.039,2.343,3.609C419.014,762.223,421.863,762.413,422.18,761.083Z" transform="translate(-256.554 -540.026)" fill="#ed7d2b"/>
    <path id="Trazado_106457" data-name="Trazado 106457" d="M365.554,1322.2s2.47-1.56,2.731-3.446c0,0,2.405.13,2.926.91,0,0-1.105,3.121-2.405,3.706C368.8,1323.372,365.879,1323.567,365.554,1322.2Z" transform="translate(-213.317 -1014.574)" fill="#f99746"/>
    <path id="Rect치ngulo_8953" data-name="Rect치ngulo 8953" d="M8.255,0H30.944A8.255,8.255,0,0,1,39.2,8.255v0a8.255,8.255,0,0,1-8.255,8.255H8.255A8.255,8.255,0,0,1,0,8.255v0A8.255,8.255,0,0,1,8.255,0Z" transform="translate(243.931 347.617)" fill="#ffb93e"/>
  </g>
</svg>
