<svg xmlns="http://www.w3.org/2000/svg" width="190" height="299" viewBox="0 0 190 299">
  <g id="Grupo_70602" data-name="Grupo 70602" transform="translate(-1020 -9360)">
    <rect id="Rectángulo_8733" data-name="Rectángulo 8733" width="190" height="299" rx="13" transform="translate(1020 9360)" fill="#ffe7d1"/>
    <g id="exercise" transform="translate(1050 9515.467)">
      <path id="Trazado_104756" data-name="Trazado 104756" d="M41.333,88h-12.5C17.327,88,8,99.193,8,113s9.327,25,20.833,25h12.5" transform="translate(-5.917 -65.083)" fill="#90e3f5"/>
      <path id="Trazado_104757" data-name="Trazado 104757" d="M89.333,133a18.6,18.6,0,0,1-12.5,5C65.327,138,56,126.807,56,113s9.327-25,20.833-25c7.711,0,14.443,5.026,18.045,12.5" transform="translate(-41.417 -65.083)" fill="#0f8ca8"/>
      <path id="Trazado_104758" data-name="Trazado 104758" d="M161.333,172.5H133.208A5.208,5.208,0,0,1,128,167.292v-2.083A5.208,5.208,0,0,1,133.208,160h3.125" transform="translate(-94.667 -118.333)" fill="#076372"/>
      <path id="Trazado_104759" data-name="Trazado 104759" d="M184.333,239.833V185.667L176,171.083V157.6L213.165,144v27.865l-5.915,13.8v54.167" transform="translate(-130.167 -106.5)" fill="#f9ac78"/>
      <path id="Trazado_104760" data-name="Trazado 104760" d="M176,194.922s1.716,3.767,7.629,3.767h10.954s-1.655,13.281,2.251,13.8l11.849-18.4-1.369-2.557Z" transform="translate(-130.167 -141.658)" fill="#e57f39"/>
      <circle id="Elipse_5293" data-name="Elipse 5293" cx="6.25" cy="6.25" r="6.25" transform="translate(90.442 2.083)" fill="#f69038"/>
      <ellipse id="Elipse_5294" data-name="Elipse 5294" cx="6.052" cy="6.456" rx="6.052" ry="6.456" transform="translate(96.028 83.302)" fill="#90e3f5"/>
      <path id="Trazado_104761" data-name="Trazado 104761" d="M70.513,326.513,74.074,320l3.562,6.513,6.513,3.562-6.513,3.562-3.562,6.513-3.562-6.513L64,330.074Z" transform="translate(-47.333 -236.667)" fill="#f69038"/>
      <path id="Trazado_104762" data-name="Trazado 104762" d="M198.513,25.14l3.562-6.513,3.562,6.513,6.513,3.562-6.513,3.562-3.562,6.513-3.562-6.513L192,28.7Z" transform="translate(-142 -13.776)" fill="#90e3f5"/>
      <path id="Trazado_104763" data-name="Trazado 104763" d="M198.374,154.75H167.812A7.812,7.812,0,0,1,160,146.937v-3.125A7.812,7.812,0,0,1,167.812,136h30.562Z" transform="translate(-118.333 -100.583)" fill="#fccdac"/>
      <path id="Trazado_104764" data-name="Trazado 104764" d="M198.5,173.542c0-1.151-.933-3.125-2.083-3.125a2.086,2.086,0,0,1-2.083-2.083V160h-4.167v8.333a6.222,6.222,0,0,0,.358,2.083h-.277a2.086,2.086,0,0,1-2.083-2.083V160H184v8.333a9.612,9.612,0,0,0,2,5.208Z" transform="translate(-136.083 -118.333)" fill="#e57f39"/>
      <path id="Trazado_104765" data-name="Trazado 104765" d="M266.414,167.37v10.411L261,190.417H250.083V183.25a11.6,11.6,0,0,1,4.167-12.5L248,162.417V152l3.409,3.409L260.5,164.5Z" transform="translate(-183.417 -112.417)" fill="#f9ac78"/>
      <path id="Trazado_104766" data-name="Trazado 104766" d="M286.876,136h-6.793c-.79,8.341-1.349,26.432,7.029,36.3l2.721-6.351V155.536l-2.956-1.435Z" transform="translate(-206.835 -100.583)" fill="#232626" opacity="0.2"/>
      <path id="Trazado_104767" data-name="Trazado 104767" d="M329.333,88h-12.5C305.327,88,296,99.193,296,113s9.327,25,20.833,25h12.5" transform="translate(-218.917 -65.083)" fill="#90e3f5"/>
      <ellipse id="Elipse_5295" data-name="Elipse 5295" cx="20.981" cy="25.016" rx="20.981" ry="25.016" transform="translate(89.572 22.78)" fill="#0f8ca8"/>
      <ellipse id="Elipse_5296" data-name="Elipse 5296" cx="5.245" cy="6.456" rx="5.245" ry="6.456" transform="translate(108.132 41.34)" fill="#076372"/>
      <path id="Trazado_104768" data-name="Trazado 104768" d="M347.633,0a8.333,8.333,0,1,0,8.333,8.333A8.333,8.333,0,0,0,347.633,0Zm0,12.5A4.167,4.167,0,1,1,351.8,8.333,4.167,4.167,0,0,1,347.633,12.5Z" transform="translate(-250.941)" fill="#00357b"/>
      <path id="Trazado_104769" data-name="Trazado 104769" d="M368.333,312a8.333,8.333,0,1,0,8.333,8.333A8.333,8.333,0,0,0,368.333,312Zm0,12.5a4.167,4.167,0,1,1,4.167-4.167A4.167,4.167,0,0,1,368.333,324.5Z" transform="translate(-266.25 -230.75)" fill="#00357b"/>
      <path id="Trazado_104770" data-name="Trazado 104770" d="M79.232,322.329l-5.977-3.269-3.269-5.977a2.083,2.083,0,0,0-3.656,0l-3.269,5.977-5.977,3.269a2.083,2.083,0,0,0,0,3.656l5.977,3.269,3.269,5.977a2.083,2.083,0,0,0,3.656,0l3.269-5.977,5.977-3.269a2.083,2.083,0,0,0,0-3.656Zm-8.512,3.562a2.083,2.083,0,0,0-.828.828l-1.734,3.171-1.734-3.171a2.083,2.083,0,0,0-.828-.828l-3.171-1.734,3.171-1.734a2.083,2.083,0,0,0,.828-.828l1.734-3.171,1.734,3.171a2.084,2.084,0,0,0,.828.828l3.171,1.734Z" transform="translate(-41.416 -230.75)" fill="#00357b"/>
      <path id="Trazado_104771" data-name="Trazado 104771" d="M201.254,17.689l-3.269-5.977a2.083,2.083,0,0,0-3.656,0l-3.269,5.977-5.977,3.269a2.083,2.083,0,0,0,0,3.656l5.977,3.269,3.269,5.977a2.083,2.083,0,0,0,3.656,0l3.269-5.977,5.977-3.269a2.083,2.083,0,0,0,0-3.656Zm-2.535,6.831a2.083,2.083,0,0,0-.828.828l-1.734,3.171-1.734-3.171a2.083,2.083,0,0,0-.828-.828l-3.171-1.734,3.171-1.734a2.083,2.083,0,0,0,.828-.828l1.734-3.171,1.734,3.171a2.083,2.083,0,0,0,.828.828l3.171,1.734Z" transform="translate(-136.083 -7.86)" fill="#00357b"/>
      <path id="Trazado_104772" data-name="Trazado 104772" d="M72,32h4.167v4.167H72Z" transform="translate(-53.25 -23.667)" fill="#00357b"/>
      <path id="Trazado_104773" data-name="Trazado 104773" d="M368,400h4.167v4.167H368Z" transform="translate(-272.167 -295.833)" fill="#00357b"/>
      <path id="Trazado_104774" data-name="Trazado 104774" d="M110.417,80h-12.5c-8.1,0-15.226,4.988-19.3,12.5H54.733C50.543,84.758,43.247,80,35.417,80h-12.5C10.28,80,0,92.149,0,107.083s10.28,27.083,22.917,27.083h12.5a20.156,20.156,0,0,0,11.776-3.839l4.891,8.559V192.5H56.25V138.333a2.083,2.083,0,0,0-.274-1.034l-8.059-14.1v-7.78h18.75l1.343,1.79a13.606,13.606,0,0,0-3.364,13.3l4.042-1.011a9.513,9.513,0,0,1,3.3-10.26,2.083,2.083,0,0,0,.511-2.984l-5.833-7.778v-4.693l8.81,8.81a29.174,29.174,0,0,0,5.133,12.228l-5.441,12.7a2.083,2.083,0,0,0-.168.82V192.5h4.167V138.761l4.495-10.488a20.733,20.733,0,0,0,14.255,5.894h12.5c12.636,0,22.917-12.149,22.917-27.083S123.053,80,110.417,80Zm-87.5,50c-10.339,0-18.75-10.28-18.75-22.917s8.411-22.917,18.75-22.917h.3C16.783,88.968,12.5,97.445,12.5,107.083S16.783,125.2,23.217,130Zm21.108-5.216,1.089,1.905a16.126,16.126,0,0,1-9.7,3.311c-10.339,0-18.75-10.28-18.75-22.917s8.411-22.917,18.75-22.917c5.605,0,10.913,3.123,14.45,8.333h-.387a9.91,9.91,0,0,0-9.2,6.25H38.542a7.3,7.3,0,0,0-7.292,7.292v2.083a7.3,7.3,0,0,0,7.292,7.292H43.75v8.333a2.083,2.083,0,0,0,.274,1.034ZM41.418,111.25H38.542a3.129,3.129,0,0,1-3.125-3.125v-2.083a3.129,3.129,0,0,1,3.125-3.125h1.042v2.6a9.838,9.838,0,0,0,1.835,5.729ZM66.056,97.277A2.083,2.083,0,0,0,62.5,98.75v10.417a2.083,2.083,0,0,0,.417,1.25l.625.833H60.335a2.086,2.086,0,0,1-2.083-2.083v-8.333H54.085v8.333a6.22,6.22,0,0,0,.359,2.083h-.277a2.086,2.086,0,0,1-2.083-2.083v-8.333H47.917v8.333a6.224,6.224,0,0,0,.312,1.944,5.738,5.738,0,0,1-4.479-5.59V102.4a5.736,5.736,0,0,1,5.729-5.729H76.764a31.122,31.122,0,0,0-1.751,9.566ZM97.917,130c-10.339,0-18.75-10.28-18.75-22.917s8.411-22.917,18.75-22.917h.3C91.783,88.968,87.5,97.445,87.5,107.083S91.783,125.2,98.217,130Zm12.5,0c-10.339,0-18.75-10.28-18.75-22.917s8.411-22.917,18.75-22.917,18.75,10.28,18.75,22.917S120.755,130,110.417,130Z" transform="translate(0 -59.167)" fill="#00357b"/>
      <path id="Trazado_104775" data-name="Trazado 104775" d="M415.292,152c-4.021,0-7.292,3.738-7.292,8.333s3.271,8.333,7.292,8.333,7.292-3.738,7.292-8.333S419.312,152,415.292,152Zm0,12.5c-1.693,0-3.125-1.908-3.125-4.167s1.432-4.167,3.125-4.167,3.125,1.908,3.125,4.167S416.984,164.5,415.292,164.5Z" transform="translate(-301.75 -112.417)" fill="#00357b"/>
    </g>
    <g id="water-bottle" transform="translate(984.03 9377.285)">
      <g id="Grupo_70597" data-name="Grupo 70597" transform="translate(97.676 1.706)">
        <path id="Trazado_104776" data-name="Trazado 104776" d="M152.907,50.25l-10.809-5.6V29.459H119.9V44.651l-10.809,5.6a10.406,10.406,0,0,0-5.619,9.239V74.761a10.4,10.4,0,0,0,5.6,9.23v8.47h41.88l1.968-8.47a10.4,10.4,0,0,0,5.6-9.23V59.489A10.406,10.406,0,0,0,152.907,50.25Z" transform="translate(-103.471 -24.463)" fill="#d4f2f6"/>
        <g id="Grupo_70596" data-name="Grupo 70596" transform="translate(0)">
          <g id="Grupo_70594" data-name="Grupo 70594" transform="translate(0 4.996)">
            <g id="XMLID_132_">
              <g id="Grupo_70593" data-name="Grupo 70593">
                <path id="Trazado_104777" data-name="Trazado 104777" d="M152.923,425.788v-5.84H112.332l-3.257,5.84a5.6,5.6,0,0,0-5.6,5.6v2.175a5.6,5.6,0,0,0,5.6,5.6h43.848a5.6,5.6,0,0,0,5.6-5.6v-2.175A5.6,5.6,0,0,0,152.923,425.788Z" transform="translate(-103.472 -331.112)" fill="#d4f2f6"/>
                <path id="Trazado_104778" data-name="Trazado 104778" d="M152.923,305.26v-6.691H113.393l-4.319,6.691a5.6,5.6,0,0,0-5.6,5.6v2.175a5.6,5.6,0,0,0,5.6,5.6v6.691h41.238l2.61-6.691a5.6,5.6,0,0,0,5.6-5.6v-2.175A5.6,5.6,0,0,0,152.923,305.26Z" transform="translate(-103.471 -237.346)" fill="#d4f2f6"/>
                <g id="Grupo_70592" data-name="Grupo 70592">
                  <path id="Trazado_104779" data-name="Trazado 104779" d="M113.951,313.038v-2.175a5.6,5.6,0,0,1,5.6-5.6l4.319-6.691h-10.48l-4.319,6.691a5.6,5.6,0,0,0-5.6,5.6v2.175a5.6,5.6,0,0,0,5.6,5.6v6.691h10.48v-6.691A5.6,5.6,0,0,1,113.951,313.038Z" transform="translate(-103.471 -237.346)" fill="#a6e7f0"/>
                  <path id="Trazado_104780" data-name="Trazado 104780" d="M113.951,433.566v-2.175a5.6,5.6,0,0,1,5.6-5.6l3.257-5.84h-10.48l-3.257,5.84a5.6,5.6,0,0,0-5.6,5.6v2.175a5.6,5.6,0,0,0,5.6,5.6h10.48A5.6,5.6,0,0,1,113.951,433.566Z" transform="translate(-103.471 -331.112)" fill="#a6e7f0"/>
                  <path id="Trazado_104781" data-name="Trazado 104781" d="M221.52,305.26v-6.691H192.27l1.273,26.763H218.91l2.61-6.691a5.6,5.6,0,0,0,5.6-5.6v-2.175A5.6,5.6,0,0,0,221.52,305.26Z" transform="translate(-172.068 -237.346)" fill="#a6e7f0"/>
                  <path id="Trazado_104782" data-name="Trazado 104782" d="M225.978,425.788v-5.84H198.041l.57,11.985a12.332,12.332,0,0,0,2.77,7.236h24.6a5.6,5.6,0,0,0,5.6-5.6v-2.175A5.6,5.6,0,0,0,225.978,425.788Z" transform="translate(-176.526 -331.112)" fill="#a6e7f0"/>
                  <path id="Trazado_104783" data-name="Trazado 104783" d="M158.526,392.4v2.175a5.6,5.6,0,0,1-5.6,5.6H109.074a5.6,5.6,0,0,1-5.6-5.6V392.4a5.6,5.6,0,0,1,5.6-5.6h43.848A5.6,5.6,0,0,1,158.526,392.4Z" transform="translate(-103.471 -305.504)" fill="#a6e7f0"/>
                  <path id="Trazado_104784" data-name="Trazado 104784" d="M129.257,29.459H119.9V44.651l-10.809,5.6a10.406,10.406,0,0,0-5.619,9.239V74.761a10.4,10.4,0,0,0,5.6,9.23v8.47h10.441V86.325a10.4,10.4,0,0,1-5.6-9.23V61.823a10.406,10.406,0,0,1,5.619-9.239l9.79-5.071a1.887,1.887,0,0,0,1.019-1.675,2.673,2.673,0,0,1,2.673-2.673H142.1V29.459Z" transform="translate(-103.472 -29.459)" fill="#a6e7f0"/>
                  <path id="Trazado_104785" data-name="Trazado 104785" d="M196.1,230.125a5.837,5.837,0,0,0-5.831,6.115l.534,11.236H218l1.968-8.47a10.4,10.4,0,0,0,5.591-8.88Z" transform="translate(-170.519 -184.473)" fill="#a6e7f0"/>
                  <path id="Trazado_104786" data-name="Trazado 104786" d="M158.526,274.762v2.175a5.6,5.6,0,0,1-5.6,5.6H109.074a5.6,5.6,0,0,1-5.6-5.6v-2.175a5.6,5.6,0,0,1,5.6-5.6h43.848A5.6,5.6,0,0,1,158.526,274.762Z" transform="translate(-103.471 -214.627)" fill="#a6e7f0"/>
                </g>
                <path id="Trazado_104787" data-name="Trazado 104787" d="M113.951,394.577V392.4a5.6,5.6,0,0,1,5.6-5.6h-10.48a5.6,5.6,0,0,0-5.6,5.6v2.175a5.6,5.6,0,0,0,5.6,5.6h10.48A5.6,5.6,0,0,1,113.951,394.577Z" transform="translate(-103.471 -305.504)" fill="#6bd9e7"/>
                <path id="Trazado_104788" data-name="Trazado 104788" d="M113.951,276.937v-2.175a5.6,5.6,0,0,1,5.6-5.6h-10.48a5.6,5.6,0,0,0-5.6,5.6v2.175a5.6,5.6,0,0,0,5.6,5.6h10.48A5.6,5.6,0,0,1,113.951,276.937Z" transform="translate(-103.471 -214.627)" fill="#6bd9e7"/>
              </g>
            </g>
          </g>
          <path id="Trazado_104789" data-name="Trazado 104789" d="M181.386,22.788h-23.7a3.9,3.9,0,0,1-3.9-3.9V11.4a3.9,3.9,0,0,1,3.9-3.9h23.7a3.9,3.9,0,0,1,3.9,3.9v7.48A3.9,3.9,0,0,1,181.386,22.788Z" transform="translate(-142.335 -7.5)" fill="#efedef"/>
          <path id="Trazado_104790" data-name="Trazado 104790" d="M224.761,386.8h-28.3l.636,13.382h27.659a5.6,5.6,0,0,0,5.6-5.6V392.4A5.6,5.6,0,0,0,224.761,386.8Z" transform="translate(-175.309 -300.508)" fill="#6bd9e7"/>
          <path id="Trazado_104791" data-name="Trazado 104791" d="M220.439,269.159H190.871l.636,13.382h28.932a5.6,5.6,0,0,0,5.6-5.6v-2.175A5.6,5.6,0,0,0,220.439,269.159Z" transform="translate(-170.988 -209.632)" fill="#6bd9e7"/>
          <path id="Trazado_104792" data-name="Trazado 104792" d="M245.206,307.982H220.414a7.825,7.825,0,0,1-7.816-7.453l-2.333-49.056a1.287,1.287,0,0,1,1.286-1.348h42.518a1.287,1.287,0,0,1,1.286,1.348l-2.333,49.056A7.824,7.824,0,0,1,245.206,307.982Z" transform="translate(-185.968 -194.928)" fill="#f9f7f8"/>
          <g id="XMLID_133_" transform="translate(31.989 72.909)">
            <g id="Grupo_70595" data-name="Grupo 70595">
              <path id="Trazado_104793" data-name="Trazado 104793" d="M273.783,329.74l-.66,13.868-3.956,1.608a11.517,11.517,0,0,1-10.112-.7,11.52,11.52,0,0,0-9.955-.769l-4.27,1.663h0l-.744-15.668a1.681,1.681,0,0,1,1.679-1.761H272.1A1.681,1.681,0,0,1,273.783,329.74Z" transform="translate(-244.081 -327.979)" fill="#d4f2f6"/>
              <path id="Trazado_104794" data-name="Trazado 104794" d="M275.657,394.479l-.764,16.089a1.683,1.683,0,0,1-1.681,1.6H249.722a1.683,1.683,0,0,1-1.681-1.6l-.68-14.289h0l4.27-1.663a11.521,11.521,0,0,1,9.955.769,11.517,11.517,0,0,0,10.112.7Z" transform="translate(-246.615 -378.85)" fill="#a6e7f0"/>
            </g>
          </g>
        </g>
      </g>
      <g id="Grupo_70598" data-name="Grupo 70598" transform="translate(95.97 0)">
        <path id="Trazado_104795" data-name="Trazado 104795" d="M119.732,269.043H103.28a3.9,3.9,0,0,1-3.9-3.9v-2.175a3.9,3.9,0,0,1,3.9-3.9h13.911a1.706,1.706,0,1,0,0-3.413H103.28a3.9,3.9,0,0,1-3.9-3.9v-2.175a3.9,3.9,0,0,1,3.9-3.9h13.275a1.706,1.706,0,0,0,0-3.413H103.28a3.9,3.9,0,0,1-3.9-3.9v-2.175a3.9,3.9,0,0,1,3.9-3.9h12.639a1.706,1.706,0,1,0,0-3.412H103.28a3.9,3.9,0,0,1-3.9-3.9v-2.175a3.9,3.9,0,0,1,3.893-3.9h12.006a1.706,1.706,0,0,0,0-3.413H103.726a8.665,8.665,0,0,1-4.344-7.525v-4.358a1.706,1.706,0,1,0-3.412,0v4.358a12.07,12.07,0,0,0,3.548,8.57,7.312,7.312,0,0,0-3.548,6.265V225a7.3,7.3,0,0,0,2.622,5.6,7.3,7.3,0,0,0-2.622,5.6v2.175a7.3,7.3,0,0,0,2.622,5.6,7.3,7.3,0,0,0-2.622,5.6v2.175a7.3,7.3,0,0,0,2.622,5.6,7.3,7.3,0,0,0-2.622,5.6v2.175a7.318,7.318,0,0,0,7.31,7.31h16.452a1.706,1.706,0,0,0,0-3.413Z" transform="translate(-95.97 -155.989)" fill="#00357b"/>
        <path id="Trazado_104796" data-name="Trazado 104796" d="M97.677,42.08a1.706,1.706,0,0,0,1.706-1.706V36.732a8.668,8.668,0,0,1,4.7-7.724l10.809-5.6a1.706,1.706,0,0,0,.921-1.515V18.7H134.6v3.193a1.707,1.707,0,0,0,.921,1.515l10.809,5.6a8.669,8.669,0,0,1,4.7,7.724V50.079a1.706,1.706,0,1,0,3.412,0V36.732a12.07,12.07,0,0,0-6.54-10.754l-9.887-5.122V18.551a5.619,5.619,0,0,0,4.327-5.461V5.611A5.617,5.617,0,0,0,136.727,0h-23.7a5.617,5.617,0,0,0-5.61,5.611v7.48a5.618,5.618,0,0,0,4.982,5.574v2.192l-9.887,5.122a12.069,12.069,0,0,0-6.54,10.754v3.642a1.706,1.706,0,0,0,1.706,1.706Zm13.152-28.99V5.611a2.2,2.2,0,0,1,2.2-2.2h23.7a2.2,2.2,0,0,1,2.2,2.2v7.48a2.2,2.2,0,0,1-2.2,2.2h-23.7a2.2,2.2,0,0,1-2.2-2.2Z" transform="translate(-95.971 0)" fill="#00357b"/>
        <path id="Trazado_104797" data-name="Trazado 104797" d="M250.442,243.553a3.008,3.008,0,0,0-2.166-.928H205.758a2.993,2.993,0,0,0-2.99,3.136l.381,8.016a1.706,1.706,0,0,0,3.409-.162l-.36-7.577h41.639l-2.312,48.617a6.111,6.111,0,0,1-6.112,5.828H214.62a6.111,6.111,0,0,1-6.111-5.828L206.9,260.886a1.706,1.706,0,1,0-3.409.162l1.606,33.768a9.519,9.519,0,0,0,9.52,9.078h24.792a9.519,9.519,0,0,0,9.52-9.078l2.333-49.056a3.009,3.009,0,0,0-.824-2.208Z" transform="translate(-178.469 -187.428)" fill="#00357b"/>
        <path id="Trazado_104798" data-name="Trazado 104798" d="M241.12,357.212h23.49a3.384,3.384,0,0,0,3.385-3.228l1.508-31.717a1.706,1.706,0,0,0-1.7-1.787H237.931a1.706,1.706,0,0,0-1.7,1.787l1.508,31.717A3.385,3.385,0,0,0,241.12,357.212Zm23.468-3.412H241.142l-.62-13.04,3.127-1.218a9.759,9.759,0,0,1,8.48.654,13.3,13.3,0,0,0,11.612.809l1.482-.6Zm1.422-29.907-.607,12.753-2.947,1.2a9.873,9.873,0,0,1-8.615-.6,13.154,13.154,0,0,0-11.43-.882l-2.059.8-.631-13.272h26.289Z" transform="translate(-204.317 -247.571)" fill="#00357b"/>
      </g>
    </g>
  </g>
</svg>
