<svg xmlns="http://www.w3.org/2000/svg" xmlns:xlink="http://www.w3.org/1999/xlink" width="85" height="85" viewBox="0 0 85 85">
  <defs>
    <clipPath id="clip-path">
      <rect id="Rectángulo_8746" data-name="Rectángulo 8746" width="85" height="85" transform="translate(1199 8995)" fill="#00357b" stroke="#707070" stroke-width="1"/>
    </clipPath>
  </defs>
  <g id="Enmascarar_grupo_62" data-name="Enmascarar grupo 62" transform="translate(-1199 -8995)" clip-path="url(#clip-path)">
    <g id="calendar_2_" data-name="calendar (2)" transform="translate(1199 8995)">
      <path id="Trazado_104836" data-name="Trazado 104836" d="M64.915,41.745h5.929a2.434,2.434,0,0,0,2.431-2.431V33.385a2.434,2.434,0,0,0-2.431-2.431H64.915a2.434,2.434,0,0,0-2.431,2.431v5.929A2.434,2.434,0,0,0,64.915,41.745Zm.059-8.3h5.811v5.811H64.974Zm-.059,24.072h5.929a2.434,2.434,0,0,0,2.431-2.431V49.157a2.434,2.434,0,0,0-2.431-2.431H64.915a2.434,2.434,0,0,0-2.431,2.431v5.929A2.434,2.434,0,0,0,64.915,57.517Zm.059-8.3h5.811v5.811H64.974ZM48,41.745h5.929a2.434,2.434,0,0,0,2.431-2.431V33.385a2.434,2.434,0,0,0-2.431-2.431H48a2.434,2.434,0,0,0-2.431,2.431v5.929A2.434,2.434,0,0,0,48,41.745Zm.059-8.3h5.811v5.811H48.055ZM20.085,61.758H14.156a2.434,2.434,0,0,0-2.431,2.431v5.929a2.434,2.434,0,0,0,2.431,2.431h5.929a2.434,2.434,0,0,0,2.431-2.431V64.189A2.434,2.434,0,0,0,20.085,61.758Zm-.059,8.3H14.215V64.248h5.811Zm.059-39.1H14.156a2.434,2.434,0,0,0-2.431,2.431v5.929a2.434,2.434,0,0,0,2.431,2.431h5.929a2.434,2.434,0,0,0,2.431-2.431V33.385A2.434,2.434,0,0,0,20.085,30.954Zm-.059,8.3H14.215V33.445h5.811ZM48,57.147h5.929a2.434,2.434,0,0,0,2.431-2.431V48.787a2.434,2.434,0,0,0-2.431-2.431H48a2.434,2.434,0,0,0-2.431,2.431v5.929A2.434,2.434,0,0,0,48,57.147Zm.059-8.3h5.811v5.811H48.055ZM74.512,5.69H69.188v-1.9A3.791,3.791,0,0,0,65.4,0H64.83a3.791,3.791,0,0,0-3.786,3.786v1.9H23.956v-1.9A3.791,3.791,0,0,0,20.17,0H19.6a3.791,3.791,0,0,0-3.786,3.786v1.9H10.488a6.241,6.241,0,0,0-6.234,6.234V78.774A6.233,6.233,0,0,0,10.48,85H74.52a6.233,6.233,0,0,0,6.226-6.226V11.924A6.241,6.241,0,0,0,74.512,5.69Zm-10.977-1.9a1.3,1.3,0,0,1,1.3-1.3H65.4a1.3,1.3,0,0,1,1.3,1.3v1.9H63.534Zm-45.232,0a1.3,1.3,0,0,1,1.3-1.3h.572a1.3,1.3,0,0,1,1.3,1.3v1.9H18.3v-1.9ZM78.255,78.774A3.739,3.739,0,0,1,74.52,82.51H10.48a3.739,3.739,0,0,1-3.735-3.735v-.008a6.2,6.2,0,0,0,3.744,1.253H60.971a6.193,6.193,0,0,0,4.408-1.826L78.255,65.317ZM64.108,75.942a5.325,5.325,0,0,0,.151-1.256V66.375A2.846,2.846,0,0,1,67.1,63.533h8.311a5.325,5.325,0,0,0,1.256-.151ZM78.255,23.484H25.2a1.245,1.245,0,0,0,0,2.49H78.255V58.2a2.846,2.846,0,0,1-2.843,2.843H67.1a5.339,5.339,0,0,0-5.333,5.333v8.311a2.846,2.846,0,0,1-2.842,2.843H10.488a3.748,3.748,0,0,1-3.744-3.744V25.974H20.221a1.245,1.245,0,0,0,0-2.49H6.745V11.924A3.748,3.748,0,0,1,10.488,8.18h5.323v3.661A3.791,3.791,0,0,0,19.6,15.628a1.245,1.245,0,0,0,0-2.49,1.3,1.3,0,0,1-1.3-1.3V8.18H61.044v3.661a3.791,3.791,0,0,0,3.786,3.786,1.245,1.245,0,0,0,0-2.49,1.3,1.3,0,0,1-1.3-1.3V8.18H74.512a3.748,3.748,0,0,1,3.744,3.744ZM20.085,46.356H14.156a2.434,2.434,0,0,0-2.431,2.431v5.929a2.434,2.434,0,0,0,2.431,2.431h5.929a2.434,2.434,0,0,0,2.431-2.431V48.787a2.434,2.434,0,0,0-2.431-2.431Zm-.059,8.3H14.215V48.846h5.811Zm11.05-12.912H37a2.434,2.434,0,0,0,2.431-2.431V33.385A2.434,2.434,0,0,0,37,30.954H31.076a2.434,2.434,0,0,0-2.431,2.431v5.929A2.434,2.434,0,0,0,31.076,41.745Zm.059-8.3h5.811v5.811H31.135ZM48.053,70.059a1.245,1.245,0,0,0-2.489.059A2.434,2.434,0,0,0,48,72.549h5.929a2.434,2.434,0,0,0,2.431-2.431V64.189a2.434,2.434,0,0,0-2.431-2.431H48a2.434,2.434,0,0,0-2.431,2.431V65.9a1.245,1.245,0,0,0,2.49,0V64.248h5.811v5.811ZM31.076,57.147H37a2.434,2.434,0,0,0,2.431-2.431V48.787A2.434,2.434,0,0,0,37,46.356H31.076a2.434,2.434,0,0,0-2.431,2.431v5.929A2.434,2.434,0,0,0,31.076,57.147Zm.059-8.3h5.811v5.811H31.135Zm-.059,23.7H37a2.434,2.434,0,0,0,2.431-2.431V64.189A2.434,2.434,0,0,0,37,61.758H31.076a2.434,2.434,0,0,0-2.431,2.431v5.929A2.434,2.434,0,0,0,31.076,72.549Zm.059-8.3h5.811v5.811H31.135Z" fill="#00357b"/>
    </g>
  </g>
</svg>
