<svg xmlns="http://www.w3.org/2000/svg" width="295" height="280.354" viewBox="0 0 295 280.354">
  <g id="Grupo_70935" data-name="Grupo 70935" transform="translate(-183.087 -183.443)">
    <path id="Trazado_105142" data-name="Trazado 105142" d="M436.616,415.2c-21.951,36.68-49.305,53.909-92.12,47.157-19.239-3.034-36.277-4.475-55.6-3.866-19.786.623-36.19-7.365-50.357-20.983-26.645-25.612-51.57-63.571-54.955-101.02C180.509,302.453,192,268.1,209.5,239.276c11.424-18.814,29.218-44.722,51.576-51.681a92.612,92.612,0,0,1,87.726,18.278c18.811,16.084,33.853,29.716,57.168,37.662,15.307,5.217,31.444,9.172,45.435,17.567C508.158,295.156,460.33,375.589,436.616,415.2Z" fill="#f98473" opacity="0.28"/>
    <path id="Trazado_105143" data-name="Trazado 105143" d="M708.215,1615.255s-12.091,3.543-10.251,9.042,5.52,2.7,19.452,5.677,14.457,4.554,25.629,6.131,14.335,1.84,25.108-3.943,16.292-7.291,11.035-11.137-12.88-5.33-24.709-5.771S708.215,1615.255,708.215,1615.255Z" transform="translate(-447.042 -1243.46)" fill="#f5dacf"/>
    <g id="Grupo_70890" data-name="Grupo 70890" transform="translate(256.193 306.342)">
      <path id="Trazado_105144" data-name="Trazado 105144" d="M742.063,1126.081c-5.9,7.431-1.051,33.989,3.154,35.031s56.769,1.03,60.195,1.251,11.146-29.195,3.943-36.282C798.8,1115.692,749.765,1116.373,742.063,1126.081Z" transform="translate(-739.325 -1118.542)" fill="#a04f58"/>
      <path id="Trazado_105145" data-name="Trazado 105145" d="M820.492,1428.677c-1.313-1.121-5.845-1.126-12.077-.841l-.7.033c-5.189.248-11.472.668-18.024.808l-.518.009c-2.2.026-4.466-.075-6.727-.239-3.553-.258-7.095-.674-10.368-1l-.507-.05c-5.733-.555-10.589-.786-13.144.675-4.327,2.477-4.463,21.238,1.451,24,1.916.894,7.509,1.6,14.564,2.049a284.865,284.865,0,0,0,32.631.141c6.017-.384,10.7-1.053,12.474-2.058C824.651,1449.312,825.7,1433.133,820.492,1428.677Z" transform="translate(-753.194 -1386.434)" fill="#944951"/>
      <path id="Trazado_105146" data-name="Trazado 105146" d="M906.073,1429.058a224.577,224.577,0,0,1-2.4,22.792,284.837,284.837,0,0,1-32.631-.141,3.53,3.53,0,0,1-1.017-.484c-2.015-1.577-3.329-18.4-3.505-22.431a3.938,3.938,0,0,1,2.159-3.758,7.359,7.359,0,0,1,2.485-.843s32.523.925,33.152,1.263A3.99,3.99,0,0,1,906.073,1429.058Z" transform="translate(-849.801 -1384.023)" fill="#803f46"/>
      <path id="Trazado_105147" data-name="Trazado 105147" d="M898.953,1161.875a1.381,1.381,0,0,1-.58.866l-.7.033c-5.189.248-11.472.668-18.024.808l-.518.009c-2.295-.1-4.58-.2-6.727-.239l-.611-.009c-3.011-.04-8.718.393-10.265-1.04a.409.409,0,0,1-.039-.036c-2.839-2.816-3.388-10.6-1.577-18.3,2.765-11.764,5.908-19.013,7.97-20.349,4.317-2.8,11.144-1.822,20.559-.965C893.761,1123.136,901.4,1147.8,898.953,1161.875Z" transform="translate(-843.152 -1121.339)" fill="#803f46"/>
      <rect id="Rect치ngulo_8785" data-name="Rect치ngulo 8785" width="4.534" height="10.054" transform="translate(60.383 65.453)" fill="#944951"/>
      <rect id="Rect치ngulo_8786" data-name="Rect치ngulo 8786" width="4.534" height="10.054" transform="translate(7.551 65.453)" fill="#944951"/>
    </g>
    <path id="Trazado_105148" data-name="Trazado 105148" d="M1069.2,1106.371c-1.259,2.806-6.9,2.46-7.532-1.594-.371-2.37-2.944-29.384-2.944-29.384l3.208-1.628.1.317a20.678,20.678,0,0,0-1.067,9.391c.625,7.129.774,18.518,3.547,20.884A7.14,7.14,0,0,0,1069.2,1106.371Z" transform="translate(-760.552 -773.308)" fill="#1e36ac"/>
    <g id="Grupo_70891" data-name="Grupo 70891" transform="translate(274.39 276.411)">
      <path id="Trazado_105149" data-name="Trazado 105149" d="M908.05,1661.129a1.053,1.053,0,0,1-.029.249c-.266,1.174-2.4,2.1-5.164,1.861-2.981-.255-4.2-1.452-4.2-2.886,0-.754,1.2-3.162,1.791-4.316.2-.385.333-.631.333-.631h6.748A35.474,35.474,0,0,1,908.05,1661.129Z" transform="translate(-895.91 -1554.914)" fill="#67431b"/>
      <path id="Trazado_105150" data-name="Trazado 105150" d="M1080.35,1665.415c0,.9-1.752,2.467-4.745,2.464-3.054,0-4.73-1.857-4.63-3.141a12.2,12.2,0,0,1,.991-4.121c.05-.107.08-.162.08-.162h7.032A38.655,38.655,0,0,1,1080.35,1665.415Z" transform="translate(-1045.58 -1559.3)" fill="#67431b"/>
      <path id="Trazado_105151" data-name="Trazado 105151" d="M949.212,1335.143c-2.106,1.465-1.771,7.372-1.421,9.737s1.948,3.506,9.688,3.506c7.68,0,8.149-.8,8.206-3.391.041-1.856,4.586-8.087-.846-10.2C962.976,1334.067,952.82,1332.634,949.212,1335.143Z" transform="translate(-938.364 -1275.511)" fill="#4071ab"/>
      <path id="Trazado_105152" data-name="Trazado 105152" d="M908.021,1665.546c-.266,1.174-2.4,2.1-5.164,1.861-2.981-.255-4.2-1.452-4.2-2.886,0-.754,1.2-3.162,1.791-4.316,1.193.195.889.195.889.195s-1.067,3.34-.634,4.4C901.422,1666.578,906.516,1666.424,908.021,1665.546Z" transform="translate(-895.91 -1559.083)" fill="#47351e"/>
      <path id="Trazado_105153" data-name="Trazado 105153" d="M931.328,1115.445c-3.219.035-12.285.468-12.991,3.622s4.917,22.073,3.011,25.622c-.884,1.646,7.04,2.629,10.588,2.629s10.112-1.241,8.995-2.993c-1.54-2.416,2.059-24.556,1.544-25.564C941.331,1116.526,934.5,1115.41,931.328,1115.445Z" transform="translate(-912.952 -1085.92)" fill="#1e36ac"/>
      <path id="Trazado_105154" data-name="Trazado 105154" d="M890.186,1374.049c0,.005,0,.012,0,.017-.323,2.166-8.336,2.149-8.761,0-1.162-5.872-2.717-22.173-3.505-30.055s1.933-13,5.41-13a5.073,5.073,0,0,1,5.672,4.262C891.013,1342.528,891.323,1366.406,890.186,1374.049Z" transform="translate(-877.78 -1273.151)" fill="#518cca"/>
      <path id="Trazado_105155" data-name="Trazado 105155" d="M1080.35,1666.484c0,.9-1.752,2.467-4.745,2.464-3.054,0-4.73-1.857-4.63-3.141a12.2,12.2,0,0,1,.991-4.121c.456.177.812.33.812.33s-1.242,2.637-.263,3.792C1074.093,1667.667,1079.182,1667.206,1080.35,1666.484Z" transform="translate(-1045.58 -1560.37)" fill="#47351e"/>
      <path id="Trazado_105156" data-name="Trazado 105156" d="M961.287,919.491c-.116,1.03,1.547,4.292,1.48,5.64a3.874,3.874,0,0,1-1.656,2.558,4.9,4.9,0,0,1-2.209.958,4.189,4.189,0,0,1-.719.047c-2.788-.053-5.536-1.789-5.142-3.629.168-.784,1.808-5.546,1.1-6.055-3.507-2.527-5.533-13.278-4.241-17.521.744-2.443,4.14-5.717,8.329-5.914a8.442,8.442,0,0,1,3.173.464,7.138,7.138,0,0,1,3.718,2.9,6.756,6.756,0,0,1,.945,4.329c-1.235,12.387-2.3,14.389-4.647,15.953a.237.237,0,0,0-.034.028.178.178,0,0,0-.029.034.373.373,0,0,0-.058.137.337.337,0,0,0-.007.038A.181.181,0,0,0,961.287,919.491Z" transform="translate(-940.083 -894.94)" fill="#ebd7be"/>
      <path id="Trazado_105157" data-name="Trazado 105157" d="M1076.64,1339.659c-.027,3.267-1.681,28.874-2.891,34.637l-.012.049c-.546,2.01-8.237,2-8.653-.042-1.392-6.828-.535-30.467-.535-34.587s3.066-8.761,6.571-8.712a4.107,4.107,0,0,1,2.781,1.192C1075.68,1333.851,1076.662,1336.957,1076.64,1339.659Z" transform="translate(-1039.775 -1273.148)" fill="#518cca"/>
      <path id="Trazado_105158" data-name="Trazado 105158" d="M991.967,947.517c-.116,1.03,1.547,4.292,1.48,5.64a3.875,3.875,0,0,1-1.656,2.558,4.9,4.9,0,0,1-2.209.958c.263-1.392,1.258-3.708,1.086-5.266-.175-1.577-3.446-4.114-2.948-4.236,2.379-.584,1.964-4.35,1.108-5.7-1.068-1.687-2.979-1.364-3.855-4.266s2.672-6.736,2.672-6.736,3.588-2.451,6.046-2.629c1.387-.1,3.225,1.762,3.057,3.453-1.235,12.387-2.3,14.389-4.647,15.953a.185.185,0,0,0-.034.028.178.178,0,0,0-.029.034.315.315,0,0,0-.058.137.178.178,0,0,0-.007.038C991.97,947.492,991.969,947.5,991.967,947.517Z" transform="translate(-970.763 -922.966)" fill="#f3e6d7"/>
      <path id="Trazado_105159" data-name="Trazado 105159" d="M963.462,897.878c.526,1.357.5,6.072-.69,5.6-1.61-.641.38-3.877-3.877-4.4-1.974-.243-3.337.293-4.879.519a7.632,7.632,0,0,1-3.832-.38c-2.15-.75-3.347,4.855-3.347,5.775,0,.639-1.023-4.664-.645-5.705.523-1.446-.66-3.358.352-4.111,1.429-1.063,1.519-2.5,3.25-3.162a14.181,14.181,0,0,1,4.249-.577,11.419,11.419,0,0,0,1.7-.3,8.382,8.382,0,0,1,2.589-.309c1.124.113,2.316,1.339,3.241,2.06.819.636,1.743.761,2.186,1.8C964.445,896.276,963.064,896.852,963.462,897.878Z" transform="translate(-937.127 -890.805)" fill="#66361a"/>
      <path id="Trazado_105160" data-name="Trazado 105160" d="M957.264,897.408c-.715,1.446-3.255,1.3-3.825,2.686-.376.916.04,1.246.577,1.668a7.632,7.632,0,0,1-3.832-.38c-2.15-.75-3.347,4.855-3.347,5.775,0,.639-1.023-4.664-.645-5.705.523-1.446-.66-3.358.352-4.111,1.429-1.063,1.519-2.5,3.25-3.162a14.179,14.179,0,0,1,4.249-.577,11.419,11.419,0,0,0,1.7-.3c-.708.418-1.15.883-.9,1.343C955.629,896.051,957.977,895.963,957.264,897.408Z" transform="translate(-937.127 -892.976)" fill="#522616"/>
      <path id="Trazado_105161" data-name="Trazado 105161" d="M1058.419,980.994c-.117,1.088-.2,3.844-.208,3.982,0,.005-2.635,1.351-2.635,1.351a51.2,51.2,0,0,1-.894-7.715c0-3.334,1.738-8.381,2.775-7.713a1.494,1.494,0,0,1,.293.251C1059.288,972.832,1058.657,978.748,1058.419,980.994Z" transform="translate(-1031.433 -960.32)" fill="#f3e6d7"/>
      <path id="Trazado_105162" data-name="Trazado 105162" d="M939.02,981.922a31.154,31.154,0,0,1-.983,6.611c-.143.583-.244.94-.244.94l-2.668-1.36s.075-2.882-.043-4.03c-.252-2.443-.252-8.294,1.649-9.555.2-.134.414-.063.624.163C938.209,975.62,939.02,979.168,939.02,981.922Z" transform="translate(-927.449 -963.466)" fill="#f3e6d7"/>
      <path id="Trazado_105163" data-name="Trazado 105163" d="M1058.212,984.976c0,.005-2.635,1.351-2.635,1.351a51.2,51.2,0,0,1-.894-7.715c0-3.334,1.738-8.381,2.775-7.713a1.494,1.494,0,0,1,.293.251c-.486,1.676-1.226,4.252-1.806,6.36-.731,2.664-.731,4.007,0,5.555A4.3,4.3,0,0,0,1058.212,984.976Z" transform="translate(-1031.433 -960.32)" fill="#ebd7be"/>
      <path id="Trazado_105164" data-name="Trazado 105164" d="M890.186,1374.049c0,.005,0,.012,0,.017-.323,2.166-8.336,2.149-8.761,0-1.162-5.872-2.717-22.173-3.505-30.055s1.933-13,5.41-13a5.878,5.878,0,0,1,3.517.84c-2.533.675-6.07,2.252-6.327,8.824-.284,7.26,2.161,30.805,3.794,32.331C885.484,1374.1,889.091,1373.923,890.186,1374.049Z" transform="translate(-877.78 -1273.151)" fill="#4071ab"/>
      <path id="Trazado_105165" data-name="Trazado 105165" d="M1069.294,1106.131a2.356,2.356,0,0,1-.095.241c-1.259,2.806-6.9,2.46-7.532-1.594-.371-2.37-2.944-29.384-2.944-29.384l3.208-1.628.1.317C1063.031,1077.144,1070.86,1101.507,1069.294,1106.131Z" transform="translate(-1034.942 -1049.719)" fill="#4758ac"/>
      <path id="Trazado_105166" data-name="Trazado 105166" d="M891.254,1076.191s-.806,23.978-3,30.461a3.508,3.508,0,0,1-.764,1.438c-1.991,1.758-6.683,2.094-6.683-3.032s7.183-30.094,7.183-30.094l3.242,1.217Z" transform="translate(-880.406 -1050.761)" fill="#4758ac"/>
      <path id="Trazado_105167" data-name="Trazado 105167" d="M938.037,988.533c-.143.583-.41.481-.41.481l-2.5-.9s.075-2.882-.043-4.03c-.252-2.443-.252-8.294,1.649-9.555.2-.134.414-.063.624.163-.724.847-1.206,1.673-.925,5.964C936.753,985.578,938.443,986.72,938.037,988.533Z" transform="translate(-927.449 -963.466)" fill="#ebd7be"/>
      <path id="Trazado_105168" data-name="Trazado 105168" d="M1073.737,1374.345c-.546,2.01-8.237,2-8.653-.042-1.392-6.828-.535-30.467-.535-34.587s3.066-8.761,6.571-8.712a4.107,4.107,0,0,1,2.781,1.192,6.305,6.305,0,0,0-4.045,4.616c-.8,4.382-2.216,33.909-.938,35.662C1069.992,1373.949,1072.432,1374.147,1073.737,1374.345Z" transform="translate(-1039.775 -1273.148)" fill="#4071ab"/>
      <path id="Trazado_105169" data-name="Trazado 105169" d="M886.937,1084.107c-2.573,7.974-6.193,18.826-2.573,21.029a12.536,12.536,0,0,0,3.886,1.517,3.508,3.508,0,0,1-.764,1.438c-1.991,1.758-6.683,2.094-6.683-3.032s7.183-30.094,7.183-30.094l3.242,1.217C890.3,1076.884,888.644,1078.82,886.937,1084.107Z" transform="translate(-880.406 -1050.761)" fill="#1e36ac"/>
    </g>
    <path id="Trazado_105170" data-name="Trazado 105170" d="M590.345,346.3c-3.081,15.706,11.823,21.79,21.1,29.884,6.867,5.994,17.856,15.383,17.856,15.383s-6.907-12.947,1.2-13.2c22.553-.707,40.123-9.291,46.957-20.014s7.9-27.478-5.958-39.235C637.292,290.1,595.024,322.448,590.345,346.3Z" transform="translate(-353.374 -107.876)" fill="#fff"/>
    <g id="Grupo_70894" data-name="Grupo 70894" transform="translate(205.768 310.843)">
      <path id="Trazado_105171" data-name="Trazado 105171" d="M381.854,1289.359a4.115,4.115,0,0,1,3.149.262c.787.367,3.011,2.051,3.247,1.819,0,0-2.467-3.915-4.567-3.976-4.467-.13-7.121,4.858-7.786,6.484q.066-.494.14-.987c2.516-4.725,5.27-6.214,6.375-6.74,1.029-.49,3.279-.249,4.736-.588.456-.106-2.29-1.076-3.189-1.083-2.106-.016-5.035,2.042-6.055,3.917a25.267,25.267,0,0,0-1.644,3.105q.114-.674.235-1.346.5-2.764,1.116-5.508c.63-.761,2.881-.388,3.957-1.04,1.03-.624,3.1-2.455,2.864-3.045,0,0-2.68,1.93-3.258,2.192-.841.459-2.482.5-3.392,1.149q.146-.628.3-1.254a3.773,3.773,0,0,1,1.527-1.1,14.343,14.343,0,0,0,2.937-.875c1.809-1.094,2.792-2.857,2.312-2.609-.392.2-2.2,1.818-3.682,2.146-.711.157-2.007.019-2.72.95q.208-.8.431-1.6a8.173,8.173,0,0,1,4.051-1.595c1.851-.218,3.561-3.437,3.386-3.5-.377-.143-.479,1.3-3.523,2.433-.88.329-3.084,1.044-3.746,2.082.152-.518.309-1.034.48-1.545.068-.2.136-.407.207-.611a16.85,16.85,0,0,1,2.064-.608,7.676,7.676,0,0,0,1.995-1.26c2.306-2.026,1.785-4.155,1.581-4.141a5.6,5.6,0,0,1-1.371,2.745c-.637.622-2.842,1.271-3.868,2.24.085-.19.178-.376.279-.556a24.881,24.881,0,0,0,3.4-4.027c.807-1.653,1.291-5.394.891-4.408a38.934,38.934,0,0,1-4.48,7.972l0,.009a.209.209,0,0,0-.027.035,6.586,6.586,0,0,0-.355.656,18.176,18.176,0,0,0,.525-2.339,29.2,29.2,0,0,1,1.318-4.109c-.945.309-2.021,3.1-2.283,3.937a11.9,11.9,0,0,0-.216,4.231l-.065.2c-.221.669-.424,1.343-.616,2.021a5.963,5.963,0,0,0-.147-2.163,12.12,12.12,0,0,1-.2-4.422c-.122-1.344-1.154,3.318-.866,4.607a25.539,25.539,0,0,1,.547,4.5c-.051.2-.1.407-.152.611a27.09,27.09,0,0,0-.851-3.42c-.25-1.349.405-4.164.063-4.164-.429,0-1.344,5.941.635,8.226q-.166.7-.325,1.4a5.083,5.083,0,0,0-.689-1.873c-1.055-1.733-.6-3.307-.84-3.307a9.479,9.479,0,0,0-.315,2.519c0,1.362,1.216,1.913,1.771,2.988q-.6,2.686-1.081,5.4-.115.645-.222,1.291c.009-1.3-.038-2.6-.156-3.887a22.532,22.532,0,0,0-.978-5.16c-.153-.453-.323-.9-.507-1.349-.069-3.076-.126-5.531-.129-5.683a26.325,26.325,0,0,0-.158-3.044c-.015-.169-.029-.343-.041-.519a23.447,23.447,0,0,1,4.818-4.757c1.682-1.1,2.963-5.13,2.447-4.861-.548.286-1.44,1.929-2.441,2.788a15.361,15.361,0,0,0-2.865,2.677,21.434,21.434,0,0,0-2,3.573c-.072-1.28-.092-2.672-.1-3.861,0-.017,0-.034,0-.051a13.188,13.188,0,0,1,.621-2.181,21.875,21.875,0,0,1,3.069-4.841,3.348,3.348,0,0,0,.592-2.77c-.682,1.05-2.312,3.2-2.89,4.3a11.089,11.089,0,0,0-1.4,3.827l-.036.345c-.1-1.708-.336-3.4-.549-5.1a10.982,10.982,0,0,1,3.627-4.478c1.5-.709,3.7-.432,3.507-.807a3.685,3.685,0,0,0-2.366-.978c-3.782.15-4.259,4.646-4.866,5.463-.074-.63-.141-1.262-.192-1.9-.012-.148.632-4.136,1.052-6.6s.921-5.547.689-5.348a7.055,7.055,0,0,0-1.63,3.7c0,2.611-.383,7.146-.387,8.217a.235.235,0,0,0,0,.044l.007.083a13.865,13.865,0,0,0-.284-1.986,7.645,7.645,0,0,0-1.994-2.913,51.113,51.113,0,0,1-4.075-4.39c-.551-.551.9,2.514,2.341,4.089,1.377,1.506,3.157,1.849,3.961,5.566-.537-1.375-1.847-2.365-4.05-5.015,0,0,1.07,1.872,1.419,2.5,1.178,2.119,2.323,2.042,2.852,4.047q.081.827.161,1.568a16.158,16.158,0,0,0-3.171-4.368,32.49,32.49,0,0,1-3.249-4.357,13.882,13.882,0,0,0,.886,2.861,24.958,24.958,0,0,0,3.438,4.114,15.787,15.787,0,0,1,2.174,2.464c.17,1.542.318,2.808.379,3.9a10.061,10.061,0,0,0-1.72-2.5c-1.47-1.68-3.028-2.256-4.134-4.756a5.754,5.754,0,0,0,.6,2.9c.846,1.449,2.262,2.07,3.1,2.962a10.45,10.45,0,0,1,2.184,2.827c0,1.414-.03,2.861.1,4.259.014.153.026.309.036.468a9.444,9.444,0,0,0-1.946-3.433,26.794,26.794,0,0,1-4.586-5.1c-.137-.223.11.812.217,1.339.228,1.128,3,3.611,4.577,5.554.85,1.133,1.545,1.8,1.792,3.073.018.993.008,1.867.067,2.18,0,.024.046,1.651.1,3.907a29.8,29.8,0,0,0-1.616-3q-.3-.489-.611-.975c.478-3.784-.32-4.014-1.87-6.557a9.861,9.861,0,0,0-2.481-2.547c-.315.262,2.509,3.517,3.139,5.092a27.965,27.965,0,0,1,.8,3.375,24.469,24.469,0,0,0-2.063-2.714,15.388,15.388,0,0,0-1.081-1.113,17.886,17.886,0,0,0-1.949-3.193c-.682-.945-1.811-3.126-2.805-4.9.281,3.075,2.024,5.294,3.44,7.116a4.3,4.3,0,0,0-1.278-.491,25.869,25.869,0,0,0-3.456-3.695,17.22,17.22,0,0,1-2.327-4.042c-.42,1.627.91,4.2,2.065,5.3.894.8,2.219,1.684,3.159,2.444a.177.177,0,0,0-.022.046c-1.946-.894-4.459-1.863-5.936-3.7-.892-1.1-2.785-4.409-2.785-4.409-.13,3.873,3.222,6.734,6.735,7.869-.705-.038-1.412.057-2.168.057-2.1-.052-3.359-1.207-4.987-2.362.63,1.89,3.2,3.254,5.092,3.464,1.48.148,2.728-.584,4.137-.673a.2.2,0,0,0,.092.03c1.455.12,2.7,1.272,3.671,2.375a8.385,8.385,0,0,0-5.532-1.477,14.952,14.952,0,0,1-3.413.248c-.945-.105-2.259.052-3.63-.187,2.343,1.26,6.838.433,8.668.764a27.284,27.284,0,0,1,4.618,1.5q.508.632.982,1.3a6.542,6.542,0,0,0-2.713-1.061c-1.312-.21-3.1-.166-4.409-.376l-1.837-.371c-.367-.1-.945-.5-.262.239.682.787,2.356,1.131,3.3,1.288a29.056,29.056,0,0,1,4.415.523,7.728,7.728,0,0,1,2.359,1.023q.48.748.923,1.512.243.42.479.851a12.293,12.293,0,0,0-2.9-1.011,10.444,10.444,0,0,1-1.785-.682c-.525-.262-1.312-.945-1.837-.945,0,1.483,2.939,2.2,3.937,2.467a8.2,8.2,0,0,1,3.242,1.43c.189.387.369.778.536,1.174.074,2.984.167,6.714.234,9.367-.14-.212-.285-.42-.438-.622a16.207,16.207,0,0,0-1.972-1.986c1.007-1.642.764-5.264-.883-6.712.512,2.264.092,2.664.2,3.924.051.614.534,1.973.509,2.624a6.721,6.721,0,0,1-1.745-2.328c-1.186-2.288-.821-3.788-2.4-6.012a7.079,7.079,0,0,0,.291,3.283,23.247,23.247,0,0,0,1.769,2.853,6.028,6.028,0,0,0,.752,1.266c-.765-.678-1.428-.782-2.222-1.576-.84-.84-1.525-1.482-2.365-2.322a4.376,4.376,0,0,0,2.68,3.529,23.705,23.705,0,0,1,2.638,1.234l-.076-.1c.4.422.831.82,1.255,1.226a6.651,6.651,0,0,0-1.558-.566,10.908,10.908,0,0,1-3.937-1.268c.612,1.588,4.109,2.729,6.171,2.506.121.127.241.255.357.388a9.045,9.045,0,0,1,1,1.412c.03,1.155.053,2.024.065,2.407a5.674,5.674,0,0,0-4.5-1.576,4.873,4.873,0,0,0-2.887,2.1c-.114.139-.241.28-.377.421H366.1a2.134,2.134,0,0,1-.007.251,6.978,6.978,0,0,1-2.433,1.587,4.145,4.145,0,0,1-2.294-.394c1.928,1.938,3.317,1.085,4.64.026-.007.11-.014.224-.021.344-.024.417-.046.889-.057,1.4-.106,4.93.746,13.72,9.306,13.72a9.025,9.025,0,0,0,3.8-.769,9.408,9.408,0,0,0,4.766-5.811c.063-.183.124-.368.18-.554a22.644,22.644,0,0,0,.868-4.832c.729,1.3,1.72,2.834,2.128,2.834a15.6,15.6,0,0,1-1.522-2.939,29.456,29.456,0,0,1-.315-2.939c-.067-.374-.147-.738-.245-1.088-.028-.5-.058-.807-.058-.838h-.223a4.638,4.638,0,0,0-3.253-3.008,4.3,4.3,0,0,0-2.914.175A10.137,10.137,0,0,1,381.854,1289.359Zm-4.863,4.113a1.925,1.925,0,0,1,1.426,1.275h-2.488q0-.127-.015-.249a2.64,2.64,0,0,0,.41-.328C376.533,1293.961,376.756,1293.725,376.991,1293.472Zm-2.759-11.053c.113.323.216.647.307.974a25.852,25.852,0,0,1,.833,5.373,43.367,43.367,0,0,1,.041,4.568l-.028-.022-.084-.2a15.526,15.526,0,0,0-.88-1.818C374.376,1288.936,374.3,1285.487,374.232,1282.419Zm.644,10.682c.017.04.033.082.05.123l-.209.052a.839.839,0,0,0-.258.252c0-.342-.012-.818-.022-1.4C374.6,1292.452,374.744,1292.778,374.876,1293.1Zm-1.153,1.331a1.148,1.148,0,0,0,.4.031q-.025.138-.044.284H368A6.711,6.711,0,0,1,373.723,1294.432Zm8.912.315h-2.829a3.83,3.83,0,0,0-1.256-1.544A5.046,5.046,0,0,1,382.635,1294.747Z" transform="translate(-355.663 -1234.148)" fill="#f5e0d8"/>
      <ellipse id="Elipse_5342" data-name="Elipse 5342" cx="9.413" cy="2.117" rx="9.413" ry="2.117" transform="translate(20.441 74.809)" fill="#c6bda9"/>
      <g id="Grupo_70893" data-name="Grupo 70893" transform="translate(9.566)">
        <path id="Trazado_105172" data-name="Trazado 105172" d="M531.483,1606.072a10.641,10.641,0,0,0,4.486-.907c2.9-1.327,4.618-3.959,5.621-6.853.074-.216.146-.435.213-.654a29.171,29.171,0,0,0,1.125-7.818,36.354,36.354,0,0,0-.116-3.744h-22.1c.011.126-.024.526-.069,1.132-.022.291-.046.63-.068,1.008-.029.491-.054,1.048-.067,1.656C520.383,1595.705,521.388,1606.072,531.483,1606.072Z" transform="translate(-508.4 -1529.147)" fill="#d9c39f"/>
        <path id="Trazado_105173" data-name="Trazado 105173" d="M521.078,1588.235c1.127,1.471,5.1,6.052,10.846,6.052a14.372,14.372,0,0,1,10.169,4.024c.074-.216.146-.435.213-.654a29.166,29.166,0,0,0,1.125-7.818c-2.734.8-8.654,2.2-12.977.826a35.742,35.742,0,0,1-9.177-4.57h-.062c.011.126-.024.526-.069,1.132C521.123,1587.519,521.1,1587.857,521.078,1588.235Z" transform="translate(-508.903 -1529.147)" fill="#f4dfcc"/>
        <path id="Trazado_105174" data-name="Trazado 105174" d="M520.569,1597.372c1.688,3.238,6.408,5.651,9.721,6.9,2.7,1.019,4.763,5.714,5.74,8.37,2.9-1.327,4.618-3.959,5.621-6.853.074-.216.146-.435.213-.654a8.59,8.59,0,0,0-.569-.864c-1.114-1.439-7.2-3.064-12.257-3.157-3.816-.07-7-4.322-8.333-6.409-.022.291-.046.629-.068,1.008C520.607,1596.208,520.582,1596.765,520.569,1597.372Z" transform="translate(-508.461 -1536.628)" fill="#fff"/>
        <g id="Grupo_70892" data-name="Grupo 70892">
          <path id="Trazado_105175" data-name="Trazado 105175" d="M582.64,1152.8c.274-.235-.317,3.4-.812,6.307s-1.255,7.613-1.241,7.787c.009.112-.325.154-.326.013-.007-1.167.457-6.621.457-9.742A8.319,8.319,0,0,1,582.64,1152.8Z" transform="translate(-560.307 -1152.789)" fill="#5d8f3a"/>
          <path id="Trazado_105176" data-name="Trazado 105176" d="M527.183,1182.259a9.016,9.016,0,0,1,2.352,3.436c.248.743.272,2.557.52,3.362l.025,1c-.751-5.905-3.139-6.185-4.941-8.156-1.7-1.857-3.411-5.472-2.761-4.822A60.3,60.3,0,0,0,527.183,1182.259Z" transform="translate(-509.91 -1173.822)" fill="#5d8f3a"/>
          <path id="Trazado_105177" data-name="Trazado 105177" d="M526.42,1231.407v0Z" transform="translate(-513.543 -1221.074)" fill="#5d8f3a"/>
          <path id="Trazado_105178" data-name="Trazado 105178" d="M548.566,1226.168c-.334-2.266-1.937-3.2-5.046-6.941,0,0,1.262,2.207,1.673,2.948,1.484,2.67,2.924,2.383,3.481,5.293Z" transform="translate(-528.396 -1210.495)" fill="#5d8f3a"/>
          <path id="Trazado_105179" data-name="Trazado 105179" d="M533.269,1224.15c-.681-1.981-2.739-4.109-3.791-5.285a38.281,38.281,0,0,1-3.832-5.138,16.371,16.371,0,0,0,1.045,3.374,29.435,29.435,0,0,0,4.055,4.852,18.6,18.6,0,0,1,2.564,2.906Z" transform="translate(-512.866 -1205.714)" fill="#5d8f3a"/>
          <path id="Trazado_105180" data-name="Trazado 105180" d="M582.865,1234.655c.772-.568,1.172-6.365,5.839-6.551.683-.027,2.484.557,2.79,1.154.226.442-2.372.116-4.137.952-1.43.677-4.217,4.271-4.464,5.942C582.893,1236.152,582.564,1234.877,582.865,1234.655Z" transform="translate(-562.459 -1218.205)" fill="#5d8f3a"/>
          <path id="Trazado_105181" data-name="Trazado 105181" d="M589.135,1265.434l.191-1.825a13.082,13.082,0,0,1,1.653-4.513c.681-1.3,2.6-3.837,3.408-5.075a3.948,3.948,0,0,1-.7,3.266,25.813,25.813,0,0,0-3.62,5.709,12.56,12.56,0,0,0-.777,2.972Z" transform="translate(-568.016 -1240.715)" fill="#5d8f3a"/>
          <path id="Trazado_105182" data-name="Trazado 105182" d="M590.153,1307.431a28.843,28.843,0,0,1,5.912-5.912c1.984-1.3,3.495-6.051,2.886-5.734-.646.337-1.7,2.275-2.879,3.288a18.112,18.112,0,0,0-3.379,3.157c-.963,1.4-2.465,4.024-2.465,4.675Z" transform="translate(-568.9 -1276.979)" fill="#5d8f3a"/>
          <path id="Trazado_105183" data-name="Trazado 105183" d="M537.8,1324.177c-.186-1.857-1.078-2.667-2.192-4.152-1.857-2.291-5.129-5.219-5.4-6.55-.125-.621-.417-1.841-.255-1.578,1.486,2.414,3.313,3.956,5.409,6.013a10.057,10.057,0,0,1,2.461,4.982Z" transform="translate(-516.576 -1290.953)" fill="#5d8f3a"/>
          <path id="Trazado_105184" data-name="Trazado 105184" d="M580.58,1259.293c.29,3.626,1.02,7.176,1.043,10.808.012,1.818.048,4.039.209,5.85a31.077,31.077,0,0,1,.186,3.59c.008.494.5,21.63.449,21.856-.092.377-.3.2-.4-.118-.022-.065-.518-20.731-.536-20.824-.113-.6-.012-2.958-.184-4.814s-.1-3.817-.12-5.7c-.019-2.449-.571-5.635-.972-10.639C580.229,1259.007,580.58,1259.293,580.58,1259.293Z" transform="translate(-560.3 -1245.188)" fill="#5d8f3a"/>
          <path id="Trazado_105185" data-name="Trazado 105185" d="M510.605,1366.7c1.964.162,3.566,1.724,4.808,3.118a35.358,35.358,0,0,1,3.643,5.1,31.672,31.672,0,0,1,3.024,6.312,26.565,26.565,0,0,1,1.153,6.085,49.381,49.381,0,0,1,.131,6.683,19.957,19.957,0,0,1-.44,4.1.232.232,0,0,1-.448-.123,18.231,18.231,0,0,0,.4-3.559,50.99,50.99,0,0,0-.022-5.935,30.5,30.5,0,0,0-.983-6.336,28.036,28.036,0,0,0-2.85-6.369,37.593,37.593,0,0,0-3.514-5.13c-1.209-1.46-2.887-3.312-4.907-3.479-.3-.024-.3-.489,0-.464Z" transform="translate(-499.613 -1338.587)" fill="#5d8f3a"/>
          <path id="Trazado_105186" data-name="Trazado 105186" d="M551.223,1502.834c.938,2.291,3.145,3.389,4.592,5.281a15.93,15.93,0,0,1,2.023,3.641,6.119,6.119,0,0,1,.646,2.421c.013.3-.336.809-.349.511a8.979,8.979,0,0,0-.8-2.939,13.275,13.275,0,0,0-2.157-3.676c-1.521-1.738-3.505-2.991-4.413-5.207C550.654,1502.588,551.223,1502.834,551.223,1502.834Z" transform="translate(-534.677 -1456.74)" fill="#447431"/>
          <path id="Trazado_105187" data-name="Trazado 105187" d="M610.816,1407.427a13.373,13.373,0,0,0-1.2,2.845c-.493,1.47-.9,2.968-1.291,4.469-.9,3.48-1.649,7-2.291,10.539-.27,1.487-.52,2.979-.717,4.478a17.07,17.07,0,0,0-.226,2.85c.012.3-.453.3-.464,0a16.86,16.86,0,0,1,.216-2.775c.188-1.465.43-2.923.689-4.377q.947-5.3,2.268-10.536c.4-1.577.833-3.149,1.343-4.694a14.034,14.034,0,0,1,1.27-3.032c.158-.254.56-.021.4.234Z" transform="translate(-581.468 -1373.662)" fill="#5d8f3a"/>
          <path id="Trazado_105188" data-name="Trazado 105188" d="M442.681,1304.659c-2.321-1.082-5.417-2.228-7.212-4.456-1.052-1.3-3.285-5.2-3.285-5.2-.186,5.51,5.606,9.286,10.5,9.843v-.187Z" transform="translate(-431.689 -1276.312)" fill="#5d8f3a"/>
          <path id="Trazado_105189" data-name="Trazado 105189" d="M469.527,1307.107c-1.114-.928-2.8-2.043-3.91-3.033-1.362-1.3-2.931-4.333-2.435-6.252.867,1.609,1.445,3.4,2.745,4.767,1.3,1.3,3.6,3.344,4.127,4.457Z" transform="translate(-458.535 -1278.76)" fill="#5d8f3a"/>
          <path id="Trazado_105190" data-name="Trazado 105190" d="M439.588,1348.019c-.867,0-1.733-.31-2.6-.371s-1.733.062-2.662.062c-2.477-.062-3.962-1.424-5.881-2.786.743,2.229,3.776,3.838,6,4.086,1.857.186,3.4-.8,5.2-.8Z" transform="translate(-428.445 -1319.672)" fill="#5d8f3a"/>
          <path id="Trazado_105191" data-name="Trazado 105191" d="M500.945,1316.96c-1.733-2.291-4.274-5.088-4.645-9.155,1.173,2.094,2.5,4.666,3.308,5.781a20,20,0,0,1,2.6,4.457Z" transform="translate(-487.382 -1287.431)" fill="#5d8f3a"/>
          <path id="Trazado_105192" data-name="Trazado 105192" d="M447.7,1380.262a10.293,10.293,0,0,0-7.214-2.194,17.653,17.653,0,0,1-4.025.292c-1.114-.124-2.664.062-4.281-.22,2.763,1.486,8.065.51,10.223.9a27.317,27.317,0,0,1,5.961,2.049Z" transform="translate(-431.69 -1348.43)" fill="#5d8f3a"/>
          <path id="Trazado_105193" data-name="Trazado 105193" d="M534.6,1341.756c1.877,3.078,2.819,3.281,2.159,8.094-.1-.234-.308-.711-.38-.916-.517-1.483-.3-2.437-1-4.176-.743-1.857-4.074-5.7-3.7-6C531.85,1338.6,534,1340.768,534.6,1341.756Z" transform="translate(-518.08 -1314.305)" fill="#5d8f3a"/>
          <path id="Trazado_105194" data-name="Trazado 105194" d="M486.473,1395.934c-.5-1.176-2.693-1.817-3.807-2-1.548-.248-3.652-.2-5.2-.443-.619-.124-1.548-.313-2.167-.437-.433-.124-1.115-.585-.31.281.8.928,2.778,1.334,3.893,1.52a34.266,34.266,0,0,1,5.207.617,8.173,8.173,0,0,1,3.324,1.639Z" transform="translate(-468.547 -1361.271)" fill="#5d8f3a"/>
          <path id="Trazado_105195" data-name="Trazado 105195" d="M530.152,1423.37c-.425-.818-2.392-1.315-4-1.748a12.32,12.32,0,0,1-2.1-.8c-.619-.31-1.548-1.114-2.167-1.114,0,1.749,3.467,2.6,4.643,2.91.929.186,3.7,1.068,4.136,2.12Z" transform="translate(-509.599 -1384.622)" fill="#5d8f3a"/>
          <path id="Trazado_105196" data-name="Trazado 105196" d="M534.973,1456.585c-1.4-2.7-.969-4.468-2.834-7.091a8.349,8.349,0,0,0,.344,3.872,30.227,30.227,0,0,0,2.162,3.486Z" transform="translate(-518.427 -1410.492)" fill="#447431"/>
          <path id="Trazado_105197" data-name="Trazado 105197" d="M522.6,1485.927c-1.052-1.114-1.91-1.137-2.963-2.189-.991-.991-1.8-1.748-2.79-2.738a5.16,5.16,0,0,0,3.161,4.162,27.929,27.929,0,0,1,3.112,1.455Z" transform="translate(-505.23 -1437.863)" fill="#447431"/>
          <path id="Trazado_105198" data-name="Trazado 105198" d="M564.489,1473.415a28.248,28.248,0,0,0-.6-3.154c-.124-1.486.371-1.958-.233-4.627,1.95,1.714,2.231,6.013,1.028,7.938Z" transform="translate(-545.886 -1424.516)" fill="#447431"/>
          <path id="Trazado_105199" data-name="Trazado 105199" d="M533.242,1520.132a6.929,6.929,0,0,0-2.742-1.251c-.957-.211-3.25-.5-4.643-1.495.743,1.927,5.089,3.3,7.486,2.93Z" transform="translate(-513.054 -1469.467)" fill="#447431"/>
          <path id="Trazado_105200" data-name="Trazado 105200" d="M494.206,1565.644c-2.786-.867-5.1-.868-7.514.865-2.1,1.424-4.011,4.272-7.057,1.208a4.885,4.885,0,0,0,2.706.464,8.97,8.97,0,0,0,3.609-2.663,5.747,5.747,0,0,1,3.4-2.476c1.857-.371,4.891.867,5.819,2.538A1.877,1.877,0,0,1,494.206,1565.644Z" transform="translate(-472.906 -1509.066)" fill="#447431"/>
          <path id="Trazado_105201" data-name="Trazado 105201" d="M594.423,1571.96c1.857.743.362,4.841.468,6.161.119,1.482.848,4.735.848,5.725a12.778,12.778,0,0,1-2.581-6.654c-.062-1.3-.282-4.489.77-5.108Z" transform="translate(-571.456 -1516.869)" fill="#447431"/>
          <path id="Trazado_105202" data-name="Trazado 105202" d="M619.832,1568.923c1.609.124,2.274,2.959,2.4,4.073a44.143,44.143,0,0,1,.12,6.995c1.052-.433,1.713-5.858,1.3-7.986a4.849,4.849,0,0,0-3.016-3.949Z" transform="translate(-594.678 -1513.478)" fill="#447431"/>
          <path id="Trazado_105203" data-name="Trazado 105203" d="M614.008,1559.78c2.043-.619,5.525-.34,6.9,1.78a27.113,27.113,0,0,1,1.606,4.007c.619,1.362,2.666,4.953,3.343,4.953-.557-1.176-1.486-2.167-1.8-3.467a34.771,34.771,0,0,1-.371-3.467c-.5-2.786-1.651-5.091-4.457-5.819-3.1-.8-4.643.991-6.029,1.889Z" transform="translate(-588.924 -1504.365)" fill="#447431"/>
          <path id="Trazado_105204" data-name="Trazado 105204" d="M609.209,1528.632c1.671-1.672,4.107-4.807,6.521-5.674a4.853,4.853,0,0,1,3.714.309c.929.433,3.55,2.419,3.829,2.146,0,0-2.91-4.618-5.386-4.689-6.09-.176-9.323,7.711-9.379,8.218C608.463,1529.36,609.209,1528.632,609.209,1528.632Z" transform="translate(-584.842 -1472.364)" fill="#447431"/>
          <path id="Trazado_105205" data-name="Trazado 105205" d="M611.343,1503.462a20.316,20.316,0,0,1,2.119-4.243c1.2-2.212,4.657-4.639,7.141-4.62,1.06.008,4.3,1.152,3.761,1.277-1.719.4-4.372.115-5.585.693-1.3.621-4.552,2.377-7.52,7.951Z" transform="translate(-587.232 -1449.675)" fill="#447431"/>
          <path id="Trazado_105206" data-name="Trazado 105206" d="M648.912,1344.114a45.928,45.928,0,0,0,5.284-9.4c.472-1.163-.1,3.25-1.05,5.2a29.462,29.462,0,0,1-4.061,4.792Z" transform="translate(-619.936 -1310.635)" fill="#5d8f3a"/>
          <path id="Trazado_105207" data-name="Trazado 105207" d="M641.75,1355.943c-1.114.365-2.383,3.652-2.693,4.643a13.5,13.5,0,0,0-.232,5.052,19.158,19.158,0,0,0,1.371-4.848A34.455,34.455,0,0,1,641.75,1355.943Z" transform="translate(-611.049 -1329.242)" fill="#5d8f3a"/>
          <path id="Trazado_105208" data-name="Trazado 105208" d="M648.243,1376.823a9.049,9.049,0,0,1-2.353,1.486,13.859,13.859,0,0,0-2.588.8c-.124-1.919,4.184-2.957,5.188-3.938a6.6,6.6,0,0,0,1.617-3.237C650.348,1371.923,650.964,1374.433,648.243,1376.823Z" transform="translate(-615.062 -1343.136)" fill="#5d8f3a"/>
          <path id="Trazado_105209" data-name="Trazado 105209" d="M623.281,1388.156c-.144-1.585-1.362,3.913-1.021,5.434a29.525,29.525,0,0,1,.65,5.686,10.549,10.549,0,0,0,.6-5.905A14.291,14.291,0,0,1,623.281,1388.156Z" transform="translate(-596.734 -1356.975)" fill="#5d8f3a"/>
          <path id="Trazado_105210" data-name="Trazado 105210" d="M614.541,1409.144c.4,0-.369,3.32-.074,4.911.192,1.036,1.325,3.7.932,4.911C612.922,1416.366,614.027,1409.144,614.541,1409.144Z" transform="translate(-589.479 -1375.451)" fill="#5d8f3a"/>
          <path id="Trazado_105211" data-name="Trazado 105211" d="M605.74,1449.029a11.186,11.186,0,0,0-.372,2.971c0,1.733,1.672,2.353,2.229,3.838a5.742,5.742,0,0,0-.866-2.91C605.486,1450.885,606.027,1449.029,605.74,1449.029Z" transform="translate(-582.115 -1410.094)" fill="#5d8f3a"/>
          <path id="Trazado_105212" data-name="Trazado 105212" d="M636.607,1410.652c0-1.61,3.414-2.707,4.643-3.166,3.591-1.342,3.711-3.039,4.155-2.87.207.079-1.81,3.875-3.993,4.132A9.546,9.546,0,0,0,636.607,1410.652Z" transform="translate(-609.248 -1371.508)" fill="#5d8f3a"/>
          <path id="Trazado_105213" data-name="Trazado 105213" d="M635.556,1436.834c.567-.293-.593,1.787-2.726,3.077a16.91,16.91,0,0,1-3.464,1.032c-1.052.371-1.3.892-2.1,1.573a3.9,3.9,0,0,1,.552-1.735c.778-1.424,2.494-1.215,3.4-1.416C632.957,1438.978,635.094,1437.073,635.556,1436.834Z" transform="translate(-601.128 -1399.478)" fill="#5d8f3a"/>
          <path id="Trazado_105214" data-name="Trazado 105214" d="M632.079,1459.45s-3.161,2.276-3.842,2.586c-1.089.594-3.319.585-4.293,1.6-.244.255-.008.584-.083.982.309-1.362,3.43-.723,4.84-1.577C629.915,1462.305,632.357,1460.146,632.079,1459.45Z" transform="translate(-598.15 -1419.146)" fill="#5d8f3a"/>
          <path id="Trazado_105215" data-name="Trazado 105215" d="M539.17,1275.241c-.99-1.053-2.66-1.785-3.658-3.494a6.785,6.785,0,0,1-.706-3.415c1.3,2.948,3.142,3.628,4.875,5.609,1.486,1.733,2.125,2.926,2.063,3.157l.062,1.609A11.443,11.443,0,0,0,539.17,1275.241Z" transform="translate(-520.819 -1253.146)" fill="#5d8f3a"/>
        </g>
      </g>
    </g>
    <g id="Grupo_70896" data-name="Grupo 70896" transform="translate(252.404 230.995)">
      <path id="Trazado_105216" data-name="Trazado 105216" d="M728.624,553.3a9.217,9.217,0,0,0-10.043-7.986,8.95,8.95,0,0,0-7.986,10.043c.852,5.5,4.782,5.981,6.089,10.71.72,2.606,1.634,7.6,2.286,9.3.277.721,2.664.451,3.507.355s3.169-.28,3.122-1.066c-.1-1.7-.449-7.446-.241-10.14C725.769,559.179,729.306,557.612,728.624,553.3Z" transform="translate(-710.496 -545.25)" fill="#c4c4c4"/>
      <path id="Trazado_105217" data-name="Trazado 105217" d="M776.356,755.2a3.886,3.886,0,0,1-3.318,4.49c-1.6.218-4.34-.421-4.663-3.245-.3-2.619,1.4-2.028,3.613-2.282S776.112,753.056,776.356,755.2Z" transform="translate(-760.739 -726.372)" fill="#9b9b9a"/>
      <g id="Grupo_70895" data-name="Grupo 70895" transform="translate(3.483 5.457)">
        <path id="Trazado_105218" data-name="Trazado 105218" d="M743.876,609.641l-.013-.058c-.015-.069-1.526-6.959-2.242-9.155-.917-2.812-4.569-10.817-4.605-10.9l-.018-.039,1.651-1.858L740.5,589l1.625-1.79,1.852,1.4,2.04-1.835,1.78,1.158-.007.043c-.014.081-1.375,8.174-1.484,11.811-.069,2.325-.234,9.462-.236,9.534v.057Zm-6.722-20.126c.279.612,3.707,8.155,4.593,10.872.683,2.094,2.083,8.431,2.232,9.109l1.957-.239c.016-.682.168-7.263.234-9.478.105-3.509,1.371-11.145,1.478-11.787l-1.624-1.056-2.045,1.84-1.843-1.39-1.624,1.79-1.846-1.365Z" transform="translate(-736.999 -586.771)" fill="#9b9b9a"/>
      </g>
    </g>
    <g id="Grupo_70898" data-name="Grupo 70898" transform="translate(277.037 240.099)">
      <path id="Trazado_105219" data-name="Trazado 105219" d="M926.8,626.544a6.111,6.111,0,0,0,5.295-6.659,5.934,5.934,0,0,0-6.659-5.295c-3.645.565-3.965,3.17-7.1,4.037-1.728.478-5.039,1.083-6.164,1.515-.478.184-.3,1.766-.236,2.325s.186,2.1.707,2.07c1.127-.067,4.936-.3,6.723-.16C922.894,624.651,923.933,627,926.8,626.544Z" transform="translate(-910.015 -614.525)" fill="#c4c4c4"/>
      <path id="Trazado_105220" data-name="Trazado 105220" d="M900.927,658.192a2.679,2.679,0,0,1-.825-5.292c1.736-.2,1.345.925,1.513,2.4S902.346,658.03,900.927,658.192Z" transform="translate(-897.924 -647.837)" fill="#9b9b9a"/>
      <g id="Grupo_70897" data-name="Grupo 70897" transform="translate(3.308 2.283)">
        <path id="Trazado_105221" data-name="Trazado 105221" d="M937.525,639.105l-.043-.007c-.054-.009-5.418-.911-7.828-.984-1.541-.046-6.273-.155-6.321-.156h-.057l-.182-1.49.058-.013c.046-.01,4.613-1.011,6.068-1.486,1.863-.607,7.17-3.028,7.223-3.053l.039-.018,1.258,1.118-.906,1.225,1.187,1.077-.928,1.229,1.216,1.351Zm-14.132-1.277c.544.013,4.815.112,6.265.155,2.3.069,7.29.892,7.8.978l.683-1.05-1.221-1.357.921-1.22-1.187-1.077.905-1.224-1.1-.981c-.49.223-5.412,2.458-7.2,3.04-1.371.447-5.482,1.357-6.022,1.476Z" transform="translate(-923.094 -631.898)" fill="#9b9b9a"/>
      </g>
    </g>
    <g id="Grupo_70900" data-name="Grupo 70900" transform="translate(270.192 251.891)">
      <path id="Trazado_105222" data-name="Trazado 105222" d="M845.931,722.453a4.435,4.435,0,0,0,3.2,5.278,4.307,4.307,0,0,0,5.279-3.2c.531-2.624-1.162-3.5-.965-5.85.109-1.3.529-3.7.517-4.578,0-.371-1.128-.648-1.524-.745s-1.477-.4-1.587-.039c-.237.785-1.038,3.436-1.58,4.618C848.2,720.272,846.343,720.39,845.931,722.453Z" transform="translate(-845.837 -711.973)" fill="#c4c4c4"/>
      <path id="Trazado_105223" data-name="Trazado 105223" d="M881.269,705.76a1.944,1.944,0,0,1,3.811.768c-.3,1.232-.968.683-2.011.428S881.023,706.767,881.269,705.76Z" transform="translate(-876.58 -704.244)" fill="#9b9b9a"/>
      <g id="Grupo_70899" data-name="Grupo 70899" transform="translate(1.554 2.333)">
        <path id="Trazado_105224" data-name="Trazado 105224" d="M861.766,733.129l-.606-.924-1.032.538-.605-.942-1.225.488-.64-.858.021-.037c.02-.034,1.981-3.459,2.636-5.081.419-1.038,1.682-4.233,1.695-4.265l.021-.053,1.092.258-.008.059c0,.034-.471,3.394-.513,4.5-.055,1.421.261,5.641.264,5.684l0,.043Zm-.562-1.1.606.924.921-.492c-.033-.45-.313-4.305-.261-5.655.039-1.033.443-4,.506-4.457l-.865-.2c-.167.422-1.285,3.248-1.674,4.213-.62,1.538-2.406,4.681-2.622,5.06l.528.708,1.232-.491.6.932Z" transform="translate(-857.658 -721.994)" fill="#9b9b9a"/>
      </g>
    </g>
    <g id="Grupo_70902" data-name="Grupo 70902" transform="translate(288.528 206.816)">
      <path id="Trazado_105225" data-name="Trazado 105225" d="M1004.483,369.556a4.436,4.436,0,0,0,1.845-5.892,4.307,4.307,0,0,0-5.893-1.845c-2.32,1.335-1.857,3.183-3.753,4.59-1.045.775-3.129,2.05-3.778,2.637-.276.249.259,1.274.448,1.636s.675,1.374,1.02,1.217c.746-.34,3.265-1.492,4.51-1.866C1001.346,369.293,1002.663,370.61,1004.483,369.556Z" transform="translate(-991.844 -361.282)" fill="#c4c4c4"/>
      <path id="Trazado_105226" data-name="Trazado 105226" d="M988.226,419.531a1.944,1.944,0,0,1-1.942-3.367c1.124-.588,1.153.275,1.65,1.227S989.144,419.05,988.226,419.531Z" transform="translate(-985.351 -408.784)" fill="#9b9b9a"/>
      <g id="Grupo_70901" data-name="Grupo 70901" transform="translate(2.142 1.682)">
        <path id="Trazado_105227" data-name="Trazado 105227" d="M1002.179,381.675l-.528-.99.05-.033c.029-.019,2.859-1.89,3.719-2.591,1.1-.9,4.062-3.923,4.092-3.954l.03-.031,1.17.438-.293,1.066,1.086.419-.307,1.077,1.176.6-.221,1.048-.042.009c-.039.008-3.906.8-5.555,1.379-1.056.371-4.288,1.534-4.321,1.546Zm-.356-.946.418.784c.428-.154,3.287-1.182,4.268-1.527,1.564-.551,5.1-1.287,5.53-1.376l.183-.865-1.182-.6.3-1.066-1.085-.419.293-1.065-.978-.366c-.316.322-3.024,3.079-4.073,3.933C1004.7,378.817,1002.208,380.475,1001.823,380.73Z" transform="translate(-1001.651 -374.078)" fill="#9b9b9a"/>
      </g>
    </g>
    <g id="Grupo_70904" data-name="Grupo 70904" transform="translate(274.412 215.087)">
      <path id="Trazado_105228" data-name="Trazado 105228" d="M878.038,457.351a7.037,7.037,0,0,0,7.839,5.874,6.833,6.833,0,0,0,5.874-7.84c-.771-4.176-3.78-4.459-4.882-8.04-.607-1.973-1.413-5.764-1.948-7.044-.227-.544-2.043-.286-2.684-.194s-2.412.283-2.359.882c.115,1.3.506,5.672.407,7.733C880.088,452.8,877.423,454.072,878.038,457.351Z" transform="translate(-877.946 -437.895)" fill="#c4c4c4"/>
      <path id="Trazado_105229" data-name="Trazado 105229" d="M889.482,427.756a3.084,3.084,0,0,1,6.063-1.125c.285,1.992-1.02,1.578-2.707,1.82S889.715,429.384,889.482,427.756Z" transform="translate(-887.93 -424.212)" fill="#9b9b9a"/>
      <g id="Grupo_70903" data-name="Grupo 70903" transform="translate(3.044 3.79)">
        <path id="Trazado_105230" data-name="Trazado 105230" d="M902.513,470.588l-1.4-.856.006-.043c.009-.062.87-6.267.873-9.044,0-1.776-.029-7.226-.029-7.281v-.057l1.692-.257.014.058c.013.053,1.317,5.276,1.911,6.935.761,2.125,3.723,8.153,3.753,8.213l.019.038-1.235,1.473-1.439-1-1.2,1.4-1.445-1.026Zm-1.261-.923,1.243.759,1.521-1.45,1.436,1.02,1.2-1.4,1.438,1,1.1-1.315c-.256-.522-3.008-6.146-3.74-8.189-.562-1.57-1.755-6.309-1.9-6.89l-1.461.222c0,.588.031,5.547.029,7.225C902.117,463.309,901.329,469.107,901.252,469.664Z" transform="translate(-901.11 -453.051)" fill="#9b9b9a"/>
      </g>
    </g>
    <g id="Grupo_70906" data-name="Grupo 70906" transform="translate(292.055 219.11)">
      <path id="Trazado_105231" data-name="Trazado 105231" d="M1021.4,454.891a8.034,8.034,0,0,0-9.1,6.5,7.8,7.8,0,0,0,6.5,9.1c4.811.606,6.159-2.571,10.436-2.532,2.357.022,6.761.455,8.339.316.671-.059,1.018-2.124,1.14-2.854s.526-2.723-.143-2.872c-1.45-.323-6.347-1.41-8.555-2.231C1025.644,458.7,1025.18,455.356,1021.4,454.891Z" transform="translate(-1012.187 -454.825)" fill="#c4c4c4"/>
      <path id="Trazado_105232" data-name="Trazado 105232" d="M1194.554,509.051a3.388,3.388,0,0,1,2.966,3.858c-.2,1.395-1.395,3.536-3.839,3.128-2.266-.378-1.365-1.656-1.045-3.575S1192.7,508.742,1194.554,509.051Z" transform="translate(-1168.531 -501.894)" fill="#9b9b9a"/>
      <g id="Grupo_70905" data-name="Grupo 70905" transform="translate(4.637 2.939)">
        <path id="Trazado_105233" data-name="Trazado 105233" d="M1048.633,486.63l-1.168-1.841,1.588-1.22-1.111-1.791,1.616-1.217-1.048-2.149,1.407-1.222.039.019c.065.031,6.519,3.114,9.541,4.078,1.932.617,7.873,2.468,7.933,2.486l.054.017-.3,1.913-.06,0c-.062,0-6.2-.391-8.209-.319-2.576.093-10.16,1.232-10.236,1.244Zm-.993-1.81,1.058,1.667c.618-.092,7.726-1.149,10.209-1.239,1.911-.07,7.519.275,8.162.315l.267-1.683c-.6-.188-6.047-1.885-7.88-2.47-2.907-.927-8.973-3.806-9.518-4.066l-1.266,1.1,1.052,2.156-1.607,1.21,1.11,1.79Z" transform="translate(-1047.465 -477.19)" fill="#9b9b9a"/>
      </g>
    </g>
    <g id="Grupo_70934" data-name="Grupo 70934" transform="translate(329.338 252.617)">
      <path id="Trazado_105234" data-name="Trazado 105234" d="M1372.684,1961.151c-7.767-.752-23.761,1.108-28.466-3.832-3.556-3.734-31.27-2.319-36.068,2.434s-18.2,6.375-9.31,11.772,20.836,3.488,31.545,3.488,5.522,4.26,25.481.306,29.833-6.1,28.048-11.267C1382.911,1961.151,1378.469,1961.711,1372.684,1961.151Z" transform="translate(-1295.862 -1791.507)" fill="#f5dacf"/>
      <g id="Grupo_70907" data-name="Grupo 70907" transform="translate(39.301 95.767)">
        <path id="Trazado_105235" data-name="Trazado 105235" d="M1594.891,2019.072c0,1.121,10.132,2.9,21.52,2.9s19.722-1.776,19.722-2.9-10.839-3.4-22.228-3.4S1594.891,2017.95,1594.891,2019.072Z" transform="translate(-1594.891 -1939.803)" fill="#944951"/>
        <path id="Trazado_105236" data-name="Trazado 105236" d="M1736.323,1850.015a3.814,3.814,0,0,0,2.033.487c1.6,0,2.033-.487,2.033-.487v-28.594h-4.066Z" transform="translate(-1717.735 -1771.084)" fill="#803f46"/>
        <path id="Trazado_105237" data-name="Trazado 105237" d="M1661.008,1438.452c4.076,1.421-3.126,46.552-17.143,52.5-11.674,4.951-24.4-6.2-23.388-6.7,1.252-.615,3.085-.96,6.346-.278,6.612,1.384,17.286,5.292,20.446-.963C1654.833,1468.04,1657.761,1437.32,1661.008,1438.452Z" transform="translate(-1617.065 -1438.422)" fill="#a04f58"/>
      </g>
      <g id="Grupo_70909" data-name="Grupo 70909" transform="translate(13.373 66.31)">
        <path id="Trazado_105238" data-name="Trazado 105238" d="M1488.063,2009.408c-.193,1.988,2.416,5,.211,5.168-1.349.1-13.747.72-14.587-1.067-.947-2.015,4.54-2.242,9.689-3.737C1484.495,2009.448,1488.165,2008.354,1488.063,2009.408Z" transform="translate(-1463.596 -1904.517)" fill="#543716"/>
        <path id="Trazado_105239" data-name="Trazado 105239" d="M1410.642,1885.022c-.173,1.988,2.174,5,.19,5.167-1.214.1-12.368.72-13.123-1.067-.852-2.015,4.084-2.242,8.717-3.736C1407.431,1885.062,1410.733,1883.968,1410.642,1885.022Z" transform="translate(-1397.611 -1796.48)" fill="#67431b"/>
        <path id="Trazado_105240" data-name="Trazado 105240" d="M1643.771,1484.832s-5.361,8.844-8.922,12.037c-3.52,3.157-16.054,5.885-16.054,5.885l2.824,1.819s17.278-2.074,19.105-3.7S1643.771,1484.832,1643.771,1484.832Z" transform="translate(-1589.725 -1449.275)" fill="#417350"/>
        <path id="Trazado_105241" data-name="Trazado 105241" d="M1496.551,1644.93s-3.36,9.154-13.019,9.335c-8.207.154-19.178-9.206-21.411-11.295s-4.923.407-5.378,1.791c-1.615,4.923-3.406,20.18-4.438,22.185-.613,1.188-3.616.663-6.042-.435-1.983-.9-3.582-2.173-3.177-3.207,1.365-3.478,6.744-29.724,14-33.309,2.5-1.233,15.9,4.468,24.06,6.288,3.221.72,9.088,4.388,12.579,6.71C1495.417,1644.122,1496.551,1644.93,1496.551,1644.93Z" transform="translate(-1437.054 -1575.211)" fill="#c4c4c4"/>
        <path id="Trazado_105242" data-name="Trazado 105242" d="M1525.421,1730.376s-8.338-2.036-8.707,2.062c-.36,3.995.4,26.772.5,30.109.03,1.038-1.643,1.5-3.784,1.531-3.841.046-9.192-1.323-8.934-3.348.492-3.863.853-16.343,2.048-25.306.406-3.046,1.337-14.025,6.913-13.485,1.078.1,4.145,2.276,6.9,4.39C1523.035,1728.38,1525.421,1730.376,1525.421,1730.376Z" transform="translate(-1490.438 -1655.203)" fill="#afafaf"/>
        <path id="Trazado_105243" data-name="Trazado 105243" d="M1800.084,1260.788s4.68-7.648,1.723-9.927-3.64-1.148-4.149-4.587c-.741-5,.169-12.581,2.555-13.841,2.463-1.3,12.384-1.7,13.187,4.427.836,6.375-4.388,14.3-3.893,18.123l.5,3.827s-2.364,2.815-5,3.177A7.97,7.97,0,0,1,1800.084,1260.788Z" transform="translate(-1744.861 -1229.36)" fill="#ebd7be"/>
        <path id="Trazado_105244" data-name="Trazado 105244" d="M1810.372,1222.426c-2.241-1.257-10.3,1.309-9.173-4.095.979-4.7,10.232-4.536,13.44-3.285,2.756,1.074,5.905,4.658,5.453,10.655s-1.092,10.869-3.113,14.63c-1.531,2.849-8.935,1.027-9.458-1.178C1805.769,1231.773,1816.284,1225.74,1810.372,1222.426Z" transform="translate(-1748.063 -1214.293)" fill="#66361a"/>
        <path id="Trazado_105245" data-name="Trazado 105245" d="M1517.963,1667.58s-3.36,9.154-13.019,9.335c-8.207.154-19.178-9.206-21.411-11.295s-4.923.407-5.378,1.791c-1.615,4.923-3.406,20.18-4.438,22.185-.613,1.188-3.616.663-6.042-.435,1.933-8.485,7.876-26.415,11.748-31.675,4.911-6.67,20.381,9.727,25.167,11.58s5.59-4.49,5.59-4.49Z" transform="translate(-1458.466 -1597.86)" fill="#afafaf"/>
        <path id="Trazado_105246" data-name="Trazado 105246" d="M1533.561,1582.024l-6.284,5.352-16.4-10.578,6.6-4.634Z" transform="translate(-1495.987 -1525.13)" fill="#9b9b9a"/>
        <path id="Trazado_105247" data-name="Trazado 105247" d="M1734.214,1474.9c3.8,2.39,7.914,4.294,8.834,3.423.743-.7,2.193-5.882,5.443-19.082s.514-22.135.514-22.135-1.424.923-4.959,1.038c-2.6.085-3.557-.834-4.024-.576-1.1.609-7.206,6.966-7.17,11.033a23.6,23.6,0,0,1-.177,3.038,38.493,38.493,0,0,1-1.827,7.657c-1.473,4.362-3.277,7.9-3.62,9.238,0,.017-.009.033-.012.049a.515.515,0,0,0-.013.089C1727.141,1469.824,1730.534,1472.591,1734.214,1474.9Z" transform="translate(-1683.885 -1407.824)" fill="#508c62"/>
        <g id="Grupo_70908" data-name="Grupo 70908" transform="translate(16 47.561)">
          <path id="Trazado_105248" data-name="Trazado 105248" d="M1540.138,1585.56l-5.454,4.732-15.332-9.935,5.72-4.192Z" transform="translate(-1519.353 -1576.166)" fill="#f2efdf"/>
          <path id="Trazado_105249" data-name="Trazado 105249" d="M1566.518,1610.22l4.956-4-.431-.275-4.956,4Z" transform="translate(-1559.944 -1602.031)" fill="#d8d8d8"/>
          <path id="Trazado_105250" data-name="Trazado 105250" d="M1530.636,1586.524l4.956-4-.431-.275-4.956,4Z" transform="translate(-1528.779 -1581.449)" fill="#d8d8d8"/>
          <path id="Trazado_105251" data-name="Trazado 105251" d="M1564.371,1592.574l2.229-1.828-.395-.3-2.228,1.828Z" transform="translate(-1558.111 -1588.572)" fill="#d8d8d8"/>
          <path id="Trazado_105252" data-name="Trazado 105252" d="M1554.392,1616.247l2.228-1.828-.395-.3-2.228,1.828Z" transform="translate(-1549.444 -1609.133)" fill="#d8d8d8"/>
        </g>
        <path id="Trazado_105253" data-name="Trazado 105253" d="M1734.214,1520.787c1.822.766,5.347-.728,6.375-1.339,3.3-1.962-.562-5.074,4.893-12.347,3.073-4.1,2.537-8.327,2.137-12.63-.258-2.777-2.812-4.68-4.214-4.526-3.172.349-5.427,7.293-8.735,9.588-1.217.844-2.588,3.112-3.822,5.65a63.61,63.61,0,0,0-3.62,9.238c0,.017-.009.033-.012.049a.515.515,0,0,0-.013.089C1727.141,1515.707,1730.534,1518.474,1734.214,1520.787Z" transform="translate(-1683.885 -1453.708)" fill="#417350"/>
        <path id="Trazado_105254" data-name="Trazado 105254" d="M1571.825,1599.681l-.311.264.381.135,9.966-1.727-.069-.4Z" transform="translate(-1548.658 -1547.529)" fill="#afafaf"/>
        <path id="Trazado_105255" data-name="Trazado 105255" d="M1583.825,1601.883s-8.519-2.418-7.767-5.643,8.68,2.226,8.68,2.226Z" transform="translate(-1552.564 -1545.155)" fill="#ebd7be"/>
        <path id="Trazado_105256" data-name="Trazado 105256" d="M1658.6,1487.369c-2.061,1.969-2.569,10.636-8.492,14.042-4.226,2.43-13.065.63-17.794,2.076-.814.249-.925,3.315-.292,3.883,3.357,3.012,15.228,2.912,20.14,2.22,3.67-.517,11.452-6.818,12.284-14.636C1665.376,1486.277,1660.115,1485.926,1658.6,1487.369Z" transform="translate(-1600.865 -1450.916)" fill="#508c62"/>
        <path id="Trazado_105257" data-name="Trazado 105257" d="M1511.44,1730.749c-1.84,4.086-1.9,18.594-1.9,26.882,0,3.166,1.019,4.917,3.886,6.448-3.841.046-9.192-1.323-8.934-3.348.492-3.863.853-16.343,2.048-25.306.406-3.046,1.337-14.025,6.913-13.485,1.078.1,4.145,2.276,6.9,4.39C1516.914,1726.11,1513.615,1725.92,1511.44,1730.749Z" transform="translate(-1490.438 -1655.203)" fill="#c4c4c4"/>
      </g>
      <path id="Trazado_105258" data-name="Trazado 105258" d="M1716.435,734.893c-4.993-10.477-18.691-36.535-47.7-19.49s-30.178,40.913-14.446,48.434,37.663,13.913,43.373,8.91-5.44,11.883-5.44,11.883S1727.83,758.806,1716.435,734.893Z" transform="translate(-1598.433 -709.766)" fill="#fff"/>
      <g id="Grupo_70915" data-name="Grupo 70915" transform="translate(53.185 16.667)">
        <g id="Grupo_70911" data-name="Grupo 70911" transform="translate(4.787 7.74)">
          <path id="Trazado_105259" data-name="Trazado 105259" d="M1747.088,900.391a5.145,5.145,0,0,0-5.207-4.917,5,5,0,0,0-4.917,5.207c.213,3.1,2.376,3.553,2.879,6.245.277,1.483.548,4.3.83,5.279.12.414,1.46.377,1.933.364s1.776-.005,1.787-.445c.024-.951.1-4.162.346-5.651C1745.221,903.527,1747.263,902.823,1747.088,900.391Z" transform="translate(-1736.953 -895.471)" fill="#f9eb37"/>
          <path id="Trazado_105260" data-name="Trazado 105260" d="M1766.221,1014.181a2.255,2.255,0,0,1-4.5.314c-.042-1.471.872-1.062,2.118-1.1S1766.186,1012.979,1766.221,1014.181Z" transform="translate(-1758.466 -997.824)" fill="#9b9b9a"/>
          <g id="Grupo_70910" data-name="Grupo 70910" transform="translate(1.996 3.226)">
            <path id="Trazado_105261" data-name="Trazado 105261" d="M1755,932.61l0-.024c-.005-.039-.519-3.943-.813-5.2-.377-1.608-2.029-6.234-2.045-6.28l-.006-.016.013-.012.982-.932.962.847.989-.919.963.864,1.222-.924.924.72,0,.017c-.011.045-1.152,4.482-1.385,6.5-.149,1.29-.579,5.252-.583,5.291l0,.023Zm-2.8-11.5c.109.306,1.675,4.707,2.041,6.27.283,1.206.767,4.846.81,5.18l1.118-.041c.036-.328.438-4.03.58-5.269.226-1.958,1.3-6.186,1.382-6.49l-.864-.673-1.224.926-.959-.861-.988.918-.962-.847Z" transform="translate(-1752.138 -920.015)" fill="#9b9b9a"/>
          </g>
        </g>
        <g id="Grupo_70912" data-name="Grupo 70912" transform="translate(14.955 4.194)">
          <path id="Trazado_105262" data-name="Trazado 105262" d="M1814.451,873.818a.134.134,0,0,1-.115-.2l2.995-5.062a.134.134,0,1,1,.231.137l-2.995,5.062A.134.134,0,0,1,1814.451,873.818Z" transform="translate(-1814.317 -868.488)" fill="#f9eb37"/>
        </g>
        <g id="Grupo_70913" data-name="Grupo 70913" transform="translate(0 5.366)">
          <path id="Trazado_105263" data-name="Trazado 105263" d="M1704.469,882.152a.134.134,0,0,1-.1-.047l-3.809-4.482a.134.134,0,1,1,.2-.173l3.809,4.481a.134.134,0,0,1-.1.221Z" transform="translate(-1700.526 -877.403)" fill="#f9eb37"/>
        </g>
        <g id="Grupo_70914" data-name="Grupo 70914" transform="translate(9.011)">
          <path id="Trazado_105264" data-name="Trazado 105264" d="M1769.667,842.711a.134.134,0,0,1-.134-.124l-.444-5.865a.134.134,0,0,1,.267-.02l.444,5.865a.134.134,0,0,1-.124.144Z" transform="translate(-1769.089 -836.578)" fill="#f9eb37"/>
        </g>
      </g>
      <g id="Grupo_70921" data-name="Grupo 70921" transform="translate(70.34 24.37)">
        <g id="Grupo_70917" data-name="Grupo 70917" transform="translate(7.453 10.782)">
          <path id="Trazado_105265" data-name="Trazado 105265" d="M1902.027,983.63a7.249,7.249,0,0,0-7.829-6.367,7.039,7.039,0,0,0-6.367,7.83c.623,4.331,3.709,4.744,4.7,8.475.544,2.055,1.219,5.991,1.718,7.331.212.569,2.091.378,2.755.309s2.495-.193,2.464-.811c-.065-1.338-.289-5.859-.1-7.976C1899.731,988.232,1902.526,987.03,1902.027,983.63Z" transform="translate(-1887.764 -977.225)" fill="#f9eb37"/>
          <path id="Trazado_105266" data-name="Trazado 105266" d="M1938.215,1142.673a3.178,3.178,0,0,1-6.287.911c-.213-2.062,1.115-1.583,2.861-1.763S1938.042,1140.988,1938.215,1142.673Z" transform="translate(-1926.104 -1119.949)" fill="#9b9b9a"/>
          <g id="Grupo_70916" data-name="Grupo 70916" transform="translate(2.761 4.338)">
            <path id="Trazado_105267" data-name="Trazado 105267" d="M1914.005,1028.17l-.007-.034c-.011-.055-1.14-5.486-1.684-7.22-.7-2.22-3.5-8.547-3.529-8.611l-.01-.023,1.3-1.431,1.44,1.09,1.293-1.394,1.443,1.114,1.62-1.426,1.374.915,0,.024c-.012.064-1.152,6.418-1.269,9.278-.075,1.828-.265,7.439-.267,7.5v.033Zm-5.141-15.873c.185.418,2.845,6.439,3.522,8.6.523,1.666,1.583,6.73,1.679,7.194l1.566-.174c.016-.465.195-5.708.266-7.464.114-2.775,1.187-8.828,1.265-9.264l-1.284-.855-1.624,1.429-1.438-1.11-1.292,1.394-1.44-1.089Z" transform="translate(-1908.775 -1010.235)" fill="#9b9b9a"/>
          </g>
        </g>
        <g id="Grupo_70918" data-name="Grupo 70918" transform="translate(21.421 4.96)">
          <path id="Trazado_105268" data-name="Trazado 105268" d="M1994.227,940.731a.189.189,0,0,1-.169-.273l3.68-7.425a.189.189,0,0,1,.339.168l-3.68,7.425A.189.189,0,0,1,1994.227,940.731Z" transform="translate(-1994.039 -932.928)" fill="#f9eb37"/>
        </g>
        <g id="Grupo_70919" data-name="Grupo 70919" transform="translate(0 8.48)">
          <path id="Trazado_105269" data-name="Trazado 105269" d="M1837.064,965.982a.188.188,0,0,1-.134-.056l-5.819-5.9a.189.189,0,0,1,.269-.265l5.819,5.9a.189.189,0,0,1-.134.322Z" transform="translate(-1831.056 -959.704)" fill="#f9eb37"/>
        </g>
        <g id="Grupo_70920" data-name="Grupo 70920" transform="translate(12.102)">
          <path id="Trazado_105270" data-name="Trazado 105270" d="M1924.562,903.758a.189.189,0,0,1-.186-.161l-1.236-8.194a.189.189,0,0,1,.374-.056l1.235,8.195a.189.189,0,0,1-.159.215Z" transform="translate(-1923.138 -895.186)" fill="#f9eb37"/>
        </g>
      </g>
      <g id="Grupo_70927" data-name="Grupo 70927" transform="translate(92.595 15.064)">
        <g id="Grupo_70923" data-name="Grupo 70923" transform="translate(4.659 6.679)">
          <path id="Trazado_105271" data-name="Trazado 105271" d="M2045.712,879.438a4.8,4.8,0,0,0-5.075-4.239c-2.725.069-4.981,2.083-4.793,4.488.208,2.67,2.316,3.062,2.806,5.383.27,1.279.534,3.71.809,4.55.117.357,1.423.325,1.885.313s1.731,0,1.742-.383a43.683,43.683,0,0,1,.338-4.87C2043.892,882.142,2045.882,881.535,2045.712,879.438Z" transform="translate(-2035.832 -875.198)" fill="#f9eb37"/>
          <path id="Trazado_105272" data-name="Trazado 105272" d="M2064.361,977.517a1.982,1.982,0,0,1-2.007,2.017c-.878.039-2.333-.379-2.377-1.746-.041-1.268.85-.915,2.064-.946S2064.327,976.48,2064.361,977.517Z" transform="translate(-2056.802 -963.418)" fill="#9b9b9a"/>
          <g id="Grupo_70922" data-name="Grupo 70922" transform="translate(1.946 2.78)">
            <path id="Trazado_105273" data-name="Trazado 105273" d="M2053.437,907.207l0-.022c-.005-.034-.506-3.4-.792-4.48-.367-1.386-1.977-5.372-1.993-5.413l-.007-.016.969-.813.938.73.963-.792.016.012.923.732,1.191-.8.9.62,0,.017a55.814,55.814,0,0,0-1.35,5.6c-.145,1.112-.564,4.526-.568,4.561l0,.021Zm-2.737-9.916c.114.283,1.633,4.059,1.989,5.4.275,1.039.746,4.172.79,4.464l1.093-.036c.035-.29.427-3.474.565-4.54a55.052,55.052,0,0,1,1.347-5.592l-.843-.581-1.193.8-.014-.011-.921-.731-.963.792-.938-.73Z" transform="translate(-2050.641 -896.349)" fill="#9b9b9a"/>
          </g>
        </g>
        <g id="Grupo_70924" data-name="Grupo 70924" transform="translate(14.578 3.615)">
          <path id="Trazado_105274" data-name="Trazado 105274" d="M2111.426,856.494a.123.123,0,0,1-.1-.191l2.919-4.363a.123.123,0,0,1,.2.137l-2.919,4.363A.123.123,0,0,1,2111.426,856.494Z" transform="translate(-2111.303 -851.885)" fill="#f9eb37"/>
        </g>
        <g id="Grupo_70925" data-name="Grupo 70925" transform="translate(0 4.625)">
          <path id="Trazado_105275" data-name="Trazado 105275" d="M2004.22,863.678a.123.123,0,0,1-.089-.038l-3.712-3.863a.123.123,0,1,1,.177-.17l3.713,3.863a.123.123,0,0,1-.089.208Z" transform="translate(-2000.385 -859.569)" fill="#f9eb37"/>
        </g>
        <g id="Grupo_70926" data-name="Grupo 70926" transform="translate(8.784)">
          <path id="Trazado_105276" data-name="Trazado 105276" d="M2067.772,829.682a.123.123,0,0,1-.122-.112l-.433-5.055a.123.123,0,0,1,.245-.021l.433,5.055a.123.123,0,0,1-.112.133Z" transform="translate(-2067.217 -824.382)" fill="#f9eb37"/>
        </g>
      </g>
      <g id="Grupo_70933" data-name="Grupo 70933" transform="translate(77.797 1.899)">
        <g id="Grupo_70929" data-name="Grupo 70929" transform="translate(4.788 7.741)">
          <path id="Trazado_105277" data-name="Trazado 105277" d="M1934.355,788.033a5.144,5.144,0,0,0-5.207-4.917,5,5,0,0,0-4.917,5.207c.213,3.1,2.376,3.553,2.879,6.245.277,1.483.548,4.3.83,5.279.12.414,1.46.377,1.934.364s1.776-.005,1.787-.445c.024-.95.1-4.162.346-5.651C1932.488,791.169,1934.53,790.465,1934.355,788.033Z" transform="translate(-1924.22 -783.113)" fill="#f9eb37"/>
          <path id="Trazado_105278" data-name="Trazado 105278" d="M1953.486,901.822a2.255,2.255,0,0,1-4.5.314c-.042-1.471.872-1.062,2.118-1.1S1953.452,900.62,1953.486,901.822Z" transform="translate(-1945.732 -885.465)" fill="#9b9b9a"/>
          <g id="Grupo_70928" data-name="Grupo 70928" transform="translate(1.996 3.226)">
            <path id="Trazado_105279" data-name="Trazado 105279" d="M1942.271,820.252l0-.024c-.005-.039-.519-3.943-.813-5.2-.377-1.608-2.029-6.234-2.045-6.28l-.006-.016.013-.012.983-.932.962.847.989-.919.963.864,1.222-.924.924.72,0,.017c-.011.045-1.152,4.482-1.385,6.5-.149,1.29-.579,5.251-.583,5.291l0,.023Zm-2.805-11.5c.109.306,1.675,4.707,2.041,6.269.283,1.206.767,4.846.811,5.18l1.118-.041c.036-.328.438-4.03.581-5.269.226-1.958,1.3-6.186,1.382-6.49l-.864-.673-1.224.926-.959-.861-.988.918-.962-.846Z" transform="translate(-1939.404 -807.657)" fill="#9b9b9a"/>
          </g>
        </g>
        <g id="Grupo_70930" data-name="Grupo 70930" transform="translate(14.955 4.194)">
          <path id="Trazado_105280" data-name="Trazado 105280" d="M2001.717,761.459a.133.133,0,0,1-.068-.019.134.134,0,0,1-.047-.184l2.995-5.062a.134.134,0,1,1,.231.136l-2.995,5.062A.134.134,0,0,1,2001.717,761.459Z" transform="translate(-2001.584 -756.129)" fill="#f9eb37"/>
        </g>
        <g id="Grupo_70931" data-name="Grupo 70931" transform="translate(0 5.366)">
          <path id="Trazado_105281" data-name="Trazado 105281" d="M1891.736,769.793a.133.133,0,0,1-.1-.047l-3.809-4.482a.134.134,0,0,1,.2-.173l3.809,4.482a.134.134,0,0,1-.1.221Z" transform="translate(-1887.793 -765.044)" fill="#f9eb37"/>
        </g>
        <g id="Grupo_70932" data-name="Grupo 70932" transform="translate(9.011)">
          <path id="Trazado_105282" data-name="Trazado 105282" d="M1956.934,730.351a.134.134,0,0,1-.134-.124l-.444-5.864a.134.134,0,1,1,.267-.02l.444,5.865a.134.134,0,0,1-.124.144Z" transform="translate(-1956.356 -724.218)" fill="#f9eb37"/>
        </g>
      </g>
    </g>
  </g>
</svg>
